<svg xmlns="http://www.w3.org/2000/svg" viewBox="0 0 168.2 145.98"><defs><style>.cls-1{fill:none;stroke:#fff;stroke-linecap:round;stroke-linejoin:round;stroke-width:0.9px;}.cls-2{fill:#79b2ff;}.cls-3{fill:#9bc6ff;}.cls-4{fill:#ffcb7c;}.cls-5{fill:#f6838d;}</style></defs><title>alianzas cifras</title><g id="Capa_2" data-name="Capa 2"><g id="Capa_1-2" data-name="Capa 1"><polyline class="cls-1" points="112.69 127.66 129.5 117.95 115.71 127.23 129.52 119.26 120.61 126.14 128.74 121.45"/><polyline class="cls-1" points="129.6 116.52 153.81 102.53 131.66 116.42 154.35 103.32 134.85 116.25 155.06 104.58 137.7 116 155.48 105.74 140.06 115.71 155.58 106.74 144.49 114.92 155.26 108.7 149.41 113.47 153.65 111.02"/><polyline class="cls-1" points="139.09 92.2 157.76 81.43 142.52 92.15 158.8 82.75 145.62 91.94 159.4 83.99 148.18 91.67 159.63 85.06 151.6 91.08 159.41 86.57"/><line class="cls-1" x1="145.03" y1="72.78" x2="148.76" y2="70.62"/><polyline class="cls-1" points="146.32 61.99 165.59 50.87 148.91 61.97 166.42 51.87 151.57 61.89 167.15 52.89 155.22 61.61 167.75 54.37 160.16 60.78 167.47 56.55"/><polyline class="cls-1" points="17.19 95.25 21.43 92.81 15.65 97.39 25.96 91.44 15.26 99 29.55 90.75 15.37 100.56 33.19 90.27 15.77 101.62 35.83 90.04 16.48 102.93 39.13 89.85 17.08 103.8 41.41 89.75 18.24 105.09 147.9 30.23 19.4 106.25 149.42 31.18 20.61 107.22 150.71 32.11 21.49 107.9 151.58 32.79 22.92 108.91 152.81 33.92 23.95 109.56 153.52 34.76 25.23 110.38 154.31 35.86 26.52 111.1 154.81 37.03 28.01 111.91 154.93 38.64 29.14 112.53 154.05 40.41 30.67 113.25 152.12 43.12 32 113.87 153.53 43.7 33.05 114.37 154.65 44.16 35.1 115.24 156.61 45.09 36.43 115.79 157.86 45.68 37.68 116.31 158.98 46.28 39.36 116.94 160.38 47.07 40.62 117.4 161.4 47.66 42.73 118.17 162.98 48.74 37.94 122.14 163.91 49.41 37.59 123.72 164.86 50.24 37.93 125.33 146.57 62.61 38.73 126.74 147.85 63.73 39.41 127.64 148.57 64.61 40.16 128.38 149.21 65.41 40.94 129.13 149.65 66.37 42.16 130.06 149.97 67.81 43.66 131.12 143.88 73.27 45.1 132.02 145.59 74 46.75 132.95 147.47 74.8 48.24 133.74 149.02 75.56 49.73 134.44 150.47 76.28 51.15 135.07 151.75 77 52.84 135.83 153.24 77.86 54.12 136.35 154.25 78.54 55.71 136.94 155.43 79.37 57.75 137.7 156.79 80.52 59.29 138.25 138.79 92.35 60.69 138.69 139.96 92.92 63.02 139.41 141.9 93.87 64.8 139.97 143.33 94.62 66.15 140.32 144.33 95.19 67.66 140.71 145.44 95.81 69.89 141.29 147 96.77 72.32 141.88 148.6 97.83 74.36 142.3 149.83 98.73 76.28 142.7 150.92 99.61 77.82 143.03 151.78 100.33 79.21 143.28 152.44 101.01 81.65 143.68 153.56 102.16 83.54 143.99 129.38 117.52 86.36 144.4 113.73 128.6 88.2 144.61 114.9 129.2 90.78 144.91 116.44 130.09 93.27 145.14 117.85 130.95 95.63 145.3 119.02 131.79 97.5 145.42 119.94 132.46 100.53 145.51 121.19 133.58 102.83 145.53 122.06 134.43 105.06 145.51 122.73 135.31 108.62 145.32 123.52 136.72 111.76 145.01 123.86 138.03 115.19 144.44 123.67 139.54 118.88 143.39 122.5 141.3"/><polyline class="cls-1" points="2.41 57.65 6.59 55.23 0.46 60.84 13.44 53.35 0.45 62.15 16.47 52.9 0.74 63.4 19.5 52.57 1.29 64.7 22.74 52.32 1.83 65.58 24.91 52.25 2.37 66.31 26.84 52.19 3.38 67.45 112.19 4.63 4.43 68.45 114.09 5.14 5.23 69.15 115.47 5.51 6.12 69.88 116.84 5.95 7.57 70.92 118.92 6.63 9.07 71.92 120.99 7.31 10.66 72.9 122.96 8.06 11.95 73.62 124.47 8.66 13.04 74.19 125.71 9.14 14.73 75.07 127.53 9.95 15.87 75.66 128.71 10.51 17.46 76.38 130.26 11.26 18.55 76.86 131.29 11.77 19.81 77.41 132.39 12.41 21.72 78.25 134.07 13.39 23.13 78.77 135.13 14.11 25.13 79.52 136.6 15.16 26.89 80.18 137.79 16.15 28.23 80.67 138.63 16.93 30.44 81.38 139.8 18.24 32.7 82.1 140.79 19.69 33.9 82.49 141.15 20.57 35.21 82.89 141.44 21.56 37.31 83.46 141.36 23.39 39.09 83.95 139.94 25.72 41.26 84.55 141.19 26.86 41.53 85.98 142.76 27.54 41.31 87.31 143.9 28.08 41.44 88.7 145.26 28.76"/><polyline class="cls-1" points="25.6 44.39 29.3 42.26 24.36 46.97 34.83 40.92 24.49 48.12 37.57 40.57 24.86 49.11 39.99 40.38 25.81 50.51 107.32 3.45 26.85 51.6 109.46 3.9"/><polyline class="cls-1" points="60.99 5.04 64.85 2.81 59.33 7.63 70.22 1.34 59.23 8.84 73 0.89 59.54 10.37 76.44 0.61"/><polyline class="cls-1" points="21.62 23.74 25.19 21.68 20.31 25.91 29.73 20.47 20.35 26.97 32.26 20.09 20.86 28.51 52.15 10.45 21.59 29.63 54.84 10.43 22.53 30.75 57.57 10.52 23.62 31.72 77.67 0.51 25.13 32.89 81.32 0.45 26.69 33.96 84.68 0.48 28.19 34.82 87.43 0.62 29.39 35.51 89.63 0.73 31.27 36.44 92.58 1.04 32.85 37.2 95.03 1.3 34.7 37.98 97.6 1.66 36.19 38.61 99.63 1.98 38.14 39.34 102.14 2.38 39.78 39.93 104.14 2.77"/><polyline class="cls-1" points="34.08 14.52 37.63 12.47 32.85 16.42 41.54 11.4 32.92 18.43 46.29 10.71 33.51 19.7 49.41 10.52"/><path class="cls-2" d="M121,64.66A36.12,36.12,0,1,1,84.87,28.54,36.12,36.12,0,0,1,121,64.66Z"/><path class="cls-3" d="M84.87,28.55A18.86,18.86,0,0,0,66,47.41v34.5a18.86,18.86,0,0,0,37.72,0V47.41A18.85,18.85,0,0,0,84.87,28.55Z"/><path class="cls-4" d="M133.75,11.45H97.9a4.33,4.33,0,0,0-4.32,4.33v19.9A4.32,4.32,0,0,0,97.9,40h5.83v7.12L110.85,40h22.9a4.32,4.32,0,0,0,4.33-4.32V15.78A4.33,4.33,0,0,0,133.75,11.45Z"/><path class="cls-5" d="M36,117.87H71.84a4.33,4.33,0,0,0,4.33-4.33V93.64a4.32,4.32,0,0,0-4.33-4.32H66V82.2l-7.12,7.12H36a4.31,4.31,0,0,0-4.32,4.32v19.9A4.32,4.32,0,0,0,36,117.87Z"/><path d="M133.75,9.29H97.9a6.49,6.49,0,0,0-6.48,6.49V26.93a38.78,38.78,0,0,0-6.55-.55,38.28,38.28,0,0,0-31,60.77H36a6.5,6.5,0,0,0-6.49,6.49v19.9A6.5,6.5,0,0,0,36,120h8.19a2.17,2.17,0,1,0,0-4.33H36a2.16,2.16,0,0,1-2.16-2.16V93.64A2.16,2.16,0,0,1,36,91.48H58.9a2.13,2.13,0,0,0,1.52-.64l3.43-3.42v1.9A2.16,2.16,0,0,0,66,91.48h5.83A2.16,2.16,0,0,1,74,93.64v19.9a2.16,2.16,0,0,1-2.16,2.16H63.65a2.17,2.17,0,0,0,0,4.33h8.19a6.5,6.5,0,0,0,6.49-6.49V102.38a38.3,38.3,0,0,0,44.83-37.72,38.11,38.11,0,0,0-7.31-22.49h17.9a6.5,6.5,0,0,0,6.49-6.49V15.78A6.5,6.5,0,0,0,133.75,9.29ZM111,42.94a34.29,34.29,0,0,1,4.19,6.34H105.9V48ZM87,98.46V78.28h14.53v3.63A16.72,16.72,0,0,1,87,98.46ZM87,74V53.61h14.53V74ZM50.92,64.66a33.93,33.93,0,0,1,1.84-11H63.85V74H52.21A34,34,0,0,1,50.92,64.66Zm17.25-11H82.71V74H68.17ZM82.71,30.86V49.28H68.17V47.41A16.72,16.72,0,0,1,82.71,30.86ZM105.9,53.61H117A34.1,34.1,0,0,1,117.54,74H105.9Zm-4.33-4.33H87V30.85A16.36,16.36,0,0,1,91.42,32v3.64a6.49,6.49,0,0,0,6.48,6.49h3.67Zm-34-13.85a21,21,0,0,0-3.75,12v1.87H54.6A34.34,34.34,0,0,1,67.6,35.43ZM58.77,86.38a33.84,33.84,0,0,1-5-8.1H63.85v3Zm13.07.77H68.17V78.28H82.71V98.47a16.26,16.26,0,0,1-4.38-1.19V93.64A6.5,6.5,0,0,0,71.84,87.15Zm30.3,6.74a20.88,20.88,0,0,0,3.76-12V78.28H116A34.24,34.24,0,0,1,102.14,93.89Zm33.78-58.21a2.17,2.17,0,0,1-2.17,2.16h-22.9a2.2,2.2,0,0,0-1.53.63L105.9,41.9V40a2.17,2.17,0,0,0-2.17-2.16H97.9a2.16,2.16,0,0,1-2.16-2.16V15.78a2.17,2.17,0,0,1,2.16-2.17h35.85a2.17,2.17,0,0,1,2.17,2.17Z"/><path d="M126,18.81H105.69a2.16,2.16,0,1,0,0,4.32H126a2.16,2.16,0,0,0,0-4.32Z"/><path d="M126,28.33H105.69a2.16,2.16,0,1,0,0,4.32H126a2.16,2.16,0,0,0,0-4.32Z"/><path d="M43.78,110.51H64.06a2.16,2.16,0,0,0,0-4.32H43.78a2.16,2.16,0,1,0,0,4.32Z"/><path d="M43.78,101H64.06a2.16,2.16,0,0,0,0-4.32H43.78a2.16,2.16,0,1,0,0,4.32Z"/><path d="M53.92,115.7a2.19,2.19,0,0,0-1.53.64,2.15,2.15,0,0,0,0,3.06,2.16,2.16,0,0,0,3.06-3.06A2.21,2.21,0,0,0,53.92,115.7Z"/></g></g></svg>