<?xml version="1.0" encoding="utf-8"?>
<!-- Generator: Adobe Illustrator 22.0.0, SVG Export Plug-In . SVG Version: 6.00 Build 0)  -->
<svg version="1.1" xmlns="http://www.w3.org/2000/svg" xmlns:xlink="http://www.w3.org/1999/xlink" x="0px" y="0px"
	 viewBox="0 0 1920 1745.7" style="enable-background:new 0 0 1920 1745.7;" xml:space="preserve">
<style type="text/css">
	.st0{fill:#FFFFFF;}
	.st1{opacity:0.3;}
	.st2{fill:#39B2BE;}
	.st3{fill:#D36E6E;}
	.st4{fill:none;stroke:#B0EF4D;stroke-width:2.5;stroke-linecap:round;stroke-linejoin:round;}
	.st5{fill:#99C503;}
	.st6{fill:none;stroke:#007D25;stroke-width:3.1395;stroke-linecap:round;stroke-linejoin:round;}
	.st7{fill:#5B00DA;}
	.st8{fill:none;stroke:#FFFFFF;stroke-width:2.9;stroke-miterlimit:10;}
	.st9{fill-rule:evenodd;clip-rule:evenodd;fill:#FFFFFF;}
	.st10{fill:none;stroke:#99C503;stroke-width:2.9936;stroke-linecap:round;stroke-linejoin:round;}
	.st11{fill:#C6433E;}
	.st12{fill:#E20613;}
	.st13{fill:#FCD570;}
	.st14{fill:#FCCD56;}
	.st15{fill:#F5BB41;}
	.st16{fill:#FDE19A;}
	.st17{fill:#FCD879;}
	.st18{fill:#FCD05E;}
	.st19{fill:#F6C55B;}
	.st20{fill:#F7B056;}
	.st21{fill:#F59B45;}
	.st22{fill-rule:evenodd;clip-rule:evenodd;fill:#FFC700;}
	.st23{opacity:0.39;}
	.st24{fill:none;stroke:#FFFFFF;stroke-width:2;stroke-linecap:round;stroke-linejoin:round;}
	.st25{fill:none;stroke:#FFFFFF;stroke-width:2.9784;stroke-linecap:round;stroke-linejoin:round;}
	.st26{fill:none;stroke:#FFFFFF;stroke-width:1.9752;stroke-linecap:round;stroke-linejoin:round;}
	.st27{fill:none;stroke:#FFFFFF;stroke-width:1.843;stroke-linecap:round;stroke-linejoin:round;}
	.st28{fill:none;stroke:#99C503;stroke-width:3.1578;stroke-linecap:round;stroke-linejoin:round;}
	.st29{fill:#FBB040;}
	.st30{fill:#ED5739;}
	.st31{fill:#ED1C24;}
	.st32{fill:#8F1116;}
	.st33{fill:#684791;}
	.st34{fill:#ADF1FF;}
	.st35{fill:#981108;}
	.st36{fill:#BF0F11;}
	.st37{fill:#E73F3A;}
	.st38{fill:#B1100E;}
	.st39{fill:#E20A17;}
	.st40{fill:#A8110C;}
	.st41{fill:#3A9B51;}
	.st42{fill:#58B46D;}
	.st43{fill-rule:evenodd;clip-rule:evenodd;fill:#220501;}
	.st44{fill-rule:evenodd;clip-rule:evenodd;fill:#F6B400;}
	.st45{fill-rule:evenodd;clip-rule:evenodd;fill:#EC7E00;}
	.st46{fill-rule:evenodd;clip-rule:evenodd;fill:#E61F11;}
	.st47{fill-rule:evenodd;clip-rule:evenodd;fill:#77305F;}
	.st48{fill-rule:evenodd;clip-rule:evenodd;fill:#00AE8A;}
	.st49{fill-rule:evenodd;clip-rule:evenodd;fill:#5D1913;}
	.st50{fill:none;stroke:#FFFFFF;stroke-width:0.9928;stroke-linecap:round;stroke-linejoin:round;}
	.st51{fill:none;stroke:#FFFFFF;stroke-width:0.9004;stroke-linecap:round;stroke-linejoin:round;}
	.st52{fill:none;stroke:#FFFFFF;stroke-width:0.3471;stroke-linecap:round;stroke-linejoin:round;}
	.st53{fill:none;stroke:#FFFFFF;stroke-width:0.4341;stroke-linecap:round;stroke-linejoin:round;}
	.st54{opacity:0.24;}
	.st55{fill:#FDFDFD;}
	.st56{fill:#FCD212;}
	.st57{fill-rule:evenodd;clip-rule:evenodd;fill:#FF989D;}
	.st58{fill-rule:evenodd;clip-rule:evenodd;fill:#87432A;}
	.st59{fill-rule:evenodd;clip-rule:evenodd;fill:#E9521A;}
	.st60{fill-rule:evenodd;clip-rule:evenodd;fill:#7F252C;}
	.st61{fill-rule:evenodd;clip-rule:evenodd;fill:#2B2626;}
	.st62{fill-rule:evenodd;clip-rule:evenodd;fill:#696969;}
	.st63{fill-rule:evenodd;clip-rule:evenodd;fill:#8C8C8B;}
	.st64{fill-rule:evenodd;clip-rule:evenodd;fill:#3D4D70;}
	.st65{fill:#6400DA;}
	.st66{fill:#FF6500;}
	.st67{fill:#F4EBC6;}
	.st68{fill:#B9B295;}
	.st69{fill:#0E0E0E;}
	.st70{fill:#000922;}
	.st71{fill:#FFFFC7;}
	.st72{fill:#8BBFCB;}
	.st73{fill:#B3D5DD;}
	.st74{fill:#00AEEF;}
	.st75{fill:#008FEF;}
	.st76{fill:#4E82B0;}
	.st77{fill:#5A93B5;}
	.st78{fill:none;stroke:#003142;stroke-width:2.0634;stroke-miterlimit:10;}
	.st79{fill:#252D42;}
	.st80{fill:#00090C;}
	.st81{fill:#79B2FF;}
	.st82{fill:#9BC6FF;}
	.st83{fill:#FFCB7C;}
	.st84{fill:#F6838D;}
	.st85{fill:#4799CF;}
	.st86{fill:#D9D9D9;}
	.st87{fill:#AAE5C8;}
	.st88{fill:#85BC94;}
	.st89{fill:#EA9D2D;}
	.st90{fill:#EBEBEB;}
	.st91{fill:#5ABCF3;}
	.st92{fill:#E06661;}
	.st93{fill:#CDCDCD;}
	.st94{fill:#FBB540;}
	.st95{fill:#FDC9A6;}
	.st96{fill:#475D6D;}
	.st97{fill:#2C3F4F;}
	.st98{fill:#F9DC6A;}
	.st99{fill:#E5AC51;}
	.st100{fill:#2BB4F3;}
	.st101{fill:#1687C4;}
	.st102{fill:#F2A077;}
	.st103{fill:#FFCCAA;}
	.st104{fill:#FF5A59;}
	.st105{fill:#CE3A4C;}
	.st106{fill:#FFC800;}
	.st107{fill:#009EE2;}
	.st108{fill:#FFD600;}
	.st109{fill:#005693;}
	.st110{fill:#34A836;}
	.st111{fill-rule:evenodd;clip-rule:evenodd;fill:none;}
	.st112{fill-rule:evenodd;clip-rule:evenodd;fill:#D6C1BE;}
	.st113{fill-rule:evenodd;clip-rule:evenodd;fill:#EAE2E0;}
	.st114{fill-rule:evenodd;clip-rule:evenodd;fill:#66C0B0;}
	.st115{fill-rule:evenodd;clip-rule:evenodd;fill:#56B09E;}
	.st116{fill:none;}
	.st117{fill:#011826;}
	.st118{opacity:0.4;}
	.st119{fill:#00294F;}
	.st120{fill:#884D30;}
	.st121{fill:#3F0D0B;}
	.st122{fill:#A86C0E;}
	.st123{fill:#F09915;}
	.st124{opacity:0.4;fill:#FFFFFF;}
	.st125{fill:#DCDDEE;}
	.st126{fill:#A5A3A9;}
	.st127{fill:#DCCEC3;}
	.st128{fill:#9D5224;}
	.st129{fill:#612E05;}
	.st130{fill:#804118;}
	.st131{fill:#562504;}
	.st132{fill:#723412;}
	.st133{fill:#E3CDBF;}
	.st134{fill:#240500;}
	.st135{fill:#391B00;}
	.st136{fill:#462500;}
	.st137{fill:#D3C8BF;}
	.st138{fill:#4F2200;}
	.st139{fill:none;stroke:#FFFFFF;stroke-width:0.8075;stroke-linecap:round;stroke-linejoin:round;}
	.st140{opacity:0.1;fill:#00C1A8;}
	.st141{fill:#FA6B08;}
	.st142{fill:#FF9138;}
	.st143{fill:#123025;}
	.st144{fill:none;stroke:#001609;stroke-width:3;stroke-miterlimit:10;}
	.st145{fill:#32453F;}
	.st146{opacity:0.1;clip-path:url(#SVGID_2_);}
	.st147{fill:#A1B6AD;}
	.st148{fill:#CE5606;}
	.st149{fill:#FDFDD6;}
	.st150{fill:#FDFDDA;}
	.st151{fill:none;stroke:#FDFDD6;stroke-miterlimit:10;}
	.st152{fill:#FF9D4E;}
	.st153{fill:#FFD161;}
	.st154{fill:#FFCC41;}
	.st155{fill:#FFAC00;}
	.st156{fill:#00C1A8;}
	.st157{fill:#001609;}
	.st158{fill:none;stroke:#FFFFFF;stroke-width:3;stroke-linecap:round;stroke-linejoin:round;}
	.st159{fill:#009CDD;}
	.st160{clip-path:url(#SVGID_6_);}
	.st161{fill:url(#SVGID_7_);}
	.st162{fill:url(#SVGID_8_);}
	.st163{fill:url(#SVGID_9_);}
	.st164{fill:url(#SVGID_10_);}
	.st165{fill:url(#SVGID_11_);}
	.st166{fill:url(#SVGID_12_);}
	.st167{fill:url(#SVGID_13_);}
	.st168{fill:url(#SVGID_14_);}
	.st169{fill:url(#SVGID_15_);}
	.st170{fill:url(#SVGID_16_);}
	.st171{fill:url(#SVGID_17_);}
	.st172{fill:url(#SVGID_18_);}
	.st173{fill:url(#SVGID_19_);}
	.st174{fill:url(#SVGID_20_);}
	.st175{fill:url(#SVGID_21_);}
	.st176{fill:url(#SVGID_22_);}
	.st177{fill:url(#SVGID_23_);}
	.st178{fill:#EBF3FA;}
	.st179{clip-path:url(#SVGID_6_);fill:url(#SVGID_24_);}
	.st180{fill:url(#SVGID_25_);}
	.st181{fill:url(#SVGID_26_);}
	.st182{fill:url(#SVGID_29_);}
	.st183{fill:url(#SVGID_30_);}
	.st184{clip-path:url(#SVGID_32_);}
	.st185{clip-path:url(#SVGID_36_);}
	.st186{fill:#418421;}
	.st187{fill:#2D660E;}
	.st188{fill:#84D84E;}
	.st189{opacity:0.4;fill:#2D660E;}
	.st190{fill:#EDC174;}
	.st191{fill:#D8A34E;}
	.st192{fill:#C18733;}
	.st193{opacity:0.4;fill:#1B3D04;}
	.st194{fill:#6AC634;}
	.st195{fill:#245109;}
	.st196{fill:#D6854D;}
	.st197{fill:#BC6428;}
	.st198{fill:#492004;}
	.st199{fill:#66BC2E;}
	.st200{clip-path:url(#SVGID_36_);fill:#009CDD;}
	.st201{fill:#D8BF4C;}
	.st202{fill:#4BDDFD;}
	.st203{opacity:0.6;fill:#13BDE5;}
	.st204{opacity:0.5;fill:#FFEAC1;}
	.st205{opacity:0.7;fill:#FFEAC1;}
	.st206{fill:#FAFFDE;}
	.st207{opacity:0.2;}
	.st208{fill:#BF9D62;}
	.st209{clip-path:url(#SVGID_40_);}
	.st210{clip-path:url(#SVGID_44_);fill:none;}
	.st211{clip-path:url(#SVGID_48_);fill:url(#SVGID_49_);}
	.st212{clip-path:url(#SVGID_48_);fill:url(#SVGID_50_);}
	.st213{clip-path:url(#SVGID_48_);fill:#009CDD;}
	.st214{clip-path:url(#SVGID_48_);}
	.st215{fill:url(#SVGID_51_);}
	.st216{fill:url(#SVGID_52_);}
	.st217{fill:url(#SVGID_53_);}
	.st218{fill:url(#SVGID_54_);}
	.st219{fill:url(#SVGID_55_);}
	.st220{fill:url(#SVGID_56_);}
	.st221{fill:url(#SVGID_57_);}
	.st222{fill:url(#SVGID_58_);}
	.st223{fill:url(#SVGID_59_);}
	.st224{fill:url(#SVGID_60_);}
	.st225{fill:url(#SVGID_61_);}
	.st226{fill:url(#SVGID_62_);}
	.st227{fill:url(#SVGID_63_);}
	.st228{fill:url(#SVGID_64_);}
	.st229{fill:url(#SVGID_65_);}
	.st230{fill:url(#SVGID_66_);}
	.st231{fill:url(#SVGID_67_);}
	.st232{fill:url(#SVGID_68_);}
	.st233{fill:url(#SVGID_69_);}
	.st234{fill:url(#SVGID_70_);}
	.st235{fill:url(#SVGID_71_);}
	.st236{fill:url(#SVGID_72_);}
	.st237{fill:url(#SVGID_73_);}
	.st238{fill:url(#SVGID_74_);}
	.st239{fill:url(#SVGID_75_);}
	.st240{fill:url(#SVGID_76_);}
	.st241{fill:url(#SVGID_77_);}
	.st242{fill:url(#SVGID_78_);}
	.st243{fill:url(#SVGID_79_);}
	.st244{fill:url(#SVGID_80_);}
	.st245{fill:url(#SVGID_81_);}
	.st246{fill:url(#SVGID_82_);}
	.st247{fill:url(#SVGID_83_);}
	.st248{fill:url(#SVGID_84_);}
	.st249{fill:url(#SVGID_85_);}
	.st250{fill:url(#SVGID_86_);}
	.st251{fill:url(#SVGID_87_);}
	.st252{fill:url(#SVGID_88_);}
	.st253{fill:url(#SVGID_89_);}
	.st254{fill:url(#SVGID_90_);}
	.st255{fill:url(#SVGID_91_);}
	.st256{fill:#3B3637;}
	.st257{fill:none;stroke:#3B3637;stroke-width:3;stroke-miterlimit:10;}
	.st258{fill:url(#SVGID_92_);}
	.st259{fill:url(#SVGID_93_);}
	.st260{fill:url(#SVGID_96_);}
	.st261{fill:#4171B1;}
	.st262{fill:#EF7641;}
	.st263{fill:#FDC543;}
	.st264{opacity:0.4;fill:#EF7641;}
	.st265{fill:#D9DAEF;}
	.st266{opacity:0.47;fill:#7B769A;}
	.st267{fill:#E83C70;}
	.st268{opacity:0.38;fill:#D9DAEF;}
	.st269{opacity:0.47;fill:#A29FB8;}
	.st270{fill:#78CED3;}
	.st271{fill:#ACE1E4;}
	.st272{fill:#E6E7F4;}
	.st273{fill:#F8C6AF;}
	.st274{fill:#FEE7B0;}
	.st275{fill:#25578E;}
	.st276{fill:none;stroke:#1F1E21;stroke-width:0.8075;stroke-linecap:round;stroke-linejoin:round;}
	.st277{fill:none;stroke:#FF7F0A;stroke-width:3.1395;stroke-linecap:round;stroke-linejoin:round;}
	.st278{fill:none;stroke:#FF590A;stroke-width:2.8549;stroke-linecap:round;stroke-linejoin:round;}
	.st279{fill:none;stroke:#FF7F0A;stroke-width:3.7113;stroke-miterlimit:10;}
	.st280{fill:none;stroke:#FF590A;stroke-width:3.5845;stroke-miterlimit:10;}
	.st281{fill:#FF590A;}
	.st282{fill:#FFE300;}
	.st283{fill:#5BCBEA;}
	.st284{fill:#1A1B25;}
	.st285{fill:#03ADF8;}
	.st286{opacity:0.85;fill:#917F86;}
	.st287{opacity:0.55;fill:#E0DBDD;}
	.st288{fill:#FF0029;}
	.st289{opacity:0.55;fill:#E0DBAC;}
	.st290{fill:#21222C;}
	.st291{fill:#C2C2C5;}
	.st292{fill:#FF1867;}
	.st293{fill:#DCDDEE;stroke:#3F0D0B;stroke-width:1.1154;stroke-linecap:round;stroke-linejoin:round;stroke-miterlimit:10;}
	.st294{fill:#86C8CD;}
	.st295{fill:#5B7976;}
	.st296{fill:#86C8CD;stroke:#3F0D0B;stroke-width:1.1154;stroke-linecap:round;stroke-linejoin:round;stroke-miterlimit:10;}
	.st297{fill:#1F1E21;}
	.st298{fill:#F7E939;}
	.st299{opacity:0.1;clip-path:url(#SVGID_98_);}
	.st300{fill:url(#SVGID_99_);}
	.st301{fill:none;stroke:#FDC543;stroke-linecap:round;stroke-linejoin:round;}
	.st302{fill:#0055B8;}
	.st303{fill:#FF7E00;}
	.st304{fill:#72D8F0;}
	.st305{fill:#069C3E;}
	.st306{fill:#FEC300;}
	.st307{fill:#0073C0;}
	.st308{fill:#9184BB;}
	.st309{fill:#E3DF00;}
	.st310{fill:#FF2480;}
	.st311{fill:#414D56;}
	.st312{fill:#989CB7;}
	.st313{fill:none;stroke:#383838;stroke-linecap:round;stroke-linejoin:round;}
	.st314{fill:#383838;}
	.st315{fill:#4E4E4E;}
	.st316{clip-path:url(#SVGID_103_);}
	.st317{fill:#459D75;}
	.st318{fill:#7E5200;}
	.st319{fill:#613D00;}
	.st320{opacity:0.1;fill:#FFFFFF;}
	.st321{opacity:0.15;fill:#FFFFFF;}
	.st322{opacity:0.2;fill:#FFFFFF;}
	.st323{opacity:0.2;fill:#4D8028;}
	.st324{fill:#54AD42;}
	.st325{fill:#156E2D;}
	.st326{fill:url(#SVGID_104_);}
	.st327{fill:url(#SVGID_105_);}
	.st328{opacity:0.3;fill:url(#SVGID_106_);}
	.st329{fill:url(#SVGID_107_);}
	.st330{fill:#532D00;}
	.st331{opacity:0.3;fill:url(#SVGID_108_);}
	.st332{fill:url(#SVGID_109_);}
	.st333{fill:url(#SVGID_110_);}
	.st334{fill:url(#SVGID_111_);}
	.st335{fill:url(#SVGID_112_);}
	.st336{opacity:0.3;fill:url(#SVGID_113_);}
	.st337{opacity:0.3;fill:url(#SVGID_114_);}
	.st338{opacity:0.3;fill:url(#SVGID_115_);}
	.st339{fill:url(#SVGID_116_);}
	.st340{fill:url(#SVGID_117_);}
	.st341{fill:url(#SVGID_118_);}
	.st342{fill:url(#SVGID_119_);}
	.st343{fill:url(#SVGID_120_);}
	.st344{opacity:0.3;fill:url(#SVGID_121_);}
	.st345{opacity:0.3;fill:url(#SVGID_122_);}
	.st346{fill:url(#SVGID_123_);}
	.st347{fill:url(#SVGID_124_);}
	.st348{fill:url(#SVGID_125_);}
	.st349{fill:url(#SVGID_126_);}
	.st350{fill:url(#SVGID_127_);}
	.st351{opacity:0.3;fill:url(#SVGID_128_);}
	.st352{opacity:0.3;fill:url(#SVGID_129_);}
	.st353{opacity:0.3;fill:url(#SVGID_130_);}
	.st354{fill:url(#SVGID_131_);}
	.st355{fill:url(#SVGID_132_);}
	.st356{fill:url(#SVGID_133_);}
	.st357{fill:#3D2500;}
	.st358{fill:#75BFD8;}
	.st359{fill:#86C7DD;}
	.st360{opacity:0.24;clip-path:url(#SVGID_135_);}
	.st361{fill:#FFFFFF;stroke:#FFFFFF;stroke-miterlimit:10;}
	.st362{fill:#FFFFFF;stroke:#FFFFFF;stroke-width:2.9;stroke-miterlimit:10;}
	.st363{fill-rule:evenodd;clip-rule:evenodd;fill:#FFFFFF;stroke:#FFFFFF;stroke-miterlimit:10;}
	.st364{fill:none;stroke:#FFFFFF;stroke-width:3.5508;stroke-linecap:round;stroke-linejoin:round;}
	.st365{fill:none;stroke:#FFFFFF;stroke-width:3.7456;stroke-linecap:round;stroke-linejoin:round;}
	.st366{fill:none;stroke:#003142;stroke-width:2.4444;stroke-miterlimit:10;}
	.st367{clip-path:url(#SVGID_137_);}
	.st368{fill:#488AB7;}
	.st369{fill:#F29949;}
	.st370{fill:#F94600;}
	.st371{fill:#2D202A;}
	.st372{fill:#053451;}
	.st373{fill:#7F3F14;}
	.st374{fill:#D88139;}
	.st375{fill:#A85822;}
	.st376{fill:#2E1F22;}
	.st377{fill:#E28940;}
	.st378{clip-path:url(#SVGID_139_);fill:#B0EEE8;}
	.st379{clip-path:url(#SVGID_139_);}
	.st380{fill:#CEAE97;}
	.st381{fill:#B79780;}
	.st382{fill:#AF4C4A;}
	.st383{fill:#C16363;}
	.st384{fill:#8090AA;}
	.st385{fill:#4E4F56;}
	.st386{fill:#CBCBD1;}
	.st387{fill:#FCFCFC;}
	.st388{fill:#DEDEE0;}
	.st389{fill:#F0F0F2;}
	.st390{fill:#D8645B;}
	.st391{fill:#BDBDBD;}
	.st392{fill:#E57873;}
	.st393{fill:#D19A75;}
	.st394{fill:#BC845E;}
	.st395{fill:#DB9E75;}
	.st396{clip-path:url(#SVGID_141_);fill:#B0EEE8;}
	.st397{clip-path:url(#SVGID_141_);}
	.st398{fill:#F99F55;}
	.st399{fill:#EF8637;}
	.st400{fill:#FCAC70;}
	.st401{fill:#C6CADB;}
	.st402{opacity:0.6;fill:#F0F0F2;}
	.st403{fill:#B4B9D3;}
	.st404{fill:#7B809B;}
	.st405{fill:#B2B7CE;}
	.st406{fill:#5F6B89;}
	.st407{clip-path:url(#SVGID_143_);fill:#4E5B75;}
	.st408{fill:#AF4B48;}
	.st409{clip-path:url(#SVGID_145_);}
	.st410{fill:#8ED1DB;}
	.st411{fill:#FCEF50;}
	.st412{fill:none;stroke:#3F3B3C;stroke-width:0.5;stroke-miterlimit:10;}
	.st413{fill:#F28B0F;}
	.st414{fill:#F4AC0E;}
	.st415{fill:#E86B62;}
	.st416{fill:#5B462F;}
	.st417{fill:#CE493E;}
	.st418{clip-path:url(#SVGID_147_);}
	.st419{fill:#2296BA;}
	.st420{fill:#BADB45;}
	.st421{fill:#69A8D9;}
	.st422{fill:none;stroke:#89C7DA;stroke-miterlimit:10;}
	.st423{fill:none;stroke:#69A8D9;stroke-width:0.9004;stroke-linecap:round;stroke-linejoin:round;}
	.st424{fill:#ECECED;}
	.st425{fill:none;stroke:#E73F3A;stroke-width:3;stroke-linecap:round;stroke-linejoin:round;}
	.st426{opacity:0.8;clip-path:url(#SVGID_149_);fill:#009CDD;}
	.st427{opacity:0.8;clip-path:url(#SVGID_149_);}
	.st428{fill:url(#SVGID_151_);}
	.st429{fill:url(#SVGID_152_);}
	.st430{fill:url(#SVGID_153_);}
	.st431{fill:url(#SVGID_154_);}
	.st432{fill:url(#SVGID_155_);}
	.st433{fill:url(#SVGID_156_);}
	.st434{fill:url(#SVGID_157_);}
	.st435{fill:url(#SVGID_158_);}
	.st436{fill:url(#SVGID_159_);}
	.st437{fill:url(#SVGID_160_);}
	.st438{fill:url(#SVGID_161_);}
	.st439{fill:url(#SVGID_163_);}
	.st440{fill:url(#SVGID_165_);}
	.st441{fill:url(#SVGID_167_);}
	.st442{fill:url(#SVGID_169_);}
	.st443{fill:url(#SVGID_171_);}
	.st444{fill:url(#SVGID_173_);}
	.st445{fill:url(#SVGID_174_);}
	.st446{fill:url(#SVGID_175_);}
	.st447{fill:url(#SVGID_177_);}
	.st448{fill:url(#SVGID_179_);}
	.st449{fill:url(#SVGID_180_);}
	.st450{fill:url(#SVGID_181_);}
	.st451{fill:url(#SVGID_182_);}
	.st452{fill:url(#SVGID_183_);}
	.st453{fill:none;stroke:#FFFFFF;stroke-width:0.6484;stroke-miterlimit:10;}
	.st454{fill:url(#SVGID_184_);}
	.st455{fill:url(#SVGID_185_);}
	.st456{fill:url(#SVGID_186_);}
	.st457{fill:url(#SVGID_187_);}
	.st458{fill:url(#SVGID_188_);}
	.st459{fill:url(#SVGID_189_);}
	.st460{fill:url(#SVGID_190_);}
	.st461{fill:url(#SVGID_191_);}
	.st462{fill:url(#SVGID_192_);}
	.st463{fill:url(#SVGID_193_);}
	.st464{fill:url(#SVGID_194_);}
	.st465{fill:url(#SVGID_195_);}
	.st466{fill:url(#SVGID_196_);}
	.st467{fill:url(#SVGID_197_);}
	.st468{fill:url(#SVGID_198_);}
	.st469{fill:url(#SVGID_199_);}
	.st470{fill:url(#SVGID_200_);}
	.st471{fill:url(#SVGID_201_);}
	.st472{fill:url(#SVGID_202_);}
	.st473{fill:url(#SVGID_203_);}
	.st474{fill:url(#SVGID_204_);}
	.st475{opacity:0.24;clip-path:url(#SVGID_207_);}
	.st476{fill:#FF902C;}
	.st477{fill:none;stroke:#FF902C;stroke-width:3.5508;stroke-linecap:round;stroke-linejoin:round;}
	.st478{fill:none;stroke:#FF902C;stroke-width:3.7456;stroke-linecap:round;stroke-linejoin:round;}
	.st479{opacity:0.5;fill:#FFFFFF;}
	.st480{fill:#798746;}
	.st481{fill:#704A30;}
	.st482{fill:#A7BC77;}
	.st483{clip-path:url(#SVGID_209_);fill:#4E5B75;}
	.st484{fill:#BDD381;}
	.st485{opacity:0.24;clip-path:url(#SVGID_211_);}
	.st486{fill:#A9D146;}
	.st487{fill:none;stroke:#99C503;stroke-width:3.5508;stroke-linecap:round;stroke-linejoin:round;}
	.st488{fill:none;stroke:#99C503;stroke-width:3.7456;stroke-linecap:round;stroke-linejoin:round;}
	.st489{fill:#9AE9F4;}
	.st490{fill:none;stroke:#9AE9F4;stroke-width:3.5508;stroke-linecap:round;stroke-linejoin:round;}
	.st491{fill:none;stroke:#9AE9F4;stroke-width:3.7456;stroke-linecap:round;stroke-linejoin:round;}
	.st492{opacity:0.89;}
	.st493{opacity:0.44;fill:url(#SVGID_212_);}
	.st494{opacity:0.19;fill:url(#SVGID_213_);}
	.st495{fill:#80DFE5;}
	.st496{opacity:0.47;fill:#00B1CB;}
	.st497{fill:#1B87A1;}
	.st498{fill:#1D788B;}
	.st499{fill:#185C69;}
	.st500{fill:#0C525E;}
	.st501{opacity:0.24;clip-path:url(#SVGID_215_);}
	.st502{fill:#F2BD00;}
	.st503{fill:none;stroke:#F2BD00;stroke-width:3.5508;stroke-linecap:round;stroke-linejoin:round;}
	.st504{fill:none;stroke:#F2BD00;stroke-width:3.7456;stroke-linecap:round;stroke-linejoin:round;}
	.st505{fill:#E54654;}
	.st506{fill:#463131;}
	.st507{fill:#FF6800;}
	.st508{clip-path:url(#SVGID_216_);}
	.st509{clip-path:url(#SVGID_218_);}
	.st510{clip-path:url(#SVGID_218_);fill:#009CDD;}
	.st511{clip-path:url(#SVGID_220_);}
	.st512{clip-path:url(#SVGID_223_);fill:none;}
	.st513{clip-path:url(#SVGID_226_);fill:url(#SVGID_228_);}
	.st514{clip-path:url(#SVGID_226_);fill:url(#SVGID_230_);}
	.st515{clip-path:url(#SVGID_226_);fill:#009CDD;}
	.st516{clip-path:url(#SVGID_226_);}
	.st517{fill:url(#SVGID_231_);}
	.st518{fill:url(#SVGID_232_);}
	.st519{fill:url(#SVGID_233_);}
	.st520{fill:url(#SVGID_234_);}
	.st521{fill:url(#SVGID_235_);}
	.st522{fill:url(#SVGID_236_);}
	.st523{fill:url(#SVGID_237_);}
	.st524{fill:url(#SVGID_238_);}
	.st525{fill:url(#SVGID_239_);}
	.st526{fill:url(#SVGID_240_);}
	.st527{fill:url(#SVGID_241_);}
	.st528{fill:url(#SVGID_242_);}
	.st529{fill:url(#SVGID_243_);}
	.st530{fill:url(#SVGID_244_);}
	.st531{fill:url(#SVGID_245_);}
	.st532{fill:url(#SVGID_246_);}
	.st533{fill:url(#SVGID_247_);}
	.st534{fill:url(#SVGID_248_);}
	.st535{fill:url(#SVGID_249_);}
	.st536{fill:url(#SVGID_250_);}
	.st537{fill:url(#SVGID_252_);}
	.st538{fill:url(#SVGID_253_);}
	.st539{fill:url(#SVGID_254_);}
	.st540{fill:url(#SVGID_255_);}
	.st541{fill:url(#SVGID_256_);}
	.st542{fill:url(#SVGID_257_);}
	.st543{fill:url(#SVGID_258_);}
	.st544{fill:url(#SVGID_259_);}
	.st545{fill:url(#SVGID_260_);}
	.st546{fill:url(#SVGID_261_);}
	.st547{fill:url(#SVGID_262_);}
	.st548{fill:url(#SVGID_263_);}
	.st549{fill:url(#SVGID_264_);}
	.st550{fill:url(#SVGID_265_);}
	.st551{fill:url(#SVGID_266_);}
	.st552{fill:url(#SVGID_267_);}
	.st553{fill:url(#SVGID_268_);}
	.st554{fill:url(#SVGID_269_);}
	.st555{fill:url(#SVGID_270_);}
	.st556{fill:url(#SVGID_271_);}
	.st557{fill:url(#SVGID_272_);}
	.st558{fill:url(#SVGID_273_);}
	.st559{fill:url(#SVGID_274_);}
	.st560{clip-path:url(#SVGID_277_);}
	.st561{fill:url(#SVGID_278_);}
	.st562{fill:url(#SVGID_279_);}
	.st563{fill:url(#SVGID_280_);}
	.st564{fill:url(#SVGID_281_);}
	.st565{fill:url(#SVGID_282_);}
	.st566{fill:url(#SVGID_283_);}
	.st567{fill:url(#SVGID_284_);}
	.st568{fill:url(#SVGID_285_);}
	.st569{fill:url(#SVGID_286_);}
	.st570{fill:url(#SVGID_287_);}
	.st571{fill:url(#SVGID_288_);}
	.st572{fill:url(#SVGID_289_);}
	.st573{fill:url(#SVGID_290_);}
	.st574{fill:url(#SVGID_291_);}
	.st575{fill:url(#SVGID_292_);}
	.st576{fill:url(#SVGID_293_);}
	.st577{fill:url(#SVGID_294_);}
	.st578{clip-path:url(#SVGID_277_);fill:url(#SVGID_295_);}
	.st579{fill:url(#SVGID_296_);}
	.st580{fill:url(#SVGID_297_);}
	.st581{fill:url(#SVGID_299_);}
	.st582{fill:url(#SVGID_300_);}
	.st583{opacity:0.24;clip-path:url(#SVGID_302_);}
	.st584{clip-path:url(#SVGID_304_);}
	.st585{fill:none;stroke:#FFFFFF;stroke-width:1.3311;stroke-linecap:round;stroke-linejoin:round;}
	.st586{clip-path:url(#SVGID_304_);fill:#D8B20F;}
	.st587{clip-path:url(#SVGID_304_);fill:#2D202A;}
	.st588{fill:#E57E66;}
	.st589{fill:#F9B818;}
	.st590{fill:#FCD786;}
	.st591{fill:#6EAF9F;}
	.st592{fill:#E74C4E;}
	.st593{fill:#58897E;}
	.st594{fill-rule:evenodd;clip-rule:evenodd;fill:#2D7441;}
	.st595{fill-rule:evenodd;clip-rule:evenodd;fill:#51AE4F;}
	.st596{fill:#333333;}
	.st597{fill:none;stroke:#FFFFFF;stroke-width:1.3396;stroke-linecap:round;stroke-linejoin:round;}
	.st598{clip-path:url(#SVGID_306_);fill:#488AB7;}
	.st599{clip-path:url(#SVGID_306_);}
	.st600{clip-path:url(#SVGID_306_);fill:#993316;}
	.st601{clip-path:url(#SVGID_306_);fill:#EF8615;}
	.st602{clip-path:url(#SVGID_306_);fill:#2D202A;}
	.st603{clip-path:url(#SVGID_306_);fill:#E68888;}
	.st604{clip-path:url(#SVGID_306_);fill:#F29949;}
	.st605{clip-path:url(#SVGID_306_);fill:#7F3F14;}
	.st606{clip-path:url(#SVGID_306_);fill:#D88139;}
	.st607{clip-path:url(#SVGID_306_);fill:#A85822;}
	.st608{clip-path:url(#SVGID_306_);fill:#2E1F22;}
	.st609{clip-path:url(#SVGID_306_);fill:#E28940;}
	.st610{clip-path:url(#SVGID_308_);}
	.st611{clip-path:url(#SVGID_308_);fill:#D8B20F;}
	.st612{clip-path:url(#SVGID_308_);fill:#2D202A;}
	.st613{clip-path:url(#SVGID_310_);fill:#488AB7;}
	.st614{clip-path:url(#SVGID_310_);}
	.st615{clip-path:url(#SVGID_310_);fill:#993316;}
	.st616{clip-path:url(#SVGID_310_);fill:#EF8615;}
	.st617{clip-path:url(#SVGID_310_);fill:#2D202A;}
	.st618{clip-path:url(#SVGID_310_);fill:#E68888;}
	.st619{clip-path:url(#SVGID_310_);fill:#F29949;}
	.st620{clip-path:url(#SVGID_310_);fill:#7F3F14;}
	.st621{clip-path:url(#SVGID_310_);fill:#D88139;}
	.st622{clip-path:url(#SVGID_310_);fill:#A85822;}
	.st623{clip-path:url(#SVGID_310_);fill:#2E1F22;}
	.st624{clip-path:url(#SVGID_310_);fill:#E28940;}
	.st625{opacity:0.5;}
	.st626{fill:#193F5F;}
	.st627{fill:none;stroke:#FFFFFF;stroke-width:1.2589;stroke-linecap:round;stroke-linejoin:round;}
	.st628{clip-path:url(#SVGID_312_);}
	.st629{fill:#E74E1B;}
	.st630{fill:#F2AF8D;}
	.st631{fill:#E42D31;}
	.st632{fill:#D8B20F;}
	.st633{fill:#F6B87E;}
	.st634{fill:#EE9A79;}
	.st635{fill:#C89929;}
	.st636{fill:url(#SVGID_313_);}
	.st637{fill:url(#SVGID_314_);}
	.st638{fill:url(#SVGID_315_);}
	.st639{fill:url(#SVGID_316_);}
	.st640{fill:url(#SVGID_317_);}
	.st641{fill:url(#SVGID_318_);}
	.st642{fill:url(#SVGID_319_);}
	.st643{fill:url(#SVGID_320_);}
	.st644{fill:url(#SVGID_321_);}
	.st645{fill:url(#SVGID_322_);}
	.st646{fill:url(#SVGID_323_);}
	.st647{fill:url(#SVGID_324_);}
	.st648{fill:url(#SVGID_325_);}
	.st649{fill:url(#SVGID_326_);}
	.st650{fill:url(#SVGID_327_);}
	.st651{fill:url(#SVGID_328_);}
	.st652{fill:url(#SVGID_329_);}
	.st653{fill:url(#SVGID_330_);}
	.st654{fill:url(#SVGID_331_);}
	.st655{fill:url(#SVGID_332_);}
	.st656{fill:url(#SVGID_333_);}
	.st657{fill:url(#SVGID_334_);}
	.st658{fill:url(#SVGID_335_);}
	.st659{fill:url(#SVGID_336_);}
	.st660{fill:url(#SVGID_337_);}
	.st661{fill:url(#SVGID_338_);}
	.st662{fill:url(#SVGID_339_);}
	.st663{fill:url(#SVGID_340_);}
	.st664{fill:url(#SVGID_341_);}
	.st665{fill:url(#SVGID_342_);}
	.st666{fill:url(#SVGID_343_);}
	.st667{fill:url(#SVGID_344_);}
	.st668{fill:url(#SVGID_345_);}
	.st669{fill:url(#SVGID_346_);}
	.st670{fill:url(#SVGID_347_);}
	.st671{fill:url(#SVGID_348_);}
	.st672{fill:url(#SVGID_349_);}
	.st673{fill:url(#SVGID_350_);}
	.st674{fill:url(#SVGID_351_);}
	.st675{fill:url(#SVGID_352_);}
	.st676{fill:url(#SVGID_353_);}
	.st677{fill:url(#SVGID_354_);}
	.st678{fill:url(#SVGID_355_);}
	.st679{fill:url(#SVGID_356_);}
	.st680{fill:url(#SVGID_357_);}
	.st681{fill:url(#SVGID_358_);}
	.st682{fill:url(#SVGID_359_);}
	.st683{fill:url(#SVGID_360_);}
	.st684{fill:url(#SVGID_361_);}
	.st685{fill:url(#SVGID_362_);}
	.st686{fill:url(#SVGID_363_);}
	.st687{fill:url(#SVGID_364_);}
	.st688{fill:url(#SVGID_365_);}
	.st689{fill:url(#SVGID_366_);}
	.st690{fill:url(#SVGID_367_);}
	.st691{fill:url(#SVGID_368_);}
	.st692{opacity:0.24;clip-path:url(#SVGID_370_);}
	.st693{clip-path:url(#SVGID_372_);}
	.st694{clip-path:url(#SVGID_372_);fill:#D8B20F;}
	.st695{clip-path:url(#SVGID_372_);fill:#2D202A;}
	.st696{clip-path:url(#SVGID_374_);fill:#488AB7;}
	.st697{clip-path:url(#SVGID_374_);}
	.st698{clip-path:url(#SVGID_374_);fill:#993316;}
	.st699{clip-path:url(#SVGID_374_);fill:#EF8615;}
	.st700{clip-path:url(#SVGID_374_);fill:#2D202A;}
	.st701{clip-path:url(#SVGID_374_);fill:#E68888;}
	.st702{clip-path:url(#SVGID_374_);fill:#F29949;}
	.st703{clip-path:url(#SVGID_374_);fill:#7F3F14;}
	.st704{clip-path:url(#SVGID_374_);fill:#D88139;}
	.st705{clip-path:url(#SVGID_374_);fill:#A85822;}
	.st706{clip-path:url(#SVGID_374_);fill:#2E1F22;}
	.st707{clip-path:url(#SVGID_374_);fill:#E28940;}
	.st708{clip-path:url(#SVGID_376_);fill:#993316;}
	.st709{clip-path:url(#SVGID_376_);fill:#6EAF9F;}
	.st710{clip-path:url(#SVGID_376_);fill:#2D202A;}
	.st711{clip-path:url(#SVGID_376_);fill:#EF8615;}
	.st712{clip-path:url(#SVGID_376_);fill:#E68888;}
	.st713{clip-path:url(#SVGID_376_);}
	.st714{fill:#993316;}
	.st715{clip-path:url(#SVGID_376_);fill:#D05B63;}
	.st716{clip-path:url(#SVGID_376_);fill:#2E1F22;}
	.st717{clip-path:url(#SVGID_376_);fill:#732116;}
	.st718{clip-path:url(#SVGID_378_);fill:#993316;}
	.st719{clip-path:url(#SVGID_378_);fill:#6EAF9F;}
	.st720{clip-path:url(#SVGID_378_);fill:#2D202A;}
	.st721{clip-path:url(#SVGID_378_);fill:#EF8615;}
	.st722{clip-path:url(#SVGID_378_);fill:#E68888;}
	.st723{clip-path:url(#SVGID_378_);}
	.st724{clip-path:url(#SVGID_378_);fill:#D05B63;}
	.st725{clip-path:url(#SVGID_378_);fill:#2E1F22;}
	.st726{clip-path:url(#SVGID_378_);fill:#732116;}
	.st727{fill:#EF8615;}
	.st728{fill:#E68888;}
	.st729{fill:#D05B63;}
	.st730{fill:#732116;}
	.st731{fill:#062630;}
	.st732{fill:#2C5E6E;}
	.st733{fill:#FFFFEB;}
	.st734{clip-path:url(#SVGID_380_);}
	.st735{fill:none;stroke:#FFFFFF;stroke-width:1.2673;stroke-linecap:round;stroke-linejoin:round;}
	.st736{fill:#5B1B1A;}
	.st737{fill:#493B4B;}
	.st738{clip-path:url(#SVGID_382_);}
	.st739{clip-path:url(#SVGID_384_);fill:#B0EEE8;}
	.st740{clip-path:url(#SVGID_384_);}
	.st741{clip-path:url(#SVGID_386_);fill:#4E5B75;}
	.st742{clip-path:url(#SVGID_388_);}
	.st743{clip-path:url(#SVGID_390_);}
	.st744{clip-path:url(#SVGID_392_);fill:#B0EEE8;}
	.st745{clip-path:url(#SVGID_392_);}
	.st746{clip-path:url(#SVGID_396_);}
	.st747{clip-path:url(#SVGID_398_);}
	.st748{opacity:0.24;clip-path:url(#SVGID_400_);}
	.st749{opacity:0.24;clip-path:url(#SVGID_402_);}
	.st750{clip-path:url(#SVGID_404_);}
	.st751{fill:none;stroke:#FFCA55;stroke-width:3;stroke-linecap:round;stroke-linejoin:round;}
	.st752{fill:none;stroke:#57A7FF;stroke-width:3;stroke-linecap:round;stroke-linejoin:round;}
	.st753{clip-path:url(#SVGID_406_);}
	.st754{fill:#721D09;}
	.st755{fill:#6FBC5E;}
	.st756{fill:#823323;}
	.st757{fill:#352E34;}
	.st758{fill:#669B59;}
	.st759{fill:#541B12;}
	.st760{clip-path:url(#SVGID_408_);}
	.st761{clip-path:url(#SVGID_410_);}
	.st762{clip-path:url(#SVGID_412_);}
	.st763{clip-path:url(#SVGID_414_);}
	.st764{clip-path:url(#SVGID_416_);}
	.st765{clip-path:url(#SVGID_418_);}
	.st766{clip-path:url(#SVGID_420_);}
	.st767{clip-path:url(#SVGID_422_);}
	.st768{clip-path:url(#SVGID_424_);}
	.st769{clip-path:url(#SVGID_426_);}
	.st770{clip-path:url(#SVGID_428_);}
	.st771{clip-path:url(#SVGID_430_);}
	.st772{fill:none;stroke:#81B11D;stroke-width:2;stroke-linecap:round;stroke-linejoin:round;}
	.st773{fill:none;stroke:#E74C4E;stroke-width:2;stroke-linecap:round;stroke-linejoin:round;}
	.st774{fill:none;stroke:#F9B818;stroke-width:2;stroke-linecap:round;stroke-linejoin:round;}
	.st775{fill:none;stroke:#58897E;stroke-width:2;stroke-linecap:round;stroke-linejoin:round;}
	.st776{fill:none;stroke:#FFFFFF;stroke-miterlimit:10;}
	.st777{clip-path:url(#SVGID_432_);}
	.st778{fill-rule:evenodd;clip-rule:evenodd;fill:#F09B5C;}
	.st779{fill-rule:evenodd;clip-rule:evenodd;fill:#264F2E;}
	.st780{fill-rule:evenodd;clip-rule:evenodd;fill:#5A2524;}
	.st781{fill:#9E693D;}
	.st782{fill:#F09B5C;}
	.st783{fill:#264F2E;}
	.st784{fill:#51AE4F;}
	.st785{fill:#2D7441;}
	.st786{fill:#5A2524;}
	.st787{clip-path:url(#SVGID_434_);fill:#993316;}
	.st788{clip-path:url(#SVGID_434_);fill:#6EAF9F;}
	.st789{clip-path:url(#SVGID_434_);fill:#2D202A;}
	.st790{clip-path:url(#SVGID_434_);fill:#EF8615;}
	.st791{clip-path:url(#SVGID_434_);fill:#E68888;}
	.st792{clip-path:url(#SVGID_434_);}
	.st793{clip-path:url(#SVGID_434_);fill:#D05B63;}
	.st794{clip-path:url(#SVGID_434_);fill:#2E1F22;}
	.st795{clip-path:url(#SVGID_434_);fill:#732116;}
	.st796{clip-path:url(#SVGID_436_);}
	.st797{clip-path:url(#SVGID_438_);}
	.st798{clip-path:url(#SVGID_440_);fill:#993316;}
	.st799{clip-path:url(#SVGID_440_);fill:#6EAF9F;}
	.st800{clip-path:url(#SVGID_440_);fill:#2D202A;}
	.st801{clip-path:url(#SVGID_440_);fill:#EF8615;}
	.st802{clip-path:url(#SVGID_440_);fill:#E68888;}
	.st803{clip-path:url(#SVGID_440_);}
	.st804{clip-path:url(#SVGID_440_);fill:#D05B63;}
	.st805{clip-path:url(#SVGID_440_);fill:#2E1F22;}
	.st806{clip-path:url(#SVGID_440_);fill:#732116;}
	.st807{opacity:0.8;clip-path:url(#SVGID_442_);fill:#009CDD;}
	.st808{opacity:0.8;clip-path:url(#SVGID_442_);}
	.st809{fill:url(#SVGID_444_);}
	.st810{fill:url(#SVGID_445_);}
	.st811{fill:url(#SVGID_446_);}
	.st812{fill:url(#SVGID_447_);}
	.st813{fill:url(#SVGID_448_);}
	.st814{fill:url(#SVGID_449_);}
	.st815{fill:url(#SVGID_450_);}
	.st816{fill:url(#SVGID_451_);}
	.st817{fill:url(#SVGID_452_);}
	.st818{fill:url(#SVGID_453_);}
	.st819{fill:url(#SVGID_454_);}
	.st820{fill:url(#SVGID_455_);}
	.st821{fill:url(#SVGID_456_);}
	.st822{fill:url(#SVGID_457_);}
	.st823{fill:url(#SVGID_458_);}
	.st824{fill:url(#SVGID_459_);}
	.st825{fill:url(#SVGID_460_);}
	.st826{fill:url(#SVGID_461_);}
	.st827{fill:url(#SVGID_462_);}
	.st828{fill:url(#SVGID_463_);}
	.st829{fill:url(#SVGID_464_);}
	.st830{fill:url(#SVGID_465_);}
	.st831{fill:url(#SVGID_466_);}
	.st832{fill:url(#SVGID_467_);}
	.st833{fill:url(#SVGID_468_);}
	.st834{fill:url(#SVGID_469_);}
	.st835{fill:url(#SVGID_470_);}
	.st836{fill:url(#SVGID_471_);}
	.st837{fill:url(#SVGID_472_);}
	.st838{fill:url(#SVGID_473_);}
	.st839{fill:url(#SVGID_474_);}
	.st840{fill:url(#SVGID_475_);}
	.st841{fill:url(#SVGID_476_);}
	.st842{fill:url(#SVGID_477_);}
	.st843{fill:url(#SVGID_478_);}
	.st844{fill:url(#SVGID_479_);}
	.st845{fill:url(#SVGID_480_);}
	.st846{fill:url(#SVGID_481_);}
	.st847{fill:url(#SVGID_482_);}
	.st848{fill:url(#SVGID_483_);}
	.st849{fill:url(#SVGID_484_);}
	.st850{fill:url(#SVGID_485_);}
	.st851{fill:url(#SVGID_486_);}
	.st852{fill:url(#SVGID_487_);}
	.st853{fill:url(#SVGID_488_);}
	.st854{fill:url(#SVGID_489_);}
	.st855{opacity:0.24;clip-path:url(#SVGID_492_);}
	.st856{clip-path:url(#SVGID_494_);}
	.st857{fill:#1DA7E1;}
	.st858{clip-path:url(#SVGID_496_);}
	.st859{clip-path:url(#SVGID_498_);fill:#B0EEE8;}
	.st860{clip-path:url(#SVGID_498_);}
	.st861{fill:#558FA5;}
	.st862{fill:#C2D7DF;}
	.st863{fill:#5D95A9;}
	.st864{fill:#CEDFE5;}
	.st865{opacity:0.8;fill:#009CDD;}
	.st866{fill:none;stroke:#74C9ED;stroke-miterlimit:10;}
	.st867{clip-path:url(#SVGID_500_);fill:#B0EEE8;}
	.st868{clip-path:url(#SVGID_500_);}
	.st869{clip-path:url(#SVGID_502_);fill:#4E5B75;}
	.st870{clip-path:url(#SVGID_504_);}
	.st871{clip-path:url(#SVGID_506_);fill:#B0EEE8;}
	.st872{clip-path:url(#SVGID_506_);}
	.st873{clip-path:url(#SVGID_508_);fill:#4E5B75;}
	.st874{clip-path:url(#SVGID_510_);}
	.st875{fill:#5E3D1E;}
	.st876{fill:#B8D74B;}
	.st877{fill:#DD980E;}
	.st878{opacity:0.24;clip-path:url(#SVGID_512_);}
	.st879{clip-path:url(#SVGID_514_);}
	.st880{clip-path:url(#SVGID_516_);fill:#B0EEE8;}
	.st881{clip-path:url(#SVGID_516_);}
	.st882{clip-path:url(#SVGID_518_);fill:#B0EEE8;}
	.st883{clip-path:url(#SVGID_518_);}
	.st884{clip-path:url(#SVGID_520_);fill:#4E5B75;}
	.st885{clip-path:url(#SVGID_522_);}
	.st886{clip-path:url(#SVGID_524_);fill:#B0EEE8;}
	.st887{clip-path:url(#SVGID_524_);}
	.st888{clip-path:url(#SVGID_526_);fill:#4E5B75;}
	.st889{clip-path:url(#SVGID_528_);}
	.st890{fill:#00682A;}
	.st891{fill:none;stroke:#FFFFFF;stroke-linecap:round;stroke-linejoin:round;}
	.st892{opacity:0.1;clip-path:url(#SVGID_530_);}
	.st893{fill:#754926;}
	.st894{fill:#472D18;}
	.st895{filter:url(#Adobe_OpacityMaskFilter);}
	.st896{opacity:0.5;mask:url(#SVGID_531_);}
	.st897{fill:#003847;}
	.st898{filter:url(#Adobe_OpacityMaskFilter_1_);}
	.st899{opacity:0.5;mask:url(#SVGID_532_);}
	.st900{filter:url(#Adobe_OpacityMaskFilter_2_);}
	.st901{opacity:0.5;mask:url(#SVGID_533_);}
	.st902{filter:url(#Adobe_OpacityMaskFilter_3_);}
	.st903{opacity:0.5;mask:url(#SVGID_534_);}
	.st904{filter:url(#Adobe_OpacityMaskFilter_4_);}
	.st905{opacity:0.5;mask:url(#SVGID_535_);}
	.st906{filter:url(#Adobe_OpacityMaskFilter_5_);}
	.st907{opacity:0.5;mask:url(#SVGID_536_);}
	.st908{filter:url(#Adobe_OpacityMaskFilter_6_);}
	.st909{opacity:0.5;mask:url(#SVGID_537_);}
	.st910{fill:none;stroke:#D2EAF2;stroke-miterlimit:10;}
	.st911{display:none;}
	.st912{display:inline;opacity:0.1;}
	.st913{display:inline;opacity:0.3;}
	.st914{opacity:0.1;}
</style>
<g id="Capa_1">
</g>
<g id="Capa_3">
	<path class="st358" d="M1729.4,115.1c0.2,2.3,9.5,3.7,26.9,3.7c8.7,0.1,19.5-0.2,31.9-0.3c1.5,0,3.1,0,4.8,0c1.6,0,3.2,0,4.9,0.1
		c1.7,0,3.4,0,5.1,0.1c1.7,0.1,3.5,0.1,5.2,0.2c0.9,0,1.8,0.1,2.7,0.1c0.9,0,1.8,0.1,2.7,0.2c1.8,0.1,3.6,0.3,5.5,0.4
		c1.9,0.1,3.7,0.4,5.6,0.6c1.9,0.2,3.8,0.4,5.7,0.7c1.9,0.3,3.8,0.6,5.8,0.9c1.9,0.3,3.9,0.8,5.9,1.2c1,0.2,2,0.4,3,0.6
		c1,0.3,2,0.5,3,0.8c1,0.3,2,0.5,3,0.8c1,0.3,2,0.5,3,0.9c2,0.7,4,1.3,6,2c1,0.3,2,0.8,3.1,1.2c1,0.4,2.1,0.8,3.1,1.3
		c1.1,0.4,2.1,0.9,3.2,1.3c1.5,0.6,2.4,0.9,3.5,1.4c2.1,0.9,4.3,1.8,6.5,2.8c13.7,6.2,27.8,14.2,40.7,24.6V1319
		c-3-2.4-5.9-4.8-8.7-7.3c-2.1-1.8-4.1-3.6-6.2-5.4c-2.1-1.8-4.2-3.6-6.1-5.5c-4-3.8-8-7.5-11.9-11.3c-3.8-3.9-7.7-7.8-11.5-11.7
		c-1-1-1.9-2-2.8-3l-2.8-3c-1.8-2-3.7-4-5.5-6c-14.4-16.2-27.7-33.1-39.9-50.7c-1.5-2.2-3-4.4-4.5-6.6c-1.5-2.2-3-4.4-4.4-6.7
		c-2.8-4.5-5.7-9-8.5-13.5c-2.7-4.6-5.3-9.1-8-13.7c-1.4-2.3-2.5-4.6-3.8-6.9c-1.3-2.3-2.5-4.6-3.7-6.9
		c-9.8-18.6-18.5-37.5-26.2-56.7c-1.9-4.9-3.7-9.7-5.5-14.6l-1.4-3.8l-1.3-3.6c-0.9-2.4-1.7-4.8-2.6-7.2c-1.7-4.8-3.3-9.6-4.8-14.4
		c-1.5-4.8-2.9-9.6-4.3-14.4c-5.5-19.3-9.7-38.7-12.8-58.1c-1.6-9.7-2.8-19.4-3.8-28.9c-0.5-4.8-0.9-9.6-1.2-14.3
		c-0.3-4.8-0.6-9.7-0.9-14.5c-1.8-36.5,5-72.3,16.1-106.3c11.1-34.1,26.2-66.5,41.7-97.8c7.8-15.7,15.6-31.1,23.3-46.5
		c1-1.9,1.9-3.9,2.9-5.8l1.5-2.9l0.7-1.5l0.8-1.6c1.9-4,3.7-7.9,5.5-11.8c3.6-7.9,7-15.8,10.1-23.8c6.3-15.9,11.7-31.9,16-47.8
		c1.1-4,2.1-7.9,3-11.9c0.9-3.8,1.8-7.7,2.7-11.4c1.8-7.8,3.3-15.6,4.7-23.3c1.4-7.7,2.3-15.3,3.4-22.8c0.8-7.5,1.7-15,2.2-22.3
		c0.3-3.7,0.6-7.3,0.8-10.9c0.2-3.6,0.4-7.2,0.5-10.8c0.2-7.1,0.4-14.2,0.4-21.1c0.1-6.9-0.1-13.7-0.3-20.4
		c-0.1-3.3-0.3-6.7-0.4-9.9c-0.1-3.3-0.3-6.6-0.5-9.8c-0.2-3.2-0.4-6.4-0.7-9.6c-0.3-3.2-0.5-6.3-0.8-9.4
		c-0.5-6.2-1.3-12.3-1.9-18.3c-0.3-3-0.7-6-1.1-8.9c-0.4-2.9-0.7-5.8-1.2-8.7c-0.9-5.7-1.6-11.4-2.6-16.9c-0.5-2.8-0.9-5.5-1.4-8.2
		c-0.5-2.7-1-5.3-1.5-8c-0.9-5.2-2-10.5-3-15.7c-0.3-1.3-0.5-2.6-0.8-3.9c-0.4-1.3-0.7-2.7-1.1-4.1c-0.7-2.4-1.4-4.8-2-7.2
		c-1.4-4.7-2.8-9.3-4.2-13.8c-2.9-9-5.8-17.4-8.8-25.3c-2.4-6.4-4.9-12.5-7.4-18.2c-0.5-1.3-1.1-2.6-1.7-3.9
		c-0.8-1.7-1.5-3.5-2.3-5.2c-0.8-1.6-1.6-3.2-2.3-4.8c-1.5-3.1-3.1-6.1-4.6-9c-5.9-11.4-11.4-20.8-16.2-28.3
		c-9.5-14.8-15.7-21.7-17.7-20.7c-1.9,1,0.8,9.9,6.7,26.1c3,8.1,6.7,18.1,10.9,29.9c1,3,2.1,6,3.2,9.2c0.5,1.6,1.1,3.2,1.6,4.8
		c0.2,0.6,0.4,1.1,0.6,1.7c0.3,1,0.6,2.1,1,3.2c0.5,1.7,1.1,3.5,1.6,5.2c0.5,1.8,1.1,3.6,1.6,5.4c0.5,1.8,1.1,3.7,1.6,5.6
		c0.5,1.9,1.1,3.8,1.6,5.8c2.1,7.8,4.2,16.1,6.2,24.9c1,4.4,2,8.9,2.9,13.5c0.5,2.3,0.9,4.6,1.4,7c0.2,1.1,0.4,2.1,0.6,3.2
		c0.1,1.2,0.3,2.4,0.4,3.6c0.6,4.8,1.2,9.7,1.8,14.9c0.3,2.6,0.6,5.2,0.9,7.8c0.3,2.6,0.5,5.3,0.8,8c0.6,5.4,1,10.8,1.4,16.4
		c0.3,2.8,0.4,5.6,0.6,8.4c0.1,1.4,0.2,2.8,0.3,4.3c0.1,1.4,0.2,2.9,0.3,4.3c0.2,3.5,0.4,7.1,0.5,10.7v0c0.2,5.4,0.4,10.9,0.6,16.5
		c0,0,0,0,0,0c0.1,3.7,0.1,7.4,0.2,11.2c0.1,11.5-0.1,23.3-0.7,35.5c-0.2,6.5-0.8,13.1-1.2,19.8c-0.3,3.3-0.6,6.7-1,10
		c-0.3,3.4-0.7,6.8-1.1,10.1c-0.7,6.8-1.8,13.7-2.9,20.6c-0.6,3.4-1.2,6.9-1.9,10.4c-0.6,3.5-1.3,7-2,10.5c-1.5,7-3.1,14-5,21.1
		c-1,3.6-2,7.3-3,11c-1,3.5-2,7.1-3.1,10.6c-4.4,14.2-9.7,28.6-15.9,42.9c-3.1,7.2-6.4,14.4-10,21.7c-1.8,3.6-3.6,7.3-5.4,10.9
		l-0.7,1.3l-0.7,1.4l-1.5,2.7c-1,1.8-2,3.7-2.9,5.5c-8,14.9-16.3,30.3-24.6,46.1c-8.3,15.8-16.6,32.2-24.5,49.3
		c-2,4.3-3.9,8.6-5.9,13c-1.9,4.4-3.8,8.8-5.6,13.3c-1.9,4.5-3.6,9-5.4,13.6c-1.7,4.6-3.5,9.2-5,13.9c-3.3,9.4-6.3,19-8.9,28.9
		c-2.6,9.9-5,20-6.8,30.3c-1.8,10.3-3.2,20.8-4.1,31.5c-0.8,10.7-1,21.6-0.8,32.4c0.2,5.2,0.5,10.4,0.7,15.7
		c0.3,5.3,0.7,10.6,1.1,15.9c0.9,10.6,2.2,21.2,3.8,31.9c3.1,21.3,7.5,42.7,13.3,64c1.4,5.3,3,10.6,4.6,16
		c1.6,5.3,3.3,10.6,5.1,15.9c0.9,2.6,1.8,5.3,2.7,7.9l1.4,4l1.4,3.8c1.9,5.2,3.9,10.4,5.8,15.6c8.1,20.9,17.4,41.7,27.9,62.1
		c1.4,2.5,2.7,5.1,4,7.6c1.4,2.5,2.6,5.1,4.1,7.6c2.9,5,5.8,10,8.6,15.1c3.1,4.9,6.1,9.9,9.2,14.9c1.5,2.5,3.2,4.9,4.8,7.4
		c1.6,2.4,3.3,4.9,4.9,7.3c7.4,10.9,15.3,21.7,23.6,32.1c1.8,2.3,3.7,4.7,5.6,7c1.9,2.3,3.8,4.6,5.7,6.9c2.9,3.4,5.8,6.8,8.8,10.2
		c2,2.2,4,4.4,6,6.7l3,3.3c1,1.1,2,2.2,3.1,3.3c4.2,4.3,8.4,8.6,12.6,13c2.2,2.1,4.4,4.2,6.5,6.3c2.2,2.1,4.4,4.2,6.6,6.3
		c1.1,1.1,2.2,2.1,3.3,3.1c1.1,1,2.3,2,3.4,3c2.3,2,4.6,4,6.8,6.1c4.5,4.1,9.3,7.8,14,11.7c2.3,1.9,4.7,3.8,7,5.7
		c2.2,1.8,4.5,3.6,6.7,5.4c5.1,4.1,10.4,8.3,16,12.5v655.1H0v-583.3c8.2,7.5,16.7,15,25.5,22.2c11.5,9.4,23.5,18.5,36.4,26.9
		c12.9,8.4,26.5,16.2,41,22.8c14.5,6.6,29.9,12,45.8,15.7c2,0.4,4,0.9,6,1.3c2,0.4,4,0.9,6,1.2l6.1,1c1.1,0.2,1.7,0.3,3.8,0.5
		c1.7,0.2,3.5,0.3,5.3,0.3c7.3,0.1,14.6-1.4,21-4.1c6.4-2.6,12-6.3,16.7-10.4c4.7-4.1,8.6-8.8,11.8-13.7c3.2-4.9,5.8-10.1,7.7-15.6
		s3.2-11.2,3.8-17.3l0.2-2.3c0.1-0.8,0.1-1.4,0.1-2.5l0-1.4c0-0.5,0-0.9-0.1-1.1l-0.1-1.7l-0.4-6.2c-1.2-16.6-4.3-33.2-9.1-49.2
		c-4.8-16-11.2-31.4-18.8-46l0.2-0.1c0,0,0,0-0.1-0.2c-6.2-11.8-13.1-22.9-20.5-33.6c-1.9-2.6-3.7-5.3-5.6-7.9
		c-1.9-2.6-3.8-5.1-5.8-7.7c-2-2.5-3.9-5-5.9-7.5c-2-2.5-4-4.9-6-7.3c-8.1-9.7-16.5-18.9-25.1-27.8c-4.3-4.5-8.6-8.8-13-13.1
		l-6.2-6.1l-5.5-6c-3.6-4-7.3-7.8-10.8-12.2l-5.3-6.4c-1.8-2.1-3.6-4.2-5.2-6.5c-3.3-4.5-6.7-8.9-10-13.4c-3.1-4.6-6.3-9.2-9.4-13.8
		c-12.2-18.7-23-38.5-32.3-59.3c0-0.1,0-0.1-0.1-0.1l-0.2,0.1c-11.6-25.7-20.6-52.3-27.2-79.4c-6.5-27-10.5-54.3-11.8-81.7
		c-1.3-27.2,0.2-54,4.3-80.4c0.4-3.3,1.1-6.6,1.7-9.8c0.6-3.3,1.2-6.5,1.9-9.8c0.8-3.3,1.5-6.5,2.3-9.7c0.7-3.2,1.5-6.5,2.4-9.7
		c0.9-3.2,1.8-6.4,2.6-9.6l0.6-2.4l0.7-2.4l1.5-4.7c1-3.2,2-6.3,3-9.5c1.1-3.1,2.2-6.3,3.3-9.4l1.7-4.7c0.5-1.6,1.2-3.1,1.8-4.6
		c1.2-3.1,2.4-6.2,3.6-9.2l0.9-2.3l1-2.3l2-4.6c1.3-3,2.6-6.1,3.9-9.1c5.5-12,11.2-23.9,17.5-35.5c12.4-23.3,26-45.7,40.4-67.5
		c28.9-43.6,60.4-84.6,91.5-124.6c15.6-20,31.1-39.8,46.3-59.6c1.9-2.4,3.8-5,5.7-7.5s3.8-5,5.7-7.5c3.7-5,7.4-10,11-15.1
		c7.3-10,14.3-20.2,21.2-30.3c27.5-40.5,51.6-81.7,72.2-122.5c2.7-5.2,5.3-10.7,7.7-16.1c2.4-5.5,4.7-11,6.8-16.7
		c2.1-5.7,4-11.4,5.6-17.4c1.6-5.9,3.1-12.1,4-18.4c1-6.2,1.5-12.3,1.8-18.4c0.1-3.1,0.2-6.1,0.1-9.2c0-0.8,0-1.6,0-2.4
		c0-0.7,0-1.4-0.1-2.1c-0.1-1.5-0.2-3-0.3-4.5c-0.1-1.5-0.2-3-0.4-4.5c-0.2-1.5-0.3-3-0.5-4.5c-0.2-1.5-0.4-3-0.7-4.5l-0.3-2.2
		l-0.4-2.2c-0.3-1.5-0.6-3-0.9-4.4c-0.3-1.5-0.7-2.9-1-4.4c-0.4-1.5-0.7-2.9-1.1-4.4c-0.4-1.4-0.8-2.9-1.3-4.3
		c-6.8-23-19.4-43.8-35.1-60.3c-7.8-8.3-16.3-15.6-25.3-21.8c-8.9-6.2-18.2-11.5-27.5-16.1c-4.7-2.1-9.4-4.4-14.1-6.2
		c-2.4-0.9-4.7-1.9-7.1-2.8c-2.4-0.8-4.7-1.6-7.1-2.5c-2.4-0.8-4.7-1.5-7.1-2.2c-2.4-0.7-4.7-1.4-7.1-2.1c-2.4-0.6-4.7-1.2-7-1.8
		c-1.2-0.3-2.3-0.6-3.5-0.9l-1.8-0.4l-1.8-0.4c-2.3-0.5-4.7-1-7-1.4c-2.3-0.5-4.6-1-6.9-1.4c-4.5-0.8-9-1.6-13.5-2.3
		c-9-1.4-18-2.5-27-3.2c-9-0.7-17.9-1.1-26.8-0.9c-4.4,0.1-8.7,0.3-12.9,0.4c-2.1,0.1-4.3,0.3-6.4,0.4c-2.1,0.1-4.2,0.3-6.3,0.5
		c-16.7,1.5-32.7,4-47.9,7.3C46.7,72.5,22.2,80.4,0,89V0h1920v124.2c-10.2-5.6-20.5-10.1-30.5-13.7c-2.5-0.9-5-1.8-7.5-2.5
		c-1.2-0.4-2.6-0.8-3.4-1.1c-1.2-0.4-2.4-0.8-3.6-1.2c-1.2-0.4-2.4-0.8-3.6-1.2c-1.2-0.4-2.4-0.8-3.6-1.1c-2.5-0.6-5-1.2-7.4-1.8
		c-1.2-0.3-2.4-0.5-3.6-0.7c-1.2-0.2-2.4-0.4-3.6-0.6c-1.2-0.2-2.4-0.4-3.5-0.6c-1.2-0.1-2.4-0.3-3.5-0.4c-2.3-0.3-4.6-0.6-6.9-0.7
		c-2.3-0.1-4.5-0.3-6.7-0.4c-2.2-0.2-4.3-0.1-6.5-0.2c-2.1,0-4.2-0.1-6.2,0c-2,0.1-4,0.1-6,0.2c-1,0-2,0.1-2.9,0.1
		c-1,0.1-1.9,0.2-2.9,0.2c-1.9,0.1-3.8,0.3-5.6,0.4c-1.8,0.2-3.6,0.4-5.3,0.6s-3.5,0.4-5.1,0.6c-1.7,0.2-3.3,0.5-4.9,0.7
		c-12.8,1.8-23.4,4-31.9,5.8C1738.1,110.3,1729.3,113,1729.4,115.1z"/>
	<path class="st358" d="M379.7,229.5c0.1,3,0,6.1-0.1,9.2c-0.3,6.1-0.8,12.3-1.8,18.4c-0.9,6.3-2.4,12.5-4,18.4
		c-1.6,6-3.6,11.7-5.6,17.4c-2.1,5.7-4.4,11.2-6.8,16.7c-2.4,5.5-5.1,10.9-7.7,16.1c-20.6,40.9-44.7,82-72.2,122.5
		c-6.9,10.1-13.9,20.3-21.2,30.3c-3.6,5.1-7.3,10-11,15.1c-1.9,2.5-3.8,5-5.7,7.5s-3.8,5-5.7,7.5c-15.2,19.8-30.7,39.6-46.3,59.6
		c-31.1,40.1-62.7,81.1-91.5,124.6c-14.4,21.8-28,44.3-40.4,67.5c-6.3,11.6-11.9,23.5-17.5,35.5c-1.4,3-2.6,6.1-3.9,9.1l-2,4.6
		l-1,2.3l-0.9,2.3c-1.2,3.1-2.4,6.2-3.6,9.2c-0.6,1.5-1.2,3.1-1.8,4.6l-1.7,4.7c-1.1,3.1-2.2,6.2-3.3,9.4c-1,3.1-2,6.3-3,9.5
		l-1.5,4.7l-0.7,2.4l-0.6,2.4c-0.9,3.2-1.8,6.4-2.6,9.6c-0.9,3.2-1.6,6.4-2.4,9.7c-0.8,3.2-1.5,6.5-2.3,9.7
		c-0.6,3.3-1.2,6.5-1.9,9.8c-0.6,3.3-1.3,6.5-1.7,9.8c-4.1,26.4-5.6,53.2-4.3,80.4c1.3,27.3,5.3,54.7,11.8,81.7
		c6.5,27,15.6,53.7,27.2,79.4l0.2-0.1c0,0.1,0,0.1,0.1,0.1c9.3,20.7,20.1,40.5,32.3,59.3c3.1,4.6,6.3,9.2,9.4,13.8
		c3.3,4.4,6.7,8.9,10,13.4c1.6,2.3,3.4,4.4,5.2,6.5l5.3,6.4c3.5,4.4,7.2,8.2,10.8,12.2l5.5,6l6.2,6.1c4.4,4.3,8.7,8.7,13,13.1
		c8.6,8.9,17,18.1,25.1,27.8c2,2.4,4.1,4.8,6,7.3c2,2.5,3.9,5,5.9,7.5c1.9,2.6,3.8,5.1,5.8,7.7c1.9,2.6,3.7,5.3,5.6,7.9
		c7.4,10.6,14.2,21.8,20.5,33.6c0.1,0.2,0.1,0.2,0.1,0.2l-0.2,0.1c7.6,14.6,14.1,30,18.8,46c4.8,16,7.9,32.6,9.1,49.2l0.4,6.2
		l0.1,1.7c0,0.3,0.1,0.6,0.1,1.1l0,1.4c0,1.1,0,1.7-0.1,2.5l-0.2,2.3c-0.6,6-1.9,11.8-3.8,17.3s-4.5,10.7-7.7,15.6
		c-3.2,4.9-7.1,9.5-11.8,13.7c-4.7,4.1-10.3,7.8-16.7,10.4c-6.4,2.7-13.7,4.1-21,4.1c-1.8,0-3.6-0.1-5.3-0.3
		c-2.1-0.2-2.7-0.4-3.8-0.5l-6.1-1c-2-0.3-4-0.8-6-1.2c-2-0.4-4-0.8-6-1.3c-15.9-3.8-31.3-9.2-45.8-15.7
		c-14.5-6.6-28.1-14.4-41-22.8c-12.9-8.4-24.9-17.6-36.4-26.9c-8.8-7.2-17.3-14.7-25.5-22.2V89c22.2-8.6,46.7-16.4,73.8-22.2
		c15.2-3.2,31.2-5.8,47.9-7.3c2.1-0.2,4.2-0.3,6.3-0.5c2.1-0.1,4.2-0.3,6.4-0.4c4.3-0.2,8.6-0.3,12.9-0.4c8.9-0.1,17.8,0.2,26.8,0.9
		c9,0.7,18,1.8,27,3.2c4.5,0.7,9,1.5,13.5,2.3c2.2,0.4,4.5,0.9,6.9,1.4c2.3,0.5,4.6,1,7,1.4l1.8,0.4l1.8,0.4
		c1.2,0.3,2.3,0.6,3.5,0.9c2.3,0.6,4.7,1.2,7,1.8c2.3,0.7,4.7,1.4,7.1,2.1c2.4,0.7,4.7,1.4,7.1,2.2c2.4,0.8,4.7,1.6,7.1,2.5
		c2.4,0.8,4.7,1.8,7.1,2.8c4.8,1.8,9.4,4,14.1,6.2c9.4,4.6,18.6,9.9,27.5,16.1c8.9,6.3,17.4,13.6,25.3,21.8
		c15.6,16.5,28.2,37.3,35.1,60.3c0.4,1.4,0.8,2.9,1.3,4.3c0.4,1.5,0.7,2.9,1.1,4.4c0.3,1.5,0.7,2.9,1,4.4c0.3,1.5,0.6,3,0.9,4.4
		l0.4,2.2l0.3,2.2c0.2,1.5,0.4,3,0.7,4.5c0.2,1.5,0.3,3,0.5,4.5c0.1,1.5,0.3,3,0.4,4.5c0.1,1.5,0.2,3,0.3,4.5c0,0.7,0,1.4,0.1,2.1
		C379.6,227.8,379.6,228.6,379.7,229.5z"/>
	<path class="st358" d="M1920,124.2v36.4c-12.9-10.4-26.9-18.4-40.7-24.6c-2.2-1-4.3-1.9-6.5-2.8c-1.1-0.4-2-0.8-3.5-1.4
		c-1.1-0.4-2.1-0.9-3.2-1.3c-1.1-0.4-2.1-0.9-3.1-1.3c-1-0.4-2.1-0.9-3.1-1.2c-2-0.7-4-1.3-6-2c-1-0.4-2-0.6-3-0.9
		c-1-0.3-2-0.5-3-0.8c-1-0.3-2-0.5-3-0.8c-1-0.2-2-0.4-3-0.6c-2-0.4-3.9-0.9-5.9-1.2c-2-0.3-3.9-0.6-5.8-0.9
		c-1.9-0.3-3.8-0.5-5.7-0.7c-1.9-0.2-3.7-0.5-5.6-0.6c-1.9-0.1-3.7-0.3-5.5-0.4c-0.9-0.1-1.8-0.1-2.7-0.2c-0.9,0-1.8-0.1-2.7-0.1
		c-1.8-0.1-3.5-0.2-5.2-0.2c-1.7-0.1-3.4-0.1-5.1-0.1c-1.7,0-3.3,0-4.9-0.1c-1.6,0-3.2,0-4.8,0c-12.5,0-23.2,0.3-31.9,0.3
		c-17.5,0-26.8-1.5-26.9-3.7c-0.2-2.1,8.6-4.8,25.6-8.5c8.5-1.8,19.1-4,31.9-5.8c1.6-0.2,3.2-0.4,4.9-0.7c1.7-0.2,3.4-0.4,5.1-0.6
		s3.5-0.4,5.3-0.6c1.8-0.1,3.7-0.3,5.6-0.4c1-0.1,1.9-0.2,2.9-0.2c1-0.1,2-0.1,2.9-0.1c2-0.1,4-0.1,6-0.2c2-0.1,4.1,0,6.2,0
		c2.1,0,4.3,0,6.5,0.2c2.2,0.1,4.4,0.3,6.7,0.4c2.3,0.2,4.6,0.5,6.9,0.7c1.2,0.1,2.3,0.3,3.5,0.4c1.2,0.2,2.4,0.4,3.5,0.6
		c1.2,0.2,2.4,0.4,3.6,0.6c1.2,0.2,2.4,0.4,3.6,0.7c2.4,0.6,4.9,1.2,7.4,1.8c1.3,0.3,2.4,0.7,3.6,1.1c1.2,0.4,2.4,0.8,3.6,1.2
		c1.2,0.4,2.4,0.8,3.6,1.2c0.9,0.2,2.2,0.7,3.4,1.1c2.5,0.8,5,1.6,7.5,2.5C1899.5,114.1,1909.7,118.6,1920,124.2z"/>
	<path class="st358" d="M1911.3,1311.7c2.8,2.5,5.7,4.9,8.7,7.3v68.6c-5.6-4.2-11-8.4-16-12.5c-2.3-1.8-4.5-3.6-6.7-5.4
		c-2.3-1.9-4.7-3.8-7-5.7c-4.7-3.9-9.5-7.6-14-11.7c-2.3-2-4.6-4-6.8-6.1c-1.1-1-2.3-2-3.4-3c-1.1-1-2.3-2-3.3-3.1
		c-2.2-2.1-4.4-4.2-6.6-6.3c-2.2-2.1-4.4-4.2-6.5-6.3c-4.2-4.3-8.4-8.7-12.6-13c-1.1-1.1-2.1-2.2-3.1-3.3l-3-3.3c-2-2.2-4-4.4-6-6.7
		c-3-3.4-5.9-6.8-8.8-10.2c-1.9-2.3-3.8-4.6-5.7-6.9c-1.9-2.3-3.7-4.6-5.6-7c-8.3-10.5-16.1-21.2-23.6-32.1
		c-1.6-2.4-3.3-4.9-4.9-7.3c-1.6-2.4-3.3-4.9-4.8-7.4c-3.1-5-6.1-9.9-9.2-14.9c-2.9-5.1-5.8-10.1-8.6-15.1c-1.5-2.5-2.8-5.1-4.1-7.6
		c-1.4-2.5-2.7-5.1-4-7.6c-10.5-20.4-19.8-41.2-27.9-62.1c-1.9-5.2-3.9-10.4-5.8-15.6l-1.4-3.8l-1.4-4c-0.9-2.6-1.8-5.3-2.7-7.9
		c-1.8-5.3-3.5-10.6-5.1-15.9c-1.6-5.3-3.1-10.7-4.6-16c-5.7-21.3-10.1-42.7-13.3-64c-1.6-10.6-2.8-21.3-3.8-31.9
		c-0.5-5.3-0.8-10.6-1.1-15.9c-0.2-5.2-0.5-10.5-0.7-15.7c-0.3-10.9,0-21.8,0.8-32.4c0.8-10.7,2.3-21.2,4.1-31.5
		c1.8-10.3,4.2-20.4,6.8-30.3c2.6-9.9,5.6-19.5,8.9-28.9c1.6-4.7,3.3-9.3,5-13.9c1.8-4.6,3.5-9.1,5.4-13.6c1.8-4.5,3.7-8.9,5.6-13.3
		c2-4.3,3.9-8.7,5.9-13c7.9-17.1,16.3-33.5,24.5-49.3c8.3-15.8,16.6-31.1,24.6-46.1c1-1.8,2-3.7,2.9-5.5l1.5-2.7l0.7-1.4l0.7-1.3
		c1.8-3.6,3.7-7.3,5.4-10.9c3.5-7.3,6.9-14.5,10-21.7c6.2-14.4,11.5-28.7,15.9-42.9c1.1-3.6,2.1-7.1,3.1-10.6c1-3.7,2-7.3,3-11
		c1.9-7.1,3.5-14.1,5-21.1c0.8-3.5,1.4-7,2-10.5c0.6-3.5,1.2-6.9,1.9-10.4c1-6.9,2.1-13.8,2.9-20.6c0.4-3.4,0.8-6.8,1.1-10.1
		c0.3-3.4,0.6-6.7,1-10c0.4-6.7,1-13.3,1.2-19.8c0.6-12.1,0.8-23.9,0.7-35.5c0-3.8-0.1-7.5-0.2-11.2c0,0,0,0,0,0
		c-0.1-5.6-0.3-11.1-0.6-16.5v0c-0.2-3.6-0.4-7.2-0.5-10.7c-0.1-1.4-0.2-2.9-0.3-4.3c-0.1-1.4-0.2-2.9-0.3-4.3
		c-0.2-2.8-0.4-5.7-0.6-8.4c-0.5-5.6-0.9-11-1.4-16.4c-0.3-2.7-0.5-5.3-0.8-8c-0.3-2.6-0.6-5.2-0.9-7.8c-0.6-5.2-1.2-10.1-1.8-14.9
		c-0.1-1.2-0.3-2.4-0.4-3.6c-0.2-1.1-0.4-2.2-0.6-3.2c-0.5-2.4-0.9-4.7-1.4-7c-1-4.6-1.9-9.1-2.9-13.5c-2-8.8-4.1-17.1-6.2-24.9
		c-0.5-2-1.1-3.9-1.6-5.8c-0.5-1.9-1.1-3.8-1.6-5.6c-0.5-1.8-1.1-3.7-1.6-5.4c-0.5-1.8-1.1-3.5-1.6-5.2c-0.4-1.1-0.7-2.2-1-3.2
		c-0.2-0.6-0.4-1.1-0.6-1.7c-0.6-1.6-1.1-3.3-1.6-4.8c-1.1-3.2-2.2-6.3-3.2-9.2c-4.2-11.8-7.9-21.8-10.9-29.9
		c-5.9-16.2-8.6-25.1-6.7-26.1c2-1.1,8.2,5.9,17.7,20.7c4.7,7.4,10.2,16.8,16.2,28.3c1.5,2.9,3,5.8,4.6,9c0.8,1.6,1.5,3.2,2.3,4.8
		c0.8,1.7,1.6,3.5,2.3,5.2c0.5,1.3,1.1,2.6,1.7,3.9c2.5,5.7,4.9,11.8,7.4,18.2c3,7.9,6,16.3,8.8,25.3c1.4,4.5,2.8,9.1,4.2,13.8
		c0.7,2.4,1.4,4.8,2,7.2c0.4,1.3,0.7,2.7,1.1,4.1c0.3,1.3,0.5,2.6,0.8,3.9c1,5.1,2.1,10.5,3,15.7c0.5,2.6,1,5.3,1.5,8
		c0.4,2.7,0.9,5.4,1.4,8.2c1,5.5,1.7,11.1,2.6,16.9c0.5,2.9,0.8,5.8,1.2,8.7c0.4,2.9,0.8,5.9,1.1,8.9c0.6,6,1.4,12.1,1.9,18.3
		c0.3,3.1,0.5,6.3,0.8,9.4c0.2,3.2,0.4,6.4,0.7,9.6c0.2,3.2,0.4,6.5,0.5,9.8c0.1,3.3,0.3,6.6,0.4,9.9c0.1,6.7,0.4,13.5,0.3,20.4
		c0.1,6.9-0.2,13.9-0.4,21.1c-0.2,3.6-0.4,7.2-0.5,10.8c-0.2,3.6-0.5,7.3-0.8,10.9c-0.5,7.3-1.4,14.8-2.2,22.3
		c-1.1,7.5-2,15.2-3.4,22.8c-1.3,7.7-2.9,15.4-4.7,23.3c-0.9,3.8-1.8,7.6-2.7,11.4c-1,4-2,7.9-3,11.9c-4.3,15.9-9.7,31.9-16,47.8
		c-3.2,8-6.5,15.9-10.1,23.8c-1.8,4-3.6,7.9-5.5,11.8l-0.8,1.6l-0.7,1.5l-1.5,2.9c-1,1.9-1.9,3.9-2.9,5.8
		c-7.7,15.3-15.5,30.8-23.3,46.5c-15.5,31.4-30.6,63.7-41.7,97.8c-11.1,34-17.8,69.8-16.1,106.3c0.3,4.8,0.6,9.6,0.9,14.5
		c0.3,4.8,0.7,9.5,1.2,14.3c1,9.6,2.3,19.3,3.8,28.9c3.1,19.3,7.4,38.8,12.8,58.1c1.4,4.8,2.8,9.7,4.3,14.4
		c1.5,4.8,3.1,9.6,4.8,14.4c0.8,2.4,1.7,4.8,2.6,7.2l1.3,3.6l1.4,3.8c1.8,4.8,3.7,9.7,5.5,14.6c7.7,19.2,16.3,38.1,26.2,56.7
		c1.2,2.3,2.5,4.6,3.7,6.9c1.3,2.3,2.5,4.7,3.8,6.9c2.7,4.6,5.3,9.1,8,13.7c2.8,4.5,5.6,9,8.5,13.5c1.4,2.3,2.9,4.4,4.4,6.7
		c1.5,2.2,3,4.4,4.5,6.6c12.2,17.5,25.5,34.5,39.9,50.7c1.8,2,3.7,4,5.5,6l2.8,3c0.9,1,1.8,2,2.8,3c3.8,3.9,7.6,7.8,11.5,11.7
		c4,3.8,7.9,7.5,11.9,11.3c2,1.9,4.1,3.7,6.1,5.5C1907.1,1308.1,1909.2,1309.9,1911.3,1311.7z"/>
	<path class="st358" d="M1819.3,520.4c-0.6,3.5-1.3,7-2,10.5C1818,527.3,1818.7,523.8,1819.3,520.4z"/>
	<path class="st358" d="M1826.7,375.5c-0.1-1.4-0.2-2.9-0.3-4.3C1826.6,372.7,1826.7,374.1,1826.7,375.5c0.2,3.5,0.4,7.1,0.5,10.7
		C1827.1,382.7,1826.9,379.1,1826.7,375.5z"/>
	<path class="st358" d="M1827.3,386.3c0.2,5.4,0.4,10.9,0.6,16.5C1827.7,397.2,1827.5,391.7,1827.3,386.3z"/>
	<path class="st358" d="M1827.8,402.7c0.1,3.7,0.1,7.4,0.2,11.2C1828,410.2,1827.9,406.5,1827.8,402.7z"/>
	<path class="st358" d="M1824.8,1301.2c-3-3.4-5.9-6.8-8.8-10.2C1818.9,1294.4,1821.8,1297.8,1824.8,1301.2c2,2.2,4,4.4,6,6.7
		C1828.8,1305.6,1826.8,1303.4,1824.8,1301.2z"/>
	<path class="st359" d="M1920,124.2v36.4c-12.9-10.4-26.9-18.4-40.7-24.6c-2.2-1-4.3-1.9-6.5-2.8c-1.1-0.4-2-0.8-3.5-1.4
		c-1.1-0.4-2.1-0.9-3.2-1.3c-1.1-0.4-2.1-0.9-3.1-1.3c-1-0.4-2.1-0.9-3.1-1.2c-2-0.7-4-1.3-6-2c-1-0.4-2-0.6-3-0.9
		c-1-0.3-2-0.5-3-0.8c-1-0.3-2-0.5-3-0.8c-1-0.2-2-0.4-3-0.6c-2-0.4-3.9-0.9-5.9-1.2c-2-0.3-3.9-0.6-5.8-0.9
		c-1.9-0.3-3.8-0.5-5.7-0.7c-1.9-0.2-3.7-0.5-5.6-0.6c-1.9-0.1-3.7-0.3-5.5-0.4c-0.9-0.1-1.8-0.1-2.7-0.2c-0.9,0-1.8-0.1-2.7-0.1
		c-1.8-0.1-3.5-0.2-5.2-0.2c-1.7-0.1-3.4-0.1-5.1-0.1c-1.7,0-3.3,0-4.9-0.1c-1.6,0-3.2,0-4.8,0c-12.5,0-23.2,0.3-31.9,0.3
		c-17.5,0-26.8-1.5-26.9-3.7c-0.2-2.1,8.6-4.8,25.6-8.5c8.5-1.8,19.1-4,31.9-5.8c1.6-0.2,3.2-0.4,4.9-0.7c1.7-0.2,3.4-0.4,5.1-0.6
		s3.5-0.4,5.3-0.6c1.8-0.1,3.7-0.3,5.6-0.4c1-0.1,1.9-0.2,2.9-0.2c1-0.1,2-0.1,2.9-0.1c2-0.1,4-0.1,6-0.2c2-0.1,4.1,0,6.2,0
		c2.1,0,4.3,0,6.5,0.2c2.2,0.1,4.4,0.3,6.7,0.4c2.3,0.2,4.6,0.5,6.9,0.7c1.2,0.1,2.3,0.3,3.5,0.4c1.2,0.2,2.4,0.4,3.5,0.6
		c1.2,0.2,2.4,0.4,3.6,0.6c1.2,0.2,2.4,0.4,3.6,0.7c2.4,0.6,4.9,1.2,7.4,1.8c1.3,0.3,2.4,0.7,3.6,1.1c1.2,0.4,2.4,0.8,3.6,1.2
		c1.2,0.4,2.4,0.8,3.6,1.2c0.9,0.2,2.2,0.7,3.4,1.1c2.5,0.8,5,1.6,7.5,2.5C1899.5,114.1,1909.7,118.6,1920,124.2z"/>
	<path class="st359" d="M379.6,238.6c-0.3,6.1-0.8,12.3-1.8,18.4c-0.9,6.3-2.4,12.5-4,18.4c-1.6,6-3.6,11.7-5.6,17.4
		c-2.1,5.7-4.4,11.2-6.8,16.7c-2.4,5.5-5.1,10.9-7.7,16.1c-20.6,40.9-44.7,82-72.2,122.5c-6.9,10.1-13.9,20.3-21.2,30.3
		c-3.6,5.1-7.3,10-11,15.1c-1.9,2.5-3.8,5-5.7,7.5s-3.8,5-5.7,7.5c-15.2,19.8-30.7,39.6-46.3,59.6c-31.1,40.1-62.7,81.1-91.5,124.6
		c-14.4,21.8-28,44.3-40.4,67.5c-6.3,11.6-11.9,23.5-17.5,35.5c-1.4,3-2.6,6.1-3.9,9.1l-2,4.6l-1,2.3l-0.9,2.3
		c-1.2,3.1-2.4,6.2-3.6,9.2c-0.6,1.5-1.2,3.1-1.8,4.6l-1.7,4.7c-1.1,3.1-2.2,6.2-3.3,9.4c-1,3.1-2,6.3-3,9.5l-1.5,4.7l-0.7,2.4
		l-0.6,2.4c-0.9,3.2-1.8,6.4-2.6,9.6c-0.9,3.2-1.6,6.4-2.4,9.7c-0.8,3.2-1.5,6.5-2.3,9.7c-0.6,3.3-1.2,6.5-1.9,9.8
		c-0.6,3.3-1.3,6.5-1.7,9.8c-4.1,26.4-5.6,53.2-4.3,80.4c1.3,27.3,5.3,54.7,11.8,81.7c6.5,27,15.6,53.7,27.2,79.4l0.2-0.1
		c0,0.1,0,0.1,0.1,0.1c9.3,20.7,20.1,40.5,32.3,59.3c3.1,4.6,6.3,9.2,9.4,13.8c3.3,4.4,6.7,8.9,10,13.4c1.6,2.3,3.4,4.4,5.2,6.5
		l5.3,6.4c3.5,4.4,7.2,8.2,10.8,12.2l5.5,6l6.2,6.1c4.4,4.3,8.7,8.7,13,13.1c8.6,8.9,17,18.1,25.1,27.8c2,2.4,4.1,4.8,6,7.3
		c2,2.5,3.9,5,5.9,7.5c1.9,2.6,3.8,5.1,5.8,7.7c1.9,2.6,3.7,5.3,5.6,7.9c7.4,10.6,14.2,21.8,20.5,33.6c0.1,0.2,0.1,0.2,0.1,0.2
		l-0.2,0.1c7.6,14.6,14.1,30,18.8,46c4.8,16,7.9,32.6,9.1,49.2l0.4,6.2l0.1,1.7c0,0.3,0.1,0.6,0.1,1.1l0,1.4c0,1.1,0,1.7-0.1,2.5
		l-0.2,2.3c-0.6,6-1.9,11.8-3.8,17.3s-4.5,10.7-7.7,15.6c-3.2,4.9-7.1,9.5-11.8,13.7c-4.7,4.1-10.3,7.8-16.7,10.4
		c-6.4,2.7-13.7,4.1-21,4.1c-1.8,0-3.6-0.1-5.3-0.3c-2.1-0.2-2.7-0.4-3.8-0.5l-6.1-1c-2-0.3-4-0.8-6-1.2c-2-0.4-4-0.8-6-1.3
		c-15.9-3.8-31.3-9.2-45.8-15.7c-14.5-6.6-28.1-14.4-41-22.8c-12.9-8.4-24.9-17.6-36.4-26.9c-8.8-7.2-17.3-14.7-25.5-22.2v-72.2
		c9.3,9.2,18.7,18.3,28.3,27.2c9.9,9.2,20,18.1,30.4,26.5c10.4,8.4,21,16.3,32,23.5c11,7.1,22.3,13.4,34,18.7
		c11.7,5.2,23.7,9.3,36,12.2l4.6,0.9c1.5,0.3,3.1,0.7,4.6,0.9l4.7,0.7c0.6,0.1,1.6,0.3,1.6,0.3h0c0.1,0,0,0,0.1,0c0,0,0,0,0.3-0.1
		c0.3-0.1,0.9-0.5,1.7-1.2c1.5-1.4,3.5-4.1,4.4-7c0.5-1.4,0.8-2.9,0.9-4.2c0-0.2,0-0.3,0-0.5v-0.2c0,0,0,0,0,0v-0.1c0,0,0,0,0,0
		l0-0.1l-0.1-1l-0.3-4.8c-1-12.7-3.4-25.4-7.1-37.8c-3.7-12.4-8.9-24.6-15.1-36.5l-0.2,0.1c0,0,0,0-0.1-0.1
		c-5.1-9.6-10.8-18.9-17-27.9c-1.6-2.2-3.1-4.5-4.8-6.7l-5-6.6l-5.2-6.5c-1.7-2.2-3.6-4.3-5.3-6.5c-7.1-8.6-14.7-16.9-22.6-25.1
		c-3.9-4.1-7.9-8.1-12-12.1l-6.5-6.3l-6.6-7.1c-4.3-4.8-8.9-9.5-12.8-14.4l-6-7.3c-2-2.4-4.1-4.8-5.9-7.4c-3.8-5-7.6-10.1-11.4-15.1
		c-3.5-5.2-7.1-10.4-10.6-15.6c-10.7-16.5-20.4-33.6-29.2-51.3V763.6c4.5-9.4,9.2-18.6,14.1-27.6c13.5-25,28.2-48.7,43.5-71.4
		c30.7-45.4,63.4-87,95.2-126.8c15.9-19.9,31.6-39.5,46.8-58.7c1.9-2.4,3.8-4.8,5.6-7.2c1.8-2.4,3.7-4.8,5.5-7.2
		c3.6-4.8,7.3-9.6,10.9-14.4c7.2-9.6,14.1-19.2,20.8-28.8c27-38.5,50.7-77.4,71.3-116.4c2.5-4.8,4.8-9.3,7-14
		c2.2-4.6,4.2-9.3,6-13.9c3.6-9.3,6.5-18.4,8-27.1c0.8-4.5,1.3-9,1.6-13.6c0.1-2.3,0.3-4.5,0.2-6.8c0-0.7,0-1.4,0-2.1
		c0-0.4,0-0.9,0-1.3l-0.1-3.4c0-1.1-0.1-2.3-0.2-3.4l-0.3-3.4l-0.4-3.3l-0.2-1.7l-0.3-1.6l-0.5-3.3c-0.2-1.1-0.5-2.2-0.7-3.2
		c-0.3-1.1-0.4-2.2-0.7-3.2l-0.9-3.2c-4.6-16.9-13.2-32-24.5-44.6c-5.7-6.3-11.9-12-18.8-17.1c-6.8-5.1-14.1-9.5-21.6-13.5
		c-3.9-1.8-7.6-3.9-11.6-5.5c-2-0.8-3.9-1.7-5.9-2.5c-2-0.8-4-1.5-6-2.3c-2-0.8-4-1.4-6-2.1c-2-0.7-4-1.3-6-2
		c-2-0.6-4.1-1.2-6.1-1.7c-1-0.3-2-0.6-3-0.9l-1.5-0.4l-1.5-0.4c-2.1-0.5-4.1-1-6.2-1.5c-2-0.5-4.1-1-6.2-1.4
		c-4.2-0.9-8.4-1.8-12.5-2.5c-8.3-1.6-16.4-2.8-24.3-3.8c-8-0.9-15.8-1.5-23.5-1.7c-3.9,0-7.8-0.1-11.6,0c-1.9,0-3.9,0.1-5.8,0.2
		c-1.9,0.1-3.8,0.1-5.7,0.2c-15.2,0.7-30,2.5-44.2,4.8c-28.4,4.7-54.6,12-78.2,20c-0.5,0.2-1,0.3-1.5,0.5V89
		c22.2-8.6,46.7-16.4,73.8-22.2c15.2-3.2,31.2-5.8,47.9-7.3c2.1-0.2,4.2-0.3,6.3-0.5c2.1-0.1,4.2-0.3,6.4-0.4
		c4.3-0.2,8.6-0.3,12.9-0.4c8.9-0.1,17.8,0.2,26.8,0.9c9,0.7,18,1.8,27,3.2c4.5,0.7,9,1.5,13.5,2.3c2.2,0.4,4.5,0.9,6.9,1.4
		c2.3,0.5,4.6,1,7,1.4l1.8,0.4l1.8,0.4c1.2,0.3,2.3,0.6,3.5,0.9c2.3,0.6,4.7,1.2,7,1.8c2.3,0.7,4.7,1.4,7.1,2.1
		c2.4,0.7,4.7,1.4,7.1,2.2c2.4,0.8,4.7,1.6,7.1,2.5c2.4,0.8,4.7,1.8,7.1,2.8c4.8,1.8,9.4,4,14.1,6.2c9.4,4.6,18.6,9.9,27.5,16.1
		c8.9,6.3,17.4,13.6,25.3,21.8c15.6,16.5,28.2,37.3,35.1,60.3c0.4,1.4,0.8,2.9,1.3,4.3c0.4,1.5,0.7,2.9,1.1,4.4
		c0.3,1.5,0.7,2.9,1,4.4c0.3,1.5,0.6,3,0.9,4.4l0.4,2.2l0.3,2.2c0.2,1.5,0.4,3,0.7,4.5c0.2,1.5,0.3,3,0.5,4.5c0.1,1.5,0.3,3,0.4,4.5
		c0.1,1.5,0.2,3,0.3,4.5c0,0.7,0,1.4,0.1,2.1c0,0.8,0,1.6,0,2.4C379.8,232.5,379.6,235.6,379.6,238.6z"/>
	<path class="st359" d="M1920,1319v68.6c0,0,0,0,0,0c-5.6-4.2-11-8.4-16-12.5c-2.3-1.8-4.5-3.6-6.7-5.4c-2.3-1.9-4.7-3.8-7-5.7
		c-4.7-3.9-9.5-7.6-14-11.7c-2.3-2-4.6-4-6.8-6.1c-1.1-1-2.3-2-3.4-3c-1.1-1-2.3-2-3.3-3.1c-2.2-2.1-4.4-4.2-6.6-6.3
		c-2.2-2.1-4.4-4.2-6.5-6.3c-4.2-4.3-8.4-8.7-12.6-13c-1.1-1.1-2.1-2.2-3.1-3.3l-3-3.3c-2-2.2-4-4.4-6-6.7c-3-3.4-5.9-6.8-8.8-10.2
		c-1.9-2.3-3.8-4.6-5.7-6.9c-1.9-2.3-3.7-4.6-5.6-7c-8.3-10.5-16.1-21.2-23.6-32.1c-1.6-2.4-3.3-4.9-4.9-7.3
		c-1.6-2.4-3.3-4.9-4.8-7.4c-3.1-5-6.1-9.9-9.2-14.9c-2.9-5.1-5.8-10.1-8.6-15.1c-1.5-2.5-2.8-5.1-4.1-7.6c-1.4-2.5-2.7-5.1-4-7.6
		c-10.5-20.4-19.8-41.2-27.9-62.1c-1.9-5.2-3.9-10.4-5.8-15.6l-1.4-3.8l-1.4-4c-0.9-2.6-1.8-5.3-2.7-7.9c-1.8-5.3-3.5-10.6-5.1-15.9
		c-1.6-5.3-3.1-10.7-4.6-16c-5.7-21.3-10.1-42.7-13.3-64c-1.6-10.6-2.8-21.3-3.8-31.9c-0.5-5.3-0.8-10.6-1.1-15.9
		c-0.2-5.2-0.5-10.5-0.7-15.7c-0.3-10.9,0-21.8,0.8-32.4c0.8-10.7,2.3-21.2,4.1-31.5c1.8-10.3,4.2-20.4,6.8-30.3
		c2.6-9.9,5.6-19.5,8.9-28.9c1.6-4.7,3.3-9.3,5-13.9c1.8-4.6,3.5-9.1,5.4-13.6c1.8-4.5,3.7-8.9,5.6-13.3c2-4.3,3.9-8.7,5.9-13
		c7.9-17.1,16.3-33.5,24.5-49.3c8.3-15.8,16.6-31.1,24.6-46.1c1-1.8,2-3.7,2.9-5.5l1.5-2.7l0.7-1.4l0.7-1.3
		c1.8-3.6,3.7-7.3,5.4-10.9c3.5-7.3,6.9-14.5,10-21.7c6.2-14.4,11.5-28.7,15.9-42.9c1.1-3.6,2.1-7.1,3.1-10.6c1-3.7,2-7.3,3-11
		c1.9-7.1,3.5-14.1,5-21.1c0.8-3.5,1.4-7,2-10.5c0.6-3.5,1.2-6.9,1.9-10.4c1-6.9,2.1-13.8,2.9-20.6c0.4-3.4,0.8-6.8,1.1-10.1
		c0.3-3.4,0.6-6.7,1-10c0.4-6.7,1-13.3,1.2-19.8c0.6-12.1,0.8-23.9,0.7-35.5c0-3.8-0.1-7.5-0.2-11.2c0,0,0,0,0,0
		c-0.1-5.6-0.3-11.1-0.6-16.5v0c-0.2-3.6-0.4-7.2-0.5-10.7c-0.1-1.4-0.2-2.9-0.3-4.3c-0.1-1.4-0.2-2.9-0.3-4.3
		c-0.2-2.8-0.4-5.7-0.6-8.4c-0.5-5.6-0.9-11-1.4-16.4c-0.3-2.7-0.5-5.3-0.8-8c-0.3-2.6-0.6-5.2-0.9-7.8c-0.6-5.2-1.2-10.1-1.8-14.9
		c-0.1-1.2-0.3-2.4-0.4-3.6c-0.2-1.1-0.4-2.2-0.6-3.2c-0.5-2.4-0.9-4.7-1.4-7c-1-4.6-1.9-9.1-2.9-13.5c-2-8.8-4.1-17.1-6.2-24.9
		c-0.5-2-1.1-3.9-1.6-5.8c-0.5-1.9-1.1-3.8-1.6-5.6c-0.5-1.8-1.1-3.7-1.6-5.4c-0.5-1.8-1.1-3.5-1.6-5.2c-0.4-1.1-0.7-2.2-1-3.2
		c-0.2-0.6-0.4-1.1-0.6-1.7c-0.6-1.6-1.1-3.3-1.6-4.8c-1.1-3.2-2.2-6.3-3.2-9.2c-4.2-11.8-7.9-21.8-10.9-29.9
		c-5.9-16.2-8.6-25.1-6.7-26.1c2-1.1,8.2,5.9,17.7,20.7c4.7,7.4,10.2,16.8,16.2,28.3c1.5,2.9,3,5.8,4.6,9c0.8,1.6,1.5,3.2,2.3,4.8
		c0.8,1.7,1.6,3.5,2.3,5.2c0.5,1.3,1.1,2.6,1.7,3.9c2.5,5.7,4.9,11.8,7.4,18.2c3,7.9,6,16.3,8.8,25.3c1.4,4.5,2.8,9.1,4.2,13.8
		c0.7,2.4,1.4,4.8,2,7.2c0.4,1.3,0.7,2.7,1.1,4.1c0.3,1.3,0.5,2.6,0.8,3.9c1,5.1,2.1,10.5,3,15.7c0.5,2.6,1,5.3,1.5,8
		c0.4,2.7,0.9,5.4,1.4,8.2c1,5.5,1.7,11.1,2.6,16.9c0.5,2.9,0.8,5.8,1.2,8.7c0.4,2.9,0.8,5.9,1.1,8.9c0.6,6,1.4,12.1,1.9,18.3
		c0.3,3.1,0.5,6.3,0.8,9.4c0.2,3.2,0.4,6.4,0.7,9.6c0.2,3.2,0.4,6.5,0.5,9.8c0.1,3.3,0.3,6.6,0.4,9.9c0.1,6.7,0.4,13.5,0.3,20.4
		c0.1,6.9-0.2,13.9-0.4,21.1c-0.2,3.6-0.4,7.2-0.5,10.8c-0.2,3.6-0.5,7.3-0.8,10.9c-0.5,7.3-1.4,14.8-2.2,22.3
		c-1.1,7.5-2,15.2-3.4,22.8c-1.3,7.7-2.9,15.4-4.7,23.3c-0.9,3.8-1.8,7.6-2.7,11.4c-1,4-2,7.9-3,11.9c-4.3,15.9-9.7,31.9-16,47.8
		c-3.2,8-6.5,15.9-10.1,23.8c-1.8,4-3.6,7.9-5.5,11.8l-0.8,1.6l-0.7,1.5l-1.5,2.9c-1,1.9-1.9,3.9-2.9,5.8
		c-7.7,15.3-15.5,30.8-23.3,46.5c-15.5,31.4-30.6,63.7-41.7,97.8c-11.1,34-17.8,69.8-16.1,106.3c0.3,4.8,0.6,9.6,0.9,14.5
		c0.3,4.8,0.7,9.5,1.2,14.3c1,9.6,2.3,19.3,3.8,28.9c3.1,19.3,7.4,38.8,12.8,58.1c1.4,4.8,2.8,9.7,4.3,14.4
		c1.5,4.8,3.1,9.6,4.8,14.4c0.8,2.4,1.7,4.8,2.6,7.2l1.3,3.6l1.4,3.8c1.8,4.8,3.7,9.7,5.5,14.6c7.7,19.2,16.3,38.1,26.2,56.7
		c1.2,2.3,2.5,4.6,3.7,6.9c1.3,2.3,2.5,4.7,3.8,6.9c2.7,4.6,5.3,9.1,8,13.7c2.8,4.5,5.6,9,8.5,13.5c1.4,2.3,2.9,4.4,4.4,6.7
		c1.5,2.2,3,4.4,4.5,6.6c12.2,17.5,25.5,34.5,39.9,50.7c1.8,2,3.7,4,5.5,6l2.8,3c0.9,1,1.8,2,2.8,3c3.8,3.9,7.6,7.8,11.5,11.7
		c4,3.8,7.9,7.5,11.9,11.3c2,1.9,4.1,3.7,6.1,5.5c2.1,1.8,4.1,3.6,6.2,5.4C1914,1314.2,1917,1316.6,1920,1319
		C1920,1319,1920,1319,1920,1319z"/>
</g>
<g id="Capa_2" class="st911">
</g>
<g id="Capa_4">
</g>
</svg>
