<?xml version="1.0" encoding="utf-8"?>
<!-- Generator: Adobe Illustrator 22.0.0, SVG Export Plug-In . SVG Version: 6.00 Build 0)  -->
<svg version="1.1" id="Capa_1" xmlns="http://www.w3.org/2000/svg" xmlns:xlink="http://www.w3.org/1999/xlink" x="0px" y="0px"
	 viewBox="0 0 194.5 190" style="enable-background:new 0 0 194.5 190;" xml:space="preserve">
<style type="text/css">
	.st0{fill:#6400DA;}
	.st1{fill:#FF6500;}
	.st2{fill:#FFFFFF;}
	.st3{fill:#FFD600;}
	.st4{fill:#005693;}
	.st5{fill:#34A836;}
	.st6{fill-rule:evenodd;clip-rule:evenodd;fill:#FFFFFF;}
	.st7{opacity:0.39;}
	.st8{fill:none;stroke:#FFFFFF;stroke-width:2.9784;stroke-linecap:round;stroke-linejoin:round;}
	.st9{fill:#C6433E;}
	.st10{fill:#E20613;}
	.st11{fill:#FCD570;}
	.st12{fill:#FCCD56;}
	.st13{fill:#F5BB41;}
	.st14{fill:#FDE19A;}
	.st15{fill:#FCD879;}
	.st16{fill:#FCD05E;}
	.st17{fill:#F6C55B;}
	.st18{fill:#F7B056;}
	.st19{fill:#F59B45;}
	.st20{fill-rule:evenodd;clip-rule:evenodd;fill:#FFC700;}
	.st21{fill:#F4EBC6;}
	.st22{fill:#B9B295;}
	.st23{fill:#0E0E0E;}
	.st24{fill:#884D30;}
	.st25{fill:#3F0D0B;}
	.st26{fill:#A86C0E;}
	.st27{fill:#F09915;}
	.st28{opacity:0.4;fill:#FFFFFF;}
	.st29{fill:#DCDDEE;}
	.st30{fill:#A5A3A9;}
	.st31{fill:#000922;}
	.st32{fill:#FFFFC7;}
	.st33{fill:#8BBFCB;}
	.st34{fill:#B3D5DD;}
	.st35{fill:#00AEEF;}
	.st36{fill:#008FEF;}
	.st37{fill:#4E82B0;}
	.st38{fill:#5A93B5;}
	.st39{fill:none;stroke:#003142;stroke-width:2.4444;stroke-miterlimit:10;}
	.st40{fill:#252D42;}
	.st41{fill:#00090C;}
	.st42{clip-path:url(#SVGID_2_);}
	.st43{fill:url(#SVGID_3_);}
	.st44{fill:url(#SVGID_4_);}
	.st45{fill:url(#SVGID_5_);}
	.st46{fill:url(#SVGID_6_);}
	.st47{fill:url(#SVGID_7_);}
	.st48{fill:url(#SVGID_8_);}
	.st49{fill:url(#SVGID_9_);}
	.st50{fill:url(#SVGID_10_);}
	.st51{fill:url(#SVGID_11_);}
	.st52{fill:url(#SVGID_12_);}
	.st53{fill:url(#SVGID_13_);}
	.st54{fill:url(#SVGID_14_);}
	.st55{fill:url(#SVGID_15_);}
	.st56{fill:url(#SVGID_16_);}
	.st57{fill:url(#SVGID_17_);}
	.st58{fill:url(#SVGID_18_);}
	.st59{fill:url(#SVGID_19_);}
	.st60{fill:#EBF3FA;}
	.st61{clip-path:url(#SVGID_2_);fill:url(#SVGID_20_);}
	.st62{fill:url(#SVGID_21_);}
	.st63{fill:url(#SVGID_22_);}
	.st64{fill:url(#SVGID_23_);}
	.st65{fill:url(#SVGID_24_);}
	.st66{clip-path:url(#SVGID_26_);}
	.st67{clip-path:url(#SVGID_28_);}
	.st68{clip-path:url(#SVGID_32_);}
	.st69{fill:#418421;}
	.st70{fill:#2D660E;}
	.st71{fill:#84D84E;}
	.st72{opacity:0.4;fill:#2D660E;}
	.st73{fill:#EDC174;}
	.st74{fill:#D8A34E;}
	.st75{fill:#C18733;}
	.st76{opacity:0.4;fill:#1B3D04;}
	.st77{fill:#6AC634;}
	.st78{fill:#245109;}
	.st79{fill:#D6854D;}
	.st80{fill:#BC6428;}
	.st81{fill:#492004;}
	.st82{fill:#66BC2E;}
	.st83{clip-path:url(#SVGID_32_);fill:#009CDD;}
	.st84{fill:#D8BF4C;}
	.st85{fill:#4BDDFD;}
	.st86{opacity:0.6;fill:#13BDE5;}
	.st87{opacity:0.5;fill:#FFEAC1;}
	.st88{opacity:0.7;fill:#FFEAC1;}
	.st89{fill:#FAFFDE;}
	.st90{opacity:0.2;}
	.st91{fill:#BF9D62;}
	.st92{clip-path:url(#SVGID_36_);}
	.st93{clip-path:url(#SVGID_40_);fill:none;}
	.st94{clip-path:url(#SVGID_44_);fill:url(#SVGID_45_);}
	.st95{clip-path:url(#SVGID_44_);fill:url(#SVGID_46_);}
	.st96{clip-path:url(#SVGID_44_);fill:#009CDD;}
	.st97{clip-path:url(#SVGID_44_);}
	.st98{fill:url(#SVGID_47_);}
	.st99{fill:url(#SVGID_48_);}
	.st100{fill:url(#SVGID_49_);}
	.st101{fill:url(#SVGID_50_);}
	.st102{fill:url(#SVGID_51_);}
	.st103{fill:url(#SVGID_52_);}
	.st104{fill:url(#SVGID_53_);}
	.st105{fill:url(#SVGID_54_);}
	.st106{fill:url(#SVGID_55_);}
	.st107{fill:url(#SVGID_56_);}
	.st108{fill:url(#SVGID_57_);}
	.st109{fill:url(#SVGID_58_);}
	.st110{fill:url(#SVGID_59_);}
	.st111{fill:url(#SVGID_60_);}
	.st112{fill:url(#SVGID_61_);}
	.st113{fill:url(#SVGID_62_);}
	.st114{fill:url(#SVGID_63_);}
	.st115{fill:url(#SVGID_64_);}
	.st116{fill:url(#SVGID_65_);}
	.st117{fill:url(#SVGID_66_);}
	.st118{fill:url(#SVGID_67_);}
	.st119{fill:url(#SVGID_68_);}
	.st120{fill:url(#SVGID_69_);}
	.st121{fill:url(#SVGID_70_);}
	.st122{fill:url(#SVGID_71_);}
	.st123{fill:url(#SVGID_72_);}
	.st124{fill:url(#SVGID_73_);}
	.st125{fill:url(#SVGID_74_);}
	.st126{fill:url(#SVGID_75_);}
	.st127{fill:url(#SVGID_76_);}
	.st128{fill:url(#SVGID_77_);}
	.st129{fill:url(#SVGID_78_);}
	.st130{fill:url(#SVGID_79_);}
	.st131{fill:url(#SVGID_80_);}
	.st132{fill:url(#SVGID_81_);}
	.st133{fill:url(#SVGID_82_);}
	.st134{fill:url(#SVGID_83_);}
	.st135{fill:url(#SVGID_84_);}
	.st136{fill:url(#SVGID_85_);}
	.st137{fill:url(#SVGID_86_);}
	.st138{fill:url(#SVGID_87_);}
	.st139{fill:#3B3637;}
	.st140{fill:none;stroke:#3B3637;stroke-width:3;stroke-miterlimit:10;}
	.st141{fill:url(#SVGID_88_);}
	.st142{fill:url(#SVGID_89_);}
	.st143{fill:url(#SVGID_92_);}
</style>

<g>
	<g>
		<defs>
			<path id="SVGID_41_" d="M99.2,3.9c-2.7,3.3-0.4,10.3,5.6,18.9C93.6,17.9,85,17,81.7,21c-0.8,0.9-1.3,2.1-1.4,3.5
				c-16-8.8-28.8-11.8-33.1-6.7c-3.8,4.5-0.2,14.5,8.6,26.6c-12.5-7.2-22.6-9.9-25.9-6c-3.1,3.7,0.7,12.5,9,22.9
				c-4.4-1-7.6-0.7-9.3,1.2c-1.6,1.9-1.4,5.2,0.4,9.3C17.1,64.3,6.6,61.4,3.3,65.4c-3.2,3.8,1,13.1,9.9,24c-3-0.3-5.3,0.2-6.5,1.7
				c-3.1,3.7,0.6,12.2,8.7,22.4c-1.6,0.3-3,1-3.9,2c-5.7,6.8,7.1,26.8,28.5,44.8c21.4,18,43.4,27.1,49.1,20.3
				c0.7-0.8,1.1-1.9,1.3-3.1c15.2,9.9,28.1,14.2,31.9,9.7c0.8-1,1.2-2.3,1.1-4c8.5,3.8,15,4.7,17.5,1.7c3.6-4.2-1.9-15.1-12.9-27.4
				c10.2,5.1,18.1,6.6,20.9,3.3c1.4-1.7,1.4-4.4,0.2-7.8c16.2,9,29.2,12.1,33.5,6.9c6.1-7.2-6.8-28.4-29.6-50.1
				c0.8-0.4,1.4-0.9,1.9-1.5c0.8-0.9,1.3-2.1,1.4-3.5c16,8.8,28.8,11.8,33.1,6.7c4.9-5.8-2.5-20.8-17.6-37.7
				c4.1,0.8,7.2,0.4,8.7-1.5c5.3-6.3-8.6-26.8-31.1-45.7C127,7.7,104.5-2.5,99.2,3.9z"/>
		</defs>
		<clipPath id="SVGID_4_">
			<use xlink:href="#SVGID_41_"  style="overflow:visible;"/>
		</clipPath>
	</g>
	<g>
		<defs>
			<path id="SVGID_43_" d="M99.2,3.9c-2.7,3.3-0.4,10.3,5.6,18.9C93.6,17.9,85,17,81.7,21c-0.8,0.9-1.3,2.1-1.4,3.5
				c-16-8.8-28.8-11.8-33.1-6.7c-3.8,4.5-0.2,14.5,8.6,26.6c-12.5-7.2-22.6-9.9-25.9-6c-3.1,3.7,0.7,12.5,9,22.9
				c-4.4-1-7.6-0.7-9.3,1.2c-1.6,1.9-1.4,5.2,0.4,9.3C17.1,64.3,6.6,61.4,3.3,65.4c-3.2,3.8,1,13.1,9.9,24c-3-0.3-5.3,0.2-6.5,1.7
				c-3.1,3.7,0.6,12.2,8.7,22.4c-1.6,0.3-3,1-3.9,2c-5.7,6.8,7.1,26.8,28.5,44.8c21.4,18,43.4,27.1,49.1,20.3
				c0.7-0.8,1.1-1.9,1.3-3.1c15.2,9.9,28.1,14.2,31.9,9.7c0.8-1,1.2-2.3,1.1-4c8.5,3.8,15,4.7,17.5,1.7c3.6-4.2-1.9-15.1-12.9-27.4
				c10.2,5.1,18.1,6.6,20.9,3.3c1.4-1.7,1.4-4.4,0.2-7.8c16.2,9,29.2,12.1,33.5,6.9c6.1-7.2-6.8-28.4-29.6-50.1
				c0.8-0.4,1.4-0.9,1.9-1.5c0.8-0.9,1.3-2.1,1.4-3.5c16,8.8,28.8,11.8,33.1,6.7c4.9-5.8-2.5-20.8-17.6-37.7
				c4.1,0.8,7.2,0.4,8.7-1.5c5.3-6.3-8.6-26.8-31.1-45.7C127,7.7,104.5-2.5,99.2,3.9z"/>
		</defs>
		<clipPath id="SVGID_5_">
			<use xlink:href="#SVGID_43_"  style="overflow:visible;"/>
		</clipPath>
		<linearGradient id="SVGID_6_" gradientUnits="userSpaceOnUse" x1="97.9217" y1="89.1764" x2="105.653" y2="195.3802">
			<stop  offset="1.027034e-07" style="stop-color:#FFFFFF;stop-opacity:0"/>
			<stop  offset="1" style="stop-color:#000000"/>
		</linearGradient>
		<ellipse style="clip-path:url(#SVGID_5_);fill:url(#SVGID_6_);" cx="103.5" cy="166.4" rx="107.4" ry="54.1"/>
		<linearGradient id="SVGID_7_" gradientUnits="userSpaceOnUse" x1="100.1839" y1="86.3969" x2="107.9152" y2="192.6007">
			<stop  offset="1.027034e-07" style="stop-color:#FFFFFF;stop-opacity:0"/>
			<stop  offset="1" style="stop-color:#000000"/>
		</linearGradient>
		<ellipse style="clip-path:url(#SVGID_5_);fill:url(#SVGID_7_);" cx="105.8" cy="163.6" rx="107.4" ry="54.1"/>
		<rect x="-46.6" y="24" style="clip-path:url(#SVGID_5_);fill:#009CDD;" width="252" height="129.5"/>
		<g style="clip-path:url(#SVGID_5_);">
			<g>
				
					<linearGradient id="SVGID_8_" gradientUnits="userSpaceOnUse" x1="-4273.0454" y1="-332.7155" x2="-4273.0454" y2="-275.1551" gradientTransform="matrix(-0.9808 -0.1952 -0.1952 0.9808 -4101.4775 -370.3703)">
					<stop  offset="0" style="stop-color:#7EBC64"/>
					<stop  offset="0.9925" style="stop-color:#459D75"/>
				</linearGradient>
				<path class="st48" d="M156.7,189.7c4.4-3.4,9.4-9.1,13.1-19.1c-13.9,5.9-18.8,14.2-18.8,14.2s8.8-11.5,13.2-33.7
					c-15.3,12.9-18.4,28.3-18.4,28.3s6.2-24.5,2.9-43.1c-11,17.9-12.8,46.8-12.8,46.8s1.9-14.6-7.5-24.5
					c-2.1,23.7,0.1,30.1,8.7,33.7C143.6,195,151.1,193.9,156.7,189.7z"/>
				
					<linearGradient id="SVGID_9_" gradientUnits="userSpaceOnUse" x1="-4294.7261" y1="-303.63" x2="-4251.3555" y2="-303.63" gradientTransform="matrix(-0.9808 -0.1952 -0.1952 0.9808 -4101.4775 -370.3703)">
					<stop  offset="7.500000e-03" style="stop-color:#1E9276"/>
					<stop  offset="1" style="stop-color:#00695F"/>
				</linearGradient>
				<path class="st49" d="M139.4,192.8c4.1-31.5,9-56.3,9.1-56.6l0.4,0.1c0,0.2-5,24.9-9,56.2c9.6-11.2,24-41.2,24.2-41.6l0.4,0.2
					c-0.1,0.3-14.8,30.9-24.4,41.9c12.7,3.2,29.5-22.3,29.7-22.5l0.3,0.2c-0.7,1.1-16.8,25.4-29.6,22.8c-0.2,0-0.5-0.1-0.7-0.2
					l-0.3,0.4l0.1-0.5c-9.5-3.4-11.1-33.4-11.2-34.7l0.4,0C128.6,158.8,130.2,189.4,139.4,192.8z"/>
			</g>
			<g>
				
					<linearGradient id="SVGID_10_" gradientUnits="userSpaceOnUse" x1="-4228.9141" y1="-292.8799" x2="-4228.9141" y2="-225.484" gradientTransform="matrix(-0.9817 -0.1902 -0.1902 0.9817 -4107.6265 -359.7133)">
					<stop  offset="7.500000e-03" style="stop-color:#1E9276"/>
					<stop  offset="1" style="stop-color:#00695F"/>
				</linearGradient>
				<path class="st50" d="M83.9,222.7c4.6,0.9,9.1-1.6,10.9-6c2.1-5.4,6.3-12.6,14.2-17.9c14.3-9.7,2.4-20.8-9.6-9.1
					c10.2-27.4-5.2-39.4-15.6-32.4c-10.4,7.1,6.2,28.3,1,46.6c-4.6-19.7-20-9.3-14-0.4c3,4.5,4.8,9,5.8,12.3
					C77.5,219.4,80.3,222,83.9,222.7L83.9,222.7z"/>
				
					<linearGradient id="SVGID_11_" gradientUnits="userSpaceOnUse" x1="-4250.9077" y1="-258.4092" x2="-4206.9209" y2="-258.4092" gradientTransform="matrix(-0.9817 -0.1902 -0.1902 0.9817 -4107.6265 -359.7133)">
					<stop  offset="0" style="stop-color:#7EBC64"/>
					<stop  offset="0.9925" style="stop-color:#459D75"/>
				</linearGradient>
				<path class="st51" d="M69.3,198.1l0.3-0.3c0.1,0.1,8.9,9.2,13.9,23.1c-0.7-4.9-3.3-18.8-11.8-26.7l0.3-0.3
					c8.2,7.6,11,20.7,11.8,26.2c0-6-0.8-20.9-9.1-27.2l0.2-0.3c7.7,5.7,9.1,18.8,9.2,25.6c0.4-4.2,0.8-10.4,0.3-14.3l0.4,0
					c0.5,4.4,0,11.9-0.4,15.9c1.3-5.3,3.8-17.6,3.7-30.7c-0.1-17.3-6.2-30.2-6.3-30.3l0.4-0.2c0.1,0.1,6.2,13.1,6.3,30.5
					c0,9.7-1.3,19-2.6,25.4c1.4-5.4,3.5-13.6,6-25.2c5.1-23.1-6.9-32.6-7-32.7l0.2-0.3c0.1,0.1,12.4,9.7,7.2,33.1
					c-3.5,15.6-6,25.2-7.3,29.8c3.2-8,11.3-28.7,13.2-42.6c2.3-17.3-7.2-21-7.3-21l0.1-0.4c0.1,0,9.9,3.8,7.6,21.5
					c-1.6,12-7.8,29.2-11.6,38.8c0-0.1,0.1-0.2,0.1-0.2l12-25.6l0.4,0.2l-9.6,20.6c11.6-19.4,24.7-23.4,24.8-23.5l0.1,0.4
					c-0.2,0-15.1,4.7-27.3,28.1l-1.7,3.6c4.3-6.9,15.1-22.1,29.4-28.1l0.2,0.4c-15.4,6.4-26.7,23.6-30.2,29.5
					c2.4-2.8,7.4-8.1,13.3-11.6l0.2,0.3c-7.7,4.6-14,12.5-14.6,13.2l0.1,1.6l-0.3-1l-0.3,1l0-0.6l-0.1,0.2l0.1-1.2
					c-3.8-7.2-10.1-13.7-10.2-13.7l0.3-0.3c0.1,0.1,5.3,5.5,9.2,11.9C77.9,207,69.4,198.2,69.3,198.1z"/>
			</g>
			<g>
				<g>
					
						<linearGradient id="SVGID_12_" gradientUnits="userSpaceOnUse" x1="-4029.3049" y1="105.3997" x2="-4029.3049" y2="105.5835" gradientTransform="matrix(-1 0 0 1 -4006.1909 0)">
						<stop  offset="7.500000e-03" style="stop-color:#1E9276"/>
						<stop  offset="1" style="stop-color:#00695F"/>
					</linearGradient>
					<path class="st52" d="M23.1,105.5c0.1,0,0.2-0.1,0.3-0.1v0.2l-0.5-0.2C22.9,105.4,23,105.5,23.1,105.5z"/>
					
						<linearGradient id="SVGID_13_" gradientUnits="userSpaceOnUse" x1="-4029.3049" y1="113.2988" x2="-4029.3049" y2="205.4126" gradientTransform="matrix(-1 0 0 1 -4006.1909 0)">
						<stop  offset="7.500000e-03" style="stop-color:#1E9276"/>
						<stop  offset="1" style="stop-color:#00695F"/>
					</linearGradient>
					<path class="st53" d="M1.5,166.7c2.5-14,11-16.2,2.9-28.8c-1.8-2.8-1.9-6.2-0.8-9.8c5.6-19.9,34.2-19.7,39.3,0.3
						c0.9,3.5,0.7,6.8-1,9.5c-8,12.6,0.4,14.8,2.9,28.8c2.5,14-8.4,9.2-8.4,17.4c0,8.2,5.7,13.9,0,19.6c-1.3,1.3-3.1,1.8-5,1.7
						c-5.5-0.2-11-0.2-16.5,0c-1.9,0.1-3.6-0.4-5-1.7c-5.7-5.7,0-11.4,0-19.6C9.9,175.9-1.1,180.7,1.5,166.7z"/>
				</g>
				
					<linearGradient id="SVGID_14_" gradientUnits="userSpaceOnUse" x1="-4049.3755" y1="159.3557" x2="-4009.238" y2="159.3557" gradientTransform="matrix(-1 0 0 1 -4006.1909 0)">
					<stop  offset="0" style="stop-color:#7EBC64"/>
					<stop  offset="0.9925" style="stop-color:#459D75"/>
				</linearGradient>
				<polygon class="st54" points="23.8,186 36.8,181.1 37,181.5 23.8,186.5 23.8,199.1 38.3,194.1 38.4,194.5 23.8,199.6 
					23.8,205.4 23.4,205.4 23.4,199.6 7.7,195 7.8,194.6 23.4,199.2 23.4,186.5 9.2,181.5 9.4,181.1 23.4,186 23.4,168 3,160.8 
					3.2,160.4 23.4,167.6 23.4,151.3 7.6,146.1 7.8,145.7 23.4,150.8 23.4,134.2 4.1,126.6 4.2,126.2 23.4,133.8 23.4,120.4 
					15,115.1 15.2,114.7 23.4,119.9 23.4,113.3 23.8,113.3 23.8,119.9 32,115 32.2,115.4 23.8,120.4 23.8,133.8 42.2,126.5 
					42.4,126.9 23.8,134.3 23.8,150.8 38.4,146.3 38.5,146.7 23.8,151.3 23.8,167.6 43,160.4 43.2,160.8 23.8,168 				"/>
			</g>
			<g>
				
					<linearGradient id="SVGID_15_" gradientUnits="userSpaceOnUse" x1="-4200.0957" y1="-492.5964" x2="-4200.0957" y2="-431.1457" gradientTransform="matrix(-0.9654 -0.2609 -0.2609 0.9654 -4139.0146 -475.7531)">
					<stop  offset="0" style="stop-color:#7EBC64"/>
					<stop  offset="0.9925" style="stop-color:#459D75"/>
				</linearGradient>
				<path class="st55" d="M28.6,164.3c6.3-7.3,3.4-14.9,9-18.7c4.1-2.8,9.8-1.2,12,3.2c2.9,6.1-3.4,11.2-1.7,20.7
					c2.2,12.1-5.7,11.2-5.6,22.5c0.1,11.3-7.8,12.8-7.8,12.8c-4.2-0.2-8.3-1.3-12.1-3.3h0c0,0-6-5.2-0.3-15
					C27.9,176.8,20.5,173.7,28.6,164.3z"/>
				
					<linearGradient id="SVGID_16_" gradientUnits="userSpaceOnUse" x1="-4212.0264" y1="-461.8711" x2="-4188.5059" y2="-461.8711" gradientTransform="matrix(-0.9654 -0.2609 -0.2609 0.9654 -4139.0146 -475.7531)">
					<stop  offset="7.500000e-03" style="stop-color:#1E9276"/>
					<stop  offset="1" style="stop-color:#00695F"/>
				</linearGradient>
				<polygon class="st56" points="24.4,173.8 24.6,173.5 34.1,181.5 36,174.2 27.3,165.9 27.6,165.6 36.2,173.8 38,167 30.9,160.8 
					31.2,160.5 38.1,166.5 40.1,159.1 33.3,153.3 33.6,153 40.2,158.7 41.7,153.1 35.6,147.5 35.9,147.2 41.9,152.7 44.1,144.4 
					44.5,144.6 43,149.9 49.5,148.7 49.6,149 42.9,150.4 41.5,155.6 49.7,155.5 49.7,155.9 41.4,156 39.6,162.5 47.9,162.3 
					47.9,162.7 39.5,162.9 37.5,170.3 47.8,169.3 47.9,169.7 37.4,170.7 35.5,177.7 47.9,176.1 48,176.5 35.4,178.1 33.6,184.9 
					44.2,183.6 44.2,184 33.4,185.3 31.4,193.1 42.2,191.8 42.3,192.2 31.2,193.5 29.4,200.4 41.1,198.4 41.2,198.8 29.2,200.9 
					28.4,203.9 28.1,203.8 29.7,197.5 20.4,190.1 20.6,189.8 29.8,197.1 31.7,190.1 23.6,183.2 23.9,182.9 31.9,189.7 34,181.9 				
					"/>
			</g>
			<g>
				
					<linearGradient id="SVGID_17_" gradientUnits="userSpaceOnUse" x1="-4378.1899" y1="140.5684" x2="-4013.9822" y2="140.5684" gradientTransform="matrix(-1 0 0 1 -4006.1909 0)">
					<stop  offset="7.500000e-03" style="stop-color:#FFFFFF"/>
					<stop  offset="1" style="stop-color:#B0EEE8"/>
				</linearGradient>
				<path class="st57" d="M7.9,138.2c11.3,0,22.6,1.9,33.3,5.6c7.9,2.7,14.9,5.8,21.3,9c52.2,5.8,89,18.8,121.8,26.7v-49.1
					c-16-17.1-42.1-26.5-70-3.2c-35,29.2-40.8-25.6-106.5-25.6c0,18.5,0,34.5,0,48.2c0,0,0.1,0,0.1,0C7.9,146,7.9,142.1,7.9,138.2z"
					/>
				
					<linearGradient id="SVGID_18_" gradientUnits="userSpaceOnUse" x1="-4378.1899" y1="171.6156" x2="-4013.9822" y2="171.6156" gradientTransform="matrix(-1 0 0 1 -4006.1909 0)">
					<stop  offset="7.500000e-03" style="stop-color:#FFFFFF"/>
					<stop  offset="1" style="stop-color:#B0EEE8"/>
				</linearGradient>
				<path class="st58" d="M184.4,179.5c-32.8-7.9-69.6-20.9-121.8-26.7c33.2,16.6,52.6,37.1,121.8,37.7V179.5z"/>
				
					<linearGradient id="SVGID_19_" gradientUnits="userSpaceOnUse" x1="-4131.8838" y1="148.4801" x2="-4122.0898" y2="248.459" gradientTransform="matrix(-1 0 0 1 -4006.1909 0)">
					<stop  offset="0" style="stop-color:#7EBC64"/>
					<stop  offset="0.9925" style="stop-color:#B8D74B"/>
				</linearGradient>
				<path class="st59" d="M184.4,179.5c-32.8-7.9-69.6-20.9-121.8-26.7c33.2,16.6,52.6,37.1,121.8,37.7V179.5z"/>
				
					<linearGradient id="SVGID_20_" gradientUnits="userSpaceOnUse" x1="-4378.1899" y1="188.9377" x2="-4013.9822" y2="188.9377" gradientTransform="matrix(-1 0 0 1 -4006.1909 0)">
					<stop  offset="7.500000e-03" style="stop-color:#FFFFFF"/>
					<stop  offset="1" style="stop-color:#B0EEE8"/>
				</linearGradient>
				<path style="fill:url(#SVGID_20_);" d="M7.9,172.4c0-7.3,0-14.8,0-22.6c0,0-0.1,0-0.1,0c0,61.9,0,78.3,0,78.3h0.1
					C7.9,215.2,7.9,195.5,7.9,172.4z"/>
				
					<linearGradient id="SVGID_21_" gradientUnits="userSpaceOnUse" x1="-4019.0745" y1="137.4294" x2="-4009.2805" y2="237.4083" gradientTransform="matrix(-1 0 0 1 -4006.1909 0)">
					<stop  offset="0" style="stop-color:#7EBC64"/>
					<stop  offset="0.9925" style="stop-color:#B8D74B"/>
				</linearGradient>
				<path class="st62" d="M7.9,172.4c0-7.3,0-14.8,0-22.6c0,0-0.1,0-0.1,0c0,61.9,0,78.3,0,78.3h0.1C7.9,215.2,7.9,195.5,7.9,172.4z
					"/>
				
					<linearGradient id="SVGID_22_" gradientUnits="userSpaceOnUse" x1="-4378.1899" y1="145.4757" x2="-4013.9822" y2="145.4757" gradientTransform="matrix(-1 0 0 1 -4006.1909 0)">
					<stop  offset="7.500000e-03" style="stop-color:#FFFFFF"/>
					<stop  offset="1" style="stop-color:#B0EEE8"/>
				</linearGradient>
				<path class="st63" d="M41.2,143.8c-10.7-3.7-22-5.6-33.3-5.6c0,3.9,0,7.8,0,11.6c20,0,38.1,1.1,54.6,3
					C56.1,149.6,49.1,146.5,41.2,143.8z"/>
				
					<linearGradient id="SVGID_23_" gradientUnits="userSpaceOnUse" x1="-4042.4365" y1="134.7312" x2="-4032.1863" y2="239.37" gradientTransform="matrix(-1 0 0 1 -4006.1909 0)">
					<stop  offset="0" style="stop-color:#7EBC64"/>
					<stop  offset="0.9925" style="stop-color:#459D75"/>
				</linearGradient>
				<path class="st64" d="M41.2,143.8c-10.7-3.7-22-5.6-33.3-5.6c0,3.9,0,7.8,0,11.6c20,0,38.1,1.1,54.6,3
					C56.1,149.6,49.1,146.5,41.2,143.8z"/>
				
					<linearGradient id="SVGID_24_" gradientUnits="userSpaceOnUse" x1="-4378.1899" y1="188.938" x2="-4013.9822" y2="188.938" gradientTransform="matrix(-1 0 0 1 -4006.1909 0)">
					<stop  offset="7.500000e-03" style="stop-color:#FFFFFF"/>
					<stop  offset="1" style="stop-color:#B0EEE8"/>
				</linearGradient>
				<path class="st65" d="M184.4,190.4c-69.2-0.6-88.6-21.1-121.8-37.7c-16.5-1.8-34.6-3-54.6-3c0,7.8,0,15.4,0,22.6
					c48.6,37,92.7,52.3,131.9,55.6h34.5c3.4-0.3,6.8-0.6,10.1-1.1V190.4z"/>
				
					<linearGradient id="SVGID_26_" gradientUnits="userSpaceOnUse" x1="-4106.4634" y1="145.9899" x2="-4096.6694" y2="245.9688" gradientTransform="matrix(-1 0 0 1 -4006.1909 0)">
					<stop  offset="0" style="stop-color:#7EBC64"/>
					<stop  offset="0.9925" style="stop-color:#B8D74B"/>
				</linearGradient>
				<path style="fill:url(#SVGID_26_);" d="M184.4,190.4c-69.2-0.6-88.6-21.1-121.8-37.7c-16.5-1.8-34.6-3-54.6-3
					c0,7.8,0,15.4,0,22.6c48.6,37,92.7,52.3,131.9,55.6h34.5c3.4-0.3,6.8-0.6,10.1-1.1V190.4z"/>
				
					<linearGradient id="SVGID_28_" gradientUnits="userSpaceOnUse" x1="-4106.9473" y1="141.0506" x2="-4096.6968" y2="245.6894" gradientTransform="matrix(-1 0 0 1 -4006.1909 0)">
					<stop  offset="0" style="stop-color:#7EBC64"/>
					<stop  offset="0.9925" style="stop-color:#459D75"/>
				</linearGradient>
				<path style="fill:url(#SVGID_28_);" d="M184.4,190.4c-69.2-0.6-88.6-21.1-121.8-37.7c-16.5-1.8-34.6-3-54.6-3
					c0,7.8,0,15.4,0,22.6c48.6,37,92.7,52.3,131.9,55.6h34.5c3.4-0.3,6.8-0.6,10.1-1.1V190.4z"/>
				
					<linearGradient id="SVGID_30_" gradientUnits="userSpaceOnUse" x1="-4378.1899" y1="200.2483" x2="-4013.9822" y2="200.2483" gradientTransform="matrix(-1 0 0 1 -4006.1909 0)">
					<stop  offset="7.500000e-03" style="stop-color:#FFFFFF"/>
					<stop  offset="1" style="stop-color:#B0EEE8"/>
				</linearGradient>
				<path style="fill:url(#SVGID_30_);" d="M7.9,228.1h131.9c-39.2-3.3-83.2-18.6-131.9-55.6C7.9,195.5,7.9,215.2,7.9,228.1z"/>
				
					<linearGradient id="SVGID_32_" gradientUnits="userSpaceOnUse" x1="-4085.5364" y1="143.9399" x2="-4075.7424" y2="243.9189" gradientTransform="matrix(-1 0 0 1 -4006.1909 0)">
					<stop  offset="0" style="stop-color:#7EBC64"/>
					<stop  offset="0.9925" style="stop-color:#B8D74B"/>
				</linearGradient>
				<path style="fill:url(#SVGID_32_);" d="M7.9,228.1h131.9c-39.2-3.3-83.2-18.6-131.9-55.6C7.9,195.5,7.9,215.2,7.9,228.1z"/>
				
					<linearGradient id="SVGID_34_" gradientUnits="userSpaceOnUse" x1="-4086.02" y1="139.0006" x2="-4075.7698" y2="243.6394" gradientTransform="matrix(-1 0 0 1 -4006.1909 0)">
					<stop  offset="0" style="stop-color:#7EBC64"/>
					<stop  offset="0.9925" style="stop-color:#459D75"/>
				</linearGradient>
				<path style="fill:url(#SVGID_34_);" d="M7.9,228.1h131.9c-39.2-3.3-83.2-18.6-131.9-55.6C7.9,195.5,7.9,215.2,7.9,228.1z"/>
				
					<linearGradient id="SVGID_36_" gradientUnits="userSpaceOnUse" x1="-4084.3413" y1="156.1393" x2="-4075.6777" y2="244.5794" gradientTransform="matrix(-1 0 0 1 -4006.1909 0)">
					<stop  offset="7.500000e-03" style="stop-color:#1E9276"/>
					<stop  offset="1" style="stop-color:#00695F"/>
				</linearGradient>
				<path style="fill:url(#SVGID_36_);" d="M7.9,228.1h131.9c-39.2-3.3-83.2-18.6-131.9-55.6C7.9,195.5,7.9,215.2,7.9,228.1z"/>
			</g>
			<g>
				
					<linearGradient id="SVGID_38_" gradientUnits="userSpaceOnUse" x1="112.9949" y1="-2442.4529" x2="162.0536" y2="-2325.2568" gradientTransform="matrix(1.0507 -0.2124 -0.1981 -0.9802 -516.5008 -2246.5967)">
					<stop  offset="0" style="stop-color:#7EBC64"/>
					<stop  offset="0.9925" style="stop-color:#459D75"/>
				</linearGradient>
				<path style="fill:url(#SVGID_38_);" d="M68,38.1c0,0-43.4,13.9-47.5,31.8S40.6,92.3,57.2,91c16.7-1.2,24.9,20.9,52.3,20.5
					c18.2-0.3,30.6-4.4,37.3-17.3c5-9.7,11.9-18.6,20.7-25.6C190.7,50,199.7-1.7,68,38.1z"/>
				<path class="st139" d="M80.4,59.5c0,0,2.1,20.8-7,47.6S70.6,178,76,212c5.3,22.8-27.4,28.8-29.1,8.4
					c-2.7-59.8-3.7-83.8,6.1-107.8c9.8-24,9-56.1,9-56.1L80.4,59.5z"/>
				<g>
					<path class="st140" d="M112,60.4c0,0-4.2,39.3-45.3,39.3"/>
					<path class="st140" d="M131.2,65c0,0-11.2,15-26.5,15"/>
					<path class="st140" d="M96.1,55.9c0,0-1,27.1-22.1,27.1"/>
					<path class="st140" d="M45.1,60.4c0,0,0.7,13.4,17.8,13.4"/>
					<path class="st140" d="M62.1,90.1c0,0-21.1,4.5-42-16.4"/>
					<path class="st140" d="M41,73.7c0,0,5.4,5,10,16.4"/>
					<path class="st140" d="M43.3,88.4c0,0-7.8,10.8-23.8,1.8"/>
					<path class="st140" d="M89.4,95.4c0,0,18.7,13.3,49.9-7"/>
				</g>
				
					<linearGradient id="SVGID_40_" gradientUnits="userSpaceOnUse" x1="-4177.4805" y1="-20.7924" x2="-3991.3171" y2="80.8066" gradientTransform="matrix(-1 0 0 1 -4006.1909 0)">
					<stop  offset="7.500000e-03" style="stop-color:#B8D74B"/>
					<stop  offset="1" style="stop-color:#7EBC64"/>
				</linearGradient>
				<path style="fill:url(#SVGID_40_);" d="M187.4,8.7c0,0,18.6,51.6-45.2,57.9C78.4,73.1,73.9,35,39.1,83.7
					c-22.7,31.7-61.6-17-61.6-17V5.9c0,0,48.4-5.1,115.9-3.6c9.8,0.2,22.4-4,32.9-3.4C146.5-0.1,165.4,6.1,187.4,8.7z"/>
				
					<linearGradient id="SVGID_42_" gradientUnits="userSpaceOnUse" x1="-4180.2788" y1="77.7877" x2="-4126.8696" y2="77.7877" gradientTransform="matrix(-1 0 0 1 -4006.1909 0)">
					<stop  offset="7.500000e-03" style="stop-color:#B8D74B"/>
					<stop  offset="1" style="stop-color:#7EBC64"/>
				</linearGradient>
				<path style="fill:url(#SVGID_42_);" d="M145.3,61.2c0,0,33.7-0.8,28.1,19.4c-5.5,20.1-41.2,14.3-48.7,6.8
					C117.3,80,117.8,63.3,145.3,61.2z"/>
			</g>
		</g>
	</g>
	<g>
		<defs>
			<path id="SVGID_90_" d="M99.2,3.9c-2.7,3.3-0.4,10.3,5.6,18.9C93.6,17.9,85,17,81.7,21c-0.8,0.9-1.3,2.1-1.4,3.5
				c-16-8.8-28.8-11.8-33.1-6.7c-3.8,4.5-0.2,14.5,8.6,26.6c-12.5-7.2-22.6-9.9-25.9-6c-3.1,3.7,0.7,12.5,9,22.9
				c-4.4-1-7.6-0.7-9.3,1.2c-1.6,1.9-1.4,5.2,0.4,9.3C17.1,64.3,6.6,61.4,3.3,65.4c-3.2,3.8,1,13.1,9.9,24c-3-0.3-5.3,0.2-6.5,1.7
				c-3.1,3.7,0.6,12.2,8.7,22.4c-1.6,0.3-3,1-3.9,2c-5.7,6.8,7.1,26.8,28.5,44.8c21.4,18,43.4,27.1,49.1,20.3
				c0.7-0.8,1.1-1.9,1.3-3.1c15.2,9.9,28.1,14.2,31.9,9.7c0.8-1,1.2-2.3,1.1-4c8.5,3.8,15,4.7,17.5,1.7c3.6-4.2-1.9-15.1-12.9-27.4
				c10.2,5.1,18.1,6.6,20.9,3.3c1.4-1.7,1.4-4.4,0.2-7.8c16.2,9,29.2,12.1,33.5,6.9c6.1-7.2-6.8-28.4-29.6-50.1
				c0.8-0.4,1.4-0.9,1.9-1.5c0.8-0.9,1.3-2.1,1.4-3.5c16,8.8,28.8,11.8,33.1,6.7c4.9-5.8-2.5-20.8-17.6-37.7
				c4.1,0.8,7.2,0.4,8.7-1.5c5.3-6.3-8.6-26.8-31.1-45.7C127,7.7,104.5-2.5,99.2,3.9z"/>
		</defs>
		<clipPath id="SVGID_44_">
			<use xlink:href="#SVGID_90_"  style="overflow:visible;"/>
		</clipPath>
	</g>
</g>
<linearGradient id="SVGID_45_" gradientUnits="userSpaceOnUse" x1="-4197.3477" y1="77.7877" x2="-4126.9932" y2="77.7877" gradientTransform="matrix(-1 0 0 1 -4006.1909 0)">
	<stop  offset="7.500000e-03" style="stop-color:#B8D74B"/>
	<stop  offset="1" style="stop-color:#7EBC64"/>
</linearGradient>
<path style="fill:url(#SVGID_45_);" d="M153.3,61.2c0,0,44.3-0.8,37.1,19.4c-7.3,20.1-54.3,14.3-64.1,6.8S117,63.3,153.3,61.2z"/>
</svg>
