<?xml version="1.0" encoding="utf-8"?>
<!-- Generator: Adobe Illustrator 22.0.0, SVG Export Plug-In . SVG Version: 6.00 Build 0)  -->
<svg version="1.1" id="Capa_1" xmlns="http://www.w3.org/2000/svg" xmlns:xlink="http://www.w3.org/1999/xlink" x="0px" y="0px"
	 viewBox="0 0 201.5 190" style="enable-background:new 0 0 201.5 190;" xml:space="preserve">
<style type="text/css">
	.st0{fill:#6400DA;}
	.st1{fill:#FF6500;}
	.st2{fill:#FFFFFF;}
	.st3{fill:#FFD600;}
	.st4{fill:#005693;}
	.st5{fill:#34A836;}
	.st6{fill-rule:evenodd;clip-rule:evenodd;fill:#FFFFFF;}
	.st7{opacity:0.39;}
	.st8{fill:none;stroke:#FFFFFF;stroke-width:2.9784;stroke-linecap:round;stroke-linejoin:round;}
	.st9{fill:#C6433E;}
	.st10{fill:#E20613;}
	.st11{fill:#FCD570;}
	.st12{fill:#FCCD56;}
	.st13{fill:#F5BB41;}
	.st14{fill:#FDE19A;}
	.st15{fill:#FCD879;}
	.st16{fill:#FCD05E;}
	.st17{fill:#F6C55B;}
	.st18{fill:#F7B056;}
	.st19{fill:#F59B45;}
	.st20{fill-rule:evenodd;clip-rule:evenodd;fill:#FFC700;}
	.st21{fill:#F4EBC6;}
	.st22{fill:#B9B295;}
	.st23{fill:#0E0E0E;}
	.st24{fill:#884D30;}
	.st25{fill:#3F0D0B;}
	.st26{fill:#A86C0E;}
	.st27{fill:#F09915;}
	.st28{opacity:0.4;fill:#FFFFFF;}
	.st29{fill:#DCDDEE;}
	.st30{fill:#A5A3A9;}
	.st31{fill:#000922;}
	.st32{fill:#FFFFC7;}
	.st33{fill:#8BBFCB;}
	.st34{fill:#B3D5DD;}
	.st35{fill:#00AEEF;}
	.st36{fill:#008FEF;}
	.st37{fill:#4E82B0;}
	.st38{fill:#5A93B5;}
	.st39{fill:none;stroke:#003142;stroke-width:2.4444;stroke-miterlimit:10;}
	.st40{fill:#252D42;}
	.st41{fill:#00090C;}
	.st42{clip-path:url(#SVGID_2_);}
	.st43{fill:url(#SVGID_3_);}
	.st44{fill:url(#SVGID_4_);}
	.st45{fill:url(#SVGID_5_);}
	.st46{fill:url(#SVGID_6_);}
	.st47{fill:url(#SVGID_7_);}
	.st48{fill:url(#SVGID_8_);}
	.st49{fill:url(#SVGID_9_);}
	.st50{fill:url(#SVGID_10_);}
	.st51{fill:url(#SVGID_11_);}
	.st52{fill:url(#SVGID_12_);}
	.st53{fill:url(#SVGID_13_);}
	.st54{fill:url(#SVGID_14_);}
	.st55{fill:url(#SVGID_15_);}
	.st56{fill:url(#SVGID_16_);}
	.st57{fill:url(#SVGID_17_);}
	.st58{fill:url(#SVGID_18_);}
	.st59{fill:url(#SVGID_19_);}
	.st60{fill:#EBF3FA;}
	.st61{clip-path:url(#SVGID_2_);fill:url(#SVGID_20_);}
	.st62{fill:url(#SVGID_21_);}
	.st63{fill:url(#SVGID_22_);}
	.st64{fill:url(#SVGID_23_);}
	.st65{fill:url(#SVGID_24_);}
	.st66{clip-path:url(#SVGID_26_);}
	.st67{clip-path:url(#SVGID_28_);}
	.st68{clip-path:url(#SVGID_32_);}
	.st69{fill:#418421;}
	.st70{fill:#2D660E;}
	.st71{fill:#84D84E;}
	.st72{opacity:0.4;fill:#2D660E;}
	.st73{fill:#EDC174;}
	.st74{fill:#D8A34E;}
	.st75{fill:#C18733;}
	.st76{opacity:0.4;fill:#1B3D04;}
	.st77{fill:#6AC634;}
	.st78{fill:#245109;}
	.st79{fill:#D6854D;}
	.st80{fill:#BC6428;}
	.st81{fill:#492004;}
	.st82{fill:#66BC2E;}
	.st83{clip-path:url(#SVGID_32_);fill:#009CDD;}
	.st84{fill:#D8BF4C;}
	.st85{fill:#4BDDFD;}
	.st86{opacity:0.6;fill:#13BDE5;}
	.st87{opacity:0.5;fill:#FFEAC1;}
	.st88{opacity:0.7;fill:#FFEAC1;}
	.st89{fill:#FAFFDE;}
	.st90{opacity:0.2;}
	.st91{fill:#BF9D62;}
	.st92{clip-path:url(#SVGID_36_);}
	.st93{clip-path:url(#SVGID_40_);fill:none;}
	.st94{clip-path:url(#SVGID_44_);fill:url(#SVGID_45_);}
	.st95{clip-path:url(#SVGID_44_);fill:url(#SVGID_46_);}
	.st96{clip-path:url(#SVGID_44_);fill:#009CDD;}
	.st97{clip-path:url(#SVGID_44_);}
	.st98{fill:url(#SVGID_47_);}
	.st99{fill:url(#SVGID_48_);}
	.st100{fill:url(#SVGID_49_);}
	.st101{fill:url(#SVGID_50_);}
	.st102{fill:url(#SVGID_51_);}
	.st103{fill:url(#SVGID_52_);}
	.st104{fill:url(#SVGID_53_);}
	.st105{fill:url(#SVGID_54_);}
	.st106{fill:url(#SVGID_55_);}
	.st107{fill:url(#SVGID_56_);}
	.st108{fill:url(#SVGID_57_);}
	.st109{fill:url(#SVGID_58_);}
	.st110{fill:url(#SVGID_59_);}
	.st111{fill:url(#SVGID_60_);}
	.st112{fill:url(#SVGID_61_);}
	.st113{fill:url(#SVGID_62_);}
	.st114{fill:url(#SVGID_63_);}
	.st115{fill:url(#SVGID_64_);}
	.st116{fill:url(#SVGID_65_);}
	.st117{fill:url(#SVGID_66_);}
	.st118{fill:url(#SVGID_67_);}
	.st119{fill:url(#SVGID_68_);}
	.st120{fill:url(#SVGID_69_);}
	.st121{fill:url(#SVGID_70_);}
	.st122{fill:url(#SVGID_71_);}
	.st123{fill:url(#SVGID_72_);}
	.st124{fill:url(#SVGID_73_);}
	.st125{fill:url(#SVGID_74_);}
	.st126{fill:url(#SVGID_75_);}
	.st127{fill:url(#SVGID_76_);}
	.st128{fill:url(#SVGID_77_);}
	.st129{fill:url(#SVGID_78_);}
	.st130{fill:url(#SVGID_79_);}
	.st131{fill:url(#SVGID_80_);}
	.st132{fill:url(#SVGID_81_);}
	.st133{fill:url(#SVGID_82_);}
	.st134{fill:url(#SVGID_83_);}
	.st135{fill:url(#SVGID_84_);}
	.st136{fill:url(#SVGID_85_);}
	.st137{fill:url(#SVGID_86_);}
	.st138{fill:url(#SVGID_87_);}
	.st139{fill:#3B3637;}
	.st140{fill:none;stroke:#3B3637;stroke-width:3;stroke-miterlimit:10;}
	.st141{fill:url(#SVGID_88_);}
	.st142{fill:url(#SVGID_89_);}
	.st143{fill:url(#SVGID_92_);}
</style>
<g>
	<g>
		<defs>
			<path id="SVGID_1_" d="M99.2,3.4c-2.7,3.3-0.4,10.3,5.6,18.9c-11.2-4.8-19.8-5.8-23.1-1.8c-0.8,0.9-1.3,2.1-1.4,3.5
				c-16-8.8-28.8-11.8-33.1-6.7c-3.8,4.5-0.2,14.5,8.6,26.6c-12.5-7.2-22.6-9.9-25.9-6c-3.1,3.7,0.7,12.5,9,22.9
				c-4.4-1-7.6-0.7-9.3,1.2c-1.6,1.9-1.4,5.2,0.4,9.3C17.1,63.8,6.6,60.9,3.2,64.9c-3.2,3.8,1,13.1,9.9,24c-3-0.3-5.3,0.2-6.5,1.7
				c-3.1,3.7,0.6,12.2,8.7,22.4c-1.6,0.3-3,1-3.9,2c-5.7,6.8,7.1,26.8,28.5,44.8c21.4,18,43.4,27.1,49.1,20.3
				c0.7-0.8,1.1-1.9,1.3-3.1c15.2,9.9,28.1,14.2,31.9,9.7c0.8-1,1.2-2.3,1.1-4c8.5,3.8,15,4.7,17.5,1.7c3.6-4.2-1.9-15.1-12.9-27.4
				c10.2,5.1,18.1,6.6,20.9,3.3c1.4-1.7,1.4-4.4,0.2-7.8c16.2,9,29.2,12.1,33.5,6.9c6.1-7.2-6.8-28.4-29.6-50.1
				c0.8-0.4,1.4-0.9,1.9-1.5c0.8-0.9,1.3-2.1,1.4-3.5c16,8.8,28.8,11.8,33.1,6.7c4.9-5.8-2.5-20.8-17.6-37.7
				c4.1,0.8,7.2,0.4,8.7-1.5c5.3-6.3-8.6-26.8-31.1-45.7C127,7.2,104.5-3,99.2,3.4z"/>
		</defs>
		<clipPath id="SVGID_2_">
			<use xlink:href="#SVGID_1_"  style="overflow:visible;"/>
		</clipPath>
		<g class="st42">
			<linearGradient id="SVGID_3_" gradientUnits="userSpaceOnUse" x1="95.1653" y1="29.42" x2="95.1653" y2="-126.6076">
				<stop  offset="0" style="stop-color:#DEEEFF"/>
				<stop  offset="1" style="stop-color:#1C96FF"/>
			</linearGradient>
			<path class="st43" d="M284.2,87.8c0,18.4-3.5,31-3.5,31l-2.7,0l-94.7-1.2l-25.8-0.3l-75.4-1l-161.2-2.1c-0.3-1-0.6-2.1-1-3.2
				c-0.3-0.8-0.6-1.7-0.9-2.5c-0.7-1.9-1.4-3.9-2.1-5.8c-0.2-0.4-0.3-0.9-0.5-1.3c-0.4-1-0.7-1.9-1.1-2.9
				c-2.6-6.7-5.3-13.5-7.1-20.6c-0.2-0.6-0.3-1.2-0.4-1.9c-0.9-4.1-1.6-8.3-1.7-12.6c-0.2-8.4,1.6-17.1,6.8-26.1
				c1.8-3.2,4.1-6.4,6.9-9.7c41-48.4,62.8-10.1,124.5-46.8c61.8-36.7,113.9,6.4,160.7-2.7c27.7-5.4,44.2,3.8,54,14.9
				c6.7,7.7,10.3,16.3,12,21.8c3.2,10,5.8,19.5,7.8,28.5C282.5,59.7,284.2,74.5,284.2,87.8z"/>
			<linearGradient id="SVGID_4_" gradientUnits="userSpaceOnUse" x1="63.9945" y1="33.4112" x2="63.9945" y2="199.8013">
				<stop  offset="1.036270e-02" style="stop-color:#B0BD24"/>
				<stop  offset="1" style="stop-color:#1F4A6E"/>
			</linearGradient>
			<path class="st44" d="M221.9,104.4l-302.8,4c-0.7-1.9-1.4-3.9-2.1-5.8c-0.2-0.4-0.3-0.9-0.5-1.3c-0.4-1-0.7-1.9-1.1-2.9
				c-2.6-6.7-5.3-13.5-7.1-20.6c-0.2-0.6-0.3-1.2-0.4-1.9c-0.9-4.1-1.6-8.3-1.7-12.6c-0.2-8.4,1.6-17.1,6.8-26.1
				c17.6,12.8,47.2,26.5,76.9,6C36.7,11,94.4,21.1,121.4,45.7c26.9,24.5,79.7-17,79.7-17L221.9,104.4z"/>
			<linearGradient id="SVGID_5_" gradientUnits="userSpaceOnUse" x1="178.4891" y1="44.0653" x2="178.4891" y2="-80.9287">
				<stop  offset="0" style="stop-color:#DEEEFF"/>
				<stop  offset="1" style="stop-color:#1C96FF"/>
			</linearGradient>
			<path class="st45" d="M281.9,113.4c-0.1,0.8-0.3,1.5-0.5,2.3l-11.8-0.2l-115-1.5l-71.9-0.9c-4.4-2.9-7.8-6.3-10-10.4
				c0,0,31.2-32.6,64.2-19.8c28.6,11,49.4-68.3,122.1-89.9c6.7,7.7,10.3,16.3,12,21.8c3.2,10,5.8,19.5,7.8,28.5
				C285.1,71,285.6,94.2,281.9,113.4z"/>
			<linearGradient id="SVGID_6_" gradientUnits="userSpaceOnUse" x1="176.7992" y1="75.1475" x2="212.5434" y2="197.0988">
				<stop  offset="1.036270e-02" style="stop-color:#B0BD24"/>
				<stop  offset="1" style="stop-color:#1F4A6E"/>
			</linearGradient>
			<path class="st46" d="M281.9,113.4c-3.6,0.6-7.7,1.3-12.2,2.1c-3.1,0.5-6.5,1.1-10,1.6c0,0,0,0,0,0c-52,8.1-143.3,18.1-176.9-4
				c-4.4-2.9-7.8-6.3-10-10.4c0,0,31.2-32.6,64.2-19.8c28.6,11,49.4-68.3,122.1-89.9c6.7,7.7,10.3,16.3,12,21.8
				c3.2,10,5.8,19.5,7.8,28.5C285.1,71,285.6,94.2,281.9,113.4z"/>
			<linearGradient id="SVGID_7_" gradientUnits="userSpaceOnUse" x1="196.557" y1="48.7387" x2="225.114" y2="109.7915">
				<stop  offset="1.036270e-02" style="stop-color:#B0BD24"/>
				<stop  offset="1" style="stop-color:#467550"/>
			</linearGradient>
			<path class="st47" d="M284.2,87.8c0,13.6-2,25.3-3,28.7c-6,0.2-13.4,0.4-21.6,0.6c0,0,0,0,0,0c-40.1,0.9-100.4,0.9-119-6.4
				c0,0,30.8-43.4,71.6-30.5c34.9,11,36.3-26,66.7-36.9C282.5,59.7,284.2,74.5,284.2,87.8z"/>
			<linearGradient id="SVGID_8_" gradientUnits="userSpaceOnUse" x1="23.1939" y1="80.8402" x2="5.5003" y2="183.316">
				<stop  offset="1.036270e-02" style="stop-color:#B0BD24"/>
				<stop  offset="1" style="stop-color:#1F4A6E"/>
			</linearGradient>
			<path class="st48" d="M133.7,114l-174.9-9.2c0,0,0,0,0,0l-20.9-1.1l-21-1.1c-0.2-0.4-0.3-0.9-0.5-1.3c-0.4-1-0.7-1.9-1.1-2.9
				c-2.6-6.7-5.3-13.5-7.1-20.6c-0.2-0.6-0.3-1.2-0.4-1.9c2.2-1.7,4.7-3.2,7.2-4.6c10.8-5.8,24.1-8.1,39.4-1.3
				c41.5,18.7,37.3,15.5,61.7,7.5c24.5-8,17,18.6,44.7,23.4c4.8,0.8,9.8,1.5,14.9,2.1c5.3,0.6,10.8,1.1,16,1.7
				C110.8,106.6,128.1,108.4,133.7,114z"/>
			<linearGradient id="SVGID_9_" gradientUnits="userSpaceOnUse" x1="93.9863" y1="128.3541" x2="93.9863" y2="221.8465">
				<stop  offset="0" style="stop-color:#B5DAFF"/>
				<stop  offset="1" style="stop-color:#1F4A6E"/>
			</linearGradient>
			<path class="st49" d="M280.7,118.8c-0.2,0.8-0.4,1.5-0.6,2.3c-1.1,4-2.3,7.7-3.7,11.3c-0.3,0.9-0.7,1.7-1,2.5
				c-1.4,3.3-3,6.4-4.7,9.4c-1.1,1.9-2.3,3.8-3.5,5.6c-9.3,13.9-21.9,24.5-36.6,32.7H-81.3c-10.1-7.3-14.2-16-9.6-25.6
				c1.2-2.5,3-5,5.4-7.6c1.6-1.7,2.9-3.4,4-5.2c0.5-0.8,1-1.7,1.4-2.5c3.7-7.1,3.9-14.5,2.3-22.1c0,0,0-0.1,0-0.1
				c0-0.3-0.1-0.5-0.2-0.8H280.7z"/>
			<linearGradient id="SVGID_10_" gradientUnits="userSpaceOnUse" x1="88.958" y1="153.9041" x2="88.958" y2="247.3851">
				<stop  offset="0" style="stop-color:#6B9E34"/>
				<stop  offset="1" style="stop-color:#1F4A6E"/>
			</linearGradient>
			<path class="st50" d="M270.7,144.3c-1.1,1.9-2.3,3.8-3.5,5.6c-4.1,6.1-8.8,11.6-14.1,16.5c-6.7,6.3-14.3,11.6-22.5,16.2
				c-4.5,2.5-9.2,4.7-14,6.8c-8.4,3.5-17.3,6.5-26.5,8.8c-25.2,6.5-52.6,9.1-78.2,9.9H41.7c-51.9,0-101.4-9.8-123-25.5
				c-10.1-7.3-14.2-16-9.6-25.6c1.2-2.5,3-5,5.4-7.6c1.6-1.7,2.9-3.4,4-5.1H270.7z"/>
			<linearGradient id="SVGID_11_" gradientUnits="userSpaceOnUse" x1="120.213" y1="145.4901" x2="120.213" y2="204.6446">
				<stop  offset="0" style="stop-color:#B5DAFF"/>
				<stop  offset="1" style="stop-color:#1F4A6E"/>
			</linearGradient>
			<path class="st51" d="M276.4,132.4c-0.3,0.9-0.7,1.7-1,2.5c-1.4,3.3-3,6.4-4.7,9.4c-1.1,1.9-2.3,3.8-3.5,5.6
				c-4.1,6.1-8.8,11.6-14.1,16.5l-289-20.3l42.6-1.9L276.4,132.4z"/>
			<linearGradient id="SVGID_12_" gradientUnits="userSpaceOnUse" x1="39.9291" y1="147.6829" x2="39.9291" y2="174.1638">
				<stop  offset="0" style="stop-color:#6B9E34"/>
				<stop  offset="1" style="stop-color:#1F4A6E"/>
			</linearGradient>
			<path class="st52" d="M170.7,147.5l-261.6,9.6c1.2-2.5,3-5,5.4-7.6c1.6-1.7,2.9-3.4,4-5.2c0.5-0.8,1-1.7,1.4-2.5l110.4,2.5
				L170.7,147.5z"/>
			<linearGradient id="SVGID_13_" gradientUnits="userSpaceOnUse" x1="162.1537" y1="113.0957" x2="160.3983" y2="135.4132">
				<stop  offset="0" style="stop-color:#6B9E34"/>
				<stop  offset="1" style="stop-color:#1F4A6E"/>
			</linearGradient>
			<path class="st53" d="M41.7,118.8l240.6-7.7c-0.1,0.8-0.3,1.6-0.4,2.4c-0.1,0.8-0.3,1.5-0.5,2.3c0,0.2-0.1,0.5-0.2,0.7
				c0,0,0,0.1,0,0.1c-0.3,1.5-0.7,3-1.1,4.5l-8.6-0.1l-13.5-0.1l-19.5-0.2L41.7,118.8z"/>
			<linearGradient id="SVGID_14_" gradientUnits="userSpaceOnUse" x1="-5.8415" y1="119.5809" x2="-86.755" y2="140.3873">
				<stop  offset="0" style="stop-color:#6B9E34"/>
				<stop  offset="1" style="stop-color:#1F4A6E"/>
			</linearGradient>
			<path class="st54" d="M154.5,115.1c-23,1.7-47.9,2.9-73,3.6c-16.4,0.5-32.8,0.8-48.7,1c-11,0.1-21.9,0.2-32.4,0.3
				c-1.7,0-3.4,0-5.1,0c-28.3,0.1-53.7-0.2-72.9-0.5c-0.1,0-0.2,0-0.2,0c0-0.3-0.1-0.5-0.2-0.8c-0.6-2.6-1.3-5.2-2.2-7.8
				c-0.9-2.7-1.9-5.5-3-8.3l21,1.1l20.9,1.1c0,0,0,0,0,0l174.9,9.2L154.5,115.1z"/>
			<linearGradient id="SVGID_15_" gradientUnits="userSpaceOnUse" x1="39.5943" y1="100.5138" x2="-2.8984" y2="172.7056">
				<stop  offset="0" style="stop-color:#6B9E34"/>
				<stop  offset="1" style="stop-color:#1F4A6E"/>
			</linearGradient>
			<path class="st55" d="M108.9,157.6h-195c0.5-0.8,1-1.7,1.4-2.5c3.7-7.1,3.9-14.5,2.3-22.1c0.1,0,0.1-0.1,0.2-0.1
				c0.4-0.2,0.8-0.5,1.1-0.8c5-4,5-10.8,14.4-15c1.3-0.6,2.9-1.2,4.6-1.7c0.6-0.2,1.2-0.3,1.8-0.5c4.2-1,6.9-0.8,9.3,0.1
				c1.8,0.7,3.4,1.8,5.1,3.1c0,0,0,0,0,0c4.6,3.5,10.5,8.8,25.1,13c1.3,0.4,2.5,0.7,3.6,0.9c3,0.7,5.6,1.1,7.8,1.3
				c2,0.2,3.6,0.1,5.1,0c2.1-0.2,3.8-0.7,5.3-1.3c5.9-2.4,7.5-7,15.7-4.5c4.6,1.4,7.7,2.9,10,4.5c0.5,0.3,1,0.7,1.4,1
				c7.3,5.8,4.3,11.2,28.6,10.3C88.7,142.2,103,149.1,108.9,157.6z"/>
			<linearGradient id="SVGID_16_" gradientUnits="userSpaceOnUse" x1="138.1415" y1="192.0708" x2="149.2748" y2="230.055">
				<stop  offset="1.036270e-02" style="stop-color:#B0BD24"/>
				<stop  offset="1" style="stop-color:#1F4A6E"/>
			</linearGradient>
			<path class="st56" d="M216.6,189.4c-8.4,3.5-17.3,6.5-26.5,8.8l-129.8-1.5L216.6,189.4z"/>
			<linearGradient id="SVGID_17_" gradientUnits="userSpaceOnUse" x1="189.2236" y1="171.0291" x2="-154.2599" y2="164.9969">
				<stop  offset="0" style="stop-color:#6B9E34"/>
				<stop  offset="1" style="stop-color:#1F4A6E"/>
			</linearGradient>
			<polygon class="st57" points="169.4,167 -7.3,167 -80.2,167 51.3,172.3 			"/>
			<linearGradient id="SVGID_18_" gradientUnits="userSpaceOnUse" x1="192.0798" y1="111.381" x2="70.1428" y2="109.2396">
				<stop  offset="0" style="stop-color:#6B9E34"/>
				<stop  offset="1" style="stop-color:#1F4A6E"/>
			</linearGradient>
			<path class="st58" d="M96.3,115.4c0,0,6.5-15.3,12.4-8.8c5.9,6.4,2.9,1.2,11-1.6c3-1,6-0.8,10.3,1.6c4.3,2.5,3,3.9,6.7,3.9
				c9.3,0.1,13.5-4.6,15.6,0c2.1,4.6,6.7,5.7,12.4,3.5c5.7-2.1,9.2-3.3,12.1-0.1c2.8,3.3,8,2.9,8,2.9L96.3,115.4z"/>
			<polygon class="st60" points="68,122.7 157,122.7 139.4,123.9 159.1,126.3 111.2,126.3 126.6,124.5 			"/>
			<polygon class="st60" points="139.8,132.6 172.5,132.6 137.3,134.9 121.4,133.7 			"/>
		</g>
		<linearGradient id="SVGID_19_" gradientUnits="userSpaceOnUse" x1="97.9002" y1="88.6801" x2="105.6315" y2="194.8839">
			<stop  offset="1.027034e-07" style="stop-color:#FFFFFF;stop-opacity:0"/>
			<stop  offset="1" style="stop-color:#000000"/>
		</linearGradient>
		<ellipse style="clip-path:url(#SVGID_2_);fill:url(#SVGID_19_);" cx="103.5" cy="165.9" rx="107.4" ry="54.1"/>
		<g class="st42">
			<linearGradient id="SVGID_20_" gradientUnits="userSpaceOnUse" x1="186.7753" y1="17.8396" x2="135.1581" y2="93.7724">
				<stop  offset="0" style="stop-color:#6B9E34"/>
				<stop  offset="1" style="stop-color:#1F4A6E"/>
			</linearGradient>
			<path style="fill:url(#SVGID_20_);" d="M171.5,60.7c-6.3,5.8-12.7,9.9-16.6,8.4c-0.2-0.1-0.5-0.2-0.7-0.3
				c-2.3-1.4-3.6-5.1-3.1-12.3c1.2-19.1,12.5-23.7,22.7-30.7c10.1-7,4.4-18.2,4.2-18.5C196.6,31.7,182.2,50.9,171.5,60.7z"/>
			<g>
				<linearGradient id="SVGID_21_" gradientUnits="userSpaceOnUse" x1="181.7423" y1="36.2742" x2="130.6452" y2="87.0166">
					<stop  offset="0" style="stop-color:#6B9E34"/>
					<stop  offset="1" style="stop-color:#1F4A6E"/>
				</linearGradient>
				<path class="st62" d="M154.9,69.1c-0.2-0.1-0.5-0.2-0.7-0.3c0.9-3.8,3-11.2,6.6-15.6c1.7-2.1,3.8-4,5.9-6
					c4.1-3.8,8.4-7.8,10.9-13.2l0.6,0.3c-2.6,5.5-6.9,9.5-11,13.4c-2.2,2-4.2,3.9-5.9,6C157.9,57.9,155.8,65.4,154.9,69.1z"/>
			</g>
		</g>
	</g>
	<g>
		<linearGradient id="SVGID_22_" gradientUnits="userSpaceOnUse" x1="187.3186" y1="35.9005" x2="163.3528" y2="99.4928">
			<stop  offset="0" style="stop-color:#6B9E34"/>
			<stop  offset="1" style="stop-color:#1F4A6E"/>
		</linearGradient>
		<path class="st63" d="M184,78.1c-12.4,2.5-24.6,10.3-26.7,11.7c-0.2,0.1-0.3,0.2-0.3,0.2s-0.1-0.2-0.4-0.5
			c-1.2-1.6-4.9-7.2-3.9-16c1.2-10.4,7-14.4,26.8-16.7c14.4-1.6,14.6-17.2,14.6-17.5C205.1,60.5,194.7,76,184,78.1z"/>
		<g>
			<linearGradient id="SVGID_23_" gradientUnits="userSpaceOnUse" x1="185.1581" y1="66.6439" x2="148.4463" y2="88.5526">
				<stop  offset="0" style="stop-color:#6B9E34"/>
				<stop  offset="1" style="stop-color:#1F4A6E"/>
			</linearGradient>
			<path class="st64" d="M162.4,74.8c-6,5.2-5.2,13.8-5,15c-0.2,0.1-0.3,0.2-0.3,0.2s-0.1-0.2-0.4-0.5c-0.2-2.1-0.6-10.1,5.3-15.2
				c3.5-3,9.2-4.9,14.3-6.6c4.6-1.5,9-3,10.6-4.9l0.5,0.4c-1.7,2.1-6,3.5-10.9,5.1C171.4,69.9,165.8,71.8,162.4,74.8z"/>
		</g>
	</g>
</g>
</svg>
