<?xml version="1.0" encoding="utf-8"?>
<!-- Generator: Adobe Illustrator 22.0.0, SVG Export Plug-In . SVG Version: 6.00 Build 0)  -->
<svg version="1.1" id="Capa_1" xmlns="http://www.w3.org/2000/svg" xmlns:xlink="http://www.w3.org/1999/xlink" x="0px" y="0px"
	 viewBox="0 0 238.5 190" style="enable-background:new 0 0 238.5 190;" xml:space="preserve">
<style type="text/css">
	.st0{fill:#6400DA;}
	.st1{fill:#FF6500;}
	.st2{fill:#FFFFFF;}
	.st3{fill:#FFD600;}
	.st4{fill:#005693;}
	.st5{fill:#34A836;}
	.st6{fill-rule:evenodd;clip-rule:evenodd;fill:#FFFFFF;}
	.st7{opacity:0.39;}
	.st8{fill:none;stroke:#FFFFFF;stroke-width:2.9784;stroke-linecap:round;stroke-linejoin:round;}
	.st9{fill:#C6433E;}
	.st10{fill:#E20613;}
	.st11{fill:#FCD570;}
	.st12{fill:#FCCD56;}
	.st13{fill:#F5BB41;}
	.st14{fill:#FDE19A;}
	.st15{fill:#FCD879;}
	.st16{fill:#FCD05E;}
	.st17{fill:#F6C55B;}
	.st18{fill:#F7B056;}
	.st19{fill:#F59B45;}
	.st20{fill-rule:evenodd;clip-rule:evenodd;fill:#FFC700;}
	.st21{fill:#F4EBC6;}
	.st22{fill:#B9B295;}
	.st23{fill:#0E0E0E;}
	.st24{fill:#884D30;}
	.st25{fill:#3F0D0B;}
	.st26{fill:#A86C0E;}
	.st27{fill:#F09915;}
	.st28{opacity:0.4;fill:#FFFFFF;}
	.st29{fill:#DCDDEE;}
	.st30{fill:#A5A3A9;}
	.st31{fill:#000922;}
	.st32{fill:#FFFFC7;}
	.st33{fill:#8BBFCB;}
	.st34{fill:#B3D5DD;}
	.st35{fill:#00AEEF;}
	.st36{fill:#008FEF;}
	.st37{fill:#4E82B0;}
	.st38{fill:#5A93B5;}
	.st39{fill:none;stroke:#003142;stroke-width:2.4444;stroke-miterlimit:10;}
	.st40{fill:#252D42;}
	.st41{fill:#00090C;}
	.st42{clip-path:url(#SVGID_2_);}
	.st43{fill:url(#SVGID_3_);}
	.st44{fill:url(#SVGID_4_);}
	.st45{fill:url(#SVGID_5_);}
	.st46{fill:url(#SVGID_6_);}
	.st47{fill:url(#SVGID_7_);}
	.st48{fill:url(#SVGID_8_);}
	.st49{fill:url(#SVGID_9_);}
	.st50{fill:url(#SVGID_10_);}
	.st51{fill:url(#SVGID_11_);}
	.st52{fill:url(#SVGID_12_);}
	.st53{fill:url(#SVGID_13_);}
	.st54{fill:url(#SVGID_14_);}
	.st55{fill:url(#SVGID_15_);}
	.st56{fill:url(#SVGID_16_);}
	.st57{fill:url(#SVGID_17_);}
	.st58{fill:url(#SVGID_18_);}
	.st59{fill:url(#SVGID_19_);}
	.st60{fill:#EBF3FA;}
	.st61{clip-path:url(#SVGID_2_);fill:url(#SVGID_20_);}
	.st62{fill:url(#SVGID_21_);}
	.st63{fill:url(#SVGID_22_);}
	.st64{fill:url(#SVGID_23_);}
	.st65{fill:url(#SVGID_24_);}
	.st66{clip-path:url(#SVGID_26_);}
	.st67{clip-path:url(#SVGID_28_);}
	.st68{clip-path:url(#SVGID_32_);}
	.st69{fill:#418421;}
	.st70{fill:#2D660E;}
	.st71{fill:#84D84E;}
	.st72{opacity:0.4;fill:#2D660E;}
	.st73{fill:#EDC174;}
	.st74{fill:#D8A34E;}
	.st75{fill:#C18733;}
	.st76{opacity:0.4;fill:#1B3D04;}
	.st77{fill:#6AC634;}
	.st78{fill:#245109;}
	.st79{fill:#D6854D;}
	.st80{fill:#BC6428;}
	.st81{fill:#492004;}
	.st82{fill:#66BC2E;}
	.st83{clip-path:url(#SVGID_32_);fill:#009CDD;}
	.st84{fill:#D8BF4C;}
	.st85{fill:#4BDDFD;}
	.st86{opacity:0.6;fill:#13BDE5;}
	.st87{opacity:0.5;fill:#FFEAC1;}
	.st88{opacity:0.7;fill:#FFEAC1;}
	.st89{fill:#FAFFDE;}
	.st90{opacity:0.2;}
	.st91{fill:#BF9D62;}
	.st92{clip-path:url(#SVGID_36_);}
	.st93{clip-path:url(#SVGID_40_);fill:none;}
	.st94{clip-path:url(#SVGID_44_);fill:url(#SVGID_45_);}
	.st95{clip-path:url(#SVGID_44_);fill:url(#SVGID_46_);}
	.st96{clip-path:url(#SVGID_44_);fill:#009CDD;}
	.st97{clip-path:url(#SVGID_44_);}
	.st98{fill:url(#SVGID_47_);}
	.st99{fill:url(#SVGID_48_);}
	.st100{fill:url(#SVGID_49_);}
	.st101{fill:url(#SVGID_50_);}
	.st102{fill:url(#SVGID_51_);}
	.st103{fill:url(#SVGID_52_);}
	.st104{fill:url(#SVGID_53_);}
	.st105{fill:url(#SVGID_54_);}
	.st106{fill:url(#SVGID_55_);}
	.st107{fill:url(#SVGID_56_);}
	.st108{fill:url(#SVGID_57_);}
	.st109{fill:url(#SVGID_58_);}
	.st110{fill:url(#SVGID_59_);}
	.st111{fill:url(#SVGID_60_);}
	.st112{fill:url(#SVGID_61_);}
	.st113{fill:url(#SVGID_62_);}
	.st114{fill:url(#SVGID_63_);}
	.st115{fill:url(#SVGID_64_);}
	.st116{fill:url(#SVGID_65_);}
	.st117{fill:url(#SVGID_66_);}
	.st118{fill:url(#SVGID_67_);}
	.st119{fill:url(#SVGID_68_);}
	.st120{fill:url(#SVGID_69_);}
	.st121{fill:url(#SVGID_70_);}
	.st122{fill:url(#SVGID_71_);}
	.st123{fill:url(#SVGID_72_);}
	.st124{fill:url(#SVGID_73_);}
	.st125{fill:url(#SVGID_74_);}
	.st126{fill:url(#SVGID_75_);}
	.st127{fill:url(#SVGID_76_);}
	.st128{fill:url(#SVGID_77_);}
	.st129{fill:url(#SVGID_78_);}
	.st130{fill:url(#SVGID_79_);}
	.st131{fill:url(#SVGID_80_);}
	.st132{fill:url(#SVGID_81_);}
	.st133{fill:url(#SVGID_82_);}
	.st134{fill:url(#SVGID_83_);}
	.st135{fill:url(#SVGID_84_);}
	.st136{fill:url(#SVGID_85_);}
	.st137{fill:url(#SVGID_86_);}
	.st138{fill:url(#SVGID_87_);}
	.st139{fill:#3B3637;}
	.st140{fill:none;stroke:#3B3637;stroke-width:3;stroke-miterlimit:10;}
	.st141{fill:url(#SVGID_88_);}
	.st142{fill:url(#SVGID_89_);}
	.st143{fill:url(#SVGID_92_);}
</style>

<g>
	<defs>
		<path id="SVGID_25_" d="M104.9,3.4c-2.7,3.3-0.4,10.3,5.6,18.9c-11.2-4.8-19.8-5.8-23.1-1.8c-0.8,0.9-1.3,2.1-1.4,3.5
			c-16-8.8-28.8-11.8-33.1-6.7c-3.8,4.5-0.2,14.5,8.6,26.6c-12.5-7.2-22.6-9.9-25.9-6c-3.1,3.7,0.7,12.5,9,22.9
			c-4.4-1-7.6-0.7-9.3,1.2c-1.6,1.9-1.4,5.2,0.4,9.3c-12.9-7.6-23.4-10.5-26.8-6.5c-3.2,3.8,1,13.1,9.9,24c-3-0.3-5.3,0.2-6.5,1.7
			c-3.1,3.7,0.6,12.2,8.7,22.4c-1.6,0.3-3,1-3.9,2c-5.7,6.8,7.1,26.8,28.5,44.8c21.4,18,43.4,27.1,49.1,20.3
			c0.7-0.8,1.1-1.9,1.3-3.1c15.2,9.9,28.1,14.2,31.9,9.7c0.8-1,1.2-2.3,1.1-4c8.5,3.8,15,4.7,17.5,1.7c3.6-4.2-1.9-15.1-12.9-27.4
			c10.2,5.1,18.1,6.6,20.9,3.3c1.4-1.7,1.4-4.4,0.2-7.8c16.2,9,29.2,12.1,33.5,6.9c6.1-7.2,64.8-10.5,69.1-15.6
			c4.9-5.8-19.2-78.4-21-80c-8-7-58.7-18.9-81.2-37.7C132.7,7.2,110.2-2.9,104.9,3.4z"/>
	</defs>
	<clipPath id="SVGID_13_">
		<use xlink:href="#SVGID_25_"  style="overflow:visible;"/>
	</clipPath>
	<g style="clip-path:url(#SVGID_13_);">
		<g>
			<g>
				<defs>
					<path id="SVGID_27_" d="M104.9,3.4c-2.7,3.3-0.4,10.3,5.6,18.9c-11.2-4.8-19.8-5.8-23.1-1.8c-0.8,0.9-1.3,2.1-1.4,3.5
						c-16-8.8-28.8-11.8-33.1-6.7c-3.8,4.5-0.2,14.5,8.6,26.6c-12.5-7.2-22.6-9.9-25.9-6c-3.1,3.7,0.7,12.5,9,22.9
						c-4.4-1-7.6-0.7-9.3,1.2c-1.6,1.9-1.4,5.2,0.4,9.3c-12.9-7.6-23.4-10.5-26.8-6.5c-3.2,3.8,1,13.1,9.9,24
						c-3-0.3-5.3,0.2-6.5,1.7c-3.1,3.7,0.6,12.2,8.7,22.4c-1.6,0.3-3,1-3.9,2c-5.7,6.8,7.1,26.8,28.5,44.8
						c21.4,18,43.4,27.1,49.1,20.3c0.7-0.8,1.1-1.9,1.3-3.1c15.2,9.9,28.1,14.2,31.9,9.7c0.8-1,1.2-2.3,1.1-4
						c8.5,3.8,15,4.7,17.5,1.7c3.6-4.2-1.9-15.1-12.9-27.4c10.2,5.1,18.1,6.6,20.9,3.3c1.4-1.7,1.4-4.4,0.2-7.8
						c16.2,9,29.2,12.1,33.5,6.9c6.1-7.2-6.8-28.4-29.6-50.1c0.8-0.4,1.4-0.9,1.9-1.5c0.8-0.9,1.3-2.1,1.4-3.5
						c16,8.8,28.8,11.8,33.1,6.7c4.9-5.8-2.5-20.8-17.6-37.7c4.1,0.8,7.2,0.4,8.7-1.5c5.3-6.3-8.6-26.8-31.1-45.7
						C132.7,7.2,110.2-2.9,104.9,3.4z"/>
				</defs>
				<clipPath id="SVGID_14_">
					<use xlink:href="#SVGID_27_"  style="overflow:visible;"/>
				</clipPath>
				<g style="clip-path:url(#SVGID_14_);">
					<g>
						<g>
							<defs>
								<circle id="SVGID_29_" cx="186.7" cy="92.4" r="5.2"/>
							</defs>
							<clipPath id="SVGID_15_">
								<use xlink:href="#SVGID_29_"  style="overflow:visible;"/>
							</clipPath>
						</g>
					</g>
				</g>
			</g>
			<g>
				<defs>
					<path id="SVGID_31_" d="M104.9,3.4c-2.7,3.3-0.4,10.3,5.6,18.9c-11.2-4.8-19.8-5.8-23.1-1.8c-0.8,0.9-1.3,2.1-1.4,3.5
						c-16-8.8-28.8-11.8-33.1-6.7c-3.8,4.5-0.2,14.5,8.6,26.6c-12.5-7.2-22.6-9.9-25.9-6c-3.1,3.7,0.7,12.5,9,22.9
						c-4.4-1-7.6-0.7-9.3,1.2c-1.6,1.9-1.4,5.2,0.4,9.3c-12.9-7.6-23.4-10.5-26.8-6.5c-3.2,3.8,1,13.1,9.9,24
						c-3-0.3-5.3,0.2-6.5,1.7c-3.1,3.7,0.6,12.2,8.7,22.4c-1.6,0.3-3,1-3.9,2c-5.7,6.8,7.1,26.8,28.5,44.8
						c21.4,18,43.4,27.1,49.1,20.3c0.7-0.8,1.1-1.9,1.3-3.1c15.2,9.9,28.1,14.2,31.9,9.7c0.8-1,1.2-2.3,1.1-4
						c8.5,3.8,15,4.7,17.5,1.7c3.6-4.2-1.9-15.1-12.9-27.4c10.2,5.1,18.1,6.6,20.9,3.3c1.4-1.7,1.4-4.4,0.2-7.8
						c16.2,9,29.2,12.1,33.5,6.9c6.1-7.2-6.8-28.4-29.6-50.1c0.8-0.4,1.4-0.9,1.9-1.5c0.8-0.9,1.3-2.1,1.4-3.5
						c16,8.8,28.8,11.8,33.1,6.7c4.9-5.8-2.5-20.8-17.6-37.7c4.1,0.8,7.2,0.4,8.7-1.5c5.3-6.3-8.6-26.8-31.1-45.7
						C132.7,7.2,110.2-2.9,104.9,3.4z"/>
				</defs>
				<clipPath id="SVGID_16_">
					<use xlink:href="#SVGID_31_"  style="overflow:visible;"/>
				</clipPath>
				<g style="clip-path:url(#SVGID_16_);">
					<g>
						<path class="st69" d="M201.3,82.6l-5.6,4.4l-3.3-2.7l3.9-5.3l-5.6,4l-4.1-3.3l6.9-13.2c0,0-5.9,8.3-8.8,11.6l-10.7-8.6
							c2-3.8,5.2-10,4.9-9.5c-0.3,0.5-5.7,4.7-8.3,6.8l-0.7-0.5l-3.9-3.2l2.9-8c0,0-2.8,4.1-4.7,6.6l-1.8-1.4
							c0.1-3.1,0.4-7.2,0.4-7.2s-1.5,3.1-2.7,5.3l-1.6-1.3c-0.1-2.1-0.3-4.4-0.3-4.4s-1.4,0.7-3.2,1.6l-6-4.9c0,0,16.4-2.4,35.9,5.4
							c19.5,7.9,20.5,36.6,20.5,36.6l-3,1.3l-4.7-3.8L201.3,82.6z"/>
						<path class="st70" d="M205.4,91c0,0-0.8-24.4-16.2-34.3l-0.1,4.2l4.8,2.6c0,0-7.2,2.7-6.2,2.9c0.5,0.1,2.7,0.7,4.9,1.3
							c0.6-0.8,0.9-1.3,0.9-1.3l-0.7,1.4c2.3,0.7,4.6,1.4,4.6,1.4l-4.8,4.4l1.8,3.5c0,0,7.2,1.4,6.4,1.7c-0.7,0.3-6,4.3-6,4.3
							l1.7,2.9L197,86l4.4-3.4l-2.4,3.8l4,0.8l-3.7,2.6l3,2.4L205.4,91z"/>
					</g>
					<g>
						<path class="st71" d="M200.2,92.8l0-0.8l3.5-3.3l-3.3-0.8l0.4-10.1l7.5-1.2l-7.4-1.1l0.1-2.8l10.4-1.4l-10.3-1.2l0-1l10.7,0.4
							L201.3,68l0.6-13.9c3.8-0.8,10.8-2.2,10.5-2.3c-0.3,0-6.6-0.6-10.4-0.9l0.2-3.5l7.8-1.6l-7.7-1.8l0.2-3.5l4.5,0l-4.4-0.8
							l0-0.3l6.1-0.8l-6-1.2l0.4-9.1c0,0,15.7,15.7,16.5,23.5c0.6,6.3-4.1,23.7-6,30.3c-0.5,1.7-1.3,3.2-2.4,4.5L199.9,100l3.5-8.5
							L200.2,92.8z"/>
						<path class="st72" d="M202.9,94.2c0.5-0.3,2-1.3,4-2.5l4.2-5c1.1-1.3,1.9-2.9,2.4-4.5c1-3.3,2.6-9.4,4-15.5l-9.2,10.1l0,0l0,0
							l-7.7,8.5l-0.1,2.8l3.3,0.8l-3.5,3.3l0,0.8l3.2-1.4l-1.2,2.9C202.5,94.3,202.7,94.3,202.9,94.2z"/>
					</g>
					<path class="st69" d="M220.5,142.9l9.7-3.4l0.3-2c0.3-1.8,0.3-3.7-0.2-5.5c-1.8-7.1-6.7-25.8-10.7-31.3
						c-4.9-6.8-27.9-13-27.9-13l4.5,8.6l6.2-2.1l-5.2,4l0.1,0.3l4.5-1.7l-4.1,2.4l1.7,3.3l8.1-2.4l-6.4,5.7l1.7,3.3
						c3.7-1.7,9.9-4.6,10.2-4.7c0.3-0.1-5.4,5-8.6,7.8l6.9,13.3l10.7-4.3l-10.1,5.4l0.5,1l10.3-4.4l-8.9,6.9l1.4,2.6l7.4-3l-6.3,5.2
						L220.5,142.9z"/>
					<path class="st70" d="M200.6,101.7l3.6,1.2c1.5,2.7,2.9,5.8,4,9l-6.9-2.6l7.8,5.5c0.4,1.6,0.7,3.1,0.8,4.6l-8.3-3.7l8.2,7.4
						c-0.1,1.1-0.2,2.1-0.4,3.1l-5.5-5.4l5.3,6.5c-0.2,1-0.3,1.9-0.5,2.9c-2.2-1.5-5-3.1-5-3.1l4.5,5.2c0,0.2-0.1,0.4-0.1,0.6
						l-4.4-2.5c0,0,2.2,1.8,4.2,3.4c-0.1,0.3-0.2,0.7-0.3,1c-1.9-1.4-4.1-2.9-4.1-2.9s1.9,2.5,3.6,4.8c-0.3,1-0.6,2-0.9,2.9
						c-1.3-2.3-2.6-4.8-2.6-4.8l1.9,6.9c-0.7,2.1-1.2,3.3-1.2,3.3s-0.6-0.7-1.6-2.1l0.1-7.4l-0.8,6.5c-0.2-0.4-0.5-0.8-0.8-1.2
						c0.3-2.6,0.7-5.6,0.7-5.6l-1.3,4.7c-0.6-1-1.2-2.1-1.8-3.4c1.4-2.4,3-5.1,3-5.1l-4,3.1c-0.4-0.9-0.8-1.9-1.2-3l4.3-5.3
						c0,0-3.5,1.7-5.3,2.5c-0.2-0.7-0.4-1.3-0.6-2c-0.6-2.1-1-4.3-1.2-6.4l6.1-4.4l-6.2,3.3c0-0.5-0.1-1-0.1-1.5l5.4-2.9l-5.4,1.4
						c0-2.6,0.2-5.1,0.6-7.2l0.5-2.7c0.6-3.1,1.3-5.1,1.3-5.1l2-8c0,0,2.5,3.4,5.3,8.3L200.6,101.7z"/>
					<g>
						<path class="st73" d="M170.2,160.8c-1.7-4.6-3.2-9.2-4.2-13.9c-0.6-3.2-1.2-6.5-1.3-9.8c-0.1-1.6-0.1-3.3-0.1-4.9
							c0-0.8,0.1-1.6,0.2-2.4c0-0.4,0-0.8,0.1-1.2l0.2-1.2c0.5-3.2,1.3-6.4,2.6-9.4c1.3-3,2.9-5.8,5-8.4c2.1-2.6,4.5-4.9,7.2-6.9
							c1.4-1,2.8-1.9,4.3-2.7c0.7-0.4,1.5-0.8,2.3-1.2c0.8-0.4,1.6-0.7,2.3-1l-0.6-2.1c-0.9,0.2-1.8,0.5-2.7,0.8
							c-0.9,0.3-1.7,0.6-2.5,1c-1.7,0.7-3.3,1.5-4.9,2.4c-3.1,1.8-6.1,4.1-8.7,6.7c-2.6,2.6-4.9,5.6-6.7,8.9
							c-1.9,3.3-3.2,6.8-4.2,10.5l-0.4,1.4c-0.1,0.5-0.2,0.9-0.3,1.4c-0.2,0.9-0.4,1.8-0.5,2.8c-0.2,1.9-0.5,3.7-0.6,5.6
							c-0.3,3.7-0.1,7.5,0.2,11.2c0.5,5.5,1.6,10.9,3,16.3L170.2,160.8z"/>
						<g>
							<path class="st74" d="M163.7,113.7c2,0.3,4,0.5,5.9,0.6c0.3-0.5,0.6-1,0.9-1.6c-1.2-0.5-2.4-1.1-3.6-1.8
								c1.4,0.4,2.9,0.6,4.4,0.5c0.4-0.6,0.9-1.2,1.3-1.8c-1.5-0.5-2.9-1.3-4.2-2.3c-0.2,0.2-0.4,0.5-0.6,0.7c1.3,1,2.7,1.8,4.2,2.4
								c-1.9,0.2-3.8,0-5.6-0.7c-0.3,0.4-0.7,0.9-1,1.3c1.3,0.9,2.7,1.6,4.1,2.2c-1.8,0-3.6-0.2-5.3-0.5
								C164,113.1,163.8,113.4,163.7,113.7z"/>
							<path class="st74" d="M179.7,102.9c-0.7-0.9-1.4-1.8-2.1-2.8l2.6,2.4c0.3-0.2,0.5-0.4,0.8-0.6l-2.5-2.3
								c-0.1,0.1-0.3,0.1-0.4,0.2c-0.4,0.2-0.8,0.5-1.3,0.8c0.7,1,1.4,1.9,2.1,2.9C179.2,103.3,179.4,103.1,179.7,102.9z"/>
							<path class="st74" d="M177.2,104.9c-0.4-0.5-0.9-1-1.3-1.5c0.5,0.4,1,0.8,1.6,1.2c0.2-0.2,0.5-0.4,0.7-0.6
								c-1-0.8-2-1.6-3-2.4c-0.4,0.3-0.9,0.6-1.3,0.9c0.9,1,1.7,2,2.6,3C176.8,105.3,177,105.1,177.2,104.9z"/>
							<path class="st74" d="M168.3,155.3c-0.1-0.3-0.2-0.6-0.3-0.9c-3,2-6.1,3.9-9.3,5.4c0.1,0.3,0.1,0.6,0.2,0.9
								C162.2,159.2,165.3,157.3,168.3,155.3z"/>
							<path class="st74" d="M182.9,97.5c-0.1,0-0.1,0.1-0.2,0.1c0.5,0.8,1,1.6,1.5,2.4c0.3-0.2,0.6-0.3,0.8-0.4
								c-0.5-0.8-1-1.5-1.5-2.3C183.4,97.3,183.2,97.4,182.9,97.5z"/>
							<path class="st74" d="M164.5,149.3c0.6-0.3,1.2-0.7,1.8-1c-0.1-0.4-0.2-0.9-0.3-1.3c0-0.1-0.1-0.3-0.1-0.4
								c-3,0.5-6.2,0.3-9.3-0.1c0,0.3,0,0.6,0.1,1c3,0.4,6.1,0.6,9.1,0.1c-0.6,0.3-1.2,0.7-1.8,1c-2.3,1.3-4.5,2.6-6.8,3.5
								c0,0.3,0.1,0.6,0.1,0.9C159.9,152,162.2,150.6,164.5,149.3z"/>
							<path class="st74" d="M156.6,144.9c2.9-0.7,5.8-1.7,8.6-2.7c-0.1-0.5-0.1-1.1-0.2-1.6c-2.8,0.3-5.7,0.1-8.5-0.5
								c0,0.3,0,0.6,0,1c2.5,0.5,5.1,0.7,7.6,0.5c-2.5,0.9-5,1.7-7.6,2.3C156.6,144.3,156.6,144.6,156.6,144.9z"/>
							<path class="st74" d="M158,127.4c-0.1,0.3-0.1,0.5-0.2,0.8c2.3,0.4,4.7,0.8,7.1,1.1c0-0.2,0-0.4,0.1-0.6l0.1-0.3
								c-1.3-0.1-2.6-0.3-3.9-0.5l4-0.4c0.1-0.8,0.3-1.6,0.4-2.4l-6.2-0.7c2.3-0.3,4.5-0.8,6.8-1.5c0.1-0.4,0.2-0.8,0.3-1.1
								c-2,0.1-3.8-0.5-5.7-1.4c2.1,0.3,4.4,0.1,6.4-0.6c0.2-0.5,0.4-1,0.6-1.5c0-0.1,0.1-0.2,0.1-0.2c-1.8-0.7-3.5-1.7-4.9-3
								c-0.1,0.2-0.3,0.5-0.4,0.7c0,0-0.1,0.1-0.1,0.1c1.4,1.2,2.9,2.2,4.7,2.9c-2,0.8-4.3,1-6.5,0.7c-0.2,0.6-0.5,1.1-0.7,1.7
								c1.3,0.7,2.6,1.2,4,1.5c-1.6,0.4-3.2,0.7-4.8,0.9c-0.2,0.6-0.4,1.2-0.5,1.8l6.6,0.8l-7,0.7L158,127.4z"/>
							<path class="st74" d="M181.5,101.7c0.3-0.2,0.5-0.3,0.8-0.5c-0.2-0.4-0.5-0.7-0.7-1.1c0.3,0.3,0.7,0.6,1,0.9
								c0.3-0.2,0.6-0.3,0.8-0.5c-0.8-0.7-1.6-1.4-2.3-2.1c-0.5,0.2-0.9,0.5-1.4,0.7C180.3,99.9,180.9,100.8,181.5,101.7z"/>
							<path class="st74" d="M174.1,108c0.2-0.2,0.4-0.5,0.6-0.7c-0.4-0.3-0.8-0.7-1.1-1.1c0.4,0.3,0.8,0.7,1.2,1
								c0.2-0.2,0.4-0.5,0.7-0.7c-0.6-0.5-1.3-1.1-1.9-1.7l-1.2-1.1c-0.4,0.3-0.8,0.7-1.2,1C172.1,106,173,107,174.1,108z"/>
							<path class="st74" d="M163.8,163.1l5.1-1.8c0.4-0.2,0.8-0.4,1.2-0.6c-0.1-0.3-0.2-0.6-0.3-0.9c-1.5,0.8-3.1,1.5-4.7,2
								l0.6-0.3c1.4-0.6,2.7-1.1,4.1-1.7c-0.1-0.3-0.2-0.6-0.3-0.9c-1.4,0.6-2.7,1.2-4.1,1.8l-5.2,2.1c-0.3,0-0.5,0-0.8,0.1
								c0.1,0.4,0.2,0.8,0.3,1.2l0.6-0.3C161.5,163.6,162.7,163.4,163.8,163.1z"/>
							<path class="st74" d="M156.5,139.7c2.8-0.5,5.5-1.2,8.3-2.1c0-0.1,0-0.3,0-0.4c0-0.2,0-0.3,0-0.5c-2.7,0.8-5.4,1.5-8.2,2.1
								C156.5,139,156.5,139.3,156.5,139.7z"/>
							<path class="st74" d="M167.7,153.4c-3.3,0.9-6.7,1.1-10.1,0.8c0.1,0.3,0.1,0.6,0.2,1c3.4,0.3,6.9,0,10.2-0.9
								C167.9,154,167.8,153.7,167.7,153.4z"/>
							<path class="st74" d="M164.7,133.4c-2.5-0.4-5-1-7.5-1.7c0,0.3-0.1,0.6-0.1,0.9c2.5,0.7,5,1.3,7.6,1.7
								C164.7,134,164.7,133.7,164.7,133.4z"/>
							<path class="st74" d="M168.7,107.2c1.5,0.6,3,1.2,4.5,1.8c0.2-0.3,0.4-0.5,0.7-0.8c-1.5-0.5-3-1.1-4.5-1.7
								c0,0-0.1,0.1-0.1,0.1C169.1,106.8,168.9,107,168.7,107.2z"/>
							<path class="st74" d="M157.2,131.3c2.5-0.3,5.1-0.6,7.6-0.8c0-0.2,0-0.4,0.1-0.6c0-0.1,0-0.2,0-0.3c-2.5,0.2-5,0.5-7.5,0.8
								C157.3,130.7,157.3,131,157.2,131.3z"/>
						</g>
						<g>
							<path class="st75" d="M188.1,95.7c-0.9,0.2-1.8,0.5-2.7,0.8c-0.2,0.1-0.4,0.1-0.6,0.2l1.1,2.3c0.1-0.1,0.2-0.1,0.4-0.2
								c0.3-0.2,0.7-0.3,1-0.5c0.3-0.8,0.6-1.5,0.8-2.3L188.1,95.7z"/>
							<path class="st75" d="M166.3,117.4c0,0,0.9-0.4,2.3-1.1c0.7-1.4,1.4-2.7,2.3-4l0.6-1.2c0,0,0,0.2-0.1,0.4
								c0.4-0.6,0.9-1.2,1.4-1.8c1.9-2.4,4.1-4.5,6.6-6.4l0-0.1l0,0.1c0.2-0.2,0.4-0.3,0.6-0.5c0.4-0.3,0.7-0.5,1.1-0.8l-0.3-3.1
								l1.1,2.5c0.8-0.5,1.5-1,2.3-1.4c0.3-0.2,0.6-0.3,0.9-0.5l-0.6-2.7c-0.5,0.2-1,0.4-1.5,0.6c-1.7,0.7-3.3,1.5-4.9,2.4
								c-2,1.2-3.9,2.5-5.7,4c1.2,0.4,2.3,0.7,2.3,0.7l-3.8,0.5c-0.5,0.5-1.1,1-1.6,1.5c-0.3,0.3-0.6,0.6-0.9,0.9
								c0,0.1-0.1,0.2-0.1,0.3l4,0.4c0,0-2.4,0.7-4.5,1.3c-0.3,1.1-0.6,2.1-0.8,3l3.3-2.1c0,0-1.9,1.5-3.5,2.9
								c-0.1,0.4-0.2,0.8-0.2,1.1l4-3.4l-4.2,4.3C166.3,116.6,166.3,117.4,166.3,117.4z"/>
						</g>
					</g>
					<g>
						<path class="st69" d="M202.1,94.3l-0.7,0.2l-4.2-2.2l0.4,3.4l-9.7,2.9l-3.6-6.7l1.4,7.3L183,100l-4.7-9.4l2.2,10.2l-1,0.3
							l-3.1-10.2l2,10.6l-13.4,4c-2-3.3-5.6-9.5-5.6-9.2c0.1,0.3,1.6,6.5,2.5,10.1l-3.3,1l-4.1-6.9l0.8,7.8l-3.4,1l-1.5-4.2l0.7,4.4
							l-0.3,0.1l-2.8-5.5l0.8,6.1l-8.7,2.6c0,0,9.8-19.9,16.9-23.2c5.7-2.6,23.8-3.8,30.6-4.2c1.7-0.1,3.4,0.2,5,0.8l16.3,6.3
							l-9.2-0.6L202.1,94.3z"/>
						<path class="st76" d="M197.5,95.7l-0.4-3.4l4.2,2.2l0.7-0.2l-2.3-2.6l9.2,0.6L192.7,86c-1.6-0.6-3.3-0.9-5-0.8
							c-3.3,0.2-9.1,0.5-14.9,1.2c1,4.1,2.3,8.7,2.4,8.9c0.1,0.2,0.8-1.7,1.4-3.8l-0.1-0.8l0.2,0.6c0.6-2,1.2-3.9,1.2-3.9
							s3.9,8.9,4.1,9.3s0.9-7.2,1.2-7.7c0.2-0.5,4.7,3,4.7,3s1.7,3.5,1.9,4s0.6-2.1,0.6-2.1l5.1,2.4L197.5,95.7z"/>
					</g>
					<path class="st77" d="M238.6,64.9l-6.8-8.4l-0.9,0.4l-2.3,2.3l3.7,5l-5.3-3.5l-4.2,4.2l8,9.4l-9.5-7.9l-1,1l3.1,5
						c0,0-2.3-1.9-4.4-3.7l-7.8,7.9c1.9,2.5,4.1,5.5,4.3,5.9c0.2,0.4-3.1-2.3-5.7-4.5l-3.2,3.3c1.8,2,4,4.4,4.3,4.8
						c0.4,0.3-2.9-1.7-5.7-3.4l-1.1,1.1l3.4,4.5l-4.4-3.5l-2.3,2.3l-0.6,1.1l4.3,3.4l-5.5-1.1l-4.2,7.9c0,0,30.1-11.3,37-17.7
						c6.9-6.4,17.9-31.4,17.9-31.4l-14.5,5.9L238.6,64.9z"/>
					<path class="st78" d="M196,97.2l1.8,3.3c-0.8,3-1.8,6.3-3.2,9.3l-3.3-6.7l2,9.3c-0.8,1.4-1.6,2.7-2.5,3.9l-3.5-8.3l0.9,11
						c-0.8,0.7-1.6,1.4-2.4,2l-0.3-7.7l-0.5,8.3c-0.8,0.6-1.6,1.2-2.4,1.7c-0.6-2.6-1.5-5.6-1.5-5.6l-0.3,6.9
						c-0.2,0.1-0.3,0.2-0.5,0.3l-1.5-4.8c0,0,0.4,2.9,0.7,5.3c-0.3,0.2-0.6,0.4-0.9,0.5c-0.4-2.3-1-4.9-1-4.9s-0.4,3.1-0.7,6
						c-0.9,0.5-1.8,1-2.6,1.5c0.7-2.6,1.3-5.3,1.3-5.3l-3.3,6.3c-1.9,1-3.1,1.5-3.1,1.5s0-1,0.3-2.6l5.2-5.3l-5,4.2
						c0.1-0.4,0.2-0.9,0.3-1.4c2-1.7,4.4-3.6,4.4-3.6L170,125c0.2-1.1,0.6-2.4,1-3.7c2.7-0.8,5.7-1.7,5.7-1.7l-5-0.5
						c0.3-1,0.7-2,1.1-3l6.7-0.9c0,0-3.7-1.1-5.6-1.8c0.3-0.6,0.6-1.3,0.9-1.9c1-2,2.2-3.8,3.5-5.5l7.4,1l-6.8-1.8
						c0.3-0.4,0.7-0.8,1-1.2l5.9,1.6l-4.9-2.7c1.8-1.9,3.6-3.5,5.3-4.9l2.2-1.7c2.6-1.9,4.5-2.9,4.5-2.9l7-4.5c0,0-0.5,4.3-1.8,9.7
						L196,97.2z"/>
					<g>
						<path class="st79" d="M189.7,105.9c-2.6-1.2-3.7-4.3-2.5-6.9c1.2-2.6,4.3-3.7,6.9-2.5c2.6,1.2,3.7,4.3,2.5,6.9
							C195.3,106,192.3,107.2,189.7,105.9z"/>
						<path class="st80" d="M187.1,99.1c-1.2,2.6-0.1,5.7,2.5,6.9c2.5,1.1,5.4,0.2,6.7-2.1c-1.5,0.5-3,0.6-4.6-0.2
							c-0.4-0.2-0.8-0.7-0.5-1c-1.3-0.2-2.5-1.3-2.7-2.7c-0.1-0.7,0-1.4-0.2-2.1c0-0.1-0.1-0.2-0.1-0.4
							C187.8,97.9,187.4,98.4,187.1,99.1z"/>
						<path class="st81" d="M195.3,104.5c-0.1-0.1-0.2-0.4,0-0.7c0.1-0.3,0.4-0.5,0.5-0.4s0.2,0.4,0,0.7
							C195.7,104.3,195.5,104.5,195.3,104.5z"/>
						<path class="st81" d="M195.5,103c-0.1-0.1-0.2-0.4,0-0.7c0.1-0.3,0.4-0.5,0.5-0.4s0.2,0.4,0,0.7
							C195.8,102.8,195.6,103,195.5,103z"/>
						<path class="st81" d="M194.2,105.1c-0.1-0.1-0.2-0.4,0-0.7c0.1-0.3,0.4-0.5,0.5-0.4c0.1,0.1,0.2,0.4,0,0.7
							C194.6,105,194.3,105.2,194.2,105.1z"/>
					</g>
					<g>
						
							<ellipse transform="matrix(0.7194 -0.6946 0.6946 0.7194 -5.6281 161.4962)" class="st79" cx="197.1" cy="87.7" rx="5.2" ry="5.2"/>
						<path class="st80" d="M195.7,92.7c2.8,0.8,5.6-0.9,6.4-3.6c0.7-2.6-0.7-5.3-3.2-6.3c0.7,1.4,1,2.8,0.5,4.5
							c-0.1,0.4-0.6,0.9-0.9,0.6c0,1.4-0.9,2.7-2.2,3.1c-0.7,0.2-1.4,0.3-2,0.5c-0.1,0-0.2,0.1-0.3,0.2
							C194.4,92.2,195,92.5,195.7,92.7z"/>
						<path class="st81" d="M199.7,83.7c0,0.2-0.3,0.2-0.7,0.1c-0.3-0.1-0.6-0.3-0.5-0.4c0-0.2,0.3-0.2,0.7-0.1
							C199.5,83.4,199.7,83.6,199.7,83.7z"/>
						<path class="st81" d="M198.2,83.9c0,0.2-0.3,0.2-0.7,0.1c-0.3-0.1-0.6-0.3-0.5-0.4c0-0.2,0.3-0.2,0.7-0.1
							C198,83.5,198.2,83.7,198.2,83.9z"/>
						<path class="st81" d="M200.5,84.8c0,0.2-0.3,0.2-0.7,0.1c-0.3-0.1-0.6-0.3-0.5-0.4c0-0.2,0.3-0.2,0.7-0.1
							C200.3,84.4,200.5,84.6,200.5,84.8z"/>
					</g>
					<g>
						<circle class="st79" cx="186.7" cy="92.4" r="5.2"/>
						<path class="st80" d="M181.8,94.1c1,2.7,3.9,4.1,6.6,3.2c2.6-0.9,4-3.6,3.3-6.2c-0.7,1.4-1.7,2.5-3.4,3.1
							c-0.4,0.1-1.1,0.1-1.1-0.4c-1.1,0.8-2.7,0.8-3.8,0c-0.6-0.4-1-1-1.6-1.4c-0.1-0.1-0.2-0.1-0.3-0.2
							C181.5,92.8,181.6,93.5,181.8,94.1z"/>
						<g>
							<defs>
								<circle id="SVGID_33_" cx="186.7" cy="92.4" r="5.2"/>
							</defs>
							<clipPath id="SVGID_17_">
								<use xlink:href="#SVGID_33_"  style="overflow:visible;"/>
							</clipPath>
						</g>
						<path class="st81" d="M191.5,92.2c-0.2,0.1-0.4-0.2-0.5-0.5c-0.1-0.3-0.1-0.6,0.1-0.7c0.2-0.1,0.4,0.2,0.5,0.5
							C191.6,91.9,191.6,92.2,191.5,92.2z"/>
						<path class="st81" d="M190.5,91.1c-0.2,0.1-0.4-0.2-0.5-0.5c-0.1-0.3-0.1-0.6,0.1-0.7c0.2-0.1,0.4,0.2,0.5,0.5
							C190.7,90.7,190.6,91,190.5,91.1z"/>
						<path class="st81" d="M191.1,93.5c-0.2,0.1-0.4-0.2-0.5-0.5c-0.1-0.3-0.1-0.6,0.1-0.7c0.2-0.1,0.4,0.2,0.5,0.5
							C191.3,93.2,191.2,93.5,191.1,93.5z"/>
					</g>
					<path class="st82" d="M187.8,81.6l-2.2,9.3l-0.9,0l-2.7-1l1.1-5.4l-2.9,4.8l-4.9-1.8l2.9-10.6l-4.7,10l-1.2-0.4l0.5-5.2
						c0,0-1.1,2.4-2.2,4.6l-9.3-3.4c0.6-2.7,1.2-6,1.3-6.4c0-0.4-1.6,3-2.9,5.7l-3.8-1.4c0.7-2.3,1.5-5.1,1.7-5.5
						c0.2-0.4-1.7,2.5-3.2,4.9l-1.3-0.5l1-4.9l-2.2,4.4l-2.7-1l-0.9-0.7l2.2-4.3l-4,3l-6.4-4.7c0,0,28.5-2.3,36.4,0.2
						c8,2.5,29.5,20.2,29.5,20.2l-2.6,1.8l-14.5-2.7L187.8,81.6z"/>
					<g>
						<circle class="st79" cx="199" cy="93.4" r="5.2"/>
						<path class="st80" d="M194.1,95.1c1,2.7,3.9,4.1,6.6,3.2c2.6-0.9,4-3.6,3.3-6.2c-0.7,1.4-1.7,2.5-3.4,3.1
							c-0.4,0.1-1.1,0.1-1.1-0.4c-1.1,0.8-2.7,0.8-3.8,0c-0.6-0.4-1-1-1.6-1.4c-0.1-0.1-0.2-0.1-0.3-0.2
							C193.8,93.8,193.8,94.5,194.1,95.1z"/>
						<path class="st81" d="M203.7,93.2c-0.2,0.1-0.4-0.2-0.5-0.5c-0.1-0.3-0.1-0.6,0.1-0.7c0.2-0.1,0.4,0.2,0.5,0.5
							C203.9,92.9,203.9,93.2,203.7,93.2z"/>
						<path class="st81" d="M202.7,92.1c-0.2,0.1-0.4-0.2-0.5-0.5c-0.1-0.3-0.1-0.6,0.1-0.7c0.2-0.1,0.4,0.2,0.5,0.5
							C202.9,91.7,202.9,92,202.7,92.1z"/>
						<path class="st81" d="M203.3,94.5c-0.2,0.1-0.4-0.2-0.5-0.5c-0.1-0.3-0.1-0.6,0.1-0.7c0.2-0.1,0.4,0.2,0.5,0.5
							C203.5,94.2,203.5,94.5,203.3,94.5z"/>
					</g>
				</g>
				<ellipse style="clip-path:url(#SVGID_16_);fill:#009CDD;" cx="97.4" cy="50.7" rx="172.1" ry="102.3"/>
				<g style="clip-path:url(#SVGID_16_);">
					<rect x="12.9" y="161.1" class="st84" width="182" height="41.4"/>
					<g>
						<rect x="12.9" y="113.5" class="st85" width="182" height="89"/>
						<rect x="12.9" y="113.5" class="st86" width="182" height="4.8"/>
						<path class="st2" d="M55.8,129H38.7c0.3-0.1,0.7-0.3,0.9-0.6c1.4,0.2,2.9-0.1,4.1-0.8c0.4,0.4,1,0.6,1.6,0.7
							c1.6,0.3,3.2,0.3,4.8,0c0.2,0.5,0.8,0.6,1.4,0.5c0.5,0,1.1-0.1,1.6-0.2C54.1,128.5,54.8,129,55.8,129z"/>
						<path class="st2" d="M107.5,129.3H90.3c0.3-0.1,0.7-0.3,0.9-0.6c1.4,0.2,2.9-0.1,4.1-0.8c0.4,0.4,1,0.6,1.6,0.7
							c1.6,0.3,3.2,0.3,4.8,0c0.2,0.5,0.8,0.6,1.4,0.5c0.5,0,1.1-0.1,1.6-0.2C105.8,128.9,106.4,129.4,107.5,129.3z"/>
						<path class="st2" d="M24.8,140.6H42c-0.3-0.1-0.7-0.3-0.9-0.6c-1.4,0.2-2.9-0.1-4.1-0.8c-0.4,0.4-1,0.6-1.6,0.7
							c-1.6,0.3-3.2,0.3-4.8,0c-0.2,0.5-0.8,0.6-1.4,0.5c-0.5,0-1.1-0.1-1.6-0.2C26.6,140.1,25.9,140.6,24.8,140.6z"/>
						<path class="st2" d="M24.5,122h11.9c-0.2,0-0.5-0.2-0.7-0.4c-1,0.1-2-0.1-2.8-0.6c-0.3,0.3-0.7,0.4-1.1,0.5
							c-1.1,0.2-2.2,0.2-3.3,0c-0.2,0.3-0.6,0.4-0.9,0.4c-0.4,0-0.8,0-1.1-0.1C25.7,121.7,25.2,122,24.5,122z"/>
						<path class="st2" d="M85.7,121.8h11.9c-0.2,0-0.5-0.2-0.7-0.4c-1,0.1-2-0.1-2.8-0.6c-0.3,0.3-0.7,0.4-1.1,0.5
							c-1.1,0.2-2.2,0.2-3.3,0c-0.2,0.3-0.6,0.4-0.9,0.4c-0.4,0-0.8,0-1.1-0.1C86.9,121.5,86.4,121.8,85.7,121.8z"/>
					</g>
					<path class="st87" d="M183.7,129.1c-0.2-3.9,0.7-8.7-3.6-10.2c-3.8-1.3-9.9,0-13.9,0.4c-9.2,0.7-19.6,2.4-27.4,7.6
						c-4.1,2.5-7.8,5.6-11.9,8c-16.6,9.5-37.4,5.3-56.3,8.8c-15.1,2.8-29.1,10.6-44.4,12.1c-4.5,0.4-9,0.3-13.4,1.2v45.6H153
						c5.9-3.8,11.1-8.6,14.8-14.6c3.1-5,5.1-10.7,6.9-16.3c2-6,3.9-12,5.8-18.1c1.3-4.1,2.6-8.3,3.1-12.6
						C184.2,137,183.9,133,183.7,129.1z"/>
					<path class="st88" d="M161.2,118.6c-3.4,0.9-6.7,1.9-9.8,3.7c-4.8,2.8-8.3,7.2-12.7,10.6c-21.6,17.1-56,6.9-78.1,23.3
						c-4.4,3.3-8.1,7.5-12.8,10.2c-10.3,6-23,3.8-35,5v31.1h60.4c15.3-3,30.5-7,45.4-11.5c9.9-3,19.9-6.3,28.4-12.1
						c8.5-5.8,15.1-13.8,21.7-21.8c5.3-6.4,10.6-12.8,15.9-19.2c2.5-3.1,5.1-6.3,6.2-10.1C195.4,110,169.7,116.4,161.2,118.6z"/>
					<path class="st89" d="M186.1,114.9c-8.7,1.1-17.5,3.3-24.8,8.5c-4.1,3-7.5,6.8-11.4,9.9c-11.8,9.6-27.5,13-42.6,14.4
						c-10.1,0.9-20.6,1.3-29.6,6.1c-5.9,3.2-10.6,8.1-15.7,12.3c-5.7,4.7-12.1,8.7-19,11.7c-9.2,4.1-19.2,6.5-28.7,9.9v14.7h182
						v-88.6C193.4,113.5,188,114.7,186.1,114.9z"/>
					<g>
						<path class="st2" d="M82.4,86.4c-0.2-1-1-1.8-2-1.8c-0.2,0-0.3,0-0.5,0.1c-0.3-1.9-1.9-3.3-3.7-3.3c-1.5,0-2.7,0.9-3.3,2.3
							c-0.2-0.1-0.4-0.1-0.7-0.1c-1,0-1.9,0.5-2.5,1.3c-0.3-0.2-0.6-0.3-1-0.3c-1,0-1.8,0.8-2,1.8H82.4z"/>
						<path class="st2" d="M162.3,69.2H114c1.4-1.8,4.2-2.4,6.2-1.2c0.9-1.3,3-1.7,4.4-0.8c0.7-1.5,2.8-2.2,4.2-1.3
							c0.7-1.6,2.2-2.6,3.7-3.5c0.5-0.3,1.1-0.7,1.7-0.9c1.2-0.3,2.6,0.2,3.5,1c2-1.5,5.3-0.4,5.9,2c2.9-0.6,6.1,0.9,7.6,3.5
							c1.8,0.7,4-0.5,5.5,0.6C158.7,67.8,160.7,67.9,162.3,69.2z"/>
						<path class="st2" d="M128.3,102.4H89.4c1.2-1.5,3.5-2.3,5.2-1.3c0.1-0.7,0.9-1.1,1.6-1.1c0.7,0,1.2,0.3,1.8,0.6
							c0.9-2.1,3.9-2.8,5.7-1.5c0.5-0.9,1.6-1.6,2.6-1.6c1.1-0.1,2.5,0.3,3.2,1.2c1.3-1.9,3.8-3,6.2-2.6c2.3,0.4,4.3,2.3,4.9,4.6
							C123.6,100.2,125.4,101,128.3,102.4z"/>
						<path class="st2" d="M41.6,90H17.7c0.8-0.9,2.2-1.4,3.2-0.8c0.1-0.4,0.5-0.7,1-0.7c0.4,0,0.7,0.2,1.1,0.4
							c0.6-1.3,2.4-1.7,3.5-0.9c0.3-0.6,1-1,1.6-1c0.7,0,1.5,0.2,1.9,0.7c0.8-1.2,2.4-1.8,3.8-1.6c1.4,0.3,2.6,1.4,3,2.8
							C38.8,88.6,39.9,89.1,41.6,90z"/>
						<path class="st2" d="M55,65.4c-0.2-0.4-0.2-0.9-0.7-1.1c-0.3-0.2-0.6-0.1-1-0.1c-0.8,0.1-1.2,0.2-2,0.5
							c-0.4-0.7-1-1.3-1.7-1.7c-0.6-0.3-1.4-0.4-1.7,0.1c-1-0.5-2.1-0.8-3.2-0.6c-0.5,0.1-1.2,0.4-1.1,0.9c0,0-0.1,0-0.1,0
							c-0.4-2.2-2.2-3.8-4.3-3.8c-1.7,0-3.2,1.1-4,2.7c-0.3-0.1-0.5-0.1-0.8-0.1c-1.2,0-2.2,0.6-2.9,1.6c-0.3-0.2-0.7-0.3-1.2-0.3
							c-1.2,0-2.1,0.9-2.3,2.1h18.3c0,0,0,0,0,0H55z"/>
					</g>
					<g class="st90">
						<g>
							<path class="st91" d="M93.7,177.9c1.2,0,1.2-1.8,0-1.8C92.5,176.1,92.5,177.9,93.7,177.9L93.7,177.9z"/>
						</g>
						<g>
							<path class="st91" d="M101.3,179c1.2,0,1.2-1.8,0-1.8C100.1,177.2,100.1,179,101.3,179L101.3,179z"/>
						</g>
						<g>
							<path class="st91" d="M107.5,177.2c1.2,0,1.2-1.8,0-1.8C106.3,175.4,106.3,177.2,107.5,177.2L107.5,177.2z"/>
						</g>
						<g>
							<path class="st91" d="M119.9,169.9c1.2,0,1.2-1.8,0-1.8C118.7,168.1,118.7,169.9,119.9,169.9L119.9,169.9z"/>
						</g>
						<g>
							<path class="st91" d="M136.3,147.9c1.2,0,1.2-1.8,0-1.8C135.1,146.1,135.1,147.9,136.3,147.9L136.3,147.9z"/>
						</g>
						<g>
							<path class="st91" d="M112.2,186.3c1.2,0,1.2-1.8,0-1.8C111.1,184.5,111.1,186.3,112.2,186.3L112.2,186.3z"/>
						</g>
						<g>
							<path class="st91" d="M81.7,186.3c1.2,0,1.2-1.8,0-1.8C80.5,184.5,80.5,186.3,81.7,186.3L81.7,186.3z"/>
						</g>
						<g>
							<path class="st91" d="M81.3,175c1.2,0,1.2-1.8,0-1.8C80.1,173.2,80.1,175,81.3,175L81.3,175z"/>
						</g>
						<g>
							<path class="st91" d="M61.3,187.8c1.2,0,1.2-1.8,0-1.8C60.1,185.9,60.1,187.8,61.3,187.8L61.3,187.8z"/>
						</g>
						<g>
							<path class="st91" d="M46.7,190.7c1.2,0,1.2-1.8,0-1.8C45.6,188.8,45.6,190.7,46.7,190.7L46.7,190.7z"/>
						</g>
						<g>
							<path class="st91" d="M88.9,166.6c1.2,0,1.2-1.8,0-1.8C87.8,164.8,87.8,166.6,88.9,166.6L88.9,166.6z"/>
						</g>
						<g>
							<path class="st91" d="M141,170.3c1.2,0,1.2-1.8,0-1.8C139.8,168.5,139.8,170.3,141,170.3L141,170.3z"/>
						</g>
						<g>
							<path class="st91" d="M153.7,182.3c1.2,0,1.2-1.8,0-1.8C152.6,180.5,152.6,182.3,153.7,182.3L153.7,182.3z"/>
						</g>
						<g>
							<path class="st91" d="M135.9,181.6c1.2,0,1.2-1.8,0-1.8C134.7,179.8,134.7,181.6,135.9,181.6L135.9,181.6z"/>
						</g>
						<g>
							<path class="st91" d="M129,166.6c1.2,0,1.2-1.8,0-1.8C127.8,164.8,127.8,166.6,129,166.6L129,166.6z"/>
						</g>
						<g>
							<path class="st91" d="M163.2,161.7c0.9,0,0.9-1.4,0-1.4C162.3,160.3,162.3,161.7,163.2,161.7L163.2,161.7z"/>
						</g>
						<g>
							<path class="st91" d="M174.1,161.7c0.9,0,0.9-1.4,0-1.4C173.2,160.3,173.2,161.7,174.1,161.7L174.1,161.7z"/>
						</g>
						<g>
							<path class="st91" d="M111.5,159.3c0.6,0,0.6-0.9,0-0.9C110.9,158.4,110.9,159.3,111.5,159.3L111.5,159.3z"/>
						</g>
						<g>
							<path class="st91" d="M162.1,140.4c0.6,0,0.6-0.9,0-0.9C161.5,139.5,161.5,140.4,162.1,140.4L162.1,140.4z"/>
						</g>
						<g>
							<path class="st91" d="M113.3,164.7c0.6,0,0.6-0.9,0-0.9C112.7,163.8,112.7,164.7,113.3,164.7L113.3,164.7z"/>
						</g>
						<g>
							<path class="st91" d="M106.8,165.5c0.6,0,0.6-0.9,0-0.9C106.2,164.6,106.2,165.5,106.8,165.5L106.8,165.5z"/>
						</g>
						<g>
							<path class="st91" d="M116.6,151.4c0.6,0,0.6-0.9,0-0.9C116,150.5,116,151.4,116.6,151.4L116.6,151.4z"/>
						</g>
						<g>
							<path class="st91" d="M105,155.6c0.6,0,0.6-0.9,0-0.9C104.4,154.7,104.4,155.6,105,155.6L105,155.6z"/>
						</g>
						<g>
							<path class="st91" d="M187.9,122.1c0.6,0,0.6-0.9,0-0.9C187.4,121.2,187.4,122.1,187.9,122.1L187.9,122.1z"/>
						</g>
						<g>
							<path class="st91" d="M176.3,138.6c0.6,0,0.6-0.9,0-0.9C175.7,137.7,175.7,138.6,176.3,138.6L176.3,138.6z"/>
						</g>
						<g>
							<path class="st91" d="M92.6,156.4c0.6,0,0.6-0.9,0-0.9C92,155.5,92,156.4,92.6,156.4L92.6,156.4z"/>
						</g>
						<g>
							<path class="st91" d="M78.4,162.6c0.6,0,0.6-0.9,0-0.9C77.8,161.6,77.8,162.6,78.4,162.6L78.4,162.6z"/>
						</g>
						<g>
							<path class="st91" d="M161.4,132.4c0.6,0,0.6-0.9,0-0.9C160.8,131.5,160.8,132.4,161.4,132.4L161.4,132.4z"/>
						</g>
						<g>
							<path class="st91" d="M139.5,143c0.6,0,0.6-0.9,0-0.9C138.9,142.1,138.9,143,139.5,143L139.5,143z"/>
						</g>
						<g>
							<path class="st91" d="M72.2,173.5c0.6,0,0.6-0.9,0-0.9C71.6,172.6,71.6,173.5,72.2,173.5L72.2,173.5z"/>
						</g>
						<g>
							<path class="st91" d="M69.3,179.7c0.6,0,0.6-0.9,0-0.9C68.7,178.7,68.7,179.7,69.3,179.7L69.3,179.7z"/>
						</g>
						<g>
							<path class="st91" d="M63.5,176.7c0.6,0,0.6-0.9,0-0.9C62.9,175.8,62.9,176.7,63.5,176.7L63.5,176.7z"/>
						</g>
						<g>
							<path class="st91" d="M51.5,182.2c0.6,0,0.6-0.9,0-0.9C50.9,181.3,50.9,182.2,51.5,182.2L51.5,182.2z"/>
						</g>
						<g>
							<path class="st91" d="M42.7,187.7c0.6,0,0.6-0.9,0-0.9C42.1,186.8,42.1,187.7,42.7,187.7L42.7,187.7z"/>
						</g>
						<g>
							<path class="st91" d="M35.1,189.1c0.6,0,0.6-0.9,0-0.9C34.5,188.2,34.5,189.1,35.1,189.1L35.1,189.1z"/>
						</g>
						<g>
							<path class="st91" d="M134.8,154.9c0.6,0,0.6-0.9,0-0.9C134.2,154,134.2,154.9,134.8,154.9L134.8,154.9z"/>
						</g>
						<g>
							<path class="st91" d="M145.4,158.9c0.6,0,0.6-0.9,0-0.9C144.8,158,144.8,158.9,145.4,158.9L145.4,158.9z"/>
						</g>
						<g>
							<path class="st91" d="M168.3,176c0.6,0,0.6-0.9,0-0.9C167.7,175.1,167.7,176,168.3,176L168.3,176z"/>
						</g>
						<g>
							<path class="st91" d="M170.5,189.1c0.6,0,0.6-0.9,0-0.9C169.9,188.2,169.9,189.1,170.5,189.1L170.5,189.1z"/>
						</g>
						<g>
							<path class="st91" d="M120.6,183.3c0.6,0,0.6-0.9,0-0.9C120,182.4,120,183.3,120.6,183.3L120.6,183.3z"/>
						</g>
						<g>
							<path class="st91" d="M155.2,172c0.6,0,0.6-0.9,0-0.9C154.6,171.1,154.6,172,155.2,172L155.2,172z"/>
						</g>
						<g>
							<path class="st91" d="M152.3,163.6c0.6,0,0.6-0.9,0-0.9C151.7,162.7,151.7,163.6,152.3,163.6L152.3,163.6z"/>
						</g>
						<g>
							<path class="st91" d="M153,150.5c0.6,0,0.6-0.9,0-0.9C152.4,149.6,152.4,150.5,153,150.5L153,150.5z"/>
						</g>
						<g>
							<path class="st91" d="M175.2,152.7c0.6,0,0.6-0.9,0-0.9C174.6,151.8,174.6,152.7,175.2,152.7L175.2,152.7z"/>
						</g>
						<g>
							<path class="st91" d="M186.8,156c0.6,0,0.6-0.9,0-0.9C186.3,155.1,186.3,156,186.8,156L186.8,156z"/>
						</g>
						<g>
							<path class="st91" d="M187.2,168.4c0.6,0,0.6-0.9,0-0.9C186.6,167.5,186.6,168.4,187.2,168.4L187.2,168.4z"/>
						</g>
						<g>
							<path class="st91" d="M179.2,169.5c0.6,0,0.6-0.9,0-0.9C178.6,168.6,178.6,169.5,179.2,169.5L179.2,169.5z"/>
						</g>
						<g>
							<path class="st91" d="M186.8,181.1c0.6,0,0.6-0.9,0-0.9C186.3,180.2,186.3,181.1,186.8,181.1L186.8,181.1z"/>
						</g>
						<g>
							<path class="st91" d="M189.4,189.1c0.6,0,0.6-0.9,0-0.9C188.8,188.2,188.8,189.1,189.4,189.1L189.4,189.1z"/>
						</g>
					</g>
				</g>
			</g>
			<g>
				<defs>
					<path id="SVGID_35_" d="M104.9,3.4c-2.7,3.3-0.4,10.3,5.6,18.9c-11.2-4.8-19.8-5.8-23.1-1.8c-0.8,0.9-1.3,2.1-1.4,3.5
						c-16-8.8-28.8-11.8-33.1-6.7c-3.8,4.5-0.2,14.5,8.6,26.6c-12.5-7.2-22.6-9.9-25.9-6c-3.1,3.7,0.7,12.5,9,22.9
						c-4.4-1-7.6-0.7-9.3,1.2c-1.6,1.9-1.4,5.2,0.4,9.3c-12.9-7.6-23.4-10.5-26.8-6.5c-3.2,3.8,1,13.1,9.9,24
						c-3-0.3-5.3,0.2-6.5,1.7c-3.1,3.7,0.6,12.2,8.7,22.4c-1.6,0.3-3,1-3.9,2c-5.7,6.8,7.1,26.8,28.5,44.8
						c21.4,18,43.4,27.1,49.1,20.3c0.7-0.8,1.1-1.9,1.3-3.1c15.2,9.9,28.1,14.2,31.9,9.7c0.8-1,1.2-2.3,1.1-4
						c8.5,3.8,15,4.7,17.5,1.7c3.6-4.2-1.9-15.1-12.9-27.4c10.2,5.1,18.1,6.6,20.9,3.3c1.4-1.7,1.4-4.4,0.2-7.8
						c16.2,9,29.2,12.1,33.5,6.9c6.1-7.2-6.8-28.4-29.6-50.1c0.8-0.4,1.4-0.9,1.9-1.5c0.8-0.9,1.3-2.1,1.4-3.5
						c16,8.8,28.8,11.8,33.1,6.7c4.9-5.8-2.5-20.8-17.6-37.7c4.1,0.8,7.2,0.4,8.7-1.5c5.3-6.3-8.6-26.8-31.1-45.7
						C132.7,7.2,110.2-2.9,104.9,3.4z"/>
				</defs>
				<clipPath id="SVGID_18_">
					<use xlink:href="#SVGID_35_"  style="overflow:visible;"/>
				</clipPath>
				<g style="clip-path:url(#SVGID_18_);">
					<g>
						<g>
							<defs>
								<circle id="SVGID_37_" cx="186.7" cy="92.4" r="5.2"/>
							</defs>
							<clipPath id="SVGID_19_">
								<use xlink:href="#SVGID_37_"  style="overflow:visible;"/>
							</clipPath>
						</g>
					</g>
				</g>
			</g>
		</g>
		<g>
			<g>
				<path class="st69" d="M192.9,93.9l-4.8,3.8l-2.9-2.3l3.3-4.6l-4.8,3.4l-3.6-2.9l5.9-11.4c0,0-5.1,7.2-7.6,10l-9.2-7.5
					c1.7-3.3,4.5-8.6,4.3-8.2c-0.2,0.5-4.9,4.1-7.2,5.8l-0.6-0.5l-3.4-2.7l2.5-6.9c0,0-2.4,3.5-4,5.7l-1.5-1.2
					c0.1-2.7,0.3-6.2,0.3-6.2s-1.3,2.7-2.3,4.6l-1.4-1.1c-0.1-1.8-0.2-3.8-0.2-3.8s-1.2,0.6-2.8,1.4l-5.2-4.2c0,0,14.1-2.1,30.9,4.7
					c16.8,6.8,17.6,31.5,17.6,31.5l-2.6,1.1l-4-3.3L192.9,93.9z"/>
			</g>
			<g>
				<path class="st71" d="M191.9,102.7l0-0.7l3-2.8l-2.9-0.7l0.4-8.7l6.4-1.1l-6.4-0.9l0.1-2.4l9-1.2l-8.9-1.1l0-0.9l9.2,0.3
					l-9.2-1.4l0.5-12c3.3-0.7,9.3-1.9,9.1-2c-0.3,0-5.7-0.5-9-0.8l0.1-3l6.7-1.4l-6.6-1.6l0.1-3l3.8,0l-3.8-0.7l0-0.3l5.3-0.7
					l-5.2-1l0.3-7.8c0,0,13.5,13.6,14.2,20.3c0.6,5.4-3.5,20.4-5.2,26.1c-0.4,1.4-1.1,2.7-2.1,3.9l-9.7,11.5l3-7.3L191.9,102.7z"/>
				<path class="st72" d="M194.2,103.9c0.5-0.3,1.8-1.1,3.4-2.2l3.7-4.3c1-1.1,1.7-2.5,2.1-3.9c0.8-2.9,2.3-8.1,3.4-13.4l-7.9,8.7
					l0,0l0,0l-6.7,7.3l-0.1,2.4l2.9,0.7l-3,2.8l0,0.7l2.8-1.2l-1,2.5C193.9,104,194.1,104,194.2,103.9z"/>
			</g>
			<path class="st69" d="M209.4,145.9l3,4.9l3.3-5.3c1.4-2.2,0.8-9.3,0.7-9.7c-1.5-6.1-4.3-21.6-7.7-26.3
				c-4.2-5.9-24.1-11.2-24.1-11.2l3.9,7.4l5.4-1.8l-4.5,3.5l0.1,0.2l3.9-1.4l-3.5,2.1l1.5,2.9l7-2.1l-5.5,4.9l1.5,2.8
				c3.2-1.5,8.5-4,8.8-4.1c0.3-0.1-4.7,4.3-7.4,6.7l6,11.4l9.2-3.7l-8.7,4.6l0.4,0.9l8.8-3.8l-7.7,6l1.2,2.3l6.4-2.6l-5.4,4.4
				L209.4,145.9z"/>
			<path class="st70" d="M192.3,110.3l3.1,1c1.3,2.4,2.5,5,3.5,7.7l-6-2.3l6.7,4.7c0.4,1.3,0.6,2.7,0.7,3.9l-7.1-3.2l7.1,6.4
				c-0.1,0.9-0.2,1.8-0.3,2.7l-4.7-4.7l4.6,5.6c-0.1,0.8-0.3,1.7-0.5,2.5c-1.9-1.3-4.3-2.6-4.3-2.6l3.9,4.5c0,0.2-0.1,0.3-0.1,0.5
				l-3.8-2.2c0,0,1.9,1.6,3.6,2.9c-0.1,0.3-0.1,0.6-0.2,0.8c-1.6-1.2-3.6-2.5-3.6-2.5s1.6,2.2,3.1,4.1c-0.3,0.9-0.5,1.7-0.8,2.5
				c-1.1-2-2.3-4.1-2.3-4.1l1.7,5.9c-0.6,1.8-1.1,2.8-1.1,2.8s-0.6-0.6-1.4-1.8l0.1-6.4l-0.7,5.6c-0.2-0.3-0.4-0.7-0.7-1
				c0.3-2.2,0.6-4.8,0.6-4.8l-1.1,4.1c-0.5-0.8-1-1.8-1.6-2.9c1.2-2.1,2.6-4.4,2.6-4.4l-3.4,2.6c-0.4-0.8-0.7-1.7-1.1-2.6l3.7-4.6
				c0,0-3,1.5-4.6,2.2c-0.2-0.6-0.4-1.1-0.5-1.7c-0.5-1.8-0.9-3.7-1-5.6l5.2-3.8l-5.3,2.9c0-0.4-0.1-0.9-0.1-1.3l4.7-2.5l-4.7,1.2
				c0-2.2,0.2-4.4,0.5-6.2l0.4-2.3c0.5-2.7,1.1-4.4,1.1-4.4l1.8-6.9c0,0,2.2,3,4.6,7.1L192.3,110.3z"/>
			<g>
				<path class="st73" d="M166.1,161.3c-1.5-3.9-2.8-7.9-3.6-12c-0.5-2.8-1-5.6-1.1-8.4c-0.1-1.4-0.1-2.8-0.1-4.2
					c0-0.7,0.1-1.4,0.2-2.1c0-0.3,0-0.7,0.1-1l0.2-1c0.4-2.8,1.1-5.5,2.2-8.1c1.1-2.6,2.5-5,4.3-7.3c1.8-2.2,3.9-4.2,6.2-6
					c1.2-0.9,2.4-1.7,3.7-2.4c0.6-0.4,1.3-0.7,1.9-1c0.6-0.3,1.3-0.6,2-0.8l-0.5-1.8c-0.8,0.2-1.5,0.4-2.3,0.7
					c-0.7,0.3-1.5,0.5-2.2,0.8c-1.4,0.6-2.8,1.3-4.2,2.1c-2.7,1.6-5.3,3.5-7.5,5.8c-2.3,2.3-4.2,4.9-5.8,7.7c-1.6,2.8-2.8,5.9-3.6,9
					l-0.3,1.2c-0.1,0.4-0.2,0.8-0.2,1.2c-0.1,0.8-0.3,1.6-0.5,2.4c-0.2,1.6-0.4,3.2-0.5,4.8c-0.2,3.2-0.1,6.4,0.2,9.6
					c0.5,4.8,1.4,9.4,2.6,14L166.1,161.3z"/>
				<g>
					<path class="st74" d="M160.4,120.7c1.7,0.3,3.4,0.5,5.1,0.5c0.3-0.5,0.5-0.9,0.8-1.3c-1.1-0.4-2.1-0.9-3.1-1.5
						c1.2,0.3,2.5,0.5,3.8,0.4c0.4-0.5,0.7-1,1.1-1.5c-1.3-0.5-2.5-1.1-3.6-2c-0.2,0.2-0.4,0.4-0.5,0.6c1.1,0.9,2.3,1.5,3.6,2
						c-1.6,0.2-3.3,0-4.9-0.6c-0.3,0.4-0.6,0.7-0.9,1.1c1.1,0.7,2.3,1.4,3.5,1.9c-1.5,0-3.1-0.2-4.6-0.4
						C160.7,120.2,160.6,120.5,160.4,120.7z"/>
					<path class="st74" d="M174.2,111.4c-0.6-0.8-1.2-1.6-1.8-2.4l2.2,2.1c0.2-0.2,0.4-0.3,0.7-0.5l-2.2-2c-0.1,0.1-0.2,0.1-0.3,0.2
						c-0.4,0.2-0.7,0.4-1.1,0.7c0.6,0.8,1.2,1.6,1.8,2.5C173.8,111.8,174,111.6,174.2,111.4z"/>
					<path class="st74" d="M172.1,113.1c-0.4-0.4-0.7-0.8-1.1-1.3c0.4,0.4,0.9,0.7,1.4,1c0.2-0.2,0.4-0.4,0.6-0.5
						c-0.9-0.7-1.7-1.3-2.6-2c-0.4,0.3-0.7,0.5-1.1,0.8c0.7,0.9,1.5,1.7,2.2,2.6C171.7,113.5,171.9,113.3,172.1,113.1z"/>
					<path class="st74" d="M164.4,156.6c-0.1-0.3-0.2-0.5-0.3-0.8c-2.6,1.7-5.2,3.3-8,4.6c0.1,0.3,0.1,0.5,0.2,0.8
						C159.1,159.9,161.8,158.3,164.4,156.6z"/>
					<path class="st74" d="M177,106.7c-0.1,0-0.1,0.1-0.2,0.1c0.5,0.7,0.9,1.4,1.3,2.1c0.2-0.1,0.5-0.3,0.7-0.4
						c-0.4-0.7-0.8-1.3-1.3-2C177.4,106.6,177.2,106.6,177,106.7z"/>
					<path class="st74" d="M161.1,151.4c0.5-0.3,1-0.6,1.6-0.9c-0.1-0.4-0.2-0.8-0.3-1.2c0-0.1,0-0.3-0.1-0.4
						c-2.6,0.4-5.3,0.3-8-0.1c0,0.3,0,0.6,0.1,0.8c2.6,0.4,5.3,0.5,7.8,0.1c-0.5,0.3-1,0.6-1.5,0.9c-2,1.1-3.9,2.3-5.8,3
						c0,0.3,0.1,0.5,0.1,0.8C157.1,153.7,159.2,152.6,161.1,151.4z"/>
					<path class="st74" d="M154.3,147.6c2.5-0.6,5-1.5,7.4-2.3c-0.1-0.5-0.1-0.9-0.2-1.4c-2.5,0.2-4.9,0.1-7.3-0.4
						c0,0.3,0,0.6,0,0.8c2.2,0.4,4.4,0.6,6.6,0.4c-2.1,0.8-4.3,1.5-6.5,2C154.3,147.1,154.3,147.4,154.3,147.6z"/>
					<path class="st74" d="M155.5,132.5c-0.1,0.2-0.1,0.5-0.2,0.7c2,0.4,4.1,0.7,6.1,0.9c0-0.2,0-0.3,0.1-0.5l0-0.3
						c-1.1-0.1-2.2-0.3-3.3-0.4l3.5-0.3c0.1-0.7,0.2-1.4,0.4-2l-5.4-0.6c2-0.3,3.9-0.7,5.8-1.3c0.1-0.3,0.2-0.7,0.3-1
						c-1.7,0.1-3.3-0.4-4.9-1.2c1.8,0.3,3.8,0.1,5.5-0.6c0.2-0.4,0.3-0.9,0.5-1.3c0-0.1,0.1-0.1,0.1-0.2c-1.6-0.6-3-1.5-4.2-2.6
						c-0.1,0.2-0.2,0.4-0.3,0.6c0,0,0,0.1-0.1,0.1c1.2,1.1,2.5,1.9,4,2.5c-1.7,0.7-3.7,0.9-5.6,0.6c-0.2,0.5-0.4,1-0.6,1.4
						c1.1,0.6,2.3,1,3.4,1.3c-1.4,0.4-2.8,0.6-4.2,0.8c-0.2,0.5-0.3,1-0.5,1.5l5.7,0.7l-6.1,0.6L155.5,132.5z"/>
					<path class="st74" d="M175.8,110.3c0.2-0.2,0.5-0.3,0.7-0.4c-0.2-0.3-0.4-0.6-0.6-1c0.3,0.3,0.6,0.5,0.9,0.8
						c0.2-0.1,0.5-0.3,0.7-0.4c-0.7-0.6-1.4-1.2-2-1.8c-0.4,0.2-0.8,0.4-1.2,0.6C174.8,108.8,175.3,109.5,175.8,110.3z"/>
					<path class="st74" d="M169.4,115.8c0.2-0.2,0.4-0.4,0.6-0.6c-0.3-0.3-0.7-0.6-1-0.9c0.3,0.3,0.7,0.6,1,0.9
						c0.2-0.2,0.4-0.4,0.6-0.6c-0.5-0.4-1.1-0.9-1.6-1.4l-1-0.9c-0.4,0.3-0.7,0.6-1,0.9C167.6,114.1,168.5,115,169.4,115.8z"/>
					<path class="st74" d="M160.6,163.3l4.4-1.6c0.3-0.2,0.7-0.3,1-0.5c-0.1-0.3-0.2-0.5-0.3-0.8c-1.3,0.7-2.7,1.3-4.1,1.7l0.5-0.2
						c1.2-0.5,2.3-1,3.5-1.5c-0.1-0.3-0.2-0.5-0.3-0.8c-1.2,0.5-2.4,1-3.5,1.5l-4.5,1.8c-0.2,0-0.5,0-0.7,0.1c0.1,0.3,0.2,0.7,0.3,1
						l0.6-0.2C158.5,163.7,159.6,163.5,160.6,163.3z"/>
					<path class="st74" d="M154.2,143.1c2.4-0.5,4.8-1.1,7.1-1.8c0-0.1,0-0.3,0-0.4c0-0.2,0-0.3,0-0.5c-2.3,0.7-4.7,1.3-7,1.8
						C154.2,142.5,154.2,142.8,154.2,143.1z"/>
					<path class="st74" d="M163.9,154.9c-2.8,0.7-5.8,1-8.7,0.7c0,0.3,0.1,0.6,0.1,0.8c2.9,0.2,5.9,0,8.8-0.8
						C164,155.4,163.9,155.2,163.9,154.9z"/>
					<path class="st74" d="M161.3,137.7c-2.2-0.3-4.3-0.8-6.5-1.5c0,0.3-0.1,0.5-0.1,0.8c2.2,0.6,4.4,1.1,6.6,1.5
						C161.3,138.2,161.3,138,161.3,137.7z"/>
					<path class="st74" d="M164.8,115.1c1.3,0.6,2.6,1.1,3.9,1.5c0.2-0.2,0.4-0.4,0.6-0.7c-1.3-0.5-2.6-1-3.9-1.5
						c0,0-0.1,0.1-0.1,0.1C165.1,114.7,164.9,114.9,164.8,115.1z"/>
					<path class="st74" d="M154.8,135.9c2.2-0.3,4.4-0.5,6.5-0.7c0-0.2,0-0.4,0-0.6c0-0.1,0-0.2,0-0.3c-2.2,0.2-4.3,0.4-6.5,0.7
						C154.9,135.3,154.9,135.6,154.8,135.9z"/>
				</g>
				<g>
					<path class="st75" d="M181.5,105.2c-0.8,0.2-1.5,0.4-2.3,0.7c-0.2,0.1-0.3,0.1-0.5,0.2l1,2c0.1,0,0.2-0.1,0.3-0.2
						c0.3-0.1,0.6-0.3,0.9-0.4c0.3-0.7,0.5-1.3,0.7-2L181.5,105.2z"/>
					<path class="st75" d="M162.7,123.9c0,0,0.7-0.3,1.9-0.9c0.6-1.2,1.2-2.3,2-3.4l0.5-1c0,0,0,0.1-0.1,0.4
						c0.4-0.5,0.8-1.1,1.2-1.6c1.6-2.1,3.6-3.9,5.7-5.6l0-0.1l0,0.1c0.2-0.1,0.3-0.3,0.5-0.4c0.3-0.2,0.6-0.5,1-0.7l-0.2-2.7
						l0.9,2.2c0.6-0.4,1.3-0.8,2-1.2c0.2-0.1,0.5-0.3,0.7-0.4l-0.5-2.3c-0.4,0.2-0.9,0.3-1.3,0.5c-1.4,0.6-2.8,1.3-4.2,2.1
						c-1.7,1-3.4,2.1-4.9,3.4c1,0.3,2,0.6,2,0.6l-3.2,0.4c-0.5,0.4-0.9,0.8-1.4,1.3c-0.3,0.3-0.5,0.5-0.7,0.8c0,0.1-0.1,0.2-0.1,0.2
						l3.4,0.3c0,0-2.1,0.6-3.9,1.1c-0.3,0.9-0.5,1.8-0.7,2.6l2.9-1.8c0,0-1.6,1.3-3,2.5c-0.1,0.3-0.1,0.7-0.2,1l3.5-2.9l-3.6,3.7
						C162.7,123.2,162.7,123.9,162.7,123.9z"/>
				</g>
			</g>
			<g>
				<path class="st69" d="M193.6,104l-0.6,0.2l-3.6-1.9l0.3,2.9l-8.3,2.5l-3.1-5.7l1.2,6.3l-2.3,0.7l-4.1-8.1l1.9,8.8l-0.9,0.3
					l-2.7-8.8l1.7,9.1l-11.5,3.4c-1.7-2.9-4.9-8.2-4.8-7.9c0,0.3,1.4,5.6,2.1,8.7l-2.9,0.8l-3.5-5.9l0.7,6.8l-2.9,0.9l-1.3-3.6
					l0.6,3.8l-0.2,0.1l-2.4-4.8l0.7,5.2l-7.5,2.2c0,0,8.4-17.2,14.6-20c4.9-2.3,20.5-3.3,26.4-3.6c1.5-0.1,3,0.2,4.3,0.7l14,5.4
					l-7.9-0.5L193.6,104z"/>
				<path class="st76" d="M189.6,105.2l-0.3-2.9l3.6,1.9l0.6-0.2l-2-2.2l7.9,0.5l-14-5.4c-1.4-0.5-2.9-0.8-4.3-0.7
					c-2.8,0.1-7.9,0.5-12.9,1c0.9,3.5,2,7.5,2,7.7c0.1,0.2,0.7-1.5,1.2-3.2l-0.1-0.7l0.2,0.5c0.6-1.7,1.1-3.4,1.1-3.4s3.4,7.6,3.5,8
					c0.1,0.4,0.8-6.2,1-6.6c0.2-0.4,4,2.6,4,2.6s1.5,3,1.6,3.4c0.1,0.4,0.5-1.8,0.5-1.8l4.4,2L189.6,105.2z"/>
			</g>
			<path class="st77" d="M225,78.6l-5.8-7.2l-0.8,0.3l-2,2l3.2,4.3l-4.5-3l-3.6,3.6l6.9,8.1l-8.2-6.8l-0.9,0.9l2.6,4.3
				c0,0-2-1.6-3.8-3.2l-6.7,6.8c1.6,2.2,3.6,4.8,3.7,5.1c0.2,0.3-2.7-2-4.9-3.8l-2.8,2.8c1.5,1.7,3.4,3.8,3.7,4.1
				c0.3,0.3-2.5-1.5-4.9-3l-0.9,0.9l2.9,3.9l-3.8-3l-2,2l-0.5,0.9l3.7,2.9l-4.7-1l-3.6,6.8c0,0,26-9.7,31.9-15.3
				c5.9-5.5,15.4-27.1,15.4-27.1l-12.5,5.1L225,78.6z"/>
			<path class="st78" d="M188.3,106.4l1.5,2.8c-0.7,2.6-1.6,5.4-2.7,8l-2.8-5.7l1.7,8c-0.7,1.2-1.4,2.4-2.2,3.4l-3-7.2l0.8,9.5
				c-0.7,0.6-1.4,1.2-2.1,1.7l-0.3-6.6l-0.5,7.2c-0.7,0.5-1.4,1-2,1.5c-0.5-2.2-1.3-4.9-1.3-4.9l-0.2,5.9c-0.1,0.1-0.3,0.2-0.4,0.3
				l-1.3-4.2c0,0,0.3,2.5,0.6,4.6c-0.2,0.2-0.5,0.3-0.7,0.5c-0.4-2-0.9-4.2-0.9-4.2s-0.3,2.7-0.6,5.1c-0.8,0.5-1.6,0.9-2.2,1.3
				c0.6-2.2,1.2-4.6,1.2-4.6l-2.8,5.5c-1.7,0.9-2.7,1.3-2.7,1.3s0-0.8,0.2-2.3l4.5-4.6l-4.3,3.6c0.1-0.4,0.1-0.8,0.2-1.2
				c1.7-1.4,3.8-3.1,3.8-3.1l-3.6,2.2c0.2-1,0.5-2,0.8-3.2c2.3-0.7,4.9-1.4,4.9-1.4l-4.3-0.4c0.3-0.8,0.6-1.7,1-2.6l5.8-0.8
				c0,0-3.2-1-4.8-1.5c0.2-0.5,0.5-1.1,0.8-1.6c0.9-1.7,1.9-3.3,3-4.8l6.4,0.8l-5.8-1.6c0.3-0.3,0.6-0.7,0.9-1l5.1,1.4l-4.3-2.3
				c1.5-1.6,3.1-3,4.6-4.2l1.9-1.4c2.2-1.6,3.8-2.5,3.8-2.5l6-3.8c0,0-0.4,3.7-1.6,8.3L188.3,106.4z"/>
			<g>
				<path class="st79" d="M182.8,114c-2.2-1-3.2-3.7-2.2-5.9c1-2.2,3.7-3.2,5.9-2.2c2.2,1,3.2,3.7,2.2,5.9
					C187.7,114.1,185.1,115.1,182.8,114z"/>
				<path class="st80" d="M180.6,108.1c-1,2.2-0.1,4.9,2.2,5.9c2.1,1,4.6,0.2,5.8-1.8c-1.3,0.4-2.6,0.5-3.9-0.2
					c-0.4-0.2-0.7-0.6-0.4-0.9c-1.2-0.2-2.1-1.1-2.4-2.3c-0.1-0.6,0-1.2-0.1-1.8c0-0.1,0-0.2-0.1-0.3
					C181.2,107.1,180.9,107.6,180.6,108.1z"/>
				<path class="st81" d="M187.7,112.8c-0.1-0.1-0.1-0.3,0-0.6c0.1-0.3,0.3-0.4,0.5-0.4c0.1,0.1,0.1,0.3,0,0.6
					C188,112.6,187.8,112.8,187.7,112.8z"/>
				<path class="st81" d="M187.8,111.5c-0.1-0.1-0.1-0.3,0-0.6c0.1-0.3,0.3-0.4,0.5-0.4c0.1,0.1,0.1,0.3,0,0.6
					C188.1,111.3,187.9,111.5,187.8,111.5z"/>
				<path class="st81" d="M186.7,113.3c-0.1-0.1-0.1-0.3,0-0.6c0.1-0.3,0.3-0.4,0.5-0.4c0.1,0.1,0.1,0.3,0,0.6
					S186.8,113.4,186.7,113.3z"/>
			</g>
			<g>
				
					<ellipse transform="matrix(0.7194 -0.6946 0.6946 0.7194 -15.1933 159.0053)" class="st79" cx="189.2" cy="98.3" rx="4.5" ry="4.5"/>
				<path class="st80" d="M188,102.6c2.4,0.7,4.8-0.7,5.5-3.1c0.6-2.3-0.6-4.6-2.8-5.4c0.6,1.2,0.9,2.5,0.5,3.9
					c-0.1,0.4-0.5,0.8-0.8,0.6c0,1.2-0.8,2.3-1.9,2.7c-0.6,0.2-1.2,0.2-1.8,0.4c-0.1,0-0.2,0.1-0.3,0.1
					C186.9,102.2,187.4,102.5,188,102.6z"/>
				<path class="st81" d="M191.4,94.9c0,0.1-0.3,0.2-0.6,0.1c-0.3-0.1-0.5-0.3-0.4-0.4c0-0.1,0.3-0.2,0.6-0.1S191.5,94.7,191.4,94.9
					z"/>
				<path class="st81" d="M190.1,95c0,0.1-0.3,0.2-0.6,0.1c-0.3-0.1-0.5-0.3-0.4-0.4c0-0.1,0.3-0.2,0.6-0.1
					C190,94.7,190.2,94.9,190.1,95z"/>
				<path class="st81" d="M192.1,95.8c0,0.1-0.3,0.2-0.6,0.1s-0.5-0.3-0.4-0.4c0-0.1,0.3-0.2,0.6-0.1
					C192,95.5,192.2,95.7,192.1,95.8z"/>
			</g>
			<g>
				<circle class="st79" cx="180.3" cy="102.3" r="4.5"/>
				<path class="st80" d="M176,103.8c0.8,2.3,3.4,3.5,5.7,2.7c2.2-0.8,3.4-3.1,2.8-5.4c-0.6,1.2-1.5,2.2-2.9,2.6
					c-0.4,0.1-1,0-0.9-0.3c-0.9,0.7-2.3,0.7-3.3,0c-0.5-0.3-0.9-0.8-1.4-1.2c-0.1-0.1-0.2-0.1-0.3-0.2
					C175.8,102.7,175.9,103.3,176,103.8z"/>
				<g>
					<defs>
						<circle id="SVGID_39_" cx="180.3" cy="102.3" r="4.5"/>
					</defs>
					<clipPath id="SVGID_20_">
						<use xlink:href="#SVGID_39_"  style="overflow:visible;"/>
					</clipPath>
					<path style="clip-path:url(#SVGID_20_);fill:none;" d="M183.9,106c0.1,0.2,0.2,0.5,0.5,0.6c0.2,0.1,0.4,0,0.6-0.1
						c1.4-0.7,2.1-2.4,2.2-4c0.1-2.8-1-5.5-2.8-7.7c-0.4-0.6-0.9-1.1-1.6-1.4c-0.5-0.2-1-0.3-1.6-0.3c-1.4-0.1-2.9,0.2-4,1.2
						c-0.9,0.8-1.3,2.2-0.9,3.4c0.4,1.1,1.5,1.4,2.4,2C181,101.2,182.8,103.4,183.9,106z"/>
				</g>
				<path class="st81" d="M184.4,102.2c-0.1,0-0.3-0.1-0.4-0.4c-0.1-0.3-0.1-0.5,0.1-0.6c0.1,0,0.3,0.1,0.4,0.4
					C184.5,101.9,184.5,102.2,184.4,102.2z"/>
				<path class="st81" d="M183.5,101.2c-0.1,0-0.3-0.1-0.4-0.4c-0.1-0.3-0.1-0.5,0.1-0.6c0.1,0,0.3,0.1,0.4,0.4
					C183.7,100.9,183.7,101.2,183.5,101.2z"/>
				<path class="st81" d="M184,103.3c-0.1,0-0.3-0.1-0.4-0.4c-0.1-0.3-0.1-0.5,0.1-0.6c0.1,0,0.3,0.1,0.4,0.4
					C184.2,103,184.2,103.3,184,103.3z"/>
			</g>
			<path class="st82" d="M181.2,93l-1.9,8l-0.8,0l-2.3-0.9l1-4.7l-2.5,4.1l-4.3-1.5l2.5-9.1l-4,8.6l-1-0.4l0.5-4.5c0,0-1,2-1.9,4
				l-8-2.9c0.5-2.4,1.1-5.2,1.1-5.5c0-0.3-1.4,2.6-2.5,5l-3.3-1.2c0.6-2,1.3-4.4,1.4-4.7c0.1-0.4-1.5,2.1-2.8,4.2l-1.1-0.4l0.9-4.2
				l-1.9,3.8l-2.3-0.9l-0.8-0.6l1.9-3.7l-3.4,2.6l-5.5-4.1c0,0,24.5-2,31.4,0.2c6.9,2.2,25.4,17.4,25.4,17.4l-2.2,1.5l-12.5-2.4
				L181.2,93z"/>
			<g>
				<circle class="st79" cx="190.8" cy="103.2" r="4.5"/>
				<path class="st80" d="M186.6,104.7c0.8,2.3,3.4,3.5,5.7,2.7c2.2-0.8,3.4-3.1,2.8-5.4c-0.6,1.2-1.5,2.2-2.9,2.6
					c-0.4,0.1-1,0-0.9-0.3c-0.9,0.7-2.3,0.7-3.3,0c-0.5-0.3-0.9-0.8-1.4-1.2c-0.1-0.1-0.2-0.1-0.3-0.2
					C186.3,103.6,186.4,104.1,186.6,104.7z"/>
				<path class="st81" d="M194.9,103.1c-0.1,0-0.3-0.1-0.4-0.4c-0.1-0.3-0.1-0.5,0.1-0.6c0.1,0,0.3,0.1,0.4,0.4
					C195.1,102.8,195.1,103,194.9,103.1z"/>
				<path class="st81" d="M194.1,102.1c-0.1,0-0.3-0.1-0.4-0.4c-0.1-0.3-0.1-0.5,0.1-0.6s0.3,0.1,0.4,0.4
					C194.3,101.8,194.2,102,194.1,102.1z"/>
				<path class="st81" d="M194.6,104.2c-0.1,0-0.3-0.1-0.4-0.4c-0.1-0.3-0.1-0.5,0.1-0.6c0.1,0,0.3,0.1,0.4,0.4
					C194.8,103.9,194.7,104.1,194.6,104.2z"/>
			</g>
		</g>
	</g>
</g>

</svg>
