<svg xmlns="http://www.w3.org/2000/svg" viewBox="0 0 78.83 146.72"><defs><style>.cls-1{fill:#2b2626;}.cls-1,.cls-2,.cls-3,.cls-4,.cls-5,.cls-6,.cls-7,.cls-8{fill-rule:evenodd;}.cls-2{fill:#ffd500;}.cls-3{fill:#ffc17d;}.cls-4{fill:#fff;}.cls-5{fill:#ff7a5a;}.cls-6{fill:#ff8b7d;}.cls-7{fill:#ffc100;}.cls-8{fill:#ff5122;}</style></defs><title>celebracion-star</title><g id="Capa_2" data-name="Capa 2"><g id="Capa_1-2" data-name="Capa 1"><path class="cls-1" d="M22,6.35C21.68,3.71,19.11,1.11,16.41,0,16.39,2.78,19.6,6,22,6.35Z"/><path class="cls-1" d="M59.82,4.5c-2.86.45-5.17,2.69-5.29,5C57.22,8.79,59.14,7.26,59.82,4.5Z"/><path class="cls-1" d="M13.5,30.44a73.83,73.83,0,0,1,6.09,5.83c-.24,5.28-2,12.2-.27,16.94,2.15.56,5.14-1,6.89-1.33.34,20.31,2,39.3,2.64,59.3-4.87.09-9.85.48-13,1.59-.82,1.39.26,4,0,4.76-2.51.14-5.2.1-6.88,1.06-1,1.27-1.15,3.44-1.06,5.82-2.18-.06-4.09.15-5.29,1.06a97,97,0,0,0-1.06,18.27c3.31,2.24,7.05,1.15,10.85,1.32,19.77.87,44.2,2.56,64.59,1.06,2.24-5.3,2.14-15.83,1.06-22-1.83-1-5-.62-7.41-1.06v-4.24a12.16,12.16,0,0,0-7.42-1.58,15,15,0,0,0,0-5.56c-3.93-1.36-10-.6-15.08-.8-.85-19.57,1.38-36.66.79-56.64,1,.36,2,1.17,2.91.26,2.11-5,2.22-11.9,2.39-18.79C58,31.5,63,28.6,65.91,23.56c-.09-1.32-.74-2.08-.79-3.44-5.26-1-10.61-2.12-16.68-1.06-3.84-5-7.51-10.13-13.5-13H32.83c-4,3.59-6.87,8.32-9.8,13-3.49,1.24-13.2.88-14,4.23C8.29,26.15,11.69,28.78,13.5,30.44Z"/><path class="cls-1" d="M18.26,14.3c.35-3.55-2.69-6-5.82-6.89C13.3,10.79,15.79,12.53,18.26,14.3Z"/><path class="cls-1" d="M60.88,38.65c1.74,1.39,8,1.33,8.47-1.06C67.63,35.59,61.83,36.58,60.88,38.65Z"/><path class="cls-1" d="M6.62,37.32C3.47,36.59,1,38.79,0,41A6.84,6.84,0,0,0,6.62,37.32Z"/><path class="cls-1" d="M65.12,45.27c.79,1.78,4.06,2.42,6.35,1.85C71.17,44.84,66.29,43.38,65.12,45.27Z"/><path class="cls-1" d="M2.12,51.09a6.42,6.42,0,0,0,5.82-4.77C4.87,46.79,2.72,48.17,2.12,51.09Z"/><path class="cls-2" d="M60.88,23.29c.38,1.33-3.71,3.56-4.5,5.57-1.88,1.81-3.84,3.57-5.56,5.55,1.15,5-1.12,10.5-1.59,15.62-4.27-2.26-6.89-6.17-11.11-8.47-5.19,2.14-10,4.64-15.09,6.88-.06-4.28-.48-10.43,0-14-2-3.56-6.24-6.28-7.94-9.26,4.31-1.16,9.42-1.52,12.44-4,.07-1.05-.1-1.84-.8-2.12,2.21-3.45,5.2-6.1,8-9C39.55,13,42.07,18.19,46.06,22,51,22.43,56.53,22.26,60.88,23.29Zm-39.18,4c1.84.61,4.1-.2,4.51-1.86C24.74,24.26,21.55,25.12,21.7,27.27ZM46.06,43.15c2-.35,2.86-5.37.52-6.09C45.23,38.14,44.68,41.58,46.06,43.15Z"/><path class="cls-3" d="M37.85,44.47c1.62,2.09,3.85,3.57,5.3,5.82-4.2.23-6.69-1.25-8.21-3.7A7.14,7.14,0,0,0,37.85,44.47Z"/><path class="cls-3" d="M43.15,52.68c.13,1.63-.48,2.53-.27,4.23A25.48,25.48,0,0,1,31,49.24a3.63,3.63,0,0,0,2.12-1.33C35.53,50.41,38.1,52.78,43.15,52.68Z"/><path class="cls-4" d="M44.2,51.09c.43-.07.46.25.8.26.1,19.83-.42,40-1.33,59.56-1.54-4.55-.75-9.67-.52-14.55.71-15.32.53-29.76,1.05-44.48Z"/><path class="cls-3" d="M29.91,51.35c4.06,2.83,7.72,6,13,7.68v2.91c-4.78-.42-9.45-1-12.44-3.17C29.93,56.63,30.38,53.54,29.91,51.35Z"/><path class="cls-3" d="M30.44,60.88a86.38,86.38,0,0,0,12.44,2.65,10.84,10.84,0,0,1-.53,3.18c-4.32,0-8.86.21-11.65-1.33C30.53,64,31.05,61.86,30.44,60.88Z"/><path class="cls-3" d="M31,67.24c2.61,1.71,7.5,1.14,11.65,1.32.19,2.84-.31,5-.27,7.68-5-.11-7.27-3-11.12-4.24A20,20,0,0,1,31,67.24Z"/><path class="cls-3" d="M31.23,73.59c3.3,1.91,6.27,4.14,10.86,4.77.1,1.39-.07,4.65,0,6.88C36.24,83.58,30.58,81.75,31.23,73.59Z"/><path class="cls-3" d="M31.76,81.53c2.86,2.35,5.22,5.19,10.33,5.3.18,2-.27,3.44-.27,5.29A18.94,18.94,0,0,1,32,88.41,66.06,66.06,0,0,1,31.76,81.53Z"/><path class="cls-3" d="M32,90.53c2.8,1.7,5.5,3.5,9.79,3.71.2,2.49-.43,4.15-.26,6.61-3.53-.43-6.9-1-9-2.91C32,95.85,32.49,92.72,32,90.53Z"/><path class="cls-3" d="M32.56,100.32c2.28,1.61,5.74,2,8.73,2.92v2.91c-3.87.16-5.69-1.71-8.46-2.65C32.93,102.25,32.35,101.68,32.56,100.32Z"/><path class="cls-3" d="M32.83,105.62c2.39,1.22,4.38,2.85,8.2,2.65v2.64a55,55,0,0,1-7.94.27C33.05,109.28,33.25,107.14,32.83,105.62Z"/><path class="cls-5" d="M59,113.83c.4.83.13,2.33.53,3.17-11.86-.11-27,.16-38.92,0v-1.85c4.33-1.51,9.56-.7,14.57-.8C43.4,114.19,50.75,113.81,59,113.83Z"/><path class="cls-6" d="M66.44,119.91c1.79,0,.11,2,.53,3.18-17.43,1.06-37.4-.58-54.8,1.06.23-.75.31-1.63.53-2.38,15.8-2.5,37.05,0,53.48-1.86Z"/><path class="cls-7" d="M73.32,125.74c.73,4.23-.08,12.35,1.06,16.94-20.69-.4-43-1.5-64.32-2.12-.3-4.12-.63-8.2-1.06-12.18C29,126,53.18,127.91,73.32,125.74ZM23,129.44c-1.84,2.11-1.24,8.34,0,10.59,11.31,1.16,25,.69,36.79,0,1.89-2.13,1.84-8.11.8-10.85C49.16,127.86,35.15,129.93,23,129.44Z"/><path class="cls-4" d="M6.88,128.38c1.52,3.07.94,8.24,1.59,12.18H6.09C6.31,136.46,6,131.85,6.88,128.38Z"/><path class="cls-8" d="M25.41,131c11.38.25,22,.2,33.35,0a34,34,0,0,1-.52,7.15H24.62C25.33,136.24,24.24,132.51,25.41,131Zm.8,2.38c1.36.22,1.7-.76,1.32-1.58a1.71,1.71,0,0,0-1.32-.27A1.64,1.64,0,0,0,26.21,133.41Zm30.7.8H58a2.32,2.32,0,0,0,.27-1.59C57.16,131.82,56.14,133.24,56.91,134.21Zm-1.32,1.85c.35.88,2.17,1.21,1.85-.53A1.28,1.28,0,0,0,55.59,136.06Zm-27.8.53v-1.06H26.73C26.53,136.44,26.88,136.8,27.79,136.59Z"/></g></g></svg>