<svg xmlns="http://www.w3.org/2000/svg" viewBox="0 0 59.71 59.13"><defs><style>.cls-1{fill:#b8d74b;}</style></defs><title>check-logros</title><g id="Capa_2" data-name="Capa 2"><g id="Capa_3" data-name="Capa 3"><path class="cls-1" d="M29.46,39.71h-.07a.26.26,0,0,1-.16-.13c-.11-.18-.12-.19.78-1.19l-.29.18c-1.25.76-1.25.76-1.39.73a.29.29,0,0,1-.16-.12c-.13-.23,0-.35.63-.84l.75-.59c-2.24,1.36-2.27,1.35-2.43,1.31a.31.31,0,0,1-.16-.12c-.13-.24,0-.37.76-.94l1-.79c-1.42.87-1.53.89-1.68.85a.26.26,0,0,1-.17-.12c-.14-.25,0-.38,1.1-1.16l.7-.5c-3.25,2-3.44,2-3.62,2a.22.22,0,0,1-.16-.12c-.15-.25-.08-.34,1.37-1.32l2.06-1.35c-3.07,1.84-3.25,1.9-3.43,1.86a.26.26,0,0,1-.16-.13c-.14-.23-.12-.32,1.35-1.29-1.6.94-2,1.09-2.15,1.05a.28.28,0,0,1-.17-.13c-.12-.21-.13-.23,1.27-1.43l0,0c-2.49,1.52-2.53,1.51-2.69,1.47a.25.25,0,0,1-.16-.12c-.14-.24,0-.38.71-.91l.45-.35c-1.68,1-1.73,1-1.87,1a.3.3,0,0,1-.17-.12c-.12-.22,0-.35.59-.82l.8-.66c-1.07.66-1.15.68-1.29.64a.26.26,0,0,1-.17-.12c-.12-.21-.13-.24,1.22-1.33l-.29.18c-2.7,1.63-2.72,1.63-2.88,1.58a.26.26,0,0,1-.17-.12C19,35.48,19,35.47,21,33.89c-1.91,1.18-1.94,1.17-2.1,1.13a.28.28,0,0,1-.16-.12c-.12-.21-.13-.23,1.23-1.32-1.63,1-1.66,1-1.8,1a.31.31,0,0,1-.17-.13c-.12-.21-.13-.23,1.24-1.39-2.08,1.29-2.19,1.33-2.36,1.28a.28.28,0,0,1-.16-.12c-.13-.23,0-.35.62-.85l.68-.56c-1.82,1.12-1.92,1.15-2.08,1.11a.29.29,0,0,1-.16-.13c-.14-.23-.14-.23,1.59-1.69l-.18.11c-2.34,1.44-2.44,1.48-2.61,1.43a.26.26,0,0,1-.17-.12c-.13-.23-.14-.24,1.53-1.56-1,.64-1.08.63-1.21.6a.25.25,0,0,1-.16-.12c-.11-.2-.12-.22,1-1.23-.36.21-.4.21-.49.18a.22.22,0,0,1-.16-.12c-.09-.16-.1-.16.46-1-.34.2-.38.21-.48.18a.25.25,0,0,1-.16-.12.26.26,0,0,1,.09-.35l.07,0c.09,0,.34-.2.53-.31.64-.4.67-.42.8-.38a.22.22,0,0,1,.16.12c.09.15.1.16-.48,1l.2-.12c1.42-.88,1.48-.9,1.64-.86a.24.24,0,0,1,.16.12c.11.2.13.23-1,1.21,1.57-1,1.6-.95,1.74-.91a.25.25,0,0,1,.16.12c.14.23,0,.36-.67.89l-.86.68c2-1.21,2-1.2,2.17-1.16a.28.28,0,0,1,.16.12c.13.24.14.25-1.57,1.68l.11-.06c2.17-1.34,2.27-1.38,2.44-1.34a.26.26,0,0,1,.16.13c.13.22.14.24-1.34,1.43,1.7-1.06,1.79-1.08,1.95-1a.3.3,0,0,1,.17.12c.12.22.13.23-1.16,1.33,1.72-1.06,1.84-1.09,2-1.05a.3.3,0,0,1,.17.12c.13.23,0,.35-.65.87l-.35.29c1.9-1.16,2-1.19,2.18-1.15a.26.26,0,0,1,.17.12c.13.23.14.24-1.88,1.82,2.71-1.64,2.74-1.63,2.9-1.59a.26.26,0,0,1,.16.13c.11.19.13.22-1,1.14.88-.54,1-.56,1.1-.52a.24.24,0,0,1,.17.12c.13.23.14.25-1.5,1.58l.11-.07c2.35-1.43,2.38-1.42,2.54-1.38a.24.24,0,0,1,.16.12c.13.23,0,.36-.65.84-.19.16-.43.33-.68.53,1.68-1,1.71-1,1.86-1a.28.28,0,0,1,.16.12c.13.23.13.23-1.64,1.74l-.09.08c1.15-.67,2.71-1.63,4.08-2.47,4.7-2.89,5.2-3.14,5.44-3.08a.24.24,0,0,1,.17.12c.14.25.11.37-1.69,1.54v0c.6-.34.71-.35.81-.32a.24.24,0,0,1,.16.12c.15.26.19.33-2.73,2.26,1.39-.83,1.45-.81,1.57-.78a.3.3,0,0,1,.17.12c.14.25,0,.37-1,1l-1,.7c.19-.09.25-.08.32-.06a.24.24,0,0,1,.16.12c.14.24,0,.38-.81,1l-1.06.81c1.91-1.15,1.95-1.14,2.09-1.1a.22.22,0,0,1,.16.12c.13.23,0,.35-.68.88l-.74.59a.16.16,0,0,1,.1,0,.22.22,0,0,1,.16.12c.11.19.11.19-.86,1.29l-.06.06a.24.24,0,0,1,.14.12.26.26,0,0,1-.09.35l-.08,0-.4.24C29.66,39.64,29.55,39.71,29.46,39.71Zm.68-.66a.23.23,0,0,0,.07.07A.23.23,0,0,1,30.14,39.05Zm0,0ZM15.22,30ZM15.15,30l.07.08A.27.27,0,0,0,15.15,30Z"/><path class="cls-1" d="M28.55,33.18h-.07a.31.31,0,0,1-.17-.13c-.14-.24,0-.36,1.08-1.11l.59-.41c-.78.46-.83.45-.94.42a.31.31,0,0,1-.17-.13c-.14-.25,0-.38,1.11-1.14l.65-.45c-.68.4-.73.38-.84.36a.29.29,0,0,1-.16-.13c-.14-.24,0-.34,1.19-1.2l1.24-.86c-2.4,1.44-2.58,1.49-2.74,1.45a.3.3,0,0,1-.17-.12c-.14-.25,0-.37,1.48-1.41l1.13-.76c-1.4.83-1.46.82-1.58.78a.26.26,0,0,1-.17-.12c-.14-.25,0-.36,1.13-1.14l1.31-.89c-1,.56-1.07.58-1.2.55a.28.28,0,0,1-.17-.13c-.14-.25,0-.36,1.09-1.14l1.54-1.07c-1.3.78-1.44.81-1.58.77A.28.28,0,0,1,32,25c-.15-.25,0-.39,1.26-1.25.13-.1.28-.2.44-.3-1,.6-1.17.63-1.3.59a.26.26,0,0,1-.17-.12c-.14-.24-.07-.34,1.31-1.31l1.35-.93c-1.34.8-1.46.82-1.6.79a.31.31,0,0,1-.17-.13c-.14-.24,0-.37.92-1l.51-.38c-1.14.69-1.2.67-1.33.64a.28.28,0,0,1-.16-.12c-.14-.25,0-.38.91-1l.58-.43c-.67.39-.72.38-.82.35a.28.28,0,0,1-.16-.12c-.12-.22-.14-.25,1.37-1.39-.43.24-.47.23-.56.21a.25.25,0,0,1-.16-.12c-.12-.22-.12-.22,1.45-1.61l.3-.26a.24.24,0,0,1-.08-.09.26.26,0,0,1,.09-.35l.07,0,.54-.33c.66-.4.69-.43.83-.39a.27.27,0,0,1,.16.12c.11.2.12.22-1.18,1.37,1.75-1.06,1.77-1.06,1.92-1a.31.31,0,0,1,.16.12c.12.22.14.25-1.37,1.39,1.16-.7,1.2-.69,1.32-.66a.26.26,0,0,1,.16.13c.14.23,0,.35-.77.91-.29.23-.66.49-1.06.78,2-1.21,2-1.2,2.19-1.16a.27.27,0,0,1,.16.12c.14.25,0,.38-.91,1l-.67.49c2.37-1.44,2.52-1.49,2.7-1.45a.29.29,0,0,1,.16.13c.14.24,0,.34-1.19,1.21l-2,1.36c2.59-1.57,2.74-1.62,2.91-1.58a.31.31,0,0,1,.17.13c.15.25,0,.39-1.27,1.27l-.74.49c.31-.16.36-.15.44-.13a.26.26,0,0,1,.16.13c.15.25.18.31-2.38,2.08,1.4-.85,1.53-.87,1.67-.84a.31.31,0,0,1,.17.13c.14.25.06.36-1.42,1.39l-.55.38c1.57-.93,1.72-1,1.86-.93a.3.3,0,0,1,.17.12c.14.25.07.34-1.35,1.3-.51.36-1.14.77-1.82,1.22,2-1.2,2-1.19,2.18-1.15a.31.31,0,0,1,.16.12c.14.25,0,.36-1.23,1.25l-.87.6c.47-.26.61-.29.71-.26a.28.28,0,0,1,.17.13c.15.24,0,.37-1.16,1.19l-.26.18c.42-.22.51-.23.61-.2a.24.24,0,0,1,.16.12c.15.25,0,.36-1.17,1.2l-.11.08c.7-.4.81-.41.92-.38a.26.26,0,0,1,.17.12.25.25,0,0,1-.1.35.23.23,0,0,1-.14,0c-.33.12-1.93,1.11-3.22,1.91C29.21,32.93,28.75,33.18,28.55,33.18Zm6.48-4Zm0,0h0Zm0,0Zm1.27-12.44Zm-.06-.08a.24.24,0,0,1,.06.08A.24.24,0,0,0,36.23,16.65Z"/><path class="cls-1" d="M46.49,48.18h-.06a.24.24,0,0,1-.17-.12c-.15-.25-.08-.34,1.41-1.32l1.93-1.24h-.09a.36.36,0,0,1-.17-.13c-.15-.26-.18-.31,2.71-2.31-2.23,1.35-2.29,1.33-2.44,1.29a.24.24,0,0,1-.16-.12c-.15-.26-.16-.28,2.71-2.27-.44.24-.5.23-.59.21A.31.31,0,0,1,51.4,42c-.14-.25,0-.35,1.09-1.13l.37-.26c-.94.54-1,.56-1.17.53a.29.29,0,0,1-.16-.13c-.14-.24,0-.37,1.1-1.16l1-.68c-.23.12-.27.11-.34.09a.3.3,0,0,1-.17-.12c-.14-.24.06-.39.77-1l.74-.57c-1.6,1-1.65.95-1.79.91a.22.22,0,0,1-.16-.12c-.14-.24,0-.35,1-1.12.11-.09.23-.17.36-.26-.88.51-.94.5-1.05.47a.35.35,0,0,1-.17-.12c-.14-.25-.15-.27,2.29-2-.43.24-.48.23-.57.21a.31.31,0,0,1-.16-.12c-.14-.24,0-.37.77-.94l1-.72c-1.15.69-1.2.68-1.33.65a.26.26,0,0,1-.16-.13c-.14-.23-.14-.24,1.71-1.76-1.7,1-1.74,1-1.88,1a.3.3,0,0,1-.17-.12c-.13-.23-.13-.24,1.64-1.7-1.53.94-1.57.93-1.71.89a.22.22,0,0,1-.16-.12c-.12-.21-.14-.23,1.19-1.27-1,.6-1,.59-1.16.56a.25.25,0,0,1-.16-.12c-.14-.24-.15-.26,2-1.86-.43.24-.48.23-.57.2a.26.26,0,0,1-.17-.12c-.12-.21-.12-.21,1.21-1.47l-.09.06c-1.61,1-1.63,1-1.78.95a.25.25,0,0,1-.16-.12c-.14-.23,0-.35.66-.87l.93-.72c-1.59,1-1.62,1-1.76.92a.26.26,0,0,1-.16-.13c-.13-.22-.15-.25,1.36-1.46-.24.13-.3.13-.38.11a.31.31,0,0,1-.17-.13c-.12-.2-.13-.23,1.15-1.27C53.92,27,53.9,27,53.75,27a.22.22,0,0,1-.16-.12c-.13-.23,0-.36.7-.89l.79-.62c-.94.57-1,.56-1.09.53a.3.3,0,0,1-.17-.12c-.12-.22-.13-.23,1.41-1.5-1.58,1-1.62.94-1.76.9a.28.28,0,0,1-.16-.12c-.13-.23,0-.35.67-.86.18-.15.4-.31.64-.49-.29.15-.34.14-.42.12a.25.25,0,0,1-.16-.12c-.13-.22-.14-.24,1.22-1.42-.85.52-.92.53-1,.5a.29.29,0,0,1-.16-.13c-.12-.21-.12-.21,1.13-1.41-.94.59-1,.6-1.14.57a.33.33,0,0,1-.16-.13c-.11-.19-.12-.2,1-1.37l0,0c-1.54,1-1.57.95-1.71.91a.3.3,0,0,1-.17-.12c-.13-.23,0-.37.58-.83l.57-.47c-1.83,1.11-1.86,1.1-2,1.06a.22.22,0,0,1-.16-.12c-.14-.23,0-.36.72-.9l.88-.67c-.67.39-.71.38-.82.35a.28.28,0,0,1-.16-.12c-.13-.22-.13-.22,1.46-1.6l-.28.17c-2.21,1.34-2.23,1.34-2.38,1.3a.26.26,0,0,1-.16-.13c-.14-.23,0-.37.69-.9l1.1-.89c-1.91,1.16-1.94,1.15-2.08,1.11a.22.22,0,0,1-.16-.12c-.13-.22-.14-.23,1.47-1.54-.75.45-.79.45-.9.42a.26.26,0,0,1-.16-.13c-.12-.2-.13-.22,1.18-1.31-1.11.67-1.13.67-1.26.63a.26.26,0,0,1-.17-.12c-.12-.21-.13-.23,1.15-1.39l0,0c-1.65,1-1.66,1-1.81,1a.31.31,0,0,1-.16-.12c-.12-.21-.13-.23,1.22-1.33-1.82,1.1-1.85,1.09-2,1.05a.22.22,0,0,1-.16-.12c-.12-.19-.13-.22.88-1.09-.42.24-.46.23-.56.21a.26.26,0,0,1-.16-.13c-.11-.19-.13-.21,1-1.16-1.55,1-1.56.94-1.7.91A.31.31,0,0,1,48.4,14c-.12-.21-.12-.21,1.31-1.5-1.89,1.16-1.91,1.16-2.07,1.12a.26.26,0,0,1-.16-.13c-.13-.22-.14-.23,1.66-1.68-1.26.77-1.3.76-1.44.72a.24.24,0,0,1-.16-.12c-.13-.22-.14-.24,1.34-1.47-2.24,1.36-2.26,1.36-2.41,1.32a.25.25,0,0,1-.16-.12c-.14-.23-.15-.25,1.48-1.58-.92.55-1,.54-1.09.51a.25.25,0,0,1-.16-.12c-.12-.21-.13-.22,1.08-1.38l-.31.19c-2,1.22-2,1.22-2.19,1.18a.25.25,0,0,1-.16-.12c-.12-.21-.13-.22,1.23-1.38-1.15.71-1.18.7-1.32.66a.24.24,0,0,1-.16-.12c-.13-.22-.13-.23,1.25-1.46l-.15.09c-1.6,1-1.61,1-1.76.95a.26.26,0,0,1-.16-.13c-.12-.21-.14-.23,1.26-1.35-2,1.18-2,1.17-2.13,1.14a.25.25,0,0,1-.16-.12c-.12-.21-.13-.22,1.12-1.35-.66.41-.73.41-.84.38A.25.25,0,0,1,43,8c-.12-.2-.13-.22,1-1.24l-.09,0c-2.48,1.5-2.5,1.49-2.66,1.45a.25.25,0,0,1-.16-.12C41,7.87,41,7.86,42.86,6.38c-1.53.92-1.55.91-1.69.87A.22.22,0,0,1,41,7.13c-.13-.22,0-.34.59-.81l.64-.51c-1.81,1.1-1.85,1.09-2,1.05a.25.25,0,0,1-.16-.12c-.12-.2-.13-.22,1.06-1.31L41,5.52c-2.2,1.35-2.23,1.34-2.39,1.3a.29.29,0,0,1-.16-.13c-.13-.22,0-.37.63-.85l.44-.36c-1.66,1-1.71,1-1.85,1a.29.29,0,0,1-.16-.13c-.13-.21-.14-.23,1.26-1.4-1.07.66-1.15.67-1.29.64a.29.29,0,0,1-.16-.13c-.12-.2-.13-.22,1.13-1.28L38,4.42C35.36,6,35.34,6,35.18,6A.29.29,0,0,1,35,5.85c-.13-.23-.14-.25,1.83-1.8-2.15,1.31-2.18,1.31-2.33,1.27a.31.31,0,0,1-.17-.13C34.23,5,34.22,5,35.61,3.84h0c-2,1.23-2,1.22-2.16,1.18a.22.22,0,0,1-.16-.12c-.13-.22-.14-.24,1.33-1.46l-.18.11C32,5.05,31.9,5.09,31.72,5.05a.28.28,0,0,1-.17-.13c-.13-.23,0-.35.69-.89L33,3.41C30.52,5,30.37,5,30.19,5A.24.24,0,0,1,30,4.84c-.13-.23,0-.36.66-.89L32,2.89l-.81.49c-3.13,1.93-3.31,2-3.5,2a.36.36,0,0,1-.17-.13c-.14-.24,0-.37.88-1l1.33-1-.09.06c-3.21,2-3.25,1.94-3.42,1.9a.25.25,0,0,1-.16-.12c-.15-.25-.15-.26,2.32-2l-.64.4c-3.2,2-3.25,2-3.42,1.91a.26.26,0,0,1-.17-.12c-.14-.24,0-.37.94-1.06l2-1.44.05,0L24.83,4.11C20.14,7,19.56,7.29,19.31,7.23a.28.28,0,0,1-.17-.13.26.26,0,0,1,.09-.35.23.23,0,0,1,.16,0c.46-.16,3.07-1.76,5.17-3C29.33.74,29.91.44,30.16.51a.28.28,0,0,1,.18.12c.13.24,0,.37-.94,1.07l-1.12.81c3-1.82,3.38-2,3.59-2A.28.28,0,0,1,32,.68c.14.24,0,.34-1,1.08l-.6.44C32.9.72,33.05.67,33.22.72a.26.26,0,0,1,.17.12c.14.24,0,.36-.9,1l-1.1.81C34.06,1,34.22,1,34.4,1a.26.26,0,0,1,.17.12c.13.24,0,.38-.7.91-.33.28-.75.61-1.19,1l.25-.15c2.61-1.62,2.74-1.66,2.92-1.62a.28.28,0,0,1,.17.13c.13.22,0,.35-.66.86l-.83.65c2-1.25,2.14-1.28,2.31-1.24a.28.28,0,0,1,.16.12c.13.22.14.24-1.21,1.36C37.71,2,37.83,1.92,38,2a.26.26,0,0,1,.17.12c.12.23,0,.35-.64.87-.11.09-.24.19-.36.3C39.17,2,39.29,2,39.46,2a.29.29,0,0,1,.16.13c.13.23.14.24-1.8,1.78,2.7-1.63,2.72-1.62,2.88-1.58a.25.25,0,0,1,.16.12c.12.19.13.22-.93,1.11.84-.51.93-.53,1.06-.49a.24.24,0,0,1,.16.12c.13.23.14.24-1.34,1.49L40,4.61c2.15-1.31,2.17-1.3,2.32-1.26a.26.26,0,0,1,.17.12c.12.22,0,.34-.58.79-.17.15-.38.32-.61.5,1.48-.9,1.51-.9,1.65-.86a.28.28,0,0,1,.16.12c.12.2.12.22-1.13,1.37L42.57,5c2.18-1.33,2.2-1.32,2.36-1.28a.22.22,0,0,1,.16.12c.13.23,0,.36-.63.86l-.58.46c1.53-.92,1.56-.91,1.69-.88a.3.3,0,0,1,.17.12c.13.24.14.26-1.71,1.71C45.88,5,45.9,5,46.05,5a.27.27,0,0,1,.16.12c.11.2.12.22-1,1.18.5-.3.57-.31.68-.28a.28.28,0,0,1,.16.12c.12.22.13.23-1.23,1.46l.39-.24C47.51,6,47.54,6,47.69,6.06a.25.25,0,0,1,.16.12c.13.23,0,.36-.61.84l-.45.37c.84-.5.89-.49,1-.46a.26.26,0,0,1,.16.13c.13.21.13.22-1.14,1.36,1.31-.81,1.39-.83,1.54-.79a.25.25,0,0,1,.16.12c.12.21.13.23-1.21,1.39,1.75-1.07,1.77-1.06,1.92-1a.33.33,0,0,1,.16.13c.12.2.12.2-1.14,1.41l.29-.17c1.59-1,1.61-1,1.75-.94a.26.26,0,0,1,.17.12c.13.24.14.25-1.65,1.7C51,9.05,51,9.05,51.15,9.09a.3.3,0,0,1,.17.12c.12.23.13.25-1.28,1.42,1.55-1,1.58-.94,1.73-.91a.33.33,0,0,1,.16.13c.13.22.13.23-1.68,1.7,1.15-.7,1.18-.69,1.31-.66a.25.25,0,0,1,.16.12c.13.21.13.23-1.21,1.44,1.56-.95,1.59-.94,1.73-.91a.3.3,0,0,1,.17.12c.1.19.12.22-.82,1.05.58-.35.65-.36.76-.33a.31.31,0,0,1,.17.13c.12.2.13.22-1.08,1.24l.09-.05c2.06-1.25,2.07-1.24,2.22-1.21a.29.29,0,0,1,.16.13c.13.22,0,.34-.62.85-.13.11-.27.23-.43.35.89-.53.94-.52,1-.49a.31.31,0,0,1,.17.13c.11.2.12.2-1.18,1.39,1.73-1.06,1.76-1,1.91-1A.28.28,0,0,1,55,14c.12.21.13.23-1.14,1.28.76-.45.79-.44.91-.41a.27.27,0,0,1,.16.12c.13.22,0,.35-.67.89l-.81.67c2.09-1.26,2.11-1.25,2.25-1.22a.26.26,0,0,1,.16.13c.14.23,0,.37-.68.89-.31.26-.7.57-1.11.89,1.82-1.1,1.85-1.09,2-1.05a.22.22,0,0,1,.16.12c.13.22.13.23-1.38,1.55,1.87-1.15,1.89-1.15,2-1.11a.29.29,0,0,1,.16.13c.14.23,0,.37-.8,1l-.79.6c1-.62,1.08-.61,1.2-.58a.25.25,0,0,1,.16.12c.13.22,0,.35-.54.79l-.56.45c.46-.26.5-.25.6-.23a.26.26,0,0,1,.16.13c.12.19.12.2-1,1.33,1.13-.7,1.2-.71,1.34-.68a.31.31,0,0,1,.17.13c.12.2.12.21-1.13,1.41,1.4-.87,1.42-.86,1.57-.82a.22.22,0,0,1,.16.12c.13.22.13.23-1.36,1.52,1.36-.84,1.39-.83,1.53-.79a.22.22,0,0,1,.16.12c.14.23,0,.36-.72.91l-.61.47c.9-.54.93-.53,1.05-.5a.25.25,0,0,1,.16.12c.13.22.14.24-1.4,1.51C57.94,23,58,23,58.11,23.05a.22.22,0,0,1,.16.12c.14.23,0,.36-.71.9l-.8.63c1.7-1,1.73-1,1.87-1a.27.27,0,0,1,.16.12c.12.2.13.23-1.11,1.22.21-.11.26-.1.34-.08a.24.24,0,0,1,.16.12c.13.23.15.25-1.47,1.55,1.87-1.14,1.9-1.13,2-1.09a.25.25,0,0,1,.16.12c.14.24,0,.38-.71.92l-.67.52c.34-.18.39-.17.48-.15a.28.28,0,0,1,.16.12c.12.21.12.22-1.22,1.48l.24-.14c1.71-1.06,1.73-1.05,1.88-1a.22.22,0,0,1,.16.12c.14.24,0,.35-.85,1l-1.06.82c.72-.43.77-.42.88-.39a.27.27,0,0,1,.16.12c.11.2.14.24-1.1,1.2.88-.52.92-.51,1-.48a.3.3,0,0,1,.17.12c.13.23.13.25-1.63,1.7,1.75-1.07,1.78-1.06,1.93-1a.27.27,0,0,1,.16.12c.13.23.14.24-1.78,1.81,2.15-1.32,2.18-1.31,2.34-1.27a.22.22,0,0,1,.16.12c.14.24,0,.36-.82,1L58,33c.79-.46.84-.45.95-.42a.22.22,0,0,1,.16.12c.14.24.16.27-2.28,2,1.65-1,1.69-1,1.83-1a.3.3,0,0,1,.17.12c.13.23.15.26-1.78,1.62.56-.32.6-.31.7-.29a.31.31,0,0,1,.17.13c.13.23,0,.35-.7.88l-.86.67c1.8-1.1,1.94-1.13,2.1-1.09a.24.24,0,0,1,.16.12c.15.25,0,.39-1.07,1.14l-1,.71C57.92,37,58,37,58.1,37a.26.26,0,0,1,.16.13c.14.24,0,.34-1,1.07l-.75.53c.27-.14.32-.13.4-.11a.24.24,0,0,1,.16.12c.14.24.05.34-1.2,1.23l-1.53,1.08c2.36-1.43,2.42-1.42,2.58-1.38a.33.33,0,0,1,.16.13c.14.24,0,.35-1.05,1.11l-2.16,1.49c2-1.25,2.18-1.29,2.34-1.25a.28.28,0,0,1,.17.13c.14.24.11.34-1.43,1.37C56,42,56.17,42,56.29,42a.26.26,0,0,1,.17.12.25.25,0,0,1-.1.35.28.28,0,0,1-.13,0c-.39.15-2.66,1.54-4.5,2.66C47.38,47.84,46.74,48.18,46.49,48.18ZM56,42.42Zm0,0Zm0,0Zm0,0Zm0,0Zm0,0Zm0,0Zm0,0ZM19.58,6.84Zm0,0Zm0,0Zm0,0Zm0,0Zm0,0Z"/><path class="cls-1" d="M29,59.13H29a.3.3,0,0,1-.19-.14c-.13-.24-.06-.35,1.27-1.28L31,57c-2.24,1.35-2.55,1.49-2.73,1.44a.31.31,0,0,1-.17-.13c-.14-.24,0-.38,1-1.11.39-.3.88-.65,1.38-1l-.44.27c-4.28,2.58-4.33,2.57-4.51,2.52a.26.26,0,0,1-.17-.12c-.13-.24,0-.36,1-1.08l.58-.42c-2,1.22-2.05,1.21-2.2,1.17a.25.25,0,0,1-.16-.12c-.14-.24-.15-.26,1.83-1.85l-.07,0c-2.52,1.57-2.65,1.61-2.83,1.57a.31.31,0,0,1-.17-.13c-.14-.23.05-.38.73-.91.24-.19.53-.42.85-.65-2.23,1.36-2.28,1.35-2.44,1.31a.29.29,0,0,1-.16-.13c-.14-.23,0-.36.79-1,.29-.24.64-.51,1-.8l0,0c-2.81,1.71-2.85,1.71-3,1.66a.26.26,0,0,1-.17-.12c-.13-.23-.14-.24,1.64-1.69-1.76,1.09-1.88,1.13-2,1.09a.31.31,0,0,1-.17-.13c-.13-.22,0-.36.56-.8l.47-.38c-2.09,1.27-2.13,1.26-2.29,1.22a.22.22,0,0,1-.16-.12c-.12-.21-.13-.22,1.12-1.26-1.77,1.08-1.8,1.07-1.95,1a.27.27,0,0,1-.16-.12c-.13-.22-.13-.23,1.56-1.62l-.13.07c-2.38,1.44-2.4,1.44-2.55,1.4a.25.25,0,0,1-.16-.12c-.14-.24,0-.37.72-.93l.56-.45c-1.94,1.18-2,1.17-2.12,1.13a.25.25,0,0,1-.16-.12c-.13-.22-.13-.23,1.39-1.5-2.2,1.34-2.23,1.33-2.39,1.29a.31.31,0,0,1-.16-.12c-.12-.22-.14-.24,1.37-1.45-1.61,1-1.64,1-1.78.93a.22.22,0,0,1-.16-.12c-.14-.24-.14-.25,1.75-1.75-2.08,1.25-2.09,1.25-2.24,1.21a.25.25,0,0,1-.16-.12c-.12-.21-.13-.23,1.28-1.48-1.58,1-1.61,1-1.75.92a.26.26,0,0,1-.17-.12c-.13-.22-.13-.22,1.63-1.71v0l-.18.11c-2.64,1.61-2.68,1.6-2.84,1.56a.28.28,0,0,1-.16-.12C11,53,11,53,12.7,51.57c-1.14.69-1.17.68-1.3.64a.27.27,0,0,1-.16-.12c-.12-.2-.13-.23,1.22-1.32-1,.63-1.08.62-1.21.59a.28.28,0,0,1-.16-.12C11,51,11,51,12,50l0,0c-1.53,1-1.56,1-1.71.92a.31.31,0,0,1-.17-.13c-.11-.19-.12-.2.84-1.09l0,0c-1.49.92-1.5.92-1.64.88a.31.31,0,0,1-.17-.13C9,50.27,9,50.25,10.38,49c-.94.57-1,.56-1.09.53a.25.25,0,0,1-.16-.12c-.11-.19-.11-.2.77-1.1-1.29.8-1.36.83-1.51.79A.26.26,0,0,1,8.22,49c-.11-.19-.12-.21.73-1h0C7,49.15,7,49.14,6.83,49.1A.3.3,0,0,1,6.66,49c-.12-.21-.13-.23,1.29-1.44-.27.14-.34.15-.42.12a.24.24,0,0,1-.17-.12c-.12-.21-.13-.22,1.3-1.44-1.64,1-1.65,1-1.79.95a.25.25,0,0,1-.16-.12c-.12-.21-.13-.22,1.29-1.46l-.41.24C5.37,47,5.37,47,5.21,47a.27.27,0,0,1-.16-.12c-.11-.2-.13-.23,1-1.15-.85.51-.89.5-1,.47a.28.28,0,0,1-.16-.12c-.12-.21-.13-.22,1.19-1.33-1.08.66-1.12.65-1.25.62a.3.3,0,0,1-.17-.12C4.5,45,4.5,45,6.14,43.66c-1.55.94-1.58.93-1.72.9a.3.3,0,0,1-.17-.12c-.11-.21-.12-.23,1.1-1.33-1.33.81-1.35.8-1.49.77a.29.29,0,0,1-.16-.13c-.11-.19-.13-.21,1-1.25-1.12.68-1.15.67-1.28.64A.25.25,0,0,1,3.29,43c-.12-.21-.13-.23,1.09-1.29-.94.58-1,.57-1.09.54a.3.3,0,0,1-.17-.12C3,42,3,41.93,4,41c-.38.22-.43.22-.54.19a.24.24,0,0,1-.16-.12c-.11-.19-.13-.22.86-1.09-1.09.67-1.12.66-1.25.63a.33.33,0,0,1-.16-.13c-.13-.22-.14-.24,1.32-1.46-1.75,1.05-1.76,1.05-1.9,1A.25.25,0,0,1,2,39.94c-.13-.22-.14-.24,1.36-1.55-.64.38-.67.37-.78.34a.26.26,0,0,1-.17-.12c-.11-.2-.11-.2,1-1.33-1.27.78-1.31.77-1.45.73a.27.27,0,0,1-.16-.12c-.13-.23-.14-.25,1.61-1.67-1.86,1.12-1.9,1.12-2.05,1.08a.38.38,0,0,1-.16-.12c-.13-.24,0-.38.69-.89l.79-.61c-1.48.88-1.51.87-1.65.84a.31.31,0,0,1-.16-.12c-.14-.24,0-.37.84-1L2.31,35c-1,.57-1,.56-1.11.53A.25.25,0,0,1,1,35.4c-.13-.22,0-.34.55-.8l.4-.33c-1.48.89-1.52.88-1.66.85A.26.26,0,0,1,.17,35c-.14-.24,0-.39.77-1l.89-.69c-.21.11-.25.1-.32.08a.3.3,0,0,1-.17-.12c-.12-.22-.13-.24,1.29-1.42-1.75,1.06-1.77,1-1.91,1a.26.26,0,0,1-.16-.13c-.14-.24,0-.36.81-1l.39-.29C1,32,1,32,.86,31.93a.24.24,0,0,1-.16-.12C.57,31.59.56,31.56,2,30.39c-1.62,1-1.66,1-1.8.94a.31.31,0,0,1-.17-.13c-.13-.23-.15-.26,1.64-1.67-.87.53-1,.54-1.08.5a.26.26,0,0,1-.17-.12c-.13-.23-.13-.24,1.66-1.71-1.51.94-1.6,1-1.75.92A.3.3,0,0,1,.18,29c-.14-.25,0-.39.9-1l.63-.45c-.36.19-.41.18-.49.16a.31.31,0,0,1-.17-.13c-.14-.24,0-.37.88-1L3,25.7C.86,27,.82,27,.66,26.94a.22.22,0,0,1-.16-.12c-.14-.24,0-.36.82-1,.34-.26.77-.57,1.23-.9-1.08.64-1.13.62-1.26.59a.28.28,0,0,1-.16-.12c-.14-.25,0-.39.81-1l.93-.7c-1.3.79-1.39.8-1.53.77a.31.31,0,0,1-.17-.13c-.14-.24,0-.37.79-.93L2.59,23c-.88.53-.93.52-1,.49a.31.31,0,0,1-.17-.13c-.14-.25.05-.39.86-1l.69-.5c-.77.46-.82.45-.93.42a.25.25,0,0,1-.16-.12c-.14-.25,0-.37,1-1.09l1.21-.87c-2.59,1.56-2.65,1.55-2.8,1.51a.31.31,0,0,1-.17-.13c-.14-.24-.06-.35,1.37-1.34l1.19-.8c-1.56.93-1.62.92-1.75.88a.27.27,0,0,1-.16-.12c-.14-.25,0-.36,1.14-1.15l1.32-.89c-1,.6-1.21.66-1.35.62a.24.24,0,0,1-.16-.12c-.15-.25,0-.36,1.27-1.26l1.59-1.06c-1.42.84-1.68.93-1.84.89a.36.36,0,0,1-.17-.13c-.13-.23-.11-.36,1.42-1.36-.61.33-.79.38-.91.35A.28.28,0,0,1,3.87,16c-.14-.23-.07-.46,1.87-1.72a1,1,0,0,1-.53.13A.3.3,0,0,1,5,14.26c-.11-.19-.09-.36,1-1.1a.77.77,0,0,1-.43.09.24.24,0,0,1-.18-.13c-.15-.26.07-.48.87-1l.87-.58a.46.46,0,0,1-.3.05.36.36,0,0,1-.17-.13C6.53,11.19,6.48,11.1,9,9.5c-.19.08-.29.1-.35.08a.28.28,0,0,1-.17-.13c-.18-.3-.18-.31,4.6-3.42l.16-.11a.26.26,0,0,1-.15-.12.26.26,0,0,1,.09-.35l.12,0c.25-.1,1.35-.78,2.24-1.32,2.32-1.44,2.43-1.47,2.6-1.43a.3.3,0,0,1,.17.12c.16.28.18.32-3.6,2.8l.58-.36c5.9-3.59,6.61-4,6.87-3.9a.28.28,0,0,1,.17.13c.11.19.17.29-1.08,1.12,2.21-1.3,2.69-1.51,2.88-1.46a.28.28,0,0,1,.17.13c.11.18.17.28-.93,1C25.51,1,26.17.71,26.39.77a.28.28,0,0,1,.17.13c.07.11.09.22-.12.44C28.23.31,29-.06,29.29,0a.3.3,0,0,1,.19.14c.14.25,0,.45-1,1.12-.6.4-1.49,1-2.71,1.7-2.27,1.38-5.26,3.13-8.43,5l-1.89,1.1h.05a.29.29,0,0,1,.16.13c.15.25.11.38-1.85,1.65l-2.22,1.4h0a.22.22,0,0,1,.16.12c.14.24.12.34-1.5,1.46l-1,.71c.55-.31.65-.32.75-.29a.31.31,0,0,1,.17.13c.14.25,0,.36-1.44,1.4l-.54.37c1.06-.62,1.18-.64,1.3-.61a.31.31,0,0,1,.17.13c.14.25,0,.35-1.25,1.23L6.68,18.05c1.49-.88,1.53-.87,1.66-.84a.31.31,0,0,1,.16.12c.14.25,0,.36-1,1.12l-.94.68C6.85,19,6.93,19,7,19a.31.31,0,0,1,.17.13c.14.25,0,.39-.91,1l-.41.3c.38-.21.46-.21.55-.19a.31.31,0,0,1,.17.13c.14.24,0,.37-.86,1l-.34.26c.76-.45.85-.46,1-.43a.28.28,0,0,1,.16.12c.14.25,0,.39-.82,1-.29.23-.65.49-1,.77,1.41-.85,1.44-.84,1.58-.81a.26.26,0,0,1,.16.13c.14.23.16.28-1.92,1.8,1.49-.9,1.54-.89,1.68-.85a.22.22,0,0,1,.16.12c.15.25.15.25-2.08,1.93,1.49-.91,1.54-.9,1.68-.86a.25.25,0,0,1,.16.12c.15.25,0,.39-.89,1l-.94.67a.33.33,0,0,1,.14,0,.26.26,0,0,1,.16.13c.14.23.15.25-1.55,1.64,1.45-.88,1.48-.87,1.62-.84a.31.31,0,0,1,.17.13c.14.24.14.24-2,1.9l-.06.05c1.8-1.09,1.81-1.09,2-1.05a.22.22,0,0,1,.16.12c.13.22.15.25-1.4,1.48,1.89-1.15,1.93-1.14,2.07-1.1a.26.26,0,0,1,.17.12c.13.23,0,.35-.76.9l-.57.43c.39-.22.43-.21.52-.19a.25.25,0,0,1,.16.12c.12.22.14.25-1.19,1.35,1-.61,1-.6,1.17-.57a.25.25,0,0,1,.16.12c.14.24,0,.39-.74.93l-1,.77c.9-.55.94-.54,1-.51a.35.35,0,0,1,.17.12c.12.21.13.23-1.1,1.25,2.07-1.26,2.09-1.25,2.24-1.21a.22.22,0,0,1,.16.12c.13.22.14.24-1.64,1.57,1.27-.76,1.29-.75,1.42-.72a.26.26,0,0,1,.16.13c.14.23,0,.37-.71.9l-.83.65c1.45-.88,1.47-.87,1.6-.84a.3.3,0,0,1,.17.12c.13.23.14.24-1.63,1.68.36-.21.4-.2.5-.18a.31.31,0,0,1,.16.12c.11.2.12.21-1,1.34,1.16-.71,1.18-.7,1.32-.67a.28.28,0,0,1,.16.12c.13.23.13.23-1.52,1.67l0,0c2.06-1.24,2.07-1.24,2.22-1.2a.25.25,0,0,1,.16.12c.13.22.13.23-1.36,1.48,1.06-.65,1.09-.64,1.22-.61a.33.33,0,0,1,.16.13c.11.19.12.21-.88,1.07.2-.1.26-.1.34-.08a.27.27,0,0,1,.17.13c.11.19.12.21-.93,1.15,1.12-.68,1.15-.68,1.28-.64a.22.22,0,0,1,.16.12c.12.21.13.23-1.1,1.29,1-.6,1-.6,1.14-.56a.22.22,0,0,1,.16.12c.12.2.13.21-1.09,1.29,1.29-.79,1.32-.78,1.46-.74a.22.22,0,0,1,.16.12c.12.2.13.21-1.18,1.39l0,0c1.93-1.18,2-1.18,2.11-1.14a.28.28,0,0,1,.16.12c.13.22.14.25-1.37,1.51,1-.6,1-.59,1.13-.56a.26.26,0,0,1,.16.13c.13.21.14.24-1.1,1.28.9-.54.93-.54,1.06-.51a.33.33,0,0,1,.16.13c.12.2.13.22-1.08,1.23,2.19-1.32,2.21-1.31,2.36-1.27a.31.31,0,0,1,.16.12c.12.21.13.23-1.14,1.35,1.74-1.05,1.76-1.05,1.91-1a.25.25,0,0,1,.16.12c.12.2.13.22-1.16,1.32.25-.13.32-.14.4-.12a.28.28,0,0,1,.17.13c.12.21.13.22-1.45,1.57,1.48-.91,1.51-.9,1.65-.87a.26.26,0,0,1,.16.13c.11.18.12.2-.68,1,1-.66,1.12-.67,1.26-.64a.31.31,0,0,1,.17.13c.1.18.11.2-.75,1.08,1.55-.94,1.57-.94,1.71-.9a.22.22,0,0,1,.16.12c.13.21.13.22-1.31,1.48,1.12-.68,1.2-.69,1.33-.66a.3.3,0,0,1,.17.12c.11.19.12.21-.75,1,1.2-.75,1.27-.76,1.41-.72a.22.22,0,0,1,.16.12c.12.2.12.21-.9,1.24l.2-.12c1.87-1.16,1.9-1.15,2.06-1.11a.28.28,0,0,1,.16.12c.12.21.13.23-1.17,1.3,1.15-.7,1.19-.69,1.31-.65a.26.26,0,0,1,.17.12c.13.23.14.25-1.63,1.66,2.35-1.42,2.36-1.42,2.52-1.38a.29.29,0,0,1,.16.12c.13.23.14.24-1.5,1.64,1.36-.83,1.39-.83,1.53-.79a.31.31,0,0,1,.16.12c.12.21.12.22-1.36,1.53l.1-.06C18,51,18,51,18.17,51a.26.26,0,0,1,.16.13c.14.23.14.24-1.68,1.7,1.76-1.06,1.78-1.06,1.92-1a.25.25,0,0,1,.16.12c.13.22.14.24-1.44,1.49,1.74-1.06,1.77-1,1.92-1a.24.24,0,0,1,.16.12c.13.22.14.24-1.34,1.49l.24-.15c2.38-1.45,2.4-1.44,2.56-1.4a.25.25,0,0,1,.16.12c.13.22.14.24-1.45,1.47,2.09-1.26,2.12-1.25,2.27-1.21A.25.25,0,0,1,22,53c.13.22.14.24-1.49,1.57,1.71-1,1.74-1,1.89-1a.27.27,0,0,1,.16.12c.13.22,0,.35-.61.85l-.47.39h0c2.24-1.38,2.27-1.37,2.43-1.33a.28.28,0,0,1,.16.12c.13.22,0,.35-.54.79L23,55c1.86-1.15,1.9-1.14,2.05-1.11a.31.31,0,0,1,.17.13c.13.23,0,.37-.67.89l-1.07.89.38-.24c2.94-1.79,3-1.78,3.15-1.74a.31.31,0,0,1,.17.13c.13.23.14.24-1.93,1.84,2.62-1.61,2.65-1.59,2.82-1.55a.24.24,0,0,1,.16.12c.14.24-.05.38-.73.92l-.82.63c2-1.25,2.15-1.28,2.32-1.24a.26.26,0,0,1,.17.12c.13.24.13.24-1.93,1.89l-.07,0,.44-.26c3.2-2,3.37-2,3.55-2a.3.3,0,0,1,.17.12c.14.24,0,.35-.83,1l-1.22.87.55-.33c4.15-2.5,4.19-2.49,4.37-2.44a.22.22,0,0,1,.16.12c.14.24,0,.37-.88,1-.51.38-1.19.87-1.91,1.38h0l.94-.57c3.66-2.25,3.84-2.32,4-2.27a.3.3,0,0,1,.17.12c.14.25,0,.36-1.15,1.18-.67.47-1.55,1.07-2.49,1.7-.58.39-1.24.83-1.84,1.25,2.56-1.45,6.89-4.1,10.6-6.36,9.5-5.79,12.54-7.58,13-7.46a.26.26,0,0,1,.18.14c.14.23.08.47-1.71,1.62a1,1,0,0,1,.5-.13.31.31,0,0,1,.17.13c.12.22.09.42-1.37,1.39.41-.2.62-.25.73-.22a.25.25,0,0,1,.17.13c.15.25.21.35-2.71,2.16.78-.42,1.12-.54,1.27-.5a.25.25,0,0,1,.17.13c.15.25-.12.45-.54.74s-.74.51-1.35.9l-1.6,1a.56.56,0,0,1,.34-.06.24.24,0,0,1,.17.12.26.26,0,0,1-.09.35.32.32,0,0,1-.16,0c-.47.15-3.21,1.82-5.22,3-4.14,2.53-4.33,2.61-4.53,2.56a.26.26,0,0,1-.16-.13c-.15-.25.1-.45.6-.81.34-.24.84-.58,1.53-1s1.7-1.08,2.68-1.69l-.85.52c-6.51,4-7.71,4.66-8,4.58a.36.36,0,0,1-.17-.13c-.15-.26.06-.47.82-1-1.26.7-1.85.95-2,.9a.3.3,0,0,1-.19-.14c-.15-.26.12-.48.8-1l.27-.18c-2.22,1.29-3,1.65-3.23,1.59a.3.3,0,0,1-.18-.13c-.09-.16-.1-.32.46-.76A9.38,9.38,0,0,1,29,59.13ZM40.07,53.3c-2.32,1.35-4.6,2.7-6.22,3.71C35.51,56.05,37.78,54.69,40.07,53.3Zm8.72-1.75Zm0,0Zm0,0h0Zm0,0Zm0,0Zm0,0Zm0,0Zm.86-3.43-3.54,2.13C47.35,49.5,48.57,48.77,49.65,48.11Zm3.12-2.9c-1.93,1.09-5,2.94-8.16,4.86C47.66,48.29,50.85,46.42,52.77,45.21ZM12.09,10.05c-1.46.86-2.85,1.69-4,2.38C9.24,11.78,10.61,11,12.09,10.05Zm2.63-2.54c-2.09,1.24-4.3,2.56-6,3.61C10.43,10.12,12.61,8.8,14.72,7.51Zm-1.16-2Zm0,0Zm0,0Zm0,0Zm0,0Zm0,0Zm0,0h0Zm0,0h0Zm0,0Zm0,0Zm0,0ZM26.81,1.72c-1.65.94-3.93,2.32-6.27,3.75C22.94,4.06,25.21,2.71,26.81,1.72Z"/></g></g></svg>