<?xml version="1.0" encoding="utf-8"?>
<!-- Generator: Adobe Illustrator 22.0.0, SVG Export Plug-In . SVG Version: 6.00 Build 0)  -->
<svg version="1.1" id="Capa_1" xmlns="http://www.w3.org/2000/svg" xmlns:xlink="http://www.w3.org/1999/xlink" x="0px" y="0px"
	 viewBox="0 0 338.6 131.5" style="enable-background:new 0 0 338.6 131.5;" xml:space="preserve">
<style type="text/css">
	.st0{fill:#6400DA;}
	.st1{fill:#FF6500;}
	.st2{fill:#FFFFFF;}
	.st3{fill:#FFD600;}
	.st4{fill:#005693;}
	.st5{fill:#34A836;}
	.st6{fill-rule:evenodd;clip-rule:evenodd;fill:#FFFFFF;}
	.st7{opacity:0.39;}
	.st8{fill:none;stroke:#FFFFFF;stroke-width:2.9784;stroke-linecap:round;stroke-linejoin:round;}
	.st9{fill:#C6433E;}
	.st10{fill:#E20613;}
	.st11{fill:#FCD570;}
	.st12{fill:#FCCD56;}
	.st13{fill:#F5BB41;}
	.st14{fill:#FDE19A;}
	.st15{fill:#FCD879;}
	.st16{fill:#FCD05E;}
	.st17{fill:#F6C55B;}
	.st18{fill:#F7B056;}
	.st19{fill:#F59B45;}
	.st20{fill-rule:evenodd;clip-rule:evenodd;fill:#FFC700;}
	.st21{fill:#F4EBC6;}
	.st22{fill:#B9B295;}
	.st23{fill:#0E0E0E;}
	.st24{fill:#884D30;}
	.st25{fill:#3F0D0B;}
	.st26{fill:#A86C0E;}
	.st27{fill:#F09915;}
	.st28{opacity:0.4;fill:#FFFFFF;}
	.st29{fill:#DCDDEE;}
	.st30{fill:#A5A3A9;}
	.st31{fill:#000922;}
	.st32{fill:#FFFFC7;}
	.st33{fill:#8BBFCB;}
	.st34{fill:#B3D5DD;}
	.st35{fill:#00AEEF;}
	.st36{fill:#008FEF;}
	.st37{fill:#4E82B0;}
	.st38{fill:#5A93B5;}
	.st39{fill:none;stroke:#003142;stroke-width:2.4444;stroke-miterlimit:10;}
	.st40{fill:#252D42;}
	.st41{fill:#00090C;}
	.st42{clip-path:url(#SVGID_2_);}
	.st43{fill:url(#SVGID_3_);}
	.st44{fill:url(#SVGID_4_);}
	.st45{fill:url(#SVGID_5_);}
	.st46{fill:url(#SVGID_6_);}
	.st47{fill:url(#SVGID_7_);}
	.st48{fill:url(#SVGID_8_);}
	.st49{fill:url(#SVGID_9_);}
	.st50{fill:url(#SVGID_10_);}
	.st51{fill:url(#SVGID_11_);}
	.st52{fill:url(#SVGID_12_);}
	.st53{fill:url(#SVGID_13_);}
	.st54{fill:url(#SVGID_14_);}
	.st55{fill:url(#SVGID_15_);}
	.st56{fill:url(#SVGID_16_);}
	.st57{fill:url(#SVGID_17_);}
	.st58{fill:url(#SVGID_18_);}
	.st59{fill:url(#SVGID_19_);}
	.st60{fill:#EBF3FA;}
	.st61{clip-path:url(#SVGID_2_);fill:url(#SVGID_20_);}
	.st62{fill:url(#SVGID_21_);}
	.st63{fill:url(#SVGID_22_);}
	.st64{fill:url(#SVGID_23_);}
	.st65{fill:url(#SVGID_24_);}
	.st66{clip-path:url(#SVGID_26_);}
	.st67{clip-path:url(#SVGID_28_);}
	.st68{clip-path:url(#SVGID_32_);}
	.st69{fill:#418421;}
	.st70{fill:#2D660E;}
	.st71{fill:#84D84E;}
	.st72{opacity:0.4;fill:#2D660E;}
	.st73{fill:#EDC174;}
	.st74{fill:#D8A34E;}
	.st75{fill:#C18733;}
	.st76{opacity:0.4;fill:#1B3D04;}
	.st77{fill:#6AC634;}
	.st78{fill:#245109;}
	.st79{fill:#D6854D;}
	.st80{fill:#BC6428;}
	.st81{fill:#492004;}
	.st82{fill:#66BC2E;}
	.st83{clip-path:url(#SVGID_32_);fill:#009CDD;}
	.st84{fill:#D8BF4C;}
	.st85{fill:#4BDDFD;}
	.st86{opacity:0.6;fill:#13BDE5;}
	.st87{opacity:0.5;fill:#FFEAC1;}
	.st88{opacity:0.7;fill:#FFEAC1;}
	.st89{fill:#FAFFDE;}
	.st90{opacity:0.2;}
	.st91{fill:#BF9D62;}
	.st92{clip-path:url(#SVGID_36_);}
	.st93{clip-path:url(#SVGID_40_);fill:none;}
	.st94{clip-path:url(#SVGID_44_);fill:url(#SVGID_45_);}
	.st95{clip-path:url(#SVGID_44_);fill:url(#SVGID_46_);}
	.st96{clip-path:url(#SVGID_44_);fill:#009CDD;}
	.st97{clip-path:url(#SVGID_44_);}
	.st98{fill:url(#SVGID_47_);}
	.st99{fill:url(#SVGID_48_);}
	.st100{fill:url(#SVGID_49_);}
	.st101{fill:url(#SVGID_50_);}
	.st102{fill:url(#SVGID_51_);}
	.st103{fill:url(#SVGID_52_);}
	.st104{fill:url(#SVGID_53_);}
	.st105{fill:url(#SVGID_54_);}
	.st106{fill:url(#SVGID_55_);}
	.st107{fill:url(#SVGID_56_);}
	.st108{fill:url(#SVGID_57_);}
	.st109{fill:url(#SVGID_58_);}
	.st110{fill:url(#SVGID_59_);}
	.st111{fill:url(#SVGID_60_);}
	.st112{fill:url(#SVGID_61_);}
	.st113{fill:url(#SVGID_62_);}
	.st114{fill:url(#SVGID_63_);}
	.st115{fill:url(#SVGID_64_);}
	.st116{fill:url(#SVGID_65_);}
	.st117{fill:url(#SVGID_66_);}
	.st118{fill:url(#SVGID_67_);}
	.st119{fill:url(#SVGID_68_);}
	.st120{fill:url(#SVGID_69_);}
	.st121{fill:url(#SVGID_70_);}
	.st122{fill:url(#SVGID_71_);}
	.st123{fill:url(#SVGID_72_);}
	.st124{fill:url(#SVGID_73_);}
	.st125{fill:url(#SVGID_74_);}
	.st126{fill:url(#SVGID_75_);}
	.st127{fill:url(#SVGID_76_);}
	.st128{fill:url(#SVGID_77_);}
	.st129{fill:url(#SVGID_78_);}
	.st130{fill:url(#SVGID_79_);}
	.st131{fill:url(#SVGID_80_);}
	.st132{fill:url(#SVGID_81_);}
	.st133{fill:url(#SVGID_82_);}
	.st134{fill:url(#SVGID_83_);}
	.st135{fill:url(#SVGID_84_);}
	.st136{fill:url(#SVGID_85_);}
	.st137{fill:url(#SVGID_86_);}
	.st138{fill:url(#SVGID_87_);}
	.st139{fill:#3B3637;}
	.st140{fill:none;stroke:#3B3637;stroke-width:3;stroke-miterlimit:10;}
	.st141{fill:url(#SVGID_88_);}
	.st142{fill:url(#SVGID_89_);}
	.st143{fill:url(#SVGID_92_);}
	.st144{opacity:0.3;}
	.st145{fill:none;stroke:#007D25;stroke-width:3.1395;stroke-linecap:round;stroke-linejoin:round;}
</style>
<g class="st144">
	<g>
		<g>
			<g>
				<polyline class="st145" points="3.8,11.4 15.6,4.6 2.4,15.6 23.9,3.2 5,18.3 27.7,5.2 6.5,20.6 33.3,5.1 1.6,27.6 39.6,5.7 
					4.1,30.3 47.6,5.2 3.6,35.4 55,5.7 3.1,39.4 67.4,2.3 5.6,41.1 68.1,5 6.4,43.4 75.2,3.7 2.8,49.9 79.4,5.7 5,53.3 88.4,5.1 
					2.2,57.5 98.3,2 8.1,57.9 102.9,3.1 4.5,62.9 109.5,2.3 8.7,63.5 109.9,5 4.4,69.4 119.7,2.9 2.7,75 126.9,3.3 8.4,76.2 
					137,1.9 5.2,82.3 141.2,3.8 4.5,85.4 147,3.2 7.5,88.1 156.9,1.8 6,91.9 160.8,2.6 4.9,97 163.4,5.5 2.2,101.9 170.9,4.4 
					1.8,105.7 177.9,4.1 3,109.7 189.1,2.3 3.4,112.3 188.2,5.6 6.1,113.6 196.6,3.7 8.1,116.2 206.4,1.8 8.8,120.5 210.9,3.9 
					7.1,125.1 217.6,3.6 10.4,127.4 222.9,4.7 19.8,126.5 233.8,3 21.4,129.5 240.6,2.9 30.2,128.5 246.4,3.7 38.7,128.3 255.6,3.1 
					43.8,128.1 256.3,5.4 48.7,127.8 265,3 53.1,128.7 267.3,5 63.4,126.8 276.5,3.8 66,129.2 284.4,3.1 72.3,129.8 289.9,4.1 
					78.4,129.1 294.6,4.3 88.5,127.8 304.5,3.1 95,127.5 313.1,1.6 95.8,129.5 316.6,2.1 103.4,128.3 315.1,6 112.3,127.2 
					324.3,4.8 119.8,127.6 329.9,6.3 125.6,126.9 333.8,6.7 134.4,126.1 330.9,12.7 139.4,127 336.7,13.1 147.1,126.2 333.7,18.4 
					153.2,126.7 332.4,23.2 158.7,127.4 331.6,27.7 162.3,129.3 335.8,29.1 175.8,126.3 333.1,35.4 177.9,129.3 333,39.8 
					187.5,126.8 330.3,44.4 194.7,127.4 337,45.3 202.5,127.2 335.5,50.4 211.3,126.8 337,54.2 216.1,128.2 330.1,62.4 223.9,127.9 
					336.8,62.8 228.8,129.9 335.9,68.1 236.7,129.1 336,71.8 248.9,126.6 331,79.2 251.8,128.4 334.7,80.6 255.1,129.4 332,85 
					264.9,127.5 334.7,87.2 269.8,128.9 335.9,90.8 274.4,129.9 334.4,95.2 279.7,129.7 333.3,98.7 291,126.6 331.2,103.5 
					292.9,129.4 332.2,106.7 301.3,129.1 335.2,109.5 308.6,127.8 332.7,113.8 312.8,128.4 334.1,116.1 320.6,127.9 334.7,119.7 
									"/>
			</g>
		</g>
	</g>
</g>
</svg>
