<svg xmlns="http://www.w3.org/2000/svg" viewBox="0 0 29.96 20.98"><defs><style>.cls-1{fill:#fff;}</style></defs><title>construir-paz-youtube</title><g id="Capa_2" data-name="Capa 2"><g id="Capa_1-2" data-name="Capa 1"><path class="cls-1" d="M29.34,3.28A3.76,3.76,0,0,0,26.7.64C24.36,0,15,0,15,0S5.6,0,3.26.62A3.81,3.81,0,0,0,.62,3.28,39.43,39.43,0,0,0,0,10.49a39.16,39.16,0,0,0,.62,7.2,3.71,3.71,0,0,0,2.64,2.64C5.63,21,15,21,15,21s9.38,0,11.72-.62a3.76,3.76,0,0,0,2.64-2.64A39.43,39.43,0,0,0,30,10.51,37.81,37.81,0,0,0,29.34,3.28ZM12,15V6l7.8,4.49Z"/></g></g></svg>