<svg xmlns="http://www.w3.org/2000/svg" viewBox="0 0 13.78 25.48"><defs><style>.cls-1{fill:#fff;}</style></defs><title>construir-paz-facebook</title><g id="Capa_2" data-name="Capa 2"><g id="Capa_1-2" data-name="Capa 1"><g id="Capa_2-2" data-name="Capa 2"><g id="Capa_1-2-2" data-name="Capa 1-2"><path class="cls-1" d="M13.13,5H10.59a1.25,1.25,0,0,0-1.25.78,2.06,2.06,0,0,0-.12.7V9c0,.18.1.16.2.16h3.51c.5,0,.7.18.7.69v3.92c0,.45-.19.64-.64.64H9.47c-.2,0-.25,0-.25.24V24.79c0,.55-.16.69-.7.69h-4c-.47,0-.65-.18-.65-.65V14.63c0-.18,0-.23-.22-.23h-3c-.43,0-.62-.19-.62-.63v-4a.54.54,0,0,1,.46-.62H3.64c.19,0,.22-.06.22-.23,0-1.12,0-2.23,0-3.34A6.21,6.21,0,0,1,5,2.3,5.4,5.4,0,0,1,8.29.21,7.61,7.61,0,0,1,10,0h3.14a.55.55,0,0,1,.63.45,1,1,0,0,1,0,.17V4.32C13.78,4.76,13.59,4.94,13.13,5Z"/></g></g></g></g></svg>