<svg xmlns="http://www.w3.org/2000/svg" viewBox="0 0 25.49 25.49"><defs><style>.cls-1{fill:#fff;}</style></defs><title>construir-paz-instagram</title><g id="Capa_2" data-name="Capa 2"><g id="Capa_1-2" data-name="Capa 1"><g id="Capa_2-2" data-name="Capa 2"><g id="Capa_1-2-2" data-name="Capa 1-2"><path class="cls-1" d="M25.49,12.05V7.14a6.51,6.51,0,0,0-.6-2.92A7,7,0,0,0,18.27,0H12.11c-1.67,0-3.32,0-5,0A6.65,6.65,0,0,0,4.22.6,7,7,0,0,0,0,7.23V13.3C0,15,0,16.71,0,18.36a6.64,6.64,0,0,0,.6,2.91,7,7,0,0,0,6.63,4.22h11.5A6.22,6.22,0,0,0,22,24.55a6.92,6.92,0,0,0,3.54-6.26C25.5,16.21,25.49,14.13,25.49,12.05Zm-3.42,9.53a4.74,4.74,0,0,1-3.72,1.68H7.13a4.78,4.78,0,0,1-4.79-4,8.26,8.26,0,0,1-.08-1V7.24A4.83,4.83,0,0,1,6.2,2.37a4.22,4.22,0,0,1,.94-.08H18.36A4.76,4.76,0,0,1,23.1,5.93a5.58,5.58,0,0,1,.14,1.35V18.34A4.76,4.76,0,0,1,22.07,21.58Z"/><path class="cls-1" d="M12.75,6.19a6.57,6.57,0,1,0,6.56,6.56h0a6.55,6.55,0,0,0-6.55-6.55Zm0,10.87a4.31,4.31,0,1,1,4.32-4.3,4.32,4.32,0,0,1-4.32,4.3Z"/><path class="cls-1" d="M19.59,4.26a1.67,1.67,0,1,0,1.66,1.67h0A1.67,1.67,0,0,0,19.59,4.26Z"/></g></g></g></g></svg>