<svg xmlns="http://www.w3.org/2000/svg" viewBox="0 0 25.5 20.88"><defs><style>.cls-1{fill:#fff;}</style></defs><title>construir-paz-twitter</title><g id="Capa_2" data-name="Capa 2"><g id="Capa_1-2" data-name="Capa 1"><g id="Capa_2-2" data-name="Capa 2"><g id="Capa_1-2-2" data-name="Capa 1-2"><path class="cls-1" d="M24.84.45a11.25,11.25,0,0,1-3,1.19.54.54,0,0,1-.57-.19,5.23,5.23,0,0,0-8.74,4.81c0,.21,0,.23-.2.22a12.1,12.1,0,0,1-1.71-.21A14.69,14.69,0,0,1,3.13,2.48,19.35,19.35,0,0,1,1.73,1,5.22,5.22,0,0,0,1,4a5.23,5.23,0,0,0,2.21,4s.1.06.08.08a.15.15,0,0,1-.18,0,5.28,5.28,0,0,1-2.09-.59c-.11.07,0,.18-.06.27a5.26,5.26,0,0,0,4.12,4.91A4.16,4.16,0,0,1,4,12.77a5.28,5.28,0,0,1-1.12-.08,5.27,5.27,0,0,0,4.64,3.63h.18s0,0,0,0,0,0,0,0a8.91,8.91,0,0,1-2,1.23,10.27,10.27,0,0,1-3,.88A13,13,0,0,1,0,18.5l.17.11a13.93,13.93,0,0,0,1.64.94,15.33,15.33,0,0,0,9.11,1.07,13.81,13.81,0,0,0,8.35-4.88A15.08,15.08,0,0,0,23,5.62.64.64,0,0,1,23.26,5,9.41,9.41,0,0,0,25.5,2.56a12.26,12.26,0,0,1-2.91.77A5.41,5.41,0,0,0,24.84.45Z"/></g></g></g></g></svg>