<svg xmlns="http://www.w3.org/2000/svg" viewBox="0 0 161.28 146.8"><defs><style>.cls-1{fill:none;stroke:#fff;stroke-linecap:round;stroke-linejoin:round;stroke-width:0.9px;}.cls-2{fill:#4799cf;}.cls-3{fill:#d9d9d9;}.cls-4{fill:#aae5c8;}.cls-5{fill:#85bc94;}.cls-6{fill:#ea9d2d;}.cls-7{fill:#ebebeb;}.cls-8{fill:#5abcf3;}.cls-9{fill:#e06661;}.cls-10{fill:#cdcdcd;}.cls-11{fill:#fbb540;}.cls-12{fill:#fdc9a6;}</style></defs><title>educacion cifras</title><g id="Capa_2" data-name="Capa 2"><g id="Capa_1-2" data-name="Capa 1"><polyline class="cls-1" points="16.78 38.52 25.82 33.3 12.36 42.44 83.79 1.2 10.66 45.39 88 0.73 10.48 46.53 90.06 0.59 10.94 48.3 93.81 0.45 12.04 49.55 97.08 0.45 6.45 54.78 100.13 0.7 4.06 57.63 102.16 0.99 3.25 59.99 104.59 1.48 3.48 61.59 106.56 2.08 4.14 62.69 107.96 2.75 5 63.43 109.06 3.35 6.05 64.05 109.89 4.1 7.23 64.62 110.63 4.92 8.64 65.02 111.11 5.86 10.11 65.38 111.36 6.92 12.07 65.7 111.3 8.4 14.39 65.9 111.52 9.82 16.21 66 113.66 9.74 18.77 66.02 116.28 9.72 22.06 65.89 119.16 9.83 24.3 65.74 120.89 9.97 26.84 65.49 122.57 10.22 19.05 71.54 124.58 10.62 16.41 74.77 126.51 11.21 15.79 76.54 127.81 11.86 15.84 77.72 128.76 12.53 16.25 78.83 129.62 13.38 17.03 79.8 130.19 14.47 17.84 80.45 130.24 15.56 19.41 81.27 129.71 17.58 20.68 81.71 128.44 19.49 4.26 92.98 131.35 19.6 1.97 95.75 133.97 19.53 0.82 98.01 136.7 19.55 0.45 100.09 139.62 19.74 0.56 101.38 141.48 20.02 1.18 102.69 143.61 20.46 2.16 103.81 145.5 21.05 3.29 104.68 146.96 21.73 4.78 105.52 148.19 22.72 6.6 106.27 149.04 24.02 8.5 106.8 149.24 25.54 10.98 107.3 148.41 27.96 13.57 107.66 144.73 31.93 15.99 107.89 133.77 39.89 18.9 108 135.64 40.6 21.35 108.02 136.91 41.31 23.65 107.98 137.81 42.07 25.56 107.92 138.3 42.83 27.78 107.77 138.7 43.73 30.81 107.55 138.7 45.26 34.28 107.17 137.71 47.45 37.92 106.69 135.36 50.44 42.83 105.94 139.25 50.27 48.06 104.97 142.72 50.31 48.5 106.51 145.47 50.52 48.99 107.87 147.73 50.86 49.96 109.19 150.03 51.41 34.08 120.29 152.04 52.18 31.57 123.25 153.33 52.95 30.53 125.1 154.19 53.71 30.05 127.44 154.95 55.33 30.13 128.48 154.99 56.39 30.62 129.76 154.41 58.29 31.53 131.03 151.61 61.7 32.29 131.75 139.49 69.86 33.59 132.57 142.19 69.88 34.92 133.26 144.54 69.97 36.19 133.7 146.37 70.09 37.52 134.15 148.15 70.28 39.68 134.62 150.55 70.6 41.51 134.94 152.28 70.99 43.96 135.24 154.32 71.52 46.07 135.38 155.76 72.05 47.75 135.47 156.8 72.51 50.97 135.5 158.44 73.46 52.87 135.49 159.14 74.13 56.64 135.31 160.23 75.51 59.32 135.13 160.74 76.58 63.5 134.72 160.83 78.52 62.11 137 160.35 80.28 61.22 138.61 159.44 81.91 60.89 140.72 156.1 85.75 61.26 141.99 140.82 96.06 62.07 143.09 141.72 97.1 63.4 144.08 142.33 98.51 64.61 144.71 142.42 99.78 66.86 145.44 141.97 102.07 69.2 145.91 140.29 104.87 71.31 146.15 137.23 108.09 74.51 146.34 131.64 113.36 76.9 146.35 133.91 113.44 80.12 146.26 136.53 113.69 83.46 146.01 138.76 114.08 86.83 145.69 140.7 114.58 89.95 145.23 142.16 115.09 94.06 144.57 143.71 115.9 96.84 144.02 144.42 116.55 100.69 143.21 145.21 117.51 105.7 141.97 145.69 118.89 109.39 140.92 145.71 119.95 115.22 139.11 144.96 121.94 125.02 135.41 141.56 125.86"/><polyline class="cls-1" points="38.05 17.24 47.4 11.84 33.71 20.89 55.35 8.39 31.16 24.26 63.32 5.69 30.49 26.52 69.63 3.93 30.57 27.79 73.55 2.97 30.95 28.92 77.12 2.27 31.9 30.21 81.67 1.48"/><path class="cls-2" d="M89.8,24.58a1.88,1.88,0,0,1-1.87-1.88V13.33a1.88,1.88,0,0,1,3.75,0V22.7A1.88,1.88,0,0,1,89.8,24.58Z"/><path class="cls-3" d="M80.43,22.7H99.18V35.82H80.43Z"/><path class="cls-2" d="M87.93,28.32h3.75V37.7H87.93Z"/><path class="cls-4" d="M52.32,80.81h73.1V88.3H52.32Z"/><path class="cls-5" d="M52.32,88.3h73.1v7.5H52.32Z"/><path class="cls-4" d="M52.32,95.8h73.1v7.5H52.32Z"/><path class="cls-6" d="M76.68,80.81h26.24v26.24H76.68Z"/><path class="cls-7" d="M71.06,35.82h37.49v45H71.06Z"/><path class="cls-8" d="M76.68,41.45h3.75v3.74H76.68Z"/><path class="cls-8" d="M84.18,41.45h3.75v3.74H84.18Z"/><path class="cls-8" d="M91.68,41.45h3.75v3.74H91.68Z"/><path class="cls-8" d="M99.18,41.45h3.74v3.74H99.18Z"/><path class="cls-8" d="M76.68,48.94h3.75v3.75H76.68Z"/><path class="cls-8" d="M84.18,48.94h3.75v3.75H84.18Z"/><path class="cls-8" d="M91.68,48.94h3.75v3.75H91.68Z"/><path class="cls-8" d="M99.18,48.94h3.74v3.75H99.18Z"/><path class="cls-8" d="M76.68,56.44h3.75v3.75H76.68Z"/><path class="cls-8" d="M84.18,56.44h3.75v3.75H84.18Z"/><path class="cls-8" d="M91.68,56.44h3.75v3.75H91.68Z"/><path class="cls-8" d="M99.18,56.44h3.74v3.75H99.18Z"/><path class="cls-8" d="M76.68,63.94h3.75v3.75H76.68Z"/><path class="cls-8" d="M84.18,63.94h3.75v3.75H84.18Z"/><path class="cls-8" d="M91.68,63.94h3.75v3.75H91.68Z"/><path class="cls-8" d="M99.18,63.94h3.74v3.75H99.18Z"/><path class="cls-2" d="M82.31,73.31H89.8v7.5H82.31Z"/><path class="cls-8" d="M89.8,73.31h7.5v7.5H89.8Z"/><path class="cls-3" d="M56.06,58.31h15v22.5h-15Z"/><path class="cls-9" d="M71.06,58.31H52.32l3.74-7.49h15Z"/><path class="cls-10" d="M56.06,67.69h15v3.75h-15Z"/><path class="cls-3" d="M56.06,43.32h15v7.5h-15Z"/><path class="cls-3" d="M123.54,80.81h-15V58.31h15Z"/><path class="cls-9" d="M108.55,58.31h18.74l-3.75-7.49h-15Z"/><path class="cls-10" d="M108.55,67.69h15v3.75h-15Z"/><path class="cls-3" d="M108.55,43.32h15v7.5h-15Z"/><path class="cls-2" d="M61.69,75.18h3.75v5.63H61.69Z"/><path class="cls-2" d="M114.17,75.18h3.75v5.63h-3.75Z"/><path class="cls-9" d="M56.06,43.32l7.5-7.5h7.5v7.5Z"/><path class="cls-9" d="M123.54,43.32l-7.49-7.5h-7.5v7.5Z"/><path class="cls-11" d="M80.43,80.81h22.49V88.3H80.43Z"/><path class="cls-12" d="M117.92,94.52l-22.76,8.2a3.74,3.74,0,0,1-3.1-.25L76.68,93.93H90.74a6.56,6.56,0,1,0,0-13.12H76.68L50.44,90.18H48.57v24.37h1.87l40.11,7.29a3.72,3.72,0,0,0,2.16-.25l29.58-12.79a7.47,7.47,0,0,0-4.37-14.28Z"/><path class="cls-2" d="M35.45,90.18h15V122h-15Z"/><path d="M127.29,95.8v-15a1.88,1.88,0,0,0-1.87-1.88V60.19h1.87A1.88,1.88,0,0,0,129,57.48l-3.56-7.1V43.32a.45.45,0,0,0,0-.11,1.71,1.71,0,0,0-.1-.5.64.64,0,0,0-.06-.18,2.06,2.06,0,0,0-.35-.52v0l-7.5-7.49a1.84,1.84,0,0,0-1.32-.55h-15V22.7a1.87,1.87,0,0,0-1.87-1.87h-7.5v-7.5a1.88,1.88,0,0,0-3.75,0v7.5h-7.5a1.87,1.87,0,0,0-1.87,1.87V34h-15a1.88,1.88,0,0,0-1.32.55L54.74,42v0a1.86,1.86,0,0,0-.36.52l-.06.18a2.11,2.11,0,0,0-.1.5s0,.07,0,.11v7.06l-3.55,7.1a1.87,1.87,0,0,0,1.68,2.71h1.87V78.93H52.32a1.88,1.88,0,0,0-1.88,1.88v7.38l-.32.11H35.45a1.88,1.88,0,0,0-1.88,1.88V122a1.88,1.88,0,0,0,1.88,1.88h15A1.88,1.88,0,0,0,52.32,122V116.8l37.91,6.89a5.58,5.58,0,0,0,3.23-.37l29.45-12.75a9.33,9.33,0,0,0,4.33-14.5A2.56,2.56,0,0,0,127.29,95.8ZM48.57,114.55v5.62H37.32V92.05H48.57ZM110.42,37.7h4.85L119,41.45h-8.6Zm0,7.49h11.25v3.75H110.42Zm0,7.5h12l1.88,3.75H110.42Zm0,7.5h11.25v7.5H110.42Zm0,11.25h11.25v7.49h-3.75V75.18h-3.75v3.75h-3.75Zm13.12,11.24v3.75H104.8V82.68Zm0,7.5v3a9.21,9.21,0,0,0-6.1-.47l-.16.05L114,93.93H104.8V90.18ZM82.31,24.58h15V34H91.68V28.32H87.93V34H82.31ZM72.93,58.31V37.7h33.74V78.93H99.18V73.31a1.87,1.87,0,0,0-1.88-1.87h-15a1.87,1.87,0,0,0-1.88,1.87v5.62h-7.5Zm28.12,39.37v.93L94.52,101a1.87,1.87,0,0,1-1.55-.13l-5.68-3.16ZM95.43,78.93H91.68V75.18h3.75Zm.55,15a8.53,8.53,0,0,0,2.68-3.75h2.39v3.75Zm4.44-7.5H99.08a8.42,8.42,0,0,0-1.33-3.75h3.3v3.75ZM87.93,75.18v3.75H84.18V75.18ZM64.34,37.7h4.85v3.75h-8.6Zm-6.4,7.49H69.19v3.75H57.94Zm-.72,7.5h12v3.75H55.35Zm4.47,22.49v3.75H57.94V71.44H69.19v7.49H65.44V75.18Zm-3.75-7.49v-7.5H69.19v7.5Zm-3.75,15H65.86l-10.65,3.8-.27,0h-.75Zm67.35,24.4L92,119.87a1.91,1.91,0,0,1-1.08.13l-38.58-7V91.5L77,82.68H90.74a4.69,4.69,0,1,1,0,9.37H76.68a1.88,1.88,0,0,0-.91,3.52l15.37,8.54a5.63,5.63,0,0,0,4.64.38l22.68-8.18a5.6,5.6,0,0,1,3.08,10.77Z"/><path d="M76.68,41.45h3.75v3.74H76.68Z"/><path d="M84.18,41.45h3.75v3.74H84.18Z"/><path d="M91.68,41.45h3.75v3.74H91.68Z"/><path d="M99.18,41.45h3.74v3.74H99.18Z"/><path d="M76.68,48.94h3.75v3.75H76.68Z"/><path d="M84.18,48.94h3.75v3.75H84.18Z"/><path d="M91.68,48.94h3.75v3.75H91.68Z"/><path d="M99.18,48.94h3.74v3.75H99.18Z"/><path d="M76.68,56.44h3.75v3.75H76.68Z"/><path d="M84.18,56.44h3.75v3.75H84.18Z"/><path d="M91.68,56.44h3.75v3.75H91.68Z"/><path d="M99.18,56.44h3.74v3.75H99.18Z"/><path d="M76.68,63.94h3.75v3.75H76.68Z"/><path d="M84.18,63.94h3.75v3.75H84.18Z"/><path d="M91.68,63.94h3.75v3.75H91.68Z"/><path d="M99.18,63.94h3.74v3.75H99.18Z"/></g></g></svg>