<svg xmlns="http://www.w3.org/2000/svg" viewBox="0 0 1604.19 772.31"><defs><style>.cls-1{isolation:isolate;}.cls-2{fill:#4171b1;}.cls-3{fill:none;stroke:#4d86c4;stroke-miterlimit:10;}.cls-4{fill:#4d86c4;}.cls-5,.cls-7{fill:#ef7641;}.cls-6{fill:#fdc543;}.cls-7{opacity:0.4;}.cls-11,.cls-12,.cls-7,.cls-9{mix-blend-mode:multiply;}.cls-11,.cls-8{fill:#d9daef;}.cls-9{fill:#7b769a;}.cls-12,.cls-9{opacity:0.47;}.cls-10{fill:#e83c70;}.cls-11{opacity:0.38;}.cls-12{fill:#a29fb8;}.cls-13{fill:#78ced3;}.cls-14{fill:#ace1e4;}.cls-15{fill:#e6e7f4;}.cls-16{fill:#f8c6af;}.cls-16,.cls-17{mix-blend-mode:soft-light;}.cls-17{fill:#fee7b0;}</style></defs><title>footer-img</title><g class="cls-1"><g id="Capa_2" data-name="Capa 2"><g id="Capa_1-2" data-name="Capa 1"><path class="cls-2" d="M1591.6,579A91.26,91.26,0,0,1,1585,612.1a85.92,85.92,0,0,1,18.71,8v-53A88.85,88.85,0,0,1,1591.6,579Z"/><path class="cls-3" d="M1591.6,579A91.26,91.26,0,0,1,1585,612.1a85.92,85.92,0,0,1,18.71,8v-53A88.85,88.85,0,0,1,1591.6,579Z"/><path class="cls-2" d="M1490.84,233.1c-.3,1.33-.61,2.62-.94,3.87,1-2,2-3.9,3-5.66C1492.22,231.89,1491.52,232.49,1490.84,233.1Z"/><path class="cls-3" d="M1490.84,233.1c-.3,1.33-.61,2.62-.94,3.87,1-2,2-3.9,3-5.66C1492.22,231.89,1491.52,232.49,1490.84,233.1Z"/><path class="cls-2" d="M1582.68,383.68c5.36-10.89-30.8-111.32-44.86-146.19-.83-.89-1.69-1.78-2.59-2.65q.7,1.6,1.32,3.18a74.43,74.43,0,0,1,3.29,10.8c.26,1.18.49,2.35.69,3.5s.37,2.3.52,3.43c.07.56.13,1.13.19,1.68q.35,3.36.39,6.54c0,.53,0,1,0,1.57s0,1,0,1.43c15.14,44.25,46.12,154.3,41,164.89a88.49,88.49,0,0,1,21,18.26V401.46A87.87,87.87,0,0,0,1582.68,383.68Z"/><path class="cls-3" d="M1582.68,383.68c5.36-10.89-30.8-111.32-44.86-146.19-.83-.89-1.69-1.78-2.59-2.65q.7,1.6,1.32,3.18a74.43,74.43,0,0,1,3.29,10.8c.26,1.18.49,2.35.69,3.5s.37,2.3.52,3.43c.07.56.13,1.13.19,1.68q.35,3.36.39,6.54c0,.53,0,1,0,1.57s0,1,0,1.43c15.14,44.25,46.12,154.3,41,164.89a88.49,88.49,0,0,1,21,18.26V401.46A87.87,87.87,0,0,0,1582.68,383.68Z"/><path class="cls-2" d="M16,641.65c1.18,0,2.34.07,3.5.15.34-39.39,31.53-71.22,70-71.22,38.65,0,70,32.18,70,71.88,0,.77,0,1.54-.05,2.31a58.07,58.07,0,0,1,23.53-4.95c29.51,0,54,22,58.84,50.85A58.69,58.69,0,0,1,282.15,708a58.37,58.37,0,0,1,64.19,10.06c14.8-22.26,39.69-36.88,67.91-36.88A81.23,81.23,0,0,1,478,712.33a65.13,65.13,0,0,1,15.08-9.72c.49-2.38,3-54.14,71.69-59.45,26.4-2,49.67,14.41,62.57,36,10.33-36.26,42.95-62.75,81.6-62.75a83.43,83.43,0,0,1,55.58,21.26c-.08-1.44-.14-2.89-.14-4.35,0-38.81,30.64-70.28,68.43-70.28A66.59,66.59,0,0,1,860.29,569c0-.24,2.17-.54,6.29-.89,7.23-33.78,36.55-59.06,71.61-59.06,26.37,0,49.5,14.3,62.41,35.77a41.5,41.5,0,0,1,65.3.49c3.29-20.57,20.68-36.26,41.63-36.26,19.87,0,36.53,14.11,41,33.1a35.47,35.47,0,0,1,35.32,1.78,55.89,55.89,0,0,1-.64-8.44c0-29.94,23.63-54.2,52.77-54.2,23.53,0,43.45,15.81,50.26,37.64a54.48,54.48,0,0,1,33.45-25.71c-7-8.25-3-29.62,3.9-39,18.33-24.82,45.64-19.53,70.91-19.53l.92,0c-7.67-57.52,47.38-38.18,46.76-57.86-2-61.53,28.45-34.83,45.49-97.88-1.07.9-6.56-7.18-3.1-26.09,0-.13.06-.26.08-.39-16.5,37.36-44.35,20.23-42.47,77.64.62,19.16-54.43.33-46.76,56.33l-.92,0c-25.27,0-52.58-5.15-70.91,19-6.95,9.16-10.9,30-3.9,38a54.29,54.29,0,0,0-33.45,25,52.78,52.78,0,0,0-102.39,24.34,36.34,36.34,0,0,0-35.32-1.74,42.2,42.2,0,0,0-82.64,3.08,42.21,42.21,0,0,0-65.3-.48,73.34,73.34,0,0,0-134,22.68c-4.12.34-6.33.63-6.29.86a68.42,68.42,0,0,0-95.92,62.66c0,1.42.06,2.83.14,4.23a85,85,0,0,0-137.18,40.4c-12.9-21-36.17-37-62.57-35.06-68.73,5.17-71.2,55.56-71.69,57.88A65.14,65.14,0,0,0,478,656.75a82.17,82.17,0,0,0-131.65,5.6,59.67,59.67,0,0,0-64.19-9.8,59.46,59.46,0,0,0-40.43-16.89A59.74,59.74,0,0,0,159.35,591c0-.75.05-1.5.05-2.25a70,70,0,0,0-139.93-.64c-1.16-.08-2.32-.14-3.5-.14A47.68,47.68,0,0,0,.5,590.52V644.3A46.67,46.67,0,0,1,16,641.65Z"/><path class="cls-3" d="M16,641.65c1.18,0,2.34.07,3.5.15.34-39.39,31.53-71.22,70-71.22,38.65,0,70,32.18,70,71.88,0,.77,0,1.54-.05,2.31a58.07,58.07,0,0,1,23.53-4.95c29.51,0,54,22,58.84,50.85A58.69,58.69,0,0,1,282.15,708a58.37,58.37,0,0,1,64.19,10.06c14.8-22.26,39.69-36.88,67.91-36.88A81.23,81.23,0,0,1,478,712.33a65.13,65.13,0,0,1,15.08-9.72c.49-2.38,3-54.14,71.69-59.45,26.4-2,49.67,14.41,62.57,36,10.33-36.26,42.95-62.75,81.6-62.75a83.43,83.43,0,0,1,55.58,21.26c-.08-1.44-.14-2.89-.14-4.35,0-38.81,30.64-70.28,68.43-70.28A66.59,66.59,0,0,1,860.29,569c0-.24,2.17-.54,6.29-.89,7.23-33.78,36.55-59.06,71.61-59.06,26.37,0,49.5,14.3,62.41,35.77a41.5,41.5,0,0,1,65.3.49c3.29-20.57,20.68-36.26,41.63-36.26,19.87,0,36.53,14.11,41,33.1a35.47,35.47,0,0,1,35.32,1.78,55.89,55.89,0,0,1-.64-8.44c0-29.94,23.63-54.2,52.77-54.2,23.53,0,43.45,15.81,50.26,37.64a54.48,54.48,0,0,1,33.45-25.71c-7-8.25-3-29.62,3.9-39,18.33-24.82,45.64-19.53,70.91-19.53l.92,0c-7.67-57.52,47.38-38.18,46.76-57.86-2-61.53,28.45-34.83,45.49-97.88-1.07.9-6.56-7.18-3.1-26.09,0-.13.06-.26.08-.39-16.5,37.36-44.35,20.23-42.47,77.64.62,19.16-54.43.33-46.76,56.33l-.92,0c-25.27,0-52.58-5.15-70.91,19-6.95,9.16-10.9,30-3.9,38a54.29,54.29,0,0,0-33.45,25,52.78,52.78,0,0,0-102.39,24.34,36.34,36.34,0,0,0-35.32-1.74,42.2,42.2,0,0,0-82.64,3.08,42.21,42.21,0,0,0-65.3-.48,73.34,73.34,0,0,0-134,22.68c-4.12.34-6.33.63-6.29.86a68.42,68.42,0,0,0-95.92,62.66c0,1.42.06,2.83.14,4.23a85,85,0,0,0-137.18,40.4c-12.9-21-36.17-37-62.57-35.06-68.73,5.17-71.2,55.56-71.69,57.88A65.14,65.14,0,0,0,478,656.75a82.17,82.17,0,0,0-131.65,5.6,59.67,59.67,0,0,0-64.19-9.8,59.46,59.46,0,0,0-40.43-16.89A59.74,59.74,0,0,0,159.35,591c0-.75.05-1.5.05-2.25a70,70,0,0,0-139.93-.64c-1.16-.08-2.32-.14-3.5-.14A47.68,47.68,0,0,0,.5,590.52V644.3A46.67,46.67,0,0,1,16,641.65Z"/><path class="cls-4" d="M1591.6,527a86.84,86.84,0,0,1-6.62,32.19,87.24,87.24,0,0,1,18.71,7.83V515.39A87.75,87.75,0,0,1,1591.6,527Z"/><path class="cls-3" d="M1591.6,527a86.84,86.84,0,0,1-6.62,32.19,87.24,87.24,0,0,1,18.71,7.83V515.39A87.75,87.75,0,0,1,1591.6,527Z"/><path class="cls-4" d="M1585,612.1A91.26,91.26,0,0,0,1591.6,579a88.85,88.85,0,0,0,12.09-11.9V567a87.24,87.24,0,0,0-18.71-7.83A86.84,86.84,0,0,0,1591.6,527a87.75,87.75,0,0,0,12.09-11.59V450.12a88.49,88.49,0,0,0-21-18.26c5.07-10.59-25.91-120.64-41-164.89,0,.54,0,1.07-.06,1.6,0,1-.1,2-.18,3s-.18,1.92-.28,2.84c-.07.53-.13,1-.2,1.55-.12.84-.25,1.67-.39,2.48-.07.43-.15.85-.23,1.27-.16.84-.32,1.65-.5,2.44-.35,1.57-.74,3-1.13,4.4q-.3,1-.6,1.95c-.51,1.55-1,2.91-1.51,4.07-.14.33-.28.64-.42.94s-.28.63-.42.9c-.22.46-.44.86-.63,1.2l-.18.3c-.62,1-1,1.31-1,.79,0-1.95-1.24-5.28-2.42-8.12-.29-.71-.59-1.39-.86-2-.83-1.86-1.48-3.18-1.48-3.18.27,10.18-9.57,17.33-9.4,15.59.08-.84.13-1.66.15-2.48v-.13c0-.78,0-1.55,0-2.31a1.09,1.09,0,0,1,0-.18c0-.75-.1-1.49-.17-2.22,0-.05,0-.11,0-.16-.08-.74-.18-1.47-.3-2.18v-.08a48.54,48.54,0,0,0-2.1-8.1v0a55.67,55.67,0,0,0-3.35-7.63c-.66-1.32-5.06,23.59-5.89,22.81-12.69-12-10.67-29.47-11.78-29.44s-6.29,5-8.39,11.85a.4.4,0,0,1-.13.21c-17,63.05-47.45,36.35-45.49,97.88.62,19.68-54.43.34-46.76,57.86l-.92,0c-25.27,0-52.58-5.29-70.91,19.53-6.95,9.41-10.9,30.78-3.9,39a54.48,54.48,0,0,0-33.45,25.71c-6.81-21.83-26.73-37.64-50.26-37.64-29.14,0-52.77,24.26-52.77,54.2a55.89,55.89,0,0,0,.64,8.44,35.47,35.47,0,0,0-35.32-1.78c-4.48-19-21.14-33.1-41-33.1-21,0-38.34,15.69-41.63,36.26a41.5,41.5,0,0,0-65.3-.49c-12.91-21.47-36-35.77-62.41-35.77-35.06,0-64.38,25.28-71.61,59.06-4.12.35-6.33.65-6.29.89a66.59,66.59,0,0,0-27.49-5.93c-37.79,0-68.43,31.47-68.43,70.28,0,1.46.06,2.91.14,4.35a83.43,83.43,0,0,0-55.58-21.26c-38.65,0-71.27,26.49-81.6,62.75-12.9-21.6-36.17-38-62.57-36-68.73,5.31-71.2,57.07-71.69,59.45A65.13,65.13,0,0,0,478,712.33a81.23,81.23,0,0,0-63.74-31.13c-28.22,0-53.11,14.62-67.91,36.88A58.37,58.37,0,0,0,282.15,708a58.69,58.69,0,0,0-40.43-17.35c-4.85-28.88-29.33-50.85-58.84-50.85a58.07,58.07,0,0,0-23.53,4.95c0-.77.05-1.54.05-2.31,0-39.7-31.32-71.88-70-71.88-38.43,0-69.62,31.83-70,71.22-1.16-.08-2.32-.15-3.5-.15A46.67,46.67,0,0,0,.5,644.3V771.81H1603.69V620.15A85.92,85.92,0,0,0,1585,612.1Z"/><path class="cls-3" d="M1585,612.1A91.26,91.26,0,0,0,1591.6,579a88.85,88.85,0,0,0,12.09-11.9V567a87.24,87.24,0,0,0-18.71-7.83A86.84,86.84,0,0,0,1591.6,527a87.75,87.75,0,0,0,12.09-11.59V450.12a88.49,88.49,0,0,0-21-18.26c5.07-10.59-25.91-120.64-41-164.89,0,.54,0,1.07-.06,1.6,0,1-.1,2-.18,3s-.18,1.92-.28,2.84c-.07.53-.13,1-.2,1.55-.12.84-.25,1.67-.39,2.48-.07.43-.15.85-.23,1.27-.16.84-.32,1.65-.5,2.44-.35,1.57-.74,3-1.13,4.4q-.3,1-.6,1.95c-.51,1.55-1,2.91-1.51,4.07-.14.33-.28.64-.42.94s-.28.63-.42.9c-.22.46-.44.86-.63,1.2l-.18.3c-.62,1-1,1.31-1,.79,0-1.95-1.24-5.28-2.42-8.12-.29-.71-.59-1.39-.86-2-.83-1.86-1.48-3.18-1.48-3.18.27,10.18-9.57,17.33-9.4,15.59.08-.84.13-1.66.15-2.48v-.13c0-.78,0-1.55,0-2.31a1.09,1.09,0,0,1,0-.18c0-.75-.1-1.49-.17-2.22,0-.05,0-.11,0-.16-.08-.74-.18-1.47-.3-2.18v-.08a48.54,48.54,0,0,0-2.1-8.1v0a55.67,55.67,0,0,0-3.35-7.63c-.66-1.32-5.06,23.59-5.89,22.81-12.69-12-10.67-29.47-11.78-29.44s-6.29,5-8.39,11.85a.4.4,0,0,1-.13.21c-17,63.05-47.45,36.35-45.49,97.88.62,19.68-54.43.34-46.76,57.86l-.92,0c-25.27,0-52.58-5.29-70.91,19.53-6.95,9.41-10.9,30.78-3.9,39a54.48,54.48,0,0,0-33.45,25.71c-6.81-21.83-26.73-37.64-50.26-37.64-29.14,0-52.77,24.26-52.77,54.2a55.89,55.89,0,0,0,.64,8.44,35.47,35.47,0,0,0-35.32-1.78c-4.48-19-21.14-33.1-41-33.1-21,0-38.34,15.69-41.63,36.26a41.5,41.5,0,0,0-65.3-.49c-12.91-21.47-36-35.77-62.41-35.77-35.06,0-64.38,25.28-71.61,59.06-4.12.35-6.33.65-6.29.89a66.59,66.59,0,0,0-27.49-5.93c-37.79,0-68.43,31.47-68.43,70.28,0,1.46.06,2.91.14,4.35a83.43,83.43,0,0,0-55.58-21.26c-38.65,0-71.27,26.49-81.6,62.75-12.9-21.6-36.17-38-62.57-36-68.73,5.31-71.2,57.07-71.69,59.45A65.13,65.13,0,0,0,478,712.33a81.23,81.23,0,0,0-63.74-31.13c-28.22,0-53.11,14.62-67.91,36.88A58.37,58.37,0,0,0,282.15,708a58.69,58.69,0,0,0-40.43-17.35c-4.85-28.88-29.33-50.85-58.84-50.85a58.07,58.07,0,0,0-23.53,4.95c0-.77.05-1.54.05-2.31,0-39.7-31.32-71.88-70-71.88-38.43,0-69.62,31.83-70,71.22-1.16-.08-2.32-.15-3.5-.15A46.67,46.67,0,0,0,.5,644.3V771.81H1603.69V620.15A85.92,85.92,0,0,0,1585,612.1Z"/><path class="cls-5" d="M1484.66,252.44A97.63,97.63,0,0,0,1489.9,237,63.42,63.42,0,0,0,1484.66,252.44Z"/><path class="cls-5" d="M1500.86,242.93a.41.41,0,0,0,0-.11c.88-7.32,4-14.38,6.21-18.67a33,33,0,0,0-14.15,7.16c-1,1.76-2,3.65-3,5.66a97.63,97.63,0,0,1-5.24,15.47c0,.13-.05.26-.08.39-3.46,18.91,2,27,3.1,26.09a257.59,257.59,0,0,0,6.39-33.31C1494.2,244.6,1496.89,243.58,1500.86,242.93ZM1489,255.12a53.55,53.55,0,0,0-1.06,12.18c0,1.25-1.89,1.2-1.92,0a55.08,55.08,0,0,1,1.13-12.68C1487.38,253.37,1489.23,253.91,1489,255.12Zm1-6.65-.54,3.05a.92.92,0,0,1-.46.58,1,1,0,0,1-.73.08,1,1,0,0,1-.58-.47,1.06,1.06,0,0,1-.08-.72l.54-3.05a.92.92,0,0,1,.46-.58,1,1,0,0,1,.73-.08,1,1,0,0,1,.58.47A1.06,1.06,0,0,1,1490,248.47Z"/><path class="cls-5" d="M1535.08,295.62l-.18.3Z"/><path class="cls-5" d="M1540.29,279.72c-.16.84-.32,1.65-.5,2.44C1540,281.37,1540.13,280.56,1540.29,279.72Z"/><path class="cls-5" d="M1519.85,296.38v0Z"/><path class="cls-5" d="M1541.57,268.57c0,1-.1,2-.18,3C1541.47,270.6,1541.53,269.59,1541.57,268.57Z"/><path class="cls-5" d="M1536.13,293.52c-.14.32-.28.63-.42.9C1535.85,294.15,1536,293.84,1536.13,293.52Z"/><path class="cls-5" d="M1487.81,278.71c2.1-6.89,7.28-11.83,8.39-11.85s-.91,17.4,11.78,29.44c.83.78,5.23-24.13,5.89-22.81a55.67,55.67,0,0,1,3.35,7.63c0-6.74-.11-13.49-.2-20.24-.47.51-.8.75-.88.66-.67-.63-2.38-12.91-3.52-12.88S1506.19,260,1505.2,260s-5.7-5.39-4.34-17.08c-4,.65-6.66,1.67-6.79,2.68a257.59,257.59,0,0,1-6.39,33.31A.4.4,0,0,0,1487.81,278.71Zm15.12,1.29a26.31,26.31,0,0,0,3.06,7.35,1,1,0,0,1-1.7.91,28.21,28.21,0,0,1-3.23-7.8A1,1,0,0,1,1502.93,280Zm-3.12-5.9c0-.08.07-.15.1-.23a1,1,0,0,1,1.33-.32.93.93,0,0,1,.43.59,23.25,23.25,0,0,0,.58,2.73.94.94,0,0,1-.12.73,1,1,0,0,1-.59.43.95.95,0,0,1-1.16-.71,23.53,23.53,0,0,1-.58-2.72A.94.94,0,0,1,1499.81,274.1Z"/><path class="cls-5" d="M1519.33,289.33v0Z"/><path class="cls-5" d="M1519.65,291.67c0-.05,0-.11,0-.16S1519.64,291.62,1519.65,291.67Z"/><path class="cls-5" d="M1519.83,294.07a1.09,1.09,0,0,1,0-.18A1.09,1.09,0,0,0,1519.83,294.07Z"/><path class="cls-5" d="M1541.11,274.42c-.07.53-.13,1-.2,1.55C1541,275.46,1541,275,1541.11,274.42Z"/><path class="cls-6" d="M1504.34,237.41c.29-1.21,2.14-.67,1.85.53a45,45,0,0,0-.85,4.46,62,62,0,0,1,11.42.2q-.13-9.19-.25-18.38c-.65-.13-1.3-.24-2-.33h0l-.53-.07a22.21,22.21,0,0,0-6.93.33c-2.22,4.29-5.33,11.35-6.21,18.67a.41.41,0,0,1,0,.11c.8-.13,1.64-.25,2.52-.35A47.52,47.52,0,0,1,1504.34,237.41Z"/><path class="cls-6" d="M1505.34,242.4q-.31,2.19-.42,4.41a1,1,0,0,1-1.92,0c.06-1.4.2-2.8.38-4.19-.88.1-1.72.22-2.52.35-1.36,11.69,3.35,17.1,4.34,17.08s6.28-11.32,7.42-11.35,2.85,12.25,3.52,12.88c.08.09.41-.15.88-.66q-.12-9.13-.26-18.28A62,62,0,0,0,1505.34,242.4Zm-.48,11.14a1,1,0,0,1-1.37,0,1.12,1.12,0,0,1-.26-.68l-.27-3a.93.93,0,0,1,.3-.68,1,1,0,0,1,1.36,0,1.08,1.08,0,0,1,.27.68l.27,3A.93.93,0,0,1,1504.86,253.54Z"/><path class="cls-2" d="M1536.55,238q-.61-1.58-1.32-3.18h0Q1535.94,236.45,1536.55,238Z"/><path class="cls-7" d="M1536.55,238q-.61-1.58-1.32-3.18h0Q1535.94,236.45,1536.55,238Z"/><path class="cls-2" d="M1541.63,267c0-.47,0-1,0-1.43,0,.48,0,1,0,1.43Z"/><path class="cls-7" d="M1541.63,267c0-.47,0-1,0-1.43,0,.48,0,1,0,1.43Z"/><path class="cls-2" d="M1540.53,252.32c.2,1.15.37,2.3.52,3.43C1540.9,254.62,1540.73,253.47,1540.53,252.32Z"/><path class="cls-7" d="M1540.53,252.32c.2,1.15.37,2.3.52,3.43C1540.9,254.62,1540.73,253.47,1540.53,252.32Z"/><path class="cls-2" d="M1541.24,257.43q.35,3.36.39,6.54Q1541.58,260.79,1541.24,257.43Z"/><path class="cls-7" d="M1541.24,257.43q.35,3.36.39,6.54Q1541.58,260.79,1541.24,257.43Z"/><path class="cls-2" d="M1539.84,248.82c.26,1.18.49,2.35.69,3.5C1540.33,251.17,1540.1,250,1539.84,248.82Z"/><path class="cls-7" d="M1539.84,248.82c.26,1.18.49,2.35.69,3.5C1540.33,251.17,1540.1,250,1539.84,248.82Z"/><path class="cls-4" d="M1541.57,268.57c0-.53,0-1.06.06-1.6h0C1541.61,267.51,1541.6,268,1541.57,268.57Z"/><path class="cls-7" d="M1541.57,268.57c0-.53,0-1.06.06-1.6h0C1541.61,267.51,1541.6,268,1541.57,268.57Z"/><path class="cls-4" d="M1533.86,296.71c0-1.95-1.24-5.28-2.42-8.12,1.18,2.84,2.37,6.17,2.42,8.12,0,.52.42.21,1-.79C1534.28,296.92,1533.87,297.23,1533.86,296.71Z"/><path class="cls-7" d="M1533.86,296.71c0-1.95-1.24-5.28-2.42-8.12,1.18,2.84,2.37,6.17,2.42,8.12,0,.52.42.21,1-.79C1534.28,296.92,1533.87,297.23,1533.86,296.71Z"/><path class="cls-4" d="M1519.83,294.07c0,.76,0,1.53,0,2.31C1519.87,295.6,1519.86,294.83,1519.83,294.07Z"/><path class="cls-7" d="M1519.83,294.07c0,.76,0,1.53,0,2.31C1519.87,295.6,1519.86,294.83,1519.83,294.07Z"/><path class="cls-4" d="M1519.82,293.89c0-.75-.1-1.49-.17-2.22C1519.72,292.4,1519.78,293.14,1519.82,293.89Z"/><path class="cls-7" d="M1519.82,293.89c0-.75-.1-1.49-.17-2.22C1519.72,292.4,1519.78,293.14,1519.82,293.89Z"/><path class="cls-4" d="M1519.63,291.51c-.08-.74-.18-1.47-.3-2.18C1519.45,290,1519.55,290.77,1519.63,291.51Z"/><path class="cls-7" d="M1519.63,291.51c-.08-.74-.18-1.47-.3-2.18C1519.45,290,1519.55,290.77,1519.63,291.51Z"/><path class="cls-4" d="M1531.44,288.59c-.29-.71-.59-1.39-.86-2C1530.85,287.2,1531.15,287.88,1531.44,288.59Z"/><path class="cls-7" d="M1531.44,288.59c-.29-.71-.59-1.39-.86-2C1530.85,287.2,1531.15,287.88,1531.44,288.59Z"/><path class="cls-4" d="M1540.91,276c-.12.84-.25,1.67-.39,2.48C1540.66,277.64,1540.79,276.81,1540.91,276Z"/><path class="cls-7" d="M1540.91,276c-.12.84-.25,1.67-.39,2.48C1540.66,277.64,1540.79,276.81,1540.91,276Z"/><path class="cls-4" d="M1538.66,286.56q-.3,1-.6,1.95Q1538.36,287.58,1538.66,286.56Z"/><path class="cls-7" d="M1538.66,286.56q-.3,1-.6,1.95Q1538.36,287.58,1538.66,286.56Z"/><path class="cls-4" d="M1536.55,292.58c-.14.33-.28.64-.42.94C1536.27,293.22,1536.41,292.91,1536.55,292.58Z"/><path class="cls-7" d="M1536.55,292.58c-.14.33-.28.64-.42.94C1536.27,293.22,1536.41,292.91,1536.55,292.58Z"/><path class="cls-4" d="M1535.71,294.42c-.22.46-.44.86-.63,1.2C1535.27,295.28,1535.49,294.88,1535.71,294.42Z"/><path class="cls-7" d="M1535.71,294.42c-.22.46-.44.86-.63,1.2C1535.27,295.28,1535.49,294.88,1535.71,294.42Z"/><path class="cls-4" d="M1519.7,299c.08-.84.13-1.66.15-2.48C1519.83,297.33,1519.78,298.15,1519.7,299Z"/><path class="cls-7" d="M1519.7,299c.08-.84.13-1.66.15-2.48C1519.83,297.33,1519.78,298.15,1519.7,299Z"/><path class="cls-4" d="M1517.22,281.15a48.54,48.54,0,0,1,2.1,8.1,49.19,49.19,0,0,0-2.1-8.13Z"/><path class="cls-7" d="M1517.22,281.15a48.54,48.54,0,0,1,2.1,8.1,49.19,49.19,0,0,0-2.1-8.13Z"/><path class="cls-5" d="M1520.51,225.32a40.75,40.75,0,0,1,2.94,18.54c6,1.63,11.15,4.63,13.24,9.69,1.31,3.16,3,7.76,4.94,13.42,0-.47,0-1,0-1.43s0-1,0-1.57q0-3.18-.39-6.54c-.06-.55-.12-1.12-.19-1.68-.15-1.13-.32-2.28-.52-3.43s-.43-2.32-.69-3.5a74.43,74.43,0,0,0-3.29-10.8q-.61-1.58-1.32-3.18A41.33,41.33,0,0,0,1520.51,225.32Z"/><path class="cls-7" d="M1520.51,225.32a40.75,40.75,0,0,1,2.94,18.54c6,1.63,11.15,4.63,13.24,9.69,1.31,3.16,3,7.76,4.94,13.42,0-.47,0-1,0-1.43s0-1,0-1.57q0-3.18-.39-6.54c-.06-.55-.12-1.12-.19-1.68-.15-1.13-.32-2.28-.52-3.43s-.43-2.32-.69-3.5a74.43,74.43,0,0,0-3.29-10.8q-.61-1.58-1.32-3.18A41.33,41.33,0,0,0,1520.51,225.32Z"/><path class="cls-5" d="M1536.69,253.55c-2.09-5.06-7.23-8.06-13.24-9.69-.77,9-4.63,15.07-6.43,17,.09,6.75.17,13.5.2,20.24a49.19,49.19,0,0,1,2.1,8.13v.08c.12.71.22,1.44.3,2.18,0,.05,0,.11,0,.16.07.73.13,1.47.17,2.22a1.09,1.09,0,0,0,0,.18c0,.76,0,1.53,0,2.31v.13c0,.82-.07,1.64-.15,2.48-.17,1.74,9.67-5.41,9.4-15.59,0,0,.65,1.32,1.48,3.18.27.62.57,1.3.86,2,1.18,2.84,2.37,6.17,2.42,8.12,0,.52.42.21,1-.79l.18-.3c.19-.34.41-.74.63-1.2.14-.27.28-.58.42-.9s.28-.61.42-.94c.49-1.16,1-2.52,1.51-4.07q.3-.93.6-1.95c.39-1.36.78-2.83,1.13-4.4.18-.79.34-1.6.5-2.44.08-.42.16-.84.23-1.27.14-.81.27-1.64.39-2.48.07-.51.13-1,.2-1.55.1-.92.2-1.87.28-2.84s.14-2,.18-3c0-.53,0-1.06.06-1.6C1539.69,261.31,1538,256.71,1536.69,253.55Z"/><path class="cls-7" d="M1536.69,253.55c-2.09-5.06-7.23-8.06-13.24-9.69-.77,9-4.63,15.07-6.43,17,.09,6.75.17,13.5.2,20.24a49.19,49.19,0,0,1,2.1,8.13v.08c.12.71.22,1.44.3,2.18,0,.05,0,.11,0,.16.07.73.13,1.47.17,2.22a1.09,1.09,0,0,0,0,.18c0,.76,0,1.53,0,2.31v.13c0,.82-.07,1.64-.15,2.48-.17,1.74,9.67-5.41,9.4-15.59,0,0,.65,1.32,1.48,3.18.27.62.57,1.3.86,2,1.18,2.84,2.37,6.17,2.42,8.12,0,.52.42.21,1-.79l.18-.3c.19-.34.41-.74.63-1.2.14-.27.28-.58.42-.9s.28-.61.42-.94c.49-1.16,1-2.52,1.51-4.07q.3-.93.6-1.95c.39-1.36.78-2.83,1.13-4.4.18-.79.34-1.6.5-2.44.08-.42.16-.84.23-1.27.14-.81.27-1.64.39-2.48.07-.51.13-1,.2-1.55.1-.92.2-1.87.28-2.84s.14-2,.18-3c0-.53,0-1.06.06-1.6C1539.69,261.31,1538,256.71,1536.69,253.55Z"/><path class="cls-6" d="M1516.76,242.6a45.69,45.69,0,0,1,6.69,1.26,40.75,40.75,0,0,0-2.94-18.54,31,31,0,0,0-4-1.1Q1516.63,233.42,1516.76,242.6Z"/><path class="cls-7" d="M1516.76,242.6a45.69,45.69,0,0,1,6.69,1.26,40.75,40.75,0,0,0-2.94-18.54,31,31,0,0,0-4-1.1Q1516.63,233.42,1516.76,242.6Z"/><path class="cls-6" d="M1516.76,242.6q.15,9.14.26,18.28c1.8-1.95,5.66-8,6.43-17A45.69,45.69,0,0,0,1516.76,242.6Z"/><path class="cls-7" d="M1516.76,242.6q.15,9.14.26,18.28c1.8-1.95,5.66-8,6.43-17A45.69,45.69,0,0,0,1516.76,242.6Z"/><path class="cls-8" d="M1547.06,45c.39.92.76,1.87,1.14,2.82C1547.82,46.87,1547.45,45.92,1547.06,45Z"/><path class="cls-8" d="M1545.81,42q.54,1.23,1,2.49Q1546.35,43.26,1545.81,42Z"/><path class="cls-8" d="M1548.51,48.6q.56,1.44,1.11,2.91Q1549.07,50,1548.51,48.6Z"/><path class="cls-8" d="M1544.36,38.73c.4.88.79,1.77,1.19,2.68C1545.15,40.5,1544.76,39.61,1544.36,38.73Z"/><path class="cls-8" d="M1551,55.44c.35,1,.7,2,1,3C1551.74,57.44,1551.39,56.44,1551,55.44Z"/><path class="cls-8" d="M1537.27,24.49,1538.6,27Z"/><path class="cls-8" d="M1549.81,52c.32.87.64,1.76,1,2.65C1550.45,53.78,1550.13,52.89,1549.81,52Z"/><path class="cls-8" d="M1538.69,27.13c.43.81.86,1.63,1.29,2.47C1539.55,28.76,1539.12,27.94,1538.69,27.13Z"/><path class="cls-8" d="M1542.92,35.6c.39.83.78,1.68,1.17,2.54C1543.7,37.28,1543.31,36.43,1542.92,35.6Z"/><path class="cls-8" d="M1540.06,29.76c.43.84.85,1.69,1.28,2.55C1540.91,31.45,1540.49,30.6,1540.06,29.76Z"/><path class="cls-8" d="M1552.34,59.26c.31.93.61,1.87.91,2.82C1553,61.13,1552.65,60.19,1552.34,59.26Z"/><path class="cls-8" d="M1541.57,32.79c.42.86.85,1.74,1.27,2.63C1542.42,34.53,1542,33.65,1541.57,32.79Z"/><path class="cls-8" d="M1559.26,86.68c.21,1.22.42,2.43.61,3.66C1559.68,89.11,1559.47,87.9,1559.26,86.68Z"/><path class="cls-8" d="M1560.53,95c.16,1.25.31,2.51.45,3.77C1560.84,97.52,1560.69,96.26,1560.53,95Z"/><path class="cls-8" d="M1561.44,136.84c-.12,1.59-.26,3.17-.42,4.72C1561.18,140,1561.32,138.43,1561.44,136.84Z"/><path class="cls-8" d="M1561.06,99.61c.14,1.3.26,2.61.37,3.93C1561.32,102.22,1561.2,100.91,1561.06,99.61Z"/><path class="cls-8" d="M1554.62,66.67c.31,1.08.62,2.17.92,3.27C1555.24,68.84,1554.93,67.75,1554.62,66.67Z"/><path class="cls-8" d="M1550.12,253.9l0,0Z"/><path class="cls-8" d="M1545.06,208.85a48.33,48.33,0,0,1,4.85,6.12A48.33,48.33,0,0,0,1545.06,208.85Z"/><path class="cls-8" d="M1555.63,242.9c-.12.53-.25,1-.39,1.53C1555.38,243.93,1555.51,243.43,1555.63,242.9Z"/><path class="cls-8" d="M1561,141.56c-.15,1.55-.32,3.08-.5,4.6C1560.7,144.64,1560.87,143.11,1561,141.56Z"/><path class="cls-8" d="M1556.66,74.31c.27,1.13.54,2.26.8,3.41C1557.2,76.57,1556.93,75.44,1556.66,74.31Z"/><path class="cls-8" d="M1560,90.93q.26,1.69.48,3.42Q1560.22,92.63,1560,90.93Z"/><path class="cls-8" d="M1555.69,70.54c.27,1,.53,2,.78,3C1556.22,72.54,1556,71.54,1555.69,70.54Z"/><path class="cls-8" d="M1557.64,78.55c.25,1.12.49,2.24.72,3.37C1558.13,80.79,1557.89,79.67,1557.64,78.55Z"/><path class="cls-8" d="M1558.42,82.21q.36,1.8.69,3.63Q1558.78,84,1558.42,82.21Z"/><path class="cls-8" d="M1549.89,253.68l0,0Z"/><path class="cls-8" d="M1553.41,62.59c.32,1,.64,2.12,1,3.2C1554.05,64.71,1553.73,63.64,1553.41,62.59Z"/><path class="cls-8" d="M1555.74,242.39a32.23,32.23,0,0,0-.55-15.8,43.22,43.22,0,0,0-5.28-11.62,43.22,43.22,0,0,1,5.28,11.62A32.23,32.23,0,0,1,1555.74,242.39Z"/><path class="cls-8" d="M1537.17,24.32c-1.69-3.07-3.35-5.88-4.93-8.41l.3.49C1534,18.8,1535.59,21.44,1537.17,24.32Z"/><path class="cls-8" d="M1500.08,221c1.67-2,2.77-3.19,2.77-3.19l12.33.89q.93-7.52,1.8-15a136.82,136.82,0,0,0-31.12,3.87c-27.83,16.77-14,45.82-11.87,45.55,1.29-.16,7.4-11.42,16.85-20,.66-2.93,1.28-6.06,1.84-9.42C1492.85,222.66,1495.8,221.61,1500.08,221ZM1478,229.1c-.24.93-.45,1.86-.62,2.81,0,.21-.07.43-.11.64,0,0-.06.41-.08.5-.05.42-.11.85-.15,1.27a41.15,41.15,0,0,0-.22,5.66,2.06,2.06,0,0,1-4.12-.08A42.92,42.92,0,0,1,1474,228a2.07,2.07,0,1,1,4,1.14Zm4.85-9.2-2,2.79a2.06,2.06,0,0,1-.78.74l-.49.19a2.08,2.08,0,0,1-1.56-.25,2.05,2.05,0,0,1-.94-1.27,2.08,2.08,0,0,1,.25-1.56l2-2.79a2.11,2.11,0,0,1,.79-.75l.49-.18a2,2,0,0,1,1.56.24,2.08,2.08,0,0,1,.69,2.84Z"/><path class="cls-8" d="M1545.06,208.85c-.41-.46-.74-.85-1-1.17h0C1544.32,208,1544.65,208.39,1545.06,208.85Z"/><path class="cls-8" d="M1493.22,195.56c1.49-.19-.42-16.75,1-16.92s11.86,11,13.77,10.72,5.87-16.35,7.82-16.59c1-.13,2.35,4.3,3.65,8.62,2.14-20.09,4-40.2,5.26-60.33-14.68,4.07-33.48-7.3-33.15-26.25.36-21.29,20.53-30.27,35.18-24.93.2-16.21,0-32.44-.85-48.67A111,111,0,0,1,1503.19,20c.09-.14.18-.27.26-.41-12.14,18-27.07,48.22-30.84,88.68-3.6,38.55,1.3,64.61,6.14,80.32h0C1479.52,187.65,1491.73,195.74,1493.22,195.56Zm5.29-156.77a47.57,47.57,0,0,1,3.33-6.66,2.06,2.06,0,0,1,3.52,2.14,44.26,44.26,0,0,0-2.61,5l-.27.64a2.4,2.4,0,0,1-1,1.25,2.08,2.08,0,0,1-1.55.16,2.14,2.14,0,0,1-1.25-1A2,2,0,0,1,1498.51,38.79Zm-12.06,29.93a249,249,0,0,1,8.48-23.88,2.12,2.12,0,0,1,2.55-1.42A2.08,2.08,0,0,1,1498.9,46a249.75,249.75,0,0,0-8.48,23.87C1489.65,72.4,1485.68,71.26,1486.45,68.72Zm-6.69,92.43a2.08,2.08,0,0,1,2.5,1.52q1.32,8.24,2.86,16.44a2.12,2.12,0,0,1-1.52,2.5,2.09,2.09,0,0,1-2.5-1.52q-1.53-8.21-2.86-16.45A2.12,2.12,0,0,1,1479.76,161.15Z"/><path class="cls-8" d="M1550.29,254h0c.75-.09,3.21-3.59,4.8-9C1553.5,250.37,1551,253.87,1550.29,254Z"/><path class="cls-8" d="M1554,179.12a220.89,220.89,0,0,0,6.57-33,220.89,220.89,0,0,1-6.57,33Z"/><path class="cls-8" d="M1500.08,221c-4.28.63-7.23,1.68-7.4,2.7-.56,3.36-1.18,6.49-1.84,9.42.68-.61,1.38-1.21,2.09-1.79A86.41,86.41,0,0,1,1500.08,221Z"/><path class="cls-8" d="M1509.18,220.4l.28-.45,5.55.11c.06-.46.12-.92.17-1.38l-12.33-.89s-1.1,1.14-2.77,3.19A61.17,61.17,0,0,1,1509.18,220.4Z"/><path class="cls-8" d="M1500.08,221a86.41,86.41,0,0,0-7.15,10.33,33,33,0,0,1,14.15-7.16c.94-1.8,1.71-3.11,2.1-3.75A61.17,61.17,0,0,0,1500.08,221Z"/><path class="cls-8" d="M1509.46,220l-.28.45c1.89,0,3.82.11,5.75.31,0-.22.06-.43.08-.65Z"/><path class="cls-8" d="M1514,223.82l.53.07.39-3.18c-1.93-.2-3.86-.3-5.75-.31-.39.64-1.16,1.95-2.1,3.75A22.21,22.21,0,0,1,1514,223.82Z"/><path class="cls-9" d="M1543.82,206.4a.44.44,0,0,1-.06.1.39.39,0,0,0-.08.14,1,1,0,0,0,.2.75,3.09,3.09,0,0,0,.2.29h0s8.75-14.4,9.87-28.56h0c-4.19,15-8.68,24.65-9.91,26.91A4,4,0,0,1,1543.82,206.4Z"/><path class="cls-9" d="M1478.75,188.63c-.76,1,4.63,15.26,7.11,18.88C1486.47,207.15,1482.63,201.21,1478.75,188.63Z"/><path class="cls-8" d="M1517,203.64q1.3-11.12,2.49-22.25c-1.3-4.32-2.66-8.75-3.65-8.62-2,.24-5.91,16.36-7.82,16.59s-12.33-10.9-13.77-10.72.48,16.73-1,16.92-13.7-7.91-14.47-6.93h0c3.88,12.58,7.72,18.52,7.11,18.88A136.82,136.82,0,0,1,1517,203.64Z"/><path class="cls-9" d="M1517,203.64q1.3-11.12,2.49-22.25c-1.3-4.32-2.66-8.75-3.65-8.62-2,.24-5.91,16.36-7.82,16.59s-12.33-10.9-13.77-10.72.48,16.73-1,16.92-13.7-7.91-14.47-6.93h0c3.88,12.58,7.72,18.52,7.11,18.88A136.82,136.82,0,0,1,1517,203.64Z"/><path class="cls-8" d="M1543.88,207.39a1,1,0,0,1-.2-.75A1,1,0,0,0,1543.88,207.39Z"/><path class="cls-9" d="M1543.88,207.39a1,1,0,0,1-.2-.75A1,1,0,0,0,1543.88,207.39Z"/><path class="cls-8" d="M1544,206a4,4,0,0,1-.22.37A4,4,0,0,0,1544,206Z"/><path class="cls-9" d="M1544,206a4,4,0,0,1-.22.37A4,4,0,0,0,1544,206Z"/><path class="cls-8" d="M1544,206c1.23-2.26,5.72-11.95,9.91-26.91h0C1549.76,194.08,1545.27,203.77,1544,206Z"/><path class="cls-9" d="M1544,206c1.23-2.26,5.72-11.95,9.91-26.91h0C1549.76,194.08,1545.27,203.77,1544,206Z"/><path class="cls-8" d="M1544.08,207.68h0a3.09,3.09,0,0,1-.2-.29A3.09,3.09,0,0,0,1544.08,207.68Z"/><path class="cls-9" d="M1544.08,207.68h0a3.09,3.09,0,0,1-.2-.29A3.09,3.09,0,0,0,1544.08,207.68Z"/><path class="cls-10" d="M1520,.77c1.17-.14,6.13,5.36,12.25,15.14C1526.1,6,1521.06-.14,1519.9,0c-1.33.17-8.67,7.12-16.45,19.63C1511.7,7.45,1518.66.94,1520,.77Z"/><path class="cls-10" d="M1525.91,21.21q-.39-7.86-1-15.72a113.79,113.79,0,0,1,7.58,10.91l-.3-.49C1526.12,6.13,1521.16.63,1520,.77c-1.33.17-8.29,6.68-16.54,18.86-.08.14-.17.27-.26.41A111,111,0,0,0,1525.91,21.21Z"/><path class="cls-11" d="M1545.55,41.41c.09.2.17.41.26.62C1545.72,41.82,1545.64,41.61,1545.55,41.41Z"/><path class="cls-11" d="M1552.08,58.46c.08.27.17.53.26.8C1552.25,59,1552.16,58.73,1552.08,58.46Z"/><path class="cls-11" d="M1544.09,38.14l.27.59Z"/><path class="cls-11" d="M1541.34,32.31l.23.48Z"/><path class="cls-11" d="M1550.77,54.67l.27.77Z"/><path class="cls-11" d="M1546.86,44.52c.07.16.14.31.2.48C1547,44.83,1546.93,44.68,1546.86,44.52Z"/><path class="cls-11" d="M1556.47,73.55c.06.25.12.51.19.76C1556.59,74.06,1556.53,73.8,1556.47,73.55Z"/><path class="cls-11" d="M1542.84,35.42l.08.18Z"/><path class="cls-11" d="M1549.62,51.51c.06.17.12.34.19.51C1549.74,51.85,1549.68,51.68,1549.62,51.51Z"/><path class="cls-11" d="M1560.44,94.35l.09.66Z"/><path class="cls-11" d="M1559.87,90.34l.09.59Z"/><path class="cls-11" d="M1553.25,62.08c0,.17.1.34.16.51C1553.35,62.42,1553.3,62.25,1553.25,62.08Z"/><path class="cls-11" d="M1561,98.78c0,.28,0,.55.08.83C1561,99.33,1561,99.06,1561,98.78Z"/><path class="cls-11" d="M1557.46,77.72l.18.83Z"/><path class="cls-11" d="M1559.11,85.84l.15.84Z"/><path class="cls-11" d="M1558.36,81.92l.06.29Z"/><path class="cls-11" d="M1555.74,242.39c0,.17-.07.34-.11.51C1555.67,242.73,1555.7,242.56,1555.74,242.39Z"/><path class="cls-11" d="M1555.54,69.94l.15.6Z"/><path class="cls-11" d="M1537.82,237.49c6.53,7.08,10.61,14.55,12,16.15-1.42-1.61-5.5-9.08-12-16.17Z"/><path class="cls-11" d="M1554.37,65.79l.25.88Z"/><path class="cls-11" d="M1550.29,254h0s-.1,0-.17-.06S1550.24,254,1550.29,254Z"/><path class="cls-11" d="M1550.09,253.87a1.7,1.7,0,0,1-.2-.19A1.7,1.7,0,0,0,1550.09,253.87Z"/><path class="cls-11" d="M1555.24,244.43l-.15.55Z"/><path class="cls-11" d="M1548.2,47.82l.31.78Z"/><path class="cls-11" d="M1538.6,27l.09.18Z"/><path class="cls-11" d="M1537.17,24.32l.1.17Z"/><path class="cls-11" d="M1540,29.6s0,.11.08.16S1540,29.65,1540,29.6Z"/><path class="cls-2" d="M1535.22,234.83h0c.9.87,1.76,1.76,2.59,2.65v0C1537,236.58,1536.12,235.7,1535.22,234.83Z"/><path class="cls-11" d="M1535.22,234.83h0c.9.87,1.76,1.76,2.59,2.65v0C1537,236.58,1536.12,235.7,1535.22,234.83Z"/><path class="cls-6" d="M1514.54,223.89h0c.67.09,1.32.2,2,.33h0C1515.86,224.09,1515.21,224,1514.54,223.89Z"/><path class="cls-11" d="M1514.54,223.89h0c.67.09,1.32.2,2,.33h0C1515.86,224.09,1515.21,224,1514.54,223.89Z"/><path class="cls-2" d="M1535.22,234.83h0Z"/><path class="cls-7" d="M1535.22,234.83h0Z"/><path class="cls-11" d="M1535.22,234.83h0Z"/><path class="cls-5" d="M1520.51,225.32a41.33,41.33,0,0,1,14.72,9.52h0a41.29,41.29,0,0,0-14.71-9.52Z"/><path class="cls-7" d="M1520.51,225.32a41.33,41.33,0,0,1,14.72,9.52h0a41.29,41.29,0,0,0-14.71-9.52Z"/><path class="cls-11" d="M1520.51,225.32a41.33,41.33,0,0,1,14.72,9.52h0a41.29,41.29,0,0,0-14.71-9.52Z"/><path class="cls-6" d="M1516.51,224.22h0a31,31,0,0,1,4,1.1h0A29.46,29.46,0,0,0,1516.51,224.22Z"/><path class="cls-7" d="M1516.51,224.22h0a31,31,0,0,1,4,1.1h0A29.46,29.46,0,0,0,1516.51,224.22Z"/><path class="cls-11" d="M1516.51,224.22h0a31,31,0,0,1,4,1.1h0A29.46,29.46,0,0,0,1516.51,224.22Z"/><path class="cls-8" d="M1534.92,20.37c-3,.41-6,.68-9,.84.81,16.23,1,32.46.85,48.67,9.23,3.37,16.26,12.42,14.75,27.67-1.37,13.84-8.4,21.19-16.78,23.51-1.3,20.13-3.12,40.24-5.26,60.33,1.25,4.14,2.45,8.18,3.25,8.08,1.64-.2,10.66-16.45,11.86-16.6s2.18,20,4.27,19.74,15.06-13.44,15.1-13.49a220.89,220.89,0,0,0,6.57-33c.18-1.52.35-3,.5-4.6s.3-3.13.42-4.72a211.38,211.38,0,0,0,0-33.3c-.11-1.32-.23-2.63-.37-3.93,0-.28-.06-.55-.08-.83-.14-1.26-.29-2.52-.45-3.77l-.09-.66q-.23-1.72-.48-3.42l-.09-.59c-.19-1.23-.4-2.44-.61-3.66l-.15-.84q-.33-1.83-.69-3.63l-.06-.29c-.23-1.13-.47-2.25-.72-3.37l-.18-.83c-.26-1.15-.53-2.28-.8-3.41-.07-.25-.13-.51-.19-.76-.25-1-.51-2-.78-3l-.15-.6c-.3-1.1-.61-2.19-.92-3.27l-.25-.88c-.32-1.08-.64-2.15-1-3.2-.06-.17-.11-.34-.16-.51-.3-.95-.6-1.89-.91-2.82-.09-.27-.18-.53-.26-.8-.34-1-.69-2-1-3l-.27-.77c-.32-.89-.64-1.78-1-2.65-.07-.17-.13-.34-.19-.51q-.55-1.47-1.11-2.91l-.31-.78c-.38-1-.75-1.9-1.14-2.82-.06-.17-.13-.32-.2-.48q-.51-1.26-1-2.49c-.09-.21-.17-.42-.26-.62-.4-.91-.79-1.8-1.19-2.68l-.27-.59c-.39-.86-.78-1.71-1.17-2.54l-.08-.18c-.42-.89-.85-1.77-1.27-2.63l-.23-.48c-.43-.86-.85-1.71-1.28-2.55,0-.05,0-.11-.08-.16-.43-.84-.86-1.66-1.29-2.47l-.09-.18-1.33-2.46-.1-.17c-1.58-2.88-3.14-5.52-4.63-7.92Q1533.71,18.31,1534.92,20.37Z"/><path class="cls-11" d="M1534.92,20.37c-3,.41-6,.68-9,.84.81,16.23,1,32.46.85,48.67,9.23,3.37,16.26,12.42,14.75,27.67-1.37,13.84-8.4,21.19-16.78,23.51-1.3,20.13-3.12,40.24-5.26,60.33,1.25,4.14,2.45,8.18,3.25,8.08,1.64-.2,10.66-16.45,11.86-16.6s2.18,20,4.27,19.74,15.06-13.44,15.1-13.49a220.89,220.89,0,0,0,6.57-33c.18-1.52.35-3,.5-4.6s.3-3.13.42-4.72a211.38,211.38,0,0,0,0-33.3c-.11-1.32-.23-2.63-.37-3.93,0-.28-.06-.55-.08-.83-.14-1.26-.29-2.52-.45-3.77l-.09-.66q-.23-1.72-.48-3.42l-.09-.59c-.19-1.23-.4-2.44-.61-3.66l-.15-.84q-.33-1.83-.69-3.63l-.06-.29c-.23-1.13-.47-2.25-.72-3.37l-.18-.83c-.26-1.15-.53-2.28-.8-3.41-.07-.25-.13-.51-.19-.76-.25-1-.51-2-.78-3l-.15-.6c-.3-1.1-.61-2.19-.92-3.27l-.25-.88c-.32-1.08-.64-2.15-1-3.2-.06-.17-.11-.34-.16-.51-.3-.95-.6-1.89-.91-2.82-.09-.27-.18-.53-.26-.8-.34-1-.69-2-1-3l-.27-.77c-.32-.89-.64-1.78-1-2.65-.07-.17-.13-.34-.19-.51q-.55-1.47-1.11-2.91l-.31-.78c-.38-1-.75-1.9-1.14-2.82-.06-.17-.13-.32-.2-.48q-.51-1.26-1-2.49c-.09-.21-.17-.42-.26-.62-.4-.91-.79-1.8-1.19-2.68l-.27-.59c-.39-.86-.78-1.71-1.17-2.54l-.08-.18c-.42-.89-.85-1.77-1.27-2.63l-.23-.48c-.43-.86-.85-1.71-1.28-2.55,0-.05,0-.11-.08-.16-.43-.84-.86-1.66-1.29-2.47l-.09-.18-1.33-2.46-.1-.17c-1.58-2.88-3.14-5.52-4.63-7.92Q1533.71,18.31,1534.92,20.37Z"/><path class="cls-8" d="M1517,203.64q-.87,7.53-1.8,15l11.07.8q2.25,3,4.11,6.1a13.6,13.6,0,0,1,5,5.83c.72,1.7,1.56,3.73,2.5,6.06,6.54,7.09,10.62,14.56,12,16.17l0,0a1.7,1.7,0,0,0,.2.19l0,0c.07,0,.12.07.17.06.75-.09,3.21-3.59,4.8-9l.15-.55c.14-.5.27-1,.39-1.53,0-.17.07-.34.11-.51a32.23,32.23,0,0,0-.55-15.8,43.22,43.22,0,0,0-5.28-11.62,48.33,48.33,0,0,0-4.85-6.12c-.41-.46-.74-.85-1-1.17C1535.4,204.59,1525.82,203.61,1517,203.64Z"/><path class="cls-11" d="M1517,203.64q-.87,7.53-1.8,15l11.07.8q2.25,3,4.11,6.1a13.6,13.6,0,0,1,5,5.83c.72,1.7,1.56,3.73,2.5,6.06,6.54,7.09,10.62,14.56,12,16.17l0,0a1.7,1.7,0,0,0,.2.19l0,0c.07,0,.12.07.17.06.75-.09,3.21-3.59,4.8-9l.15-.55c.14-.5.27-1,.39-1.53,0-.17.07-.34.11-.51a32.23,32.23,0,0,0-.55-15.8,43.22,43.22,0,0,0-5.28-11.62,48.33,48.33,0,0,0-4.85-6.12c-.41-.46-.74-.85-1-1.17C1535.4,204.59,1525.82,203.61,1517,203.64Z"/><path class="cls-8" d="M1535.22,234.83c.9.87,1.77,1.75,2.59,2.64-.94-2.33-1.78-4.36-2.5-6.06a13.6,13.6,0,0,0-5-5.83,78.35,78.35,0,0,1,4.65,8.76Z"/><path class="cls-11" d="M1535.22,234.83c.9.87,1.77,1.75,2.59,2.64-.94-2.33-1.78-4.36-2.5-6.06a13.6,13.6,0,0,0-5-5.83,78.35,78.35,0,0,1,4.65,8.76Z"/><path class="cls-8" d="M1516.46,220.09c0-.44,0-.88,0-1.32l9.81.71-11.07-.8c0,.46-.11.92-.17,1.38Z"/><path class="cls-11" d="M1516.46,220.09c0-.44,0-.88,0-1.32l9.81.71-11.07-.8c0,.46-.11.92-.17,1.38Z"/><path class="cls-8" d="M1516.46,220.09l-1.45,0c0,.22,0,.43-.08.65.52,0,1,.11,1.54.18C1516.47,220.62,1516.46,220.36,1516.46,220.09Z"/><path class="cls-11" d="M1516.46,220.09l-1.45,0c0,.22,0,.43-.08.65.52,0,1,.11,1.54.18C1516.47,220.62,1516.46,220.36,1516.46,220.09Z"/><path class="cls-8" d="M1516.47,220.89c-.51-.07-1-.13-1.54-.18l-.39,3.18c.67.09,1.32.2,2,.33C1516.5,223.11,1516.48,222,1516.47,220.89Z"/><path class="cls-11" d="M1516.47,220.89c-.51-.07-1-.13-1.54-.18l-.39,3.18c.67.09,1.32.2,2,.33C1516.5,223.11,1516.48,222,1516.47,220.89Z"/><path class="cls-8" d="M1535.22,234.83h0l-.21-.49Z"/><path class="cls-11" d="M1535.22,234.83h0l-.21-.49Z"/><path class="cls-8" d="M1516.46,220.09l1.68,0c.19.38.36.74.55,1.11a29.84,29.84,0,0,1,11.67,4.35q-1.86-3.06-4.11-6.1l-9.81-.71C1516.45,219.21,1516.46,219.65,1516.46,220.09Z"/><path class="cls-11" d="M1516.46,220.09l1.68,0c.19.38.36.74.55,1.11a29.84,29.84,0,0,1,11.67,4.35q-1.86-3.06-4.11-6.1l-9.81-.71C1516.45,219.21,1516.46,219.65,1516.46,220.09Z"/><path class="cls-8" d="M1520.51,225.31a41.29,41.29,0,0,1,14.71,9.52l-.21-.49a78.35,78.35,0,0,0-4.65-8.76,29.84,29.84,0,0,0-11.67-4.35C1519.37,222.62,1520,224,1520.51,225.31Z"/><path class="cls-11" d="M1520.51,225.31a41.29,41.29,0,0,1,14.71,9.52l-.21-.49a78.35,78.35,0,0,0-4.65-8.76,29.84,29.84,0,0,0-11.67-4.35C1519.37,222.62,1520,224,1520.51,225.31Z"/><path class="cls-8" d="M1518.69,221.23c-.19-.37-.36-.73-.55-1.11l-1.68,0c0,.27,0,.53,0,.8C1517.21,221,1518,221.1,1518.69,221.23Z"/><path class="cls-11" d="M1518.69,221.23c-.19-.37-.36-.73-.55-1.11l-1.68,0c0,.27,0,.53,0,.8C1517.21,221,1518,221.1,1518.69,221.23Z"/><path class="cls-8" d="M1516.51,224.22a29.46,29.46,0,0,1,4,1.09c-.53-1.33-1.14-2.69-1.82-4.08-.74-.13-1.48-.24-2.22-.34C1516.48,222,1516.5,223.11,1516.51,224.22Z"/><path class="cls-11" d="M1516.51,224.22a29.46,29.46,0,0,1,4,1.09c-.53-1.33-1.14-2.69-1.82-4.08-.74-.13-1.48-.24-2.22-.34C1516.48,222,1516.5,223.11,1516.51,224.22Z"/><path class="cls-8" d="M1543.88,207.39a1,1,0,0,1-.2-.75.39.39,0,0,1,.08-.14.44.44,0,0,0,.06-.1,4,4,0,0,0,.22-.37c1.23-2.26,5.72-11.95,9.91-26.91,0,0-13,13.23-15.1,13.49s-3.08-19.89-4.27-19.74-10.22,16.4-11.86,16.6c-.8.1-2-3.94-3.25-8.08q-1.18,11.13-2.49,22.25c8.84,0,18.42,1,27.1,4A3.09,3.09,0,0,1,1543.88,207.39Z"/><path class="cls-9" d="M1543.88,207.39a1,1,0,0,1-.2-.75.39.39,0,0,1,.08-.14.44.44,0,0,0,.06-.1,4,4,0,0,0,.22-.37c1.23-2.26,5.72-11.95,9.91-26.91,0,0-13,13.23-15.1,13.49s-3.08-19.89-4.27-19.74-10.22,16.4-11.86,16.6c-.8.1-2-3.94-3.25-8.08q-1.18,11.13-2.49,22.25c8.84,0,18.42,1,27.1,4A3.09,3.09,0,0,1,1543.88,207.39Z"/><path class="cls-11" d="M1543.88,207.39a1,1,0,0,1-.2-.75.39.39,0,0,1,.08-.14.44.44,0,0,0,.06-.1,4,4,0,0,0,.22-.37c1.23-2.26,5.72-11.95,9.91-26.91,0,0-13,13.23-15.1,13.49s-3.08-19.89-4.27-19.74-10.22,16.4-11.86,16.6c-.8.1-2-3.94-3.25-8.08q-1.18,11.13-2.49,22.25c8.84,0,18.42,1,27.1,4A3.09,3.09,0,0,1,1543.88,207.39Z"/><path class="cls-10" d="M1532.54,16.4A113.79,113.79,0,0,0,1525,5.49q.57,7.86,1,15.72c3-.16,6-.43,9-.84Q1533.71,18.3,1532.54,16.4Z"/><path class="cls-11" d="M1532.54,16.4A113.79,113.79,0,0,0,1525,5.49q.57,7.86,1,15.72c3-.16,6-.43,9-.84Q1533.71,18.3,1532.54,16.4Z"/><path class="cls-8" d="M1497.2,94c.31-17.55,18.3-24.09,29.45-17.69,0-2.14.08-4.29.11-6.43-14.65-5.34-34.82,3.64-35.18,24.93-.33,19,18.47,30.32,33.15,26.25.17-2.73.34-5.47.49-8.2C1513.84,118.49,1496.93,109.65,1497.2,94Z"/><path class="cls-9" d="M1497.2,94c.31-17.55,18.3-24.09,29.45-17.69,0-2.14.08-4.29.11-6.43-14.65-5.34-34.82,3.64-35.18,24.93-.33,19,18.47,30.32,33.15,26.25.17-2.73.34-5.47.49-8.2C1513.84,118.49,1496.93,109.65,1497.2,94Z"/><path class="cls-8" d="M1541.51,97.55c1.51-15.25-5.52-24.3-14.75-27.67,0,2.14-.07,4.29-.11,6.43,5.62,3.23,9.5,9.73,8.5,19.77-.88,8.91-4.86,14.28-9.93,16.78-.15,2.73-.32,5.47-.49,8.2C1533.11,118.74,1540.14,111.39,1541.51,97.55Z"/><path class="cls-11" d="M1541.51,97.55c1.51-15.25-5.52-24.3-14.75-27.67,0,2.14-.07,4.29-.11,6.43,5.62,3.23,9.5,9.73,8.5,19.77-.88,8.91-4.86,14.28-9.93,16.78-.15,2.73-.32,5.47-.49,8.2C1533.11,118.74,1540.14,111.39,1541.51,97.55Z"/><path class="cls-9" d="M1541.51,97.55c1.51-15.25-5.52-24.3-14.75-27.67,0,2.14-.07,4.29-.11,6.43,5.62,3.23,9.5,9.73,8.5,19.77-.88,8.91-4.86,14.28-9.93,16.78-.15,2.73-.32,5.47-.49,8.2C1533.11,118.74,1540.14,111.39,1541.51,97.55Z"/><path class="cls-8" d="M1497.2,94c-.27,15.65,16.64,24.49,28,18.86l.15-2.73c-.19.12-.38.22-.58.33l-.45.25c-.27.14-.55.27-.82.39l-.4.16c-.31.12-.61.23-.92.33l-.28.08c-6.58,1.94-14.47-.85-18.86-6.77h0a16.92,16.92,0,0,1-3.35-10h0c0-.18,0-.35,0-.53,0-.71.06-1.39.13-2,0-.22.07-.43.11-.65.06-.43.12-.86.21-1.27,0-.25.13-.49.19-.73s.18-.72.29-1.07.19-.49.28-.74.23-.63.36-.93.24-.48.36-.72.27-.56.43-.82.28-.47.43-.7.31-.49.48-.72.34-.45.51-.66.34-.43.52-.63l.59-.63c.18-.18.35-.36.54-.53l.67-.59.55-.44c.24-.18.49-.37.75-.54l.54-.36c.27-.17.55-.34.83-.49l.52-.28.92-.44.48-.2c.33-.13.67-.27,1-.38l.41-.13c.37-.12.74-.23,1.11-.32l.33-.07c.41-.09.81-.18,1.22-.24l.21,0q.67-.09,1.35-.15h0a16.36,16.36,0,0,1,10.56,2.81c0-1.11.05-2.21.07-3.32C1515.5,69.91,1497.51,76.45,1497.2,94Z"/><path class="cls-9" d="M1497.2,94c-.27,15.65,16.64,24.49,28,18.86l.15-2.73c-.19.12-.38.22-.58.33l-.45.25c-.27.14-.55.27-.82.39l-.4.16c-.31.12-.61.23-.92.33l-.28.08c-6.58,1.94-14.47-.85-18.86-6.77h0a16.92,16.92,0,0,1-3.35-10h0c0-.18,0-.35,0-.53,0-.71.06-1.39.13-2,0-.22.07-.43.11-.65.06-.43.12-.86.21-1.27,0-.25.13-.49.19-.73s.18-.72.29-1.07.19-.49.28-.74.23-.63.36-.93.24-.48.36-.72.27-.56.43-.82.28-.47.43-.7.31-.49.48-.72.34-.45.51-.66.34-.43.52-.63l.59-.63c.18-.18.35-.36.54-.53l.67-.59.55-.44c.24-.18.49-.37.75-.54l.54-.36c.27-.17.55-.34.83-.49l.52-.28.92-.44.48-.2c.33-.13.67-.27,1-.38l.41-.13c.37-.12.74-.23,1.11-.32l.33-.07c.41-.09.81-.18,1.22-.24l.21,0q.67-.09,1.35-.15h0a16.36,16.36,0,0,1,10.56,2.81c0-1.11.05-2.21.07-3.32C1515.5,69.91,1497.51,76.45,1497.2,94Z"/><path class="cls-12" d="M1497.2,94c-.27,15.65,16.64,24.49,28,18.86l.15-2.73c-.19.12-.38.22-.58.33l-.45.25c-.27.14-.55.27-.82.39l-.4.16c-.31.12-.61.23-.92.33l-.28.08c-6.58,1.94-14.47-.85-18.86-6.77h0a16.92,16.92,0,0,1-3.35-10h0c0-.18,0-.35,0-.53,0-.71.06-1.39.13-2,0-.22.07-.43.11-.65.06-.43.12-.86.21-1.27,0-.25.13-.49.19-.73s.18-.72.29-1.07.19-.49.28-.74.23-.63.36-.93.24-.48.36-.72.27-.56.43-.82.28-.47.43-.7.31-.49.48-.72.34-.45.51-.66.34-.43.52-.63l.59-.63c.18-.18.35-.36.54-.53l.67-.59.55-.44c.24-.18.49-.37.75-.54l.54-.36c.27-.17.55-.34.83-.49l.52-.28.92-.44.48-.2c.33-.13.67-.27,1-.38l.41-.13c.37-.12.74-.23,1.11-.32l.33-.07c.41-.09.81-.18,1.22-.24l.21,0q.67-.09,1.35-.15h0a16.36,16.36,0,0,1,10.56,2.81c0-1.11.05-2.21.07-3.32C1515.5,69.91,1497.51,76.45,1497.2,94Z"/><path class="cls-8" d="M1527.38,80.25l0,0a14.05,14.05,0,0,1,1.13,1.06l0,0a14.53,14.53,0,0,1,1,1.19l0,0a14,14,0,0,1,.86,1.26l.07.11h0a19.14,19.14,0,0,1,2.32,11.29v0c0,.3,0,.6-.06.91-.07.75-.18,1.46-.3,2.15,0,.22-.09.44-.14.66-.09.45-.18.89-.3,1.32-.06.25-.13.48-.2.72s-.23.75-.36,1.1l-.27.7c-.13.33-.27.65-.42,1s-.21.43-.32.64-.32.59-.49.87l-.35.58c-.18.28-.38.54-.57.8s-.24.33-.37.49c-.25.31-.52.59-.79.87a8.82,8.82,0,0,1-.7.67c-.19.18-.38.36-.58.52s-.43.32-.65.48-.33.24-.5.34a.91.91,0,0,1-.16.11l-.15,2.73c5.07-2.5,9-7.87,9.93-16.78,1-10-2.88-16.54-8.5-19.77,0,1.11,0,2.21-.07,3.32C1526.86,79.83,1527.12,80,1527.38,80.25Z"/><path class="cls-11" d="M1527.38,80.25l0,0a14.05,14.05,0,0,1,1.13,1.06l0,0a14.53,14.53,0,0,1,1,1.19l0,0a14,14,0,0,1,.86,1.26l.07.11h0a19.14,19.14,0,0,1,2.32,11.29v0c0,.3,0,.6-.06.91-.07.75-.18,1.46-.3,2.15,0,.22-.09.44-.14.66-.09.45-.18.89-.3,1.32-.06.25-.13.48-.2.72s-.23.75-.36,1.1l-.27.7c-.13.33-.27.65-.42,1s-.21.43-.32.64-.32.59-.49.87l-.35.58c-.18.28-.38.54-.57.8s-.24.33-.37.49c-.25.31-.52.59-.79.87a8.82,8.82,0,0,1-.7.67c-.19.18-.38.36-.58.52s-.43.32-.65.48-.33.24-.5.34a.91.91,0,0,1-.16.11l-.15,2.73c5.07-2.5,9-7.87,9.93-16.78,1-10-2.88-16.54-8.5-19.77,0,1.11,0,2.21-.07,3.32C1526.86,79.83,1527.12,80,1527.38,80.25Z"/><path class="cls-9" d="M1527.38,80.25l0,0a14.05,14.05,0,0,1,1.13,1.06l0,0a14.53,14.53,0,0,1,1,1.19l0,0a14,14,0,0,1,.86,1.26l.07.11h0a19.14,19.14,0,0,1,2.32,11.29v0c0,.3,0,.6-.06.91-.07.75-.18,1.46-.3,2.15,0,.22-.09.44-.14.66-.09.45-.18.89-.3,1.32-.06.25-.13.48-.2.72s-.23.75-.36,1.1l-.27.7c-.13.33-.27.65-.42,1s-.21.43-.32.64-.32.59-.49.87l-.35.58c-.18.28-.38.54-.57.8s-.24.33-.37.49c-.25.31-.52.59-.79.87a8.82,8.82,0,0,1-.7.67c-.19.18-.38.36-.58.52s-.43.32-.65.48-.33.24-.5.34a.91.91,0,0,1-.16.11l-.15,2.73c5.07-2.5,9-7.87,9.93-16.78,1-10-2.88-16.54-8.5-19.77,0,1.11,0,2.21-.07,3.32C1526.86,79.83,1527.12,80,1527.38,80.25Z"/><path class="cls-12" d="M1527.38,80.25l0,0a14.05,14.05,0,0,1,1.13,1.06l0,0a14.53,14.53,0,0,1,1,1.19l0,0a14,14,0,0,1,.86,1.26l.07.11h0a19.14,19.14,0,0,1,2.32,11.29v0c0,.3,0,.6-.06.91-.07.75-.18,1.46-.3,2.15,0,.22-.09.44-.14.66-.09.45-.18.89-.3,1.32-.06.25-.13.48-.2.72s-.23.75-.36,1.1l-.27.7c-.13.33-.27.65-.42,1s-.21.43-.32.64-.32.59-.49.87l-.35.58c-.18.28-.38.54-.57.8s-.24.33-.37.49c-.25.31-.52.59-.79.87a8.82,8.82,0,0,1-.7.67c-.19.18-.38.36-.58.52s-.43.32-.65.48-.33.24-.5.34a.91.91,0,0,1-.16.11l-.15,2.73c5.07-2.5,9-7.87,9.93-16.78,1-10-2.88-16.54-8.5-19.77,0,1.11,0,2.21-.07,3.32C1526.86,79.83,1527.12,80,1527.38,80.25Z"/><path class="cls-13" d="M1525.71,103.55q.36-7.35.61-14.69c-6,6.91-12,13.84-17.89,20.85a18.24,18.24,0,0,1-5.37-4.81c4.39,5.92,12.28,8.71,18.86,6.77a15,15,0,0,1-3.65.6Q1522,107.89,1525.71,103.55Z"/><path class="cls-13" d="M1524.79,110.46c.2-.11.39-.21.58-.33h0Z"/><path class="cls-13" d="M1524.34,110.71c-.27.14-.55.27-.82.39C1523.79,111,1524.07,110.85,1524.34,110.71Z"/><path class="cls-13" d="M1526.58,79.66v0A16.36,16.36,0,0,0,1516,76.82q-8.24,9-16.31,18a16.92,16.92,0,0,0,3.35,10q11.36-12.95,23.08-25.57C1526.29,79.43,1526.43,79.55,1526.58,79.66Z"/><path class="cls-13" d="M1523.12,111.26c-.3.12-.61.23-.92.33C1522.51,111.49,1522.81,111.38,1523.12,111.26Z"/><path class="cls-13" d="M1500.62,88.56c.09-.25.19-.49.28-.74C1500.81,88.07,1500.71,88.31,1500.62,88.56Z"/><path class="cls-13" d="M1510.38,78.14c.33-.13.67-.27,1-.38C1511.05,77.87,1510.71,78,1510.38,78.14Z"/><path class="cls-13" d="M1513.24,77.24c.41-.09.81-.18,1.22-.24C1514.05,77.06,1513.65,77.15,1513.24,77.24Z"/><path class="cls-13" d="M1503,83.93c.16-.23.34-.45.51-.66C1503.3,83.48,1503.12,83.7,1503,83.93Z"/><path class="cls-13" d="M1500.14,90.36c0-.25.13-.49.19-.73C1500.27,89.87,1500.19,90.11,1500.14,90.36Z"/><path class="cls-13" d="M1509,78.78l.92-.44Z"/><path class="cls-13" d="M1501.26,86.89c.11-.25.24-.48.36-.72C1501.5,86.41,1501.37,86.64,1501.26,86.89Z"/><path class="cls-13" d="M1505.12,81.48c.22-.2.44-.4.67-.59Z"/><path class="cls-13" d="M1507.63,79.55c.27-.17.55-.34.83-.49C1508.18,79.21,1507.9,79.38,1507.63,79.55Z"/><path class="cls-13" d="M1506.34,80.45c.24-.18.49-.37.75-.54C1506.83,80.08,1506.58,80.27,1506.34,80.45Z"/><path class="cls-13" d="M1504,82.64l.59-.63Z"/><path class="cls-13" d="M1502.05,85.35c.13-.24.28-.47.43-.7C1502.33,84.88,1502.18,85.11,1502.05,85.35Z"/><path class="cls-13" d="M1514.67,77q.67-.09,1.35-.15Q1515.34,76.88,1514.67,77Z"/><path class="cls-13" d="M1499.82,92.28c0-.22.07-.43.11-.65C1499.89,91.85,1499.85,92.06,1499.82,92.28Z"/><path class="cls-13" d="M1511.8,77.63c.37-.12.74-.23,1.11-.32C1512.54,77.4,1512.17,77.51,1511.8,77.63Z"/><path class="cls-13" d="M1530,105.27l-.35.58Z"/><path class="cls-13" d="M1525.38,110.12h0a.91.91,0,0,0,.16-.11Z"/><path class="cls-13" d="M1529.12,106.65c-.12.16-.24.33-.37.49C1528.88,107,1529,106.81,1529.12,106.65Z"/><path class="cls-13" d="M1530.85,103.76c-.1.21-.21.43-.32.64C1530.64,104.19,1530.75,104,1530.85,103.76Z"/><path class="cls-13" d="M1525.71,103.55q3.58-4.15,7.18-8.3A19.14,19.14,0,0,0,1530.57,84l-4.25,4.9Q1526.07,96.21,1525.71,103.55Z"/><path class="cls-13" d="M1527.42,80.27a14.05,14.05,0,0,1,1.13,1.06A14.05,14.05,0,0,0,1527.42,80.27Z"/><path class="cls-13" d="M1526.68,109.2c-.21.17-.43.32-.65.48C1526.25,109.52,1526.47,109.37,1526.68,109.2Z"/><path class="cls-13" d="M1527.26,108.68a8.82,8.82,0,0,0,.7-.67A8.82,8.82,0,0,1,1527.26,108.68Z"/><path class="cls-13" d="M1528.58,81.35a14.53,14.53,0,0,1,1,1.19A14.53,14.53,0,0,0,1528.58,81.35Z"/><path class="cls-13" d="M1527.38,80.25c-.26-.22-.52-.42-.8-.62v0C1526.85,79.85,1527.12,80,1527.38,80.25Z"/><path class="cls-13" d="M1529.64,82.59a14,14,0,0,1,.86,1.26A14,14,0,0,0,1529.64,82.59Z"/><path class="cls-13" d="M1531.54,102.09l-.27.7Z"/><path class="cls-13" d="M1532.1,100.27c-.06.25-.13.48-.2.72C1532,100.75,1532,100.52,1532.1,100.27Z"/><path class="cls-13" d="M1532.54,98.29c0,.22-.09.44-.14.66C1532.45,98.73,1532.5,98.51,1532.54,98.29Z"/><polygon class="cls-14" points="1503.06 104.9 1503.06 104.91 1503.06 104.9 1503.06 104.9"/><path class="cls-14" d="M1529.6,82.54l0,0Z"/><path class="cls-14" d="M1530.57,84l-.07-.11.07.11Z"/><path class="cls-14" d="M1527.38,80.25l0,0Z"/><path class="cls-14" d="M1528.55,81.33l0,0Z"/><path class="cls-14" d="M1508.43,109.71c5.89-7,11.88-13.94,17.89-20.85q.15-4.6.26-9.2c-.15-.11-.29-.23-.44-.33Q1514.46,92,1503.06,104.9h0A18.24,18.24,0,0,0,1508.43,109.71Z"/><path class="cls-14" d="M1526.32,88.86l4.25-4.9-.07-.11a14,14,0,0,0-.86-1.26l0,0a14.53,14.53,0,0,0-1-1.19l0,0a14.05,14.05,0,0,0-1.13-1.06l0,0c-.26-.22-.53-.4-.8-.59Q1526.48,84.25,1526.32,88.86Z"/><path class="cls-14" d="M1522.2,111.59l-.28.08Z"/><path class="cls-14" d="M1524.79,110.46l-.45.25Z"/><path class="cls-14" d="M1523.52,111.1l-.4.16Z"/><path class="cls-14" d="M1529.69,105.85c-.18.28-.38.54-.57.8C1529.31,106.39,1529.51,106.13,1529.69,105.85Z"/><path class="cls-14" d="M1532.9,95.23v0c0,.3,0,.59-.05.89C1532.87,95.83,1532.88,95.53,1532.9,95.23Z"/><path class="cls-14" d="M1531.27,102.79c-.13.33-.27.65-.42,1C1531,103.44,1531.14,103.12,1531.27,102.79Z"/><path class="cls-14" d="M1532.84,96.14c-.07.75-.18,1.46-.3,2.15C1532.66,97.6,1532.77,96.89,1532.84,96.14Z"/><path class="cls-14" d="M1530.53,104.4c-.15.3-.32.59-.49.87C1530.21,105,1530.38,104.7,1530.53,104.4Z"/><path class="cls-14" d="M1531.9,101c-.12.37-.23.75-.36,1.1C1531.67,101.74,1531.78,101.36,1531.9,101Z"/><path class="cls-14" d="M1527.26,108.68c-.19.18-.38.36-.58.52C1526.88,109,1527.07,108.86,1527.26,108.68Z"/><path class="cls-14" d="M1526,109.68c-.17.11-.33.24-.5.34C1525.7,109.92,1525.86,109.79,1526,109.68Z"/><path class="cls-14" d="M1528.75,107.14c-.25.31-.52.59-.79.87C1528.23,107.73,1528.5,107.45,1528.75,107.14Z"/><path class="cls-14" d="M1532.4,99c-.09.45-.18.89-.3,1.32C1532.22,99.84,1532.31,99.4,1532.4,99Z"/><path class="cls-14" d="M1525.71,103.55q-3.74,4.35-7.44,8.72a15,15,0,0,0,3.65-.6l.28-.08c.31-.1.62-.21.92-.33l.4-.16c.27-.12.55-.25.82-.39l.45-.25.59-.34C1525.49,107.93,1525.61,105.74,1525.71,103.55Z"/><path class="cls-14" d="M1525.38,110.12l.15-.1c.17-.1.33-.23.5-.34s.44-.31.65-.48.39-.34.58-.52a8.82,8.82,0,0,0,.7-.67c.27-.28.54-.56.79-.87.13-.16.25-.33.37-.49s.39-.52.57-.8l.35-.58c.17-.28.34-.57.49-.87s.22-.43.32-.64.29-.64.42-1l.27-.7c.13-.35.24-.73.36-1.1s.14-.47.2-.72c.12-.43.21-.87.3-1.32,0-.22.1-.44.14-.66.12-.69.23-1.4.3-2.15,0-.3,0-.59.05-.89q-3.6,4.14-7.18,8.3C1525.61,105.74,1525.49,107.93,1525.38,110.12Z"/><path class="cls-14" d="M1500.9,87.82c.12-.31.23-.63.36-.93C1501.13,87.19,1501,87.51,1500.9,87.82Z"/><path class="cls-14" d="M1507.09,79.91l.54-.36Z"/><path class="cls-14" d="M1505.79,80.89l.55-.44Z"/><path class="cls-14" d="M1508.46,79.06l.52-.28Z"/><path class="cls-14" d="M1504.58,82c.17-.18.35-.36.54-.53C1504.93,81.65,1504.76,81.83,1504.58,82Z"/><path class="cls-14" d="M1503.47,83.27c.17-.22.34-.43.52-.63C1503.81,82.84,1503.64,83.05,1503.47,83.27Z"/><path class="cls-14" d="M1514.46,77l.21,0Z"/><path class="cls-14" d="M1509.9,78.34l.48-.2Z"/><path class="cls-14" d="M1502.48,84.65c.16-.24.31-.49.48-.72C1502.79,84.16,1502.64,84.41,1502.48,84.65Z"/><polygon class="cls-14" points="1516.02 76.82 1516.02 76.82 1516.02 76.82 1516.02 76.82"/><path class="cls-14" d="M1512.91,77.31l.33-.07Z"/><path class="cls-14" d="M1511.39,77.76l.41-.13Z"/><path class="cls-14" d="M1500.33,89.63c.09-.36.18-.72.29-1.07C1500.51,88.91,1500.42,89.27,1500.33,89.63Z"/><path class="cls-14" d="M1499.69,94.33c0-.71.06-1.39.13-2C1499.75,92.94,1499.7,93.62,1499.69,94.33Z"/><path class="cls-14" d="M1499.71,94.86h0c0-.18,0-.35,0-.53C1499.69,94.51,1499.7,94.68,1499.71,94.86Z"/><path class="cls-14" d="M1499.93,91.63c.06-.43.12-.86.21-1.27C1500.05,90.77,1500,91.2,1499.93,91.63Z"/><path class="cls-14" d="M1501.62,86.17c.14-.28.27-.56.43-.82C1501.89,85.61,1501.76,85.89,1501.62,86.17Z"/><path class="cls-14" d="M1516,76.82q-.68.06-1.35.15l-.21,0c-.41.06-.81.15-1.22.24l-.33.07c-.37.09-.74.2-1.11.32l-.41.13c-.34.11-.68.25-1,.38l-.48.2-.92.44-.52.28c-.28.15-.56.32-.83.49l-.54.36c-.26.17-.51.36-.75.54l-.55.44c-.23.19-.45.39-.67.59s-.37.35-.54.53l-.59.63c-.18.2-.35.41-.52.63s-.35.43-.51.66-.32.48-.48.72-.3.46-.43.7-.29.54-.43.82-.25.47-.36.72-.24.62-.36.93-.19.49-.28.74-.2.71-.29,1.07-.14.48-.19.73c-.09.41-.15.84-.21,1.27,0,.22-.08.43-.11.65-.07.66-.12,1.34-.13,2,0,.18,0,.35,0,.53q8.07-9.09,16.31-18Z"/><path class="cls-15" d="M1490.42,69.85A249.75,249.75,0,0,1,1498.9,46a2.08,2.08,0,0,0-1.42-2.56,2.12,2.12,0,0,0-2.55,1.42,249,249,0,0,0-8.48,23.88C1485.68,71.26,1489.65,72.4,1490.42,69.85Z"/><path class="cls-15" d="M1499.92,41.34a2.08,2.08,0,0,0,1.55-.16,2.4,2.4,0,0,0,1-1.25l.27-.64-.07.15.22-.51-.15.36a44.26,44.26,0,0,1,2.61-5,2.06,2.06,0,0,0-3.52-2.14,47.57,47.57,0,0,0-3.33,6.66,2,2,0,0,0,.16,1.55A2.14,2.14,0,0,0,1499.92,41.34Z"/><path class="cls-15" d="M1502.68,39.44l.07-.15.15-.36Z"/><path class="cls-15" d="M1483.6,181.61a2.12,2.12,0,0,0,1.52-2.5q-1.55-8.21-2.86-16.44a2.08,2.08,0,0,0-2.5-1.52,2.12,2.12,0,0,0-1.52,2.49q1.34,8.25,2.86,16.45A2.09,2.09,0,0,0,1483.6,181.61Z"/><path class="cls-15" d="M1477.16,233.05s0-.07,0-.11C1477.16,233.08,1477.16,233.09,1477.16,233.05Z"/><path class="cls-15" d="M1476.55,226.54A2.1,2.1,0,0,0,1474,228a42.92,42.92,0,0,0-1.33,11.94,2.06,2.06,0,0,0,4.12.08,41.15,41.15,0,0,1,.22-5.66c0-.42.1-.85.15-1.27,0,0,0,0,0-.11,0,0,0,.07,0,.11s.07-.45.08-.5c0-.21.07-.43.11-.64.17-.95.38-1.88.62-2.81A2.1,2.1,0,0,0,1476.55,226.54Z"/><path class="cls-15" d="M1482.13,217.06a2,2,0,0,0-1.56-.24l-.49.18a2.11,2.11,0,0,0-.79.75l-2,2.79a2.08,2.08,0,0,0-.25,1.56,2.05,2.05,0,0,0,.94,1.27,2.08,2.08,0,0,0,1.56.25l.49-.19a2.06,2.06,0,0,0,.78-.74l2-2.79a2.08,2.08,0,0,0-.69-2.84Z"/><path class="cls-5" d="M1487.13,254.59a55.08,55.08,0,0,0-1.13,12.68c0,1.23,2,1.28,1.92,0a53.55,53.55,0,0,1,1.06-12.18C1489.23,253.91,1487.38,253.37,1487.13,254.59Z"/><path class="cls-16" d="M1487.13,254.59a55.08,55.08,0,0,0-1.13,12.68c0,1.23,2,1.28,1.92,0a53.55,53.55,0,0,1,1.06-12.18C1489.23,253.91,1487.38,253.37,1487.13,254.59Z"/><path class="cls-5" d="M1501.06,280.46a28.21,28.21,0,0,0,3.23,7.8,1,1,0,0,0,1.7-.91,26.31,26.31,0,0,1-3.06-7.35A1,1,0,0,0,1501.06,280.46Z"/><path class="cls-16" d="M1501.06,280.46a28.21,28.21,0,0,0,3.23,7.8,1,1,0,0,0,1.7-.91,26.31,26.31,0,0,1-3.06-7.35A1,1,0,0,0,1501.06,280.46Z"/><path class="cls-5" d="M1500.38,277.32a.95.95,0,0,0,1.16.71,1,1,0,0,0,.59-.43.94.94,0,0,0,.12-.73,23.25,23.25,0,0,1-.58-2.73.93.93,0,0,0-.43-.59,1,1,0,0,0-1.33.32c0,.08-.07.15-.1.23a.94.94,0,0,0,0,.5A23.53,23.53,0,0,0,1500.38,277.32Z"/><path class="cls-16" d="M1500.38,277.32a.95.95,0,0,0,1.16.71,1,1,0,0,0,.59-.43.94.94,0,0,0,.12-.73,23.25,23.25,0,0,1-.58-2.73.93.93,0,0,0-.43-.59,1,1,0,0,0-1.33.32c0,.08-.07.15-.1.23a.94.94,0,0,0,0,.5A23.53,23.53,0,0,0,1500.38,277.32Z"/><path class="cls-5" d="M1489.36,247.28a1,1,0,0,0-.73.08.92.92,0,0,0-.46.58l-.54,3.05a1.06,1.06,0,0,0,.08.72,1,1,0,0,0,.58.47,1,1,0,0,0,.73-.08.92.92,0,0,0,.46-.58l.54-3.05a1.06,1.06,0,0,0-.08-.72A1,1,0,0,0,1489.36,247.28Z"/><path class="cls-16" d="M1489.36,247.28a1,1,0,0,0-.73.08.92.92,0,0,0-.46.58l-.54,3.05a1.06,1.06,0,0,0,.08.72,1,1,0,0,0,.58.47,1,1,0,0,0,.73-.08.92.92,0,0,0,.46-.58l.54-3.05a1.06,1.06,0,0,0-.08-.72A1,1,0,0,0,1489.36,247.28Z"/><path class="cls-6" d="M1504.34,237.41a47.52,47.52,0,0,0-1,5.17c.63-.07,1.29-.13,2-.18a45,45,0,0,1,.85-4.46C1506.48,236.74,1504.63,236.2,1504.34,237.41Z"/><path class="cls-17" d="M1504.34,237.41a47.52,47.52,0,0,0-1,5.17c.63-.07,1.29-.13,2-.18a45,45,0,0,1,.85-4.46C1506.48,236.74,1504.63,236.2,1504.34,237.41Z"/><path class="cls-6" d="M1503,246.77a1,1,0,0,0,1.92,0q.11-2.22.42-4.41c-.67,0-1.33.11-2,.18C1503.2,244,1503.06,245.37,1503,246.77Z"/><path class="cls-17" d="M1503,246.77a1,1,0,0,0,1.92,0q.11-2.22.42-4.41c-.67,0-1.33.11-2,.18C1503.2,244,1503.06,245.37,1503,246.77Z"/><path class="cls-6" d="M1504.62,249.17a1,1,0,0,0-1.36,0,.93.93,0,0,0-.3.68l.27,3a1.12,1.12,0,0,0,.26.68,1,1,0,0,0,1.37,0,.93.93,0,0,0,.3-.68l-.27-3A1.08,1.08,0,0,0,1504.62,249.17Z"/><path class="cls-17" d="M1504.62,249.17a1,1,0,0,0-1.36,0,.93.93,0,0,0-.3.68l.27,3a1.12,1.12,0,0,0,.26.68,1,1,0,0,0,1.37,0,.93.93,0,0,0,.3-.68l-.27-3A1.08,1.08,0,0,0,1504.62,249.17Z"/></g></g></g></svg>