<?xml version="1.0" encoding="utf-8"?>
<!-- Generator: Adobe Illustrator 22.0.0, SVG Export Plug-In . SVG Version: 6.00 Build 0)  -->
<svg version="1.1" id="Capa_1" xmlns="http://www.w3.org/2000/svg" xmlns:xlink="http://www.w3.org/1999/xlink" x="0px" y="0px"
	 viewBox="0 0 108.4 95.9" style="enable-background:new 0 0 108.4 95.9;" xml:space="preserve">
<style type="text/css">
	.st0{fill:#FF1867;}
	.st1{fill:#DCDDEE;stroke:#3F0D0B;stroke-width:1.1154;stroke-linecap:round;stroke-linejoin:round;stroke-miterlimit:10;}
	.st2{fill:#3F0D0B;}
	.st3{fill:#86C8CD;}
	.st4{fill:#5B7976;}
	.st5{opacity:0.4;fill:#FFFFFF;}
	.st6{fill:#86C8CD;stroke:#3F0D0B;stroke-width:1.1154;stroke-linecap:round;stroke-linejoin:round;stroke-miterlimit:10;}
	.st7{fill:#5BCBEA;}
	.st8{fill:#1A1B25;}
	.st9{fill:#03ADF8;}
	.st10{opacity:0.85;fill:#917F86;}
	.st11{opacity:0.55;fill:#E0DBDD;}
	.st12{fill:#FF0029;}
	.st13{opacity:0.55;fill:#E0DBAC;}
	.st14{fill:#21222C;}
	.st15{fill:#C2C2C5;}
	.st16{fill:#FCD212;}
	.st17{fill-rule:evenodd;clip-rule:evenodd;fill:#220501;}
	.st18{fill-rule:evenodd;clip-rule:evenodd;fill:#FF989D;}
	.st19{fill-rule:evenodd;clip-rule:evenodd;fill:#87432A;}
	.st20{fill-rule:evenodd;clip-rule:evenodd;fill:#E9521A;}
	.st21{fill-rule:evenodd;clip-rule:evenodd;fill:#5D1913;}
	.st22{fill-rule:evenodd;clip-rule:evenodd;fill:#FFFFFF;}
	.st23{fill-rule:evenodd;clip-rule:evenodd;fill:#7F252C;}
	.st24{fill:#FFFFFF;}
	.st25{fill-rule:evenodd;clip-rule:evenodd;fill:#2B2626;}
	.st26{fill-rule:evenodd;clip-rule:evenodd;fill:#696969;}
	.st27{fill-rule:evenodd;clip-rule:evenodd;fill:#8C8C8B;}
	.st28{fill-rule:evenodd;clip-rule:evenodd;fill:#3D4D70;}
</style>
<g>
	<path class="st7" d="M107.4,49.3c-1.7-1.4-5.2-0.2-9.6,2.8c2.5-5.7,3-10,0.9-11.7c-0.5-0.4-1.1-0.6-1.8-0.7
		c4.5-8.1,6-14.6,3.4-16.8c-2.3-1.9-7.3-0.1-13.5,4.3c3.7-6.4,5-11.5,3.1-13.2c-1.9-1.6-6.3,0.3-11.6,4.6c0.5-2.2,0.4-3.9-0.6-4.7
		c-1-0.8-2.6-0.7-4.7,0.2c3.9-6.6,5.3-11.9,3.3-13.6c-1.9-1.6-6.7,0.5-12.2,5C64.3,4,64,2.9,63.2,2.3C61.4,0.7,57,2.5,51.8,6.7
		c-0.2-0.8-0.5-1.5-1-2C47.4,1.8,37.2,8.3,28,19.1c-9.2,10.9-13.8,22-10.4,24.9c0.4,0.4,1,0.6,1.6,0.7c-5,7.7-7.2,14.3-4.9,16.2
		c0.5,0.4,1.2,0.6,2,0.5c-1.9,4.3-2.4,7.6-0.9,8.9c2.1,1.8,7.7-1,13.9-6.5C26.8,69,26,73,27.7,74.4c0.8,0.7,2.2,0.7,4,0.1
		c-4.6,8.2-6.2,14.8-3.5,17c3.7,3.1,14.4-3.4,25.5-15c0.2,0.4,0.4,0.7,0.8,1c0.5,0.4,1.1,0.6,1.8,0.7c-4.5,8.1-6,14.6-3.4,16.8
		c3,2.5,10.5-1.3,19.2-8.9c-0.4,2.1-0.2,3.6,0.8,4.4c3.2,2.7,13.6-4.3,23.2-15.8C105.5,63.5,110.7,52,107.4,49.3z"/>
	<g>
		<g>
			<g>
				<path class="st8" d="M40.8,40.3l-37,17.8c0,0-9.7,19.2,1.8,15.4c6.5-2.2,1-12.4,1-12.4l37-13.1L40.8,40.3z"/>
			</g>
			<path class="st8" d="M98,28.9c-0.3-1.4-0.7-2.7-1.1-4.1c-0.1-0.5-0.3-1-0.4-1.5L32.3,53.7c0,0-5.1,17.3,3.2,13.7
				c8.3-3.6,0.4-11.4,0.4-11.4L98,28.9z"/>
			<g>
				<path class="st9" d="M41.9,40.5c0,0,6.9,18.9,10,18.6c3.1-0.2,18-0.9,18.7-2.2c0.7-1.2,5.9-16.9,4.3-17.1
					C73.4,39.6,41.4,37.3,41.9,40.5z"/>
				<path class="st10" d="M56.8,45.7c6-1,12-1.2,16.8,2.3c1.2-4.1,2.1-8,1.3-8.1c-1.6-0.3-33.5-2.6-33,0.7c0,0,1.5,4.1,3.4,8.4
					C48.9,47.1,53.1,46.3,56.8,45.7z"/>
				<path class="st11" d="M74.9,39.9c-0.8-0.1-10-0.8-18.4-1c5.1,4.9,8.2,12.3,8.3,19.4c3.1-0.3,5.6-0.7,5.9-1.2
					C71.3,55.8,76.5,40.2,74.9,39.9z"/>
				<path class="st12" d="M97.2,22.7c0,0-19.5,15.5-18,17.1c1.5,1.6,10.4,10.7,11,10.5c0.6-0.2,10.8-9.7,10.8-11.8
					C101,36.5,98.2,21.9,97.2,22.7z"/>
				<path class="st10" d="M81.7,42.4c1.7-2.8,4.1-5.2,6.8-6.7c3.2-1.8,7.3-3.1,11.4-3.9c-0.9-4.6-2.1-9.6-2.7-9.1
					c0,0-19.5,15.5-18,17.1C79.6,40.2,80.5,41.2,81.7,42.4z"/>
				<path class="st13" d="M97.2,22.7c0,0-3.9,3.1-8.1,6.7c2,1.1,3.8,3,4.6,4.7c1.6,3.3,2.5,6.7,2.8,10.3c2.4-2.5,4.5-5,4.5-5.9
					C101,36.5,98.2,21.9,97.2,22.7z"/>
				<path class="st14" d="M96.7,19.9c-2.2,0.3-15.2,10.6-19.4,17.7c0,0-0.6,0.8-1.8,0.2c-1.2-0.6-34.2-3.4-37,1.2
					c0,0-0.8,8.4,11.3,22.6c0,0,21.1,0.9,22.5-3c1.4-3.9,3.8-15.9,6.6-15.2c2.8,0.6,8.6,10.1,11.3,9.6c2.7-0.5,11-8.1,12-13.7
					S98.9,19.6,96.7,19.9z M69.3,55.4c-0.4,0.9-15.9,1.8-17,1.6c-1.1-0.1-7.8-12.4-7.4-14.7C45.3,40,72.3,42,72.3,42
					C73.7,42.1,69.7,54.5,69.3,55.4z M99.4,38.6c-0.1,1.4-7.4,9.6-8.4,9.8c-1,0.2-7.3-8.4-8-9.2c-0.7-0.7-0.1-1.1-0.1-1.1
					c1.1-2.2,11.6-11.3,13-12.1C97.3,25.3,99.5,37.2,99.4,38.6z"/>
				<path class="st14" d="M96.7,19.9c-2.2,0.3-15.2,10.6-19.4,17.7c0,0-0.6,0.8-1.8,0.2c-1.2-0.6-34.2-3.4-37,1.2
					c0,0-0.8,8.4,11.3,22.6c0,0,21.1,0.9,22.5-3c1.4-3.9,3.8-15.9,6.6-15.2c2.8,0.6,8.6,10.1,11.3,9.6c2.7-0.5,11-8.1,12-13.7
					S98.9,19.6,96.7,19.9z M69.3,55.4c-0.4,0.9-15.9,1.8-17,1.6c-1.1-0.1-7.8-12.4-7.4-14.7C45.3,40,72.3,42,72.3,42
					C73.7,42.1,69.7,54.5,69.3,55.4z M99.4,38.6c-0.1,1.4-7.4,9.6-8.4,9.8c-1,0.2-7.3-8.4-8-9.2c-0.7-0.7-0.1-1.1-0.1-1.1
					c1.1-2.2,11.6-11.3,13-12.1C97.3,25.3,99.5,37.2,99.4,38.6z"/>
				<path class="st15" d="M97.3,22.3c0.2,0.5,0,1-0.5,1.3c-0.5,0.2-1.1,0.1-1.3-0.4c-0.2-0.5,0-1,0.5-1.3
					C96.5,21.7,97.1,21.8,97.3,22.3z"/>
				<path class="st15" d="M42.9,40.5c0.2,0.5,0,1-0.5,1.3c-0.5,0.2-1.1,0.1-1.3-0.4c-0.2-0.5,0-1,0.5-1.3
					C42.1,39.8,42.7,40,42.9,40.5z"/>
			</g>
		</g>
	</g>
</g>
</svg>
