<svg xmlns="http://www.w3.org/2000/svg" viewBox="0 0 131.78 107.41"><defs><style>.cls-1{fill:#2b2626;}.cls-1,.cls-2,.cls-3{fill-rule:evenodd;}.cls-2{fill:#ffc17d;}.cls-3{fill:#ff5122;}</style></defs><title>hall</title><g id="Capa_2" data-name="Capa 2"><g id="Capa_1-2" data-name="Capa 1"><path class="cls-1" d="M119.53,37.81c2.2-1.67,2.83-6.87-.61-7.73-3.84-.11-5.34,1.89-5.56,5-11-1.08-14.3-10.81-17.23-20.88.37-1.79,2.1-2.34,1.92-4.63C97,4.75,89,7.33,90,12c-4.65,2.27-7.75-2.05-9.12-5.57a3.81,3.81,0,0,0,2.82-3.81c-.32-3.41-6.53-3.45-6.9-.08-.13,1.24.88,2.18,1,3.4.35,2.67-.6,6.52-1,9.75-.5,3.81-.56,7.35-1,10-10.36-1.15-21.78.53-30.47,2.63-.91-6.1-1.31-12.77-2.66-18.39,1-1.3,1.69-4.13.55-6.06-2.88-2-6.3.61-5.59,4.38.19,1.37,1.39,1.63,1.86,2.7C38.61,16.7,37.26,22.11,32,24a6.9,6.9,0,0,1-5.31-2.74c1.52-1.46.68-5.74-1.18-6.19l-2.79.14c-2.93,1.43-3.17,7.29.62,7.94A7.53,7.53,0,0,0,22.81,26c.76,7.36-.53,14-6.29,16.05-3.77-1.35-5.84-4.57-8.34-7.33,1.65-2.15.58-7.07-2.91-6.32C3,29,1.77,30.67,2.09,33.69c.43,1.43,2.56,1.89,2.94,2.65C5.5,47.28,4,56.44.17,63.52c0,.33.12.79-.17.87.76,3.42-.75,9.78,1.66,11.34,2.93-1.86,3.51-5.84,5.15-8.88,1-3.65,2.1-7.12,2.43-11.33C11,65.2,12.85,74.83,15,84.1c-2.51,7-6.85,12.4-8.44,20.25,4.34,1.71,9.27,1.44,14.09,1.65,15.16.69,31.06.31,47,.4s32.35,1.77,47.44.6c-.59-8-5.27-13.39-7.5-20.31,3.44-12.47,6-25.77,9.47-38.19.36,10.42,4.46,16.71,9.32,22.15,1.36.38,1.73,1.87,3.74,1.53,1.38-1.07,1.28-3.49,1.66-5.47-2.9-3.68-6.16-7.18-8.16-12.08S120.9,43.88,119.53,37.81Zm-5.27,2.43c-3.94,11.95-7.77,24-11.06,36.55-3-5.35-5.25-11.59-8.19-17,.35-10.81,1-21.37.92-32.58C98.32,35.23,103.81,44.76,114.26,40.24ZM80.14,13.32c1.45,4,7.89,6.27,11.81,3.49q-1.11,16.32-1.76,33.06C86.47,43.4,83.13,36.5,79.48,30,79.5,24.23,80.15,19.07,80.14,13.32ZM41.35,34.48c-2.93,5.83-6.65,10.94-9.48,16.86-1.4-6.85-2.33-14.21-3.67-21.14,5.38,3.11,11.4-1.36,12.18-6.23C41.36,26.75,41,31,41.35,34.48Zm-16,7.5c1.05,5.35,1.48,11.38,2.58,16.68-2.76,5.23-5.59,10.4-8.25,15.72-3.25-8.89-5.71-18.66-8.54-28C16,49.76,23.91,46.57,25.36,42Z"/><path class="cls-2" d="M81.3,2.49a1.9,1.9,0,0,1-1,2c-.89.22-1-.37-1.74-.35A1.69,1.69,0,0,1,81.3,2.49Z"/><path class="cls-2" d="M41.38,5.61c.16,1.23.1,2.27-1.18,2.21C40.09,6.62,40.21,5.64,41.38,5.61Z"/><path class="cls-2" d="M95.47,9.74c.11,1.06-.72,1.26-1.21,1.78-.67.14-.52-.63-1.31-.36C92.55,9.64,94.4,9.26,95.47,9.74Z"/><path class="cls-2" d="M41.67,15.5A76,76,0,0,1,43,23.84c.3,3,1.23,6.56-.21,8.42C42.6,26.44,41.82,21.32,41.67,15.5Z"/><path class="cls-2" d="M24.75,17.44a3.54,3.54,0,0,1,.32,2.14c-.68.07-.92.54-1.69.52A1.73,1.73,0,0,1,24.75,17.44Z"/><path class="cls-3" d="M39.81,16.89C42,25.12,31.73,34,27.32,25.5,33.57,28.3,39.18,22.93,39.81,16.89Zm-3.87,8.6c-.71,1.62-3.55,1.32-5.06,2.2,1.89.85,5.81.27,5.71-2C36.32,25.68,36.28,25.42,35.94,25.49Z"/><path class="cls-2" d="M93.77,14.56c.2,13.24-.22,27.68-.93,40.78-1.53-2.78-.83-6.4-.71-9.66.35-9.64,1.35-20.29,1.25-30.45C93.55,15.05,93.48,14.63,93.77,14.56Z"/><path class="cls-2" d="M25.71,27.74c1.15,4.32,1.81,9.2,2.65,13.87.27,4.48,2.5,9.87,1.34,13.72A234.86,234.86,0,0,1,25.71,27.74Z"/><path class="cls-3" d="M97.28,24.08c2.92,6.69,7,12.09,14.49,13.7-.8,1-2.69,1-4.47,1.09C101.28,36.91,99,30.81,97.28,24.08Zm10.4,13.69c-1.77-1.45-3.94-2.45-5.6-4A7.44,7.44,0,0,0,107.68,37.77Z"/><path class="cls-2" d="M6.06,31.11c.64,1,.54,2.38-1.18,2.22C4.76,32.13,4.76,31,6.06,31.11Z"/><path class="cls-3" d="M67.12,28.43c8.6,26,18.18,50.86,28.4,75-21.82-.35-45.44-.68-68.55-.37,3.51-13.58,8.37-25.93,13.13-38.38,3.6-9.06,7.77-18,11.54-27.1,1.23-3,2.3-6.12,4.3-8.62l.65,0C59.64,28.92,63.78,28.16,67.12,28.43Z"/><path class="cls-3" d="M68.19,28.37l1.29-.06c3.27,5.76,5.48,12.69,8.3,19S83.15,59.94,86.06,66c5.3,12.75,11.31,24.72,16.37,37.73-1.85.23-3.09-.21-5,0C86.82,79.79,77.47,54.35,68,29,68,28.72,67.94,28.42,68.19,28.37Z"/><path class="cls-2" d="M71.2,28.22l.43,0c5.7,12.68,11,25.82,16.83,38.35,4.92,11.21,10,22.2,15.47,32.83.26,1.48,2.2,3.43,1.52,4.45-2.22.1-1.44-3.1-2.79-4-.49-1.8-1.44-3.1-2-4.85C90.34,73.63,80.89,51.24,71.45,28.85A1,1,0,0,1,71.2,28.22Z"/><path class="cls-3" d="M74.42,28.05c1.35,1,1.45,3.4,2.41,4.83.61,1.74,1.47,3.22,2,5.08,1.56,3.18,2.92,6.6,4.38,9.9,3.24,6.18,6.39,12.46,9.37,18.91C99.27,79,105.24,92,112.13,103.91c-.83.39-2.79.08-3.88,0C95.24,80,84.16,54,72.92,28.13Z"/><path class="cls-3" d="M53.59,29.33c1.51,0-.09,1.4-.12,2-10.11,23.33-20.4,46.5-28.22,71.9-1.92-.21-4.16-.08-6.25-.11C23,89.35,29.77,78.22,35.42,66c5.35-12.53,11-24.78,17.32-36.44C53.12,29.6,53.18,29.3,53.59,29.33Z"/><path class="cls-3" d="M48.67,30l.86,0c.86.14-.66,1.37-.77,2-.29.83-.88,1.38-1.17,2.21C46.48,35.35,45.93,37,45,38.39c-1.43,3.15-3.34,5.87-4.71,9.08-9.62,17.82-17.85,36.91-26.46,55.65a20.68,20.68,0,0,0-3.45,0c5.12-12,11.32-23,17-34.48C32.86,57,38.15,45.26,45.49,35.35a21.52,21.52,0,0,1,2.78-4.67C48.44,30.5,48.37,30.09,48.67,30Z"/><path class="cls-3" d="M24.32,34.28c4.15,9.36-10,15.42-13.42,7.36C16.27,47.19,24.3,40.92,24.32,34.28Z"/><path class="cls-2" d="M118.66,33.55a2,2,0,0,1-.77,1.76c-.8.14-1-.4-1.33-.79C116.49,33.55,117.83,33.05,118.66,33.55Z"/><path class="cls-2" d="M116.77,38.6c.36-.1.41.15.45.41-3.82,14.59-7.47,29.33-11.11,44.09a8.25,8.25,0,0,1-1.69-3.57C108.31,65.68,112.86,52.43,116.77,38.6Z"/><path class="cls-3" d="M6.59,45.74A41.31,41.31,0,0,1,3.06,69.41c-.69-1.58-.07-4.62-.75-6.21C5,58.49,6.17,52.48,6.59,45.74Z"/><path class="cls-2" d="M10.93,54.79c2.54,7.48,4.47,15.63,7.2,22.9a17,17,0,0,0-1.56,3.1C14.4,72.44,12.63,63.65,10.93,54.79Z"/><path class="cls-3" d="M90.3,14.09c-2.56,4.42-10,.69-9.93-4.66C81.87,12.84,85.24,15.38,90.3,14.09Z"/><path class="cls-2" d="M42.57,45.63C38.65,54.8,33.9,65,29.61,74.52c-3.24,7.32-7,14.17-10.1,21.63-1.38,2.17-1.75,5.25-3.74,6.87-1-.79,1.06-2.28.88-3.71.7-1.07,1.09-2.43,1.76-3.53,3.26-7.31,6.59-14.55,10.1-21.64C32.85,64.32,37.71,55,42.57,45.63Z"/><path class="cls-3" d="M128.16,67.54c-.23,1-1-.86-1.56-1-.4-.69-1-1.11-1.39-1.87-3.46-3-4.51-8.62-5.88-13.92a16.18,16.18,0,0,0-.39-3.43c.07-1.12.33.42.26.85,1.1,3.47,1.8,7.39,3.53,10.16.9,1.73,1.67,3.6,3,4.8C126.11,65,129.07,65.76,128.16,67.54Z"/></g></g></svg>