<?xml version="1.0" encoding="utf-8"?>
<!-- Generator: Adobe Illustrator 22.0.0, SVG Export Plug-In . SVG Version: 6.00 Build 0)  -->
<svg version="1.1" id="Capa_1" xmlns="http://www.w3.org/2000/svg" xmlns:xlink="http://www.w3.org/1999/xlink" x="0px" y="0px"
	 viewBox="0 0 200.2 141.2" style="enable-background:new 0 0 200.2 141.2;" xml:space="preserve">
<style type="text/css">
	.st0{fill:#6400DA;}
	.st1{fill:#FF6500;}
	.st2{fill:#FFFFFF;}
	.st3{fill:#FFD600;}
	.st4{fill:#005693;}
	.st5{fill:#34A836;}
	.st6{fill-rule:evenodd;clip-rule:evenodd;fill:#FFFFFF;}
	.st7{opacity:0.39;}
	.st8{fill:none;stroke:#FFFFFF;stroke-width:2.9784;stroke-linecap:round;stroke-linejoin:round;}
	.st9{fill:#C6433E;}
	.st10{fill:#E20613;}
	.st11{fill:#FCD570;}
	.st12{fill:#FCCD56;}
	.st13{fill:#F5BB41;}
	.st14{fill:#FDE19A;}
	.st15{fill:#FCD879;}
	.st16{fill:#FCD05E;}
	.st17{fill:#F6C55B;}
	.st18{fill:#F7B056;}
	.st19{fill:#F59B45;}
	.st20{fill-rule:evenodd;clip-rule:evenodd;fill:#FFC700;}
	.st21{fill:#F4EBC6;}
	.st22{fill:#B9B295;}
	.st23{fill:#0E0E0E;}
	.st24{fill:#884D30;}
	.st25{fill:#3F0D0B;}
	.st26{fill:#A86C0E;}
	.st27{fill:#F09915;}
	.st28{opacity:0.4;fill:#FFFFFF;}
	.st29{fill:#DCDDEE;}
	.st30{fill:#A5A3A9;}
	.st31{fill:#000922;}
	.st32{fill:#FFFFC7;}
	.st33{fill:#8BBFCB;}
	.st34{fill:#B3D5DD;}
	.st35{fill:#00AEEF;}
	.st36{fill:#008FEF;}
	.st37{fill:#4E82B0;}
	.st38{fill:#5A93B5;}
	.st39{fill:none;stroke:#003142;stroke-width:2.4444;stroke-miterlimit:10;}
	.st40{fill:#252D42;}
	.st41{fill:#00090C;}
</style>
<g>
	
		<image style="overflow:visible;opacity:0.1;" width="209" height="150" xlink:href="131FF1FE.png"  transform="matrix(1 0 0 1 4.5099 5.4388)">
	</image>
	<g>
		<g>
			<g>
				<polygon class="st9" points="24.2,2.6 77.6,61.4 144.8,103.9 120.6,132.7 10.6,141.2 0,31.3 				"/>
				<polygon class="st10" points="10.6,141.2 84.5,47.1 80.1,20.8 50.9,0 24.2,2.6 0,31.3 				"/>
				<polygon class="st10" points="10.6,141.2 90.5,52.2 117.2,51.9 142.7,77.1 144.8,103.9 120.6,132.7 				"/>
			</g>
			<g>
				<polygon class="st11" points="149.1,4.7 115,27.1 89.5,52.6 107.4,79.8 129.8,111.5 138.1,112.3 200.2,80.6 171,88.9 181,46.4 
					170.3,43.9 171.4,38.6 138.2,31.8 				"/>
				<polygon class="st12" points="181,46.4 170.3,43.9 161.6,92.3 171,88.9 				"/>
				<polygon class="st13" points="171,88.9 164.1,78.4 161.6,92.3 				"/>
				<polygon class="st14" points="171.4,38.6 107.8,80.4 161.6,92.3 				"/>
				<polygon class="st15" points="171.4,38.6 115,27.1 107.8,80.4 				"/>
				<polygon class="st13" points="149.1,4.7 130.2,30.2 138.2,31.8 				"/>
				<polygon class="st16" points="115,27.1 89.5,52.6 107.8,80.4 				"/>
				<polygon class="st12" points="200.2,80.6 171,88.9 161.6,92.3 129.8,111.5 138.1,112.3 				"/>
				
					<rect x="130.6" y="53.4" transform="matrix(0.2025 -0.9793 0.9793 0.2025 50.5954 183.3832)" class="st17" width="14.5" height="14.5"/>
				<polygon class="st13" points="132.2,52 139.2,59.8 143.5,69.2 136.9,61.1 				"/>
				<polygon class="st13" points="129.3,66.2 137,59.3 146.5,54.9 138.4,61.6 				"/>
				
					<rect x="134.4" y="57.1" transform="matrix(0.2024 -0.9793 0.9793 0.2024 50.6041 183.3893)" class="st18" width="7" height="7"/>
				<polygon class="st19" points="142,57.9 137.4,59.6 133.8,63.3 138.6,61.4 				"/>
			</g>
		</g>
	</g>
</g>
</svg>
