<svg id="Capa_1" data-name="Capa 1" xmlns="http://www.w3.org/2000/svg" viewBox="0 0 47.03 45.53"><defs><style>.cls-1{fill:#ffc700;fill-rule:evenodd;}</style></defs><title>header_start</title><path class="cls-1" d="M18.13,31c-3.84-.82-7.19-1.53-10.53-2.26-1.67-.37-3.34-.74-5-1.23a4.54,4.54,0,0,1-1.8-1.1,2.38,2.38,0,0,1,.52-4A25.44,25.44,0,0,1,6.23,21c3.78-.81,7.21-2.59,11-3.44,0-2.34,0-4.33,0-6.32a37.89,37.89,0,0,1,0-5.11c.18-1.39-.46-2.48-.7-3.72a1.83,1.83,0,0,1,1-2.15,1.78,1.78,0,0,1,2.31.51,36.49,36.49,0,0,1,2.29,3.6c.5.86.8,1.85,1.37,2.65,1.63,2.32,3.35,4.58,5.06,6.89a15.48,15.48,0,0,0,5-1.67c2.21-1,4.43-2,6.65-3a7.24,7.24,0,0,1,4.61-.49,2.29,2.29,0,0,1,1.47,3.64,11.37,11.37,0,0,1-1.13,1.28c-1.83,2-3.69,4-5.49,6-.84.95-1.58,2-2.48,3.14a85.28,85.28,0,0,0,7.17,6.87A19.62,19.62,0,0,1,46.05,31a2.47,2.47,0,0,1,.84,2.69,2.35,2.35,0,0,1-2.26,1.68,23.41,23.41,0,0,1-3.84-.13c-3-.42-5.89-1-9-1.49-.38.82-.7,1.56-1,2.29-1.11,2.32-2.2,4.64-3.37,6.93A6.24,6.24,0,0,1,26,44.61a3.17,3.17,0,0,1-4.61-.15,7.41,7.41,0,0,1-2-4.63C19.06,37,18.6,34.2,18.13,31ZM30,28.59c1.12-1.22,2.16-2,1.79-3.7l-5.31-5a9.73,9.73,0,0,0-4.73,1.75c.23,1.81.16,3.64,1,5.49Zm2.25-10.73c.26,1.64,1.36,2.41,2.85,3,.86-1,1.69-1.95,2.55-2.89a5.71,5.71,0,0,0,1.82-3.29C36.81,15.47,34.64,16.83,32.22,17.86ZM28,33.39c-3.3-1.23-3.3-1.21-4.89-.52a28.68,28.68,0,0,0,.45,2.88c.24,1,.63,1.94,1.18,3.58ZM17.3,25.81c.51-1.94.51-1.94-.59-3.28a9.14,9.14,0,0,0-4.86,2.06C13.88,25.28,15.49,26,17.3,25.81ZM21.15,16c.58.07.88.2,1.11.11a8,8,0,0,0,1.3-.79l-2.7-3.87C21,13.67,21.08,14.85,21.15,16ZM36.3,29.42c-1.49-2-1.57-2-2.52-.21C34.6,29.27,35.34,29.33,36.3,29.42Z"/></svg>