<svg xmlns="http://www.w3.org/2000/svg" viewBox="0 0 163.59 159.86"><defs><style>.cls-1{isolation:isolate;}.cls-2{fill:#884d30;}.cls-3{fill:#3f0d0b;}.cls-4,.cls-7{fill:#a86c0e;}.cls-4,.cls-6{mix-blend-mode:multiply;}.cls-5{fill:#f09915;}.cls-8{fill:#fff;opacity:0.4;}.cls-9{fill:#dcddee;}.cls-10{fill:#a5a3a9;}</style></defs><title>header-pencil</title><g class="cls-1"><g id="Capa_1" data-name="Capa 1"><path class="cls-2" d="M125.49,127.64a13.9,13.9,0,0,1,21-1.8c5.76,5.72,6.21,11.82,6.56,16.72.42,5.85.7,9.72,8.73,11.13a1,1,0,0,1,.75.66,1,1,0,0,1-.13.86l-.1.12c-8.2,8.25-24.31,1.1-35.32-9.83a13.78,13.78,0,0,1-1.53-17.86Z"/><path class="cls-3" d="M161.65,154.65c-7.5,7.54-23,1.06-33.94-9.83a12.88,12.88,0,0,1,18.13-18.29c12.08,12-.32,25.28,15.81,28.12m1.58,1.12a1.92,1.92,0,0,0,.27-1.71,2,2,0,0,0-1.51-1.33c-7.28-1.28-7.51-4.46-7.93-10.24-.37-5.06-.82-11.36-6.85-17.34a14.84,14.84,0,0,0-21,.09,16.05,16.05,0,0,0-1.55,1.84,14.74,14.74,0,0,0,1.64,19.11c11.34,11.26,28,18.53,36.69,9.83a2.43,2.43,0,0,0,.2-.25Z"/><path class="cls-4" d="M140.66,123.41a12.85,12.85,0,0,0-4.51,21.17c6.41,6.36,14.34,11.21,21.33,12.65-8.17,2.77-20.55-3.27-29.77-12.41a12.87,12.87,0,0,1,13-21.41Z"/><path class="cls-4" d="M140,123.22a12.86,12.86,0,0,0-8.57,22c6.46,6.41,14.46,11.27,21.49,12.67-7.78-.08-17.57-5.5-25.2-13.07A12.87,12.87,0,0,1,140,123.22Z"/><path class="cls-5" d="M1.62,1.58C2.57.63,5.08-1.9,36.08,23.22,54,37.75,74.27,55.82,88.92,70.36c31.38,31.13,32.2,40.11,28.86,44.78a7.51,7.51,0,0,1-.77.92c-3,3-7.42,2.79-13.86-.79-7.5-4.15-18-13-32.07-26.94C49.89,67.31-3.61,8.87,1.42,1.82Z"/><path class="cls-3" d="M117,114.58a7.28,7.28,0,0,1-.67.8c-4.55,4.58-14.47,2.12-44.55-27.74C41.91,58-1.55,7.65,2.21,2.38l.1-.12c3.94-4,55.84,38.93,85.92,68.79,28.45,28.22,32.27,38.6,28.76,43.53m1.59,1.12c3.75-5.25,2.84-14.47-29-46C74.93,55.11,54.66,37,36.69,22.46,5-3.21,2.46-.64.93.89a2.6,2.6,0,0,0-.3.36C-.51,2.85-2.89,6.18,22.89,37.13,37,54.08,55.22,74,70.4,89c14.15,14,24.7,22.91,32.28,27.1,6.78,3.77,11.7,4,15,.63a8.74,8.74,0,0,0,.88-1Z"/><g class="cls-6"><path class="cls-7" d="M67.39,70.13c27.66,24.6,38.82,29.18,44.06,26.73,7.78,10.68,7.72,15.64,4.87,18.52-4.55,4.58-14.47,2.12-44.55-27.74C43.62,59.72,3.37,13.34,2,3.72,16.44,21.47,45.49,50.65,67.39,70.13Z"/></g><g class="cls-6"><path class="cls-7" d="M69.41,81.05c30.08,29.86,40,32.32,44.55,27.74a6.18,6.18,0,0,0,1.7-5.37c3.38,6.31,2.84,9.75.66,12-4.55,4.58-14.47,2.12-44.55-27.74C43.62,59.72,3.37,13.34,2,3.72,3,4.9,4,6.15,5.12,7.44,17.27,25.29,47.13,59,69.41,81.05Z"/></g><path class="cls-8" d="M13.51,10.51c-.88,1,21.41,20.06,43.18,38.72s38,35.43,38.89,34.4S81.64,64.17,59.88,45.51,14.39,9.49,13.51,10.51Z"/><path class="cls-9" d="M89.86,104.32a1,1,0,0,1,1.29-.25c3.59,2.19,11,3.45,14.13.35a4.55,4.55,0,0,0,.49-.58c2.25-3.15,1.33-9.87-1-13.54a1,1,0,0,1,0-1.07,1.45,1.45,0,0,1,.21-.22,1,1,0,0,1,1.3.13c.05,0,5.32,5.84,7.1,7.61,12.26,12.16,18.86,25.06,15.34,30a5,5,0,0,1-.46.55c-5,5-19.48-3.53-30.67-14.63-1.78-1.77-7.6-7-7.66-7a1,1,0,0,1-.15-1.29Z"/><path class="cls-3" d="M128,126.18a4.82,4.82,0,0,1-.36.43c-4,4-17.1-2.55-29.29-14.64-1.82-1.81-7.71-7.07-7.71-7.07,4,2.47,11.93,3.63,15.33.21a5.7,5.7,0,0,0,.59-.71c2.64-3.7,1.42-10.85-.93-14.61,0,0,5.32,5.84,7.14,7.65,11.78,11.69,18.4,24.29,15.23,28.74m1.58,1.13c4.37-6.12-4.46-20.36-15.44-31.25-1.77-1.76-7-7.52-7.07-7.58a1.94,1.94,0,0,0-2.61-.24,1.81,1.81,0,0,0-.41.42,2,2,0,0,0-.07,2.16c2.09,3.35,3,9.65,1,12.45a3.6,3.6,0,0,1-.39.47c-2.46,2.48-9.17,1.8-12.93-.5a1.94,1.94,0,0,0-2.58.5v0a2,2,0,0,0,.28,2.59c.06.05,5.86,5.25,7.63,7,11.65,11.56,26.4,20.3,32,14.62a5.09,5.09,0,0,0,.57-.66Z"/><g class="cls-6"><path class="cls-10" d="M103.66,106.57c10,8.45,19.57,12.74,23.4,10.16,2,4.5,2.35,8.08.58,9.88-4,4-17.1-2.55-29.29-14.64-1.82-1.81-7.71-7.07-7.71-7.07C93.93,106.91,99.76,108.05,103.66,106.57Z"/></g><g class="cls-6"><path class="cls-10" d="M98.47,107.2c1.5,1.37,3,2.78,3.81,3.56,9.49,9.41,19.53,15.46,25.39,15.8l0,0c-4,4-17.1-2.55-29.29-14.64-1.82-1.81-7.71-7.07-7.71-7.07A18,18,0,0,0,98.47,107.2Z"/></g><path class="cls-8" d="M141.25,125.45c-.9.26,3.14,4.59,5,10.86s.84,12.09,1.74,11.83,3.38-6.54,1.51-12.8S142.15,125.18,141.25,125.45Z"/></g></g></svg>