<svg xmlns="http://www.w3.org/2000/svg" viewBox="0 0 533.07 348.09"><defs><style>.cls-1{fill:#000922;}.cls-2{fill:#ffffc7;}.cls-3{fill:#8bbfcb;}.cls-4{fill:#b3d5dd;}.cls-5{fill:#00aeef;}.cls-6{fill:#008fef;}.cls-7{fill:#4e82b0;}.cls-8{fill:#5a93b5;}.cls-9{fill:none;stroke:#003142;stroke-miterlimit:10;stroke-width:2.44px;}.cls-10{fill:#252d42;}.cls-11{fill:#00090c;}</style></defs><title>bicicleta</title><g id="Capa_2" data-name="Capa 2"><g id="Capa_1-2" data-name="Capa 1"><path class="cls-1" d="M4.38,145.65A91.21,91.21,0,1,0,52.45,91,91.18,91.18,0,0,0,4.38,145.65Zm113.18,99.67a76.51,76.51,0,1,1,46.52-48.48A76.19,76.19,0,0,1,117.56,245.32Z"/><path class="cls-2" d="M10.85,147.73A84.42,84.42,0,1,0,55.34,97.1,84.39,84.39,0,0,0,10.85,147.73ZM115.59,240a70.8,70.8,0,1,1,43-44.87A70.52,70.52,0,0,1,115.59,240Z"/><path class="cls-3" d="M160.71,200.11A79.12,79.12,0,0,0,57.59,101.87,79.12,79.12,0,1,1,119,247.57,78.88,78.88,0,0,0,160.71,200.11Z"/><path class="cls-3" d="M28,153.23a66.38,66.38,0,0,0,86.06,82.58A66.38,66.38,0,1,1,62.51,113.64,66.22,66.22,0,0,0,28,153.23Z"/><path class="cls-4" d="M67.07,248.83A78.76,78.76,0,0,0,119,247.57a79.12,79.12,0,0,0-61.41-145.7,79.12,79.12,0,0,0,9.48,147Zm47-13A66.38,66.38,0,1,1,62.51,113.64a66.38,66.38,0,1,1,51.56,122.17Z"/><path class="cls-1" d="M264.54,229a91.21,91.21,0,1,0,48.07-54.7A91.18,91.18,0,0,0,264.54,229ZM377.72,328.7a76.51,76.51,0,1,1,46.52-48.48A76.19,76.19,0,0,1,377.72,328.7Z"/><path class="cls-2" d="M271,231.11a84.43,84.43,0,1,0,44.5-50.63A84.4,84.4,0,0,0,271,231.11Zm104.74,92.23a70.8,70.8,0,1,1,43.05-44.87A70.52,70.52,0,0,1,375.75,323.34Z"/><path class="cls-3" d="M420.87,283.49a79.12,79.12,0,0,0-103.12-98.24A79.12,79.12,0,1,1,379.16,331,78.85,78.85,0,0,0,420.87,283.49Z"/><path class="cls-3" d="M288.17,236.61a66.39,66.39,0,0,0,86.06,82.58A66.38,66.38,0,1,1,322.68,197,66.2,66.2,0,0,0,288.17,236.61Z"/><path class="cls-4" d="M327.23,332.21A78.76,78.76,0,0,0,379.16,331a79.12,79.12,0,0,0-61.41-145.7,79.12,79.12,0,0,0,9.48,147Zm47-13A66.38,66.38,0,1,1,322.68,197a66.38,66.38,0,1,1,51.55,122.17Z"/><path d="M94.29,165.73l.34-.5a19.94,19.94,0,0,0,17.57-6.18c13.89-14.68,31.26-25.94,41.65-44,2-4.48.57-8.79-1.08-13.16A4.34,4.34,0,0,1,156,99.78c2.45,3,4.42,6.74,8.77,7.07a15.89,15.89,0,0,0-1.1,2.53c-.63,5.54-12.37,15.93-15.88,20.92s-30.65,28.81-36.92,35.21c-3.32,3.41-7,6.37-10.3,7.77a7.58,7.58,0,0,1-.3,1.46,6.92,6.92,0,1,1-6-9Z"/><path class="cls-5" d="M153.85,115c-10.39,18.08-27.76,29.34-41.65,44a19.94,19.94,0,0,1-17.57,6.18,18.72,18.72,0,0,1,2.29-2.66s53-47.27,54.07-55.34a12.21,12.21,0,0,1,1.78-5.36C154.42,106.24,155.85,110.55,153.85,115Z"/><path class="cls-6" d="M312.18,111.22l16.06-26,8.69,5.08-9.05,16.92C322.5,106.19,317.1,108.2,312.18,111.22Z"/><path class="cls-6" d="M175.06,71.92a5.72,5.72,0,0,1,.74-.34l8.29-10.35L190,67.72s-6.12,6.65-7.19,10.84C181.73,75.05,179,72,175.06,71.92Z"/><path class="cls-5" d="M156.44,99.79a2.86,2.86,0,0,0-.42,0c2.45,3,4.42,6.74,8.77,7.07.68-1.22,1.61-2.34,2.65-2,2.08.66,72.47,130.69,72.47,130.69s1.44,5.06,6.4,6.27c4.62,1.12,87.09,15.65,98.8,17.71a7.31,7.31,0,1,0,8.65-10.47l-.45-.11a6.79,6.79,0,0,0-.49-.54l-47.34-99.31,22.4-41.85c-5.38-1-10.78,1-15.7,4l-13.34,21.59s-3.65,3-10.6-.34S186.82,87.34,186.82,87.34,183,83.82,182.7,79.9a4.37,4.37,0,0,1,.15-1.34c-1.12-3.51-3.86-6.61-7.79-6.64a12.28,12.28,0,0,0-5.29,5.37C167.63,81.58,154.86,92.78,156.44,99.79ZM263.59,221.33c2.45-6.48,32.45-61.88,35.56-62s11.39,19.33,16.72,31.36,29.29,53,30.48,56.44c.56,1.61.86,2.46,1,2.91a7.35,7.35,0,0,0-2.62,3.3c-1.79.19-4.63-.07-9.16-1.25,0,0-62.15-16.1-67.24-18.11S261.13,227.81,263.59,221.33ZM185.66,96.92l107,46.9-.25.45c2.09.89,3.69,1.95,3.29,3.2-10.08,24.31-24.33,47.28-40,67.5-3.75,4.54-8.13-1-11.47-6.78a76.89,76.89,0,0,1-4.7-7.2C233,190.13,182.29,99.62,182.29,99.62S179.76,94.33,185.66,96.92Z"/><path class="cls-6" d="M250.7,212.61c2.52.08,38.3-62.43,41.68-68.34,2.09.89,3.69,1.95,3.29,3.2-10.08,24.31-24.33,47.28-40,67.5-3.75,4.54-8.13-1-11.47-6.78C247.24,212.2,248.83,212.55,250.7,212.61Z"/><path class="cls-4" d="M218.8,223.43a28.17,28.17,0,1,0,35.42-18.23A28.17,28.17,0,0,0,218.8,223.43Zm19.75-13.78a23.16,23.16,0,0,1,10.3-.87l-3.21,10a13.44,13.44,0,0,0-2.29.2Zm18,1.58a23.3,23.3,0,0,1,7.88,6.7l-9.34,4.81a13.12,13.12,0,0,0-1.75-1.49Zm11.54,13.87a23.27,23.27,0,0,1,.8,10.26l-10-3.2a12.78,12.78,0,0,0-.18-2.24ZM266.36,243a23.2,23.2,0,0,1-6.64,7.78l-4.81-9.34a14,14,0,0,0,1.42-1.65Zm-13.81,11.44a23.55,23.55,0,0,1-10.15.82l3.21-10a12.46,12.46,0,0,0,2.12-.17Zm-17.81-1.64a23.2,23.2,0,0,1-7.78-6.57l9.36-4.82A12.65,12.65,0,0,0,238,242.8ZM223.25,239.1a23.42,23.42,0,0,1-.89-10.19l10,3.22a12.94,12.94,0,0,0,.19,2.16Zm1.53-17.86a23.43,23.43,0,0,1,6.62-7.89l4.83,9.37a12.57,12.57,0,0,0-1.45,1.72Z"/><path class="cls-3" d="M236,229a10.08,10.08,0,1,0,12.67-6.52A10.07,10.07,0,0,0,236,229Z"/><path class="cls-3" d="M221.46,224.28a25.38,25.38,0,1,0,31.91-16.42A25.38,25.38,0,0,0,221.46,224.28Zm2.19.7a23.08,23.08,0,1,1,14.93,29A23.07,23.07,0,0,1,223.65,225Z"/><path class="cls-7" d="M358.94,269.86c-5,1.5-10-2.07-15.34-3.29,7.59-2.28,10.78.32,10.78.32s-7.2-7.14,1.65-10.89c0,0,5.7,6.12,8.45,11.58A13.26,13.26,0,0,1,358.94,269.86Z"/><path class="cls-8" d="M343.6,266.57c5.35,1.22,10.32,4.79,15.34,3.29a13.26,13.26,0,0,0,5.54-2.28,10.59,10.59,0,0,1,1.44,5.09c-.39,5.64-19.73-1.92-27.52,6.37,0,0-3.92,3-5.7,1.3s-1.69-8.76,8-12.74C341.73,267.18,342.7,266.84,343.6,266.57Z"/><path class="cls-3" d="M339.8,251.63a12.63,12.63,0,1,0,15.88-8.17A12.63,12.63,0,0,0,339.8,251.63Z"/><path class="cls-4" d="M342.81,252.59a9.47,9.47,0,1,0,11.91-6.13A9.47,9.47,0,0,0,342.81,252.59Z"/><path class="cls-3" d="M346.49,253.77a5.6,5.6,0,1,0,7.05-3.63A5.6,5.6,0,0,0,346.49,253.77Z"/><path class="cls-3" d="M322.74,274.23a7.2,7.2,0,1,0,9.05-4.66A7.21,7.21,0,0,0,322.74,274.23Z"/><path class="cls-4" d="M324.46,274.78a5.39,5.39,0,1,0,6.78-3.49A5.39,5.39,0,0,0,324.46,274.78Z"/><path class="cls-3" d="M326.56,275.45a3.19,3.19,0,1,0,4-2.07A3.18,3.18,0,0,0,326.56,275.45Z"/><path class="cls-9" d="M218.8,223.43a28.17,28.17,0,0,1,35.42-18.23c.94.3,1.85.65,2.73,1l97.79,37h0c.31.07.62.15.93.25a12.61,12.61,0,0,1,5.52,20.47h0s-28.2,18.95-29.44,19.35a7.21,7.21,0,0,1-4.36,0l-87.84-23.76c-.84-.18-1.69-.4-2.53-.67s-1.39-.49-2.07-.77h0A28.16,28.16,0,0,1,218.8,223.43Z"/><path class="cls-1" d="M173.36,44.07l0,0c2.32-5.38,19.51.51,24.64,6s1.95,9.42-1.79,15.11-6.19,2.6-6.19,2.6l-5.95-6.49c1.06-1.32-.21-3-.91-3.83.07-.38.09-.75.17-1C181.74,50.26,177.88,46.82,173.36,44.07Z"/><path class="cls-10" d="M120.5.69C123.64,2.84,136.77,43,139,46.78s17.61,9.47,25.34,10.42,6.71-7.76,9-13.13c4.52,2.75,8.38,6.19,10,12.33-.08.25-.1.62-.17,1-.23-.26-.4-.42-.4-.42-3.72,6.84-11.51,10.85-17,10.63s-19.62-6.29-24.86-8-9.59-5.75-13.5-15S116,11.11,114.46,6.4,117.37-1.46,120.5.69Z"/><path class="cls-1" d="M131.36,26.58s-2.12,3.93-9.2,3.45c0,0-10.62,2.21-11.6,7.63s7.94,15.82,7.68,20.2,1.86,7.34,3.44,4.78-2.75-8.24-5.06-14.1S114,36.77,123.93,35.19l2.13,5.88s7.28,1.28,9-4.33Z"/><path class="cls-10" d="M320.22,45.67c4.33,2.24,9.13,4.68,13.65,6.57,15.48,6.5,17.22,7,26.55,7.75s20.76,2.06,16.24,9c-.13.19-.26.37-.4.55C354.94,68.67,333.72,62.6,320.22,45.67Z"/><path class="cls-10" d="M336.93,90.32l-8.69-5.08a27.12,27.12,0,0,0,2.46-4.53c2.86,1.43,5.75,2.8,8.66,4.18A27.06,27.06,0,0,0,336.93,90.32Z"/><path class="cls-11" d="M320.22,45.67c13.5,16.93,34.72,23,56,23.9-4.91,6.31-18.68,4.57-27.28,7-4.65,1.33-7.74,5.06-9.62,8.3-2.91-1.38-5.8-2.75-8.66-4.18.9-2.14,1.55-4.66.88-6.63-1.45-4.29-14.75-18.88-23.4-30.07C302.05,36.09,309.72,40.26,320.22,45.67Z"/><path class="cls-4" d="M245.91,189.75c16.16-10.62,39.37-20.27,57-19.83a3.24,3.24,0,0,1-1,1.72,78.65,78.65,0,0,1-19.58,12.84C246.62,201.35,239.82,193.35,245.91,189.75Z"/><path class="cls-10" d="M297.11,156.61c3.63,5.19,6.54,10.24,5.79,13.31-17.62-.44-33.68,6.82-49.85,17.44a18.41,18.41,0,0,1-7.14,2.39c3.09-4,5.63-8.37,9.34-11.63A78.73,78.73,0,0,1,297.11,156.61Z"/><path class="cls-1" d="M247.64,192.73c-.48-1.43,9.75-6.86,21-10.83s22.17-12.51,25.19-8-9.89,10-15.54,12.21S249.71,199,247.64,192.73Z"/><path class="cls-10" d="M248.11,237.2c-5.91,2.36-9.87-2.9-7-7.57s26.25-47.29,30-49.46,12.31-1.55,5.39,11.38S252,235.68,248.11,237.2Z"/><path class="cls-3" d="M243,231.17a2.8,2.8,0,1,0,3.52-1.81A2.79,2.79,0,0,0,243,231.17Z"/><path class="cls-3" d="M270.8,184.06a2.79,2.79,0,1,0,3.52-1.81A2.79,2.79,0,0,0,270.8,184.06Z"/><polygon class="cls-11" points="272.68 157.62 446.19 216.99 275.4 165.99 272.68 157.62"/><polygon class="cls-11" points="426 245.8 533.07 283.87 426.86 253.57 426 245.8"/><polygon class="cls-11" points="256.03 288.85 363.1 326.92 256.89 296.62 256.03 288.85"/><polygon class="cls-11" points="170.62 196.85 219.82 215.39 166.81 202.47 170.62 196.85"/><polygon class="cls-11" points="429.9 285.19 479.11 303.72 426.09 290.8 429.9 285.19"/><polygon class="cls-11" points="117.26 265.28 166.47 283.82 108.65 269.36 117.26 265.28"/><path class="cls-11" d="M340.87,93.35s39.41,9,72.5,25.58C413.37,118.93,362.59,104.52,340.87,93.35Z"/><path class="cls-11" d="M312.84,141.34s39.4,9,72.5,25.58C385.34,166.92,334.55,152.52,312.84,141.34Z"/><path class="cls-11" d="M104.15,194.77s47.41,10.86,87.23,30.78C191.38,225.55,130.28,208.22,104.15,194.77Z"/><path class="cls-11" d="M352,297s47.41,10.86,87.23,30.78C439.27,327.73,378.17,310.4,352,297Z"/><path class="cls-11" d="M46.17,211.79s64.91,16.47,120.62,41.48C166.79,253.27,82.76,228.59,46.17,211.79Z"/><path class="cls-11" d="M423.67,224.93s39.4,9,72.5,25.58C496.17,250.51,445.38,236.1,423.67,224.93Z"/><polygon points="178.03 111.55 226.63 211.31 164.38 97.91 178.03 111.55"/><polygon points="185.66 96.92 275.23 137.13 189.11 94.5 185.66 96.92"/><polygon points="298.25 134.57 331.5 90.24 328.24 85.24 298.25 134.57"/></g></g></svg>