<?xml version="1.0" encoding="utf-8"?>
<!-- Generator: Adobe Illustrator 22.0.0, SVG Export Plug-In . SVG Version: 6.00 Build 0)  -->
<svg version="1.1" xmlns="http://www.w3.org/2000/svg" xmlns:xlink="http://www.w3.org/1999/xlink" x="0px" y="0px"
	 viewBox="0 0 217.6 208.5" style="enable-background:new 0 0 217.6 208.5;" xml:space="preserve">
<style type="text/css">
	.st0{opacity:0.3;}
	.st1{fill:#FFFFFF;}
	.st2{fill:#39B2BE;}
	.st3{fill:#D36E6E;}
	.st4{fill:none;stroke:#383838;stroke-linecap:round;stroke-linejoin:round;}
	.st5{fill:none;stroke:#B0EF4D;stroke-width:2.5;stroke-linecap:round;stroke-linejoin:round;}
	.st6{fill:#4E4E4E;}
	.st7{fill:#99C503;}
	.st8{fill:none;stroke:#007D25;stroke-width:3.1395;stroke-linecap:round;stroke-linejoin:round;}
	.st9{fill:#5B00DA;}
	.st10{fill:none;stroke:#FFFFFF;stroke-width:2.9;stroke-miterlimit:10;}
	.st11{fill-rule:evenodd;clip-rule:evenodd;fill:#FFFFFF;}
	.st12{fill:none;stroke:#99C503;stroke-width:2.9936;stroke-linecap:round;stroke-linejoin:round;}
	.st13{fill:#C6433E;}
	.st14{fill:#E20613;}
	.st15{fill:#FCD570;}
	.st16{fill:#FCCD56;}
	.st17{fill:#F5BB41;}
	.st18{fill:#FDE19A;}
	.st19{fill:#FCD879;}
	.st20{fill:#FCD05E;}
	.st21{fill:#F6C55B;}
	.st22{fill:#F7B056;}
	.st23{fill:#F59B45;}
	.st24{fill-rule:evenodd;clip-rule:evenodd;fill:#FFC700;}
	.st25{opacity:0.39;}
	.st26{fill:none;stroke:#FFFFFF;stroke-width:2;stroke-linecap:round;stroke-linejoin:round;}
	.st27{fill:none;stroke:#FFFFFF;stroke-width:2.9784;stroke-linecap:round;stroke-linejoin:round;}
	.st28{fill:none;stroke:#FFFFFF;stroke-width:1.9752;stroke-linecap:round;stroke-linejoin:round;}
	.st29{fill:none;stroke:#FFFFFF;stroke-width:1.843;stroke-linecap:round;stroke-linejoin:round;}
	.st30{fill:none;stroke:#99C503;stroke-width:3.1578;stroke-linecap:round;stroke-linejoin:round;}
	.st31{fill:#FBB040;}
	.st32{fill:#ED5739;}
	.st33{fill:#ED1C24;}
	.st34{fill:#8F1116;}
	.st35{fill:#684791;}
	.st36{fill:#ADF1FF;}
	.st37{fill:#981108;}
	.st38{fill:#BF0F11;}
	.st39{fill:#E73F3A;}
	.st40{fill:#B1100E;}
	.st41{fill:#E20A17;}
	.st42{fill:#A8110C;}
	.st43{fill:#3A9B51;}
	.st44{fill:#58B46D;}
	.st45{fill-rule:evenodd;clip-rule:evenodd;fill:#220501;}
	.st46{fill-rule:evenodd;clip-rule:evenodd;fill:#F6B400;}
	.st47{fill-rule:evenodd;clip-rule:evenodd;fill:#EC7E00;}
	.st48{fill-rule:evenodd;clip-rule:evenodd;fill:#E61F11;}
	.st49{fill-rule:evenodd;clip-rule:evenodd;fill:#77305F;}
	.st50{fill-rule:evenodd;clip-rule:evenodd;fill:#00AE8A;}
	.st51{fill-rule:evenodd;clip-rule:evenodd;fill:#5D1913;}
	.st52{fill:none;stroke:#FFFFFF;stroke-width:0.9928;stroke-linecap:round;stroke-linejoin:round;}
	.st53{fill:none;stroke:#FFFFFF;stroke-width:0.9004;stroke-linecap:round;stroke-linejoin:round;}
	.st54{fill:none;stroke:#FFFFFF;stroke-width:0.3471;stroke-linecap:round;stroke-linejoin:round;}
	.st55{fill:none;stroke:#FFFFFF;stroke-width:0.4341;stroke-linecap:round;stroke-linejoin:round;}
	.st56{opacity:0.24;}
	.st57{fill:#FDFDFD;}
	.st58{fill:#FCD212;}
	.st59{fill-rule:evenodd;clip-rule:evenodd;fill:#FF989D;}
	.st60{fill-rule:evenodd;clip-rule:evenodd;fill:#87432A;}
	.st61{fill-rule:evenodd;clip-rule:evenodd;fill:#E9521A;}
	.st62{fill-rule:evenodd;clip-rule:evenodd;fill:#7F252C;}
	.st63{fill-rule:evenodd;clip-rule:evenodd;fill:#2B2626;}
	.st64{fill-rule:evenodd;clip-rule:evenodd;fill:#696969;}
	.st65{fill-rule:evenodd;clip-rule:evenodd;fill:#8C8C8B;}
	.st66{fill-rule:evenodd;clip-rule:evenodd;fill:#3D4D70;}
	.st67{fill:#6400DA;}
	.st68{fill:#FF6500;}
	.st69{fill:#F4EBC6;}
	.st70{fill:#B9B295;}
	.st71{fill:#0E0E0E;}
	.st72{fill:#000922;}
	.st73{fill:#FFFFC7;}
	.st74{fill:#8BBFCB;}
	.st75{fill:#B3D5DD;}
	.st76{fill:#00AEEF;}
	.st77{fill:#008FEF;}
	.st78{fill:#4E82B0;}
	.st79{fill:#5A93B5;}
	.st80{fill:none;stroke:#003142;stroke-width:2.0634;stroke-miterlimit:10;}
	.st81{fill:#252D42;}
	.st82{fill:#00090C;}
	.st83{fill:#79B2FF;}
	.st84{fill:#9BC6FF;}
	.st85{fill:#FFCB7C;}
	.st86{fill:#F6838D;}
	.st87{fill:#4799CF;}
	.st88{fill:#D9D9D9;}
	.st89{fill:#AAE5C8;}
	.st90{fill:#85BC94;}
	.st91{fill:#EA9D2D;}
	.st92{fill:#EBEBEB;}
	.st93{fill:#5ABCF3;}
	.st94{fill:#E06661;}
	.st95{fill:#CDCDCD;}
	.st96{fill:#FBB540;}
	.st97{fill:#FDC9A6;}
	.st98{fill:#475D6D;}
	.st99{fill:#2C3F4F;}
	.st100{fill:#F9DC6A;}
	.st101{fill:#E5AC51;}
	.st102{fill:#2BB4F3;}
	.st103{fill:#1687C4;}
	.st104{fill:#F2A077;}
	.st105{fill:#FFCCAA;}
	.st106{fill:#FF5A59;}
	.st107{fill:#CE3A4C;}
	.st108{fill:#FFC800;}
	.st109{fill:#009EE2;}
	.st110{fill:#FFD600;}
	.st111{fill:#005693;}
	.st112{fill:#34A836;}
	.st113{fill-rule:evenodd;clip-rule:evenodd;fill:none;}
	.st114{fill-rule:evenodd;clip-rule:evenodd;fill:#D6C1BE;}
	.st115{fill-rule:evenodd;clip-rule:evenodd;fill:#EAE2E0;}
	.st116{fill-rule:evenodd;clip-rule:evenodd;fill:#66C0B0;}
	.st117{fill-rule:evenodd;clip-rule:evenodd;fill:#56B09E;}
	.st118{fill:none;}
	.st119{fill:#011826;}
	.st120{opacity:0.4;}
	.st121{fill:#00294F;}
	.st122{fill:#884D30;}
	.st123{fill:#3F0D0B;}
	.st124{fill:#A86C0E;}
	.st125{fill:#F09915;}
	.st126{opacity:0.4;fill:#FFFFFF;}
	.st127{fill:#DCDDEE;}
	.st128{fill:#A5A3A9;}
	.st129{fill:#DCCEC3;}
	.st130{fill:#9D5224;}
	.st131{fill:#612E05;}
	.st132{fill:#804118;}
	.st133{fill:#562504;}
	.st134{fill:#723412;}
	.st135{fill:#E3CDBF;}
	.st136{fill:#240500;}
	.st137{fill:#391B00;}
	.st138{fill:#462500;}
	.st139{fill:#D3C8BF;}
	.st140{fill:#4F2200;}
	.st141{fill:none;stroke:#FFFFFF;stroke-width:0.8075;stroke-linecap:round;stroke-linejoin:round;}
	.st142{opacity:0.1;fill:#00C1A8;}
	.st143{fill:#FA6B08;}
	.st144{fill:#FF9138;}
	.st145{fill:#123025;}
	.st146{fill:none;stroke:#001609;stroke-width:3;stroke-miterlimit:10;}
	.st147{fill:#32453F;}
	.st148{opacity:0.1;clip-path:url(#SVGID_2_);}
	.st149{fill:#A1B6AD;}
	.st150{fill:#CE5606;}
	.st151{fill:#FDFDD6;}
	.st152{fill:#FDFDDA;}
	.st153{fill:none;stroke:#FDFDD6;stroke-miterlimit:10;}
	.st154{fill:#FF9D4E;}
	.st155{fill:#FFD161;}
	.st156{fill:#FFCC41;}
	.st157{fill:#FFAC00;}
	.st158{fill:#00C1A8;}
	.st159{fill:#001609;}
	.st160{fill:none;stroke:#FFFFFF;stroke-width:3;stroke-linecap:round;stroke-linejoin:round;}
	.st161{fill:#009CDD;}
	.st162{clip-path:url(#SVGID_6_);}
	.st163{fill:url(#SVGID_7_);}
	.st164{fill:url(#SVGID_8_);}
	.st165{fill:url(#SVGID_9_);}
	.st166{fill:url(#SVGID_10_);}
	.st167{fill:url(#SVGID_11_);}
	.st168{fill:url(#SVGID_12_);}
	.st169{fill:url(#SVGID_13_);}
	.st170{fill:url(#SVGID_14_);}
	.st171{fill:url(#SVGID_15_);}
	.st172{fill:url(#SVGID_16_);}
	.st173{fill:url(#SVGID_17_);}
	.st174{fill:url(#SVGID_18_);}
	.st175{fill:url(#SVGID_19_);}
	.st176{fill:url(#SVGID_20_);}
	.st177{fill:url(#SVGID_21_);}
	.st178{fill:url(#SVGID_22_);}
	.st179{fill:url(#SVGID_23_);}
	.st180{fill:#EBF3FA;}
	.st181{clip-path:url(#SVGID_6_);fill:url(#SVGID_24_);}
	.st182{fill:url(#SVGID_25_);}
	.st183{fill:url(#SVGID_26_);}
	.st184{fill:url(#SVGID_29_);}
	.st185{fill:url(#SVGID_30_);}
	.st186{clip-path:url(#SVGID_32_);}
	.st187{clip-path:url(#SVGID_36_);}
	.st188{fill:#418421;}
	.st189{fill:#2D660E;}
	.st190{fill:#84D84E;}
	.st191{opacity:0.4;fill:#2D660E;}
	.st192{fill:#EDC174;}
	.st193{fill:#D8A34E;}
	.st194{fill:#C18733;}
	.st195{opacity:0.4;fill:#1B3D04;}
	.st196{fill:#6AC634;}
	.st197{fill:#245109;}
	.st198{fill:#D6854D;}
	.st199{fill:#BC6428;}
	.st200{fill:#492004;}
	.st201{fill:#66BC2E;}
	.st202{clip-path:url(#SVGID_36_);fill:#009CDD;}
	.st203{fill:#D8BF4C;}
	.st204{fill:#4BDDFD;}
	.st205{opacity:0.6;fill:#13BDE5;}
	.st206{opacity:0.5;fill:#FFEAC1;}
	.st207{opacity:0.7;fill:#FFEAC1;}
	.st208{fill:#FAFFDE;}
	.st209{opacity:0.2;}
	.st210{fill:#BF9D62;}
	.st211{clip-path:url(#SVGID_40_);}
	.st212{clip-path:url(#SVGID_44_);fill:none;}
	.st213{clip-path:url(#SVGID_48_);fill:url(#SVGID_49_);}
	.st214{clip-path:url(#SVGID_48_);fill:url(#SVGID_50_);}
	.st215{clip-path:url(#SVGID_48_);fill:#009CDD;}
	.st216{clip-path:url(#SVGID_48_);}
	.st217{fill:url(#SVGID_51_);}
	.st218{fill:url(#SVGID_52_);}
	.st219{fill:url(#SVGID_53_);}
	.st220{fill:url(#SVGID_54_);}
	.st221{fill:url(#SVGID_55_);}
	.st222{fill:url(#SVGID_56_);}
	.st223{fill:url(#SVGID_57_);}
	.st224{fill:url(#SVGID_58_);}
	.st225{fill:url(#SVGID_59_);}
	.st226{fill:url(#SVGID_60_);}
	.st227{fill:url(#SVGID_61_);}
	.st228{fill:url(#SVGID_62_);}
	.st229{fill:url(#SVGID_63_);}
	.st230{fill:url(#SVGID_64_);}
	.st231{fill:url(#SVGID_65_);}
	.st232{fill:url(#SVGID_66_);}
	.st233{fill:url(#SVGID_67_);}
	.st234{fill:url(#SVGID_68_);}
	.st235{fill:url(#SVGID_69_);}
	.st236{fill:url(#SVGID_70_);}
	.st237{fill:url(#SVGID_71_);}
	.st238{fill:url(#SVGID_72_);}
	.st239{fill:url(#SVGID_73_);}
	.st240{fill:url(#SVGID_74_);}
	.st241{fill:url(#SVGID_75_);}
	.st242{fill:url(#SVGID_76_);}
	.st243{fill:url(#SVGID_77_);}
	.st244{fill:url(#SVGID_78_);}
	.st245{fill:url(#SVGID_79_);}
	.st246{fill:url(#SVGID_80_);}
	.st247{fill:url(#SVGID_81_);}
	.st248{fill:url(#SVGID_82_);}
	.st249{fill:url(#SVGID_83_);}
	.st250{fill:url(#SVGID_84_);}
	.st251{fill:url(#SVGID_85_);}
	.st252{fill:url(#SVGID_86_);}
	.st253{fill:url(#SVGID_87_);}
	.st254{fill:url(#SVGID_88_);}
	.st255{fill:url(#SVGID_89_);}
	.st256{fill:url(#SVGID_90_);}
	.st257{fill:url(#SVGID_91_);}
	.st258{fill:#3B3637;}
	.st259{fill:none;stroke:#3B3637;stroke-width:3;stroke-miterlimit:10;}
	.st260{fill:url(#SVGID_92_);}
	.st261{fill:url(#SVGID_93_);}
	.st262{fill:url(#SVGID_96_);}
	.st263{fill:#4171B1;}
	.st264{fill:#EF7641;}
	.st265{fill:#FDC543;}
	.st266{opacity:0.4;fill:#EF7641;}
	.st267{fill:#D9DAEF;}
	.st268{opacity:0.47;fill:#7B769A;}
	.st269{fill:#E83C70;}
	.st270{opacity:0.38;fill:#D9DAEF;}
	.st271{opacity:0.47;fill:#A29FB8;}
	.st272{fill:#78CED3;}
	.st273{fill:#ACE1E4;}
	.st274{fill:#E6E7F4;}
	.st275{fill:#F8C6AF;}
	.st276{fill:#FEE7B0;}
	.st277{fill:#25578E;}
	.st278{fill:none;stroke:#1F1E21;stroke-width:0.8075;stroke-linecap:round;stroke-linejoin:round;}
	.st279{fill:none;stroke:#FF7F0A;stroke-width:3.1395;stroke-linecap:round;stroke-linejoin:round;}
	.st280{fill:none;stroke:#FF590A;stroke-width:2.8549;stroke-linecap:round;stroke-linejoin:round;}
	.st281{fill:none;stroke:#FF7F0A;stroke-width:3.7113;stroke-miterlimit:10;}
	.st282{fill:none;stroke:#FF590A;stroke-width:3.5845;stroke-miterlimit:10;}
	.st283{fill:#FF590A;}
	.st284{fill:#FFE300;}
	.st285{fill:#5BCBEA;}
	.st286{fill:#1A1B25;}
	.st287{fill:#03ADF8;}
	.st288{opacity:0.85;fill:#917F86;}
	.st289{opacity:0.55;fill:#E0DBDD;}
	.st290{fill:#FF0029;}
	.st291{opacity:0.55;fill:#E0DBAC;}
	.st292{fill:#21222C;}
	.st293{fill:#C2C2C5;}
	.st294{fill:#FF1867;}
	.st295{fill:#DCDDEE;stroke:#3F0D0B;stroke-width:1.1154;stroke-linecap:round;stroke-linejoin:round;stroke-miterlimit:10;}
	.st296{fill:#86C8CD;}
	.st297{fill:#5B7976;}
	.st298{fill:#86C8CD;stroke:#3F0D0B;stroke-width:1.1154;stroke-linecap:round;stroke-linejoin:round;stroke-miterlimit:10;}
	.st299{fill:#1F1E21;}
	.st300{fill:#F7E939;}
	.st301{opacity:0.1;clip-path:url(#SVGID_98_);}
	.st302{fill:url(#SVGID_99_);}
	.st303{fill:none;stroke:#FDC543;stroke-linecap:round;stroke-linejoin:round;}
	.st304{fill:#0055B8;}
	.st305{fill:none;stroke:#69A8D9;stroke-width:0.9004;stroke-linecap:round;stroke-linejoin:round;}
	.st306{fill:#ECECED;}
	.st307{fill:none;stroke:#E73F3A;stroke-width:3;stroke-linecap:round;stroke-linejoin:round;}
	.st308{opacity:0.8;clip-path:url(#SVGID_103_);fill:#009CDD;}
	.st309{opacity:0.8;clip-path:url(#SVGID_103_);}
	.st310{fill:url(#SVGID_104_);}
	.st311{fill:url(#SVGID_105_);}
	.st312{fill:url(#SVGID_106_);}
	.st313{fill:url(#SVGID_107_);}
	.st314{fill:url(#SVGID_108_);}
	.st315{fill:url(#SVGID_109_);}
	.st316{fill:url(#SVGID_110_);}
	.st317{fill:url(#SVGID_111_);}
	.st318{fill:url(#SVGID_112_);}
	.st319{fill:url(#SVGID_113_);}
	.st320{fill:url(#SVGID_114_);}
	.st321{fill:url(#SVGID_115_);}
	.st322{fill:url(#SVGID_116_);}
	.st323{fill:url(#SVGID_117_);}
	.st324{fill:url(#SVGID_118_);}
	.st325{fill:url(#SVGID_119_);}
	.st326{fill:url(#SVGID_120_);}
	.st327{fill:url(#SVGID_121_);}
	.st328{fill:url(#SVGID_122_);}
	.st329{fill:url(#SVGID_123_);}
	.st330{fill:url(#SVGID_124_);}
	.st331{fill:url(#SVGID_125_);}
	.st332{fill:url(#SVGID_126_);}
	.st333{fill:url(#SVGID_127_);}
	.st334{fill:url(#SVGID_128_);}
	.st335{fill:none;stroke:#FFFFFF;stroke-width:0.6484;stroke-miterlimit:10;}
	.st336{fill:url(#SVGID_129_);}
	.st337{fill:url(#SVGID_130_);}
	.st338{fill:url(#SVGID_131_);}
	.st339{fill:url(#SVGID_132_);}
	.st340{fill:url(#SVGID_133_);}
	.st341{fill:url(#SVGID_134_);}
	.st342{fill:url(#SVGID_135_);}
	.st343{fill:url(#SVGID_136_);}
	.st344{fill:url(#SVGID_137_);}
	.st345{fill:url(#SVGID_138_);}
	.st346{fill:url(#SVGID_139_);}
	.st347{fill:url(#SVGID_140_);}
	.st348{fill:url(#SVGID_141_);}
	.st349{fill:url(#SVGID_142_);}
	.st350{fill:url(#SVGID_143_);}
	.st351{fill:url(#SVGID_144_);}
	.st352{fill:url(#SVGID_145_);}
	.st353{fill:url(#SVGID_146_);}
	.st354{fill:url(#SVGID_147_);}
	.st355{fill:url(#SVGID_148_);}
	.st356{fill:url(#SVGID_149_);}
	.st357{opacity:0.24;clip-path:url(#SVGID_153_);}
	.st358{fill:#FFFFFF;stroke:#FFFFFF;stroke-miterlimit:10;}
	.st359{fill:#FFFFFF;stroke:#FFFFFF;stroke-width:2.9;stroke-miterlimit:10;}
	.st360{fill-rule:evenodd;clip-rule:evenodd;fill:#FFFFFF;stroke:#FFFFFF;stroke-miterlimit:10;}
	.st361{fill:#FF902C;}
	.st362{fill:none;stroke:#FF902C;stroke-width:3.5508;stroke-linecap:round;stroke-linejoin:round;}
	.st363{fill:none;stroke:#FF902C;stroke-width:3.7456;stroke-linecap:round;stroke-linejoin:round;}
	.st364{opacity:0.5;fill:#FFFFFF;}
	.st365{fill:#798746;}
	.st366{fill:#704A30;}
	.st367{fill:#A7BC77;}
	.st368{fill:#F99F55;}
	.st369{fill:#EF8637;}
	.st370{fill:#FCAC70;}
	.st371{fill:#989CB7;}
	.st372{fill:#4E4F56;}
	.st373{fill:#F0F0F2;}
	.st374{fill:#DEDEE0;}
	.st375{fill:#C6CADB;}
	.st376{opacity:0.6;fill:#F0F0F2;}
	.st377{fill:#B4B9D3;}
	.st378{fill:#CEAE97;}
	.st379{fill:#B79780;}
	.st380{fill:#AF4C4A;}
	.st381{fill:#C16363;}
	.st382{fill:#8090AA;}
	.st383{fill:#CBCBD1;}
	.st384{fill:#FCFCFC;}
	.st385{fill:#D8645B;}
	.st386{fill:#BDBDBD;}
	.st387{fill:#E57873;}
	.st388{fill:#D19A75;}
	.st389{fill:#BC845E;}
	.st390{fill:#DB9E75;}
	.st391{fill:#5F6B89;}
	.st392{clip-path:url(#SVGID_155_);fill:#4E5B75;}
	.st393{fill:#AF4B48;}
	.st394{fill:#BDD381;}
	.st395{opacity:0.24;clip-path:url(#SVGID_157_);}
	.st396{fill:#A9D146;}
	.st397{fill:none;stroke:#99C503;stroke-width:3.5508;stroke-linecap:round;stroke-linejoin:round;}
	.st398{fill:none;stroke:#99C503;stroke-width:3.7456;stroke-linecap:round;stroke-linejoin:round;}
	.st399{fill:#9AE9F4;}
	.st400{fill:none;stroke:#9AE9F4;stroke-width:3.5508;stroke-linecap:round;stroke-linejoin:round;}
	.st401{fill:none;stroke:#9AE9F4;stroke-width:3.7456;stroke-linecap:round;stroke-linejoin:round;}
	.st402{opacity:0.89;}
	.st403{opacity:0.44;fill:url(#SVGID_158_);}
	.st404{opacity:0.19;fill:url(#SVGID_159_);}
	.st405{fill:#80DFE5;}
	.st406{opacity:0.47;fill:#00B1CB;}
	.st407{fill:#1B87A1;}
	.st408{fill:#1D788B;}
	.st409{fill:#185C69;}
	.st410{fill:#0C525E;}
	.st411{opacity:0.24;clip-path:url(#SVGID_161_);}
	.st412{fill:#F2BD00;}
	.st413{fill:none;stroke:#F2BD00;stroke-width:3.5508;stroke-linecap:round;stroke-linejoin:round;}
	.st414{fill:none;stroke:#F2BD00;stroke-width:3.7456;stroke-linecap:round;stroke-linejoin:round;}
	.st415{fill:none;stroke:#003142;stroke-width:2.4444;stroke-miterlimit:10;}
	.st416{fill:#E54654;}
	.st417{fill:#463131;}
	.st418{fill:#FF6800;}
	.st419{clip-path:url(#SVGID_163_);}
	.st420{clip-path:url(#SVGID_167_);}
	.st421{clip-path:url(#SVGID_167_);fill:#009CDD;}
	.st422{clip-path:url(#SVGID_171_);}
	.st423{clip-path:url(#SVGID_175_);fill:none;}
	.st424{clip-path:url(#SVGID_179_);fill:url(#SVGID_180_);}
	.st425{clip-path:url(#SVGID_179_);fill:url(#SVGID_181_);}
	.st426{clip-path:url(#SVGID_179_);fill:#009CDD;}
	.st427{clip-path:url(#SVGID_179_);}
	.st428{fill:url(#SVGID_182_);}
	.st429{fill:url(#SVGID_183_);}
	.st430{fill:url(#SVGID_184_);}
	.st431{fill:url(#SVGID_185_);}
	.st432{fill:url(#SVGID_186_);}
	.st433{fill:url(#SVGID_187_);}
	.st434{fill:url(#SVGID_188_);}
	.st435{fill:url(#SVGID_189_);}
	.st436{fill:url(#SVGID_190_);}
	.st437{fill:url(#SVGID_191_);}
	.st438{fill:url(#SVGID_192_);}
	.st439{fill:url(#SVGID_193_);}
	.st440{fill:url(#SVGID_194_);}
	.st441{fill:url(#SVGID_195_);}
	.st442{fill:url(#SVGID_196_);}
	.st443{fill:url(#SVGID_197_);}
	.st444{fill:url(#SVGID_198_);}
	.st445{fill:url(#SVGID_199_);}
	.st446{fill:url(#SVGID_200_);}
	.st447{fill:url(#SVGID_201_);}
	.st448{fill:url(#SVGID_202_);}
	.st449{fill:url(#SVGID_203_);}
	.st450{fill:url(#SVGID_204_);}
	.st451{fill:url(#SVGID_205_);}
	.st452{fill:url(#SVGID_206_);}
	.st453{fill:url(#SVGID_207_);}
	.st454{fill:url(#SVGID_208_);}
	.st455{fill:url(#SVGID_209_);}
	.st456{fill:url(#SVGID_210_);}
	.st457{fill:url(#SVGID_211_);}
	.st458{fill:url(#SVGID_212_);}
	.st459{fill:url(#SVGID_213_);}
	.st460{fill:url(#SVGID_214_);}
	.st461{fill:url(#SVGID_215_);}
	.st462{fill:url(#SVGID_216_);}
	.st463{fill:url(#SVGID_217_);}
	.st464{fill:url(#SVGID_218_);}
	.st465{fill:url(#SVGID_219_);}
	.st466{fill:url(#SVGID_220_);}
	.st467{fill:url(#SVGID_221_);}
	.st468{fill:url(#SVGID_222_);}
	.st469{fill:url(#SVGID_223_);}
	.st470{fill:url(#SVGID_224_);}
	.st471{clip-path:url(#SVGID_230_);}
	.st472{fill:url(#SVGID_231_);}
	.st473{fill:url(#SVGID_232_);}
	.st474{fill:url(#SVGID_233_);}
	.st475{fill:url(#SVGID_234_);}
	.st476{fill:url(#SVGID_235_);}
	.st477{fill:url(#SVGID_236_);}
	.st478{fill:url(#SVGID_237_);}
	.st479{fill:url(#SVGID_238_);}
	.st480{fill:url(#SVGID_239_);}
	.st481{fill:url(#SVGID_240_);}
	.st482{fill:url(#SVGID_241_);}
	.st483{fill:url(#SVGID_242_);}
	.st484{fill:url(#SVGID_243_);}
	.st485{fill:url(#SVGID_244_);}
	.st486{fill:url(#SVGID_245_);}
	.st487{fill:url(#SVGID_246_);}
	.st488{fill:url(#SVGID_247_);}
	.st489{clip-path:url(#SVGID_230_);fill:url(#SVGID_248_);}
	.st490{fill:url(#SVGID_249_);}
	.st491{fill:url(#SVGID_250_);}
	.st492{fill:url(#SVGID_253_);}
	.st493{fill:url(#SVGID_254_);}
	.st494{opacity:0.24;clip-path:url(#SVGID_256_);}
	.st495{fill:none;stroke:#FFFFFF;stroke-width:1.2589;stroke-linecap:round;stroke-linejoin:round;}
	.st496{clip-path:url(#SVGID_258_);}
	.st497{fill:#E74E1B;}
	.st498{fill:#F2AF8D;}
	.st499{fill:#E42D31;}
	.st500{fill:#2D202A;}
	.st501{fill:#D8B20F;}
	.st502{fill:#F6B87E;}
	.st503{fill:#6EAF9F;}
	.st504{fill:#EE9A79;}
	.st505{fill:#2E1F22;}
	.st506{fill:#C89929;}
	.st507{fill:#E57E66;}
	.st508{fill-rule:evenodd;clip-rule:evenodd;fill:#2D7441;}
	.st509{fill-rule:evenodd;clip-rule:evenodd;fill:#51AE4F;}
	.st510{fill:#333333;}
	.st511{clip-path:url(#SVGID_260_);}
	.st512{fill:none;stroke:#FFFFFF;stroke-width:1.2673;stroke-linecap:round;stroke-linejoin:round;}
	.st513{fill:#F9B818;}
	.st514{fill:#993316;}
	.st515{fill:#EF8615;}
	.st516{fill:#E68888;}
	.st517{fill:#5B1B1A;}
	.st518{fill:#732116;}
	.st519{fill:#493B4B;}
	.st520{clip-path:url(#SVGID_262_);fill:#993316;}
	.st521{clip-path:url(#SVGID_262_);fill:#6EAF9F;}
	.st522{clip-path:url(#SVGID_262_);fill:#2D202A;}
	.st523{clip-path:url(#SVGID_262_);fill:#EF8615;}
	.st524{clip-path:url(#SVGID_262_);fill:#E68888;}
	.st525{clip-path:url(#SVGID_262_);}
	.st526{clip-path:url(#SVGID_262_);fill:#D05B63;}
	.st527{clip-path:url(#SVGID_262_);fill:#2E1F22;}
	.st528{clip-path:url(#SVGID_262_);fill:#732116;}
	.st529{clip-path:url(#SVGID_264_);}
	.st530{fill:none;stroke:#FFFFFF;stroke-width:1.3311;stroke-linecap:round;stroke-linejoin:round;}
	.st531{clip-path:url(#SVGID_264_);fill:#D8B20F;}
	.st532{clip-path:url(#SVGID_264_);fill:#2D202A;}
	.st533{fill:#FCD786;}
	.st534{fill:#E74C4E;}
	.st535{fill:#58897E;}
	.st536{fill:none;stroke:#FFFFFF;stroke-width:1.3396;stroke-linecap:round;stroke-linejoin:round;}
	.st537{clip-path:url(#SVGID_266_);fill:#488AB7;}
	.st538{clip-path:url(#SVGID_266_);}
	.st539{fill:#F29949;}
	.st540{clip-path:url(#SVGID_266_);fill:#993316;}
	.st541{clip-path:url(#SVGID_266_);fill:#EF8615;}
	.st542{clip-path:url(#SVGID_266_);fill:#2D202A;}
	.st543{clip-path:url(#SVGID_266_);fill:#E68888;}
	.st544{clip-path:url(#SVGID_266_);fill:#F29949;}
	.st545{clip-path:url(#SVGID_266_);fill:#7F3F14;}
	.st546{clip-path:url(#SVGID_266_);fill:#D88139;}
	.st547{clip-path:url(#SVGID_266_);fill:#A85822;}
	.st548{clip-path:url(#SVGID_266_);fill:#2E1F22;}
	.st549{clip-path:url(#SVGID_266_);fill:#E28940;}
	.st550{clip-path:url(#SVGID_268_);}
	.st551{clip-path:url(#SVGID_268_);fill:#D8B20F;}
	.st552{clip-path:url(#SVGID_268_);fill:#2D202A;}
	.st553{clip-path:url(#SVGID_270_);fill:#488AB7;}
	.st554{clip-path:url(#SVGID_270_);}
	.st555{clip-path:url(#SVGID_270_);fill:#993316;}
	.st556{clip-path:url(#SVGID_270_);fill:#EF8615;}
	.st557{clip-path:url(#SVGID_270_);fill:#2D202A;}
	.st558{clip-path:url(#SVGID_270_);fill:#E68888;}
	.st559{clip-path:url(#SVGID_270_);fill:#F29949;}
	.st560{clip-path:url(#SVGID_270_);fill:#7F3F14;}
	.st561{clip-path:url(#SVGID_270_);fill:#D88139;}
	.st562{clip-path:url(#SVGID_270_);fill:#A85822;}
	.st563{clip-path:url(#SVGID_270_);fill:#2E1F22;}
	.st564{clip-path:url(#SVGID_270_);fill:#E28940;}
	.st565{opacity:0.5;}
	.st566{fill:#193F5F;}
	.st567{clip-path:url(#SVGID_272_);}
	.st568{fill:url(#SVGID_273_);}
	.st569{fill:url(#SVGID_274_);}
	.st570{fill:url(#SVGID_275_);}
	.st571{fill:url(#SVGID_276_);}
	.st572{fill:url(#SVGID_277_);}
	.st573{fill:url(#SVGID_278_);}
	.st574{fill:url(#SVGID_279_);}
	.st575{fill:url(#SVGID_280_);}
	.st576{fill:url(#SVGID_281_);}
	.st577{fill:url(#SVGID_282_);}
	.st578{fill:url(#SVGID_283_);}
	.st579{fill:url(#SVGID_284_);}
	.st580{fill:url(#SVGID_285_);}
	.st581{fill:url(#SVGID_286_);}
	.st582{fill:url(#SVGID_287_);}
	.st583{fill:url(#SVGID_288_);}
	.st584{fill:url(#SVGID_289_);}
	.st585{fill:url(#SVGID_290_);}
	.st586{fill:url(#SVGID_291_);}
	.st587{fill:url(#SVGID_292_);}
	.st588{fill:url(#SVGID_293_);}
	.st589{fill:url(#SVGID_294_);}
	.st590{fill:url(#SVGID_295_);}
	.st591{fill:url(#SVGID_296_);}
	.st592{fill:url(#SVGID_297_);}
	.st593{fill:url(#SVGID_298_);}
	.st594{fill:url(#SVGID_299_);}
	.st595{fill:url(#SVGID_300_);}
	.st596{fill:url(#SVGID_301_);}
	.st597{fill:url(#SVGID_302_);}
	.st598{fill:url(#SVGID_303_);}
	.st599{fill:url(#SVGID_304_);}
	.st600{fill:url(#SVGID_305_);}
	.st601{fill:url(#SVGID_306_);}
	.st602{fill:url(#SVGID_307_);}
	.st603{fill:url(#SVGID_308_);}
	.st604{fill:url(#SVGID_309_);}
	.st605{fill:url(#SVGID_310_);}
	.st606{fill:url(#SVGID_311_);}
	.st607{fill:url(#SVGID_312_);}
	.st608{fill:url(#SVGID_313_);}
	.st609{fill:url(#SVGID_314_);}
	.st610{fill:url(#SVGID_315_);}
	.st611{fill:url(#SVGID_316_);}
	.st612{fill:url(#SVGID_317_);}
	.st613{fill:url(#SVGID_318_);}
	.st614{fill:url(#SVGID_319_);}
	.st615{fill:url(#SVGID_320_);}
	.st616{fill:url(#SVGID_321_);}
	.st617{fill:url(#SVGID_322_);}
	.st618{fill:url(#SVGID_323_);}
	.st619{fill:url(#SVGID_324_);}
	.st620{fill:url(#SVGID_325_);}
	.st621{fill:url(#SVGID_326_);}
	.st622{fill:url(#SVGID_327_);}
	.st623{fill:url(#SVGID_328_);}
	.st624{opacity:0.24;clip-path:url(#SVGID_330_);}
	.st625{clip-path:url(#SVGID_332_);}
	.st626{clip-path:url(#SVGID_332_);fill:#D8B20F;}
	.st627{clip-path:url(#SVGID_332_);fill:#2D202A;}
	.st628{clip-path:url(#SVGID_334_);fill:#488AB7;}
	.st629{clip-path:url(#SVGID_334_);}
	.st630{clip-path:url(#SVGID_334_);fill:#993316;}
	.st631{clip-path:url(#SVGID_334_);fill:#EF8615;}
	.st632{clip-path:url(#SVGID_334_);fill:#2D202A;}
	.st633{clip-path:url(#SVGID_334_);fill:#E68888;}
	.st634{clip-path:url(#SVGID_334_);fill:#F29949;}
	.st635{clip-path:url(#SVGID_334_);fill:#7F3F14;}
	.st636{clip-path:url(#SVGID_334_);fill:#D88139;}
	.st637{clip-path:url(#SVGID_334_);fill:#A85822;}
	.st638{clip-path:url(#SVGID_334_);fill:#2E1F22;}
	.st639{clip-path:url(#SVGID_334_);fill:#E28940;}
	.st640{clip-path:url(#SVGID_336_);fill:#993316;}
	.st641{clip-path:url(#SVGID_336_);fill:#6EAF9F;}
	.st642{clip-path:url(#SVGID_336_);fill:#2D202A;}
	.st643{clip-path:url(#SVGID_336_);fill:#EF8615;}
	.st644{clip-path:url(#SVGID_336_);fill:#E68888;}
	.st645{clip-path:url(#SVGID_336_);}
	.st646{clip-path:url(#SVGID_336_);fill:#D05B63;}
	.st647{clip-path:url(#SVGID_336_);fill:#2E1F22;}
	.st648{clip-path:url(#SVGID_336_);fill:#732116;}
	.st649{clip-path:url(#SVGID_338_);fill:#993316;}
	.st650{clip-path:url(#SVGID_338_);fill:#6EAF9F;}
	.st651{clip-path:url(#SVGID_338_);fill:#2D202A;}
	.st652{clip-path:url(#SVGID_338_);fill:#EF8615;}
	.st653{clip-path:url(#SVGID_338_);fill:#E68888;}
	.st654{clip-path:url(#SVGID_338_);}
	.st655{clip-path:url(#SVGID_338_);fill:#D05B63;}
	.st656{clip-path:url(#SVGID_338_);fill:#2E1F22;}
	.st657{clip-path:url(#SVGID_338_);fill:#732116;}
	.st658{fill:#D05B63;}
	.st659{fill:#062630;}
	.st660{fill:#2C5E6E;}
	.st661{fill:#FFFFEB;}
	.st662{clip-path:url(#SVGID_340_);}
	.st663{fill:none;stroke:#FFFFFF;stroke-width:3.5508;stroke-linecap:round;stroke-linejoin:round;}
	.st664{fill:none;stroke:#FFFFFF;stroke-width:3.7456;stroke-linecap:round;stroke-linejoin:round;}
	.st665{clip-path:url(#SVGID_342_);}
	.st666{fill:#488AB7;}
	.st667{fill:#F94600;}
	.st668{fill:#053451;}
	.st669{fill:#7F3F14;}
	.st670{fill:#D88139;}
	.st671{fill:#A85822;}
	.st672{fill:#E28940;}
	.st673{clip-path:url(#SVGID_344_);fill:#B0EEE8;}
	.st674{clip-path:url(#SVGID_344_);}
	.st675{fill:#7B809B;}
	.st676{fill:#B2B7CE;}
	.st677{clip-path:url(#SVGID_346_);fill:#4E5B75;}
	.st678{clip-path:url(#SVGID_348_);}
	.st679{clip-path:url(#SVGID_350_);}
	.st680{clip-path:url(#SVGID_352_);fill:#B0EEE8;}
	.st681{clip-path:url(#SVGID_352_);}
	.st682{clip-path:url(#SVGID_354_);}
	.st683{clip-path:url(#SVGID_356_);}
	.st684{opacity:0.24;clip-path:url(#SVGID_358_);}
	.st685{opacity:0.24;clip-path:url(#SVGID_360_);}
	.st686{clip-path:url(#SVGID_362_);}
	.st687{fill:none;stroke:#FFCA55;stroke-width:3;stroke-linecap:round;stroke-linejoin:round;}
	.st688{fill:none;stroke:#57A7FF;stroke-width:3;stroke-linecap:round;stroke-linejoin:round;}
	.st689{clip-path:url(#SVGID_364_);}
	.st690{fill:#721D09;}
	.st691{fill:#6FBC5E;}
	.st692{fill:#823323;}
	.st693{fill:#352E34;}
	.st694{fill:#669B59;}
	.st695{fill:#541B12;}
	.st696{clip-path:url(#SVGID_366_);}
	.st697{clip-path:url(#SVGID_368_);}
	.st698{fill:#69A8D9;}
	.st699{clip-path:url(#SVGID_370_);}
	.st700{clip-path:url(#SVGID_372_);}
	.st701{clip-path:url(#SVGID_374_);}
	.st702{clip-path:url(#SVGID_376_);}
	.st703{clip-path:url(#SVGID_378_);}
	.st704{clip-path:url(#SVGID_380_);}
	.st705{clip-path:url(#SVGID_382_);}
	.st706{clip-path:url(#SVGID_384_);}
	.st707{clip-path:url(#SVGID_386_);}
	.st708{clip-path:url(#SVGID_388_);}
	.st709{fill:none;stroke:#81B11D;stroke-width:2;stroke-linecap:round;stroke-linejoin:round;}
	.st710{fill:none;stroke:#E74C4E;stroke-width:2;stroke-linecap:round;stroke-linejoin:round;}
	.st711{fill:none;stroke:#F9B818;stroke-width:2;stroke-linecap:round;stroke-linejoin:round;}
	.st712{fill:none;stroke:#58897E;stroke-width:2;stroke-linecap:round;stroke-linejoin:round;}
	.st713{fill:none;stroke:#FFFFFF;stroke-miterlimit:10;}
	.st714{fill-rule:evenodd;clip-rule:evenodd;fill:none;stroke:#FFFFFF;stroke-miterlimit:10;}
	.st715{clip-path:url(#SVGID_390_);}
	.st716{fill-rule:evenodd;clip-rule:evenodd;fill:#F09B5C;}
	.st717{fill-rule:evenodd;clip-rule:evenodd;fill:#264F2E;}
	.st718{fill-rule:evenodd;clip-rule:evenodd;fill:#5A2524;}
	.st719{fill:#9E693D;}
	.st720{fill:#F09B5C;}
	.st721{fill:#264F2E;}
	.st722{fill:#51AE4F;}
	.st723{fill:#2D7441;}
	.st724{fill:#5A2524;}
	.st725{clip-path:url(#SVGID_392_);fill:#993316;}
	.st726{clip-path:url(#SVGID_392_);fill:#6EAF9F;}
	.st727{clip-path:url(#SVGID_392_);fill:#2D202A;}
	.st728{clip-path:url(#SVGID_392_);fill:#EF8615;}
	.st729{clip-path:url(#SVGID_392_);fill:#E68888;}
	.st730{clip-path:url(#SVGID_392_);}
	.st731{clip-path:url(#SVGID_392_);fill:#D05B63;}
	.st732{clip-path:url(#SVGID_392_);fill:#2E1F22;}
	.st733{clip-path:url(#SVGID_392_);fill:#732116;}
	.st734{display:none;}
	.st735{display:inline;opacity:0.1;}
	.st736{display:inline;opacity:0.3;}
	.st737{opacity:0.1;}
</style>
<g id="Capa_1">
</g>
<g id="Capa_3">
	<g>
		<g>
			<g>
				<g>
					<polyline class="st495" points="63.8,18.7 81,8.7 50.6,28.3 93.7,3.4 44.4,33.5 99.3,1.7 39.6,37.8 103.5,0.9 35.4,42 107,0.6 
						30.3,47.6 111.1,1 27.2,51.6 113.4,1.8 24.5,55.5 115.2,3.1 22.8,58.4 116.2,4.5 21.4,61.1 116.8,6.1 20.3,64.1 117,8.3 
						19.8,67 128.3,4.4 19.8,69.1 134.3,3 20.3,71 138.5,2.7 21.2,72.5 141.3,3.1 22.8,73.8 143.5,4.2 21.1,77.4 144.9,5.9 15,83.7 
						145.5,8.4 11.2,88.2 145.3,10.8 8.9,91.4 144.6,13 7.1,94.1 154.5,9 5.6,96.7 160.8,7.1 4.3,99.6 165.9,6.3 3.5,102.1 
						169.4,6.3 3.3,104.3 171.9,7 3.5,105.7 173.2,7.7 4.4,107.6 174.6,9.3 6,108.9 175.1,11.2 8,109.7 175.1,13.2 5.5,113.7 
						174.3,16.3 3.3,117.4 173,19.4 2.2,119.6 171.6,21.8 1,123.1 168.6,26.3 0.6,125.4 165.3,30.4 1.1,128 160,36.2 1.8,129.2 
						162.2,36.6 3.3,130.4 165.5,36.7 5.4,131.2 167.8,37.4 8.9,131.4 169.6,38.6 14.2,130.7 170.7,40.4 19.5,129.3 170.9,41.9 
						30.6,124.9 170.8,43.9 33.6,125.1 170.2,46.2 31,128.6 169.2,48.8 28.3,132.8 178.8,45.8 27,135.2 184.5,44.3 25.7,138.6 
						190.3,43.6 25.4,141.5 194,44.1 25.8,143.6 196.1,45.3 27.2,145.6 197.5,47.3 29.4,146.8 197.9,49.5 32,147.2 197.6,51.6 
						34.6,147.7 197,53.9 30.5,152.3 195.6,56.9 27.7,155.6 194.1,59.5 25.2,158.9 192.1,62.5 23,162.1 189.5,66 20.4,166.3 
						184.7,71.4 18.5,169.9 190.2,70.8 17.2,173.6 199.1,68.5 16.5,176.6 204.8,67.8 16.4,178.5 207.9,67.9 16.7,180.2 210.4,68.4 
						17.4,182.1 212.7,69.3 18.5,183.6 214.3,70.5 20.5,185 215.7,72.3 22.2,185.6 216.2,73.7 25.2,186.2 216.4,75.8 27.7,186.2 
						216.4,77.3 32.2,185.9 215.9,79.7 39.7,184.2 214.8,83.1 46.4,182 213.8,85.4 56,178 212.5,87.7 82.5,164.7 210.8,90.6 
						83.8,166.8 207.5,95.4 85.7,168.4 203.7,100.3 85.8,170.2 200.6,103.9 81.5,175.2 199.5,107.1 77.4,180.4 201.5,108.7 
						74.9,184 202.5,110.4 73.4,186.4 202.9,111.6 72,188.9 203.2,113.2 70.2,192.7 203,116.1 69.5,194.8 202.5,118 68.9,197.7 
						201.3,121.2 68.8,199.9 199.9,124.2 68.9,201.4 198.7,126.4 69.6,203.2 196.5,129.9 70.9,204.9 193.5,134.1 72.2,206 
						199.6,132.4 73.9,206.8 204.9,131.2 75.9,207.3 208.2,130.9 78.2,207.6 210.9,131 83.6,207.3 214.2,131.9 88.5,206.4 
						215.6,133 94.3,204.8 216.4,134.3 102.1,202 216.9,135.8 117.3,195.1 217,137.6 116.1,198.2 216.5,140.2 115.6,201.1 
						215.3,143.5 115.7,203.4 213.5,146.9 116.5,205.3 211,150.8 118.4,206.9 207.1,155.6 120.7,207.6 203.4,159.9 124.6,207.9 
						197.6,165.7 129.7,207.2 191,171.8 135.3,205.7 184.2,177.4 149.5,199.8 168.2,189 					"/>
				</g>
			</g>
		</g>
	</g>
	<g>
		<defs>
			<path id="SVGID_391_" d="M216.1,133.5c-2.9-4-11.4-3.3-22.7,1c8.6-11.2,12.1-20.5,8.5-25.4c-0.8-1.2-2-2-3.5-2.6
				c14.4-15.5,21.3-28.9,16.8-35.2c-4-5.5-0.9-50.9-10.9-58.6C178.7-7.2,159.3,6,144.6,13c1.2-3.3,1.3-6-0.1-7.8
				c-3.2-4.5-13.9-2.8-27.6,3.4c0.1-1.9-0.3-3.6-1.2-4.9c-6-8.3-89-24.5-115.2-5.6c-26.2,18.9,17.9,80,19.2,80.5
				C4.4,92.9,0.3,102,4.2,107.5c0.9,1.2,2.3,2,4.1,2.3c-6.7,8.5-9.5,15.5-6.8,19.2c3.7,5.2,11.6,47.5,16.2,53.8
				c6.4,8.9,33.7,0.4,64.4-18.9c0.2,0.9,0.6,1.8,1.1,2.6c0.8,1.2,2,2,3.5,2.6c-14.4,15.5-21.3,28.9-16.8,35.2c5.2,7.2,24,3,47.2-9
				c-2.1,4.4-2.4,7.9-0.8,10.2c5.6,7.8,32.4-2.1,59.9-21.9C203.9,163.6,221.7,141.2,216.1,133.5z"/>
		</defs>
		<clipPath id="SVGID_2_">
			<use xlink:href="#SVGID_391_"  style="overflow:visible;"/>
		</clipPath>
		<path style="clip-path:url(#SVGID_2_);fill:#E68888;" d="M135.7,143.9c0,0,10.2,70.5,5.9,104.9c0,0-60.6,14.3-103.3-21.7
			c0,0,14.3-35.3,28.1-95.4C66.8,131.8,88.9,132.2,135.7,143.9z"/>
		<g style="clip-path:url(#SVGID_2_);">
			<path class="st514" d="M51.1,90.1c0,0,11.2-2,11.2-3.5c0-1.5-9.4-1.2-9.4-1.2s13.7-7.4,12.3-9.3c-1.3-1.9-11.5,2.7-11.5,2.7
				s10.8-10.6,8.6-11c-2.2-0.4-12,7.2-12,7.2s6.8-9.2,3.7-10.3C50.9,63.6,46,76.4,46,76.4s2-7.2-0.9-7.6c-2.8-0.4-3.7,12.9-3.7,12.9
				s-44.8,36.4-4.8,80.6l18-6.8C54.6,155.4,32.9,107.9,51.1,90.1z"/>
		</g>
		<g style="clip-path:url(#SVGID_2_);">
			<path class="st514" d="M190.2,205.7c0,0-3.5,10.8-2.2,11.6c1.3,0.7,5.6-7.7,5.6-7.7s0,15.5,2.3,15.3c2.3-0.3,3.1-11.5,3.1-11.5
				s4.2,14.6,5.5,12.8s-0.7-14-0.7-14s4.8,10.4,7.4,8.1c2.5-2.2-6.4-12.6-6.4-12.6s5.4,5.1,7.1,2.9c1.7-2.3-9.6-9.4-9.6-9.4
				s-0.5-48-64.5-53.3l-6.7,29.9C131,177.9,183.1,181.2,190.2,205.7z"/>
			<path class="st500" d="M216,195.5c0.2,0,0.3,0.1,0.4,0.3c0.1,0.1,1.3,2.9-2.2,5.8c-0.2,0.2-0.6,0.2-0.8-0.1
				c-0.2-0.2-0.2-0.6,0.1-0.8c2.8-2.4,2-4.4,1.9-4.5c-0.1-0.3,0-0.6,0.3-0.7C215.7,195.5,215.9,195.5,216,195.5z"/>
		</g>
		<path style="clip-path:url(#SVGID_2_);fill:#E68888;" d="M82.4,132c0,0-24.9-2.7-36-1c0,0-21.4,13-19.5,22c0,0,5,16.4,43.3,20.8
			C70.2,173.8,85.1,141,82.4,132z"/>
		<path style="clip-path:url(#SVGID_2_);fill:#E68888;" d="M119.3,182.3c0,0,34-0.9,44.5-5c0,0,0.4-18.2-3.4-26.6
			c0,0-35.2-11-42.9-11.5C117.6,139.3,114.7,174.2,119.3,182.3z"/>
		<path style="clip-path:url(#SVGID_2_);fill:#D05B63;" d="M135.3,224.6c0,0-54,8-76.8-28.7l-14.7,30.4c0,0,42.6,30.1,94.5,15.5
			L135.3,224.6z"/>
		<path style="clip-path:url(#SVGID_2_);fill:#2E1F22;" d="M65.2,43.2c0,0,12.6-24.6-1.9-31.6c-14.4-7-14.4,6.6-14.4,6.6
			s5-14.8-9.2-8.7C25.6,15.6,33,23.7,33,23.7s-1.6-16-13.8-2.9s0.3,21.3,0.3,21.3s-6.6-9.7-9.3,6.1C7.5,64,26.7,59,26.7,59
			s-17.5,3.7-1.1,16.8c16.4,13.1,17.1-8.5,17.1-8.5s-12.6,10.6,8.7,11.7c21.3,1.1,14.2-19,14.2-19s4.3,19.9,14.6,2
			S75.8,27.9,65.2,43.2z"/>
		<path style="clip-path:url(#SVGID_2_);fill:#2E1F22;" d="M153.7,53.8c0,0-0.6,27.6,15.4,27.6c16,0,10.1-12.2,10.1-12.2
			s2,15.5,12.1,3.9c10-11.6-0.1-15.7-0.1-15.7s8.4,13.7,13.7-3.4c5.3-17.1-9.5-19.1-9.5-19.1s10.1,5.8,5.7-9.5
			c-4.4-15.4-19.5-2.5-19.5-2.5s14.1-10.9-6.3-15.6c-20.4-4.7-11.7,15.1-11.7,15.1s6.7-15.1-12.9-6.7C130.9,24,146,39,146,39
			s-12.5-16-14,4.6C130.5,64.1,150.8,72.2,153.7,53.8z"/>
		<path style="clip-path:url(#SVGID_2_);fill:#2E1F22;" d="M125.3,30.1c0,0,1.5,5.1-7.9,21.7c-7.7,13.7-36.5,25.7-46.4,21.6
			C66.3,71.4,65.5,15.8,125.3,30.1z"/>
		<path style="clip-path:url(#SVGID_2_);fill:#2D202A;" d="M57.9,166.6c0.2-0.1,0.4-0.3,0.4-0.5c0.4-14.3,10.3-29.4,10.4-29.6
			c0.2-0.3,0.1-0.6-0.2-0.8c-0.3-0.2-0.6-0.1-0.8,0.2c-0.1,0.2-10.1,15.5-10.6,30.1c0,0.3,0.2,0.6,0.5,0.6
			C57.8,166.7,57.9,166.7,57.9,166.6z"/>
		<path style="clip-path:url(#SVGID_2_);fill:#2D202A;" d="M108.3,155.2c6.8-1.9,10.9-6.4,10.9-6.5c0.2-0.2,0.2-0.6,0-0.8
			s-0.6-0.2-0.8,0c-0.1,0.1-8,8.9-20.2,6.6c-12.2-2.3-16-15-16-15.2c-0.1-0.3-0.4-0.5-0.7-0.4c-0.3,0.1-0.5,0.4-0.4,0.7
			c0,0.1,4,13.5,16.9,16C101.8,156.4,105.3,156,108.3,155.2z"/>
		<path style="clip-path:url(#SVGID_2_);fill:#2D202A;" d="M139.1,178c0.3-0.1,0.4-0.3,0.4-0.6c-2.7-23.2-10-34.2-10.1-34.4
			c-0.2-0.3-0.5-0.3-0.8-0.2c-0.3,0.2-0.3,0.5-0.2,0.8c0.1,0.1,7.2,11,9.9,33.9C138.4,177.8,138.7,178,139.1,178
			C139,178,139,178,139.1,178z"/>
		<path style="clip-path:url(#SVGID_2_);fill:#2E1F22;" d="M163.6,65.4c0,0,4-37.9-39.8-51C80,1.3,55.2,27.3,51.4,62.8
			c-4.6,43.2,31.2,66.2,72.5,60S163.6,65.4,163.6,65.4z"/>
		<path style="clip-path:url(#SVGID_2_);fill:#993316;" d="M66.9,65.5c0,0,18.6-45.2,64.9-29.8c29.9,9.9,47.6,64.4,5,88
			C103.6,142.1,54.2,104.4,66.9,65.5z"/>
		<path style="clip-path:url(#SVGID_2_);fill:#993316;" d="M94.4,112.2L89.9,133l-7.5-1c0,0,5.1,20.5,22.6,17.6
			c13.9-2.3,12.5-10.4,12.5-10.4l-7-1.5l-0.6-19.3L94.4,112.2z"/>
		<path style="clip-path:url(#SVGID_2_);fill:#732116;" d="M105,92.3c1.5,5.2-1.4,10.7-6.7,12.3c-5.2,1.5-10.7-1.4-12.3-6.7
			c-1.5-5.2,1.4-10.7,6.7-12.3C97.9,84.1,103.4,87,105,92.3z"/>
		<path style="clip-path:url(#SVGID_2_);fill:#732116;" d="M155.7,92.8c1.5,5.2-1.4,10.7-6.7,12.3c-5.2,1.5-10.7-1.4-12.3-6.7
			c-1.5-5.2,1.4-10.7,6.7-12.3C148.6,84.6,154.1,87.6,155.7,92.8z"/>
		<path style="clip-path:url(#SVGID_2_);fill:#2E1F22;" d="M111.1,78.2c0.8,2.6-0.7,5.4-3.4,6.2c-2.6,0.8-5.4-0.7-6.2-3.4
			c-0.8-2.6,0.7-5.4,3.4-6.2C107.6,74.1,110.4,75.6,111.1,78.2z"/>
		<path style="clip-path:url(#SVGID_2_);fill:#2E1F22;" d="M146.1,77.7c0.8,2.6-0.7,5.4-3.4,6.2c-2.6,0.8-5.4-0.7-6.2-3.4
			c-0.8-2.6,0.7-5.4,3.4-6.2C142.5,73.6,145.3,75.1,146.1,77.7z"/>
		<path style="clip-path:url(#SVGID_2_);fill:#732116;" d="M110.2,127.9c0,0-10.4-2.1-18.1-6.7l-1.3,7.8l19.6,4.4L110.2,127.9z"/>
		<path style="clip-path:url(#SVGID_2_);fill:#993316;" d="M79.1,97.9c0,0-9.4-20.5-18-7.2c-10.7,16.5,7,23,15.1,21.7
			C84.3,111.2,79.1,97.9,79.1,97.9z"/>
		<path style="clip-path:url(#SVGID_2_);fill:#2D202A;" d="M126.2,96.6c0.1,0,0.2-0.1,0.3-0.2l7.3-7.8c0.2-0.2,0.2-0.4,0.1-0.6
			c-0.1-0.2-0.4-0.3-0.6-0.3l-7.8,1.4l-0.9-8.9c0-0.3-0.3-0.5-0.6-0.5c-0.3,0-0.5,0.3-0.5,0.6l1,9.5c0,0.2,0.1,0.3,0.2,0.4
			c0.1,0.1,0.3,0.1,0.4,0.1l6.7-1.2l-6.2,6.6c-0.2,0.2-0.2,0.6,0,0.8C125.8,96.6,126,96.6,126.2,96.6z"/>
		<path style="clip-path:url(#SVGID_2_);fill:#2E1F22;" d="M79.7,60.8c0,0-9,14.5-6.3,35C74,101.1,53.7,70.3,60,61.5
			C65.7,53.6,73.8,45.7,79.7,60.8z"/>
		<path style="clip-path:url(#SVGID_2_);fill:#2E1F22;" d="M122.8,25c0,0,1.5,5.1-7.9,21.7c-7.7,13.7-36.5,25.7-46.4,21.6
			C63.8,66.2,63,10.7,122.8,25z"/>
		<path style="clip-path:url(#SVGID_2_);fill:#2E1F22;" d="M122.8,25c0,0-4.2,2.6,2,16.4c6.3,13.8,29.1,29.1,36.5,28.2
			C168.8,68.7,162.6,21.5,122.8,25z"/>
		<path style="clip-path:url(#SVGID_2_);fill:#2D202A;" d="M75.8,105.3c0.1,0,0.1-0.1,0.2-0.1c0.2-0.2,0.3-0.5,0.1-0.8
			c-8.3-10.8-12.4-8.8-12.8-8.6c-0.3,0.2-0.4,0.5-0.2,0.8c0.2,0.3,0.5,0.3,0.7,0.2c0.1,0,3.7-1.7,11.4,8.3
			C75.3,105.3,75.6,105.3,75.8,105.3z"/>
		<path style="clip-path:url(#SVGID_2_);fill:#2D202A;" d="M126.4,115.4c-0.3,0.1-0.7,0.3-1,0.4c-1.5,0.4-2.9,0.2-4.3-0.6
			c-4.1-2.4-5.9-9.5-6-9.8c-0.1-0.3,0.1-0.6,0.4-0.7c0.3-0.1,0.6,0.1,0.7,0.4c0,0.1,1.8,7,5.5,9.2c1.1,0.6,2.2,0.8,3.4,0.4
			c6.2-1.7,7.6-9.5,7.6-9.6c0-0.3,0.3-0.5,0.6-0.4c0.3,0,0.5,0.3,0.4,0.6C133.7,105.6,132.4,113,126.4,115.4z"/>
	</g>
</g>
<g id="Capa_2" class="st734">
</g>
<g id="Capa_4">
</g>
</svg>
