<?xml version="1.0" encoding="utf-8"?>
<!-- Generator: Adobe Illustrator 22.0.0, SVG Export Plug-In . SVG Version: 6.00 Build 0)  -->
<svg version="1.1" id="Capa_1" xmlns="http://www.w3.org/2000/svg" xmlns:xlink="http://www.w3.org/1999/xlink" x="0px" y="0px"
	 viewBox="0 0 95 101" style="enable-background:new 0 0 95 101;" xml:space="preserve">
<style type="text/css">
	.st0{fill:#FF1867;}
	.st1{fill:#DCDDEE;stroke:#3F0D0B;stroke-width:1.1154;stroke-linecap:round;stroke-linejoin:round;stroke-miterlimit:10;}
	.st2{fill:#3F0D0B;}
	.st3{fill:#86C8CD;}
	.st4{fill:#5B7976;}
	.st5{opacity:0.4;fill:#FFFFFF;}
	.st6{fill:#86C8CD;stroke:#3F0D0B;stroke-width:1.1154;stroke-linecap:round;stroke-linejoin:round;stroke-miterlimit:10;}
	.st7{fill:#5BCBEA;}
	.st8{fill:#1A1B25;}
	.st9{fill:#03ADF8;}
	.st10{opacity:0.85;fill:#917F86;}
	.st11{opacity:0.55;fill:#E0DBDD;}
	.st12{fill:#FF0029;}
	.st13{opacity:0.55;fill:#E0DBAC;}
	.st14{fill:#21222C;}
	.st15{fill:#C2C2C5;}
	.st16{fill:#FCD212;}
	.st17{fill-rule:evenodd;clip-rule:evenodd;fill:#220501;}
	.st18{fill-rule:evenodd;clip-rule:evenodd;fill:#FF989D;}
	.st19{fill-rule:evenodd;clip-rule:evenodd;fill:#87432A;}
	.st20{fill-rule:evenodd;clip-rule:evenodd;fill:#E9521A;}
	.st21{fill-rule:evenodd;clip-rule:evenodd;fill:#5D1913;}
	.st22{fill-rule:evenodd;clip-rule:evenodd;fill:#FFFFFF;}
	.st23{fill-rule:evenodd;clip-rule:evenodd;fill:#7F252C;}
	.st24{fill:#FFFFFF;}
	.st25{fill-rule:evenodd;clip-rule:evenodd;fill:#2B2626;}
	.st26{fill-rule:evenodd;clip-rule:evenodd;fill:#696969;}
	.st27{fill-rule:evenodd;clip-rule:evenodd;fill:#8C8C8B;}
	.st28{fill-rule:evenodd;clip-rule:evenodd;fill:#3D4D70;}
</style>
<g>
	<path class="st16" d="M94,54.4c-1.7-1.4-5.2-0.2-9.6,2.8c2.5-5.7,3-10,0.9-11.7c-0.5-0.4-1.1-0.6-1.8-0.7c4.5-8.1,6-14.6,3.4-16.8
		c-2.3-1.9-7.3-0.1-13.5,4.3c3.7-6.4,5-11.5,3.1-13.2c-1.9-1.6-6.3,0.3-11.6,4.6c0.5-2.2,0.4-3.9-0.6-4.7c-1-0.8-2.6-0.7-4.7,0.2
		c3.9-6.6,5.3-11.9,3.3-13.6c-1.9-1.6-6.7,0.5-12.2,5c0.2-1.5-0.1-2.7-0.9-3.3c-1.9-1.6-6.2,0.3-11.4,4.4c-0.2-0.8-0.5-1.5-1-2
		C34,6.9,23.7,13.4,14.6,24.3C5.4,35.1,0.8,46.3,4.2,49.2c0.4,0.4,1,0.6,1.6,0.7c-5,7.7-7.2,14.3-4.9,16.2c0.5,0.4,1.2,0.6,2,0.5
		c-1.9,4.3-2.4,7.6-0.9,8.9c2.1,1.8,7.7-1,13.9-6.5c-2.6,5.2-3.4,9.2-1.7,10.6c0.8,0.7,2.2,0.7,4,0.1c-4.6,8.2-6.2,14.8-3.5,17
		c3.7,3.1,14.4-3.4,25.5-15c0.2,0.4,0.4,0.7,0.8,1c0.5,0.4,1.1,0.6,1.8,0.7c-4.5,8.1-6,14.6-3.4,16.8c3,2.5,10.5-1.3,19.2-8.9
		c-0.4,2.1-0.2,3.6,0.8,4.4c3.2,2.7,13.6-4.3,23.2-15.8C92.1,68.6,97.2,57.1,94,54.4z"/>
	<g>
		<path class="st17" d="M8.2,51.9c3.8-10.6,9.5-31.8,14.3-37.9c1.2-1.5,2.9-2.7,4.8-3.2c0,0,0.1-0.1,0.1-0.1
			c0.1-0.1,0.1-0.2,0.2-0.3c-0.1-0.2-0.1-0.3,0-0.5c0.3-0.8,0.6-1.6,1-2.3c0.1-0.3,0.3-0.6,0.4-0.8c0.3-0.9,0.7-1.8,1-2.7
			C32.1-5,49.3,3.7,54,5.8c8.1,3.6,16.4,5.3,23.2,11.3c0.6,0.5,1.1,1.1,1.6,1.6c0.4,0.4,0.8,0.8,1.2,1.3c0,0,0,0,0,0c0,0,0,0,0,0.1
			c0.3,0.5,0.5,0.9,0.7,1.4c0.9,1.1,1.1,2.3,0.8,3.5c0.1,5.1-1.4,11.2-3.7,15.8c-0.3,1.4-0.8,2.9-1.5,4.2c-0.1,0.5-0.3,0.9-0.4,1.3
			c0,0.1-0.1,0.2-0.1,0.4c-0.1,0.9-0.4,1.8-0.7,2.6c-0.2,0.5-0.4,1.5-0.9,2.1c-0.3,0.7-0.6,1.4-1,2.1c-1.7,5.5-3.8,10.9-6.1,16.1
			c-2.4,5.3-5.2,10-10.9,12c-2,0.7-4.3,1.2-6.5,1.4c-1.1,0.1-2.6,0.3-3.6-0.3c-0.4,0-0.8,0.1-1.2,0.1c-0.1,0-0.3,0-0.4,0
			c-0.1,0.1-0.1,0.2-0.2,0.3c-0.2,0.3-0.8,0.1-0.6-0.3c0,0,0,0,0,0c-6.7-0.5-14.7-5.8-20.5-9.3C18,71.1,12.4,68.8,9.1,64
			C6.5,60.3,6.7,56,8.2,51.9z"/>
		<path class="st18" d="M10.9,63.9L10.9,63.9c1.5,2.1,3.7,3.6,5.9,4.9c-0.1-0.1-0.3-0.3-0.4-0.4c-0.2-0.3,0.2-0.5,0.4-0.3
			c0.5,0.7,1.1,1.2,1.8,1.7c0.3,0.1,0.5,0.3,0.8,0.4c0.3,0.1,1.4,0.7,2.8,1.5c0.7,0.3,1.3,0.6,1.9,0.9c5.3,2.7,10,5.8,15.8,7.4
			c1.7,0.4,3.3,0.9,5,0.9c1-2.1,1.9-4.3,2.9-6.4c1.4-2.9,2.8-5.7,4.3-8.5c0.1-0.1,0.3,0,0.2,0.1c-0.9,3-2.8,5.8-4.1,8.6
			c-0.9,2-1.6,4.2-2.6,6.2c0.5,0,0.9-0.1,1.4-0.2c0.1-0.3,0.2-0.5,0.3-0.7c0.4-1,0.9-2,1.3-3c1.2-2.5,2.5-5,3.6-7.6
			c2.1-4.9,4.7-9.6,6.3-14.6c0.1-0.2,0.3-0.1,0.3,0.1c-1.1,5.1-4,9.6-5.9,14.4c-1,2.5-2.2,4.9-3.3,7.3c-0.5,1-0.9,2-1.4,3
			c-0.1,0.2-0.2,0.5-0.3,0.8c0.2-0.1,0.3-0.1,0.5-0.2c2.6-1.2,4.2-4.3,5.5-6.7c1.2-2.3,1.9-4.9,2.9-7.3c0.9-2,1.8-4,2.7-6
			c2.7-6.2,5.3-12.6,7-19.2c0.9-3.5,2.1-8.4-0.1-11.2c-0.7-0.4-1.4-1-1.9-1.5c-8.4-4-17.4-7.5-26-11.7c-2.3-1.1-4.6-2.2-6.9-3.1
			c-1.4-0.6-3-1.1-4.5-0.4c-1.5,0.8-2.6,2.7-3.5,4c-8.3,12.7-8.1,21.3-13.2,33.6C8.5,55.1,7.7,59.7,10.9,63.9z"/>
		<path class="st19" d="M53.5,79.9L53.5,79.9c0.5,0.1,1.1,0.1,1.6,0.2c0.6-0.2,1.2-0.3,1.7-0.6c1.4-0.6,2.7-1.4,4.2-1.9
			c1.6-1.5,2.8-3.5,3.9-5.5c0-0.1,0.1-0.2,0.1-0.2c0.1-0.2,0.2-0.5,0.3-0.7c-0.4,0.2-0.8,0.3-1.2,0.4c0-0.1,0.1-0.1,0.1-0.2
			c-1.1,0.5-2.2,0.8-3.3,0.9c-1.2,0.1-2.8-0.4-3.5-1.4c-0.5,1.3-1,2.5-1.6,3.7c-0.6,1.3-1.3,2.5-2.1,3.6
			C53.5,78.6,53.5,79.3,53.5,79.9z"/>
		<path class="st20" d="M65.9,68.3L65.9,68.3c0.8-2.3,1.7-4.6,2.6-6.9c-1.2,0.7-3.3,1-4.1,1c-0.8,0.1-2.2-0.1-3.3-0.6
			c-0.3,0.6-0.6,1.2-0.9,1.7c-0.1,0.3-0.2,0.5-0.4,0.8c-0.3,0.6-0.6,1.1-0.8,1.7c0,0,0,0.1-0.1,0.1c-0.1,0.1-0.1,0.2-0.2,0.4
			c-0.2,0.6-0.4,1.2-0.7,1.7c-0.1,0.3-0.3,0.7-0.4,1c0.6,0.4,1,1,1.7,1.3c0.8,0.3,1.7,0.2,2.5,0.1c1.2-0.2,2.4-0.8,3.6-1
			C65.7,69.3,65.8,68.8,65.9,68.3z"/>
		<path class="st21" d="M68.3,64L68.3,64c0.6-1.5,1.2-3,1.7-4.5c-0.1,0.3-0.3,0.7-0.4,1C69.2,61.7,68.7,62.9,68.3,64
			C68.3,64,68.3,64,68.3,64z"/>
		<path class="st19" d="M74.3,44.9L74.3,44.9c0.7-2,1.4-3.9,2-5.8c0.1-1,0.4-2,0.8-3c0-0.1,0-0.2,0.1-0.3c0.2-0.8,1.2-4.8,0.3-5.8
			c-0.5,0.4-1,0.6-1.5,0.8c-2.2,0.9-4.6,0.9-6.8,0.2c-0.2,0-0.3-0.1-0.5-0.2c0.5,2,0.5,4.4,0.4,6.2c-0.5,6.2-2.9,12.4-5.3,18.2
			c-0.1,0.1-0.3,0.3-0.3,0.5c-0.5,1.3-1,2.6-1.6,3.9c0.2,0.4,0.3,0.7,0.8,0.9c0.8,0.3,1.8,0.2,2.6,0.1c0.7-0.1,1.7-0.5,2.6-0.6
			c0-0.1,0.1-0.2,0.1-0.3c0.5-0.1,1-0.3,1.5-0.6C71.2,54.5,72.7,49.7,74.3,44.9z"/>
		<path class="st22" d="M78.6,26L78.6,26C78.6,26,78.6,26,78.6,26c0.2-0.6,0.2-1.1,0.2-1.6c0-0.1,0-0.2,0-0.2
			c-1.5-1.5-3.5-2.7-4.8-3.6c-2.9-1.9-6-3.4-9.1-5C57,11.4,49,6.7,40.1,5.3c0.1,0.4,0,0.8-0.3,1.3c12.1,4.6,24,10.2,34.9,17.3
			c0.5,0.3,0,1-0.4,0.7C62.6,18.9,51.7,10.9,39,7.7c-0.5,0.5-1,1-1.5,1.3c4.3,1.7,8.6,3.6,12.8,5.5c4.6,2.1,9,4.4,12.8,7.5
			c0.2,0.1-0.1,0.4-0.2,0.3c-4.1-2.8-8.6-5.1-13.2-7.2c-4.3-1.9-8.8-3.5-13-5.6c0,0-0.1,0-0.1,0c0,0,0,0,0,0c-0.5,0.4-1,0.8-1.5,1.3
			c-0.3,0.3-0.5,0.5-0.8,0.8c0,0.1-0.1,0.2-0.1,0.3c-0.1,0.2-0.2,0.3-0.4,0.3c0,0,0,0,0,0c0.1,0.1,0.3,0.1,0.4,0.2
			c5.1,2.2,9.9,4.9,14.9,7.2c2.3,1,4.6,2,7,3.1c1.6-0.1,8.7,3.3,10.3,4.5c0.3,0.2,0.5,0.4,0.8,0.6c0.1,0.1,0.2,0.1,0.3,0.2
			c0.4,0.2,0.7,0.4,1.1,0.6c0.6,0.2,1.2,0.4,1.8,0.5c0.4,0.1,0.9,0.1,1.3,0.1c0.4-0.1,0.9-0.1,1.3-0.1c0.7-0.1,1.4-0.1,2.1-0.2
			c0,0,0.1,0,0.1-0.1c0.7-0.3,1.4-0.6,2.1-1c0,0,0.1,0,0.1,0c0.3-0.2,0.5-0.3,0.7-0.5c0-0.1,0.1-0.1,0.1-0.2
			C78.3,26.8,78.5,26.4,78.6,26z"/>
		<path class="st21" d="M76.9,19.8L76.9,19.8c0,0,0-0.1,0-0.1c0,0,0,0,0,0c-0.1,0-0.2,0-0.3,0c0,0,0,0,0,0c0,0,0.1,0.1,0.1,0.1
			c0,0,0,0.1,0,0.1c0,0,0.1,0.1,0.1,0.1c0.1,0.1,0.2,0.2,0.3,0.3C77.1,20.1,77,20,76.9,19.8z"/>
		<path class="st23" d="M74.6,17.1L74.6,17.1C74.6,17,74.6,17,74.6,17.1c-0.1-0.1-0.1-0.1-0.1-0.1c-0.1-0.1-0.1-0.2,0-0.2
			c0,0-0.1,0-0.1-0.1c-0.5-0.2-2.5-1-2.7-1.2C65,12.2,62.5,11,54.5,7.6c-4.1-1.7-21.9-11-23-2.3c0,0.3-0.2,0.4-0.3,0.6
			c-0.4,0.8-0.8,1.8-0.9,2.7c0,0,0,0,0,0.1c0,0.2,0,0.3,0.1,0.4c0.1,0.1,0.1,0.2,0,0.3c0,0,0,0.1,0,0.1c0.4-1,1-1.9,1.4-2.8
			c0.6-1.3,1.1-2.6,1.8-3.8c0.1-0.1,0.4,0,0.3,0.1c-0.6,1.3-1.1,2.5-1.7,3.8c-0.4,1-0.9,2.1-1.6,2.9c0.2,0,0.3,0,0.5,0
			c0,0,0,0,0.1,0c0.7-1.1,1.5-2.1,2.1-3.3c0.1-0.1,0.3,0,0.2,0.1c-0.5,1.1-1.1,2.3-1.8,3.2c0.2,0,0.3,0,0.5,0
			c1.9-0.6,3.9-1.4,5.2-2.4c0.2-0.1,0.3-0.3,0.5-0.4c0.1-0.1,0.1-0.1,0.1-0.2c0.1-0.2,0.3-0.5,0.3-0.7c0-0.1,0.1-0.1,0.1-0.2
			c0.1,0,0.1,0,0.2,0.1c0-0.2,0-0.5-0.1-0.7c0,0,0,0,0,0c0,0,0-0.1,0-0.1c0-0.1,0-0.2,0-0.2c-0.4-0.4-0.3-1.3,0.4-1.2
			c9.9,1.1,21.5,8.2,31.5,12.5c0.6,0.2,1.3,0.4,1.9,0.7c0.3,0.1,0.7,0.2,1,0.4c0.4,0,0.7,0.2,1.1,0.4c0.1,0,0.2,0.1,0.3,0.1
			c0.2-0.1,0.3-0.3,0.4-0.6C74.7,17.1,74.7,17.1,74.6,17.1z"/>
		<path class="st21" d="M34.2,37.7c1.9,1.4,4,2.5,6.2,3.5c0.1,0.1,0,0.3-0.1,0.2c0,0-0.1,0-0.1,0c0.9,0.5,1.9,0.9,2.8,1.3
			c1.1,0.5,2.5,1.1,4,1.5c0.3-0.1,0.7-0.1,1-0.1c0.4-0.1,0.7-0.3,1.1-0.4c0,0,0,0,0.1,0c2.3-1,4-4.5,4.3-6.7c0-0.1,0-0.2,0-0.3
			c0,0,0-0.1,0-0.1c0-0.1,0-0.1,0-0.2c0-0.2,0.3-0.2,0.3,0c0,0.1,0,0.1,0,0.2c0,0,0,0.1,0,0.1c0.1,2.9-1.1,6.1-3.9,7.5
			c-0.3,0.2-0.6,0.3-0.9,0.4c0.3,0,0.5,0,0.8,0c0.1-0.1,0.2-0.2,0.4-0.2c0.7,0,1.3-0.3,1.8-0.6c1.6-1.2,2.6-3.2,3.1-5.1
			c1.9-6.7-4.9-8.6-9.4-10.3c-0.2-0.1-0.3-0.1-0.5-0.2c0,0,0,0,0-0.1c-3.5-1.1-6.7-3.2-10.2-4.2C32.5,23.4,26.1,32,34.2,37.7z"/>
		<path class="st20" d="M33.8,23c0.7,0,1.4,0.3,2,0.5c1.1,0.4,2.1,0.9,3.1,1.3c2,0.9,4,1.8,6,2.7c0,0,0,0,0,0
			c0.3,0.1,0.6,0.2,0.9,0.4c2.7,1,9.6,3.2,10.3,6.2c0.1,0.1,0.1,0.2,0.2,0.3c0.6,1.4,0.5,2.7,0.2,4.1c-0.3,1.5-0.8,3.1-1.7,4.4
			c-0.4,0.6-1.4,1.8-2.4,1.8c-0.4,0.2-0.9,0.4-1.5,0.5c-0.4,0.1-0.8,0.1-1.2,0.1c-0.3,0.1-0.7,0.1-1,0c-0.1,0-0.1,0-0.1-0.1
			c-0.4,0-0.8-0.1-1.2-0.2c-0.1,0-0.2,0.1-0.4,0.1c-0.2,0-0.4-0.1-0.4-0.2c-2.5-0.6-5-1.9-7.1-3c-2.5-1.2-4.9-2.6-7.4-3.9
			C24.4,33.9,30.1,23.1,33.8,23z"/>
		<g>
			<path class="st17" d="M8.2,51.9c3.8-10.6,9.5-31.8,14.3-37.9c1.2-1.5,2.9-2.7,4.8-3.2c0,0,0.1-0.1,0.1-0.1
				c0.1-0.1,0.1-0.2,0.2-0.3c-0.1-0.2-0.1-0.3,0-0.5c0.3-0.8,0.6-1.6,1-2.3c0.1-0.3,0.3-0.6,0.4-0.8c0.3-0.9,0.7-1.8,1-2.7
				C32.1-5,49.3,3.7,54,5.8c8.1,3.6,16.4,5.3,23.2,11.3c0.6,0.5,1.1,1.1,1.6,1.6c0.4,0.4,0.8,0.8,1.2,1.3c0,0,0,0,0,0c0,0,0,0,0,0.1
				c0.3,0.5,0.5,0.9,0.7,1.4c0.9,1.1,1.1,2.3,0.8,3.5c0.1,5.1-1.4,11.2-3.7,15.8c-0.3,1.4-0.8,2.9-1.5,4.2c-0.1,0.5-0.3,0.9-0.4,1.3
				c0,0.1-0.1,0.2-0.1,0.4c-0.1,0.9-0.4,1.8-0.7,2.6c-0.2,0.5-0.4,1.5-0.9,2.1c-0.3,0.7-0.6,1.4-1,2.1c-1.7,5.5-3.8,10.9-6.1,16.1
				c-2.4,5.3-5.2,10-10.9,12c-2,0.7-4.3,1.2-6.5,1.4c-1.1,0.1-2.6,0.3-3.6-0.3c-0.4,0-0.8,0.1-1.2,0.1c-0.1,0-0.3,0-0.4,0
				c-0.1,0.1-0.1,0.2-0.2,0.3c-0.2,0.3-0.8,0.1-0.6-0.3c0,0,0,0,0,0c-6.7-0.5-14.7-5.8-20.5-9.3C18,71.1,12.4,68.8,9.1,64
				C6.5,60.3,6.7,56,8.2,51.9L8.2,51.9z M74.6,17.1L74.6,17.1C74.6,17,74.6,17,74.6,17.1c-0.1-0.1-0.1-0.1-0.1-0.1
				c-0.1-0.1-0.1-0.2,0-0.2c0,0-0.1,0-0.1-0.1c-0.5-0.2-2.5-1-2.7-1.2C65,12.2,62.5,11,54.5,7.6c-4.1-1.7-21.9-11-23-2.3
				c0,0.3-0.2,0.4-0.3,0.6c-0.4,0.8-0.8,1.8-0.9,2.7c0,0,0,0,0,0.1c0,0.2,0,0.3,0.1,0.4c0.1,0.1,0.1,0.2,0,0.3c0,0,0,0.1,0,0.1
				c0.4-1,1-1.9,1.4-2.8c0.6-1.3,1.1-2.6,1.8-3.8c0.1-0.1,0.4,0,0.3,0.1c-0.6,1.3-1.1,2.5-1.7,3.8c-0.4,1-0.9,2.1-1.6,2.9
				c0.2,0,0.3,0,0.5,0c0,0,0,0,0.1,0c0.7-1.1,1.5-2.1,2.1-3.3c0.1-0.1,0.3,0,0.2,0.1c-0.5,1.1-1.1,2.3-1.8,3.2c0.2,0,0.3,0,0.5,0
				c1.9-0.6,3.9-1.4,5.2-2.4c0.2-0.1,0.3-0.3,0.5-0.4c0-0.1,0.1-0.1,0.1-0.2c0.1-0.2,0.3-0.5,0.3-0.7c0-0.1,0.1-0.1,0.1-0.2
				c0.1,0,0.1,0,0.2,0.1c0-0.2,0-0.5-0.1-0.7c0,0,0,0,0,0c0,0,0-0.1,0-0.1c0-0.1,0-0.2,0-0.2c-0.4-0.4-0.3-1.3,0.4-1.2
				c9.9,1.1,21.5,8.2,31.5,12.5c0.6,0.2,1.3,0.4,1.9,0.7c0.3,0.1,0.7,0.2,1,0.4c0.4,0,0.7,0.2,1.1,0.4c0.1,0,0.2,0.1,0.3,0.1
				c0.2-0.1,0.3-0.3,0.4-0.6C74.7,17.1,74.7,17.1,74.6,17.1L74.6,17.1z M76.9,19.8L76.9,19.8c0,0,0-0.1,0-0.1c0,0,0,0,0,0
				c-0.1,0-0.2,0-0.3,0c0,0,0,0,0,0c0,0,0.1,0.1,0.1,0.1c0,0,0,0.1,0,0.1c0,0,0.1,0.1,0.1,0.1c0.1,0.1,0.2,0.2,0.3,0.3
				C77.1,20.1,77,20,76.9,19.8L76.9,19.8z M78.6,26L78.6,26C78.6,26,78.6,26,78.6,26c0.2-0.6,0.2-1.1,0.2-1.6c0-0.1,0-0.2,0-0.2
				c-1.5-1.5-3.5-2.7-4.8-3.6c-2.9-1.9-6-3.4-9.1-5C57,11.4,49,6.7,40.1,5.3c0.1,0.4,0,0.8-0.3,1.3c12.1,4.6,24,10.2,34.9,17.3
				c0.5,0.3,0,1-0.4,0.7C62.6,18.9,51.7,10.9,39,7.7c-0.5,0.5-1,1-1.5,1.3c4.3,1.7,8.6,3.6,12.8,5.5c4.6,2.1,9,4.4,12.8,7.5
				c0.2,0.1-0.1,0.4-0.2,0.3c-4.1-2.8-8.6-5.1-13.2-7.2c-4.3-1.9-8.8-3.5-13-5.6c0,0-0.1,0-0.1,0c0,0,0,0,0,0
				c-0.5,0.4-1,0.8-1.5,1.3c-0.3,0.3-0.5,0.5-0.8,0.8c0,0.1-0.1,0.2-0.1,0.3c-0.1,0.2-0.2,0.3-0.4,0.3c0,0,0,0,0,0
				c0.1,0.1,0.3,0.1,0.4,0.2c5.1,2.2,9.9,4.9,14.9,7.2c2.3,1,4.6,2,7,3.1c1.6-0.1,8.7,3.3,10.3,4.5c0.3,0.2,0.5,0.4,0.8,0.6
				c0.1,0.1,0.2,0.1,0.3,0.2c0.4,0.2,0.7,0.4,1.1,0.6c0.6,0.2,1.2,0.4,1.8,0.5c0.4,0.1,0.9,0.1,1.3,0.1c0.4-0.1,0.9-0.1,1.3-0.1
				c0.7-0.1,1.4-0.1,2.1-0.2c0,0,0.1,0,0.1-0.1c0.7-0.3,1.4-0.6,2.1-1c0,0,0.1,0,0.1,0c0.3-0.2,0.5-0.3,0.7-0.5
				c0-0.1,0.1-0.1,0.1-0.2C78.3,26.8,78.5,26.4,78.6,26L78.6,26z M74.3,44.9L74.3,44.9c0.7-2,1.4-3.9,2-5.8c0.1-1,0.4-2,0.8-3
				c0-0.1,0-0.2,0.1-0.3c0.2-0.8,1.2-4.8,0.3-5.8c-0.5,0.4-1,0.6-1.5,0.8c-2.2,0.9-4.6,0.9-6.8,0.2c-0.2,0-0.3-0.1-0.5-0.2
				c0.5,2,0.5,4.4,0.4,6.2c-0.5,6.2-2.9,12.4-5.3,18.2c-0.1,0.1-0.3,0.3-0.3,0.5c-0.5,1.3-1,2.6-1.6,3.9c0.2,0.4,0.3,0.7,0.8,0.9
				c0.8,0.3,1.8,0.2,2.6,0.1c0.7-0.1,1.7-0.5,2.6-0.6c0-0.1,0.1-0.2,0.1-0.3c0.5-0.1,1-0.3,1.5-0.6C71.2,54.5,72.7,49.7,74.3,44.9
				L74.3,44.9z M68.3,64L68.3,64c0.6-1.5,1.2-3,1.7-4.5c-0.1,0.3-0.3,0.7-0.4,1C69.2,61.7,68.7,62.9,68.3,64
				C68.3,64,68.3,64,68.3,64L68.3,64z M65.9,68.3L65.9,68.3c0.8-2.3,1.7-4.6,2.6-6.9c-1.2,0.7-3.3,1-4.1,1c-0.8,0.1-2.2-0.1-3.3-0.6
				c-0.3,0.6-0.6,1.2-0.9,1.7c-0.1,0.3-0.2,0.5-0.4,0.8c-0.3,0.6-0.6,1.1-0.8,1.7c0,0,0,0.1-0.1,0.1c-0.1,0.1-0.1,0.2-0.2,0.4
				c-0.2,0.6-0.4,1.2-0.7,1.7c-0.1,0.3-0.3,0.7-0.4,1c0.6,0.4,1,1,1.7,1.3c0.8,0.3,1.7,0.2,2.5,0.1c1.2-0.2,2.4-0.8,3.6-1
				C65.7,69.3,65.8,68.8,65.9,68.3L65.9,68.3z M53.5,79.9L53.5,79.9c0.5,0.1,1.1,0.1,1.6,0.2c0.6-0.2,1.2-0.3,1.7-0.6
				c1.4-0.6,2.7-1.4,4.2-1.9c1.6-1.5,2.8-3.5,3.9-5.5c0-0.1,0.1-0.2,0.1-0.2c0.1-0.2,0.2-0.5,0.3-0.7c-0.4,0.2-0.8,0.3-1.2,0.4
				c0-0.1,0.1-0.1,0.1-0.2c-1.1,0.5-2.2,0.8-3.3,0.9c-1.2,0.1-2.8-0.4-3.5-1.4c-0.5,1.3-1,2.5-1.6,3.7c-0.6,1.3-1.3,2.5-2.1,3.6
				C53.5,78.6,53.5,79.3,53.5,79.9L53.5,79.9z M10.9,63.9L10.9,63.9c1.5,2.1,3.7,3.6,5.9,4.9c-0.1-0.1-0.3-0.3-0.4-0.4
				c-0.2-0.3,0.2-0.5,0.4-0.3c0.5,0.7,1.1,1.2,1.8,1.7c0.3,0.1,0.5,0.3,0.8,0.4c0.3,0.1,1.4,0.7,2.8,1.5c0.7,0.3,1.3,0.6,1.9,0.9
				c5.3,2.7,10,5.8,15.8,7.4c1.7,0.4,3.3,0.9,5,0.9c1-2.1,1.9-4.3,2.9-6.4c1.4-2.9,2.8-5.7,4.3-8.5c0.1-0.1,0.3,0,0.2,0.1
				c-0.9,3-2.8,5.8-4.1,8.6c-0.9,2-1.6,4.2-2.6,6.2c0.5,0,0.9-0.1,1.4-0.2c0.1-0.3,0.2-0.5,0.3-0.7c0.4-1,0.9-2,1.3-3
				c1.2-2.5,2.5-5,3.6-7.6c2.1-4.9,4.7-9.6,6.3-14.6c0.1-0.2,0.3-0.1,0.3,0.1c-1.1,5.1-4,9.6-5.9,14.4c-1,2.5-2.2,4.9-3.3,7.3
				c-0.5,1-0.9,2-1.4,3c-0.1,0.2-0.2,0.5-0.3,0.8c0.2-0.1,0.3-0.1,0.5-0.2c2.6-1.2,4.2-4.3,5.5-6.7c1.2-2.3,1.9-4.9,2.9-7.3
				c0.9-2,1.8-4,2.7-6c2.7-6.2,5.3-12.6,7-19.2c0.9-3.5,2.1-8.4-0.1-11.2c-0.7-0.4-1.4-1-1.9-1.5c-8.4-4-17.4-7.5-26-11.7
				c-2.3-1.1-4.6-2.2-6.9-3.1c-1.4-0.6-3-1.1-4.5-0.4c-1.5,0.8-2.6,2.7-3.5,4c-8.3,12.7-8.1,21.3-13.2,33.6
				C8.5,55.1,7.7,59.7,10.9,63.9z"/>
			<g>
				<path class="st17" d="M54.3,24.3C54.4,24.3,54.4,24.3,54.3,24.3C54.3,24.3,54.3,24.3,54.3,24.3z"/>
				<path class="st17" d="M25,43c0.7-0.6,2.2,0.4,2.8,0.7c1.7,0.8,3.3,1.9,4.9,2.8c1.4,0.9,2.9,1.6,4.3,2.5c2.5,1.5,4.8,3.1,7.5,4.3
					c0.1,0.1,0.1,0.3-0.1,0.3c-2.3-0.3-4.4-2-6.3-3.2c-1.6-1-3.2-1.8-4.8-2.7c-1.6-0.9-3.1-1.9-4.7-2.7c-0.7-0.4-1.4-0.8-2.1-1.1
					c-0.3-0.1-0.9-0.5-1.3-0.3C25,43.6,24.8,43.2,25,43z"/>
				<path class="st17" d="M24,46c3,0.8,5.7,2.8,8.2,4.4c3.7,2.3,7.4,4.5,11.2,6.5c0.2,0.1,0,0.4-0.2,0.3c-1.9-0.7-3.8-1.7-5.5-2.8
					c-1.8-1.1-3.6-2.1-5.4-3.2c-2.7-1.6-5.4-3.7-8.5-4.5C23.3,46.6,23.5,45.9,24,46z"/>
				<path class="st17" d="M30.1,55.1c0.6,0.1,1.2,0.7,1.8,1c0.9,0.5,1.8,0.9,2.7,1.3c1.8,0.8,3.5,1.6,4.9,3c0.1,0.1,0,0.1-0.1,0.1
					c-1.5-1.4-3.6-2.1-5.5-2.9c-0.8-0.3-1.5-0.6-2.3-1c-0.6-0.3-1.4-0.5-1.8-1.1C29.7,55.3,29.9,55.1,30.1,55.1z"/>
				<path class="st17" d="M22.7,50.5c0.8,0.4,1.5,0.8,2.2,1.2c0.5,0.3,1.2,0.7,1.5,1.3c0.1,0.1-0.1,0.3-0.2,0.2
					c-1.2-0.9-2.6-1.6-3.9-2.2C22,50.9,22.3,50.3,22.7,50.5z"/>
				<path class="st17" d="M65.7,23.3c0.7,0.1,1.3,0.6,1.8,1c0.6,0.4,1.3,0.8,1.8,1.2c0.1,0.1,0,0.3-0.1,0.2
					c-0.6-0.2-1.2-0.6-1.8-0.9c-0.7-0.4-1.4-0.7-2-1.2C65.3,23.5,65.5,23.3,65.7,23.3z"/>
				<path class="st17" d="M80.6,14.8c3,1.6,4.8,5.1,5,8.4c0.1,1.9-0.1,3.7-0.4,5.6c-0.3,1.7-0.6,4-1.7,5.5c-0.2,0.2-0.6,0.2-0.7-0.1
					c-0.2-1.2,0.3-2.4,0.6-3.5c0.4-1.7,0.8-3.5,0.9-5.3c0.1-1.8-0.1-3.7-0.8-5.4c-0.7-1.9-2.1-3.1-3.5-4.4
					C79.6,15.1,80.1,14.5,80.6,14.8z"/>
				<path class="st17" d="M88.1,20c0-0.1,0.2,0,0.2,0.1C88.1,22,88,24,87.6,25.9c0,0.2-0.3,0.1-0.3,0C87.6,23.9,87.3,21.8,88.1,20z"
					/>
				<path class="st17" d="M14.7,49.3c0.5-0.4,1.1,0.3,0.7,0.8c-3.9,4.5-4.7,10.4-0.1,14.8c0.1,0.1,0,0.3-0.2,0.2
					C10,61.4,10,53.5,14.7,49.3z"/>
				<path class="st17" d="M19,66.1c0.1,0.1,0.2,0.1,0.3,0.2c0.2,0.1,0.3,0.2,0.4,0.3c0.2,0.2,0.5,0.3,0.7,0.5
					c0.4,0.3,0.1,1.1-0.4,0.9c-0.4-0.1-0.7-0.3-1-0.6c-0.3-0.3-0.6-0.6-0.5-1C18.5,66.2,18.8,66,19,66.1z"/>
				<path class="st17" d="M6.9,46.8c0.6-2.3,1.4-4.6,2.2-6.8c1.7-5,3.6-9.9,5.1-14.9c0.1-0.2,0.4-0.1,0.3,0.1
					c-1,4.7-2.7,9.3-4.2,13.8c-0.8,2.3-1.6,4.7-2.2,7c-0.4,1.5-0.4,4.1-1.3,5.3c-0.1,0.2-0.4,0.2-0.5,0C5.7,50,6.5,48.1,6.9,46.8z"
					/>
				<path class="st17" d="M4.9,55.7c0-0.7,0.2-1.4,0.5-2c0.1-0.3,0.6-0.1,0.6,0.2c0,0.6-0.1,1.2-0.2,1.8c-0.1,0.6,0.1,1.4-0.3,1.9
					c-0.1,0.2-0.4,0.2-0.5,0C4.7,57.1,4.8,56.3,4.9,55.7z"/>
				<path class="st17" d="M38.1,3.8C38.1,3.8,38.1,3.8,38.1,3.8C38.1,3.8,38.1,3.8,38.1,3.8z"/>
				<path class="st17" d="M33.8,23c0.7,0,1.4,0.3,2,0.5c1.1,0.4,2.1,0.9,3.1,1.3c2,0.9,4,1.8,6,2.7c0,0,0,0,0,0
					c0.3,0.1,0.6,0.2,0.9,0.4c2.7,1,9.6,3.2,10.3,6.2c0.1,0.1,0.1,0.2,0.2,0.3c0.6,1.4,0.5,2.7,0.2,4.1c-0.3,1.5-0.8,3.1-1.7,4.4
					c-0.4,0.6-1.4,1.8-2.4,1.8c-0.4,0.2-0.9,0.4-1.5,0.5c-0.4,0.1-0.8,0.1-1.2,0.1c-0.3,0.1-0.7,0.1-1,0c-0.1,0-0.1,0-0.1-0.1
					c-0.4,0-0.8-0.1-1.2-0.2c-0.1,0-0.2,0.1-0.4,0.1c-0.2,0-0.4-0.1-0.4-0.2c-2.5-0.6-5-1.9-7.1-3c-2.5-1.2-4.9-2.6-7.4-3.9
					C24.4,33.9,30.1,23.1,33.8,23L33.8,23z M34.2,37.7c1.9,1.4,4,2.5,6.2,3.5c0.1,0.1,0,0.3-0.1,0.2c0,0-0.1,0-0.1,0
					c0.9,0.5,1.9,0.9,2.8,1.3c1.1,0.5,2.5,1.1,4,1.5c0.3-0.1,0.7-0.1,1-0.1c0.4-0.1,0.7-0.3,1.1-0.4c0,0,0,0,0.1,0
					c2.3-1,4-4.5,4.3-6.7c0-0.1,0-0.2,0-0.3c0,0,0-0.1,0-0.1c0-0.1,0-0.1,0-0.2c0-0.2,0.3-0.2,0.3,0c0,0.1,0,0.1,0,0.2
					c0,0,0,0.1,0,0.1c0.1,2.9-1.1,6.1-3.9,7.5c-0.3,0.2-0.6,0.3-0.9,0.4c0.3,0,0.5,0,0.8,0c0.1-0.1,0.2-0.2,0.4-0.2
					c0.7,0,1.3-0.3,1.8-0.6c1.6-1.2,2.6-3.2,3.1-5.1c1.9-6.7-4.9-8.6-9.4-10.3c-0.2-0.1-0.3-0.1-0.5-0.2c0,0,0,0,0-0.1
					c-3.5-1.1-6.7-3.2-10.2-4.2C32.5,23.4,26.1,32,34.2,37.7z"/>
			</g>
		</g>
	</g>
</g>
</svg>
