<svg xmlns="http://www.w3.org/2000/svg" viewBox="0 0 103.2 119.76"><defs><style>.cls-1{fill:#220501;}.cls-1,.cls-2,.cls-3{fill-rule:evenodd;}.cls-2{fill:#f6b400;}.cls-3{fill:#ec7e00;}</style></defs><title>llamada-bell</title><g id="Capa_2" data-name="Capa 2"><g id="Capa_1-2" data-name="Capa 1"><path class="cls-1" d="M6.38,32.64c3.52-.58,7.22.79,10.71,1.8A35.81,35.81,0,0,0,25.42,30c6.15-4,11.63-9,17.48-13.42C48.52,12.34,54.23,9,61.22,7.71,68.93,6.33,76.92,9,83.35,13.13A15.86,15.86,0,0,1,85.64,8a8.09,8.09,0,0,1,4.45-3.52c2.7-.78,5.42.32,7.57,2,1.35-.11,2.58,1.74,3.24,2.7A12.9,12.9,0,0,1,103.16,15a6.43,6.43,0,0,1-2,5.25,3.09,3.09,0,0,1-.41.4,11.64,11.64,0,0,1-5,2.59c7.72,11.22,5,27.82-2.55,38.48-4.84,6.89-11.25,12.31-16.66,18.7a33.87,33.87,0,0,0-6.39,12.65c-1,3.63-.93,7.4-1.8,11a1.49,1.49,0,0,1,0,.21,1.07,1.07,0,0,1,0,.25,2.57,2.57,0,0,1,0,.68.58.58,0,0,1,.36.69c-1.91,5.86-13.47,3.2-17.72,2.46a28.4,28.4,0,0,1-11.08-4.82c-1.31-.92-2.75-2-4.17-3.24a74.06,74.06,0,0,1-11.54-9.11,5.91,5.91,0,0,1-1,2c-1.1,1.56-3.63,3.34-5.79,3.25-1.77.42-4.4.54-5.91-.2a.76.76,0,0,1-.89-.33,4.64,4.64,0,0,1-.25-.42h0a.85.85,0,0,1-.83-.56c0-.09-.29-.24-.37-.31l0,0a10,10,0,0,1-1.38-1.2,4.45,4.45,0,0,1-1.29-2.63,13.54,13.54,0,0,1-1.15-1.4c-3.57-5-2.67-14.17,3.4-16.48A52.61,52.61,0,0,1,.52,52.42,5,5,0,0,1,.12,49a35.26,35.26,0,0,1,.39-8.49C1.08,37.26,2.76,33.24,6.38,32.64Z"/><path class="cls-2" d="M14.75,75.2a112.8,112.8,0,0,0,15,16.39.77.77,0,0,1,.29.07c3.29,1.38,5.69,4.45,8.77,6.3,1.63,1,3.2,2,4.8,2.92a32.71,32.71,0,0,0,9.29,2.73,18.8,18.8,0,0,0,8-1,1.66,1.66,0,0,1,.21-.16,4.63,4.63,0,0,0,1.17-1.53,10,10,0,0,0,.82-2c.53-5.9.82-11.74,3.51-17.23C70.32,74.18,78,69.42,83.92,63.8a38.61,38.61,0,0,0,11-20.87c1.62-8.36-.18-15.74-4.29-23a.81.81,0,0,1,.23-1,1,1,0,0,1,.25-.29,2.26,2.26,0,0,1,2.13.14,3.15,3.15,0,0,1,.87.21,19,19,0,0,0,4.18-.9,2.3,2.3,0,0,0,1.42-1.71c.46-2.06-1.08-4.64-2.47-6.19s-3.85-3.36-6.16-2.79a5,5,0,0,0-2.89,2.29,13.49,13.49,0,0,0-1.34,2.82c-.41,1.2-.49,2.58-1.37,3.54a1.24,1.24,0,0,1-2.07-.43,3.55,3.55,0,0,1-.17-1.05c-8.65-3.8-17.4-5.3-26.54-1.75C50.43,15.2,45.08,20,39.9,24.07S29.52,32.5,23.49,35.45L22,36.14c-.61.71-1.19,1.45-1.79,2.16-.16.26-.32.51-.47.77-.49.85-.81,2.1-1.4,3a.77.77,0,0,1,0,.15c.34,9,4.21,17.62,9.16,25,5.95,8.92,14.31,18.09,25.25,20.43.5.11.48,1-.07.94-10.91-.51-20.4-11-26.46-19.2-5.05-6.84-11.16-16.59-12-26a5.62,5.62,0,0,0-3.41-2.32c-1.57-.35-3,.9-4,1.9-.26.27-.76.86-1.35,1.41a17.57,17.57,0,0,0-1.57,3.54c0,.12-.06.25-.09.38C4.4,58,9,67.59,14.75,75.2Z"/><path class="cls-3" d="M33.39,93.76A55.22,55.22,0,0,0,38.77,98c1.63,1,3.2,2,4.8,2.92a32.71,32.71,0,0,0,9.29,2.73,18.8,18.8,0,0,0,8-1,1.66,1.66,0,0,1,.21-.16,4.63,4.63,0,0,0,1.17-1.53,10,10,0,0,0,.82-2c.53-5.9.82-11.74,3.51-17.23C70.32,74.18,78,69.42,83.92,63.8a38.61,38.61,0,0,0,11-20.87c1.62-8.36-.18-15.74-4.29-23a.81.81,0,0,1,.23-1,1,1,0,0,1,.25-.29,2.26,2.26,0,0,1,2.13.14,3.15,3.15,0,0,1,.87.21,19,19,0,0,0,4.18-.9,2.3,2.3,0,0,0,1.42-1.71c.46-2.06-1.08-4.64-2.47-6.19s-3.85-3.36-6.16-2.79a5,5,0,0,0-2.89,2.29,13.49,13.49,0,0,0-1.34,2.82c-.41,1.2-.49,2.58-1.37,3.54a1.24,1.24,0,0,1-1.88-.08c1.36,8.22,1.4,19-4.23,28.63-10.93,18.63-38,36-51.83,22.64,5.95,8.92,14.31,18.09,25.25,20.43.5.11.48,1-.07.94-8.37-.39-15.9-6.64-21.69-13.24C33.08,81,35,88.51,33.39,93.76Z"/><path class="cls-3" d="M6.82,81.11c-.58,2.74.7,5.76,2.52,7.73a5.76,5.76,0,0,0,3.82,2l.18,0a3.88,3.88,0,0,0,.49-.11,14.33,14.33,0,0,1,1.47-.55,5.28,5.28,0,0,0,2.16-2.3.88.88,0,0,1,.37-.37A2.8,2.8,0,0,0,18,86a.91.91,0,0,1,.25-.84c-2.69-3-5.21-6.08-7.46-9.09C8.88,77.45,7.37,78.45,6.82,81.11Z"/><path class="cls-1" d="M6.38,32.64c3.52-.58,7.22.79,10.71,1.8A35.81,35.81,0,0,0,25.42,30c6.15-4,11.63-9,17.48-13.42C48.52,12.34,54.23,9,61.22,7.71,68.93,6.33,76.92,9,83.35,13.13A15.86,15.86,0,0,1,85.64,8a8.09,8.09,0,0,1,4.45-3.52c2.7-.78,5.42.32,7.57,2,1.35-.11,2.58,1.74,3.24,2.7A12.9,12.9,0,0,1,103.16,15a6.43,6.43,0,0,1-2,5.25,3.09,3.09,0,0,1-.41.4,11.64,11.64,0,0,1-5,2.59c7.72,11.22,5,27.82-2.55,38.48-4.84,6.89-11.25,12.31-16.66,18.7a33.87,33.87,0,0,0-6.39,12.65c-1,3.63-.93,7.4-1.8,11a1.49,1.49,0,0,1,0,.21,1.07,1.07,0,0,1,0,.25,2.57,2.57,0,0,1,0,.68.58.58,0,0,1,.36.69c-1.91,5.86-13.47,3.2-17.72,2.46a28.4,28.4,0,0,1-11.08-4.82c-1.31-.92-2.75-2-4.17-3.24a74.06,74.06,0,0,1-11.54-9.11,5.91,5.91,0,0,1-1,2c-1.1,1.56-3.63,3.34-5.79,3.25-1.77.42-4.4.54-5.91-.2a.76.76,0,0,1-.89-.33,4.64,4.64,0,0,1-.25-.42h0a.84.84,0,0,1-.83-.56c0-.09-.29-.24-.37-.31l0,0a10,10,0,0,1-1.38-1.2,4.45,4.45,0,0,1-1.29-2.63,13.54,13.54,0,0,1-1.15-1.4c-3.57-5-2.67-14.17,3.4-16.48A52.61,52.61,0,0,1,.52,52.42,5,5,0,0,1,.12,49a35.26,35.26,0,0,1,.39-8.49c.57-3.22,2.25-7.24,5.87-7.84Zm.44,48.47h0c-.58,2.74.7,5.76,2.52,7.73a5.76,5.76,0,0,0,3.82,2l.18,0a3.88,3.88,0,0,0,.49-.11,14.33,14.33,0,0,1,1.47-.55,5.33,5.33,0,0,0,2.16-2.3.88.88,0,0,1,.37-.37A2.8,2.8,0,0,0,18,86a.91.91,0,0,1,.25-.84c-2.69-3-5.21-6.08-7.46-9.09-1.9,1.37-3.41,2.37-4,5Zm7.93-5.91h0a112.8,112.8,0,0,0,15,16.39.77.77,0,0,1,.29.07c3.29,1.38,5.69,4.45,8.77,6.3,1.63,1,3.2,2,4.8,2.92a32.71,32.71,0,0,0,9.29,2.73,18.8,18.8,0,0,0,8-1,1.66,1.66,0,0,1,.21-.16,4.63,4.63,0,0,0,1.17-1.53,10,10,0,0,0,.82-2c.53-5.9.81-11.74,3.52-17.23C70.32,74.18,78,69.42,83.92,63.8a38.61,38.61,0,0,0,11-20.87c1.62-8.36-.18-15.74-4.29-23a.81.81,0,0,1,.23-1,1,1,0,0,1,.25-.29,2.26,2.26,0,0,1,2.13.14,3.15,3.15,0,0,1,.87.21,19,19,0,0,0,4.18-.9,2.3,2.3,0,0,0,1.42-1.71c.46-2.06-1.08-4.64-2.47-6.19s-3.85-3.36-6.16-2.79a5,5,0,0,0-2.89,2.29,13.49,13.49,0,0,0-1.34,2.82c-.41,1.2-.49,2.59-1.37,3.54a1.24,1.24,0,0,1-2.07-.43,3.61,3.61,0,0,1-.17-1.05c-8.65-3.8-17.4-5.3-26.54-1.75C50.43,15.2,45.08,20,39.9,24.07S29.52,32.5,23.49,35.45L22,36.14c-.61.71-1.19,1.45-1.79,2.16-.16.26-.32.51-.47.77-.49.85-.81,2.1-1.4,3a.77.77,0,0,1,0,.15c.34,9,4.21,17.62,9.16,25,5.95,8.92,14.31,18.09,25.25,20.43.5.11.48,1-.07.94-10.91-.51-20.4-11-26.46-19.2-5.05-6.84-11.16-16.59-12-26a5.62,5.62,0,0,0-3.41-2.32c-1.57-.35-3,.9-4,1.9-.26.27-.76.86-1.35,1.41a17.57,17.57,0,0,0-1.57,3.54c0,.12-.06.25-.09.38C4.4,58,9,67.59,14.75,75.2Z"/><path class="cls-1" d="M76,58.13c4.79-3.28,8.15-6.46,10.63-11.88A22.29,22.29,0,0,0,87.55,30c-.12-.35.36-.72.64-.42,7.75,8.44-.55,28.09-11.13,30.68A1.22,1.22,0,0,1,76,58.13Z"/><path class="cls-1" d="M65.43,64.8a5.83,5.83,0,0,1,3-1.62c1-.33,1.93-.71,2.89-1.06a1.34,1.34,0,0,1,1.41,2.15,8.59,8.59,0,0,1-3,1.72,6.83,6.83,0,0,1-3.65.75A1.19,1.19,0,0,1,65.43,64.8Z"/><path class="cls-1" d="M93.63,9.59a.09.09,0,0,1,0,.17c-2.58-.56-3.65,2.59-4,4.56-.09.53-.89.36-.81-.17C89.12,12,91,8.87,93.63,9.59Z"/><path class="cls-1" d="M42.25,11.47c1.83-1.34,3.48-3.08,5.24-4.55a29.47,29.47,0,0,1,9.13-4.84,41.45,41.45,0,0,1,9.8-2c2.8-.24,6.07.13,8,2.44.37.45-.32.92-.72.62-2.82-2.06-6.33-1.72-9.6-1.18A42.5,42.5,0,0,0,54.75,4.6a30.08,30.08,0,0,0-8,5.2c-1,.88-2.73,3.11-4.22,3C41.83,12.71,41.8,11.8,42.25,11.47Z"/><path class="cls-1" d="M36.56,15.36a3.51,3.51,0,0,1,2.63-.67.46.46,0,0,1,.05.88A4.73,4.73,0,0,0,36.76,17c-.33.35-.61.83-1.12.91A.55.55,0,0,1,35,17.6C34.67,16.68,35.93,15.8,36.56,15.36Z"/><path class="cls-1" d="M48.12,112.17c4.57,3.43,12,3.75,17.19,1.84a10.61,10.61,0,0,0,6.58-6.45c.85-2.53,1.09-5.25,1.86-7.81a.4.4,0,0,1,.78.16c-.59,3.17-.61,6.43-1.88,9.45s-4.06,4.86-6.87,6.06C60.17,117.81,52,117,47.07,113.34,46.26,112.73,47.31,111.57,48.12,112.17Z"/><path class="cls-1" d="M62.28,118.27a18.75,18.75,0,0,0,6.17-2c.57-.26.84.57.44.91a12,12,0,0,1-6.51,2.53C61.42,119.85,61.33,118.36,62.28,118.27Z"/></g></g></svg>