<svg xmlns="http://www.w3.org/2000/svg" viewBox="0 0 170.84 50.26"><defs><style>.cls-1{fill:#fff;}.cls-2{fill:#ffd600;}.cls-3{fill:#005693;}</style></defs><title>logo sverige</title><g id="Capa_2" data-name="Capa 2"><g id="Capa_1-2" data-name="Capa 1"><text></text><path class="cls-1" d="M81.56,7c-1.42-.57-2.51-1.42-2.51-3.23C79.05,1.4,80.88,0,83.17,0a3.68,3.68,0,0,1,3.91,3.91l-1.81.42c-.18-1.67-1-2.43-2.14-2.43a1.81,1.81,0,0,0-2,1.68c0,1.1,1,1.51,1.79,1.82l1.86.74c1.64.65,2.77,1.53,2.77,3.41,0,2.44-1.92,3.8-4.33,3.8-2.6,0-4.5-1.58-4.52-4.24l1.8-.37c.23,1.7,1.06,2.71,2.68,2.71,1.12,0,2.3-.48,2.3-1.77s-1-1.55-2.1-2Z"/><path class="cls-1" d="M94.2,13.24l0-.68a4.41,4.41,0,0,1-2.27.79c-1.55,0-3.34-1-3.34-3.89V3.89h2v5.4c0,1.85.9,2.22,1.6,2.22a2,2,0,0,0,2-2V3.89H96v9.35Z"/><path class="cls-1" d="M99.18,9.2c.22,1.94,1.29,2.31,2.15,2.31a2.54,2.54,0,0,0,2.18-1.16l1.7.44a3.79,3.79,0,0,1-3.84,2.56c-2.16,0-4.22-1.27-4.22-4.76s2.12-4.81,4.16-4.81,4.15,1.27,4.15,4.8V9.2Zm4.22-1.57c-.28-1.67-1.26-2-2-2a2.19,2.19,0,0,0-2.18,2Z"/><path class="cls-1" d="M114,10.79a3.36,3.36,0,0,1-3.48,2.56c-2.11,0-4.17-1.27-4.17-4.77s2.08-4.8,4.19-4.8A3.34,3.34,0,0,1,114,6.27c-.61.15-1.11.31-1.7.46a2.09,2.09,0,0,0-1.86-1.11c-.94,0-2.14.52-2.14,3s1.18,2.93,2.12,2.93a2.09,2.09,0,0,0,1.88-1.16Z"/><path class="cls-1" d="M114.69,13.24V11.45h1.88V5.68h-1.88V3.89h3.79v7.56h1.88v1.79Zm2.82-10.53a1.29,1.29,0,0,1,0-2.58,1.31,1.31,0,0,1,1.31,1.29A1.3,1.3,0,0,1,117.51,2.71Z"/><path class="cls-1" d="M126.62,13.24l0-.68a4.16,4.16,0,0,1-2.42.79c-1.77,0-3.24-.87-3.24-2.76s1.35-2.79,3.34-2.92l2.25-.15V7.25a1.48,1.48,0,0,0-1.66-1.63,2.46,2.46,0,0,0-1.92.85L121.34,6a3.63,3.63,0,0,1,3.6-2.23,3.24,3.24,0,0,1,3.52,3.28v6.18Zm-.11-4.13-2.22.15c-1,.07-1.4.5-1.4,1.25,0,.48.19,1,1.44,1a2.79,2.79,0,0,0,2.18-.91Z"/><path class="cls-1" d="M82.9,33.68c-2.32-.93-4.1-2.32-4.1-5.27,0-3.86,3-6.15,6.72-6.15s6.33,2.41,6.39,6.39l-3,.69c-.3-2.74-1.57-4-3.5-4-1.69,0-3.31.93-3.31,2.74s1.62,2.47,2.92,3l3,1.21c2.69,1.05,4.53,2.5,4.53,5.57,0,4-3.14,6.21-7.09,6.21-4.25,0-7.35-2.59-7.38-6.93l3-.6c.37,2.77,1.72,4.43,4.37,4.43,1.84,0,3.77-.79,3.77-2.9s-1.66-2.53-3.44-3.22Z"/><path class="cls-1" d="M110.31,37.3c.36,3.16,2.11,3.77,3.52,3.77a4.15,4.15,0,0,0,3.56-1.9l2.77.72c-.81,2.56-3.16,4.19-6.27,4.19-3.52,0-6.9-2.08-6.9-7.77s3.47-7.87,6.81-7.87,6.78,2.08,6.78,7.83v1Zm6.9-2.56c-.45-2.74-2-3.29-3.32-3.29-1.47,0-3,.79-3.55,3.29Z"/><path class="cls-1" d="M132,43.9V41h3.07V31.54H132V28.62h6.2V41h3.08V43.9Zm4.61-17.24a2.25,2.25,0,0,1,0-4.49,2.25,2.25,0,0,1,0,4.49Z"/><path class="cls-1" d="M152.1,42.57a5.25,5.25,0,0,1-3.7,1.51c-3.05,0-6.6-2.08-6.6-7.83s3.55-7.81,6.56-7.81a5.43,5.43,0,0,1,3.83,1.6l.09-1.42h3V43.9c0,3.65-2.59,6.36-6.67,6.36-3.13,0-5.45-1.57-6.2-4.19l2.77-.72a4.14,4.14,0,0,0,3.56,1.89,3.08,3.08,0,0,0,3.34-3.34Zm0-7.35c-.39-2.65-1.93-3.77-3.64-3.77-1.48,0-3.41.85-3.41,4.82s1.9,4.8,3.47,4.8a3.46,3.46,0,0,0,3.58-3.17Z"/><path class="cls-1" d="M160.57,37.3c.36,3.16,2.11,3.77,3.52,3.77a4.15,4.15,0,0,0,3.56-1.9l2.77.72a6.19,6.19,0,0,1-6.26,4.19c-3.53,0-6.91-2.08-6.91-7.77s3.47-7.87,6.81-7.87,6.78,2.08,6.78,7.83v1Zm6.9-2.56c-.45-2.74-2.05-3.29-3.31-3.29-1.48,0-3,.79-3.56,3.29Z"/><path class="cls-1" d="M130.7,28.65a6.4,6.4,0,0,0-1.48-.21,5.62,5.62,0,0,0-3.64,1.93l-.12-1.75h-3V43.9h3.2V35.07c.42-2.44,1.9-3.25,3.25-3.25a10.21,10.21,0,0,1,1.78.24Z"/><path class="cls-1" d="M98.42,43.9,93,28.62h3.31L100,39.51l3.69-10.89H107L101.56,43.9Z"/><polygon class="cls-2" points="30.65 0.11 21.89 0.11 21.89 17.63 0 17.63 0 26.38 21.89 26.38 21.89 43.9 30.65 43.9 30.65 26.38 70.06 26.38 70.06 17.63 30.65 17.63 30.65 0.11"/><rect class="cls-3" y="0.11" width="21.89" height="17.51"/><rect class="cls-3" x="30.65" y="0.11" width="39.41" height="17.51"/><rect class="cls-3" y="26.38" width="21.89" height="17.51"/><rect class="cls-3" x="30.65" y="26.38" width="39.41" height="17.51"/></g></g></svg>