<svg xmlns="http://www.w3.org/2000/svg" viewBox="0 0 191.99 91.62"><defs><style>.cls-1{fill:#0073d2;fill-rule:evenodd;}</style></defs><title>logo plan azul</title><g id="Capa_2" data-name="Capa 2"><g id="Capa_1-2" data-name="Capa 1"><path class="cls-1" d="M4.27,68.64c0,.58-.85.58-.88,1.11,0,0-.18.08-.27.07A2.62,2.62,0,0,1,.73,67.16c0-.24.21-.65-.49-.56-.34,0-.26-.52-.1-.57.81-.24.9-1,1.59-1.38.43-.21.09-.27-.17-.41-1.41-.8-1.46-1.72-.14-2.68.5-.36.56-.84,0-1-.72-.27-.47-.79-.34-1s.5-.57,0-.92c-.15-.1,0-.33.33-.41,1.05-.25,1.09-.88.37-1.71-.35-.4-.9-1.07-.08-1.57a.67.67,0,0,0,.33-.7c0-.94-.36-1.85-.23-2.79,0-.13,0-.24-.19-.34-1-.6-.49-1.11.19-1.57a1.67,1.67,0,0,1-.35-2.6s.08-.06.07-.07c-.48-1.18.59-2.15.56-3.31s-1.16-1.9-.89-3c.08-.31-.09-.68.44-.85.26-.08.31-.3.15-.6-.27-.53-.12-1,.67-1.11-.87-.5-1-1-.42-1.65a.58.58,0,0,0,0-.89c-.71-.71-.76-1.32-.12-1.95.07-.07.21-.06.16-.21-.53-1.59.24-3.14.32-4.7.06-1.32-1.19-2.29-.84-3.58.06-.2-.11-.31-.35-.32S.8,24.32.9,24.28c.69-.26.5-1.05,1-1.32,1-.49,1.17-1,.35-1.69-.36-.32-.75-.36.07-.71s.91-1.93.22-2.65a.84.84,0,0,1,0-1.22c.39-.44.53-.77-.06-1.13a1.31,1.31,0,0,1-.24-.23c.93-.75-.81-1.61.2-2.54.79-.7-.27-2,.57-2.9.33-.34-.22-.33-.31-.51-.26-.51-.57-1,.45-1.12.2,0,.54.19.58-.25s0-.7-.32-.75c-.65-.09-.49-.46-.45-.77,0-.5.54-.32.84-.31,1.07.06,2.07.07,2.26-1.19.07-.42.5-.24.78-.25,3.78-.13,7.57-.22,11.36-.12,1.35,0,2.68-.4,4.09,0,.34.08.93-.72,1.69-.54.42.1.91-.18,1.23.48.18.4,1.41.35,1.6.09.44-.6.93-.31,1.41-.31,1.19,0,2.38,0,3.57,0,.26,0,.31,0,.49-.21.35-.4.88-.45,1.13.11a.53.53,0,0,0,.75.28c1.63-.79,3.38-.19,5-.35.76-.08,1.56.19,2.27-.36a.93.93,0,0,1,1,.11c.43.33.84.75,1.31,0,.15-.25.6-.09.77.18.32.5.67.53,1.06.1.23-.24.52-.13.78-.14,1.18,0,2.37,0,3.57,0,.23,0,.6.3.67-.22,0-.28.46-.25.58-.17,1.31.89,2.57-.41,3.92,0a15.84,15.84,0,0,0,4.47.26c.67,0,1.41.25,2-.35a.61.61,0,0,1,.56,0c1,.9,1.92-.26,2.94,0a19.86,19.86,0,0,0,3.55.27c.39,0,.92.24,1.1-.44.09-.34,2.1-.09,2.43.25a1.57,1.57,0,0,0,2,0c.23-.25.51-.16.75-.15a20.07,20.07,0,0,1,3.18.17c.55.11,1.35.43,1.92-.42.28-.41,1.37-.21,2-.06a6,6,0,0,0,1.5.15c3.07-.1,6.11.37,9.17.3.4,0,1,.23,1.09-.45,0-.24.32-.21.56,0,.59.62.92.64,1.45,0,.15-.17.23-.09.37,0,.92.19,2-.35,2.73.67a.38.38,0,0,0,.31.09c1.15-1.09,2.6-.3,3.9-.43.9-.09,2.15.29,2.73,0a1.34,1.34,0,0,1,1.72.17.67.67,0,0,0,.54-.07c.32-.6.59-.93.89,0,0,.05.38.09.41.06.83-1.22,2.17-.6,3.15-.51,3.23.28,6.47.35,9.71.53,1.09.07,2.17.15,3.27.14.48,0,1.1.26,1.34-.48a.67.67,0,0,1,1.08.23.75.75,0,0,0,1.16.19c.84-.61,1.1-.59,1.65.29.56-.36,1.08-1.31,1.79-.08a.76.76,0,0,0,1,.12c.87-.55,1.76-.81,2.57.14a.37.37,0,0,0,.51,0,3.8,3.8,0,0,1,3.93,0c.31.21.45.09.75-.08.45-.25,1.2-.56,1.37.34.09.45.46.33.73.33l8.09.07c.09,0,.2,0,.23,0,.67-.61,1.46-.21,2.2-.24.29,0,1,.29,1-.47,0-.16.64-.18.86-.05a2,2,0,0,0,2.4-.21.29.29,0,0,1,.46,0A.83.83,0,0,0,160,3.78c.1-.16,1.12-.29,1.18-.12s.58.37.59.39c.85,1.48,1.12,0,1.22-.27.45-.93,1.33-.6,1.82-.38a1.52,1.52,0,0,0,1.39.1c1.57-1,3.4-.75,5.07-.85,3.57-.22,7.1-.63,10.66-.81.19,0,.51-.05.53-.12.31-1.43,1.69-.5,2.49-.85a12.28,12.28,0,0,1,1.48-.5,12.41,12.41,0,0,1,4.64-.29c.41,0,.15.47.28.71s.55-.28.65.14-.59.3-.59.45c-.07.88-1.2,1.21-1.36,1.85a2.24,2.24,0,0,0,.28,2.13,1.87,1.87,0,0,1,.33,2.16,5.21,5.21,0,0,0-.15,1.26c-.16.86.5,1.75-.2,2.63-.12.17-.75,1.25.56,1.32a.68.68,0,0,1,.07.49,13.18,13.18,0,0,0-.49,2.29c-.21,1.16-.4,1.26.39,2.3.14.18.18.6,0,.71-.58.49-.17,1.32-.86,1.74,0,0,0,.06,0,.08-.53.61.84.73.43,1.3s-.45.94.25,1.27c.17.08.27.28.19.32-1,.46,0,1.53-.79,2-.06,0-.07.17-.11.26,1.18.19.43,1.09.74,1.61a.46.46,0,0,1-.29.7c-.3.1-.32.39-.27.64a6.89,6.89,0,0,1,.14,3.1c-.06.31.31.9.45,1.4a9.41,9.41,0,0,1-.17,3.88,7.94,7.94,0,0,0,.23,2.46c.07.45.38.87-.4,1.08-.25.07-.14.43-.1.67.29,1.66.9,3.39.52,5-.28,1.16.45,2.48-.68,3.53-.12.12-.23,1,.3,1.16s.38.4.46.69a1.22,1.22,0,0,1-.62,1.6c-.31.17-.63.35,0,.47.34.06.32.24.35.45,0,.64-.67,1.34.21,1.94.07.06.09.5-.19.52-1.11,0-.85.66-.79,1.27a1.39,1.39,0,0,1-.33,1.23,1.13,1.13,0,0,0,.28,1.56,1.91,1.91,0,0,1,.36,2.15,2.25,2.25,0,0,0-.33,1.1c0,1.09-.56,2.14-.17,3.25.07.22-1,.63-1.28.51-.72-.33-1.68-.11-1.82.31-.23.67-.63.57-1.11.57a32.19,32.19,0,0,0-3.66.15c-1.3.17-2.64-.33-4-.22a3.61,3.61,0,0,0-2.25.56.54.54,0,0,1-.85-.06c-.21-.33-2.38-.26-2.73,0-1,.73-1.13.64-2.61.2-.32-.11-1.42-.34-1.75.47a.66.66,0,0,1-.71.43,10.65,10.65,0,0,0-1.87.16,1.12,1.12,0,0,1-1.34-.44c-.41-.59-1.4,0-2.07.1s-1.19.22-1.17-.65c0-.46-.46-.49-.87-.49l-12.14-.1c-.33,0-.8-.12-.75.4.07.74-.49.65-1,.62-5.34-.29-10.7-.32-16-.75-.49,0-1.13-.32-1.46.46-.12.29-1.12.33-1.47,0a1.72,1.72,0,0,0-2.24-.21.31.31,0,0,1-.38,0c-1.37-.72-1.33-.66-2.88,0-.44.19-1.23.32-1.6-.24a.81.81,0,0,0-1.09-.29c-.93.73-2,.16-2.92.35-.64.13-.32-.58-.81-.66s-1,.4-1.45.4c-2.12,0-4.23,0-6.34-.1a1.69,1.69,0,0,1-1.47-.5c-.3-.39-.51.34-.92.34a30.12,30.12,0,0,1-4.15-.1,22.11,22.11,0,0,0-5.2-.11c-.77,0-1.58.31-2.42.31-.46,0-1,.1-1.19-.44-.14-.3-.63-.25-.62-.06,0,1-.85.49-1.12.44a25.81,25.81,0,0,0-3.93-.2c-.25,0-.54-.1-.74.17s-.49.41-.61-.09c0,0-.32-.11-.4-.06-1.32.84-2.81.14-4.19.33-.23,0-.48,0-.52-.28-.07-.5-.65-.43-.81-.32-1,.69-2.1.27-3.14.36-.44,0-1-.15-1.19.4a.31.31,0,0,1-.27.12c-1.58-1-3.24.34-4.84-.14-.23-.08-.41,0-.48.32-.14.48-.4.29-.61,0-.47-.59-.56-.63-.78-.1s-.43.28-.79.24a22.69,22.69,0,0,0-6.21-.06,15.21,15.21,0,0,1-4.23.23,19.62,19.62,0,0,0-5-.12,24.52,24.52,0,0,1-4.1.3A5.13,5.13,0,0,1,45,69.29a.9.9,0,0,0-.76.08c-1,1-2.29.35-3.42.43-.65,0-1.34-.43-1.94.17a.39.39,0,0,1-.53,0c-.29-.43-.52-.46-.82,0a.49.49,0,0,1-.43.09c-1.3-.52-2.62.26-3.93,0a9.28,9.28,0,0,0-3.64-.58,53.86,53.86,0,0,1-8.61.7c-1.66,1.13-3.7.66-5.55.89a56.48,56.48,0,0,1-5.83.26A5.18,5.18,0,0,1,7.33,70.1a4.05,4.05,0,0,0-2.08-.71,1.5,1.5,0,0,1-1-.75M82,21.07c0-2.9,1.48-4.46,4.13-4.43l6.89.06c7.45.06,11.48,3.32,11.43,9.57s-4,9.23-11.34,9.17l-3.16,0,0,7.33-8.09-.07Zm7.89,8.45,2.94,0c2.45,0,3.75-1.17,3.76-3.35s-1.29-3.4-3.82-3.42l-2.83,0Zm16.81-9.16c0-2.53,1.2-3.73,3.43-3.71h1.16c2.29,0,3.48,1.23,3.46,3.77l-.13,15.51,7.93.08c2.49,0,3.69,1.16,3.66,3.38v.11c0,2.3-1.23,3.54-3.72,3.51l-16-.14Zm38.12,17.47-8.41-.07-2.09,5.37-8.05-.07,9.51-24c.4-1.29,1.49-2.21,5.11-2.18s4.6,1,5,2.26l9.49,24.14L147,43.24Zm-7-5.87,5.59,0-2.74-7.61Zm18.77-11.17c0-2.49,1.27-3.73,3.33-3.71h.77c1.88,0,2.48.58,3.6,1.92l9.22,12.26.13-13.87,7.57.06L181.07,40c0,2.5-1.29,3.74-3.3,3.72h-.65c-1.93,0-2.49-.5-3.57-1.8l-9.43-12.45L164,43.39l-7.58-.07ZM82.39,51.22a.91.91,0,0,1,1-1h.34a.9.9,0,0,1,1,1l-.06,6.65-2.34,0Zm4.1.12c0-.73.38-1.09,1-1.08h.22a1.13,1.13,0,0,1,1,.56l2.7,3.57,0-4,2.21,0-.06,6.56c0,.73-.38,1.1-1,1.1h-.19a1.07,1.07,0,0,1-1-.53l-2.76-3.63,0,4.07-2.2,0Zm8.41,0v0c0-.65.39-1,1.09-1l4.87,0c.72,0,1.09.34,1.09,1v0a1,1,0,0,1-1.11,1l-1.23,0,0,5.56L97.2,58l0-5.55-1.28,0a.94.94,0,0,1-1.07-1m8.22,5.48,0-5.12a1.13,1.13,0,0,1,1.21-1.29l5.07,0,0,2-3.92,0v.76l2.93,0,0,1.9-2.93,0v.88l3.93,0,0,2-5.07,0a1.08,1.08,0,0,1-1.2-1.19m11.66.35-1-1.45h-.43l0,2.37-2.34,0,.06-6.3c0-.84.43-1.3,1.2-1.29l2.35,0c2.11,0,3.15.9,3.14,2.53a2.16,2.16,0,0,1-1.66,2.2l1.68,2.15c.08.09-.33.81-1.34.8-.73,0-1.09-.33-1.58-1m-1.51-3.12h1c.69,0,1-.31,1-.87s-.34-.9-1.07-.91h-1Zm5.92-2.47c0-.73.39-1.09,1-1.09h.23a1.14,1.14,0,0,1,1,.57l2.69,3.57,0-4,2.21,0-.06,6.57c0,.73-.38,1.09-1,1.08h-.18a1.13,1.13,0,0,1-1-.52l-2.74-3.63,0,4.06-2.21,0Zm13.47,5.11-2.44,0-.61,1.56-2.35,0,2.76-7c.13-.38.45-.65,1.51-.64s1.32.28,1.44.66l2.76,7-2.45,0Zm-2-1.71h1.63l-.81-2.21Zm5.63-3.28v0c0-.64.4-1,1.08-1l4.88,0c.72,0,1.09.34,1.08,1v0a1,1,0,0,1-1.1,1H141l-.05,5.55-2.36,0,.06-5.55h-1.29a1,1,0,0,1-1.07-1m8.36,0a.89.89,0,0,1,1-1H146a.93.93,0,0,1,1,1l-.07,6.65-2.35,0Zm3.81,2.87a4,4,0,1,1,4,4,3.83,3.83,0,0,1-4-4m5.68,0a1.68,1.68,0,0,0-1.66-1.88,1.65,1.65,0,0,0-1.69,1.86,1.69,1.69,0,1,0,3.35,0M157.89,52c0-.73.36-1.09,1-1.08h.22a1.15,1.15,0,0,1,1.06.57L162.82,55l0-4,2.2,0L165,57.56c0,.72-.36,1.09-1,1.08h-.19a1.1,1.1,0,0,1-1-.53l-2.75-3.63,0,4.07-2.2,0Zm13.46,5.11-2.45,0-.61,1.57-2.35,0,2.78-7c.12-.39.43-.65,1.49-.64s1.34.28,1.45.66l2.76,7-2.44,0Zm-2-1.71,1.62,0-.8-2.22Zm6.05-3.25c0-.73.36-1.08,1-1.08h.34c.66,0,1,.37,1,1.11l0,4.52,2.32,0c.73,0,1.08.34,1.08,1v0a1,1,0,0,1-1.1,1l-4.66,0ZM18,18.8a32.34,32.34,0,0,0-3.35,3.38c-.14.19-.63,1-.66,1.05s-.44.57-.5.63-.34.88-.4,1-.55.57-.58.65a1,1,0,0,1-.42,1.06,5.33,5.33,0,0,0-.75,1.77c-.1.24-.62.85-.54,1.41a1,1,0,0,1-.25.69c-.09.19-.07.86-.46,1s-.23.7-.14.88a1.28,1.28,0,0,1,0,1,1,1,0,0,0,.06.76c.28.41,0,1.07-.05,1.3-.08,1.22.76,1.58.52,2.29-.17.44.14.82.07,1.28s.24.54.28.66a4.78,4.78,0,0,1,.27.78C11,41,12,42,12,43s.91,1.19,1,1.27c.47.58.46,1.27,1,1.61,0,0,.6.46.67.5.31.18,0,.39.06.5a4.23,4.23,0,0,0,1.26,1.51A31,31,0,0,0,23.45,54a2.55,2.55,0,0,1,1.31.48,14.07,14.07,0,0,0,2.18,1c.27.11.54.09.81.18l2,.74a10.38,10.38,0,0,0,1.85.63c.51.12,1,.42,1.53.52s1.09-.37,1.57-.06a5.37,5.37,0,0,0,1.65.61,40.25,40.25,0,0,0,8.57.65,4.43,4.43,0,0,0,1.65,0c.9,0,1.91-.33,2.78-.37a22.37,22.37,0,0,0,4-1.24c.43-.1.89-.55,1.16-.56a7.45,7.45,0,0,0,1.51-1l.87-.52.51-.33L59.67,53c.16-.34.57-.46.87-.69a.64.64,0,0,1,.1-.13,1.8,1.8,0,0,1,.4-.28,1.07,1.07,0,0,0,.19-.13l.07-.08a.75.75,0,0,1,.06-.13.07.07,0,0,1,.06,0s0,0,.08,0,0,0,.06-.06a.18.18,0,0,1,.09-.1.1.1,0,0,0,0-.16s-.1-.07-.11-.13.08-.16.16-.2a.2.2,0,0,1,.21,0c.06,0,.08.12.14.14s.12-.06.12-.11a.17.17,0,0,1,0-.13c.05-.07-.1-.06-.13-.09s0-.05,0-.08-.08-.12-.15-.13a.22.22,0,0,0-.2.1l-.08.09s-.06,0-.07,0,0,0,0,.06-.06,0-.09,0h-.11a.4.4,0,0,0-.15,0,.2.2,0,0,0-.09.06.33.33,0,0,1-.15,0,1.38,1.38,0,0,0-.4.15,1,1,0,0,1-.3.13h-.13s-.05,0-.09,0,0,.06-.1.08-.06,0-.08.06,0,.1-.07.13a.22.22,0,0,1-.14.1.64.64,0,0,1-.45-.1.82.82,0,0,1-.22-.53c0-.06,0-.15-.14-.14s-.09.08-.13.12a1.11,1.11,0,0,1-.6.37,2.35,2.35,0,0,1-.37.05c-.1,0-.2-.05-.3,0s-.08.06-.09.12a.41.41,0,0,0-.06.11.15.15,0,0,1-.22.09c-.07,0-.18-.11-.1-.18s.21-.09.17-.19-.1,0-.14,0a.44.44,0,0,1-.21.07c-.11,0-.26-.05-.27-.18a.17.17,0,0,1,0-.07s0,0,.06-.05a.11.11,0,0,0,.08,0c0-.05,0-.09,0-.13s.11-.11.14-.16a.61.61,0,0,1,.19-.2c.07,0,.26,0,.29-.08s0-.21.11-.32.17-.11.08-.25-.3,0-.43.07a.58.58,0,0,1-.21.1c-.13,0-.08-.08,0-.14s.13-.11.18-.18.1-.2.25-.18.14,0,.19,0,0-.22-.13-.23a.7.7,0,0,0-.39.13,1.7,1.7,0,0,0-.3.23c-.09.07-.17.15-.28.09l-.08,0a.32.32,0,0,0-.19.1c-.12.1-.27.15-.31-.05,0,0,.11-.11.16-.15l.38,0a.73.73,0,0,0,.35-.15l.05-.09a.18.18,0,0,0-.22-.28c-.12.08-.21.22-.33.31a.44.44,0,0,1-.3.13c-.08,0-.27-.08-.2-.21s.15-.06.21-.1.11-.12.19-.17a.76.76,0,0,1,.38-.19c.08,0,.24,0,.24-.15a.08.08,0,0,0-.1-.08.52.52,0,0,1-.21,0,.71.71,0,0,1-.31-.09c-.07-.07,0-.22-.13-.23s-.07.1-.12.19-.34.16-.4,0,.12-.26.21-.3a.91.91,0,0,1,.31-.09s.09,0,.14,0,0-.14.13-.16.11-.1,0-.14-.12,0-.16,0a.43.43,0,0,0-.16,0c-.12,0-.13.13-.18.21a.5.5,0,0,1-.27.16c-.14,0-.16-.11-.27-.16s-.11.1-.14.19-.15.1-.24.15-.16.13-.23.19-.46.15-.69.22-.14.07-.23.14-.4-.08-.59,0c0,0-.1.09-.15.1s-.06,0-.11,0c-.3,0-.4-.06-.46-.06a.36.36,0,0,0-.21.15.74.74,0,0,1-.42.23c-.07,0-.12-.09-.17-.15s-.13,0-.2,0-.09.2-.15.22-.15,0-.14-.06a1.27,1.27,0,0,0,.07-.12s0-.07-.05-.07-.11.07-.15.08a.51.51,0,0,1-.3,0l-.13,0a.36.36,0,0,0-.11,0c-.08,0-.09.08-.16.1a.42.42,0,0,1-.22,0,.63.63,0,0,0-.19,0l-.15.13a1.5,1.5,0,0,1-.3,0,7.3,7.3,0,0,0-.85,0c-.38.07-.73.21-1.13.26s-2.08.1-2.32.09a4.8,4.8,0,0,0-1.44.05s-.27,0-.32,0-.09-.13-.17-.16c-.24-.1-.05.14-.32,0s-.45-.08-.75-.08a12.19,12.19,0,0,1-1.51-.15,1.29,1.29,0,0,1-.78-.38c-.15-.18-.41-.23-.44-.47a7.58,7.58,0,0,1,.21-1.78,10.63,10.63,0,0,1,.23-1.27s0-.08,0-.12c.35-.33.22-.34.29-.68.11-.56.34-1.41,1-1.56.32-.08.68-.26.9-.33a6.75,6.75,0,0,0,1.16-.19,1.09,1.09,0,0,1,.25-.1c.38,0,.77.09,1.15,0a6,6,0,0,1,.88-.06c.14,0,0-.13.09-.15s.17.16.38.22a7.61,7.61,0,0,0,1,.09c.05,0,0-.08.05-.12s.21.11.28.17,2.95.47,3.14.52a2,2,0,0,0,1.17-.15,4.27,4.27,0,0,0,.88-.45c0-.05,0-.13,0-.18a.77.77,0,0,0,.18-.64.64.64,0,0,1,.05-.24c0-.13,0-.23,0-.36a.52.52,0,0,1,.11-.33.41.41,0,0,0,.11-.46,1,1,0,0,0-.37-.35c-.11-.06,0,0,0-.13s-.21,0-.21,0a4.73,4.73,0,0,1-.55-.07,3.43,3.43,0,0,0-1.15-.19c-.63,0-1.23-.27-1.85-.23-.1,0-.33.07-.37.06s0-.18-.39-.17A4.61,4.61,0,0,1,47,39c-.31-.09-1.19,0-1.3-.1a1.06,1.06,0,0,0-.19,0c-.14-.05-.19-.24-.47-.25,0,0-.09-.1-.15-.1s-.29,0-.35,0-.38-.15-.41-.33.57-.72.79-.88.42-.37.68-.36.24-.1.33-.22c.24-.26,1.11-1.4,1.39-1.62s.07-.51.44-.8c.13-.08.27-.46.32-.54.18-.33.13-.9.47-1.13a.77.77,0,0,0,.14-.25c.06-.12-.06-.23-.09-.27a1,1,0,0,1,0-.35c0-.09,0-.84,0-1s.12-.33.33-.31,0-.35,0-.46a.94.94,0,0,0-.81-.75,1.62,1.62,0,0,0-1.3.71c-.24.26-.87,1.17-1,1.23s0,.19-.23.47c-.08.08-.21.05-.28.13a2,2,0,0,0-.24.52c0,.1,0,.2,0,.26-.25.19-.29-.07-.4,0s-.13.16-.17.19c-.27.23-.32.32-.6.37s-.47.06-.57.23-.41.14-.41-.1a5.54,5.54,0,0,1,.18-.81c.1-.3-.39-.48-.15-.78a.42.42,0,0,0,0-.49c0-.07-.12-.38-.17-.44s.06-.24-.09-.48-.25.1-.26-.26-.24-.29-.34-.39a3.17,3.17,0,0,0-.49-.4,4.22,4.22,0,0,0-1.48-.67,4.17,4.17,0,0,0-1.65-.08c-.13,0-.36,0-.35-.12s-.06,0-.09-.07-.33,0-.44.08c-.34.12,0,.29-.19.35l-1.1.32a1.31,1.31,0,0,1-.39.06c-.19,0-.2.15-.43.25-.43.2-.34,1.21-.32,1.46,0,.05,0,.17.13.14s.19.09.17.31a1.88,1.88,0,0,1-.09.59c-.07.26.09.12.08.37s.23.85.2,1,0,.12.06.18.06,0,.11,0,.11.27.19.5a1.31,1.31,0,0,0,.25.5c.1.08.1.16.15.23s.11.15.06.21-.26.24-.35.2-.49-.08-.62-.12-.54.06-.62,0-.2-.09-.31-.12-.12.08-.17.06-.14-.11-.22-.18-.39-.2-.62-.29A3.83,3.83,0,0,1,32.6,34c-.29-.21-1.27-.58-1.31-.69s-.37-.09-.37-.12-.31-.14-.32-.22-.2-.09-.28-.15-.23-.14-.3-.1-.22.1-.3,0a.37.37,0,0,0-.18-.11.52.52,0,0,0-.47.14c-.18.14-.34.29-.5.44s-.11.24-.18.36a1.94,1.94,0,0,1-.21.27c-.07.13-.05.28.1.31s0,.18.14.24.25.46.48.69a3.32,3.32,0,0,1,.46.85c.1.25.57.06.64.37,0,.12.3.35.76.77a3.71,3.71,0,0,0,1.16.58,2.49,2.49,0,0,1,1.35.64A1.06,1.06,0,0,1,34,39a7.07,7.07,0,0,1,.24,1.42c.14.86.47.73.31,1s.15.83.14,1.82a3,3,0,0,1-.25.88c-.23.56.14,1.29,0,1.51s-.21,1.55-.49,1.8a.51.51,0,0,1-.48,0c-.26-.12-1.08.08-1.26-.1A1.62,1.62,0,0,0,31.2,47a3.21,3.21,0,0,1-.7-.3c-.35-.19-1.81-.73-2.34-1-1.34-.72-3.17-1.52-3.3-2.24-.05-.31-2.05-1.61-2.35-2.06-.17-.25-.52-.63-.59-.73A5.39,5.39,0,0,0,21.7,40c-.26-.37-.58-.41-.72-1.1,0-.26-.21-.12-.48-.84a12.19,12.19,0,0,1-.58-4.77,15.08,15.08,0,0,1,.82-2.71c.12-.32.5-.52.59-1.08,0-.17.89-.75,1.19-1.24a4.55,4.55,0,0,1,1.29-1.22c.24-.14,3.4-2.43,3.69-2.76a1.33,1.33,0,0,1,1.05-.58.79.79,0,0,0,.53-.35c.05-.36,3.3-1.11,3.82-1.66a5.26,5.26,0,0,1,1.63-.53c.14,0,.11.14.42-.15s.75.15,1-.14.5-.46,1.26-.45.64-.38,1.24-.41a1.34,1.34,0,0,0,1-.51c.14-.24,1.54-.35,1.81-.55.69-.5,1.18.05,2-.1.11,0,.46.1.65.08s.51-.3.63,0,1.33.1,1.65.09c.09,0,.3-.13.27-.05s.81.09,1,.23a1,1,0,0,0,1,.24,4.77,4.77,0,0,1,1.53.21c.25.09-.18.23.72.27a32,32,0,0,1,3,1.32c.5,0,.64.55,1.15.75a20,20,0,0,1,4.31,3c.12.09.23.49.35.48.59,0,1.14,1.09,1.38,1.41.08.09.47-.13.42.54,0,.1.29,0,.3.43s1,.84,1.17,2c0,.11.14.21.2.32a13.69,13.69,0,0,1,.76,3.06,11,11,0,0,1-.1,2.43,15.66,15.66,0,0,1-.82,2.45c-.2.48-.67,1.13-.7,1.31a1.16,1.16,0,0,0-.11.52c0,.11,0,.29-.12.33s-.35.16-.37.36-.3.14-.29.28-.3.16-.33.35-.28.21-.23.37-.11.09-.21.14a1.17,1.17,0,0,0-.43.54c0,.08-.15,0-.18.3s-.18.16-.27.3-.2.15-.21.18a.67.67,0,0,0-.06.36c0,.11-.21.47,0,.46.09,0,.13-.12.2-.18a1.37,1.37,0,0,1,.37-.23c.15-.07.34-.11.43-.29s.16-.27.26-.28a.17.17,0,0,0,.12,0,.28.28,0,0,0,.11-.08,1.86,1.86,0,0,1,.22-.27c0-.06.15,0,.17-.08s0-.09.05-.11.11,0,.14-.06.08-.07.11-.1.18-.11.27,0-.33.47-.35.51-.15.3-.26.42a3.58,3.58,0,0,1-.27.29s-.08,0-.1.09a.26.26,0,0,0-.08.13c-.06.07-.14.11-.19.17a2.1,2.1,0,0,0-.15.22.26.26,0,0,0-.09.3c0,.08.09.11.18.08s.09-.12.13-.18a.52.52,0,0,1,.14-.19l.21-.12c.06,0,.1-.09.13-.14a3.79,3.79,0,0,1,.3-.4c.06-.07.11-.16.21-.19s.12,0,.14-.08,0-.15.08-.16.07.1.08.15,0,.08.1.08.11,0,.15-.12a.41.41,0,0,1,.15-.17,1.51,1.51,0,0,0,.2-.12l.28-.26.18-.19c0-.06.1-.14.17-.17s.09,0,.14,0,0,0,.07-.05a.1.1,0,0,1,.09-.07c.08,0,.07.13.07.2s0,.08,0,.11.08,0,.12,0,.12,0,.09.07a.25.25,0,0,1-.08.12,3.44,3.44,0,0,0-.27.27,1.35,1.35,0,0,1-.12.12,4.62,4.62,0,0,1-.34.41,3.11,3.11,0,0,1-.29.33.79.79,0,0,1-.17.2.54.54,0,0,0-.16.21,1.25,1.25,0,0,1-.24.27s0,.12-.05.18a.33.33,0,0,1-.11.15,1,1,0,0,0-.23.43c0,.07,0,.21.07.13s.07-.12.13-.16a1,1,0,0,1,.18-.06.41.41,0,0,0,.22-.17c0-.07,0-.19.07-.23s.14,0,.2,0l.21-.06a.46.46,0,0,0,.21,0h0s0,0,0,0a.32.32,0,0,0,0-.09s0-.05,0-.08a.23.23,0,0,0,.07-.1.17.17,0,0,0-.08-.13c-.07,0-.15-.09-.16-.17s0-.07,0-.12a.22.22,0,0,0,0-.12s0-.05,0-.08a.36.36,0,0,1,0-.09s0-.07.09-.08.11.08.18.1h.18a.67.67,0,0,0,.2,0s.12,0,.14-.05a.11.11,0,0,0,0-.08c0-.07-.08-.1-.08-.15a.2.2,0,0,1,.06-.16.11.11,0,0,1,.14-.06c.12,0,.25.18.39.14a.1.1,0,0,0,0-.14l0-.06s0,0,0-.06a.26.26,0,0,1,.07-.26.51.51,0,0,1,.21-.17s.08,0,.13,0h0s.08.07.09.12a.18.18,0,0,1,0,.16c0,.08-.11.17,0,.25a.34.34,0,0,0,.26,0h.1s.09,0,.12,0a.16.16,0,0,1,.07.16c0,.08-.1.14-.14.22a.79.79,0,0,1-.22.18.55.55,0,0,1-.17,0c-.07,0-.15.05-.17.13s0,.12.1.13.17.07.16.17-.13.27-.28.34a.5.5,0,0,0-.17.11.16.16,0,0,0-.07.07l0,.11c-.08,0-.13-.07-.17-.1a.08.08,0,0,0-.08,0,.1.1,0,0,0,0,0s-.06,0-.07.05a.27.27,0,0,0,0,.09c0,.05,0,.11,0,.17a.2.2,0,0,0,0,.13c0,.07.13,0,.16,0s.06-.08.1-.11.13.09.12.14-.06.07-.07.11,0,.09,0,.11.27-.08.27-.16v0c0-.06-.1-.15,0-.17s.1,0,.14.05.08.08.12.08.1-.09.13-.12a.78.78,0,0,1,.21-.16c.1-.07.25-.1.33-.18a1.23,1.23,0,0,0,.21-.41.44.44,0,0,1,.07-.19c.13-.1.3,0,.4-.16a.29.29,0,0,0,.1-.15.23.23,0,0,1,.07-.14c0-.05,0-.1,0-.16a.25.25,0,0,1,.08-.16q.09-.06.15,0c.09.07.24,0,.31,0s0,.21-.08.26c-.22.16-.17.44-.37.59s-.17,0-.23.11-.07.27-.15.35-.11,0-.15,0a.12.12,0,0,0,0,.11.2.2,0,0,1,0,.07s-.14.11-.07.17a.18.18,0,0,0,.13,0s.06,0,.09-.05a.06.06,0,0,1,.06,0s0,0,.08.06,0,0,.07,0,0-.07,0-.08,0-.06.06-.05,0,0,0,0,.13,0,.18,0l.09-.08c.06-.07.1-.16.15-.22a.63.63,0,0,1,.22-.18s.1,0,.15,0a.65.65,0,0,0,.15-.1c.09-.08.19-.1.29-.18s.15-.12.15,0a.08.08,0,0,1,0,0s0,0,0,.07-.2.15-.24.24,0,.08,0,.12-.13.09-.22.15a.81.81,0,0,0-.25.3.11.11,0,0,0,0,.13s.08.07.06.11-.1,0-.14,0-.06.13-.08.19-.11,0-.14.09a1.91,1.91,0,0,1,0,.21.39.39,0,0,1-.2.16l-.07,0a.22.22,0,0,0-.06.05s0,.06,0,.1,0,.05,0,.06-.09.08-.1.13,0,0,0,.06l.06,0h0a0,0,0,0,1,0,0l.05,0,.1,0A.3.3,0,0,0,66.5,46a2.66,2.66,0,0,0,.4-.36c.13-.12.22-.3.36-.43a.64.64,0,0,1,.2-.16c.15,0,.11.12.05.19s0,.07-.07.1-.06,0-.09,0a.62.62,0,0,0-.09.12.74.74,0,0,1-.17.25c-.06.05-.13.07-.18.14a1.34,1.34,0,0,0-.11.21c0,.06,0,.12,0,.13s.13-.07.18-.14.19-.07.26-.11a.32.32,0,0,0,.1-.2s.08-.15.13-.15.09-.08.13-.13,0,0,.06-.06.21-.06.2.06a.39.39,0,0,1-.14.2,4.29,4.29,0,0,0-.36.48c-.1.17-.06.37-.17.55A2.31,2.31,0,0,1,67,47c-.06.06-.16.1-.23.16l-.17.22a1,1,0,0,1-.31.27.74.74,0,0,0-.13.12c0,.07-.13.12-.19.19a.82.82,0,0,1-.12.2c-.06.07-.13.1-.14.23s-.06,0-.11,0a.18.18,0,0,0-.07.05l-.07.11s-.1.08-.09.1.4-.18.44-.22.22-.23.34-.33c.29-.29.58-.58.86-.88s.49-.53.71-.8a2.46,2.46,0,0,0,.29-.39c.06-.1.09-.26.19-.32s.19,0,.27,0c.33-.14.54-.61.76-.87a14,14,0,0,0,1.51-2.69c0-.15.1-.49.42-.57s.18-.51.23-.7a1.76,1.76,0,0,1,.26-.76,2.65,2.65,0,0,0,.36-1.16,18.11,18.11,0,0,0,.73-5.34c0-.43,0-3-.71-3.77-.44-.5.06-1.11-.21-1.91-.07-.2.23-.28.29-.48a1,1,0,0,0-.52-1.22c-.3-.06-.68-.06-.78-.4a2.62,2.62,0,0,0-.12-1.37c-.16-.3-.42-1-2.41-2.57A20.37,20.37,0,0,1,66.58,20a8.68,8.68,0,0,0-1.49-1.48,3.24,3.24,0,0,0-1.34-1.08c-.28-.1-2.22-1.69-2.44-1.77-.83-.27-2.24-1.32-2.5-1.38-1.46-.36-2-1.18-2.52-1.24a3.44,3.44,0,0,1-2.18-.81A1,1,0,0,0,52.84,12c-.3.17-1.22-.67-2.53-.52-.28,0-.52-.46-1.52-.34a3.27,3.27,0,0,1-2-.65,14.43,14.43,0,0,0-3.32-.64h-.57a20.07,20.07,0,0,0-5.63-.06c-.46.12-6.22,1.55-6.75,1.85s-1.67.64-2,.78c-.63.28-3.08,1-3.15,1.33s-.45.15-.55.27a4.32,4.32,0,0,1-1.46,1,27,27,0,0,0-3.38,2.31c-.32.27-1.78,1.29-2,1.44m55.11,7.55a.5.5,0,0,0-.57-.35.22.22,0,0,0-.13.06.39.39,0,0,0-.08.1.61.61,0,0,0,0,.13.41.41,0,0,0,0,.16.6.6,0,0,0,.09.13l.1.11a.3.3,0,0,0,.21.15.09.09,0,0,0,.06,0h.08a.58.58,0,0,0,.24-.52M58.57,44c0-.08-.08,0-.14,0a.7.7,0,0,0-.28.42c.11.07.15-.09.21-.16s.21-.12.22-.23a0,0,0,0,0,0,0m.59.29a.07.07,0,0,0,0-.12c-.06,0-.17.07-.22.11l-.12.1a.28.28,0,0,0-.06.09s0,.06,0,.08a.32.32,0,0,1-.2.18.73.73,0,0,0-.3.07.28.28,0,0,0-.12.2.6.6,0,0,1-.08.2.64.64,0,0,1-.1.13s-.08.15,0,.21.21-.07.25-.12a2.53,2.53,0,0,0,.26-.22,3.69,3.69,0,0,0,.46-.5l.07-.07.21-.23a.6.6,0,0,1,.06-.11m6.53.81a.15.15,0,0,0-.19-.1c-.07,0-.13.1-.2.15l-.22.1a.86.86,0,0,0-.18.14c-.05.05-.14.2-.08.25s.15,0,.19,0,.12-.07,0-.1.11-.09.14-.1l.21,0,.19-.08s.12,0,.13-.1a.19.19,0,0,0,0-.12m-4.22.14c.05,0,0-.13,0-.13s-.19.06-.14.13.13,0,.17,0h0m.11.13h-.15a.17.17,0,0,1-.1,0s-.07,0-.09,0a.2.2,0,0,1-.06.17,1,1,0,0,1-.16.06.18.18,0,0,0-.13.12c0,.1.06.12.14.09h0a.38.38,0,0,0,.14-.14.8.8,0,0,1,.21-.15l.09-.07s.09,0,.07,0m-4.28.86c.08-.18.36-.4.19-.58s-.63.13-.87.35-.28.34-.07.51.56-.05.75-.28m7.2,0h0s0-.1,0-.14.08-.09.08-.13,0-.08-.05-.08-.13,0-.15,0a.12.12,0,0,0,0,.1V46s0,.15,0,.16m-4,0c.06,0,.05-.05.06-.09a.23.23,0,0,0,0-.16s-.08-.06-.11,0,0,.28.07.27m-.33.27s0-.06.07-.11,0,0,0-.08-.06-.1-.13-.08a.54.54,0,0,0-.16.1,1.73,1.73,0,0,1-.32.11h-.23s-.1,0-.12,0,0,.12,0,.15.22.12.33.12a.84.84,0,0,0,.3-.08,1.18,1.18,0,0,0,.21-.18m5.75.06h-.1a.16.16,0,0,0-.16.09c0,.05,0,.12.06.12s.08,0,.1-.06a.23.23,0,0,1,.07-.07s0,0,0-.07h0M59.21,47a.13.13,0,0,0,.09-.16c0-.07-.17,0-.21,0s0,.14.07.15h.05m-3.64,1a.57.57,0,0,1,0-.13.81.81,0,0,0,.12-.14c0-.08,0-.08-.1-.05l-.18.15c-.06,0-.07,0,0,.1a.24.24,0,0,0,.16.13c.06,0,0,0,0,0h0m9.64.72c-.08,0-.21.24-.1.25s.18-.24.1-.25m-.73.19c0-.06-.17-.07-.23-.07a.49.49,0,0,0-.22.09.37.37,0,0,0-.18.39.27.27,0,0,0,.19.15.32.32,0,0,0,.23-.08.42.42,0,0,0,.21-.48m-.6.81s0-.05-.06-.05a.13.13,0,0,0-.11,0l-.1,0s0,0,0,.08.12,0,.18,0l0,0s.07-.05.06-.07m-17-29.32c-.05-.24,0-.6-.15-.78s-.19,0-.27.08a1.11,1.11,0,0,0-.34.46.8.8,0,0,0-.11.62c0,.16-.14.29,0,.43a.25.25,0,0,0,.33,0,.57.57,0,0,0,.18-.12.6.6,0,0,0,.14-.21.86.86,0,0,0,.2-.48m-2.88,1a3.12,3.12,0,0,0-.29-.37c-.14-.12-.42-.11-.41.1a5.48,5.48,0,0,1,0,.75.59.59,0,0,0,0,.32c.12.31.57.32.72.33s0-.14.22-.15.05-.35-.06-.49a1.74,1.74,0,0,1-.2-.49m5.72.36c-.11-.17-1.1,0-1.16.07s-.43.15-.58.39.33.3.45.52c.27.15.55-.12.82-.2.09,0,.25-.08.21-.22s.22-.32.28-.51ZM43,23.61a.44.44,0,0,0-.07-.19c-.08-.07-.38,0-.65-.14a.88.88,0,0,0-.51,0c-.11,0-.28.08-.32.21a.93.93,0,0,0,.06.4,1.29,1.29,0,0,0,.4.21,1.14,1.14,0,0,0,.53,0c.08,0,.33,0,.47-.15a.46.46,0,0,0,.09-.32M48.18,25a5.54,5.54,0,0,0,.17-1,6.18,6.18,0,0,0-.12-.62c0-.22-.28-.36-.38-.56s-.53-.45-.62-.58-.41-.23-.63-.33a1.35,1.35,0,0,0-.72-.1c-.54,0-.84.61-1.34.75-.68.2-.77.86-1,1s-.12.31,0,.32,0,.41-.06.49a1.09,1.09,0,0,0-.11.67c0,.18.12.38.15.48s.11.18.1.27a.68.68,0,0,0,.09.4c.16.14.22,0,.44.12a1.84,1.84,0,0,1,.4.28c.42.34,1,.15,1.45.06A3.15,3.15,0,0,0,48.18,25m-1.24-1.32c0-.09-.3-.32-.37-.36a4.26,4.26,0,0,0-.49-.1c-.33-.11-.54.2-.8.24s-.19.15-.28.21c-.27.17-.48.86-.53,1a.52.52,0,0,0,.41.64,3,3,0,0,0,.66-.06,2.1,2.1,0,0,0,.84-.6c.16-.19.27-.42.42-.61s.15-.36.14-.38m3.15,1.45s-.28-.07-.36-.09L49.42,25a1,1,0,0,0-.58,0c-.06,0-.13,0-.19,0s-.2.14-.12.23.07,0,.06.1.15.22.19.26.06.07.11.1a1.76,1.76,0,0,0,.68.1.64.64,0,0,1,.27-.07c.17,0,.13-.22.25-.28s.18,0,.2-.1-.1-.18-.2-.21m-7.22,1.21c0-.2-.15-.31-.35-.26-.38.15-.93.23-1,.71a.31.31,0,0,0,.25.26,2.28,2.28,0,0,0,.37,0,2.44,2.44,0,0,0,.36-.15c.1-.07.21-.11.31-.17s.2-.19.13-.3-.05-.07-.05-.09m4.69.81s-.19,0-.23-.05a.6.6,0,0,0-.26-.05.1.1,0,0,0-.06.13c0,.1-.1.11-.07.24s0,.08,0,.12,0,.07.07.11a.76.76,0,0,1,.05.32.45.45,0,0,0,.07.23c.06.1.16.1.24.12a.74.74,0,0,0,.28.06.21.21,0,0,0,.1-.09c.07-.14.29-.19.23-.37a1.67,1.67,0,0,0-.11-.44,1.22,1.22,0,0,0-.31-.33m-2.42.45c-.1-.05-.18-.2-.32-.19s-.56.7-.53,1.16c0,.06.06.12.09.16a.28.28,0,0,0,.33.11c.06,0,.09-.11.14-.17a2.31,2.31,0,0,0,.29-.45.62.62,0,0,0,0-.62M59.86,50.8a.08.08,0,0,1,.08,0l.06.05s0-.08,0-.11a.09.09,0,0,0-.13-.06l-.08,0a.16.16,0,0,1-.1,0,.18.18,0,0,1-.1,0,.8.8,0,0,0-.16-.08s-.06,0-.07,0,0,.07,0,.1a.16.16,0,0,0,0,.1s0,0,0,.05,0,.09,0,.12a.11.11,0,0,0,0,.06v.07c-.06.1-.1.2,0,.24a.3.3,0,0,0,.36-.1c.07-.12-.05-.4.08-.47m-3.21-2.56a.5.5,0,0,0,.12,0s.09-.08.12-.11,0-.07,0-.13.1-.2,0-.28-.18.12-.21.17-.23,0-.29.15,0,.11,0,.14,0,.1,0,.12.1,0,.17,0m3.06-4.52s-.09,0-.09.08.05.06.1,0,.13-.1.09-.14-.09,0-.1,0m3.14.86s-.24,0-.23.1.29,0,.23-.1m.39-1c-.05,0-.11-.15-.17,0s-.06.12,0,.16a.2.2,0,0,0,.23,0c.06,0,.12-.11,0-.15a.08.08,0,0,0-.09,0m-1.42-.41c-.06,0-.18.1-.22.14a2.12,2.12,0,0,0-.35.44c0,.09-.12.11-.19.18S61,44,61,44s.14,0,.18,0a.31.31,0,0,0,.12-.09s.08,0,.11-.07,0-.05.07-.08l.1-.09.09-.08.13-.18s.08-.16,0-.2h0m2.45,0h-.12c-.15,0-.14-.09-.18.09s0,.33,0,.33.18-.15.22-.2.19-.22.08-.21m.39.79a.31.31,0,0,0-.25,0s-.08.06-.14.08a.37.37,0,0,0-.12.07s0,.09,0,.12a.25.25,0,0,0,.15,0c.08,0,.18,0,.25,0s.2-.19.12-.21m-4.48.46c-.11,0-.31.37-.14.33l.15-.16s.11-.19,0-.17m-.46.47c0-.06-.19.15-.29.23s-.29.13-.13.25.25-.08.3-.17.19-.25.12-.31m4,.12s-.05.05-.05.08a.33.33,0,0,0,0,.1s.05.05.06.06h.09s.08,0,0-.1,0-.06-.07-.09-.07-.09-.08-.05m0,.44a1,1,0,0,0-.7.18c-.12.16,0,.34.18.39a.35.35,0,0,0,.33-.05c.08,0,.08-.18.15-.24s.18-.06.19-.15-.06-.12-.15-.13m2.9,1c-.12.06-.35.19-.31.4.1,0,.46-.46.31-.4m-3.54-.27c-.08,0-.23-.16-.25,0s.21.06.31.05,0,0,0,0,0,0-.06,0M54,48.26c-.07-.08-.2,0-.25.05a.13.13,0,0,1-.11.06s-.12,0-.16,0,0,.08.07.09l.16,0c.12,0,.21,0,.28-.1s0-.09,0-.14m-.94.37c0-.06,0,0-.07,0s-.08,0-.13,0a.11.11,0,0,0-.1.05s-.05.09,0,.12.1,0,.13,0a.29.29,0,0,1,.1,0c.11,0,.13-.07.09-.15m4-.48-.16.16a.08.08,0,0,0,0,.1c0,.06.11,0,.13,0s.1,0,.15,0,.06-.06.1-.09.19-.12.21-.21-.18,0-.22,0a.83.83,0,0,0-.17.12m.1.79a.3.3,0,0,0,.23.19c.07,0,.27.06.27-.06s0-.08,0-.1,0-.06-.1,0a.22.22,0,0,1-.16,0c-.07,0-.17-.18-.2-.14a.23.23,0,0,0,0,.17m.52-.2s0,.08.09.12.12,0,.21-.18.13-.11.1-.17-.41.05-.4.23m.39.42.11-.08a.62.62,0,0,0,.2-.16s.06-.17,0-.14-.15.13-.23.17-.37.19-.37.28.09.05.11.05,0,0,.08-.07.05,0,.09-.05m.12.11s-.06,0-.1,0l-.13.06s-.05,0-.06.06,0,.07.06.1a.2.2,0,0,0,.14.06.06.06,0,0,0,0-.1s0,0,0-.05a.13.13,0,0,1,.06,0s0-.06,0-.09,0,0,0,0m-.3.34s0,0-.06,0l-.07,0s-.11.07-.08.12h.19s0,0,0-.05a.09.09,0,0,0,0-.07s0,0,0,0m2.59,1.22c-.06,0-.1,0-.13.1s0,.11,0,.11a1.7,1.7,0,0,0,.35-.14s.25-.16.19-.16a.63.63,0,0,0-.44.09h0m-3-.18c0,.06-.18.16-.19.25s.16.12.27.13a.91.91,0,0,0,.82-.13.44.44,0,0,0,.07-.4c-.09-.15-.2,0-.32,0s-.46-.13-.65.16M62,50.27s0,0,0,.06a.12.12,0,0,0,.1.07.7.7,0,0,1,.27.14s.07.1.13.12a.11.11,0,0,0,.14-.11s0-.08,0-.12a.11.11,0,0,0,0-.1.26.26,0,0,0-.23-.13.58.58,0,0,0-.19,0,.23.23,0,0,1-.11,0s-.11,0-.15,0"/><path class="cls-1" d="M8,89.92l0-4.33H9.52a13.43,13.43,0,0,0,2.41-.15,3.3,3.3,0,0,0,1.21-.53,3.16,3.16,0,0,0,1-1.12,3.69,3.69,0,0,0,.4-1.78,3.47,3.47,0,0,0-.65-2.24,3,3,0,0,0-1.63-1.14,13.32,13.32,0,0,0-2.77-.2l-3.72,0L5.65,89.9Zm1.2-9.54a10.67,10.67,0,0,1,1.68.1,1.69,1.69,0,0,1,.93.51,1.71,1.71,0,0,1,.08,1.93,1.45,1.45,0,0,1-.72.56,5.91,5.91,0,0,1-1.84.16H8l0-3.26Zm6.7,5.33a4.93,4.93,0,0,0,.53,2.43A3.47,3.47,0,0,0,18,89.68a4.83,4.83,0,0,0,2.17.53A4.15,4.15,0,0,0,23.22,89a4.34,4.34,0,0,0,1.23-3.12,4.16,4.16,0,0,0-4.25-4.37A4.52,4.52,0,0,0,18,82a3.79,3.79,0,0,0-1.55,1.55,4.7,4.7,0,0,0-.56,2.13m2.25.13A2.77,2.77,0,0,1,18.73,84a1.86,1.86,0,0,1,1.46-.65,1.84,1.84,0,0,1,1.43.67,2.65,2.65,0,0,1,.57,1.88,2.78,2.78,0,0,1-.6,1.91,1.9,1.9,0,0,1-2.89,0,2.72,2.72,0,0,1-.58-1.9m10.15,1.68a12.31,12.31,0,0,1,.22-2.78,1.73,1.73,0,0,1,.51-.92,1.18,1.18,0,0,1,.78-.25,2,2,0,0,1,1,.37L31.51,82a2.75,2.75,0,0,0-1.45-.43,1.72,1.72,0,0,0-.95.26A3.6,3.6,0,0,0,28.16,83V81.77l-2,0-.08,8.33h2.2Zm10.79,2.67.09-11.49-2.2,0-.1,11.49ZM43,84.44a1.71,1.71,0,0,1,.54-.81,1.67,1.67,0,0,1,.92-.22,1.78,1.78,0,0,1,1.18.28,1.13,1.13,0,0,1,.31.9v.23a11.55,11.55,0,0,1-2.14.51,7.3,7.3,0,0,0-1.76.51,2.14,2.14,0,0,0-.95.83,2.37,2.37,0,0,0-.35,1.26,2.28,2.28,0,0,0,.73,1.77,2.83,2.83,0,0,0,2,.72,3.52,3.52,0,0,0,1.37-.27,4.32,4.32,0,0,0,1.22-.81s0,.13.07.26a4.15,4.15,0,0,0,.21.65l2.17,0a4.78,4.78,0,0,1-.38-1.12,8.27,8.27,0,0,1-.1-1.62l0-2.57a4.75,4.75,0,0,0-.27-2,2.16,2.16,0,0,0-1-.89,5,5,0,0,0-2.18-.37,4.29,4.29,0,0,0-2.46.55A3.1,3.1,0,0,0,41,84.06l2,.38m2.93,2.25a5.33,5.33,0,0,1-.09,1.07,1.42,1.42,0,0,1-.54.73,2,2,0,0,1-1.14.38,1.22,1.22,0,0,1-.87-.35,1.08,1.08,0,0,1-.34-.8.91.91,0,0,1,.44-.77,4,4,0,0,1,1.2-.37c.62-.13,1.06-.24,1.34-.33Zm16.38-1.47a6.38,6.38,0,0,0-.11-1.48,2.34,2.34,0,0,0-.43-.93,2.21,2.21,0,0,0-.9-.68,3.23,3.23,0,0,0-1.33-.27,3.35,3.35,0,0,0-2.76,1.38V82l-2,0-.07,8.33h2.2l0-3.77a7.61,7.61,0,0,1,.18-1.91,1.66,1.66,0,0,1,.63-.82,1.79,1.79,0,0,1,1-.31,1.34,1.34,0,0,1,.76.23,1.2,1.2,0,0,1,.45.62,7,7,0,0,1,.13,1.75l0,4.24,2.21,0ZM66.78,81l0-2-2.21,0v2Zm-.08,9.45.07-8.32-2.2,0-.08,8.32Zm9.86-5.09a6.59,6.59,0,0,0-.1-1.48,2.47,2.47,0,0,0-.42-.93,2.18,2.18,0,0,0-.91-.68,3.42,3.42,0,0,0-4.08,1.11V82.14H69l-.07,8.31,2.2,0,0-3.77a7,7,0,0,1,.19-1.91A1.53,1.53,0,0,1,72,84a1.78,1.78,0,0,1,1-.3,1.27,1.27,0,0,1,.77.23,1.21,1.21,0,0,1,.44.61,6.36,6.36,0,0,1,.14,1.75l0,4.24,2.19,0ZM71.12,81a.73.73,0,0,1,.15-.53.48.48,0,0,1,.4-.16,3.78,3.78,0,0,1,1,.29c.48.19.78.29.89.33a2.44,2.44,0,0,0,.52.06,1.25,1.25,0,0,0,1-.45,2.35,2.35,0,0,0,.42-1.51h-1a.9.9,0,0,1-.22.52.6.6,0,0,1-.42.15,2.57,2.57,0,0,1-1-.29,7.06,7.06,0,0,0-.86-.34,2,2,0,0,0-.51-.06,1.3,1.3,0,0,0-1,.43,1.84,1.84,0,0,0-.42,1.27c0,.06,0,.15,0,.28h1m12.48,6.9a1.71,1.71,0,0,1-.54.9,1.29,1.29,0,0,1-.87.27,1.68,1.68,0,0,1-1.27-.55A2.21,2.21,0,0,1,80.4,87l5.52,0a5.5,5.5,0,0,0-1-3.77A3.73,3.73,0,0,0,82,82.05a3.55,3.55,0,0,0-2.75,1.15,4.63,4.63,0,0,0-1.11,3.23,4.91,4.91,0,0,0,.79,2.87,3.73,3.73,0,0,0,3.21,1.45,3.88,3.88,0,0,0,2.29-.61,3.67,3.67,0,0,0,1.35-1.82l-2.19-.39m-3.15-2.25a2.07,2.07,0,0,1,.47-1.43,1.53,1.53,0,0,1,1.2-.51,1.49,1.49,0,0,1,1.14.5,2.15,2.15,0,0,1,.49,1.46Zm13.77,5,0-1.94-3.41,0-1.14,0,1.14-1.21,3.22-3.64V82.35l-6.89-.07v1.83H90.1l1,0c-.25.24-.63.65-1.15,1.23l-3.15,3.56,0,1.71Zm13.26-5.75a3.72,3.72,0,0,0-1.29-2,4,4,0,0,0-2.4-.67,3.88,3.88,0,0,0-3,1.12,5.21,5.21,0,0,0-.06,6.4,3.81,3.81,0,0,0,2.9,1.18,4,4,0,0,0,2.56-.74A3.76,3.76,0,0,0,107.56,88l-2.16-.38a2.28,2.28,0,0,1-.57,1.22,1.5,1.5,0,0,1-1,.34,1.62,1.62,0,0,1-1.33-.62,3.3,3.3,0,0,1-.46-2.1,2.84,2.84,0,0,1,.49-1.89A1.6,1.6,0,0,1,103.8,84a1.48,1.48,0,0,1,1,.33,1.59,1.59,0,0,1,.49,1l2.18-.37m1.14,1.6a5.07,5.07,0,0,0,.51,2.43,3.54,3.54,0,0,0,1.58,1.53,4.85,4.85,0,0,0,2.18.54A4.11,4.11,0,0,0,116,89.8a4.6,4.6,0,0,0,.07-6.23,4.18,4.18,0,0,0-3.09-1.25,4.57,4.57,0,0,0-2.22.52,3.79,3.79,0,0,0-1.55,1.55,4.53,4.53,0,0,0-.55,2.13m2.25.13a2.78,2.78,0,0,1,.61-1.89,1.91,1.91,0,0,1,2.9,0,2.8,2.8,0,0,1,.56,1.88,2.83,2.83,0,0,1-.59,1.91,1.87,1.87,0,0,1-1.46.64,1.85,1.85,0,0,1-1.45-.67,2.77,2.77,0,0,1-.57-1.9m10.24,4.25.08-11.49-2.19,0-.11,11.49Zm1.77-4.26a5,5,0,0,0,.53,2.44A3.43,3.43,0,0,0,125,90.6a4.72,4.72,0,0,0,2.18.54,4.11,4.11,0,0,0,3.07-1.21,4.27,4.27,0,0,0,1.24-3.12,4.16,4.16,0,0,0-4.26-4.37A4.64,4.64,0,0,0,125,83a3.63,3.63,0,0,0-1.53,1.55,4.41,4.41,0,0,0-.57,2.12m2.26.13a2.72,2.72,0,0,1,.61-1.88,1.85,1.85,0,0,1,1.45-.65,1.82,1.82,0,0,1,1.43.67,2.65,2.65,0,0,1,.57,1.88,2.77,2.77,0,0,1-.6,1.91,1.93,1.93,0,0,1-2.89,0,2.75,2.75,0,0,1-.57-1.91M133,91l2.21,0,0-4a5.62,5.62,0,0,1,.19-1.71,1.45,1.45,0,0,1,.59-.79,1.63,1.63,0,0,1,.92-.27,1.21,1.21,0,0,1,.67.18,1,1,0,0,1,.36.53,7,7,0,0,1,.11,1.57l0,4.56,2.21,0,0-4a5.49,5.49,0,0,1,.2-1.72,1.46,1.46,0,0,1,.59-.81,1.51,1.51,0,0,1,.88-.28,1.11,1.11,0,0,1,.94.47,3.76,3.76,0,0,1,.2,1.61l0,4.75,2.2,0,0-5.32a4.65,4.65,0,0,0-.2-1.72,2.15,2.15,0,0,0-.95-1.1,3.07,3.07,0,0,0-2.9-.07,4,4,0,0,0-1.2,1,2.53,2.53,0,0,0-.94-1,2.81,2.81,0,0,0-1.39-.35,3.31,3.31,0,0,0-2.61,1.31V82.7l-2,0Zm16.38.14,0-1.23A3.25,3.25,0,0,0,150.57,91a3.11,3.11,0,0,0,3.88-.77A4.77,4.77,0,0,0,155.5,87a4.56,4.56,0,0,0-1-3.17A3.26,3.26,0,0,0,152,82.66a3.1,3.1,0,0,0-2.42,1.14l0-4.14-2.2,0-.11,11.49Zm.19-4.34a2.82,2.82,0,0,1,.54-1.87,1.65,1.65,0,0,1,1.32-.6,1.6,1.6,0,0,1,1.32.65,3.21,3.21,0,0,1,.49,2.05,3,3,0,0,1-.52,2,1.59,1.59,0,0,1-1.26.62,1.75,1.75,0,0,1-1.5-.9,3.39,3.39,0,0,1-.39-1.91m9.95-5,0-2-2.21,0v2Zm-.08,9.45.07-8.33-2.2,0-.06,8.32Zm4-5.76a1.6,1.6,0,0,1,.53-.8,1.57,1.57,0,0,1,.92-.22,1.86,1.86,0,0,1,1.18.28,1.13,1.13,0,0,1,.32.9v.22a11.3,11.3,0,0,1-2.15.52,7.74,7.74,0,0,0-1.76.51,2.17,2.17,0,0,0-.94.83,2.34,2.34,0,0,0-.35,1.26,2.3,2.3,0,0,0,.72,1.76,2.84,2.84,0,0,0,2,.72,3.31,3.31,0,0,0,1.37-.26,3.88,3.88,0,0,0,1.22-.81s0,.12.08.26.16.5.2.65l2.18,0a4.84,4.84,0,0,1-.39-1.12,9.61,9.61,0,0,1-.08-1.62l0-2.57a4.42,4.42,0,0,0-.28-2,2.32,2.32,0,0,0-1-.89,5.46,5.46,0,0,0-2.2-.37,4.24,4.24,0,0,0-2.44.56,3.05,3.05,0,0,0-1.18,1.78l2,.37m2.93,2.26a3.88,3.88,0,0,1-.11,1.07,1.35,1.35,0,0,1-.53.73,2,2,0,0,1-1.13.38,1.23,1.23,0,0,1-.88-.35,1.12,1.12,0,0,1-.34-.8.89.89,0,0,1,.44-.77,4,4,0,0,1,1.2-.38c.61-.12,1.06-.23,1.35-.32Zm11.91-1.51a7.23,7.23,0,0,0-.11-1.49,2.36,2.36,0,0,0-.43-.92,2.12,2.12,0,0,0-.91-.68,3.31,3.31,0,0,0-1.32-.28,3.35,3.35,0,0,0-2.75,1.39V83l-2,0-.08,8.32,2.22,0,0-3.77a6.79,6.79,0,0,1,.18-1.91,1.55,1.55,0,0,1,.63-.82,1.7,1.7,0,0,1,1-.3,1.29,1.29,0,0,1,.77.22,1.21,1.21,0,0,1,.45.61,7.08,7.08,0,0,1,.13,1.75l0,4.25,2.2,0Zm3.88-.58a1.58,1.58,0,0,1,.54-.8,1.55,1.55,0,0,1,.92-.23,1.84,1.84,0,0,1,1.18.28,1.1,1.1,0,0,1,.3.91V86a12.41,12.41,0,0,1-2.14.52,7.81,7.81,0,0,0-1.76.5,2.13,2.13,0,0,0-.94.84,2.2,2.2,0,0,0-.35,1.25,2.3,2.3,0,0,0,.72,1.77,2.79,2.79,0,0,0,2,.71,3.6,3.6,0,0,0,1.38-.26,4.14,4.14,0,0,0,1.21-.81,1.78,1.78,0,0,1,.07.25c.08.3.16.52.21.66l2.18,0a4.36,4.36,0,0,1-.38-1.12,9.15,9.15,0,0,1-.1-1.62l.05-2.57a4.72,4.72,0,0,0-.27-2,2.21,2.21,0,0,0-1-.89,5.34,5.34,0,0,0-2.19-.38,4.27,4.27,0,0,0-2.44.56,3.08,3.08,0,0,0-1.18,1.78l2,.38M185,87.9a4.14,4.14,0,0,1-.09,1.07,1.4,1.4,0,0,1-.53.73,2,2,0,0,1-1.14.38,1.18,1.18,0,0,1-.87-.34,1.1,1.1,0,0,1-.34-.81.91.91,0,0,1,.44-.77,3.93,3.93,0,0,1,1.2-.37c.62-.13,1.06-.24,1.34-.32Z"/></g></g></svg>