<?xml version="1.0" encoding="utf-8"?>
<!-- Generator: Adobe Illustrator 22.0.0, SVG Export Plug-In . SVG Version: 6.00 Build 0)  -->
<svg version="1.1" id="Capa_1" xmlns="http://www.w3.org/2000/svg" xmlns:xlink="http://www.w3.org/1999/xlink" x="0px" y="0px"
	 viewBox="0 0 192 91.6" style="enable-background:new 0 0 192 91.6;" xml:space="preserve">
<style type="text/css">
	.st0{fill:#6400DA;}
	.st1{fill:#FF6500;}
	.st2{fill:#FFFFFF;}
	.st3{fill:#FFD600;}
	.st4{fill:#005693;}
	.st5{fill:#34A836;}
	.st6{fill-rule:evenodd;clip-rule:evenodd;fill:#FFFFFF;}
	.st7{opacity:0.39;}
	.st8{fill:none;stroke:#FFFFFF;stroke-width:2.9784;stroke-linecap:round;stroke-linejoin:round;}
	.st9{fill:#C6433E;}
	.st10{fill:#E20613;}
	.st11{fill:#FCD570;}
	.st12{fill:#FCCD56;}
	.st13{fill:#F5BB41;}
	.st14{fill:#FDE19A;}
	.st15{fill:#FCD879;}
	.st16{fill:#FCD05E;}
	.st17{fill:#F6C55B;}
	.st18{fill:#F7B056;}
	.st19{fill:#F59B45;}
	.st20{fill-rule:evenodd;clip-rule:evenodd;fill:#FFC700;}
	.st21{fill:#F4EBC6;}
	.st22{fill:#B9B295;}
	.st23{fill:#0E0E0E;}
	.st24{fill:#884D30;}
	.st25{fill:#3F0D0B;}
	.st26{fill:#A86C0E;}
	.st27{fill:#F09915;}
	.st28{opacity:0.4;fill:#FFFFFF;}
	.st29{fill:#DCDDEE;}
	.st30{fill:#A5A3A9;}
	.st31{fill:#000922;}
	.st32{fill:#FFFFC7;}
	.st33{fill:#8BBFCB;}
	.st34{fill:#B3D5DD;}
	.st35{fill:#00AEEF;}
	.st36{fill:#008FEF;}
	.st37{fill:#4E82B0;}
	.st38{fill:#5A93B5;}
	.st39{fill:none;stroke:#003142;stroke-width:2.4444;stroke-miterlimit:10;}
	.st40{fill:#252D42;}
	.st41{fill:#00090C;}
</style>
<g>
	<g>
		<path class="st6" d="M4.3,68.6c0,0.6-0.8,0.6-0.9,1.1c0,0-0.2,0.1-0.3,0.1c-1.6-0.4-2.2-1.1-2.4-2.7c0-0.2,0.2-0.7-0.5-0.6
			c-0.3,0-0.3-0.5-0.1-0.6c0.8-0.2,0.9-1,1.6-1.4c0.4-0.2,0.1-0.3-0.2-0.4c-1.4-0.8-1.5-1.7-0.1-2.7c0.5-0.4,0.6-0.8,0-1
			c-0.7-0.3-0.5-0.8-0.3-1c0.2-0.4,0.5-0.6,0-0.9c-0.2-0.1,0-0.3,0.3-0.4c1.1-0.3,1.1-0.9,0.4-1.7c-0.4-0.4-0.9-1.1-0.1-1.6
			C2.1,54.7,2,54.4,2,54.2c0-0.9-0.4-1.8-0.2-2.8c0-0.1,0-0.2-0.2-0.3c-1-0.6-0.5-1.1,0.2-1.6c-1-0.7-1.1-1.7-0.3-2.6
			c0,0,0.1-0.1,0.1-0.1c-0.5-1.2,0.6-2.1,0.6-3.3c0-1.1-1.2-1.9-0.9-3c0.1-0.3-0.1-0.7,0.4-0.8C1.9,39.5,2,39.3,1.8,39
			c-0.3-0.5-0.1-1,0.7-1.1c-0.9-0.5-1-1-0.4-1.6c0.3-0.3,0.3-0.6,0-0.9c-0.7-0.7-0.8-1.3-0.1-2c0.1-0.1,0.2-0.1,0.2-0.2
			c-0.5-1.6,0.2-3.1,0.3-4.7c0.1-1.3-1.2-2.3-0.8-3.6c0.1-0.2-0.1-0.3-0.4-0.3c-0.2,0-0.4-0.3-0.3-0.3C1.6,24,1.4,23.2,2,23
			c1-0.5,1.2-1,0.3-1.7c-0.4-0.3-0.7-0.4,0.1-0.7c0.9-0.4,0.9-1.9,0.2-2.7c-0.4-0.4-0.3-0.9,0-1.2c0.4-0.4,0.5-0.8-0.1-1.1
			c-0.1-0.1-0.2-0.2-0.2-0.2c0.9-0.8-0.8-1.6,0.2-2.5c0.8-0.7-0.3-2,0.6-2.9c0.3-0.3-0.2-0.3-0.3-0.5c-0.3-0.5-0.6-1,0.5-1.1
			c0.2,0,0.5,0.2,0.6-0.2c0-0.3,0-0.7-0.3-0.8C2.8,7.2,2.9,6.8,3,6.5C3,6,3.5,6.2,3.8,6.2C4.9,6.2,5.9,6.3,6.1,5
			c0.1-0.4,0.5-0.2,0.8-0.3c3.8-0.1,7.6-0.2,11.4-0.1c1.3,0,2.7-0.4,4.1,0C22.6,4.7,23.2,3.9,24,4c0.4,0.1,0.9-0.2,1.2,0.5
			c0.2,0.4,1.4,0.3,1.6,0.1c0.4-0.6,0.9-0.3,1.4-0.3c1.2,0,2.4,0,3.6,0c0.3,0,0.3,0,0.5-0.2c0.3-0.4,0.9-0.5,1.1,0.1
			c0.2,0.4,0.6,0.4,0.7,0.3c1.6-0.8,3.4-0.2,5-0.4c0.8-0.1,1.6,0.2,2.3-0.4c0.2-0.1,0.7-0.1,1,0.1c0.4,0.3,0.8,0.8,1.3,0
			c0.1-0.3,0.6-0.1,0.8,0.2c0.3,0.5,0.7,0.5,1.1,0.1C45.8,3.9,46.1,4,46.4,4c1.2,0,2.4,0,3.6,0c0.2,0,0.6,0.3,0.7-0.2
			c0-0.3,0.5-0.2,0.6-0.2c1.3,0.9,2.6-0.4,3.9,0c1.4,0.4,3,0.3,4.5,0.3c0.7,0,1.4,0.2,2-0.4c0.1-0.1,0.5-0.1,0.6,0
			c1,0.9,1.9-0.3,2.9,0c1.1,0.3,2.4,0.2,3.6,0.3c0.4,0,0.9,0.2,1.1-0.4c0.1-0.3,2.1-0.1,2.4,0.3c0.5,0.5,1.5,0.5,2,0
			c0.2-0.2,0.5-0.2,0.8-0.2c1,0,2.1,0,3.2,0.2C78.6,3.7,79.4,4,80,3.2c0.3-0.4,1.4-0.2,2-0.1c0.5,0.1,1,0.2,1.5,0.2
			c3.1-0.1,6.1,0.4,9.2,0.3c0.4,0,1,0.2,1.1-0.4c0-0.2,0.3-0.2,0.6,0c0.6,0.6,0.9,0.6,1.4,0.1c0.2-0.2,0.2-0.1,0.4-0.1
			c0.9,0.2,2.1-0.3,2.7,0.7c0,0.1,0.3,0.1,0.3,0.1c1.2-1.1,2.6-0.3,3.9-0.4c0.9-0.1,2.2,0.3,2.7,0c0.8-0.4,1.2-0.3,1.7,0.2
			c0.1,0.1,0.5,0,0.5-0.1c0.3-0.6,0.6-0.9,0.9,0c0,0.1,0.4,0.1,0.4,0.1c0.8-1.2,2.2-0.6,3.1-0.5c3.2,0.3,6.5,0.3,9.7,0.5
			c1.1,0.1,2.2,0.1,3.3,0.1c0.5,0,1.1,0.3,1.3-0.5c0.1-0.1,0.8-0.4,1.1,0.2c0.2,0.4,0.8,0.5,1.2,0.2c0.8-0.6,1.1-0.6,1.6,0.3
			c0.6-0.4,1.1-1.3,1.8-0.1c0.1,0.2,0.6,0.4,1,0.1c0.9-0.5,1.8-0.8,2.6,0.1c0.1,0.2,0.3,0.1,0.5,0c1.1-0.7,2.9-0.8,3.9,0
			c0.3,0.2,0.5,0.1,0.8-0.1c0.4-0.2,1.2-0.6,1.4,0.3c0.1,0.4,0.5,0.3,0.7,0.3c2.7,0,5.4,0,8.1,0.1c0.1,0,0.2,0,0.2,0
			c0.7-0.6,1.5-0.2,2.2-0.2c0.3,0,1,0.3,1-0.5c0-0.2,0.6-0.2,0.9-0.1c0.9,0.5,1.7,0.4,2.4-0.2c0.1-0.1,0.2-0.2,0.5,0
			c0.4,0.4,1,0.3,1.3-0.2c0.1-0.2,1.1-0.3,1.2-0.1c0.1,0.3,0.6,0.4,0.6,0.4c0.9,1.5,1.1,0,1.2-0.3c0.5-0.9,1.3-0.6,1.8-0.4
			c0.5,0.2,1.1,0.3,1.4,0.1c1.6-1,3.4-0.8,5.1-0.9c3.6-0.2,7.1-0.6,10.7-0.8c0.2,0,0.5,0,0.5-0.1c0.3-1.4,1.7-0.5,2.5-0.9
			c0.5-0.2,1-0.4,1.5-0.5c1.5-0.5,3.1-0.4,4.6-0.3c0.4,0,0.2,0.5,0.3,0.7c0.2,0.3,0.5-0.3,0.6,0.1c0.1,0.5-0.6,0.3-0.6,0.4
			c-0.1,0.9-1.2,1.2-1.4,1.8c-0.2,0.6-0.3,1.6,0.3,2.1c0.7,0.7,0.6,1.5,0.3,2.2c-0.2,0.5-0.1,0.9-0.1,1.3c-0.2,0.9,0.5,1.7-0.2,2.6
			c-0.1,0.2-0.8,1.3,0.6,1.3c0,0,0.1,0.3,0.1,0.5c-0.3,0.8-0.4,1.5-0.5,2.3c-0.2,1.2-0.4,1.3,0.4,2.3c0.1,0.2,0.2,0.6,0,0.7
			c-0.6,0.5-0.2,1.3-0.9,1.7c0,0,0,0.1-0.1,0.1c-0.5,0.6,0.8,0.7,0.4,1.3c-0.4,0.5-0.4,0.9,0.2,1.3c0.2,0.1,0.3,0.3,0.2,0.3
			c-1,0.5,0,1.5-0.8,2c-0.1,0-0.1,0.2-0.1,0.3c1.2,0.2,0.4,1.1,0.7,1.6c0.1,0.2,0.1,0.5-0.3,0.7c-0.3,0.1-0.3,0.4-0.3,0.6
			c0.2,1,0.4,2,0.1,3.1c-0.1,0.3,0.3,0.9,0.4,1.4c0.4,1.3,0,2.6-0.2,3.9c-0.1,0.8,0.1,1.6,0.2,2.5c0.1,0.4,0.4,0.9-0.4,1.1
			c-0.3,0.1-0.1,0.4-0.1,0.7c0.3,1.7,0.9,3.4,0.5,5c-0.3,1.2,0.4,2.5-0.7,3.5c-0.1,0.1-0.2,1,0.3,1.2c0.5,0.2,0.4,0.4,0.5,0.7
			c0.2,0.7,0.1,1.2-0.6,1.6c-0.3,0.2-0.6,0.3,0,0.5c0.3,0.1,0.3,0.2,0.4,0.4c0,0.6-0.7,1.3,0.2,1.9c0.1,0.1,0.1,0.5-0.2,0.5
			c-1.1,0.1-0.8,0.7-0.8,1.3c0,0.4,0,0.8-0.3,1.2c-0.3,0.3-0.3,1,0.3,1.6c0.6,0.5,0.7,1.5,0.4,2.1c-0.2,0.4-0.3,0.7-0.3,1.1
			c0,1.1-0.6,2.1-0.2,3.2c0.1,0.2-1,0.6-1.3,0.5c-0.7-0.3-1.7-0.1-1.8,0.3c-0.2,0.7-0.6,0.6-1.1,0.6c-1.2,0-2.4,0-3.7,0.1
			c-1.3,0.2-2.6-0.3-4-0.2c-0.8,0.1-1.6,0-2.3,0.6c0,0-0.5,0.4-0.8-0.1c-0.2-0.3-2.4-0.3-2.7,0c-1,0.7-1.1,0.6-2.6,0.2
			c-0.3-0.1-1.4-0.3-1.7,0.5c-0.1,0.3-0.4,0.4-0.7,0.4c-0.6,0-1.2,0.1-1.9,0.2c-0.4,0.1-0.9,0.2-1.3-0.4c-0.4-0.6-1.4,0-2.1,0.1
			c-0.8,0.1-1.2,0.2-1.2-0.7c0-0.5-0.5-0.5-0.9-0.5c-4,0-8.1-0.1-12.1-0.1c-0.3,0-0.8-0.1-0.7,0.4c0.1,0.7-0.5,0.7-1,0.6
			c-5.3-0.3-10.7-0.3-16-0.7c-0.5,0-1.1-0.3-1.5,0.5c-0.1,0.3-1.1,0.3-1.5,0c-0.7-0.7-1.4-0.6-2.2-0.2c-0.1,0.1-0.2,0.1-0.4,0
			c-1.4-0.7-1.3-0.7-2.9,0c-0.4,0.2-1.2,0.3-1.6-0.2c-0.3-0.5-0.9-0.5-1.1-0.3c-0.9,0.7-2,0.2-2.9,0.3c-0.6,0.1-0.3-0.6-0.8-0.7
			c-0.6-0.1-1,0.4-1.4,0.4c-2.1,0-4.2,0-6.3-0.1c-0.5,0-1.1,0-1.5-0.5c-0.3-0.4-0.5,0.3-0.9,0.3c-1.4,0-2.8,0.1-4.2-0.1
			c-1.7-0.3-3.5-0.3-5.2-0.1c-0.8,0.1-1.6,0.3-2.4,0.3c-0.5,0-1,0.1-1.2-0.4c-0.1-0.3-0.6-0.3-0.6-0.1c0,1-0.8,0.5-1.1,0.4
			c-1.3-0.2-2.6-0.2-3.9-0.2c-0.2,0-0.5-0.1-0.7,0.2c-0.3,0.3-0.5,0.4-0.6-0.1c0,0-0.3-0.1-0.4-0.1c-1.3,0.8-2.8,0.1-4.2,0.3
			c-0.2,0-0.5,0-0.5-0.3c-0.1-0.5-0.6-0.4-0.8-0.3c-1,0.7-2.1,0.3-3.1,0.4c-0.4,0-1-0.1-1.2,0.4c0,0.1-0.2,0.1-0.3,0.1
			c-1.6-1-3.2,0.3-4.8-0.1c-0.2-0.1-0.4,0-0.5,0.3c-0.1,0.5-0.4,0.3-0.6,0c-0.5-0.6-0.6-0.6-0.8-0.1c-0.2,0.5-0.4,0.3-0.8,0.2
			c-2.1-0.2-4.2-0.4-6.2-0.1c-1.5,0.2-2.9,0.4-4.2,0.2c-1.7-0.2-3.4-0.3-4.9-0.1c-1.4,0.2-2.7,0.3-4.1,0.3c-0.7,0-1.4,0.1-2.1-0.2
			c-0.2-0.1-0.6,0-0.8,0.1c-1,1-2.3,0.4-3.4,0.4c-0.6,0-1.3-0.4-1.9,0.2c-0.1,0.1-0.4,0.1-0.5-0.1c-0.3-0.4-0.5-0.5-0.8,0
			c0,0.1-0.3,0.1-0.4,0.1c-1.3-0.5-2.6,0.3-3.9,0c-1.2-0.3-2.3-0.8-3.6-0.6c-2.8,0.4-5.7,0.8-8.6,0.7c-1.7,1.1-3.7,0.7-5.6,0.9
			c-1.9,0.3-3.9,0.2-5.8,0.3c-0.5,0-1.9-0.8-2.3-1.1c-0.5-0.5-1.4-0.6-2.1-0.7C4.7,69.3,4.5,69,4.3,68.6 M82,21.1
			c0-2.9,1.5-4.5,4.1-4.4l6.9,0.1c7.4,0.1,11.5,3.3,11.4,9.6c-0.1,6.2-4,9.2-11.3,9.2l-3.2,0l0,7.3l-8.1-0.1L82,21.1z M89.9,29.5
			l2.9,0c2.5,0,3.7-1.2,3.8-3.3c0-2.2-1.3-3.4-3.8-3.4l-2.8,0L89.9,29.5z M106.7,20.4c0-2.5,1.2-3.7,3.4-3.7l1.2,0
			c2.3,0,3.5,1.2,3.5,3.8l-0.1,15.5l7.9,0.1c2.5,0,3.7,1.2,3.7,3.4v0.1c0,2.3-1.2,3.5-3.7,3.5l-16-0.1L106.7,20.4z M144.9,37.8
			l-8.4-0.1l-2.1,5.4l-8.1-0.1l9.5-24c0.4-1.3,1.5-2.2,5.1-2.2c3.7,0,4.6,1,5,2.3l9.5,24.1l-8.4-0.1L144.9,37.8z M137.9,32l5.6,0.1
			l-2.7-7.6L137.9,32z M156.6,20.8c0-2.5,1.3-3.7,3.3-3.7l0.8,0c1.9,0,2.5,0.6,3.6,1.9l9.2,12.3l0.1-13.9l7.6,0.1L181.1,40
			c0,2.5-1.3,3.7-3.3,3.7l-0.6,0c-1.9,0-2.5-0.5-3.6-1.8l-9.4-12.5L164,43.4l-7.6-0.1L156.6,20.8z M82.4,51.2c0-0.7,0.4-1,1-1l0.3,0
			c0.6,0,1,0.3,1,1l-0.1,6.6l-2.3,0L82.4,51.2z M86.5,51.3c0-0.7,0.4-1.1,1-1.1l0.2,0c0.5,0,0.7,0.2,1,0.6l2.7,3.6l0-4l2.2,0
			l-0.1,6.6c0,0.7-0.4,1.1-1,1.1l-0.2,0c-0.6,0-0.7-0.2-1-0.5l-2.8-3.6l0,4.1l-2.2,0L86.5,51.3z M94.9,51.4L94.9,51.4
			c0-0.7,0.4-1,1.1-1l4.9,0c0.7,0,1.1,0.3,1.1,1v0c0,0.7-0.4,1-1.1,1l-1.2,0l0,5.6l-2.4,0l0.1-5.6l-1.3,0
			C95.3,52.4,94.9,52.1,94.9,51.4 M103.1,56.9l0-5.1c0-0.8,0.4-1.3,1.2-1.3l5.1,0l0,2l-3.9,0l0,0.8l2.9,0l0,1.9l-2.9,0l0,0.9l3.9,0
			l0,2l-5.1,0C103.6,58.1,103.1,57.7,103.1,56.9 M114.8,57.2l-1-1.4l-0.4,0l0,2.4l-2.3,0l0.1-6.3c0-0.8,0.4-1.3,1.2-1.3l2.3,0
			c2.1,0,3.2,0.9,3.1,2.5c0,1.1-0.6,1.9-1.7,2.2l1.7,2.1c0.1,0.1-0.3,0.8-1.3,0.8C115.6,58.2,115.3,57.9,114.8,57.2 M113.3,54.1l1,0
			c0.7,0,1-0.3,1.1-0.9c0-0.6-0.3-0.9-1.1-0.9l-1,0L113.3,54.1z M119.2,51.6c0-0.7,0.4-1.1,1-1.1l0.2,0c0.5,0,0.7,0.2,1.1,0.6
			l2.7,3.6l0-4l2.2,0l-0.1,6.6c0,0.7-0.4,1.1-1,1.1h-0.2c-0.6,0-0.7-0.2-1-0.5l-2.7-3.6l0,4.1l-2.2,0L119.2,51.6z M132.7,56.7
			l-2.4,0l-0.6,1.6l-2.4,0l2.8-7c0.1-0.4,0.4-0.6,1.5-0.6c1.1,0,1.3,0.3,1.4,0.7l2.8,7l-2.5,0L132.7,56.7z M130.6,55l1.6,0l-0.8-2.2
			L130.6,55z M136.3,51.7L136.3,51.7c0-0.7,0.4-1,1.1-1l4.9,0c0.7,0,1.1,0.3,1.1,1v0c0,0.7-0.4,1-1.1,1l-1.2,0l0,5.6l-2.4,0l0.1-5.6
			l-1.3,0C136.6,52.8,136.2,52.4,136.3,51.7 M144.6,51.8c0-0.7,0.4-1,1-1h0.3c0.6,0,1,0.3,1,1l-0.1,6.7l-2.3,0L144.6,51.8z
			 M148.4,54.6c0-2.3,1.7-3.9,4-3.9c2.3,0,4,1.7,4,4c0,2.3-1.7,4-4,3.9C150.1,58.6,148.4,57,148.4,54.6 M154.1,54.7
			c0-1.1-0.6-1.9-1.7-1.9c-1,0-1.7,0.7-1.7,1.9c0,1.1,0.7,1.9,1.7,1.9C153.4,56.6,154.1,55.8,154.1,54.7 M157.9,52
			c0-0.7,0.4-1.1,1-1.1h0.2c0.6,0,0.7,0.2,1.1,0.6l2.7,3.6l0-4l2.2,0l-0.1,6.6c0,0.7-0.4,1.1-1,1.1l-0.2,0c-0.6,0-0.7-0.1-1-0.5
			l-2.7-3.6l0,4.1l-2.2,0L157.9,52z M171.4,57.1l-2.5,0l-0.6,1.6l-2.3,0l2.8-7c0.1-0.4,0.4-0.6,1.5-0.6c1.1,0,1.3,0.3,1.5,0.7l2.8,7
			l-2.4,0L171.4,57.1z M169.3,55.4l1.6,0l-0.8-2.2L169.3,55.4z M175.4,52.1c0-0.7,0.4-1.1,1-1.1l0.3,0c0.7,0,1,0.4,1,1.1l0,4.5
			l2.3,0c0.7,0,1.1,0.3,1.1,1v0c0,0.7-0.4,1-1.1,1l-4.7,0L175.4,52.1z M18,18.8c-0.5,0.3-3,2.9-3.3,3.4c-0.1,0.2-0.6,1-0.7,1.1
			c-0.1,0.1-0.4,0.6-0.5,0.6c-0.1,0.1-0.3,0.9-0.4,1c-0.1,0.2-0.5,0.6-0.6,0.7c0,0.1,0.2,0.5-0.4,1.1c-0.4,0.3-0.7,1.7-0.8,1.8
			c-0.1,0.2-0.6,0.8-0.5,1.4c0,0.2-0.1,0.5-0.3,0.7c-0.1,0.2-0.1,0.9-0.5,1c-0.4,0.1-0.2,0.7-0.1,0.9c0.3,0.5,0,1,0,1
			c0,0-0.1,0.5,0.1,0.8c0.3,0.4,0,1.1,0,1.3c-0.1,1.2,0.8,1.6,0.5,2.3c-0.2,0.4,0.1,0.8,0.1,1.3c-0.1,0.4,0.2,0.5,0.3,0.7
			c0,0.1,0.3,0.7,0.3,0.8C11,41,12,42,12,43c-0.1,0.8,0.9,1.2,1,1.3c0.5,0.6,0.5,1.3,1,1.6c0.1,0,0.6,0.5,0.7,0.5
			c0.3,0.2,0,0.4,0.1,0.5c0.4,0.9,1.3,1.5,1.3,1.5C18,50.8,23,54,23.4,54c0.5,0.1,0.9,0.2,1.3,0.5c0.4,0.3,2.2,1,2.2,1
			c0.3,0.1,0.5,0.1,0.8,0.2c0.2,0.1,1.8,0.7,2,0.7c0.3,0.1,0.7,0.3,1.9,0.6c0.5,0.1,1,0.4,1.5,0.5c0.6,0.1,1.1-0.4,1.6-0.1
			c0.5,0.3,1.3,0.6,1.6,0.6c2.5,0.6,6,0.7,8.6,0.6c0,0,0.8,0.2,1.7,0c0.9,0,1.9-0.3,2.8-0.4c1.3-0.3,2.8-0.6,4-1.2
			c0.4-0.1,0.9-0.6,1.2-0.6c0.6-0.2,1.4-1,1.5-1c0.1-0.1,0.9-0.5,0.9-0.5s0.3-0.2,0.5-0.3c0.2-0.1,2.3-1.8,2.3-1.8
			c0.2-0.3,0.6-0.5,0.9-0.7c0,0,0.1-0.1,0.1-0.1c0.1-0.1,0.3-0.2,0.4-0.3c0.1,0,0.1-0.1,0.2-0.1c0,0,0-0.1,0.1-0.1
			c0,0,0-0.1,0.1-0.1c0,0,0,0,0.1,0c0,0,0.1,0,0.1,0c0,0,0.1,0,0.1-0.1c0,0,0-0.1,0.1-0.1c0.1,0,0.1-0.1,0-0.2c0,0-0.1-0.1-0.1-0.1
			c0-0.1,0.1-0.2,0.2-0.2c0.1,0,0.1,0,0.2,0c0.1,0,0.1,0.1,0.1,0.1c0.1,0,0.1-0.1,0.1-0.1c0-0.1,0-0.1,0-0.1
			c0.1-0.1-0.1-0.1-0.1-0.1c0,0,0-0.1,0-0.1c0-0.1-0.1-0.1-0.1-0.1c-0.1,0-0.1,0-0.2,0.1c0,0-0.1,0.1-0.1,0.1c0,0-0.1,0-0.1,0
			c0,0,0,0.1,0,0.1c0,0-0.1,0-0.1,0c0,0-0.1,0-0.1,0c-0.1,0-0.1,0-0.2,0c0,0-0.1,0-0.1,0.1c0,0-0.1,0-0.2,0c-0.2,0-0.3,0.1-0.4,0.2
			c-0.1,0-0.2,0.1-0.3,0.1c0,0-0.1,0-0.1,0c0,0-0.1,0-0.1,0c0,0-0.1,0.1-0.1,0.1c0,0-0.1,0-0.1,0.1c0,0,0,0.1-0.1,0.1
			c0,0.1-0.1,0.1-0.1,0.1c-0.1,0-0.3,0-0.4-0.1c-0.2-0.1-0.2-0.3-0.2-0.5c0-0.1,0-0.2-0.1-0.1c-0.1,0-0.1,0.1-0.1,0.1
			c-0.2,0.2-0.4,0.3-0.6,0.4c-0.1,0-0.3,0-0.4,0.1c-0.1,0-0.2-0.1-0.3,0c-0.1,0-0.1,0.1-0.1,0.1c0,0,0,0.1-0.1,0.1
			c-0.1,0.1-0.1,0.1-0.2,0.1c-0.1,0-0.2-0.1-0.1-0.2c0.1,0,0.2-0.1,0.2-0.2c0-0.1-0.1,0-0.1,0c-0.1,0-0.1,0.1-0.2,0.1
			c-0.1,0-0.3,0-0.3-0.2c0,0,0,0,0-0.1c0,0,0,0,0.1,0c0,0,0.1,0,0.1-0.1c0,0,0-0.1,0-0.1c0,0,0.1-0.1,0.1-0.2
			c0.1-0.1,0.1-0.1,0.2-0.2c0.1,0,0.3,0,0.3-0.1c0-0.1,0-0.2,0.1-0.3c0.1-0.1,0.2-0.1,0.1-0.2c-0.1-0.2-0.3,0-0.4,0.1
			C57.1,50,57,50,56.9,50c-0.1,0-0.1-0.1,0-0.1c0.1-0.1,0.1-0.1,0.2-0.2c0.1-0.1,0.1-0.2,0.3-0.2c0.1,0,0.1,0,0.2,0
			c0.1-0.1,0-0.2-0.1-0.2c-0.1,0-0.3,0-0.4,0.1c-0.1,0.1-0.2,0.1-0.3,0.2c-0.1,0.1-0.2,0.2-0.3,0.1c0,0,0,0-0.1,0
			c-0.1,0-0.1,0.1-0.2,0.1c-0.1,0.1-0.3,0.1-0.3-0.1c0,0,0.1-0.1,0.2-0.1c0,0,0.3,0,0.4-0.1c0.1,0,0.3-0.1,0.4-0.1
			c0,0,0-0.1,0.1-0.1c0.1-0.2,0-0.4-0.2-0.3c-0.1,0.1-0.2,0.2-0.3,0.3c-0.1,0.1-0.2,0.1-0.3,0.1c-0.1,0-0.3-0.1-0.2-0.2
			c0-0.1,0.1-0.1,0.2-0.1c0.1,0,0.1-0.1,0.2-0.2c0.1-0.1,0.2-0.2,0.4-0.2c0.1,0,0.2,0,0.2-0.1c0-0.1-0.1-0.1-0.1-0.1
			c-0.1,0-0.1,0-0.2,0c-0.1,0-0.2,0-0.3-0.1c-0.1-0.1,0-0.2-0.1-0.2c-0.2,0-0.1,0.1-0.1,0.2c-0.1,0.1-0.3,0.2-0.4,0
			c-0.1-0.1,0.1-0.3,0.2-0.3c0.1,0,0.2-0.1,0.3-0.1c0,0,0.1,0,0.1,0c0,0,0-0.1,0.1-0.2c0.1,0,0.1-0.1,0-0.1c0,0-0.1,0-0.2,0
			c0,0-0.1,0-0.2,0c-0.1,0-0.1,0.1-0.2,0.2c-0.1,0.1-0.2,0.1-0.3,0.2c-0.1,0-0.2-0.1-0.3-0.2c-0.1-0.1-0.1,0.1-0.1,0.2
			c0,0.1-0.2,0.1-0.2,0.1c-0.1,0-0.2,0.1-0.2,0.2c-0.2,0.2-0.5,0.2-0.7,0.2c-0.2,0.1-0.1,0.1-0.2,0.1c-0.2,0.1-0.4-0.1-0.6,0
			c0,0-0.1,0.1-0.2,0.1c-0.1,0-0.1,0-0.1,0c-0.3,0-0.4-0.1-0.5-0.1c-0.1,0-0.2,0.1-0.2,0.1c-0.1,0.1-0.3,0.2-0.4,0.2
			c-0.1,0-0.1-0.1-0.2-0.1c-0.1-0.1-0.1-0.1-0.2,0c-0.1,0.1-0.1,0.2-0.1,0.2c-0.1,0-0.2,0-0.1-0.1c0,0,0.1-0.1,0.1-0.1
			c0,0,0-0.1-0.1-0.1c0,0-0.1,0.1-0.1,0.1c-0.1,0-0.2,0-0.3,0c-0.1,0-0.1,0-0.1,0c0,0-0.1,0-0.1,0c-0.1,0-0.1,0.1-0.2,0.1
			c-0.1,0-0.2,0-0.2,0c-0.1,0-0.1,0-0.2,0l-0.2,0.1c-0.1,0-0.2,0-0.3,0c-0.1,0-0.6,0-0.8,0c-0.4,0.1-0.7,0.2-1.1,0.3
			c-0.4,0-2.1,0.1-2.3,0.1c-0.2,0-1.3-0.1-1.4,0.1c0,0-0.3,0-0.3,0c-0.1,0-0.1-0.1-0.2-0.2c-0.2-0.1,0,0.1-0.3-0.1
			c-0.2-0.1-0.4-0.1-0.7-0.1c-0.5,0-1.3-0.1-1.5-0.2c-0.3,0-0.6-0.2-0.8-0.4c-0.2-0.2-0.4-0.2-0.4-0.5c-0.1-0.6,0.2-1.5,0.2-1.8
			c0.1-0.3,0.1-1.2,0.2-1.3c0.1,0,0-0.1,0.1-0.1c0.3-0.3,0.2-0.3,0.3-0.7c0.1-0.6,0.3-1.4,1-1.6c0.3-0.1,0.7-0.3,0.9-0.3
			c0.3-0.1,0.8,0,1.2-0.2c0.1,0,0.2-0.1,0.3-0.1c0.4,0,0.8,0.1,1.1,0c0.4,0,0.8-0.1,0.9-0.1c0.1,0,0-0.1,0.1-0.2
			c0.2-0.1,0.2,0.2,0.4,0.2c0.2,0.1,0.8,0.1,1,0.1c0,0,0-0.1,0-0.1c0.1-0.1,0.2,0.1,0.3,0.2c0.2,0.1,2.9,0.5,3.1,0.5
			c0.3,0.1,0.8,0,1.2-0.1c0.2-0.1,0.8-0.3,0.9-0.5c0.1-0.1,0-0.1,0-0.2c0.1-0.1,0.2-0.4,0.2-0.6c0-0.1,0-0.2,0.1-0.2
			c0-0.1,0-0.2,0-0.4c0-0.1,0-0.3,0.1-0.3c0.1-0.1,0.2-0.3,0.1-0.5c-0.1-0.2-0.3-0.3-0.4-0.3c-0.1-0.1,0,0,0-0.1c0-0.1-0.2,0-0.2,0
			s-0.4,0-0.5-0.1c-0.4-0.1-0.7-0.2-1.1-0.2c-0.6,0-1.2-0.3-1.9-0.2c-0.1,0-0.3,0.1-0.4,0.1c-0.1,0,0-0.2-0.4-0.2
			c-0.4,0-0.7-0.1-1-0.2c-0.3-0.1-1.2,0-1.3-0.1c-0.1,0-0.1,0-0.2,0c-0.1,0-0.2-0.2-0.5-0.2c-0.1,0-0.1-0.1-0.2-0.1
			c-0.1,0-0.3,0-0.3,0c-0.1-0.1-0.4-0.1-0.4-0.3c-0.1-0.3,0.6-0.7,0.8-0.9c0.2-0.1,0.4-0.4,0.7-0.4c0.2,0,0.2-0.1,0.3-0.2
			c0.2-0.3,1.1-1.4,1.4-1.6c0.3-0.2,0.1-0.5,0.4-0.8c0.1-0.1,0.3-0.5,0.3-0.5c0.2-0.3,0.1-0.9,0.5-1.1c0,0,0.1-0.1,0.1-0.2
			c0.1-0.1-0.1-0.2-0.1-0.3c-0.1-0.1,0-0.2,0-0.4c0-0.1,0-0.8,0-1c0-0.2,0.1-0.3,0.3-0.3c0.2,0,0-0.3,0-0.5
			c-0.1-0.3-0.3-0.7-0.8-0.8c-0.5-0.1-1,0.3-1.3,0.7c-0.2,0.3-0.9,1.2-1,1.2c-0.2,0.1,0,0.2-0.2,0.5c-0.1,0.1-0.2,0.1-0.3,0.1
			c-0.1,0.1-0.2,0.4-0.2,0.5c0,0.1,0,0.2,0,0.3c-0.3,0.2-0.3-0.1-0.4,0c-0.1,0.1-0.1,0.2-0.2,0.2c-0.3,0.2-0.3,0.3-0.6,0.4
			c-0.2,0-0.5,0.1-0.6,0.2c-0.1,0.1-0.4,0.1-0.4-0.1c0-0.2,0.2-0.8,0.2-0.8c0.1-0.3-0.4-0.5-0.1-0.8c0.1-0.2,0.1-0.3,0-0.5
			c0-0.1-0.1-0.4-0.2-0.4c-0.1-0.2,0.1-0.2-0.1-0.5c-0.1-0.1-0.2,0.1-0.3-0.3c0-0.2-0.2-0.3-0.3-0.4c-0.2-0.1-0.3-0.3-0.5-0.4
			c-0.4-0.3-1-0.5-1.5-0.7c-0.5-0.1-1.1-0.2-1.6-0.1c-0.1,0-0.4,0-0.4-0.1c0,0-0.1,0-0.1-0.1c-0.1-0.1-0.3,0-0.4,0.1
			c-0.3,0.1,0,0.3-0.2,0.4c-0.3,0.1-0.9,0.3-1.1,0.3c-0.1,0-0.2,0.1-0.4,0.1c-0.2,0-0.2,0.2-0.4,0.3c-0.4,0.2-0.3,1.2-0.3,1.5
			c0,0,0,0.2,0.1,0.1c0.1,0,0.2,0.1,0.2,0.3c0,0.2,0,0.3-0.1,0.6c-0.1,0.3,0.1,0.1,0.1,0.4c0,0.2,0.2,0.9,0.2,1c0,0.1,0,0.1,0.1,0.2
			c0,0,0.1,0.1,0.1,0.1c0.1,0,0.1,0.3,0.2,0.5c0.1,0.2,0.1,0.4,0.2,0.5c0.1,0.1,0.1,0.2,0.2,0.2c0.1,0.1,0.1,0.2,0.1,0.2
			c-0.1,0.1-0.3,0.2-0.3,0.2c-0.1-0.1-0.5-0.1-0.6-0.1c-0.2-0.1-0.5,0.1-0.6,0c-0.1-0.1-0.2-0.1-0.3-0.1c-0.1,0-0.1,0.1-0.2,0.1
			c-0.1,0-0.1-0.1-0.2-0.2c-0.2-0.2-0.4-0.2-0.6-0.3c-0.3-0.1-0.6-0.2-0.9-0.4c-0.3-0.2-1.3-0.6-1.3-0.7c-0.1-0.2-0.4-0.1-0.4-0.1
			c0-0.1-0.3-0.1-0.3-0.2c0-0.1-0.2-0.1-0.3-0.1c-0.1,0-0.2-0.1-0.3-0.1c-0.1,0.1-0.2,0.1-0.3,0c0-0.1-0.1-0.1-0.2-0.1
			c-0.2-0.1-0.3,0-0.5,0.1c-0.2,0.1-0.3,0.3-0.5,0.4c-0.1,0.1-0.1,0.2-0.2,0.4c-0.1,0.1-0.1,0.2-0.2,0.3c-0.1,0.1,0,0.3,0.1,0.3
			c0.2,0,0,0.2,0.1,0.2c0.2,0.1,0.3,0.5,0.5,0.7c0.3,0.3,0.4,0.7,0.5,0.9c0.1,0.3,0.6,0.1,0.6,0.4c0,0.1,0.3,0.4,0.8,0.8
			c0.2,0.1,0.9,0.5,1.2,0.6c0.7,0.1,1.1,0.4,1.4,0.6c0.1,0.1,0.4,0,0.7,0.6c0.1,0.2,0.2,1,0.2,1.4c0.1,0.9,0.5,0.7,0.3,1
			c-0.2,0.4,0.2,0.8,0.1,1.8c0,0.2-0.1,0.6-0.2,0.9c-0.2,0.6,0.1,1.3,0,1.5c-0.1,0.3-0.2,1.5-0.5,1.8c-0.1,0.1-0.3,0.1-0.5,0
			c-0.3-0.1-1.1,0.1-1.3-0.1c-0.4-0.3-0.8-0.3-1-0.3c-0.2,0-0.5-0.2-0.7-0.3c-0.4-0.2-1.8-0.7-2.3-1c-1.3-0.7-3.2-1.5-3.3-2.2
			c0-0.3-2-1.6-2.4-2.1c-0.2-0.2-0.5-0.6-0.6-0.7c-0.1-0.2-0.1-0.5-0.2-0.7c-0.3-0.4-0.6-0.4-0.7-1.1c0-0.3-0.2-0.1-0.5-0.8
			c-0.7-1.8-0.6-4-0.6-4.8c0-0.7,0.6-2.2,0.8-2.7c0.1-0.3,0.5-0.5,0.6-1.1c0-0.2,0.9-0.7,1.2-1.2c0.3-0.4,0.9-1,1.3-1.2
			c0.2-0.1,3.4-2.4,3.7-2.8c0.1-0.1,0.4-0.6,1.1-0.6c0.2,0,0.5-0.2,0.5-0.4c0.1-0.4,3.3-1.1,3.8-1.7c0.2-0.2,1.1-0.4,1.6-0.5
			c0.1,0,0.1,0.1,0.4-0.1c0.2-0.2,0.8,0.1,1.1-0.1c0.4-0.4,0.5-0.5,1.3-0.4c0.7,0,0.6-0.4,1.2-0.4c0.3,0,0.8-0.2,1-0.5
			c0.1-0.2,1.5-0.4,1.8-0.6c0.7-0.5,1.2,0.1,2-0.1c0.1,0,0.5,0.1,0.6,0.1c0.2,0,0.5-0.3,0.6,0c0.1,0.2,1.3,0.1,1.7,0.1
			c0.1,0,0.3-0.1,0.3,0c0,0.2,0.8,0.1,1,0.2c0.2,0.2,0.6,0.4,1,0.2c0.3-0.1,1.2,0.1,1.5,0.2c0.2,0.1-0.2,0.2,0.7,0.3
			c0.6,0,2.6,1.2,3,1.3c0.5,0,0.6,0.6,1.1,0.8c0.9,0.4,2,1.2,4.3,3c0.1,0.1,0.2,0.5,0.3,0.5c0.6,0,1.1,1.1,1.4,1.4
			c0.1,0.1,0.5-0.1,0.4,0.5c0,0.1,0.3,0,0.3,0.4c0,0.5,0.9,0.8,1.2,2c0,0.1,0.1,0.2,0.2,0.3c0.2,0.4,0.8,2.4,0.8,3.1
			c0,0.2,0.1,1.5-0.1,2.4c-0.2,0.8-0.5,1.6-0.8,2.4c-0.2,0.5-0.7,1.1-0.7,1.3c0,0.2-0.1,0.3-0.1,0.5c0,0.1,0,0.3-0.1,0.3
			c-0.1,0-0.4,0.2-0.4,0.4c0,0.1-0.3,0.1-0.3,0.3c0,0.2-0.3,0.2-0.3,0.3c0,0.1-0.3,0.2-0.2,0.4c0,0.1-0.1,0.1-0.2,0.1
			c-0.2,0-0.4,0.5-0.4,0.5c0,0.1-0.2,0-0.2,0.3c0,0.2-0.2,0.2-0.3,0.3C59.5,43,59.4,43,59.4,43c-0.1,0.1-0.1,0.2-0.1,0.4
			c0,0.1-0.2,0.5,0,0.5c0.1,0,0.1-0.1,0.2-0.2c0.1-0.1,0.2-0.2,0.4-0.2c0.1-0.1,0.3-0.1,0.4-0.3c0-0.1,0.2-0.3,0.3-0.3
			c0,0,0.1,0,0.1,0c0,0,0.1-0.1,0.1-0.1c0.1-0.1,0.1-0.2,0.2-0.3c0-0.1,0.1,0,0.2-0.1c0-0.1,0-0.1,0-0.1c0,0,0.1,0,0.1-0.1
			c0,0,0.1-0.1,0.1-0.1c0.1-0.1,0.2-0.1,0.3,0c0.1,0.1-0.3,0.5-0.4,0.5c-0.1,0.1-0.1,0.3-0.3,0.4c-0.1,0.1-0.2,0.2-0.3,0.3
			c0,0-0.1,0-0.1,0.1c0,0-0.1,0.1-0.1,0.1c-0.1,0.1-0.1,0.1-0.2,0.2c-0.1,0.1-0.1,0.1-0.1,0.2c-0.1,0.1-0.1,0.2-0.1,0.3
			c0,0.1,0.1,0.1,0.2,0.1c0.1,0,0.1-0.1,0.1-0.2c0-0.1,0.1-0.1,0.1-0.2c0.1-0.1,0.1-0.1,0.2-0.1c0.1,0,0.1-0.1,0.1-0.1
			c0.1-0.1,0.2-0.3,0.3-0.4c0.1-0.1,0.1-0.2,0.2-0.2c0.1,0,0.1,0,0.1-0.1c0-0.1,0-0.2,0.1-0.2c0.1,0,0.1,0.1,0.1,0.1
			c0,0.1,0,0.1,0.1,0.1c0.1,0,0.1,0,0.2-0.1c0-0.1,0.1-0.1,0.2-0.2c0.1,0,0.1-0.1,0.2-0.1c0.1-0.1,0.2-0.2,0.3-0.3
			c0.1-0.1,0.1-0.1,0.2-0.2c0.1-0.1,0.1-0.1,0.2-0.2c0,0,0.1,0,0.1,0c0,0,0,0,0.1,0c0,0,0-0.1,0.1-0.1c0.1,0,0.1,0.1,0.1,0.2
			c0,0,0,0.1,0,0.1c0,0,0.1,0,0.1,0c0.1,0,0.1,0,0.1,0.1c0,0-0.1,0.1-0.1,0.1c-0.1,0.1-0.2,0.2-0.3,0.3c0,0-0.1,0.1-0.1,0.1
			c-0.1,0.1-0.2,0.3-0.3,0.4c-0.1,0.1-0.2,0.2-0.3,0.3c0,0.1-0.1,0.1-0.2,0.2c-0.1,0.1-0.1,0.1-0.2,0.2c-0.1,0.1-0.2,0.2-0.2,0.3
			c0,0.1,0,0.1,0,0.2c0,0.1-0.1,0.1-0.1,0.2c-0.1,0.1-0.2,0.3-0.2,0.4c0,0.1,0,0.2,0.1,0.1c0,0,0.1-0.1,0.1-0.2c0.1,0,0.1,0,0.2-0.1
			c0.1,0,0.2-0.1,0.2-0.2c0-0.1,0-0.2,0.1-0.2c0,0,0.1,0,0.2-0.1c0.1,0,0.1,0,0.2-0.1c0.1,0,0.2,0,0.2,0c0,0,0,0,0,0c0,0,0,0,0,0
			c0,0,0-0.1,0-0.1c0,0,0-0.1,0-0.1c0,0,0.1-0.1,0.1-0.1c0-0.1,0-0.1-0.1-0.1c-0.1,0-0.1-0.1-0.2-0.2c0,0,0-0.1,0.1-0.1
			c0,0,0-0.1,0-0.1c0,0,0-0.1,0-0.1c0,0,0-0.1,0-0.1c0,0,0-0.1,0.1-0.1c0.1,0,0.1,0.1,0.2,0.1c0.1,0,0.1,0,0.2,0c0.1,0,0.1,0,0.2,0
			c0,0,0.1,0,0.1-0.1c0,0,0-0.1,0-0.1c0-0.1-0.1-0.1-0.1-0.1c0-0.1,0-0.1,0.1-0.2c0-0.1,0.1-0.1,0.1-0.1c0.1,0,0.2,0.2,0.4,0.1
			c0.1,0,0.1-0.1,0-0.1c0,0,0,0-0.1-0.1c0,0,0,0,0-0.1c0-0.1,0-0.2,0.1-0.3c0.1-0.1,0.1-0.1,0.2-0.2c0,0,0.1,0,0.1,0h0
			c0.1,0,0.1,0.1,0.1,0.1c0,0.1,0,0.1,0,0.2c0,0.1-0.1,0.2,0,0.2c0.1,0.1,0.2,0.1,0.3,0c0,0,0.1,0,0.1,0c0,0,0.1,0,0.1,0
			c0,0,0.1,0.1,0.1,0.2c0,0.1-0.1,0.1-0.1,0.2c-0.1,0.1-0.1,0.1-0.2,0.2c0,0-0.1,0-0.2,0c-0.1,0-0.1,0.1-0.2,0.1
			c0,0.1,0,0.1,0.1,0.1c0.1,0,0.2,0.1,0.2,0.2c0,0.2-0.1,0.3-0.3,0.3c-0.1,0-0.1,0.1-0.2,0.1c0,0-0.1,0-0.1,0.1c0,0-0.1,0.1-0.1,0.1
			c-0.1,0-0.1-0.1-0.2-0.1c0,0-0.1,0-0.1,0c0,0,0,0,0,0c0,0-0.1,0-0.1,0.1c0,0,0,0.1,0,0.1c0,0.1,0,0.1,0,0.2c0,0,0,0.1,0,0.1
			c0,0.1,0.1,0,0.2,0c0.1,0,0.1-0.1,0.1-0.1c0.1-0.1,0.1,0.1,0.1,0.1c0,0-0.1,0.1-0.1,0.1c0,0,0,0.1,0.1,0.1c0.1,0,0.3-0.1,0.3-0.2
			v0c0-0.1-0.1-0.1,0-0.2c0.1,0,0.1,0,0.1,0.1c0,0,0.1,0.1,0.1,0.1c0,0,0.1-0.1,0.1-0.1c0.1-0.1,0.1-0.1,0.2-0.2
			c0.1-0.1,0.3-0.1,0.3-0.2c0.1-0.1,0.2-0.3,0.2-0.4c0-0.1,0-0.1,0.1-0.2c0.1-0.1,0.3-0.1,0.4-0.2c0,0,0.1-0.1,0.1-0.1
			c0-0.1,0-0.1,0.1-0.1c0,0,0-0.1,0-0.2c0-0.1,0-0.1,0.1-0.2c0.1,0,0.1,0,0.2,0c0.1,0.1,0.2,0,0.3,0c0.1,0.1,0,0.2-0.1,0.3
			c-0.2,0.2-0.2,0.4-0.4,0.6c-0.1,0-0.2,0.1-0.2,0.1c-0.1,0.1-0.1,0.3-0.2,0.3c0,0-0.1,0-0.1,0c0,0,0,0.1,0,0.1c0,0,0,0,0,0.1
			c0,0-0.1,0.1-0.1,0.2c0,0,0.1,0,0.1,0c0.1,0,0.1,0,0.1,0c0,0,0-0.1,0.1-0.1c0,0,0.1,0.1,0.1,0.1c0,0,0,0.1,0.1,0c0,0,0-0.1,0-0.1
			c0,0,0-0.1,0.1-0.1c0,0,0,0,0,0c0,0.1,0.1,0,0.2,0c0,0,0.1-0.1,0.1-0.1c0.1-0.1,0.1-0.2,0.2-0.2c0.1-0.1,0.1-0.1,0.2-0.2
			c0,0,0.1,0,0.1,0c0.1,0,0.1-0.1,0.2-0.1c0.1-0.1,0.2-0.1,0.3-0.2c0,0,0.1-0.1,0.1,0c0,0,0,0.1,0,0.1c0,0,0,0,0,0.1
			c0,0.1-0.2,0.1-0.2,0.2c0,0,0,0.1,0,0.1c0,0.1-0.1,0.1-0.2,0.2c-0.1,0.1-0.2,0.2-0.2,0.3c0,0.1,0,0.1,0,0.1c0,0,0.1,0.1,0.1,0.1
			c0,0-0.1,0-0.1,0c-0.1,0-0.1,0.1-0.1,0.2c0,0.1-0.1-0.1-0.1,0.1c0,0.1,0,0.1,0,0.2c0,0.1-0.1,0.1-0.2,0.2c0,0,0,0-0.1,0
			c0,0,0,0-0.1,0c0,0,0,0.1,0,0.1c0,0,0,0.1,0,0.1c0,0-0.1,0.1-0.1,0.1c0,0,0,0,0,0.1c0,0,0,0,0.1,0c0,0,0,0,0,0c0,0,0,0,0,0
			c0,0,0,0,0.1,0c0,0,0.1,0,0.1,0c0,0,0.1,0,0.1-0.1c0.1-0.1,0.3-0.2,0.4-0.4c0.1-0.1,0.2-0.3,0.4-0.4c0.1-0.1,0.1-0.1,0.2-0.2
			c0.2,0,0.1,0.1,0.1,0.2c0,0,0,0.1-0.1,0.1c0,0-0.1,0-0.1,0c0,0-0.1,0.1-0.1,0.1c0,0.1-0.1,0.2-0.2,0.3c-0.1,0-0.1,0.1-0.2,0.1
			c0,0.1-0.1,0.1-0.1,0.2c0,0.1,0,0.1,0,0.1c0.1,0,0.1-0.1,0.2-0.1c0.1-0.1,0.2-0.1,0.3-0.1c0.1-0.1,0.1-0.1,0.1-0.2
			c0,0,0.1-0.2,0.1-0.1c0-0.1,0.1-0.1,0.1-0.1c0,0,0,0,0.1-0.1c0.1,0,0.2-0.1,0.2,0.1c0,0.1-0.1,0.1-0.1,0.2
			c-0.1,0.2-0.3,0.3-0.4,0.5c-0.1,0.2-0.1,0.4-0.2,0.5c-0.1,0.1-0.1,0.2-0.2,0.2c-0.1,0.1-0.2,0.1-0.2,0.2c-0.1,0.1-0.1,0.1-0.2,0.2
			c-0.1,0.1-0.2,0.2-0.3,0.3c0,0-0.1,0.1-0.1,0.1c0,0.1-0.1,0.1-0.2,0.2c0,0.1-0.1,0.1-0.1,0.2c-0.1,0.1-0.1,0.1-0.1,0.2
			c-0.1,0-0.1,0-0.1,0c0,0,0,0-0.1,0c0,0-0.1,0.1-0.1,0.1c0,0-0.1,0.1-0.1,0.1c0,0.1,0.4-0.2,0.4-0.2c0.1-0.1,0.2-0.2,0.3-0.3
			c0.3-0.3,0.6-0.6,0.9-0.9c0.3-0.3,0.5-0.5,0.7-0.8c0.1-0.1,0.2-0.3,0.3-0.4c0.1-0.1,0.1-0.3,0.2-0.3c0.1,0,0.2,0,0.3,0
			c0.3-0.1,0.5-0.6,0.8-0.9c0.6-0.7,1.4-2.5,1.5-2.7c0.1-0.1,0.1-0.5,0.4-0.6c0.2,0,0.2-0.5,0.2-0.7c0.1-0.3,0.1-0.5,0.3-0.8
			c0.3-0.4,0.3-1,0.4-1.2c0.1-0.4,0.9-3.1,0.7-5.3c0-0.4,0-3-0.7-3.8c-0.4-0.5,0.1-1.1-0.2-1.9c-0.1-0.2,0.2-0.3,0.3-0.5
			c0.2-0.6-0.2-1.2-0.5-1.2c-0.3-0.1-0.7-0.1-0.8-0.4c0-0.1,0.2-0.7-0.1-1.4c-0.2-0.3-0.4-1-2.4-2.6c-0.7-0.5-1.2-1.3-1.7-1.9
			c-0.2-0.3-1.2-1.3-1.5-1.5c-0.2-0.1-0.5-0.8-1.3-1.1c-0.3-0.1-2.2-1.7-2.4-1.8c-0.8-0.3-2.2-1.3-2.5-1.4c-1.5-0.4-2-1.2-2.5-1.2
			c-0.4,0-1.6-0.1-2.2-0.8c-0.3-0.4-0.8-0.5-1.3-0.2c-0.3,0.2-1.2-0.7-2.5-0.5c-0.3,0-0.5-0.5-1.5-0.3c-1,0.1-1.6-0.5-2-0.7
			c-0.3-0.1-2.4-0.7-3.3-0.6l-0.6,0c-2-0.3-3.7-0.3-5.6-0.1c-0.5,0.1-6.2,1.5-6.8,1.9c-0.5,0.3-1.7,0.6-2,0.8
			c-0.6,0.3-3.1,1.1-3.2,1.3c-0.1,0.1-0.4,0.2-0.5,0.3c-0.1,0.1-0.7,0.7-1.5,1c-0.5,0.2-2.9,1.9-3.4,2.3
			C19.7,17.6,18.3,18.7,18,18.8 M73.1,26.3c-0.1-0.3-0.3-0.4-0.6-0.4c0,0-0.1,0-0.1,0.1c0,0-0.1,0.1-0.1,0.1c0,0,0,0.1,0,0.1
			c0,0.1,0,0.1,0,0.2c0,0,0.1,0.1,0.1,0.1c0,0,0.1,0.1,0.1,0.1c0.1,0.1,0.1,0.1,0.2,0.2c0,0,0,0,0.1,0c0,0,0.1,0,0.1,0
			C73.1,26.7,73.1,26.5,73.1,26.3 M58.6,44c0-0.1-0.1,0-0.1,0c-0.1,0.1-0.3,0.3-0.3,0.4c0.1,0.1,0.2-0.1,0.2-0.2
			C58.4,44.2,58.6,44.1,58.6,44C58.6,44,58.6,44,58.6,44 M59.2,44.3c0,0,0-0.1,0-0.1c-0.1,0-0.2,0.1-0.2,0.1c0,0-0.1,0.1-0.1,0.1
			c0,0,0,0.1-0.1,0.1c0,0,0,0.1,0,0.1c-0.1,0.1-0.1,0.2-0.2,0.2c-0.1,0-0.2,0-0.3,0.1c-0.1,0-0.1,0.1-0.1,0.2c0,0.1,0,0.1-0.1,0.2
			c0,0.1-0.1,0.1-0.1,0.1c0,0.1-0.1,0.2,0,0.2c0.1,0.1,0.2-0.1,0.2-0.1c0.1-0.1,0.2-0.1,0.3-0.2c0.2-0.1,0.3-0.3,0.5-0.5
			c0,0,0,0,0.1-0.1c0.1-0.1,0.1-0.2,0.2-0.2C59.1,44.3,59.1,44.3,59.2,44.3 M65.7,45.1c0-0.1-0.1-0.1-0.2-0.1
			c-0.1,0-0.1,0.1-0.2,0.1c-0.1,0-0.1,0.1-0.2,0.1c-0.1,0-0.1,0.1-0.2,0.1c0,0-0.1,0.2-0.1,0.2c0,0,0.2,0,0.2,0c0.1,0,0.1-0.1,0-0.1
			c-0.1-0.1,0.1-0.1,0.1-0.1c0.1,0,0.1,0,0.2-0.1c0.1,0,0.1,0,0.2-0.1c0,0,0.1,0,0.1-0.1C65.7,45.2,65.7,45.1,65.7,45.1 M61.5,45.2
			c0.1,0,0-0.1,0-0.1c-0.1,0-0.2,0.1-0.1,0.1C61.3,45.3,61.4,45.2,61.5,45.2L61.5,45.2 M61.6,45.4C61.6,45.3,61.5,45.3,61.6,45.4
			c-0.1,0-0.1,0-0.2,0c0,0-0.1,0-0.1,0c0,0-0.1,0-0.1,0c0,0.1,0,0.1-0.1,0.2c0,0-0.1,0-0.2,0.1c-0.1,0-0.1,0.1-0.1,0.1
			c0,0.1,0.1,0.1,0.1,0.1c0,0,0,0,0,0h0c0.1,0,0.1-0.1,0.1-0.1c0.1-0.1,0.1-0.1,0.2-0.2C61.4,45.4,61.5,45.4,61.6,45.4
			C61.5,45.4,61.6,45.4,61.6,45.4 M57.3,46.2c0.1-0.2,0.4-0.4,0.2-0.6c-0.1-0.1-0.6,0.1-0.9,0.3c-0.2,0.2-0.3,0.3-0.1,0.5
			C56.8,46.7,57.1,46.4,57.3,46.2 M64.5,46.2C64.5,46.2,64.5,46.2,64.5,46.2c0.1,0,0.1-0.1,0.1-0.1c0,0,0.1-0.1,0.1-0.1
			c0-0.1,0-0.1-0.1-0.1c0,0-0.1,0-0.2,0c0,0,0,0.1,0,0.1c0,0,0,0.1,0,0.1C64.4,46,64.4,46.2,64.5,46.2 M60.5,46.1
			C60.5,46.1,60.5,46.1,60.5,46.1c0.1-0.1,0.1-0.2,0-0.2c0,0-0.1-0.1-0.1,0C60.3,46,60.4,46.1,60.5,46.1 M60.1,46.4
			c0,0,0-0.1,0.1-0.1c0,0,0.1,0,0.1-0.1c0-0.1-0.1-0.1-0.1-0.1c-0.1,0-0.1,0.1-0.2,0.1c-0.1,0.1-0.2,0.1-0.3,0.1c-0.1,0-0.1,0-0.2,0
			c0,0-0.1,0-0.1,0c0,0,0,0.1,0,0.1c0,0.1,0.2,0.1,0.3,0.1c0.1,0,0.2,0,0.3-0.1C60,46.5,60.1,46.5,60.1,46.4 M65.9,46.5
			C65.9,46.5,65.8,46.5,65.9,46.5c-0.2,0-0.2,0-0.3,0.1c0,0.1,0,0.1,0.1,0.1c0,0,0.1,0,0.1-0.1C65.8,46.6,65.8,46.6,65.9,46.5
			C65.9,46.5,65.9,46.5,65.9,46.5C65.9,46.5,65.9,46.5,65.9,46.5 M59.2,47c0.1,0,0.1-0.1,0.1-0.2c0-0.1-0.2,0-0.2,0
			C59.1,46.9,59.1,47,59.2,47L59.2,47 M55.6,48c0,0,0-0.1,0-0.1c0,0,0.1-0.1,0.1-0.1c0-0.1,0-0.1-0.1-0.1c-0.1,0-0.1,0.1-0.2,0.1
			c-0.1,0-0.1,0,0,0.1C55.4,48,55.5,48,55.6,48C55.6,48.1,55.6,48,55.6,48L55.6,48 M65.2,48.7c-0.1,0-0.2,0.2-0.1,0.2
			C65.2,49,65.3,48.7,65.2,48.7 M64.5,48.9c0-0.1-0.2-0.1-0.2-0.1c-0.1,0-0.2,0-0.2,0.1c-0.1,0.1-0.2,0.2-0.2,0.4
			c0,0.1,0.1,0.1,0.2,0.1c0.1,0,0.2,0,0.2-0.1C64.4,49.3,64.6,49.1,64.5,48.9 M63.9,49.7C63.9,49.7,63.8,49.7,63.9,49.7
			c-0.1-0.1-0.1,0-0.2,0c0,0-0.1,0-0.1,0c0,0,0,0,0,0.1c0,0,0.1,0,0.2,0C63.8,49.8,63.8,49.8,63.9,49.7
			C63.8,49.7,63.9,49.7,63.9,49.7 M46.9,20.4c0-0.2,0-0.6-0.1-0.8c-0.1-0.1-0.2,0-0.3,0.1c-0.2,0.1-0.3,0.3-0.3,0.5
			c-0.1,0.2-0.2,0.4-0.1,0.6c0,0.2-0.1,0.3,0,0.4c0.1,0.1,0.2,0.1,0.3,0c0.1,0,0.1-0.1,0.2-0.1c0.1-0.1,0.1-0.1,0.1-0.2
			C46.8,20.7,46.9,20.5,46.9,20.4 M44,21.4c0-0.1-0.2-0.3-0.3-0.4c-0.1-0.1-0.4-0.1-0.4,0.1c0,0.2,0,0.6,0,0.8c0,0.1,0,0.2,0.1,0.3
			c0.1,0.3,0.6,0.3,0.7,0.3c0.1,0,0-0.1,0.2-0.1c0.1,0,0-0.4-0.1-0.5C44.1,21.7,44.1,21.5,44,21.4 M49.8,21.7
			c-0.1-0.2-1.1,0-1.2,0.1C48.4,22,48.2,22,48,22.2c0,0.3,0.3,0.3,0.4,0.5c0.3,0.2,0.5-0.1,0.8-0.2c0.1,0,0.3-0.1,0.2-0.2
			C49.4,22.1,49.7,22,49.8,21.7L49.8,21.7z M43,23.6c0,0,0-0.2-0.1-0.2c-0.1-0.1-0.4,0-0.7-0.1c-0.2-0.1-0.3-0.1-0.5,0
			c-0.1,0-0.3,0.1-0.3,0.2c0,0.1,0,0.3,0.1,0.4c0,0.1,0.4,0.2,0.4,0.2c0.1,0,0.3,0.1,0.5,0c0.1,0,0.3,0,0.5-0.2
			C43,23.8,43,23.7,43,23.6 M48.2,25c0-0.1,0.2-0.8,0.2-1c0-0.1-0.1-0.5-0.1-0.6c0-0.2-0.3-0.4-0.4-0.6c-0.1-0.3-0.5-0.5-0.6-0.6
			c-0.1-0.2-0.4-0.2-0.6-0.3c-0.2-0.1-0.5-0.1-0.7-0.1c-0.5,0-0.8,0.6-1.3,0.7c-0.7,0.2-0.8,0.9-1,1c-0.1,0.1-0.1,0.3-0.1,0.3
			c0.2,0,0,0.4-0.1,0.5c-0.2,0.3-0.1,0.6-0.1,0.7c0,0.2,0.1,0.4,0.2,0.5c0,0.1,0.1,0.2,0.1,0.3c0,0.2,0.1,0.4,0.1,0.4
			c0.2,0.1,0.2,0,0.4,0.1c0.2,0.1,0.4,0.3,0.4,0.3c0.4,0.3,1,0.1,1.5,0.1C47.2,26.5,48,25.5,48.2,25 M46.9,23.7
			c0-0.1-0.3-0.3-0.4-0.4c-0.1-0.1-0.3-0.1-0.5-0.1c-0.3-0.1-0.5,0.2-0.8,0.2c-0.1,0-0.2,0.1-0.3,0.2c-0.3,0.2-0.5,0.9-0.5,1
			c-0.1,0.4,0.3,0.6,0.4,0.6c0.2,0,0.4,0,0.7-0.1c0.3-0.1,0.6-0.3,0.8-0.6c0.2-0.2,0.3-0.4,0.4-0.6C47,23.8,46.9,23.7,46.9,23.7
			 M50.1,25.2c0,0-0.3-0.1-0.4-0.1c-0.1,0-0.2,0-0.3-0.1c-0.2,0-0.4-0.1-0.6,0c-0.1,0-0.1,0-0.2,0c-0.1,0-0.2,0.1-0.1,0.2
			c0,0,0.1,0,0.1,0.1c0,0.2,0.2,0.2,0.2,0.3c0,0,0.1,0.1,0.1,0.1c0.2,0.1,0.5,0.1,0.7,0.1c0.1,0,0.2-0.1,0.3-0.1
			c0.2,0,0.1-0.2,0.3-0.3c0.1,0,0.2,0,0.2-0.1C50.3,25.3,50.2,25.2,50.1,25.2 M42.9,26.4c0-0.2-0.2-0.3-0.4-0.3
			c-0.4,0.2-0.9,0.2-1,0.7c0,0.1,0.1,0.2,0.2,0.3c0.1,0,0.3,0,0.4,0c0.1,0,0.3-0.1,0.4-0.1c0.1-0.1,0.2-0.1,0.3-0.2
			C42.9,26.7,43,26.6,42.9,26.4C42.9,26.5,42.9,26.4,42.9,26.4 M47.6,27.2c0,0-0.2,0-0.2,0c-0.1,0-0.2-0.1-0.3-0.1
			c0,0-0.1,0.1-0.1,0.1c0,0.1-0.1,0.1-0.1,0.2c0,0,0,0.1,0,0.1c0,0,0,0.1,0.1,0.1c0.1,0.1,0,0.2,0.1,0.3c0,0.1,0,0.2,0.1,0.2
			c0.1,0.1,0.2,0.1,0.2,0.1c0.1,0,0.2,0.1,0.3,0.1c0,0,0.1-0.1,0.1-0.1c0.1-0.1,0.3-0.2,0.2-0.4c0-0.2-0.1-0.3-0.1-0.4
			C47.8,27.4,47.7,27.3,47.6,27.2 M45.1,27.6c-0.1,0-0.2-0.2-0.3-0.2c-0.2,0-0.6,0.7-0.5,1.2c0,0.1,0.1,0.1,0.1,0.2
			c0,0,0.2,0.2,0.3,0.1c0.1,0,0.1-0.1,0.1-0.2c0.1-0.1,0.2-0.3,0.3-0.4C45.2,28.1,45.3,27.8,45.1,27.6 M59.9,50.8
			C59.9,50.8,59.9,50.8,59.9,50.8c0.1,0,0.1,0,0.1,0c0.1,0,0.1-0.1,0.1-0.1c0-0.1-0.1-0.1-0.1-0.1C59.9,50.7,59.9,50.7,59.9,50.8
			c-0.1-0.1-0.1-0.1-0.1-0.1c0,0-0.1,0-0.1,0c-0.1,0-0.1-0.1-0.2-0.1c0,0-0.1,0-0.1,0c0,0,0,0.1,0,0.1c0,0,0,0.1,0,0.1c0,0,0,0,0,0
			c0,0,0,0.1,0,0.1c0,0,0,0,0,0.1v0.1c-0.1,0.1-0.1,0.2,0,0.2c0.1,0,0.3,0,0.4-0.1C59.9,51.2,59.7,50.9,59.9,50.8 M56.6,48.2
			c0,0,0.1,0,0.1,0c0,0,0.1-0.1,0.1-0.1c0.1-0.1,0-0.1,0-0.1c0-0.1,0.1-0.2,0-0.3c-0.1-0.1-0.2,0.1-0.2,0.2c0,0.1-0.2,0-0.3,0.2
			c0,0,0,0.1,0,0.1c0,0,0,0.1,0,0.1C56.5,48.3,56.6,48.2,56.6,48.2 M59.7,43.7C59.7,43.7,59.6,43.8,59.7,43.7c-0.1,0.1,0,0.1,0,0.1
			c0,0,0.1-0.1,0.1-0.1C59.8,43.7,59.7,43.7,59.7,43.7 M62.9,44.6c0-0.1-0.2,0-0.2,0.1C62.6,44.7,62.9,44.7,62.9,44.6 M63.2,43.5
			c0,0-0.1-0.1-0.2,0c0,0.1-0.1,0.1,0,0.2c0.1,0.1,0.2,0,0.2,0C63.3,43.7,63.4,43.6,63.2,43.5C63.3,43.5,63.3,43.5,63.2,43.5
			 M61.8,43.1c-0.1,0-0.2,0.1-0.2,0.1c-0.1,0.1-0.3,0.3-0.3,0.4c0,0.1-0.1,0.1-0.2,0.2c0,0-0.1,0.1,0,0.1c0,0,0.1,0,0.2,0
			c0,0,0.1-0.1,0.1-0.1c0,0,0.1,0,0.1-0.1c0,0,0-0.1,0.1-0.1c0,0,0.1-0.1,0.1-0.1c0,0,0.1-0.1,0.1-0.1c0-0.1,0.1-0.1,0.1-0.2
			C61.9,43.3,61.9,43.2,61.8,43.1C61.8,43.1,61.8,43.1,61.8,43.1 M64.3,43.1c0,0-0.1,0-0.1,0C64,43.1,64,43,64,43.2
			c0,0-0.1,0.3,0,0.3c0.1,0,0.2-0.1,0.2-0.2C64.2,43.3,64.4,43.1,64.3,43.1 M64.7,43.9c-0.1,0-0.2,0-0.3,0c0,0-0.1,0.1-0.1,0.1
			c0,0-0.1,0-0.1,0.1c0,0,0,0.1,0,0.1c0,0,0.1,0,0.1,0c0.1,0,0.2,0,0.3,0C64.6,44.1,64.7,43.9,64.7,43.9 M60.2,44.4
			c-0.1,0-0.3,0.4-0.1,0.3c0,0,0.1-0.1,0.2-0.2C60.2,44.5,60.3,44.3,60.2,44.4 M59.7,44.8c-0.1-0.1-0.2,0.1-0.3,0.2
			c-0.1,0.1-0.3,0.1-0.1,0.2c0.1,0.1,0.3-0.1,0.3-0.2C59.7,45.1,59.8,44.9,59.7,44.8 M63.7,44.9C63.7,45,63.6,45,63.7,44.9
			c-0.1,0.1-0.1,0.2-0.1,0.2c0,0,0,0.1,0.1,0.1c0,0,0.1,0,0.1,0c0,0,0.1,0,0.1-0.1C63.8,45,63.8,45,63.7,44.9
			C63.7,45,63.7,44.9,63.7,44.9 M63.7,45.4c-0.2,0-0.5,0-0.7,0.2c-0.1,0.2,0,0.3,0.2,0.4c0.1,0,0.3,0,0.3,0c0.1-0.1,0.1-0.2,0.1-0.2
			c0.1-0.1,0.2-0.1,0.2-0.1C63.9,45.4,63.8,45.4,63.7,45.4 M66.6,46.3c-0.1,0.1-0.3,0.2-0.3,0.4C66.4,46.8,66.8,46.3,66.6,46.3
			 M63.1,46.1c-0.1,0-0.2-0.2-0.3,0C62.8,46.3,63,46.1,63.1,46.1C63.1,46.1,63.1,46.1,63.1,46.1C63.1,46.1,63.1,46.1,63.1,46.1
			 M54,48.3c-0.1-0.1-0.2,0-0.3,0.1c0,0-0.1,0.1-0.1,0.1c-0.1,0-0.1,0-0.2,0c-0.1,0.1,0,0.1,0.1,0.1c0.1,0,0.1,0,0.2,0
			c0.1,0,0.2,0,0.3-0.1C54,48.3,54,48.3,54,48.3 M53.1,48.6C53,48.6,53,48.6,53.1,48.6c-0.1,0.1-0.2,0-0.2,0c0,0-0.1,0-0.1,0
			c0,0,0,0.1,0,0.1c0,0,0.1,0,0.1,0c0,0,0.1,0,0.1,0C53.1,48.8,53.1,48.7,53.1,48.6 M57.1,48.2c-0.1,0-0.1,0.1-0.2,0.2
			c0,0-0.1,0.1,0,0.1c0,0.1,0.1,0,0.1,0c0,0,0.1,0,0.1-0.1c0,0,0.1-0.1,0.1-0.1c0.1-0.1,0.2-0.1,0.2-0.2c0-0.1-0.2,0-0.2,0
			C57.2,48.1,57.2,48.1,57.1,48.2 M57.2,48.9c0,0.1,0.1,0.2,0.2,0.2c0.1,0,0.3,0.1,0.3-0.1c0,0,0-0.1-0.1-0.1c0-0.1,0-0.1-0.1-0.1
			c-0.1,0-0.1,0-0.2,0c-0.1,0-0.2-0.2-0.2-0.1C57.2,48.8,57.2,48.9,57.2,48.9 M57.7,48.7c0,0,0,0.1,0.1,0.1c0.2,0.1,0.1,0,0.2-0.2
			c0,0,0.1-0.1,0.1-0.2C58.1,48.4,57.7,48.6,57.7,48.7 M58.1,49.2c0,0,0.1-0.1,0.1-0.1c0.1,0,0.2-0.1,0.2-0.2c0,0,0.1-0.2,0-0.1
			c-0.1,0-0.1,0.1-0.2,0.2c-0.1,0-0.4,0.2-0.4,0.3c0,0,0.1,0.1,0.1,0.1C58,49.3,58,49.3,58.1,49.2C58.1,49.2,58.1,49.2,58.1,49.2
			 M58.2,49.3C58.2,49.3,58.2,49.3,58.2,49.3c-0.1,0.1-0.2,0.1-0.2,0.1c0,0-0.1,0-0.1,0.1c0,0,0,0.1,0.1,0.1c0,0,0.1,0.1,0.1,0.1
			c0,0,0.1-0.1,0-0.1c0,0,0,0,0-0.1c0,0,0,0,0.1-0.1C58.3,49.4,58.3,49.3,58.2,49.3C58.3,49.3,58.3,49.3,58.2,49.3 M57.9,49.6
			C57.9,49.6,57.9,49.6,57.9,49.6c-0.1,0-0.1,0-0.1,0.1c0,0-0.1,0.1-0.1,0.1c0,0,0.1,0,0.1,0c0,0,0,0,0.1,0c0,0,0,0,0,0
			C58,49.7,58,49.7,57.9,49.6C58,49.6,58,49.6,57.9,49.6 M60.5,50.8c-0.1,0-0.1,0-0.1,0.1c0,0.1,0,0.1,0,0.1c0.1,0,0.2-0.1,0.4-0.1
			c0,0,0.2-0.2,0.2-0.2C60.9,50.7,60.7,50.8,60.5,50.8L60.5,50.8 M57.5,50.6c0,0.1-0.2,0.2-0.2,0.2c0,0.1,0.2,0.1,0.3,0.1
			c0.3,0,0.6,0.1,0.8-0.1c0.1-0.1,0.1-0.3,0.1-0.4c-0.1-0.1-0.2,0-0.3,0C57.9,50.5,57.7,50.4,57.5,50.6 M62,50.3
			C62,50.3,61.9,50.3,62,50.3c0,0.1,0,0.1,0.1,0.1c0.1,0,0.2,0.1,0.3,0.1c0,0,0.1,0.1,0.1,0.1c0.1,0,0.1,0,0.1-0.1c0,0,0-0.1,0-0.1
			c0,0,0-0.1,0-0.1c0-0.1-0.2-0.1-0.2-0.1c-0.1,0-0.1,0-0.2,0c0,0-0.1,0-0.1,0C62.1,50.3,62,50.2,62,50.3"/>
		<path class="st6" d="M8,89.9l0-4.3l1.5,0c1.1,0,1.9,0,2.4-0.1c0.4-0.1,0.8-0.3,1.2-0.5c0.4-0.3,0.7-0.6,1-1.1
			c0.3-0.5,0.4-1.1,0.4-1.8c0-0.9-0.2-1.7-0.6-2.2c-0.4-0.6-1-1-1.6-1.1c-0.4-0.1-1.3-0.2-2.8-0.2l-3.7,0L5.6,89.9L8,89.9z
			 M9.2,80.4c0.8,0,1.4,0,1.7,0.1c0.4,0.1,0.7,0.2,0.9,0.5c0.2,0.3,0.4,0.6,0.3,1c0,0.3-0.1,0.6-0.3,0.9c-0.2,0.3-0.4,0.4-0.7,0.6
			c-0.3,0.1-0.9,0.2-1.8,0.2l-1.3,0l0-3.3L9.2,80.4z M15.9,85.7c0,1,0.2,1.8,0.5,2.4c0.4,0.7,0.9,1.2,1.6,1.5
			c0.7,0.3,1.4,0.5,2.2,0.5c1.2,0,2.3-0.4,3.1-1.2c0.8-0.8,1.2-1.9,1.2-3.1c0-1.3-0.4-2.3-1.2-3.1c-0.8-0.8-1.8-1.2-3.1-1.3
			c-0.8,0-1.6,0.2-2.2,0.5c-0.7,0.4-1.2,0.9-1.5,1.6C16.1,84.3,15.9,85,15.9,85.7 M18.1,85.8c0-0.8,0.2-1.5,0.6-1.9
			c0.4-0.4,0.9-0.7,1.5-0.7c0.6,0,1,0.2,1.4,0.7c0.4,0.4,0.6,1.1,0.6,1.9c0,0.8-0.2,1.5-0.6,1.9c-0.4,0.4-0.9,0.7-1.5,0.6
			c-0.6,0-1-0.2-1.4-0.7C18.3,87.3,18.1,86.7,18.1,85.8 M28.3,87.5c0-1.4,0.1-2.3,0.2-2.8c0.1-0.4,0.3-0.7,0.5-0.9
			c0.2-0.2,0.5-0.3,0.8-0.2c0.3,0,0.7,0.1,1,0.4l0.7-1.9c-0.5-0.3-0.9-0.4-1.4-0.4c-0.4,0-0.7,0.1-1,0.3c-0.3,0.2-0.6,0.5-0.9,1.1
			l0-1.2l-2,0L26,90.1l2.2,0L28.3,87.5z M39.1,90.2l0.1-11.5l-2.2,0l-0.1,11.5L39.1,90.2z M43,84.4c0.1-0.4,0.3-0.7,0.5-0.8
			c0.2-0.2,0.5-0.2,0.9-0.2c0.6,0,1,0.1,1.2,0.3c0.2,0.2,0.3,0.5,0.3,0.9l0,0.2c-0.4,0.2-1.1,0.3-2.1,0.5c-0.8,0.1-1.4,0.3-1.8,0.5
			c-0.4,0.2-0.7,0.5-1,0.8c-0.2,0.4-0.3,0.8-0.3,1.3c0,0.7,0.2,1.3,0.7,1.8c0.5,0.5,1.2,0.7,2,0.7c0.5,0,0.9-0.1,1.4-0.3
			c0.4-0.2,0.8-0.4,1.2-0.8c0,0,0,0.1,0.1,0.3c0.1,0.3,0.1,0.5,0.2,0.7l2.2,0c-0.2-0.4-0.3-0.8-0.4-1.1c-0.1-0.4-0.1-0.9-0.1-1.6
			l0-2.6c0-1-0.1-1.6-0.3-2c-0.2-0.4-0.5-0.7-1-0.9c-0.5-0.2-1.2-0.4-2.2-0.4c-1.1,0-1.9,0.2-2.5,0.6c-0.6,0.4-1,1-1.2,1.8L43,84.4
			 M45.9,86.7c0,0.5,0,0.9-0.1,1.1c-0.1,0.3-0.3,0.5-0.5,0.7c-0.4,0.3-0.7,0.4-1.1,0.4c-0.3,0-0.6-0.1-0.9-0.3
			C43.1,88.3,43,88,43,87.7c0-0.3,0.1-0.6,0.4-0.8c0.2-0.1,0.6-0.2,1.2-0.4c0.6-0.1,1.1-0.2,1.3-0.3V86.7z M62.3,85.2
			c0-0.6,0-1.1-0.1-1.5c-0.1-0.3-0.2-0.7-0.4-0.9c-0.2-0.3-0.5-0.5-0.9-0.7c-0.4-0.2-0.8-0.3-1.3-0.3c-1.1,0-2,0.5-2.8,1.4l0-1.2
			l-2,0l-0.1,8.3l2.2,0l0-3.8c0-0.9,0.1-1.6,0.2-1.9c0.1-0.3,0.3-0.6,0.6-0.8c0.3-0.2,0.7-0.3,1-0.3c0.3,0,0.5,0.1,0.8,0.2
			c0.2,0.1,0.4,0.4,0.5,0.6c0.1,0.3,0.1,0.8,0.1,1.7l0,4.2l2.2,0L62.3,85.2z M66.8,81l0-2l-2.2,0l0,2L66.8,81z M66.7,90.4l0.1-8.3
			l-2.2,0l-0.1,8.3L66.7,90.4z M76.6,85.3c0-0.6,0-1.1-0.1-1.5c-0.1-0.3-0.2-0.7-0.4-0.9c-0.2-0.3-0.5-0.5-0.9-0.7
			c-0.4-0.2-0.8-0.3-1.3-0.3c-1.1,0-2,0.5-2.8,1.4l0-1.2l-2,0l-0.1,8.3l2.2,0l0-3.8c0-0.9,0.1-1.6,0.2-1.9c0.1-0.3,0.3-0.6,0.6-0.8
			c0.3-0.2,0.7-0.3,1-0.3c0.3,0,0.5,0.1,0.8,0.2c0.2,0.1,0.4,0.4,0.4,0.6c0.1,0.3,0.1,0.8,0.1,1.7l0,4.2l2.2,0L76.6,85.3z M71.1,81
			c0-0.3,0.1-0.4,0.2-0.5c0.1-0.1,0.2-0.2,0.4-0.2c0.2,0,0.6,0.1,1,0.3c0.5,0.2,0.8,0.3,0.9,0.3c0.2,0,0.3,0.1,0.5,0.1
			c0.4,0,0.8-0.1,1-0.4c0.3-0.3,0.4-0.8,0.4-1.5l-1,0c0,0.2-0.1,0.4-0.2,0.5c-0.1,0.1-0.3,0.2-0.4,0.2c-0.2,0-0.6-0.1-1-0.3
			c-0.4-0.2-0.7-0.3-0.9-0.3c-0.2,0-0.3-0.1-0.5-0.1c-0.4,0-0.8,0.1-1,0.4c-0.3,0.3-0.4,0.7-0.4,1.3c0,0.1,0,0.2,0,0.3L71.1,81
			 M83.6,87.9c-0.1,0.4-0.3,0.7-0.5,0.9c-0.2,0.2-0.5,0.3-0.9,0.3c-0.5,0-0.9-0.2-1.3-0.6c-0.3-0.4-0.5-0.9-0.5-1.5l5.5,0.1
			c0-1.7-0.3-2.9-1-3.8c-0.7-0.8-1.7-1.2-2.9-1.3c-1.1,0-2,0.4-2.7,1.2c-0.7,0.8-1.1,1.9-1.1,3.2c0,1.1,0.3,2.1,0.8,2.9
			c0.7,1,1.8,1.4,3.2,1.4c0.9,0,1.7-0.2,2.3-0.6c0.6-0.4,1.1-1,1.4-1.8L83.6,87.9 M80.5,85.7c0-0.6,0.2-1.1,0.5-1.4
			c0.3-0.4,0.7-0.5,1.2-0.5c0.5,0,0.8,0.2,1.1,0.5c0.3,0.3,0.5,0.8,0.5,1.5L80.5,85.7z M94.2,90.7l0-1.9l-3.4,0c-0.1,0-0.5,0-1.1,0
			l1.1-1.2l3.2-3.6l0-1.6l-6.9-0.1l0,1.8l2.9,0c0.4,0,0.8,0,1,0c-0.3,0.2-0.6,0.7-1.1,1.2l-3.1,3.6l0,1.7L94.2,90.7z M107.5,84.9
			c-0.3-0.9-0.7-1.6-1.3-2c-0.6-0.4-1.4-0.7-2.4-0.7c-1.2,0-2.2,0.4-3,1.1c-0.7,0.8-1.1,1.8-1.1,3.2c0,1.4,0.3,2.4,1.1,3.2
			c0.7,0.8,1.7,1.2,2.9,1.2c1.1,0,1.9-0.2,2.6-0.7c0.6-0.5,1.1-1.2,1.3-2.2l-2.2-0.4c-0.1,0.6-0.3,1-0.6,1.2c-0.3,0.2-0.6,0.4-1,0.3
			c-0.6,0-1-0.2-1.3-0.6c-0.3-0.4-0.5-1.1-0.5-2.1c0-0.9,0.2-1.5,0.5-1.9c0.3-0.4,0.8-0.6,1.3-0.6c0.4,0,0.8,0.1,1,0.3
			c0.3,0.2,0.4,0.5,0.5,1L107.5,84.9 M108.6,86.5c0,1,0.2,1.8,0.5,2.4c0.4,0.7,0.9,1.2,1.6,1.5c0.7,0.4,1.4,0.5,2.2,0.5
			c1.2,0,2.3-0.4,3.1-1.2c0.8-0.8,1.2-1.9,1.2-3.1c0-1.2-0.4-2.3-1.2-3.1c-0.8-0.8-1.8-1.2-3.1-1.3c-0.8,0-1.5,0.2-2.2,0.5
			c-0.7,0.4-1.2,0.9-1.6,1.6C108.8,85.1,108.6,85.8,108.6,86.5 M110.9,86.7c0-0.8,0.2-1.5,0.6-1.9c0.4-0.4,0.9-0.7,1.5-0.6
			c0.6,0,1.1,0.2,1.4,0.7c0.4,0.4,0.6,1.1,0.6,1.9c0,0.8-0.2,1.5-0.6,1.9c-0.4,0.4-0.9,0.7-1.5,0.6c-0.6,0-1.1-0.2-1.4-0.7
			C111.1,88.1,110.9,87.5,110.9,86.7 M121.1,90.9l0.1-11.5l-2.2,0l-0.1,11.5L121.1,90.9z M122.9,86.6c0,1,0.2,1.8,0.5,2.4
			c0.4,0.7,0.9,1.2,1.6,1.5c0.7,0.3,1.4,0.5,2.2,0.5c1.2,0,2.3-0.4,3.1-1.2c0.8-0.8,1.2-1.9,1.2-3.1c0-1.2-0.4-2.3-1.2-3.1
			c-0.8-0.8-1.8-1.2-3.1-1.3c-0.8,0-1.6,0.2-2.2,0.5c-0.6,0.4-1.2,0.9-1.5,1.6C123.1,85.2,122.9,85.9,122.9,86.6 M125.1,86.8
			c0-0.8,0.2-1.5,0.6-1.9c0.4-0.4,0.9-0.7,1.5-0.6c0.6,0,1,0.2,1.4,0.7c0.4,0.4,0.6,1.1,0.6,1.9c0,0.8-0.2,1.5-0.6,1.9
			c-0.4,0.4-0.9,0.7-1.5,0.6c-0.6,0-1.1-0.2-1.4-0.7C125.3,88.2,125.1,87.6,125.1,86.8 M133,91l2.2,0l0-4c0-0.8,0.1-1.4,0.2-1.7
			c0.1-0.3,0.3-0.6,0.6-0.8c0.3-0.2,0.6-0.3,0.9-0.3c0.3,0,0.5,0.1,0.7,0.2c0.2,0.1,0.3,0.3,0.4,0.5c0.1,0.2,0.1,0.8,0.1,1.6l0,4.6
			l2.2,0l0-4c0-0.8,0.1-1.4,0.2-1.7c0.1-0.4,0.3-0.6,0.6-0.8c0.3-0.2,0.6-0.3,0.9-0.3c0.4,0,0.7,0.2,0.9,0.5
			c0.1,0.2,0.2,0.8,0.2,1.6l0,4.8l2.2,0l0-5.3c0-0.8-0.1-1.4-0.2-1.7c-0.2-0.5-0.5-0.9-0.9-1.1c-0.4-0.3-0.9-0.4-1.5-0.4
			c-0.5,0-0.9,0.1-1.4,0.3c-0.4,0.2-0.8,0.5-1.2,1c-0.2-0.4-0.6-0.8-0.9-1c-0.4-0.2-0.9-0.3-1.4-0.3c-1,0-1.9,0.4-2.6,1.3l0-1.1
			l-2,0L133,91z M149.4,91.1l0-1.2c0.3,0.5,0.7,0.8,1.2,1.1c0.5,0.2,0.9,0.4,1.4,0.4c1,0,1.8-0.4,2.5-1.1c0.7-0.8,1-1.8,1-3.3
			c0-1.4-0.3-2.4-1-3.2c-0.7-0.7-1.5-1.1-2.5-1.1c-0.9,0-1.7,0.4-2.4,1.1l0-4.1l-2.2,0l-0.1,11.5L149.4,91.1z M149.6,86.8
			c0-0.8,0.2-1.5,0.5-1.9c0.4-0.4,0.8-0.6,1.3-0.6c0.5,0,1,0.2,1.3,0.6c0.3,0.4,0.5,1.1,0.5,2.1c0,0.9-0.2,1.5-0.5,2
			c-0.3,0.4-0.8,0.6-1.3,0.6c-0.6,0-1.1-0.3-1.5-0.9C149.7,88.3,149.5,87.7,149.6,86.8 M159.5,81.8l0-2l-2.2,0l0,2L159.5,81.8z
			 M159.4,91.2l0.1-8.3l-2.2,0l-0.1,8.3L159.4,91.2z M163.4,85.5c0.1-0.4,0.3-0.7,0.5-0.8c0.2-0.2,0.5-0.2,0.9-0.2
			c0.6,0,1,0.1,1.2,0.3c0.2,0.2,0.3,0.5,0.3,0.9l0,0.2c-0.4,0.2-1.1,0.3-2.2,0.5c-0.8,0.1-1.3,0.3-1.8,0.5c-0.4,0.2-0.7,0.5-0.9,0.8
			c-0.2,0.4-0.3,0.8-0.3,1.3c0,0.7,0.2,1.3,0.7,1.8c0.5,0.5,1.2,0.7,2,0.7c0.5,0,0.9-0.1,1.4-0.3c0.4-0.2,0.8-0.4,1.2-0.8
			c0,0,0,0.1,0.1,0.3c0.1,0.3,0.2,0.5,0.2,0.7l2.2,0c-0.2-0.4-0.3-0.8-0.4-1.1c-0.1-0.3-0.1-0.9-0.1-1.6l0-2.6c0-1-0.1-1.6-0.3-2
			c-0.2-0.4-0.5-0.7-1-0.9c-0.5-0.2-1.2-0.4-2.2-0.4c-1.1,0-1.9,0.2-2.4,0.6c-0.6,0.4-0.9,1-1.2,1.8L163.4,85.5 M166.3,87.7
			c0,0.5,0,0.9-0.1,1.1c-0.1,0.3-0.3,0.5-0.5,0.7c-0.4,0.3-0.7,0.4-1.1,0.4c-0.4,0-0.6-0.1-0.9-0.3c-0.2-0.2-0.3-0.5-0.3-0.8
			c0-0.3,0.1-0.6,0.4-0.8c0.2-0.1,0.6-0.2,1.2-0.4c0.6-0.1,1.1-0.2,1.3-0.3V87.7z M178.2,86.2c0-0.6,0-1.1-0.1-1.5
			c-0.1-0.3-0.2-0.7-0.4-0.9c-0.2-0.3-0.5-0.5-0.9-0.7c-0.4-0.2-0.8-0.3-1.3-0.3c-1.1,0-2,0.5-2.8,1.4l0-1.2l-2,0l-0.1,8.3l2.2,0
			l0-3.8c0-0.9,0.1-1.6,0.2-1.9c0.1-0.3,0.3-0.6,0.6-0.8c0.3-0.2,0.7-0.3,1-0.3c0.3,0,0.6,0.1,0.8,0.2c0.2,0.1,0.4,0.4,0.4,0.6
			c0.1,0.3,0.1,0.9,0.1,1.8l0,4.2l2.2,0L178.2,86.2z M182.1,85.6c0.2-0.4,0.3-0.7,0.5-0.8c0.2-0.2,0.5-0.2,0.9-0.2
			c0.6,0,1,0.1,1.2,0.3c0.2,0.2,0.3,0.5,0.3,0.9V86c-0.4,0.2-1.1,0.3-2.1,0.5c-0.8,0.1-1.3,0.3-1.8,0.5c-0.4,0.2-0.7,0.5-0.9,0.8
			c-0.2,0.4-0.3,0.8-0.4,1.3c0,0.7,0.2,1.3,0.7,1.8c0.5,0.5,1.2,0.7,2,0.7c0.5,0,0.9-0.1,1.4-0.3c0.4-0.2,0.8-0.4,1.2-0.8
			c0,0,0,0.1,0.1,0.3c0.1,0.3,0.2,0.5,0.2,0.7l2.2,0c-0.2-0.4-0.3-0.8-0.4-1.1c-0.1-0.3-0.1-0.9-0.1-1.6l0-2.6c0-1-0.1-1.6-0.3-2
			c-0.2-0.4-0.5-0.7-1-0.9c-0.5-0.2-1.2-0.4-2.2-0.4c-1.1,0-1.9,0.2-2.4,0.6c-0.6,0.4-1,1-1.2,1.8L182.1,85.6 M185,87.9
			c0,0.5,0,0.9-0.1,1.1c-0.1,0.3-0.3,0.5-0.5,0.7c-0.4,0.3-0.7,0.4-1.1,0.4c-0.4,0-0.6-0.1-0.9-0.3c-0.2-0.2-0.3-0.5-0.3-0.8
			c0-0.3,0.1-0.6,0.4-0.8c0.2-0.1,0.6-0.2,1.2-0.4c0.6-0.1,1.1-0.2,1.3-0.3L185,87.9z"/>
	</g>
</g>
</svg>
