<?xml version="1.0" encoding="utf-8"?>
<!-- Generator: Adobe Illustrator 22.0.0, SVG Export Plug-In . SVG Version: 6.00 Build 0)  -->
<svg version="1.1" xmlns="http://www.w3.org/2000/svg" xmlns:xlink="http://www.w3.org/1999/xlink" x="0px" y="0px"
	 viewBox="0 0 1918.1 535.1" style="enable-background:new 0 0 1918.1 535.1;" xml:space="preserve">
<style type="text/css">
	.st0{fill:#FFFFFF;}
	.st1{opacity:0.3;}
	.st2{fill:#39B2BE;}
	.st3{fill:#D36E6E;}
	.st4{fill:none;stroke:#383838;stroke-linecap:round;stroke-linejoin:round;}
	.st5{fill:none;stroke:#B0EF4D;stroke-width:2.5;stroke-linecap:round;stroke-linejoin:round;}
	.st6{fill:#4E4E4E;}
	.st7{fill:#99C503;}
	.st8{fill:none;stroke:#007D25;stroke-width:3.1395;stroke-linecap:round;stroke-linejoin:round;}
	.st9{fill:#5B00DA;}
	.st10{fill:none;stroke:#FFFFFF;stroke-width:2.9;stroke-miterlimit:10;}
	.st11{fill-rule:evenodd;clip-rule:evenodd;fill:#FFFFFF;}
	.st12{fill:none;stroke:#99C503;stroke-width:2.9936;stroke-linecap:round;stroke-linejoin:round;}
	.st13{fill:#C6433E;}
	.st14{fill:#E20613;}
	.st15{fill:#FCD570;}
	.st16{fill:#FCCD56;}
	.st17{fill:#F5BB41;}
	.st18{fill:#FDE19A;}
	.st19{fill:#FCD879;}
	.st20{fill:#FCD05E;}
	.st21{fill:#F6C55B;}
	.st22{fill:#F7B056;}
	.st23{fill:#F59B45;}
	.st24{fill-rule:evenodd;clip-rule:evenodd;fill:#FFC700;}
	.st25{opacity:0.39;}
	.st26{fill:none;stroke:#FFFFFF;stroke-width:2;stroke-linecap:round;stroke-linejoin:round;}
	.st27{fill:none;stroke:#FFFFFF;stroke-width:2.9784;stroke-linecap:round;stroke-linejoin:round;}
	.st28{fill:none;stroke:#FFFFFF;stroke-width:1.9752;stroke-linecap:round;stroke-linejoin:round;}
	.st29{fill:none;stroke:#FFFFFF;stroke-width:1.843;stroke-linecap:round;stroke-linejoin:round;}
	.st30{fill:none;stroke:#99C503;stroke-width:3.1578;stroke-linecap:round;stroke-linejoin:round;}
	.st31{fill:#FBB040;}
	.st32{fill:#ED5739;}
	.st33{fill:#ED1C24;}
	.st34{fill:#8F1116;}
	.st35{fill:#684791;}
	.st36{fill:#ADF1FF;}
	.st37{fill:#981108;}
	.st38{fill:#BF0F11;}
	.st39{fill:#E73F3A;}
	.st40{fill:#B1100E;}
	.st41{fill:#E20A17;}
	.st42{fill:#A8110C;}
	.st43{fill:#3A9B51;}
	.st44{fill:#58B46D;}
	.st45{fill-rule:evenodd;clip-rule:evenodd;fill:#220501;}
	.st46{fill-rule:evenodd;clip-rule:evenodd;fill:#F6B400;}
	.st47{fill-rule:evenodd;clip-rule:evenodd;fill:#EC7E00;}
	.st48{fill-rule:evenodd;clip-rule:evenodd;fill:#E61F11;}
	.st49{fill-rule:evenodd;clip-rule:evenodd;fill:#77305F;}
	.st50{fill-rule:evenodd;clip-rule:evenodd;fill:#00AE8A;}
	.st51{fill-rule:evenodd;clip-rule:evenodd;fill:#5D1913;}
	.st52{fill:none;stroke:#FFFFFF;stroke-width:0.9928;stroke-linecap:round;stroke-linejoin:round;}
	.st53{fill:none;stroke:#FFFFFF;stroke-width:0.9004;stroke-linecap:round;stroke-linejoin:round;}
	.st54{fill:none;stroke:#FFFFFF;stroke-width:0.3471;stroke-linecap:round;stroke-linejoin:round;}
	.st55{fill:none;stroke:#FFFFFF;stroke-width:0.4341;stroke-linecap:round;stroke-linejoin:round;}
	.st56{opacity:0.24;}
	.st57{fill:#FDFDFD;}
	.st58{fill:#FCD212;}
	.st59{fill-rule:evenodd;clip-rule:evenodd;fill:#FF989D;}
	.st60{fill-rule:evenodd;clip-rule:evenodd;fill:#87432A;}
	.st61{fill-rule:evenodd;clip-rule:evenodd;fill:#E9521A;}
	.st62{fill-rule:evenodd;clip-rule:evenodd;fill:#7F252C;}
	.st63{fill-rule:evenodd;clip-rule:evenodd;fill:#2B2626;}
	.st64{fill-rule:evenodd;clip-rule:evenodd;fill:#696969;}
	.st65{fill-rule:evenodd;clip-rule:evenodd;fill:#8C8C8B;}
	.st66{fill-rule:evenodd;clip-rule:evenodd;fill:#3D4D70;}
	.st67{fill:#6400DA;}
	.st68{fill:#FF6500;}
	.st69{fill:#F4EBC6;}
	.st70{fill:#B9B295;}
	.st71{fill:#0E0E0E;}
	.st72{fill:#000922;}
	.st73{fill:#FFFFC7;}
	.st74{fill:#8BBFCB;}
	.st75{fill:#B3D5DD;}
	.st76{fill:#00AEEF;}
	.st77{fill:#008FEF;}
	.st78{fill:#4E82B0;}
	.st79{fill:#5A93B5;}
	.st80{fill:none;stroke:#003142;stroke-width:2.0634;stroke-miterlimit:10;}
	.st81{fill:#252D42;}
	.st82{fill:#00090C;}
	.st83{fill:#79B2FF;}
	.st84{fill:#9BC6FF;}
	.st85{fill:#FFCB7C;}
	.st86{fill:#F6838D;}
	.st87{fill:#4799CF;}
	.st88{fill:#D9D9D9;}
	.st89{fill:#AAE5C8;}
	.st90{fill:#85BC94;}
	.st91{fill:#EA9D2D;}
	.st92{fill:#EBEBEB;}
	.st93{fill:#5ABCF3;}
	.st94{fill:#E06661;}
	.st95{fill:#CDCDCD;}
	.st96{fill:#FBB540;}
	.st97{fill:#FDC9A6;}
	.st98{fill:#475D6D;}
	.st99{fill:#2C3F4F;}
	.st100{fill:#F9DC6A;}
	.st101{fill:#E5AC51;}
	.st102{fill:#2BB4F3;}
	.st103{fill:#1687C4;}
	.st104{fill:#F2A077;}
	.st105{fill:#FFCCAA;}
	.st106{fill:#FF5A59;}
	.st107{fill:#CE3A4C;}
	.st108{fill:#FFC800;}
	.st109{fill:#009EE2;}
	.st110{fill:#FFD600;}
	.st111{fill:#005693;}
	.st112{fill:#34A836;}
	.st113{fill-rule:evenodd;clip-rule:evenodd;fill:none;}
	.st114{fill-rule:evenodd;clip-rule:evenodd;fill:#D6C1BE;}
	.st115{fill-rule:evenodd;clip-rule:evenodd;fill:#EAE2E0;}
	.st116{fill-rule:evenodd;clip-rule:evenodd;fill:#66C0B0;}
	.st117{fill-rule:evenodd;clip-rule:evenodd;fill:#56B09E;}
	.st118{fill:none;}
	.st119{fill:#011826;}
	.st120{opacity:0.4;}
	.st121{fill:#00294F;}
	.st122{fill:#884D30;}
	.st123{fill:#3F0D0B;}
	.st124{fill:#A86C0E;}
	.st125{fill:#F09915;}
	.st126{opacity:0.4;fill:#FFFFFF;}
	.st127{fill:#DCDDEE;}
	.st128{fill:#A5A3A9;}
	.st129{fill:#DCCEC3;}
	.st130{fill:#9D5224;}
	.st131{fill:#612E05;}
	.st132{fill:#804118;}
	.st133{fill:#562504;}
	.st134{fill:#723412;}
	.st135{fill:#E3CDBF;}
	.st136{fill:#240500;}
	.st137{fill:#391B00;}
	.st138{fill:#462500;}
	.st139{fill:#D3C8BF;}
	.st140{fill:#4F2200;}
	.st141{fill:none;stroke:#FFFFFF;stroke-width:0.8075;stroke-linecap:round;stroke-linejoin:round;}
	.st142{opacity:0.1;fill:#00C1A8;}
	.st143{fill:#FA6B08;}
	.st144{fill:#FF9138;}
	.st145{fill:#123025;}
	.st146{fill:none;stroke:#001609;stroke-width:3;stroke-miterlimit:10;}
	.st147{fill:#32453F;}
	.st148{opacity:0.1;clip-path:url(#SVGID_2_);}
	.st149{fill:#A1B6AD;}
	.st150{fill:#CE5606;}
	.st151{fill:#FDFDD6;}
	.st152{fill:#FDFDDA;}
	.st153{fill:none;stroke:#FDFDD6;stroke-miterlimit:10;}
	.st154{fill:#FF9D4E;}
	.st155{fill:#FFD161;}
	.st156{fill:#FFCC41;}
	.st157{fill:#FFAC00;}
	.st158{fill:#00C1A8;}
	.st159{fill:#001609;}
	.st160{fill:none;stroke:#FFFFFF;stroke-width:3;stroke-linecap:round;stroke-linejoin:round;}
	.st161{fill:#009CDD;}
	.st162{clip-path:url(#SVGID_6_);}
	.st163{fill:url(#SVGID_7_);}
	.st164{fill:url(#SVGID_8_);}
	.st165{fill:url(#SVGID_9_);}
	.st166{fill:url(#SVGID_10_);}
	.st167{fill:url(#SVGID_11_);}
	.st168{fill:url(#SVGID_12_);}
	.st169{fill:url(#SVGID_13_);}
	.st170{fill:url(#SVGID_14_);}
	.st171{fill:url(#SVGID_15_);}
	.st172{fill:url(#SVGID_16_);}
	.st173{fill:url(#SVGID_17_);}
	.st174{fill:url(#SVGID_18_);}
	.st175{fill:url(#SVGID_19_);}
	.st176{fill:url(#SVGID_20_);}
	.st177{fill:url(#SVGID_21_);}
	.st178{fill:url(#SVGID_22_);}
	.st179{fill:url(#SVGID_23_);}
	.st180{fill:#EBF3FA;}
	.st181{clip-path:url(#SVGID_6_);fill:url(#SVGID_24_);}
	.st182{fill:url(#SVGID_25_);}
	.st183{fill:url(#SVGID_26_);}
	.st184{fill:url(#SVGID_29_);}
	.st185{fill:url(#SVGID_30_);}
	.st186{clip-path:url(#SVGID_32_);}
	.st187{clip-path:url(#SVGID_36_);}
	.st188{fill:#418421;}
	.st189{fill:#2D660E;}
	.st190{fill:#84D84E;}
	.st191{opacity:0.4;fill:#2D660E;}
	.st192{fill:#EDC174;}
	.st193{fill:#D8A34E;}
	.st194{fill:#C18733;}
	.st195{opacity:0.4;fill:#1B3D04;}
	.st196{fill:#6AC634;}
	.st197{fill:#245109;}
	.st198{fill:#D6854D;}
	.st199{fill:#BC6428;}
	.st200{fill:#492004;}
	.st201{fill:#66BC2E;}
	.st202{clip-path:url(#SVGID_36_);fill:#009CDD;}
	.st203{fill:#D8BF4C;}
	.st204{fill:#4BDDFD;}
	.st205{opacity:0.6;fill:#13BDE5;}
	.st206{opacity:0.5;fill:#FFEAC1;}
	.st207{opacity:0.7;fill:#FFEAC1;}
	.st208{fill:#FAFFDE;}
	.st209{opacity:0.2;}
	.st210{fill:#BF9D62;}
	.st211{clip-path:url(#SVGID_40_);}
	.st212{clip-path:url(#SVGID_44_);fill:none;}
	.st213{clip-path:url(#SVGID_48_);fill:url(#SVGID_49_);}
	.st214{clip-path:url(#SVGID_48_);fill:url(#SVGID_50_);}
	.st215{clip-path:url(#SVGID_48_);fill:#009CDD;}
	.st216{clip-path:url(#SVGID_48_);}
	.st217{fill:url(#SVGID_51_);}
	.st218{fill:url(#SVGID_52_);}
	.st219{fill:url(#SVGID_53_);}
	.st220{fill:url(#SVGID_54_);}
	.st221{fill:url(#SVGID_55_);}
	.st222{fill:url(#SVGID_56_);}
	.st223{fill:url(#SVGID_57_);}
	.st224{fill:url(#SVGID_58_);}
	.st225{fill:url(#SVGID_59_);}
	.st226{fill:url(#SVGID_60_);}
	.st227{fill:url(#SVGID_61_);}
	.st228{fill:url(#SVGID_62_);}
	.st229{fill:url(#SVGID_63_);}
	.st230{fill:url(#SVGID_64_);}
	.st231{fill:url(#SVGID_65_);}
	.st232{fill:url(#SVGID_66_);}
	.st233{fill:url(#SVGID_67_);}
	.st234{fill:url(#SVGID_68_);}
	.st235{fill:url(#SVGID_69_);}
	.st236{fill:url(#SVGID_70_);}
	.st237{fill:url(#SVGID_71_);}
	.st238{fill:url(#SVGID_72_);}
	.st239{fill:url(#SVGID_73_);}
	.st240{fill:url(#SVGID_74_);}
	.st241{fill:url(#SVGID_75_);}
	.st242{fill:url(#SVGID_76_);}
	.st243{fill:url(#SVGID_77_);}
	.st244{fill:url(#SVGID_78_);}
	.st245{fill:url(#SVGID_79_);}
	.st246{fill:url(#SVGID_80_);}
	.st247{fill:url(#SVGID_81_);}
	.st248{fill:url(#SVGID_82_);}
	.st249{fill:url(#SVGID_83_);}
	.st250{fill:url(#SVGID_84_);}
	.st251{fill:url(#SVGID_85_);}
	.st252{fill:url(#SVGID_86_);}
	.st253{fill:url(#SVGID_87_);}
	.st254{fill:url(#SVGID_88_);}
	.st255{fill:url(#SVGID_89_);}
	.st256{fill:url(#SVGID_90_);}
	.st257{fill:url(#SVGID_91_);}
	.st258{fill:#3B3637;}
	.st259{fill:none;stroke:#3B3637;stroke-width:3;stroke-miterlimit:10;}
	.st260{fill:url(#SVGID_92_);}
	.st261{fill:url(#SVGID_93_);}
	.st262{fill:url(#SVGID_96_);}
	.st263{fill:#4171B1;}
	.st264{fill:#EF7641;}
	.st265{fill:#FDC543;}
	.st266{opacity:0.4;fill:#EF7641;}
	.st267{fill:#D9DAEF;}
	.st268{opacity:0.47;fill:#7B769A;}
	.st269{fill:#E83C70;}
	.st270{opacity:0.38;fill:#D9DAEF;}
	.st271{opacity:0.47;fill:#A29FB8;}
	.st272{fill:#78CED3;}
	.st273{fill:#ACE1E4;}
	.st274{fill:#E6E7F4;}
	.st275{fill:#F8C6AF;}
	.st276{fill:#FEE7B0;}
	.st277{fill:#25578E;}
	.st278{fill:none;stroke:#1F1E21;stroke-width:0.8075;stroke-linecap:round;stroke-linejoin:round;}
	.st279{fill:none;stroke:#FF7F0A;stroke-width:3.1395;stroke-linecap:round;stroke-linejoin:round;}
	.st280{fill:none;stroke:#FF590A;stroke-width:2.8549;stroke-linecap:round;stroke-linejoin:round;}
	.st281{fill:none;stroke:#FF7F0A;stroke-width:3.7113;stroke-miterlimit:10;}
	.st282{fill:none;stroke:#FF590A;stroke-width:3.5845;stroke-miterlimit:10;}
	.st283{fill:#FF590A;}
	.st284{fill:#FFE300;}
	.st285{fill:#5BCBEA;}
	.st286{fill:#1A1B25;}
	.st287{fill:#03ADF8;}
	.st288{opacity:0.85;fill:#917F86;}
	.st289{opacity:0.55;fill:#E0DBDD;}
	.st290{fill:#FF0029;}
	.st291{opacity:0.55;fill:#E0DBAC;}
	.st292{fill:#21222C;}
	.st293{fill:#C2C2C5;}
	.st294{fill:#FF1867;}
	.st295{fill:#DCDDEE;stroke:#3F0D0B;stroke-width:1.1154;stroke-linecap:round;stroke-linejoin:round;stroke-miterlimit:10;}
	.st296{fill:#86C8CD;}
	.st297{fill:#5B7976;}
	.st298{fill:#86C8CD;stroke:#3F0D0B;stroke-width:1.1154;stroke-linecap:round;stroke-linejoin:round;stroke-miterlimit:10;}
	.st299{fill:#1F1E21;}
	.st300{fill:#F7E939;}
	.st301{opacity:0.1;clip-path:url(#SVGID_98_);}
	.st302{fill:url(#SVGID_99_);}
	.st303{fill:none;stroke:#FDC543;stroke-linecap:round;stroke-linejoin:round;}
	.st304{fill:#0055B8;}
	.st305{fill:#FF7E00;}
	.st306{fill:#72D8F0;}
	.st307{fill:#069C3E;}
	.st308{fill:#FEC300;}
	.st309{fill:#0073C0;}
	.st310{fill:#9184BB;}
	.st311{fill:#E3DF00;}
	.st312{fill:#FF2480;}
	.st313{clip-path:url(#SVGID_103_);}
	.st314{fill:#F4AC0E;}
	.st315{fill:#2296BA;}
	.st316{fill:#E86B62;}
	.st317{fill:#FCEF50;}
	.st318{fill:#8ED1DB;}
	.st319{fill:#BADB45;}
	.st320{fill:#69A8D9;}
	.st321{fill:none;stroke:#89C7DA;stroke-miterlimit:10;}
	.st322{fill:none;stroke:#69A8D9;stroke-width:0.9004;stroke-linecap:round;stroke-linejoin:round;}
	.st323{fill:#ECECED;}
	.st324{fill:none;stroke:#E73F3A;stroke-width:3;stroke-linecap:round;stroke-linejoin:round;}
	.st325{opacity:0.8;clip-path:url(#SVGID_105_);fill:#009CDD;}
	.st326{opacity:0.8;clip-path:url(#SVGID_105_);}
	.st327{fill:url(#SVGID_106_);}
	.st328{fill:url(#SVGID_107_);}
	.st329{fill:url(#SVGID_108_);}
	.st330{fill:url(#SVGID_109_);}
	.st331{fill:url(#SVGID_110_);}
	.st332{fill:url(#SVGID_111_);}
	.st333{fill:url(#SVGID_112_);}
	.st334{fill:url(#SVGID_113_);}
	.st335{fill:url(#SVGID_114_);}
	.st336{fill:url(#SVGID_115_);}
	.st337{fill:url(#SVGID_116_);}
	.st338{fill:url(#SVGID_117_);}
	.st339{fill:url(#SVGID_118_);}
	.st340{fill:url(#SVGID_119_);}
	.st341{fill:url(#SVGID_120_);}
	.st342{fill:url(#SVGID_121_);}
	.st343{fill:url(#SVGID_122_);}
	.st344{fill:url(#SVGID_123_);}
	.st345{fill:url(#SVGID_124_);}
	.st346{fill:url(#SVGID_125_);}
	.st347{fill:url(#SVGID_126_);}
	.st348{fill:url(#SVGID_127_);}
	.st349{fill:url(#SVGID_128_);}
	.st350{fill:url(#SVGID_129_);}
	.st351{fill:url(#SVGID_130_);}
	.st352{fill:none;stroke:#FFFFFF;stroke-width:0.6484;stroke-miterlimit:10;}
	.st353{fill:url(#SVGID_131_);}
	.st354{fill:url(#SVGID_132_);}
	.st355{fill:url(#SVGID_133_);}
	.st356{fill:url(#SVGID_134_);}
	.st357{fill:url(#SVGID_135_);}
	.st358{fill:url(#SVGID_136_);}
	.st359{fill:url(#SVGID_137_);}
	.st360{fill:url(#SVGID_138_);}
	.st361{fill:url(#SVGID_139_);}
	.st362{fill:url(#SVGID_140_);}
	.st363{fill:url(#SVGID_141_);}
	.st364{fill:url(#SVGID_142_);}
	.st365{fill:url(#SVGID_143_);}
	.st366{fill:url(#SVGID_144_);}
	.st367{fill:url(#SVGID_145_);}
	.st368{fill:url(#SVGID_146_);}
	.st369{fill:url(#SVGID_147_);}
	.st370{fill:url(#SVGID_148_);}
	.st371{fill:url(#SVGID_149_);}
	.st372{fill:url(#SVGID_151_);}
	.st373{fill:url(#SVGID_152_);}
	.st374{opacity:0.24;clip-path:url(#SVGID_155_);}
	.st375{fill:#FFFFFF;stroke:#FFFFFF;stroke-miterlimit:10;}
	.st376{fill:#FFFFFF;stroke:#FFFFFF;stroke-width:2.9;stroke-miterlimit:10;}
	.st377{fill-rule:evenodd;clip-rule:evenodd;fill:#FFFFFF;stroke:#FFFFFF;stroke-miterlimit:10;}
	.st378{fill:#FF902C;}
	.st379{fill:none;stroke:#FF902C;stroke-width:3.5508;stroke-linecap:round;stroke-linejoin:round;}
	.st380{fill:none;stroke:#FF902C;stroke-width:3.7456;stroke-linecap:round;stroke-linejoin:round;}
	.st381{opacity:0.5;fill:#FFFFFF;}
	.st382{fill:#798746;}
	.st383{fill:#704A30;}
	.st384{fill:#A7BC77;}
	.st385{fill:#F99F55;}
	.st386{fill:#EF8637;}
	.st387{fill:#FCAC70;}
	.st388{fill:#989CB7;}
	.st389{fill:#4E4F56;}
	.st390{fill:#F0F0F2;}
	.st391{fill:#DEDEE0;}
	.st392{fill:#C6CADB;}
	.st393{opacity:0.6;fill:#F0F0F2;}
	.st394{fill:#B4B9D3;}
	.st395{fill:#CEAE97;}
	.st396{fill:#B79780;}
	.st397{fill:#AF4C4A;}
	.st398{fill:#C16363;}
	.st399{fill:#8090AA;}
	.st400{fill:#CBCBD1;}
	.st401{fill:#FCFCFC;}
	.st402{fill:#D8645B;}
	.st403{fill:#BDBDBD;}
	.st404{fill:#E57873;}
	.st405{fill:#D19A75;}
	.st406{fill:#BC845E;}
	.st407{fill:#DB9E75;}
	.st408{fill:#5F6B89;}
	.st409{clip-path:url(#SVGID_157_);fill:#4E5B75;}
	.st410{fill:#AF4B48;}
	.st411{fill:#BDD381;}
	.st412{opacity:0.24;clip-path:url(#SVGID_159_);}
	.st413{fill:#A9D146;}
	.st414{fill:none;stroke:#99C503;stroke-width:3.5508;stroke-linecap:round;stroke-linejoin:round;}
	.st415{fill:none;stroke:#99C503;stroke-width:3.7456;stroke-linecap:round;stroke-linejoin:round;}
	.st416{fill:#9AE9F4;}
	.st417{fill:none;stroke:#9AE9F4;stroke-width:3.5508;stroke-linecap:round;stroke-linejoin:round;}
	.st418{fill:none;stroke:#9AE9F4;stroke-width:3.7456;stroke-linecap:round;stroke-linejoin:round;}
	.st419{opacity:0.89;}
	.st420{opacity:0.44;fill:url(#SVGID_160_);}
	.st421{opacity:0.19;fill:url(#SVGID_161_);}
	.st422{fill:#80DFE5;}
	.st423{opacity:0.47;fill:#00B1CB;}
	.st424{fill:#1B87A1;}
	.st425{fill:#1D788B;}
	.st426{fill:#185C69;}
	.st427{fill:#0C525E;}
	.st428{opacity:0.24;clip-path:url(#SVGID_165_);}
	.st429{fill:#F2BD00;}
	.st430{fill:none;stroke:#F2BD00;stroke-width:3.5508;stroke-linecap:round;stroke-linejoin:round;}
	.st431{fill:none;stroke:#F2BD00;stroke-width:3.7456;stroke-linecap:round;stroke-linejoin:round;}
	.st432{fill:none;stroke:#003142;stroke-width:2.4444;stroke-miterlimit:10;}
	.st433{fill:#E54654;}
	.st434{fill:#463131;}
	.st435{fill:#FF6800;}
	.st436{clip-path:url(#SVGID_167_);}
	.st437{clip-path:url(#SVGID_171_);}
	.st438{clip-path:url(#SVGID_171_);fill:#009CDD;}
	.st439{clip-path:url(#SVGID_174_);}
	.st440{clip-path:url(#SVGID_179_);fill:none;}
	.st441{clip-path:url(#SVGID_181_);fill:url(#SVGID_182_);}
	.st442{clip-path:url(#SVGID_181_);fill:url(#SVGID_183_);}
	.st443{clip-path:url(#SVGID_181_);fill:#009CDD;}
	.st444{clip-path:url(#SVGID_181_);}
	.st445{fill:url(#SVGID_184_);}
	.st446{fill:url(#SVGID_185_);}
	.st447{fill:url(#SVGID_186_);}
	.st448{fill:url(#SVGID_187_);}
	.st449{fill:url(#SVGID_188_);}
	.st450{fill:url(#SVGID_189_);}
	.st451{fill:url(#SVGID_190_);}
	.st452{fill:url(#SVGID_191_);}
	.st453{fill:url(#SVGID_192_);}
	.st454{fill:url(#SVGID_193_);}
	.st455{fill:url(#SVGID_194_);}
	.st456{fill:url(#SVGID_195_);}
	.st457{fill:url(#SVGID_196_);}
	.st458{fill:url(#SVGID_197_);}
	.st459{fill:url(#SVGID_198_);}
	.st460{fill:url(#SVGID_199_);}
	.st461{fill:url(#SVGID_200_);}
	.st462{fill:url(#SVGID_201_);}
	.st463{fill:url(#SVGID_202_);}
	.st464{fill:url(#SVGID_203_);}
	.st465{fill:url(#SVGID_204_);}
	.st466{fill:url(#SVGID_205_);}
	.st467{fill:url(#SVGID_206_);}
	.st468{fill:url(#SVGID_207_);}
	.st469{fill:url(#SVGID_208_);}
	.st470{fill:url(#SVGID_209_);}
	.st471{fill:url(#SVGID_210_);}
	.st472{fill:url(#SVGID_211_);}
	.st473{fill:url(#SVGID_212_);}
	.st474{fill:url(#SVGID_213_);}
	.st475{fill:url(#SVGID_214_);}
	.st476{fill:url(#SVGID_215_);}
	.st477{fill:url(#SVGID_216_);}
	.st478{fill:url(#SVGID_217_);}
	.st479{fill:url(#SVGID_218_);}
	.st480{fill:url(#SVGID_219_);}
	.st481{fill:url(#SVGID_220_);}
	.st482{fill:url(#SVGID_221_);}
	.st483{fill:url(#SVGID_222_);}
	.st484{fill:url(#SVGID_223_);}
	.st485{fill:url(#SVGID_224_);}
	.st486{fill:url(#SVGID_226_);}
	.st487{fill:url(#SVGID_228_);}
	.st488{clip-path:url(#SVGID_232_);}
	.st489{fill:url(#SVGID_233_);}
	.st490{fill:url(#SVGID_234_);}
	.st491{fill:url(#SVGID_235_);}
	.st492{fill:url(#SVGID_236_);}
	.st493{fill:url(#SVGID_237_);}
	.st494{fill:url(#SVGID_238_);}
	.st495{fill:url(#SVGID_239_);}
	.st496{fill:url(#SVGID_240_);}
	.st497{fill:url(#SVGID_241_);}
	.st498{fill:url(#SVGID_242_);}
	.st499{fill:url(#SVGID_243_);}
	.st500{fill:url(#SVGID_244_);}
	.st501{fill:url(#SVGID_245_);}
	.st502{fill:url(#SVGID_246_);}
	.st503{fill:url(#SVGID_247_);}
	.st504{fill:url(#SVGID_248_);}
	.st505{fill:url(#SVGID_249_);}
	.st506{clip-path:url(#SVGID_232_);fill:url(#SVGID_250_);}
	.st507{fill:url(#SVGID_252_);}
	.st508{fill:url(#SVGID_253_);}
	.st509{fill:url(#SVGID_255_);}
	.st510{fill:url(#SVGID_256_);}
	.st511{opacity:0.24;clip-path:url(#SVGID_258_);}
	.st512{clip-path:url(#SVGID_260_);}
	.st513{fill:none;stroke:#FFFFFF;stroke-width:1.3311;stroke-linecap:round;stroke-linejoin:round;}
	.st514{clip-path:url(#SVGID_260_);fill:#D8B20F;}
	.st515{clip-path:url(#SVGID_260_);fill:#2D202A;}
	.st516{fill:#E57E66;}
	.st517{fill:#F9B818;}
	.st518{fill:#2D202A;}
	.st519{fill:#FCD786;}
	.st520{fill:#6EAF9F;}
	.st521{fill:#E74C4E;}
	.st522{fill:#2E1F22;}
	.st523{fill:#58897E;}
	.st524{fill-rule:evenodd;clip-rule:evenodd;fill:#2D7441;}
	.st525{fill-rule:evenodd;clip-rule:evenodd;fill:#51AE4F;}
	.st526{fill:#333333;}
	.st527{fill:none;stroke:#FFFFFF;stroke-width:1.3396;stroke-linecap:round;stroke-linejoin:round;}
	.st528{clip-path:url(#SVGID_262_);fill:#488AB7;}
	.st529{clip-path:url(#SVGID_262_);}
	.st530{fill:#F29949;}
	.st531{clip-path:url(#SVGID_262_);fill:#993316;}
	.st532{clip-path:url(#SVGID_262_);fill:#EF8615;}
	.st533{clip-path:url(#SVGID_262_);fill:#2D202A;}
	.st534{clip-path:url(#SVGID_262_);fill:#E68888;}
	.st535{clip-path:url(#SVGID_262_);fill:#F29949;}
	.st536{clip-path:url(#SVGID_262_);fill:#7F3F14;}
	.st537{clip-path:url(#SVGID_262_);fill:#D88139;}
	.st538{clip-path:url(#SVGID_262_);fill:#A85822;}
	.st539{clip-path:url(#SVGID_262_);fill:#2E1F22;}
	.st540{clip-path:url(#SVGID_262_);fill:#E28940;}
	.st541{clip-path:url(#SVGID_264_);}
	.st542{clip-path:url(#SVGID_264_);fill:#D8B20F;}
	.st543{clip-path:url(#SVGID_264_);fill:#2D202A;}
	.st544{clip-path:url(#SVGID_266_);fill:#488AB7;}
	.st545{clip-path:url(#SVGID_266_);}
	.st546{clip-path:url(#SVGID_266_);fill:#993316;}
	.st547{clip-path:url(#SVGID_266_);fill:#EF8615;}
	.st548{clip-path:url(#SVGID_266_);fill:#2D202A;}
	.st549{clip-path:url(#SVGID_266_);fill:#E68888;}
	.st550{clip-path:url(#SVGID_266_);fill:#F29949;}
	.st551{clip-path:url(#SVGID_266_);fill:#7F3F14;}
	.st552{clip-path:url(#SVGID_266_);fill:#D88139;}
	.st553{clip-path:url(#SVGID_266_);fill:#A85822;}
	.st554{clip-path:url(#SVGID_266_);fill:#2E1F22;}
	.st555{clip-path:url(#SVGID_266_);fill:#E28940;}
	.st556{opacity:0.5;}
	.st557{fill:#193F5F;}
	.st558{fill:none;stroke:#FFFFFF;stroke-width:1.2589;stroke-linecap:round;stroke-linejoin:round;}
	.st559{clip-path:url(#SVGID_268_);}
	.st560{fill:#E74E1B;}
	.st561{fill:#F2AF8D;}
	.st562{fill:#E42D31;}
	.st563{fill:#D8B20F;}
	.st564{fill:#F6B87E;}
	.st565{fill:#EE9A79;}
	.st566{fill:#C89929;}
	.st567{fill:url(#SVGID_269_);}
	.st568{fill:url(#SVGID_270_);}
	.st569{fill:url(#SVGID_271_);}
	.st570{fill:url(#SVGID_272_);}
	.st571{fill:url(#SVGID_273_);}
	.st572{fill:url(#SVGID_274_);}
	.st573{fill:url(#SVGID_275_);}
	.st574{fill:url(#SVGID_276_);}
	.st575{fill:url(#SVGID_277_);}
	.st576{fill:url(#SVGID_278_);}
	.st577{fill:url(#SVGID_279_);}
	.st578{fill:url(#SVGID_280_);}
	.st579{fill:url(#SVGID_281_);}
	.st580{fill:url(#SVGID_282_);}
	.st581{fill:url(#SVGID_283_);}
	.st582{fill:url(#SVGID_284_);}
	.st583{fill:url(#SVGID_285_);}
	.st584{fill:url(#SVGID_286_);}
	.st585{fill:url(#SVGID_287_);}
	.st586{fill:url(#SVGID_288_);}
	.st587{fill:url(#SVGID_289_);}
	.st588{fill:url(#SVGID_290_);}
	.st589{fill:url(#SVGID_291_);}
	.st590{fill:url(#SVGID_292_);}
	.st591{fill:url(#SVGID_293_);}
	.st592{fill:url(#SVGID_294_);}
	.st593{fill:url(#SVGID_295_);}
	.st594{fill:url(#SVGID_296_);}
	.st595{fill:url(#SVGID_297_);}
	.st596{fill:url(#SVGID_298_);}
	.st597{fill:url(#SVGID_299_);}
	.st598{fill:url(#SVGID_300_);}
	.st599{fill:url(#SVGID_301_);}
	.st600{fill:url(#SVGID_302_);}
	.st601{fill:url(#SVGID_303_);}
	.st602{fill:url(#SVGID_304_);}
	.st603{fill:url(#SVGID_305_);}
	.st604{fill:url(#SVGID_306_);}
	.st605{fill:url(#SVGID_307_);}
	.st606{fill:url(#SVGID_308_);}
	.st607{fill:url(#SVGID_309_);}
	.st608{fill:url(#SVGID_310_);}
	.st609{fill:url(#SVGID_311_);}
	.st610{fill:url(#SVGID_312_);}
	.st611{fill:url(#SVGID_313_);}
	.st612{fill:url(#SVGID_314_);}
	.st613{fill:url(#SVGID_315_);}
	.st614{fill:url(#SVGID_316_);}
	.st615{fill:url(#SVGID_317_);}
	.st616{fill:url(#SVGID_318_);}
	.st617{fill:url(#SVGID_319_);}
	.st618{fill:url(#SVGID_320_);}
	.st619{fill:url(#SVGID_321_);}
	.st620{fill:url(#SVGID_322_);}
	.st621{fill:url(#SVGID_323_);}
	.st622{fill:url(#SVGID_324_);}
	.st623{opacity:0.24;clip-path:url(#SVGID_326_);}
	.st624{clip-path:url(#SVGID_328_);}
	.st625{clip-path:url(#SVGID_328_);fill:#D8B20F;}
	.st626{clip-path:url(#SVGID_328_);fill:#2D202A;}
	.st627{clip-path:url(#SVGID_330_);fill:#488AB7;}
	.st628{clip-path:url(#SVGID_330_);}
	.st629{clip-path:url(#SVGID_330_);fill:#993316;}
	.st630{clip-path:url(#SVGID_330_);fill:#EF8615;}
	.st631{clip-path:url(#SVGID_330_);fill:#2D202A;}
	.st632{clip-path:url(#SVGID_330_);fill:#E68888;}
	.st633{clip-path:url(#SVGID_330_);fill:#F29949;}
	.st634{clip-path:url(#SVGID_330_);fill:#7F3F14;}
	.st635{clip-path:url(#SVGID_330_);fill:#D88139;}
	.st636{clip-path:url(#SVGID_330_);fill:#A85822;}
	.st637{clip-path:url(#SVGID_330_);fill:#2E1F22;}
	.st638{clip-path:url(#SVGID_330_);fill:#E28940;}
	.st639{clip-path:url(#SVGID_332_);fill:#993316;}
	.st640{clip-path:url(#SVGID_332_);fill:#6EAF9F;}
	.st641{clip-path:url(#SVGID_332_);fill:#2D202A;}
	.st642{clip-path:url(#SVGID_332_);fill:#EF8615;}
	.st643{clip-path:url(#SVGID_332_);fill:#E68888;}
	.st644{clip-path:url(#SVGID_332_);}
	.st645{fill:#993316;}
	.st646{clip-path:url(#SVGID_332_);fill:#D05B63;}
	.st647{clip-path:url(#SVGID_332_);fill:#2E1F22;}
	.st648{clip-path:url(#SVGID_332_);fill:#732116;}
	.st649{clip-path:url(#SVGID_334_);fill:#993316;}
	.st650{clip-path:url(#SVGID_334_);fill:#6EAF9F;}
	.st651{clip-path:url(#SVGID_334_);fill:#2D202A;}
	.st652{clip-path:url(#SVGID_334_);fill:#EF8615;}
	.st653{clip-path:url(#SVGID_334_);fill:#E68888;}
	.st654{clip-path:url(#SVGID_334_);}
	.st655{clip-path:url(#SVGID_334_);fill:#D05B63;}
	.st656{clip-path:url(#SVGID_334_);fill:#2E1F22;}
	.st657{clip-path:url(#SVGID_334_);fill:#732116;}
	.st658{fill:#EF8615;}
	.st659{fill:#E68888;}
	.st660{fill:#D05B63;}
	.st661{fill:#732116;}
	.st662{fill:#062630;}
	.st663{fill:#2C5E6E;}
	.st664{fill:#FFFFEB;}
	.st665{clip-path:url(#SVGID_336_);}
	.st666{fill:none;stroke:#FFFFFF;stroke-width:1.2673;stroke-linecap:round;stroke-linejoin:round;}
	.st667{fill:#5B1B1A;}
	.st668{fill:#493B4B;}
	.st669{fill:none;stroke:#FFFFFF;stroke-width:3.5508;stroke-linecap:round;stroke-linejoin:round;}
	.st670{fill:none;stroke:#FFFFFF;stroke-width:3.7456;stroke-linecap:round;stroke-linejoin:round;}
	.st671{clip-path:url(#SVGID_338_);}
	.st672{fill:#488AB7;}
	.st673{fill:#F94600;}
	.st674{fill:#053451;}
	.st675{fill:#7F3F14;}
	.st676{fill:#D88139;}
	.st677{fill:#A85822;}
	.st678{fill:#E28940;}
	.st679{clip-path:url(#SVGID_340_);fill:#B0EEE8;}
	.st680{clip-path:url(#SVGID_340_);}
	.st681{fill:#7B809B;}
	.st682{fill:#B2B7CE;}
	.st683{clip-path:url(#SVGID_342_);fill:#4E5B75;}
	.st684{clip-path:url(#SVGID_344_);}
	.st685{clip-path:url(#SVGID_346_);}
	.st686{clip-path:url(#SVGID_348_);fill:#B0EEE8;}
	.st687{clip-path:url(#SVGID_348_);}
	.st688{clip-path:url(#SVGID_350_);}
	.st689{clip-path:url(#SVGID_352_);}
	.st690{opacity:0.24;clip-path:url(#SVGID_354_);}
	.st691{opacity:0.24;clip-path:url(#SVGID_356_);}
	.st692{clip-path:url(#SVGID_358_);}
	.st693{fill:none;stroke:#FFCA55;stroke-width:3;stroke-linecap:round;stroke-linejoin:round;}
	.st694{fill:none;stroke:#57A7FF;stroke-width:3;stroke-linecap:round;stroke-linejoin:round;}
	.st695{clip-path:url(#SVGID_360_);}
	.st696{fill:#721D09;}
	.st697{fill:#6FBC5E;}
	.st698{fill:#823323;}
	.st699{fill:#352E34;}
	.st700{fill:#669B59;}
	.st701{fill:#541B12;}
	.st702{clip-path:url(#SVGID_362_);}
	.st703{clip-path:url(#SVGID_364_);}
	.st704{clip-path:url(#SVGID_366_);}
	.st705{clip-path:url(#SVGID_368_);}
	.st706{clip-path:url(#SVGID_370_);}
	.st707{clip-path:url(#SVGID_372_);}
	.st708{clip-path:url(#SVGID_374_);}
	.st709{clip-path:url(#SVGID_376_);}
	.st710{clip-path:url(#SVGID_378_);}
	.st711{clip-path:url(#SVGID_380_);}
	.st712{clip-path:url(#SVGID_382_);}
	.st713{clip-path:url(#SVGID_384_);}
	.st714{fill:none;stroke:#81B11D;stroke-width:2;stroke-linecap:round;stroke-linejoin:round;}
	.st715{fill:none;stroke:#E74C4E;stroke-width:2;stroke-linecap:round;stroke-linejoin:round;}
	.st716{fill:none;stroke:#F9B818;stroke-width:2;stroke-linecap:round;stroke-linejoin:round;}
	.st717{fill:none;stroke:#58897E;stroke-width:2;stroke-linecap:round;stroke-linejoin:round;}
	.st718{fill:none;stroke:#FFFFFF;stroke-miterlimit:10;}
	.st719{fill-rule:evenodd;clip-rule:evenodd;fill:none;stroke:#FFFFFF;stroke-miterlimit:10;}
	.st720{clip-path:url(#SVGID_386_);}
	.st721{fill-rule:evenodd;clip-rule:evenodd;fill:#F09B5C;}
	.st722{fill-rule:evenodd;clip-rule:evenodd;fill:#264F2E;}
	.st723{fill-rule:evenodd;clip-rule:evenodd;fill:#5A2524;}
	.st724{fill:#9E693D;}
	.st725{fill:#F09B5C;}
	.st726{fill:#264F2E;}
	.st727{fill:#51AE4F;}
	.st728{fill:#2D7441;}
	.st729{fill:#5A2524;}
	.st730{clip-path:url(#SVGID_388_);fill:#993316;}
	.st731{clip-path:url(#SVGID_388_);fill:#6EAF9F;}
	.st732{clip-path:url(#SVGID_388_);fill:#2D202A;}
	.st733{clip-path:url(#SVGID_388_);fill:#EF8615;}
	.st734{clip-path:url(#SVGID_388_);fill:#E68888;}
	.st735{clip-path:url(#SVGID_388_);}
	.st736{clip-path:url(#SVGID_388_);fill:#D05B63;}
	.st737{clip-path:url(#SVGID_388_);fill:#2E1F22;}
	.st738{clip-path:url(#SVGID_388_);fill:#732116;}
	.st739{clip-path:url(#SVGID_390_);}
	.st740{clip-path:url(#SVGID_392_);}
	.st741{clip-path:url(#SVGID_396_);fill:#993316;}
	.st742{clip-path:url(#SVGID_396_);fill:#6EAF9F;}
	.st743{clip-path:url(#SVGID_396_);fill:#2D202A;}
	.st744{clip-path:url(#SVGID_396_);fill:#EF8615;}
	.st745{clip-path:url(#SVGID_396_);fill:#E68888;}
	.st746{clip-path:url(#SVGID_396_);}
	.st747{clip-path:url(#SVGID_396_);fill:#D05B63;}
	.st748{clip-path:url(#SVGID_396_);fill:#2E1F22;}
	.st749{clip-path:url(#SVGID_396_);fill:#732116;}
	.st750{opacity:0.8;clip-path:url(#SVGID_398_);fill:#009CDD;}
	.st751{opacity:0.8;clip-path:url(#SVGID_398_);}
	.st752{fill:url(#SVGID_399_);}
	.st753{fill:url(#SVGID_400_);}
	.st754{fill:url(#SVGID_401_);}
	.st755{fill:url(#SVGID_402_);}
	.st756{fill:url(#SVGID_403_);}
	.st757{fill:url(#SVGID_404_);}
	.st758{fill:url(#SVGID_405_);}
	.st759{fill:url(#SVGID_406_);}
	.st760{fill:url(#SVGID_407_);}
	.st761{fill:url(#SVGID_408_);}
	.st762{fill:url(#SVGID_409_);}
	.st763{fill:url(#SVGID_410_);}
	.st764{fill:url(#SVGID_411_);}
	.st765{fill:url(#SVGID_412_);}
	.st766{fill:url(#SVGID_413_);}
	.st767{fill:url(#SVGID_414_);}
	.st768{fill:url(#SVGID_415_);}
	.st769{fill:url(#SVGID_416_);}
	.st770{fill:url(#SVGID_417_);}
	.st771{fill:url(#SVGID_418_);}
	.st772{fill:url(#SVGID_419_);}
	.st773{fill:url(#SVGID_420_);}
	.st774{fill:url(#SVGID_421_);}
	.st775{fill:url(#SVGID_422_);}
	.st776{fill:url(#SVGID_423_);}
	.st777{fill:url(#SVGID_424_);}
	.st778{fill:url(#SVGID_425_);}
	.st779{fill:url(#SVGID_426_);}
	.st780{fill:url(#SVGID_427_);}
	.st781{fill:url(#SVGID_428_);}
	.st782{fill:url(#SVGID_429_);}
	.st783{fill:url(#SVGID_430_);}
	.st784{fill:url(#SVGID_431_);}
	.st785{fill:url(#SVGID_432_);}
	.st786{fill:url(#SVGID_433_);}
	.st787{fill:url(#SVGID_434_);}
	.st788{fill:url(#SVGID_435_);}
	.st789{fill:url(#SVGID_436_);}
	.st790{fill:url(#SVGID_437_);}
	.st791{fill:url(#SVGID_438_);}
	.st792{fill:url(#SVGID_439_);}
	.st793{fill:url(#SVGID_440_);}
	.st794{fill:url(#SVGID_441_);}
	.st795{fill:url(#SVGID_442_);}
	.st796{fill:url(#SVGID_444_);}
	.st797{fill:url(#SVGID_445_);}
	.st798{opacity:0.24;clip-path:url(#SVGID_448_);}
	.st799{clip-path:url(#SVGID_450_);}
	.st800{fill:#1DA7E1;}
	.st801{clip-path:url(#SVGID_452_);}
	.st802{clip-path:url(#SVGID_454_);fill:#B0EEE8;}
	.st803{clip-path:url(#SVGID_454_);}
	.st804{fill:#558FA5;}
	.st805{fill:#C2D7DF;}
	.st806{fill:#5D95A9;}
	.st807{fill:#CEDFE5;}
	.st808{opacity:0.8;fill:#009CDD;}
	.st809{fill:none;stroke:#74C9ED;stroke-miterlimit:10;}
	.st810{clip-path:url(#SVGID_456_);fill:#B0EEE8;}
	.st811{clip-path:url(#SVGID_456_);}
	.st812{clip-path:url(#SVGID_458_);fill:#4E5B75;}
	.st813{clip-path:url(#SVGID_460_);}
	.st814{clip-path:url(#SVGID_462_);fill:#B0EEE8;}
	.st815{clip-path:url(#SVGID_462_);}
	.st816{clip-path:url(#SVGID_464_);fill:#4E5B75;}
	.st817{clip-path:url(#SVGID_466_);}
	.st818{fill:none;stroke:#3F3B3C;stroke-width:0.5;stroke-miterlimit:10;}
	.st819{fill:#F28B0F;}
	.st820{fill:#5B462F;}
	.st821{fill:#CE493E;}
	.st822{fill:#5E3D1E;}
	.st823{fill:#B8D74B;}
	.st824{fill:#DD980E;}
	.st825{clip-path:url(#SVGID_468_);}
	.st826{display:none;}
	.st827{display:inline;opacity:0.1;}
	.st828{display:inline;opacity:0.3;}
	.st829{opacity:0.1;}
</style>
<g id="Capa_1">
</g>
<g id="Capa_3">
	<g>
		<defs>
			<path id="SVGID_467_" d="M1918.1,417.2l-21.9,8.6C1291.1,662.5,602.5,659.4,0,417.2l0,0V0h1918.1V417.2z"/>
		</defs>
		<clipPath id="SVGID_2_">
			<use xlink:href="#SVGID_467_"  style="overflow:visible;"/>
		</clipPath>
		<g style="clip-path:url(#SVGID_2_);">
			<path class="st314" d="M626.7,144.9c2.7-0.8,5.5-1.7,8.2-2.6c4.8-1.6,10.1-0.8,14.3,2c0.8,0.5,1.5,1,2.3,1.5
				c166.2,109.3,329,101.6,438.5,74.7c78.5-19.3,141.1-50.9,177-71.9c2.1-1.2,4.1-2.4,6-3.6c4.1-2.5,9.1-3.1,13.6-1.6
				c3.1,1,6.2,2,9.3,2.9c194.9,58.4,350.9,1.7,448.6-57.5c47.9-29.1,86.8-61.4,115.5-88.8H57.9c28.7,27.4,67.6,59.8,115.5,88.8
				C271.9,148.5,429.6,205.7,626.7,144.9z"/>
			<path class="st314" d="M1373,177.4c-29.5-4.6-60.1-11.7-91.7-21.8c-35.1,21.2-102.1,56.5-187.6,77.6
				c-98,24.2-237.6,33.3-384.9-39.3c-22.6-11.2-45.4-24.3-68.3-39.5c-32.9,10.7-64.7,18.2-95.4,23c-162.2,25.3-292.8-25.2-379-77.5
				C111.8,66.9,68.9,29.7,38.9,0H0v360.8c20.5,22.4,46.5,41.7,75.3,56.5c64.4,33.3,141.1,46.8,216.8,52.6
				c58.3,4.4,117.4,4.5,174.9-4.7c103.2-16.4,212.3-78,425.2-85.5c187.6-6.6,219.9,10,383.9,50.6c114.8,28.4,200.2,49.1,318.5,46
				c63.7-1.6,142.3-19,200.8-39.8c61.7-22,102.4-73.6,122.8-122.7V0h-38.9c-29.9,29.7-72.8,66.9-127.2,99.9
				C1665.7,152.3,1535.2,202.7,1373,177.4z"/>
			<path class="st315" d="M545.2,177.4c30.7-4.8,62.5-12.3,95.4-23c-4.6-3.1-9.2-6.3-13.8-9.5c-197.1,60.7-354.8,3.6-453.3-56.1
				C125.5,59.8,86.6,27.4,57.9,0H38.9c29.9,29.7,72.8,66.9,127.2,99.9C252.4,152.3,382.9,202.7,545.2,177.4z"/>
			<path class="st315" d="M1744.7,88.8c-97.7,59.2-253.7,115.9-448.6,57.5c-4,2.6-9,5.7-14.8,9.3c31.6,10.1,62.1,17.2,91.7,21.8
				c162.2,25.3,292.8-25.2,379-77.5c54.3-33,97.3-70.2,127.2-99.9h-18.9C1831.6,27.4,1792.7,59.8,1744.7,88.8z"/>
			<path class="st315" d="M1267.1,148.7c-35.9,21-98.5,52.5-177,71.9c-109.5,26.9-272.3,34.6-438.5-74.7c0.1,2.8-1.7,5.5-4.5,6.4
				c-2.2,0.7-4.3,1.4-6.5,2.2c22.9,15.3,45.7,28.4,68.3,39.5c147.3,72.6,286.9,63.5,384.9,39.3c85.4-21.1,152.4-56.4,187.6-77.6
				c-3.4-1.1-6.8-2.2-10.2-3.4C1269.2,151.7,1267.9,150.3,1267.1,148.7z"/>
			<path class="st315" d="M651.6,145.8c-0.8-0.5-1.5-1-2.3-1.5c-4.2-2.8-9.5-3.5-14.3-2c-2.7,0.9-5.5,1.7-8.2,2.6
				c4.6,3.3,9.2,6.4,13.8,9.5c2.2-0.7,4.3-1.4,6.5-2.2C649.9,151.3,651.6,148.7,651.6,145.8z"/>
			<path class="st315" d="M1273.2,145.1c-1.9,1.2-3.9,2.3-6,3.6c0.7,1.6,2.1,3,3.9,3.6c3.4,1.2,6.8,2.3,10.2,3.4
				c5.8-3.5,10.8-6.7,14.8-9.3c-3.1-0.9-6.2-1.9-9.3-2.9C1282.2,142,1277.3,142.6,1273.2,145.1z"/>
		</g>
		<g style="clip-path:url(#SVGID_2_);">
			<g>
				<path class="st316" d="M1201.7,186.3c12.7-5.8,24.9-12.1,38.4-17.2c0.2,1.2,0.3,3,0.2,4.1c-0.7,13.3-1.9,26.5-3.7,39.7
					c-1.7,12.3-2.7,24.3-5.9,36.3c0,0.1,0,0.2-0.1,0.3c0,0,0,0,0,0c0,0,0,0,0,0c-0.1,0-0.1-0.1-0.2-0.1c-11.1-5.4-21-12.5-31.4-19.2
					c-11.2-7.2-22-14.9-32.5-23c-0.9-0.7-2.2-1.9-3-2.8C1176.3,197.4,1189,192.2,1201.7,186.3z"/>
			</g>
			<g>
				<path class="st317" d="M1201.7,186.3c3.2-1.4,6.3-2.9,9.4-4.4l-5.3,52.7c-2.2-1.5-4.5-2.9-6.7-4.4c-0.6-0.4-1.1-0.8-1.7-1.1
					L1201.7,186.3z"/>
				<g>
					<path class="st317" d="M1231.9,172.4l-7.4,73.7c-2.9-1.6-5.7-3.3-8.5-5l6.5-64.6C1225.6,175.2,1228.7,173.8,1231.9,172.4z"/>
				</g>
				<path class="st317" d="M1187.7,222.5c-2.8-1.9-5.6-3.9-8.4-5.9l2.1-21.1c3.1-1.4,6.3-2.9,9.4-4.3L1187.7,222.5z"/>
			</g>
		</g>
		<g style="clip-path:url(#SVGID_2_);">
			<g>
				<path class="st318" d="M1071,231.1c13.8-2,27.3-4.7,41.7-5.7c-0.2,1.2-0.6,3-1,4c-4.4,12.5-9.3,24.9-14.7,37
					c-5,11.3-9.4,22.6-15.8,33.2c0,0.1-0.1,0.1-0.1,0.2c0,0,0,0,0,0c0,0,0,0,0,0c-0.1-0.1-0.1-0.1-0.2-0.2
					c-9.2-8.3-16.7-17.9-24.7-27.2c-8.7-10.1-16.9-20.5-24.8-31.2c-0.6-0.9-1.5-2.5-2.1-3.6C1043.5,234.6,1057.1,233.2,1071,231.1z"
					/>
			</g>
			<g>
				<path class="st317" d="M1048.3,235L1048.3,235L1048.3,235l13,9.7l9.7-13l0,0l0,0l13,9.7l9.7-13l0,0l0,0l14.5,10.8
					c-1.1,3-2.3,6-3.4,9l-9.2-6.8l-4.2,5.6l0,0l-5.5,7.4l0,0l0,0l-7.4-5.5l0,0l-5.6-4.2l-4.2,5.6l0,0l-5.5,7.4l0,0l0,0l-7.4-5.5l0,0
					l-5.6-4.2l-6.8,9.2c-2-2.5-3.9-5-5.9-7.6L1048.3,235z"/>
				<path class="st317" d="M1052.2,261.2L1052.2,261.2L1052.2,261.2l13,9.7l9.7-13l0,0l0,0l13,9.7l9.7-13l0,0l0,0l3.5,2.6
					c-1.3,3.1-2.7,6.3-4,9.4c-1.6,3.5-3.1,7-4.6,10.5l-2.6,3.5l0,0l0,0l-7.4-5.5l0,0l-5.6-4.2l-4.2,5.6l0,0l-5.5,7.4l0,0l0,0
					l-3.5-2.6c-2.5-2.9-4.9-5.8-7.4-8.7c-2.2-2.6-4.4-5.2-6.6-7.8L1052.2,261.2z"/>
				<path class="st317" d="M1078.8,284.1L1078.8,284.1L1078.8,284.1l7.8,5.8c-1.4,2.8-2.8,5.5-4.4,8.2l-1.4-1.1l-1.1,1.4
					c-2.3-2.1-4.5-4.3-6.6-6.6L1078.8,284.1z"/>
			</g>
		</g>
		<g style="clip-path:url(#SVGID_2_);">
			<g>
				<path class="st319" d="M887.2,236.6c13.8,2.1,27.5,3.5,41.6,6.8c-0.5,1.1-1.4,2.7-2.1,3.5c-7.8,10.7-16.1,21.1-24.9,31.1
					c-8.1,9.3-15.6,18.9-24.9,27.1c-0.1,0.1-0.1,0.1-0.2,0.2c0,0,0,0,0,0c0,0,0,0,0,0c0-0.1-0.1-0.2-0.1-0.2
					c-6.3-10.6-10.7-21.9-15.7-33.3c-5.4-12.2-10.2-24.5-14.5-37.1c-0.4-1-0.7-2.8-0.9-4C859.9,231.9,873.3,234.6,887.2,236.6z"/>
			</g>
			<g>
				<path class="st39" d="M915.9,261.1l-63.4-9.6c-1.3-3.4-2.6-6.8-3.8-10.2l73.8,11.2C920.4,255.4,918.1,258.2,915.9,261.1z"/>
				<path class="st39" d="M902.3,277.4l-41.8-6.3c-1.5-3.4-3-6.9-4.4-10.3l53.4,8.1C907.2,271.7,904.8,274.6,902.3,277.4z"/>
				<path class="st39" d="M888.3,293.7l-19.1-2.9c-1.6-3.4-3.1-6.9-4.6-10.4l31.1,4.7C893.3,288,890.8,290.9,888.3,293.7z"/>
			</g>
		</g>
		<g style="clip-path:url(#SVGID_2_);">
			<g>
				<path class="st23" d="M734,200.3c-0.8,0.9-2.2,2.1-3.1,2.7c-4.4,3.2-8.8,6.2-13.3,9.2L702,183.8C712.7,189,723.4,194,734,200.3z
					"/>
			</g>
			<g>
				<path class="st23" d="M686.9,231.7l-28.1-51.1c-0.2-4.6-0.4-9.2-0.5-13.7c0-1.1,0.1-2.9,0.3-4.1c0.1,0,0.2,0.1,0.2,0.1
					l35.4,64.3C691.8,228.6,689.3,230.2,686.9,231.7z"/>
			</g>
			<g>
				<path class="st23" d="M665.8,243.2c-0.1,0-0.2,0.1-0.2,0.1c0,0,0,0,0,0c0,0,0,0,0,0c0-0.1,0-0.2,0-0.3
					c-2.8-12.1-3.5-24.2-4.8-36.5c-0.1-1.1-0.2-2.1-0.3-3.2l18.2,33.1C674.5,239,670.2,241.2,665.8,243.2z"/>
			</g>
			<g>
				<path class="st23" d="M709.7,217.5c-2.4,1.6-4.9,3.1-7.3,4.6l-29-52.7c4.6,2.2,9.1,4.6,13.6,6.9L709.7,217.5z"/>
			</g>
			<path class="st320" d="M696.5,181.1c1.8,0.9,3.7,1.8,5.5,2.7l15.6,28.4c-2.6,1.8-5.3,3.5-8,5.3L687,176.3
				C690.1,177.9,693.3,179.5,696.5,181.1z"/>
			<path class="st320" d="M697.7,225c-1.2,0.7-2.3,1.4-3.5,2.1l-35.4-64.3c5,2,9.8,4.3,14.5,6.6l29,52.7
				C700.8,223.1,699.3,224.1,697.7,225z"/>
			<path class="st320" d="M678.7,236.6l-18.2-33.1c-0.7-7.6-1.3-15.2-1.7-22.8l28.1,51.1C684.2,233.3,681.4,235,678.7,236.6z"/>
		</g>
		<g style="clip-path:url(#SVGID_2_);">
			<g>
				<path class="st316" d="M1841,22.8c10.4-9.3,20.1-19,31.5-27.9c0.5,1.1,1.1,2.8,1.4,3.9c3.3,12.9,6.1,25.9,8.4,39
					c2.1,12.2,4.7,24,5.3,36.4c0,0.1,0,0.2,0,0.3c0,0,0,0,0,0c0,0,0,0,0,0c-0.1,0-0.2,0-0.3-0.1c-12.2-1.8-23.8-5.6-35.7-8.9
					c-12.8-3.5-25.5-7.6-37.9-12.2c-1-0.4-2.6-1.2-3.7-1.8C1820,41,1830.7,32.2,1841,22.8z"/>
			</g>
			<g>
				<path class="st317" d="M1841,22.8c2.6-2.3,5.1-4.7,7.7-7l10.7,51.9c-2.6-0.7-5.1-1.5-7.7-2.2c-0.7-0.2-1.3-0.4-2-0.6L1841,22.8z
					"/>
				<g>
					<path class="st317" d="M1865.7,0.6l14.9,72.6c-3.2-0.7-6.4-1.4-9.6-2.3l-13.1-63.6C1860.5,5.1,1863,2.8,1865.7,0.6z"/>
				</g>
				<path class="st317" d="M1838.5,61.6c-3.3-1-6.5-2.1-9.8-3.1l-4.3-20.8c2.6-2.3,5.1-4.6,7.7-6.9L1838.5,61.6z"/>
			</g>
		</g>
		<g style="clip-path:url(#SVGID_2_);">
			<g>
				<path class="st318" d="M1729.7,104.7c12.6-6,24.7-12.6,38.1-17.9c0.2,1.2,0.3,3,0.3,4.1c-0.4,13.3-1.4,26.5-2.9,39.7
					c-1.4,12.3-2.2,24.4-5.2,36.4c0,0.1,0,0.2,0,0.3c0,0,0,0,0,0c0,0,0,0,0,0c-0.1,0-0.2-0.1-0.2-0.1c-11.2-5.2-21.2-12.1-31.8-18.6
					c-11.3-7-22.3-14.5-33-22.4c-0.9-0.7-2.2-1.9-3-2.8C1704.4,116.2,1717.1,110.8,1729.7,104.7z"/>
			</g>
			<g>
				<path class="st317" d="M1709.2,115.1L1709.2,115.1L1709.2,115.1l15.3,5.3l5.3-15.3l0,0l0,0l15.3,5.3l5.3-15.3l0,0l0,0l17.1,5.9
					c-0.2,3.2-0.4,6.4-0.6,9.6l-10.8-3.8l-2.3,6.6l0,0l-3,8.7l0,0l0,0l-8.7-3l0,0l-6.6-2.3l-2.3,6.6l0,0l-3,8.7l0,0l0,0l-8.7-3l0,0
					l-6.6-2.3l-3.8,10.8c-2.6-1.8-5.3-3.6-7.9-5.5L1709.2,115.1z"/>
				<path class="st317" d="M1720.7,139L1720.7,139L1720.7,139l15.3,5.3l5.3-15.3l0,0l0,0l15.3,5.3l5.3-15.3l0,0l0,0l4.1,1.4
					c-0.3,3.4-0.7,6.8-1.1,10.1c-0.4,3.8-0.8,7.6-1.2,11.4l-1.4,4.1l0,0l0,0l-8.7-3l0,0l-6.6-2.3l-2.3,6.6l0,0l-3,8.7l0,0l0,0
					l-4.1-1.4c-3.2-2-6.4-4.1-9.7-6.1c-2.9-1.8-5.8-3.6-8.6-5.5L1720.7,139z"/>
				<path class="st317" d="M1753,152.9L1753,152.9L1753,152.9l9.1,3.2c-0.5,3.1-1.1,6.1-1.7,9.2l-1.7-0.6l-0.6,1.7
					c-2.8-1.4-5.6-2.8-8.3-4.3L1753,152.9z"/>
			</g>
		</g>
		<g style="clip-path:url(#SVGID_2_);">
			<g>
				<path class="st319" d="M1555.9,164.9c13.8-2.1,27.3-4.8,41.7-6c-0.2,1.2-0.6,3-0.9,4c-4.3,12.6-9.1,25-14.4,37.1
					c-5,11.3-9.3,22.7-15.6,33.3c0,0.1-0.1,0.2-0.1,0.2c0,0,0,0,0,0c0,0,0,0,0,0c-0.1-0.1-0.1-0.1-0.2-0.2
					c-9.2-8.2-16.8-17.7-24.9-27.1c-8.7-10-17.1-20.4-24.9-31.1c-0.7-0.9-1.6-2.5-2.1-3.5C1528.4,168.5,1542.1,167,1555.9,164.9z"/>
			</g>
			<g>
				<path class="st39" d="M1590.6,179.6l-63.3,9.8c-2.3-2.8-4.5-5.7-6.7-8.6l73.8-11.4C1593.2,172.8,1591.9,176.2,1590.6,179.6z"/>
				<path class="st39" d="M1582.6,199.3l-41.7,6.4c-2.5-2.8-4.9-5.7-7.3-8.5l53.3-8.2C1585.5,192.4,1584.1,195.8,1582.6,199.3z"/>
				<path class="st39" d="M1574,219l-19.1,2.9c-2.5-2.8-5-5.6-7.5-8.5l31.1-4.8C1577.1,212.1,1575.6,215.5,1574,219z"/>
			</g>
		</g>
		<g style="clip-path:url(#SVGID_2_);">
			<g>
				<path class="st23" d="M1398.9,175.9c-0.5,1.1-1.5,2.6-2.1,3.5c-3.2,4.3-6.5,8.6-9.9,12.8l-23.4-22.4
					C1375.2,171.6,1386.9,173.1,1398.9,175.9z"/>
			</g>
			<g>
				<path class="st23" d="M1363.3,220l-42.1-40.3c-1.6-4.3-3.1-8.6-4.6-13c-0.3-1-0.7-2.8-0.9-4c0.1,0,0.2,0,0.3,0l53,50.8
					C1367.1,215.6,1365.2,217.8,1363.3,220z"/>
			</g>
			<g>
				<path class="st23" d="M1346.6,237.3c-0.1,0.1-0.1,0.1-0.2,0.2c0,0,0,0,0,0c0,0,0,0,0,0c0-0.1-0.1-0.2-0.1-0.2
					c-6.3-10.7-10.5-22-15.4-33.4c-0.4-1-0.8-2-1.2-2.9l27.3,26.2C1353.7,230.7,1350.3,234.1,1346.6,237.3z"/>
			</g>
			<g>
				<path class="st23" d="M1380.8,199.7c-1.8,2.2-3.7,4.4-5.6,6.6l-43.5-41.6c5.1,0.8,10.1,1.6,15.1,2.5L1380.8,199.7z"/>
			</g>
			<path class="st320" d="M1357.4,168.8c2,0.3,4.1,0.6,6.1,0.9l23.4,22.4c-2,2.5-4,5-6.1,7.4l-34-32.6
				C1350.3,167.7,1353.8,168.3,1357.4,168.8z"/>
			<path class="st320" d="M1371.7,210.4c-0.9,1-1.8,2-2.7,3.1l-53-50.8c5.4,0.5,10.6,1.1,15.8,1.9l43.5,41.6
				C1374,207.6,1372.9,209,1371.7,210.4z"/>
			<path class="st320" d="M1356.9,227.1l-27.3-26.2c-3-7-5.8-14.1-8.4-21.3l42.1,40.3C1361.2,222.4,1359.1,224.8,1356.9,227.1z"/>
		</g>
		<g style="clip-path:url(#SVGID_2_);">
			<g>
				<path class="st316" d="M77.1,22.8C66.7,13.5,57,3.8,45.6-5c-0.5,1.1-1.1,2.8-1.4,3.9c-3.3,12.9-6.1,25.9-8.4,39
					c-2.1,12.2-4.7,24-5.3,36.4c0,0.1,0,0.2,0,0.3c0,0,0,0,0,0c0,0,0,0,0,0c0.1,0,0.2,0,0.3-0.1c12.2-1.8,23.8-5.6,35.7-8.9
					c12.8-3.5,25.5-7.6,37.9-12.2c1-0.4,2.6-1.2,3.7-1.8C98.1,41,87.5,32.2,77.1,22.8z"/>
			</g>
			<g>
				<path class="st317" d="M77.1,22.8c-2.6-2.3-5.1-4.7-7.7-7L58.7,67.7c2.6-0.7,5.1-1.5,7.7-2.2c0.7-0.2,1.3-0.4,2-0.6L77.1,22.8z"
					/>
				<g>
					<path class="st317" d="M52.5,0.6L37.5,73.2c3.2-0.7,6.4-1.4,9.6-2.3L60.2,7.3C57.7,5.1,55.1,2.8,52.5,0.6z"/>
				</g>
				<path class="st317" d="M79.7,61.6c3.3-1,6.5-2.1,9.8-3.1l4.3-20.8c-2.6-2.3-5.1-4.6-7.7-6.9L79.7,61.6z"/>
			</g>
		</g>
		<g style="clip-path:url(#SVGID_2_);">
			<g>
				<path class="st318" d="M188.5,104.7c-12.6-6-24.7-12.6-38.1-17.9c-0.2,1.2-0.3,3-0.3,4.1c0.4,13.3,1.4,26.5,2.9,39.7
					c1.4,12.3,2.2,24.4,5.2,36.4c0,0.1,0,0.2,0,0.3c0,0,0,0,0,0c0,0,0,0,0,0c0.1,0,0.2-0.1,0.2-0.1c11.2-5.2,21.2-12.1,31.8-18.6
					c11.3-7,22.3-14.5,33-22.4c0.9-0.7,2.2-1.9,3-2.8C213.7,116.2,201.1,110.8,188.5,104.7z"/>
			</g>
			<g>
				<path class="st317" d="M209,115.1L209,115.1L209,115.1l-15.3,5.3l-5.3-15.3l0,0l0,0l-15.3,5.3l-5.3-15.3l0,0l0,0l-17.1,5.9
					c0.2,3.2,0.4,6.4,0.6,9.6l10.8-3.8l2.3,6.6l0,0l3,8.7l0,0l0,0l8.7-3l0,0l6.6-2.3l2.3,6.6l0,0l3,8.7l0,0l0,0l8.7-3l0,0l6.6-2.3
					l3.8,10.8c2.6-1.8,5.3-3.6,7.9-5.5L209,115.1z"/>
				<path class="st317" d="M197.4,139L197.4,139L197.4,139l-15.3,5.3l-5.3-15.3l0,0l0,0l-15.3,5.3l-5.3-15.3l0,0l0,0l-4.1,1.4
					c0.3,3.4,0.7,6.8,1.1,10.1c0.4,3.8,0.8,7.6,1.2,11.4l1.4,4.1l0,0l0,0l8.7-3l0,0l6.6-2.3l2.3,6.6l0,0l3,8.7l0,0l0,0l4.1-1.4
					c3.2-2,6.4-4.1,9.7-6.1c2.9-1.8,5.8-3.6,8.6-5.5L197.4,139z"/>
				<path class="st317" d="M165.2,152.9L165.2,152.9L165.2,152.9l-9.1,3.2c0.5,3.1,1.1,6.1,1.7,9.2l1.7-0.6l0.6,1.7
					c2.8-1.4,5.6-2.8,8.3-4.3L165.2,152.9z"/>
			</g>
		</g>
		<g style="clip-path:url(#SVGID_2_);">
			<g>
				<path class="st319" d="M362.2,164.9c-13.8-2.1-27.3-4.8-41.7-6c0.2,1.2,0.6,3,0.9,4c4.3,12.6,9.1,25,14.4,37.1
					c5,11.3,9.3,22.7,15.6,33.3c0,0.1,0.1,0.2,0.1,0.2c0,0,0,0,0,0c0,0,0,0,0,0c0.1-0.1,0.1-0.1,0.2-0.2
					c9.2-8.2,16.8-17.7,24.9-27.1c8.7-10,17.1-20.4,24.9-31.1c0.7-0.9,1.6-2.5,2.1-3.5C389.7,168.5,376,167,362.2,164.9z"/>
			</g>
			<g>
				<path class="st39" d="M327.5,179.6l63.3,9.8c2.3-2.8,4.5-5.7,6.7-8.6l-73.8-11.4C325,172.8,326.2,176.2,327.5,179.6z"/>
				<path class="st39" d="M335.6,199.3l41.7,6.4c2.5-2.8,4.9-5.7,7.3-8.5l-53.3-8.2C332.6,192.4,334.1,195.8,335.6,199.3z"/>
				<path class="st39" d="M344.1,219l19.1,2.9c2.5-2.8,5-5.6,7.5-8.5l-31.1-4.8C341.1,212.1,342.5,215.5,344.1,219z"/>
			</g>
		</g>
		<g style="clip-path:url(#SVGID_2_);">
			<g>
				<path class="st317" d="M519.3,175.9c0.5,1.1,1.5,2.6,2.1,3.5c3.2,4.3,6.5,8.6,9.9,12.8l23.4-22.4
					C543,171.6,531.3,173.1,519.3,175.9z"/>
			</g>
			<g>
				<path class="st317" d="M554.9,220l42.1-40.3c1.6-4.3,3.1-8.6,4.6-13c0.3-1,0.7-2.8,0.9-4c-0.1,0-0.2,0-0.3,0l-53,50.8
					C551.1,215.6,553,217.8,554.9,220z"/>
			</g>
			<g>
				<path class="st317" d="M571.6,237.3c0.1,0.1,0.1,0.1,0.2,0.2c0,0,0,0,0,0c0,0,0,0,0,0c0-0.1,0.1-0.2,0.1-0.2
					c6.3-10.7,10.5-22,15.4-33.4c0.4-1,0.8-2,1.2-2.9l-27.3,26.2C564.5,230.7,567.9,234.1,571.6,237.3z"/>
			</g>
			<g>
				<path class="st317" d="M537.3,199.7c1.8,2.2,3.7,4.4,5.6,6.6l43.5-41.6c-5.1,0.8-10.1,1.6-15.1,2.5L537.3,199.7z"/>
			</g>
			<path class="st320" d="M560.8,168.8c-2,0.3-4.1,0.6-6.1,0.9l-23.4,22.4c2,2.5,4,5,6.1,7.4l34-32.6
				C567.8,167.7,564.3,168.3,560.8,168.8z"/>
			<path class="st320" d="M546.5,210.4c0.9,1,1.8,2,2.7,3.1l53-50.8c-5.4,0.5-10.6,1.1-15.8,1.9l-43.5,41.6
				C544.1,207.6,545.3,209,546.5,210.4z"/>
			<path class="st320" d="M561.2,227.1l27.3-26.2c3-7,5.8-14.1,8.4-21.3L554.9,220C556.9,222.4,559.1,224.8,561.2,227.1z"/>
		</g>
	</g>
</g>
<g id="Capa_2" class="st826">
</g>
<g id="Capa_4">
</g>
</svg>
