<svg xmlns="http://www.w3.org/2000/svg" xmlns:xlink="http://www.w3.org/1999/xlink" viewBox="0 0 1918.15 481.68"><defs><style>.cls-1{fill:none;}.cls-2{clip-path:url(#clip-path);}.cls-3{fill:#f4ac0e;}.cls-4{fill:#2296ba;}.cls-5{fill:#e86b62;}.cls-6{fill:#fcef50;}.cls-7{fill:#8ed1db;}.cls-8{fill:#badb45;}.cls-9{fill:#e73f3a;}.cls-10{fill:#f59b45;}.cls-11{fill:#69a8d9;}</style><clipPath id="clip-path"><path class="cls-1" d="M1918.15,422.21l-21.89,8.57C1291.08,667.53,602.49,664.42,0,422.21H0V5.05H1918.15Z"/></clipPath></defs><title>logros-section</title><g id="Capa_2" data-name="Capa 2"><g id="Capa_3" data-name="Capa 3"><g class="cls-2"><path class="cls-3" d="M626.73,150q4.1-1.26,8.2-2.58a16.66,16.66,0,0,1,14.34,2l2.3,1.51c166.22,109.28,329,101.63,438.53,74.68,78.53-19.32,141.15-50.9,177.05-71.86,2.1-1.23,4.12-2.42,6-3.57a16.66,16.66,0,0,1,13.62-1.61q4.68,1.48,9.33,2.88c194.92,58.39,350.87,1.71,448.61-57.53A676.75,676.75,0,0,0,1860.26,5.05H57.89A676.35,676.35,0,0,0,173.4,93.87C271.93,153.58,429.6,210.7,626.73,150Z"/><path class="cls-3" d="M1373,182.47a610.19,610.19,0,0,1-91.67-21.8c-35.14,21.18-102.15,56.53-187.57,77.62-98,24.19-237.65,33.34-384.9-39.3a605.53,605.53,0,0,1-68.28-39.52,611.91,611.91,0,0,1-95.41,23c-162.23,25.3-292.76-25.16-379-77.54A693.47,693.47,0,0,1,38.94,5.05H0V365.8c20.5,22.39,46.53,41.7,75.28,56.55,64.44,33.29,141.11,46.85,216.83,52.57,58.28,4.4,117.43,4.48,174.89-4.67,103.24-16.44,212.33-78,425.18-85.5,187.62-6.58,219.86,10,383.9,50.6,114.77,28.38,200.21,49.08,318.47,46,63.7-1.64,142.29-19,200.79-39.84,61.7-22,102.35-73.57,122.81-122.66V5.05h-39A692.78,692.78,0,0,1,1752,104.93C1665.75,157.31,1535.22,207.77,1373,182.47Z"/><path class="cls-4" d="M545.16,182.47a611.91,611.91,0,0,0,95.41-23q-6.92-4.62-13.84-9.51C429.6,210.7,271.93,153.58,173.4,93.87A676.35,676.35,0,0,1,57.89,5.05h-19a693.47,693.47,0,0,0,127.17,99.88C252.4,157.31,382.93,207.77,545.16,182.47Z"/><path class="cls-4" d="M1744.75,93.87c-97.74,59.24-253.69,115.92-448.61,57.53-4,2.61-9,5.74-14.82,9.27a610.19,610.19,0,0,0,91.67,21.8c162.23,25.3,292.76-25.16,379-77.54A692.78,692.78,0,0,0,1879.2,5.05h-18.94A676.75,676.75,0,0,1,1744.75,93.87Z"/><path class="cls-4" d="M1267.15,153.7c-35.9,21-98.52,52.54-177.05,71.86-109.49,26.95-272.31,34.6-438.53-74.68a6.63,6.63,0,0,1-4.51,6.44c-2.16.73-4.33,1.45-6.49,2.15A605.53,605.53,0,0,0,708.85,199c147.25,72.64,286.9,63.49,384.9,39.3,85.42-21.09,152.43-56.44,187.57-77.62q-5.1-1.63-10.24-3.35A6.59,6.59,0,0,1,1267.15,153.7Z"/><path class="cls-4" d="M651.57,150.88l-2.3-1.51a16.66,16.66,0,0,0-14.34-2q-4.11,1.32-8.2,2.58,6.91,4.89,13.84,9.51c2.16-.7,4.33-1.42,6.49-2.15A6.63,6.63,0,0,0,651.57,150.88Z"/><path class="cls-4" d="M1273.19,150.13c-1.92,1.15-3.94,2.34-6,3.57a6.59,6.59,0,0,0,3.93,3.62q5.14,1.73,10.24,3.35c5.84-3.53,10.8-6.66,14.82-9.27q-4.65-1.4-9.33-2.88A16.66,16.66,0,0,0,1273.19,150.13Z"/><path class="cls-5" d="M1201.68,191.37c12.71-5.81,24.92-12.15,38.45-17.19a29.1,29.1,0,0,1,.21,4.11q-1,19.89-3.67,39.67c-1.66,12.26-2.7,24.34-5.85,36.31l-.06.26h0l-.22-.12c-11.14-5.39-21-12.46-31.4-19.17q-16.74-10.81-32.52-23a27.08,27.08,0,0,1-3-2.83C1176.25,202.4,1189,197.25,1201.68,191.37Z"/><path class="cls-6" d="M1201.73,191.35c3.17-1.45,6.31-2.93,9.45-4.42l-5.33,52.71q-3.33-2.2-6.72-4.4l-1.72-1.14Z"/><path class="cls-6" d="M1231.89,177.47l-7.45,73.75q-4.32-2.4-8.49-5l6.52-64.56C1225.57,180.21,1228.7,178.82,1231.89,177.47Z"/><path class="cls-6" d="M1187.69,227.58q-4.23-2.91-8.4-5.92l2.13-21.13c3.15-1.45,6.29-2.86,9.44-4.26Z"/><path class="cls-7" d="M1071,236.17c13.83-2,27.32-4.67,41.72-5.7a27.73,27.73,0,0,1-1,4q-6.54,18.82-14.66,37c-5,11.3-9.43,22.6-15.82,33.21l-.12.22h0l-.18-.19c-9.18-8.3-16.66-17.85-24.75-27.21q-13-15.07-24.75-31.22a27.57,27.57,0,0,1-2.07-3.55C1043.45,239.61,1057.14,238.25,1071,236.17Z"/><path class="cls-6" d="M1048.32,240h0l13,9.67,9.66-13h0l13,9.66,9.67-13h0l14.53,10.78q-1.68,4.5-3.44,9l-9.18-6.82-4.17,5.61,0,0-5.51,7.42,0,0,0,0-7.42-5.51,0,0-5.61-4.16-4.16,5.61h0l-5.51,7.42h0l0,0-7.42-5.51,0,0-5.61-4.17-6.82,9.19q-3-3.76-5.88-7.58Z"/><path class="cls-6" d="M1052.2,266.27h0l13,9.67,9.67-13h0l13,9.67,9.67-13h0l3.49,2.59q-2,4.69-4,9.36c-1.57,3.51-3.07,7-4.59,10.51l-2.6,3.51,0,0v0l-7.42-5.51v0l-5.61-4.17-4.16,5.61,0,0-5.51,7.42,0,0,0,0-3.51-2.61c-2.46-2.9-4.92-5.82-7.43-8.73q-3.33-3.85-6.58-7.79Z"/><path class="cls-6" d="M1078.79,289.17h0l7.76,5.76c-1.38,2.78-2.84,5.53-4.41,8.23l-1.45-1.07-1.07,1.44c-2.29-2.13-4.48-4.34-6.6-6.6Z"/><path class="cls-8" d="M887.17,241.69c13.81,2.13,27.49,3.54,41.56,6.77a26.8,26.8,0,0,1-2.08,3.54q-11.76,16.08-24.87,31.13c-8.12,9.33-15.64,18.85-24.85,27.12l-.18.18h0l-.12-.23c-6.35-10.63-10.7-21.95-15.69-33.27q-8-18.23-14.52-37.1a27.87,27.87,0,0,1-.94-4C859.86,236.92,873.35,239.63,887.17,241.69Z"/><path class="cls-9" d="M915.87,266.14l-63.36-9.61q-2-5.1-3.81-10.24l73.84,11.2Q919.26,261.85,915.87,266.14Z"/><path class="cls-9" d="M902.34,282.47l-41.75-6.33q-2.25-5.14-4.38-10.33l53.37,8.1Q906,278.23,902.34,282.47Z"/><path class="cls-9" d="M888.29,298.72l-19.11-2.9c-1.57-3.42-3.07-6.87-4.56-10.35l31.1,4.72C893.27,293.07,890.81,295.92,888.29,298.72Z"/><path class="cls-10" d="M734,205.3a27.46,27.46,0,0,1-3.07,2.73c-4.36,3.17-8.78,6.23-13.25,9.25L702,188.85C712.71,194.05,723.42,199,734,205.3Z"/><path class="cls-10" d="M686.89,236.71l-28.13-51.08c-.22-4.58-.4-9.17-.49-13.75a26.72,26.72,0,0,1,.33-4.1l.24.1,35.4,64.3Z"/><path class="cls-10" d="M665.77,248.26l-.23.12h0c0-.08,0-.17,0-.25-2.78-12.06-3.46-24.17-4.75-36.48-.11-1.06-.19-2.12-.3-3.18l18.25,33.14A144.19,144.19,0,0,1,665.77,248.26Z"/><path class="cls-10" d="M709.69,222.55q-3.63,2.34-7.31,4.62l-29-52.73c4.6,2.24,9.11,4.56,13.63,6.87Z"/><path class="cls-11" d="M696.5,186.13c1.85.92,3.69,1.82,5.53,2.72l15.65,28.43q-4,2.67-8,5.27L687,181.31C690.14,182.93,693.31,184.55,696.5,186.13Z"/><path class="cls-11" d="M697.73,230.05c-1.17.7-2.33,1.42-3.49,2.13l-35.4-64.3c5,2.05,9.8,4.26,14.51,6.56l29,52.73C700.83,228.13,699.29,229.11,697.73,230.05Z"/><path class="cls-11" d="M678.68,241.6l-18.25-33.14q-1.11-11.4-1.67-22.83l28.13,51.08C684.17,238.38,681.44,240,678.68,241.6Z"/><path class="cls-5" d="M1841,27.89c10.39-9.34,20.15-19,31.55-27.89A27.82,27.82,0,0,1,1874,3.85q5,19.29,8.36,39c2.08,12.2,4.7,24,5.27,36.4l0,.26h0l-.25,0c-12.25-1.82-23.77-5.61-35.69-8.91q-19.21-5.31-37.92-12.24a28.41,28.41,0,0,1-3.69-1.8C1820,46,1830.67,37.29,1841,27.89Z"/><path class="cls-6" d="M1841.05,27.86c2.59-2.33,5.14-4.68,7.69-7l10.68,51.89c-2.57-.73-5.14-1.47-7.73-2.19-.67-.19-1.32-.39-2-.57Z"/><path class="cls-6" d="M1865.68,5.6l14.94,72.61c-3.24-.67-6.43-1.43-9.61-2.27l-13.08-63.55C1860.47,10.1,1863,7.84,1865.68,5.6Z"/><path class="cls-6" d="M1838.48,66.63q-4.9-1.51-9.79-3.14l-4.28-20.8q3.85-3.48,7.73-6.88Z"/><path class="cls-7" d="M1729.65,109.71c12.6-6,24.68-12.61,38.11-17.91a27.94,27.94,0,0,1,.29,4.1q-.61,19.92-2.92,39.74c-1.43,12.29-2.24,24.39-5.17,36.42,0,.08,0,.16,0,.25h0l-.23-.12c-11.24-5.17-21.23-12.05-31.75-18.57q-17-10.49-33-22.39a28.67,28.67,0,0,1-3-2.77C1704.43,121.22,1717.08,115.83,1729.65,109.71Z"/><path class="cls-6" d="M1709.2,120.15h0l15.32,5.33,5.33-15.31h0l15.32,5.33,5.33-15.31h0l17.08,6q-.25,4.78-.6,9.57l-10.81-3.76-2.3,6.6h0l-3,8.73h0v0l-8.73-3v0l-6.6-2.3-2.3,6.6h0l-3,8.72h0v0l-8.72-3v0l-6.6-2.3-3.76,10.8q-4-2.7-7.88-5.47Z"/><path class="cls-6" d="M1720.75,144.05h0v0l15.32,5.34,5.33-15.32h0l15.31,5.33,5.33-15.32h0l4.1,1.43q-.48,5.07-1.06,10.14c-.44,3.81-.83,7.61-1.24,11.4l-1.43,4.12h0v0l-8.73-3v0l-6.6-2.29-2.29,6.6h0l-3,8.72h0v0l-4.13-1.44c-3.22-2-6.43-4.08-9.7-6.11q-4.34-2.69-8.61-5.46Z"/><path class="cls-6" d="M1753,158h0l9.12,3.18q-.72,4.59-1.75,9.18l-1.69-.6-.6,1.7c-2.82-1.35-5.57-2.81-8.27-4.33Z"/><path class="cls-8" d="M1555.91,169.92c13.82-2.09,27.3-4.83,41.69-6a26.6,26.6,0,0,1-.93,4q-6.42,18.87-14.43,37.14c-5,11.33-9.28,22.66-15.6,33.31l-.12.22h0c-.06-.07-.13-.12-.19-.18-9.23-8.25-16.76-17.75-24.91-27.06q-13.12-15-25-31.07a27.37,27.37,0,0,1-2.09-3.53C1528.43,173.54,1542.11,172.09,1555.91,169.92Z"/><path class="cls-9" d="M1590.61,184.67l-63.33,9.77q-3.4-4.27-6.7-8.63l73.81-11.38Q1592.56,179.58,1590.61,184.67Z"/><path class="cls-9" d="M1582.58,204.3l-41.74,6.44q-3.67-4.23-7.26-8.54l53.35-8.23C1585.52,197.43,1584.08,200.88,1582.58,204.3Z"/><path class="cls-9" d="M1574,224l-19.1,3c-2.52-2.8-5-5.65-7.45-8.52l31.09-4.79C1577.09,217.13,1575.6,220.58,1574,224Z"/><path class="cls-10" d="M1398.87,181a28.15,28.15,0,0,1-2.11,3.53c-3.21,4.32-6.52,8.57-9.88,12.78l-23.43-22.45C1375.19,176.61,1386.89,178.14,1398.87,181Z"/><path class="cls-10" d="M1363.3,225l-42.11-40.34c-1.58-4.3-3.13-8.62-4.58-13a28,28,0,0,1-.91-4l.26,0,53,50.77Z"/><path class="cls-10" d="M1346.6,242.37l-.19.18h0l-.12-.23c-6.26-10.67-10.53-22-15.43-33.39-.43-1-.82-2-1.24-2.94l27.32,26.17C1353.65,235.7,1350.26,239.13,1346.6,242.37Z"/><path class="cls-10" d="M1380.82,204.71q-2.76,3.33-5.59,6.59l-43.46-41.64c5.06.76,10.06,1.63,15.06,2.48Z"/><path class="cls-11" d="M1357.36,173.89c2,.33,4.06.64,6.09,1l23.43,22.45c-2,2.49-4,5-6.06,7.42l-34-32.57C1350.33,172.74,1353.83,173.34,1357.36,173.89Z"/><path class="cls-11" d="M1371.65,215.44l-2.69,3.07-53-50.77c5.38.46,10.62,1.13,15.81,1.92l43.46,41.64C1374,212.68,1372.86,214.07,1371.65,215.44Z"/><path class="cls-11" d="M1356.93,232.16,1329.61,206q-4.47-10.55-8.42-21.3L1363.3,225C1361.2,227.44,1359.09,229.82,1356.93,232.16Z"/><path class="cls-5" d="M77.14,27.89C66.75,18.55,57,8.85,45.59,0a29.26,29.26,0,0,0-1.43,3.85q-5,19.29-8.35,39c-2.09,12.2-4.7,24-5.27,36.4l0,.26h0l.25,0C43,77.61,54.53,73.82,66.46,70.52q19.2-5.31,37.92-12.24a28.41,28.41,0,0,0,3.69-1.8C98.11,46,87.48,37.29,77.14,27.89Z"/><path class="cls-6" d="M77.1,27.86c-2.59-2.33-5.14-4.68-7.69-7L58.73,72.71c2.57-.73,5.14-1.47,7.73-2.19.66-.19,1.32-.39,2-.57Z"/><path class="cls-6" d="M52.47,5.6,37.53,78.21q4.84-1,9.61-2.27L60.22,12.39C57.68,10.1,55.11,7.84,52.47,5.6Z"/><path class="cls-6" d="M79.67,66.63q4.9-1.51,9.79-3.14l4.28-20.8Q89.89,39.21,86,35.81Z"/><path class="cls-7" d="M188.5,109.71c-12.6-6-24.68-12.61-38.12-17.91a29.34,29.34,0,0,0-.28,4.1q.61,19.92,2.92,39.74c1.43,12.29,2.24,24.39,5.16,36.42a1.84,1.84,0,0,1,0,.25h0l.23-.12c11.24-5.17,21.23-12.05,31.75-18.57q16.93-10.49,32.95-22.39a28.75,28.75,0,0,0,3-2.77C213.72,121.22,201.06,115.83,188.5,109.71Z"/><path class="cls-6" d="M209,120.15h0l-15.32,5.33-5.33-15.31h0L173,115.49l-5.33-15.31h0l-17.08,6q.25,4.78.6,9.57l10.81-3.76,2.29,6.6h0l3,8.73h0v0l8.73-3v0l6.6-2.3,2.3,6.6h0l3,8.72h0v0l8.73-3v0l6.6-2.3,3.76,10.8q4-2.7,7.88-5.47Z"/><path class="cls-6" d="M197.4,144.05h0v0l-15.31,5.34-5.33-15.32h0l-15.31,5.33-5.34-15.32h0L152,125.5q.48,5.07,1.07,10.14c.44,3.81.83,7.61,1.23,11.4l1.44,4.12h0v0l8.73-3v0l6.59-2.29,2.3,6.6h0l3,8.72h0v0l4.13-1.44c3.22-2,6.43-4.08,9.7-6.11q4.34-2.69,8.61-5.46Z"/><path class="cls-6" d="M165.18,158h0l-9.12,3.18c.48,3.06,1,6.12,1.74,9.18l1.7-.6.59,1.7c2.83-1.35,5.58-2.81,8.28-4.33Z"/><path class="cls-8" d="M362.23,169.92c-13.81-2.09-27.29-4.83-41.68-6a27.89,27.89,0,0,0,.92,4q6.43,18.87,14.43,37.14c5,11.33,9.29,22.66,15.61,33.31l.12.22h0l.18-.18c9.24-8.25,16.77-17.75,24.92-27.06q13.13-15,24.95-31.07a28.57,28.57,0,0,0,2.09-3.53C389.72,173.54,376,172.09,362.23,169.92Z"/><path class="cls-9" d="M327.54,184.67l63.33,9.77q3.4-4.27,6.7-8.63l-73.82-11.38Q325.6,179.58,327.54,184.67Z"/><path class="cls-9" d="M335.56,204.3l41.74,6.44q3.69-4.23,7.26-8.54L331.22,194Q333.34,199.16,335.56,204.3Z"/><path class="cls-9" d="M344.11,224l19.11,3c2.52-2.8,5-5.65,7.45-8.52l-31.1-4.79C341.06,217.13,342.55,220.58,344.11,224Z"/><path class="cls-6" d="M519.28,181a28.15,28.15,0,0,0,2.11,3.53c3.21,4.32,6.52,8.57,9.88,12.78l23.43-22.45C543,176.61,531.26,178.14,519.28,181Z"/><path class="cls-6" d="M554.85,225,597,184.69c1.58-4.3,3.12-8.62,4.58-13a28,28,0,0,0,.91-4l-.26,0-53,50.77Q552,221.78,554.85,225Z"/><path class="cls-6" d="M571.55,242.37l.19.18h0l.11-.23c6.27-10.67,10.53-22,15.44-33.39.42-1,.82-2,1.24-2.94l-27.32,26.17C564.5,235.7,567.89,239.13,571.55,242.37Z"/><path class="cls-6" d="M537.32,204.71q2.77,3.33,5.59,6.59l43.47-41.64c-5.06.76-10.06,1.63-15.06,2.48Z"/><path class="cls-11" d="M560.79,173.89c-2,.33-4.06.64-6.09,1l-23.43,22.45q3,3.74,6.05,7.42l34-32.57C567.82,172.74,564.31,173.34,560.79,173.89Z"/><path class="cls-11" d="M546.5,215.44l2.69,3.07,53-50.77c-5.38.46-10.63,1.13-15.81,1.92L542.91,211.3C544.11,212.68,545.29,214.07,546.5,215.44Z"/><path class="cls-11" d="M561.22,232.16,588.54,206q4.47-10.55,8.42-21.3L554.85,225C557,227.44,559.06,229.82,561.22,232.16Z"/></g></g></g></svg>