<?xml version="1.0" encoding="utf-8"?>
<!-- Generator: Adobe Illustrator 22.0.0, SVG Export Plug-In . SVG Version: 6.00 Build 0)  -->
<svg version="1.1" id="Capa_1" xmlns="http://www.w3.org/2000/svg" xmlns:xlink="http://www.w3.org/1999/xlink" x="0px" y="0px"
	 viewBox="0 0 890.1 291.5" style="enable-background:new 0 0 890.1 291.5;" xml:space="preserve">
<style type="text/css">
	.st0{fill:#6400DA;}
	.st1{fill:#FF6500;}
	.st2{fill:#FFFFFF;}
	.st3{fill:#FFD600;}
	.st4{fill:#005693;}
	.st5{fill:#34A836;}
	.st6{fill-rule:evenodd;clip-rule:evenodd;fill:#FFFFFF;}
	.st7{fill-rule:evenodd;clip-rule:evenodd;fill:#0073D2;}
	.st8{opacity:0.39;}
	.st9{fill:none;stroke:#FFFFFF;stroke-width:2.9784;stroke-linecap:round;stroke-linejoin:round;}
	.st10{fill:#C6433E;}
	.st11{fill:#E20613;}
	.st12{fill:#FCD570;}
	.st13{fill:#FCCD56;}
	.st14{fill:#F5BB41;}
	.st15{fill:#FDE19A;}
	.st16{fill:#FCD879;}
	.st17{fill:#FCD05E;}
	.st18{fill:#F6C55B;}
	.st19{fill:#F7B056;}
	.st20{fill:#F59B45;}
	.st21{fill-rule:evenodd;clip-rule:evenodd;fill:#FFC700;}
	.st22{fill:#F4EBC6;}
	.st23{fill:#B9B295;}
	.st24{fill:#0E0E0E;}
	.st25{fill:#884D30;}
	.st26{fill:#3F0D0B;}
	.st27{fill:#A86C0E;}
	.st28{fill:#F09915;}
	.st29{opacity:0.4;fill:#FFFFFF;}
	.st30{fill:#DCDDEE;}
	.st31{fill:#A5A3A9;}
	.st32{fill:#000922;}
	.st33{fill:#FFFFC7;}
	.st34{fill:#8BBFCB;}
	.st35{fill:#B3D5DD;}
	.st36{fill:#00AEEF;}
	.st37{fill:#008FEF;}
	.st38{fill:#4E82B0;}
	.st39{fill:#5A93B5;}
	.st40{fill:none;stroke:#003142;stroke-width:2.4444;stroke-miterlimit:10;}
	.st41{fill:#252D42;}
	.st42{fill:#00090C;}
	.st43{opacity:0.1;fill:#00C1A8;}
	.st44{fill:#FA6B08;}
	.st45{fill:#FF9138;}
	.st46{fill:#123025;}
	.st47{fill:none;stroke:#001609;stroke-width:3;stroke-miterlimit:10;}
	.st48{fill:#32453F;}
	.st49{opacity:0.1;clip-path:url(#SVGID_2_);}
	.st50{fill:#A1B6AD;}
	.st51{fill:#CE5606;}
	.st52{fill:#FDFDD6;}
	.st53{fill:#FDFDDA;}
	.st54{fill:none;stroke:#FDFDD6;stroke-miterlimit:10;}
	.st55{fill:#FF9D4E;}
	.st56{fill:#FFD161;}
	.st57{fill:#FFCC41;}
	.st58{fill:#FFAC00;}
	.st59{fill:#00C1A8;}
	.st60{fill:#001609;}
	.st61{fill:none;stroke:#FFFFFF;stroke-width:3;stroke-linecap:round;stroke-linejoin:round;}
	.st62{fill:none;stroke:#FFFFFF;stroke-width:0.9928;stroke-linecap:round;stroke-linejoin:round;}
	.st63{fill:none;stroke:#FFFFFF;stroke-width:0.9004;stroke-linecap:round;stroke-linejoin:round;}
	.st64{fill:#79B2FF;}
	.st65{fill:#9BC6FF;}
	.st66{fill:#FFCB7C;}
	.st67{fill:#F6838D;}
	.st68{fill:#4799CF;}
	.st69{fill:#D9D9D9;}
	.st70{fill:#AAE5C8;}
	.st71{fill:#85BC94;}
	.st72{fill:#EA9D2D;}
	.st73{fill:#EBEBEB;}
	.st74{fill:#5ABCF3;}
	.st75{fill:#E06661;}
	.st76{fill:#CDCDCD;}
	.st77{fill:#FBB540;}
	.st78{fill:#FDC9A6;}
	.st79{fill:#475D6D;}
	.st80{fill:#2C3F4F;}
	.st81{fill:#F9DC6A;}
	.st82{fill:#E5AC51;}
	.st83{fill:#2BB4F3;}
	.st84{fill:#1687C4;}
	.st85{fill:#F2A077;}
	.st86{fill:#FFCCAA;}
	.st87{fill:#FF5A59;}
	.st88{fill:#CE3A4C;}
	.st89{fill:#FFC800;}
	.st90{fill:#009EE2;}
	.st91{clip-path:url(#SVGID_6_);fill:url(#SVGID_7_);}
	.st92{clip-path:url(#SVGID_6_);fill:url(#SVGID_8_);}
	.st93{clip-path:url(#SVGID_6_);fill:#009CDD;}
	.st94{clip-path:url(#SVGID_6_);}
	.st95{fill:url(#SVGID_9_);}
	.st96{fill:url(#SVGID_10_);}
	.st97{fill:url(#SVGID_11_);}
	.st98{fill:url(#SVGID_12_);}
	.st99{fill:url(#SVGID_13_);}
	.st100{fill:url(#SVGID_14_);}
	.st101{fill:url(#SVGID_15_);}
	.st102{fill:url(#SVGID_16_);}
	.st103{fill:url(#SVGID_17_);}
	.st104{fill:url(#SVGID_18_);}
	.st105{fill:url(#SVGID_19_);}
	.st106{fill:url(#SVGID_20_);}
	.st107{fill:url(#SVGID_21_);}
	.st108{fill:url(#SVGID_22_);}
	.st109{fill:url(#SVGID_23_);}
	.st110{fill:url(#SVGID_24_);}
	.st111{fill:url(#SVGID_25_);}
	.st112{fill:url(#SVGID_26_);}
	.st113{fill:url(#SVGID_27_);}
	.st114{fill:url(#SVGID_28_);}
	.st115{fill:url(#SVGID_29_);}
	.st116{fill:url(#SVGID_30_);}
	.st117{fill:url(#SVGID_31_);}
	.st118{fill:url(#SVGID_32_);}
	.st119{fill:url(#SVGID_33_);}
	.st120{fill:url(#SVGID_34_);}
	.st121{fill:url(#SVGID_35_);}
	.st122{fill:url(#SVGID_36_);}
	.st123{fill:url(#SVGID_37_);}
	.st124{fill:url(#SVGID_38_);}
	.st125{fill:url(#SVGID_39_);}
	.st126{fill:url(#SVGID_40_);}
	.st127{fill:url(#SVGID_41_);}
	.st128{fill:url(#SVGID_42_);}
	.st129{fill:url(#SVGID_43_);}
	.st130{fill:url(#SVGID_44_);}
	.st131{fill:url(#SVGID_45_);}
	.st132{fill:url(#SVGID_46_);}
	.st133{fill:url(#SVGID_47_);}
	.st134{fill:url(#SVGID_48_);}
	.st135{fill:url(#SVGID_49_);}
	.st136{fill:#3B3637;}
	.st137{fill:none;stroke:#3B3637;stroke-width:3;stroke-miterlimit:10;}
	.st138{fill:url(#SVGID_50_);}
	.st139{fill:url(#SVGID_51_);}
	.st140{fill:url(#SVGID_54_);}
	.st141{clip-path:url(#SVGID_56_);}
	.st142{clip-path:url(#SVGID_58_);}
	.st143{clip-path:url(#SVGID_62_);}
	.st144{fill:#418421;}
	.st145{fill:#2D660E;}
	.st146{fill:#84D84E;}
	.st147{opacity:0.4;fill:#2D660E;}
	.st148{fill:#EDC174;}
	.st149{fill:#D8A34E;}
	.st150{fill:#C18733;}
	.st151{opacity:0.4;fill:#1B3D04;}
	.st152{fill:#6AC634;}
	.st153{fill:#245109;}
	.st154{fill:#D6854D;}
	.st155{fill:#BC6428;}
	.st156{fill:#492004;}
	.st157{fill:#66BC2E;}
	.st158{clip-path:url(#SVGID_62_);fill:#009CDD;}
	.st159{fill:#D8BF4C;}
	.st160{fill:#4BDDFD;}
	.st161{opacity:0.6;fill:#13BDE5;}
	.st162{opacity:0.5;fill:#FFEAC1;}
	.st163{opacity:0.7;fill:#FFEAC1;}
	.st164{fill:#FAFFDE;}
	.st165{opacity:0.2;}
	.st166{fill:#BF9D62;}
	.st167{clip-path:url(#SVGID_66_);}
	.st168{clip-path:url(#SVGID_70_);fill:none;}
	.st169{fill:url(#SVGID_71_);}
	.st170{fill:url(#SVGID_72_);}
	.st171{fill:url(#SVGID_73_);}
	.st172{fill:url(#SVGID_74_);}
	.st173{fill:url(#SVGID_75_);}
	.st174{fill:url(#SVGID_76_);}
	.st175{fill:url(#SVGID_77_);}
	.st176{fill:url(#SVGID_78_);}
	.st177{fill:url(#SVGID_79_);}
	.st178{fill:url(#SVGID_80_);}
	.st179{fill:url(#SVGID_81_);}
	.st180{fill:url(#SVGID_82_);}
	.st181{fill:url(#SVGID_83_);}
	.st182{fill:url(#SVGID_84_);}
	.st183{fill:url(#SVGID_85_);}
	.st184{fill:url(#SVGID_86_);}
	.st185{fill:url(#SVGID_87_);}
	.st186{fill:url(#SVGID_88_);}
	.st187{fill:url(#SVGID_89_);}
	.st188{fill:url(#SVGID_90_);}
	.st189{fill:url(#SVGID_91_);}
	.st190{fill:url(#SVGID_92_);}
	.st191{fill:url(#SVGID_93_);}
	.st192{fill:url(#SVGID_94_);}
	.st193{fill:url(#SVGID_95_);}
	.st194{fill:url(#SVGID_96_);}
	.st195{fill:url(#SVGID_97_);}
	.st196{fill:url(#SVGID_98_);}
	.st197{fill:url(#SVGID_99_);}
	.st198{fill:url(#SVGID_100_);}
	.st199{fill:url(#SVGID_101_);}
	.st200{fill:url(#SVGID_102_);}
	.st201{fill:url(#SVGID_103_);}
	.st202{fill:url(#SVGID_104_);}
	.st203{fill:url(#SVGID_105_);}
	.st204{fill:url(#SVGID_106_);}
	.st205{fill:url(#SVGID_107_);}
	.st206{fill:url(#SVGID_108_);}
	.st207{fill:url(#SVGID_109_);}
	.st208{fill:url(#SVGID_110_);}
	.st209{fill:url(#SVGID_111_);}
	.st210{fill:url(#SVGID_112_);}
	.st211{fill:url(#SVGID_113_);}
	.st212{fill:url(#SVGID_114_);}
	.st213{fill:url(#SVGID_115_);}
	.st214{fill:url(#SVGID_116_);}
	.st215{fill:url(#SVGID_117_);}
	.st216{fill:url(#SVGID_118_);}
	.st217{fill:url(#SVGID_119_);}
	.st218{fill:url(#SVGID_120_);}
	.st219{fill:url(#SVGID_121_);}
	.st220{fill:url(#SVGID_122_);}
	.st221{fill:url(#SVGID_123_);}
	.st222{fill:url(#SVGID_124_);}
	.st223{fill:url(#SVGID_125_);}
	.st224{fill:url(#SVGID_126_);}
	.st225{fill:url(#SVGID_127_);}
	.st226{fill:url(#SVGID_128_);}
	.st227{fill:url(#SVGID_129_);}
	.st228{fill:url(#SVGID_130_);}
	.st229{fill:url(#SVGID_131_);}
	.st230{fill:url(#SVGID_132_);}
	.st231{fill:url(#SVGID_133_);}
	.st232{fill:url(#SVGID_134_);}
	.st233{fill:url(#SVGID_135_);}
	.st234{fill:url(#SVGID_136_);}
	.st235{fill:url(#SVGID_137_);}
	.st236{fill:url(#SVGID_138_);}
	.st237{fill:url(#SVGID_139_);}
	.st238{fill:url(#SVGID_140_);}
	.st239{fill:url(#SVGID_141_);}
	.st240{fill:url(#SVGID_142_);}
	.st241{fill:url(#SVGID_143_);}
	.st242{fill:url(#SVGID_144_);}
	.st243{fill:url(#SVGID_145_);}
	.st244{fill:url(#SVGID_146_);}
	.st245{fill:url(#SVGID_147_);}
	.st246{fill:url(#SVGID_148_);}
	.st247{fill:url(#SVGID_149_);}
	.st248{fill:url(#SVGID_150_);}
	.st249{fill:url(#SVGID_151_);}
	.st250{fill:url(#SVGID_152_);}
	.st251{fill:url(#SVGID_153_);}
	.st252{fill:url(#SVGID_154_);}
	.st253{fill:url(#SVGID_155_);}
	.st254{fill:url(#SVGID_156_);}
	.st255{fill:url(#SVGID_157_);}
	.st256{fill:url(#SVGID_158_);}
	.st257{fill:url(#SVGID_159_);}
	.st258{fill:url(#SVGID_160_);}
	.st259{fill:url(#SVGID_161_);}
	.st260{fill:url(#SVGID_162_);}
	.st261{fill:url(#SVGID_163_);}
	.st262{fill:url(#SVGID_164_);}
	.st263{fill:url(#SVGID_165_);}
	.st264{fill:url(#SVGID_166_);}
	.st265{fill:url(#SVGID_167_);}
	.st266{fill:url(#SVGID_168_);}
	.st267{fill:url(#SVGID_169_);}
	.st268{fill:url(#SVGID_170_);}
	.st269{fill:url(#SVGID_171_);}
	.st270{fill:url(#SVGID_172_);}
	.st271{fill:url(#SVGID_173_);}
	.st272{fill:url(#SVGID_174_);}
	.st273{fill:url(#SVGID_175_);}
	.st274{fill:url(#SVGID_176_);}
	.st275{fill:url(#SVGID_177_);}
	.st276{fill:url(#SVGID_178_);}
	.st277{fill:url(#SVGID_179_);}
	.st278{fill:url(#SVGID_180_);}
	.st279{fill:url(#SVGID_181_);}
	.st280{fill:url(#SVGID_182_);}
	.st281{fill:url(#SVGID_183_);}
	.st282{fill:url(#SVGID_184_);}
	.st283{fill:url(#SVGID_185_);}
	.st284{fill:url(#SVGID_186_);}
	.st285{fill:url(#SVGID_187_);}
	.st286{fill:url(#SVGID_188_);}
	.st287{fill:url(#SVGID_189_);}
	.st288{fill:url(#SVGID_190_);}
	.st289{fill:url(#SVGID_191_);}
	.st290{fill:url(#SVGID_192_);}
	.st291{fill:url(#SVGID_193_);}
	.st292{fill:url(#SVGID_194_);}
	.st293{fill:url(#SVGID_195_);}
	.st294{fill:url(#SVGID_196_);}
	.st295{fill:url(#SVGID_197_);}
	.st296{fill:url(#SVGID_198_);}
	.st297{fill:url(#SVGID_199_);}
	.st298{fill:url(#SVGID_200_);}
	.st299{fill:url(#SVGID_201_);}
	.st300{fill:url(#SVGID_202_);}
	.st301{fill:url(#SVGID_203_);}
	.st302{fill:url(#SVGID_204_);}
	.st303{fill:url(#SVGID_205_);}
	.st304{fill:url(#SVGID_206_);}
	.st305{fill:url(#SVGID_207_);}
	.st306{fill:url(#SVGID_208_);}
	.st307{fill:url(#SVGID_209_);}
	.st308{fill:url(#SVGID_210_);}
	.st309{fill:url(#SVGID_211_);}
	.st310{fill:url(#SVGID_212_);}
	.st311{fill:url(#SVGID_213_);}
	.st312{fill:url(#SVGID_214_);}
	.st313{fill:url(#SVGID_215_);}
	.st314{fill:url(#SVGID_216_);}
	.st315{fill:url(#SVGID_217_);}
	.st316{fill:url(#SVGID_218_);}
	.st317{fill:url(#SVGID_219_);}
	.st318{fill:url(#SVGID_220_);}
	.st319{fill:url(#SVGID_221_);}
	.st320{fill:url(#SVGID_222_);}
	.st321{fill:url(#SVGID_223_);}
	.st322{fill:url(#SVGID_224_);}
	.st323{fill:url(#SVGID_225_);}
	.st324{fill:url(#SVGID_226_);}
	.st325{fill:url(#SVGID_227_);}
	.st326{fill:url(#SVGID_228_);}
	.st327{fill:url(#SVGID_229_);}
	.st328{fill:url(#SVGID_230_);}
	.st329{fill:url(#SVGID_231_);}
	.st330{fill:url(#SVGID_232_);}
	.st331{fill:url(#SVGID_233_);}
	.st332{fill:url(#SVGID_234_);}
	.st333{fill:url(#SVGID_235_);}
	.st334{fill:url(#SVGID_236_);}
	.st335{fill:url(#SVGID_237_);}
	.st336{fill:url(#SVGID_238_);}
	.st337{fill:url(#SVGID_239_);}
	.st338{fill:url(#SVGID_240_);}
	.st339{fill:url(#SVGID_241_);}
	.st340{fill:url(#SVGID_242_);}
	.st341{fill:url(#SVGID_243_);}
	.st342{fill:url(#SVGID_244_);}
	.st343{fill:url(#SVGID_245_);}
	.st344{fill:url(#SVGID_246_);}
	.st345{fill:url(#SVGID_247_);}
	.st346{fill:url(#SVGID_248_);}
	.st347{fill:url(#SVGID_249_);}
	.st348{fill:url(#SVGID_250_);}
	.st349{fill:url(#SVGID_251_);}
	.st350{fill:url(#SVGID_252_);}
	.st351{fill:url(#SVGID_253_);}
	.st352{fill:url(#SVGID_254_);}
	.st353{fill:url(#SVGID_255_);}
	.st354{fill:url(#SVGID_256_);}
	.st355{fill:url(#SVGID_257_);}
	.st356{fill:url(#SVGID_258_);}
	.st357{fill:url(#SVGID_259_);}
	.st358{fill:url(#SVGID_260_);}
	.st359{fill:url(#SVGID_261_);}
	.st360{fill:url(#SVGID_262_);}
	.st361{fill:url(#SVGID_263_);}
	.st362{fill:url(#SVGID_264_);}
	.st363{fill:url(#SVGID_265_);}
	.st364{fill:url(#SVGID_266_);}
	.st365{fill:url(#SVGID_267_);}
	.st366{fill:url(#SVGID_268_);}
	.st367{fill:url(#SVGID_269_);}
	.st368{fill:url(#SVGID_270_);}
	.st369{fill:url(#SVGID_271_);}
	.st370{fill:url(#SVGID_272_);}
	.st371{fill:url(#SVGID_273_);}
	.st372{fill:url(#SVGID_274_);}
	.st373{fill:url(#SVGID_275_);}
	.st374{fill:url(#SVGID_276_);}
	.st375{fill:url(#SVGID_277_);}
	.st376{fill:url(#SVGID_278_);}
	.st377{fill:url(#SVGID_279_);}
	.st378{fill:url(#SVGID_280_);}
	.st379{fill:url(#SVGID_281_);}
	.st380{fill:url(#SVGID_282_);}
	.st381{fill:url(#SVGID_283_);}
	.st382{fill:url(#SVGID_284_);}
	.st383{fill:url(#SVGID_285_);}
	.st384{fill:url(#SVGID_286_);}
	.st385{fill:url(#SVGID_287_);}
	.st386{fill:url(#SVGID_288_);}
	.st387{fill:url(#SVGID_289_);}
	.st388{fill:url(#SVGID_290_);}
	.st389{fill:url(#SVGID_291_);}
	.st390{fill:url(#SVGID_292_);}
	.st391{fill:url(#SVGID_293_);}
	.st392{fill:url(#SVGID_294_);}
	.st393{fill:url(#SVGID_295_);}
	.st394{fill:url(#SVGID_296_);}
	.st395{fill:url(#SVGID_297_);}
	.st396{fill:url(#SVGID_298_);}
	.st397{fill:url(#SVGID_299_);}
	.st398{fill:url(#SVGID_300_);}
	.st399{fill:url(#SVGID_301_);}
	.st400{fill:url(#SVGID_302_);}
	.st401{fill:url(#SVGID_303_);}
	.st402{fill:url(#SVGID_304_);}
	.st403{fill:url(#SVGID_305_);}
	.st404{fill:url(#SVGID_306_);}
	.st405{fill:url(#SVGID_307_);}
	.st406{fill:url(#SVGID_308_);}
	.st407{fill:url(#SVGID_309_);}
	.st408{fill:url(#SVGID_310_);}
	.st409{fill:url(#SVGID_311_);}
	.st410{fill:url(#SVGID_312_);}
	.st411{fill:url(#SVGID_313_);}
	.st412{fill:url(#SVGID_314_);}
	.st413{fill:url(#SVGID_315_);}
	.st414{fill:url(#SVGID_316_);}
	.st415{fill:url(#SVGID_317_);}
	.st416{fill:url(#SVGID_318_);}
	.st417{fill:url(#SVGID_319_);}
	.st418{fill:url(#SVGID_320_);}
	.st419{fill:url(#SVGID_321_);}
	.st420{fill:url(#SVGID_322_);}
	.st421{fill:url(#SVGID_323_);}
	.st422{fill:url(#SVGID_324_);}
	.st423{fill:url(#SVGID_325_);}
	.st424{fill:url(#SVGID_326_);}
	.st425{fill:url(#SVGID_327_);}
	.st426{fill:url(#SVGID_328_);}
	.st427{fill:url(#SVGID_329_);}
	.st428{fill:url(#SVGID_330_);}
	.st429{fill:url(#SVGID_331_);}
	.st430{fill:url(#SVGID_332_);}
	.st431{fill:url(#SVGID_333_);}
	.st432{fill:url(#SVGID_334_);}
	.st433{fill:url(#SVGID_335_);}
	.st434{fill:url(#SVGID_336_);}
	.st435{fill:url(#SVGID_337_);}
	.st436{fill:url(#SVGID_338_);}
	.st437{fill:url(#SVGID_339_);}
	.st438{fill:url(#SVGID_340_);}
	.st439{fill:url(#SVGID_341_);}
	.st440{fill:url(#SVGID_342_);}
	.st441{fill:url(#SVGID_343_);}
	.st442{fill:url(#SVGID_344_);}
	.st443{fill:url(#SVGID_345_);}
	.st444{fill:url(#SVGID_346_);}
	.st445{fill:url(#SVGID_347_);}
	.st446{fill:url(#SVGID_348_);}
	.st447{fill:url(#SVGID_349_);}
	.st448{fill:url(#SVGID_350_);}
	.st449{fill:url(#SVGID_351_);}
	.st450{fill:url(#SVGID_352_);}
	.st451{fill:url(#SVGID_353_);}
	.st452{fill:url(#SVGID_354_);}
	.st453{fill:url(#SVGID_355_);}
	.st454{fill:url(#SVGID_356_);}
	.st455{fill:url(#SVGID_357_);}
	.st456{fill:url(#SVGID_358_);}
	.st457{fill:url(#SVGID_359_);}
	.st458{fill:url(#SVGID_360_);}
	.st459{fill:url(#SVGID_361_);}
	.st460{fill:url(#SVGID_362_);}
	.st461{fill:url(#SVGID_363_);}
	.st462{fill:url(#SVGID_364_);}
	.st463{fill:url(#SVGID_365_);}
	.st464{fill:url(#SVGID_366_);}
	.st465{fill:url(#SVGID_367_);}
	.st466{fill:url(#SVGID_368_);}
	.st467{fill:url(#SVGID_369_);}
	.st468{fill:url(#SVGID_370_);}
	.st469{fill:url(#SVGID_371_);}
	.st470{fill:url(#SVGID_372_);}
	.st471{fill:url(#SVGID_373_);}
	.st472{fill:url(#SVGID_374_);}
	.st473{fill:url(#SVGID_375_);}
	.st474{fill:url(#SVGID_376_);}
	.st475{fill:url(#SVGID_377_);}
	.st476{fill:url(#SVGID_378_);}
	.st477{fill:url(#SVGID_379_);}
	.st478{fill:url(#SVGID_380_);}
	.st479{fill:url(#SVGID_381_);}
	.st480{fill:url(#SVGID_382_);}
	.st481{fill:url(#SVGID_383_);}
	.st482{fill:url(#SVGID_384_);}
	.st483{fill:url(#SVGID_385_);}
	.st484{fill:#EBF3FA;}
	.st485{fill:url(#SVGID_386_);}
	.st486{fill:url(#SVGID_387_);}
	.st487{fill:url(#SVGID_388_);}
	.st488{fill:url(#SVGID_389_);}
	.st489{fill:url(#SVGID_390_);}
	.st490{fill:url(#SVGID_391_);}
	.st491{fill:url(#SVGID_392_);}
	.st492{fill:url(#SVGID_393_);}
	.st493{fill:url(#SVGID_394_);}
	.st494{fill:url(#SVGID_395_);}
	.st495{fill:url(#SVGID_396_);}
	.st496{fill:url(#SVGID_397_);}
	.st497{fill:url(#SVGID_398_);}
	.st498{fill:url(#SVGID_399_);}
	.st499{fill:url(#SVGID_400_);}
	.st500{fill:url(#SVGID_401_);}
	.st501{fill:url(#SVGID_402_);}
	.st502{fill:url(#SVGID_403_);}
	.st503{fill:url(#SVGID_404_);}
	.st504{fill:url(#SVGID_405_);}
	.st505{fill:url(#SVGID_406_);}
	.st506{fill:url(#SVGID_407_);}
	.st507{fill:url(#SVGID_408_);}
	.st508{fill:url(#SVGID_409_);}
	.st509{fill:url(#SVGID_410_);}
	.st510{fill:url(#SVGID_411_);}
	.st511{fill:url(#SVGID_412_);}
	.st512{fill:url(#SVGID_413_);}
	.st513{fill:url(#SVGID_414_);}
	.st514{fill:url(#SVGID_415_);}
	.st515{fill:url(#SVGID_416_);}
	.st516{fill:url(#SVGID_417_);}
	.st517{fill:url(#SVGID_418_);}
	.st518{fill:url(#SVGID_419_);}
	.st519{fill:url(#SVGID_420_);}
	.st520{fill:url(#SVGID_421_);}
	.st521{fill:url(#SVGID_422_);}
	.st522{fill:url(#SVGID_423_);}
	.st523{fill:url(#SVGID_424_);}
	.st524{fill:url(#SVGID_425_);}
	.st525{fill:url(#SVGID_426_);}
	.st526{fill:url(#SVGID_427_);}
	.st527{fill:url(#SVGID_428_);}
	.st528{fill:url(#SVGID_429_);}
	.st529{fill:url(#SVGID_430_);}
	.st530{fill:url(#SVGID_431_);}
	.st531{fill:url(#SVGID_432_);}
	.st532{fill:url(#SVGID_433_);}
	.st533{fill:url(#SVGID_434_);}
	.st534{fill:url(#SVGID_435_);}
	.st535{fill:url(#SVGID_436_);}
	.st536{fill:url(#SVGID_437_);}
	.st537{fill:url(#SVGID_438_);}
	.st538{fill:#DCCEC3;}
	.st539{fill:#9D5224;}
	.st540{fill:#612E05;}
	.st541{fill:#804118;}
	.st542{fill:#562504;}
	.st543{fill:#723412;}
	.st544{fill:#E3CDBF;}
	.st545{fill:#240500;}
	.st546{fill:#391B00;}
	.st547{fill:#462500;}
	.st548{fill:#D3C8BF;}
	.st549{fill:#4F2200;}
</style>
<g>
	<path class="st539" d="M712.6,64.8c14.7-10,139.4,3.6,147.2,3.8c7.8,0.3,30-20.3,30.2-25.6c0.2-5.3-20.8-21.4-32.6-19.2
		c-11.8,2.2-43.2,3.7-82.2,1.1C430.2-22.7,0.4,30.5,0.4,30.5l11,9.7L646,182.4l71.5-111.7C709.7,70.3,706.4,69,712.6,64.8
		L712.6,64.8z"/>
	<path class="st540" d="M868.6,79.4c-36.7,5.3-80.8-1.5-106.7-6.4c-10.1-1.9-22.2-2-32.1-2.1c-4.7,0-8.9-0.1-12.3-0.2L646,182.4
		l150.7,33.8c3.4,0,7,0.1,11,0.5c26,2.2,66.4-117.8,75.7-124C885.2,84.8,877.8,86.5,868.6,79.4L868.6,79.4z"/>
	<path class="st540" d="M48.5,154.5c-2.9-0.1-5.6-0.1-8.3,0C51,154.9,60.2,154.9,48.5,154.5z"/>
	<path class="st540" d="M821.9,228.9c-20.8,1.9-52.9-8.4-52.9-8.4s9.5-4.4,28.1-4.4L15.9,40.4L0,30.6c0,0,6.2,110.2,10.3,113.4
		c7.7,6,8.2,7.7,15.9,9.3c3.1,0.6,11.1,1.1,18.3,1.4c2.7-0.1,5.4-0.1,8.3,0c11.7,0.4,2.6,0.4-8.3,0C29,155,17,157.9,13.6,161.2
		c-4,3.8,1.9,60.7,1.9,60.7s6.4,11.2,21.9,13.1c15.5,1.9,16.3,2.5,0.7,2c-15.6-0.5-15.7,4.7-15.9,8.6c-0.8,22.3,12.4,44.1,21.4,45.8
		c9,1.6,96.9-16.7,177.3-16.5c98.3,7.4,439.7-0.4,522.6,2.5c82.9,2.9,124.9-39,124.9-39l-10.4-8.3
		C858.1,230.2,842.7,227,821.9,228.9L821.9,228.9z"/>
	<path d="M120.1,249l2,0.1c0.2-5.1,4.4-9,9.4-8.9c5,0.2,9,4.4,8.8,9.5c-0.2,5.1-4.4,9-9.4,8.9c-5-0.2-9-4.4-8.8-9.5L120.1,249
		l-2-0.1c-0.3,7.3,5.4,13.3,12.6,13.6c7.2,0.3,13.2-5.4,13.5-12.7c0.3-7.2-5.4-13.3-12.6-13.6c-7.2-0.3-13.2,5.4-13.5,12.7
		L120.1,249L120.1,249z"/>
	<path class="st541" d="M68.1,289.3c9.7-0.7,19.4-0.6,29.1-1.1c27.9-1.5,55.9-2.2,83.8-3c17.5-0.5,35-0.7,52.5-0.7
		c98.8,7.4,442-0.3,525.3,2.6s104.8-13.4,104.8-13.4l5.2-36.6c0,0-10.4-0.4-31.3,1.5c-20.9,1.9-53.2-8.4-53.2-8.4s13.3-6.1,39.3-3.9
		c26,2.2,40.3,4,49.6-2.2c10.3-33.8,13.3-120.4,11.2-135c-36.7,5.3-80.8-1.5-106.7-6.4c-10.1-1.9-22.1-2-32.1-2.1
		c-15.5-0.1-26.1-0.1-17.1-6.2c14.7-10,139.4,3.6,147.2,3.8c7.8,0.3,14-27.1,14.2-32.4c0.2-5.2-4.7-14.6-16.5-12.4
		c-11.8,2.2-43.2,3.7-82.2,1.1C446.1-12.9,11.4,40.2,11.4,40.2s0.5,9.8,1.2,23.7c0.1,1.5,0.2,3.1,0.3,4.7c0.4,7.3,0.9,15.5,1.5,23.8
		c0.8,11.5,1.6,23.1,2.6,33.2c0.9,9.4,1.8,17.3,2.8,22.3c0.7,3.6,1.4,5.7,2.1,5.7c5.2,0.2,53.4,3.2,61.1,4.8
		c7.8,1.6,1.1,6.6-18.5,5.9c-19.5-0.7-35.3,2.7-39.3,6.5c-2.3,2.2-2.6,20.6-2.5,36.1c0.1,11.7,0.5,20.7,0.5,20.7s4.9,9,20.5,10.9
		c15.6,1.9,21.9,8.6,6.2,8.1c-15.6-0.5-15.2,1.2-17.1,4.7c-1.4,2.6-0.6,7-0.4,10.5c0,0,3.2,29.4,8.1,29.5
		C45.3,291.4,68.1,289.3,68.1,289.3L68.1,289.3z"/>
	<path class="st542" d="M34.2,236.9c0.4,0,1.4,0.1,2.8,0.2c-0.2,0-0.3-0.1-0.4-0.1c-0.2,0-0.5,0-0.7,0
		C35.2,236.9,34.6,236.9,34.2,236.9L34.2,236.9z"/>
	<path class="st543" d="M874.9,216.3c0,0-113.4-1.3-134.4,1.9c-19.7,3-256.3,12.3-321,10c-4.3-0.2-7.8-0.4-10.5-0.6
		c-13.3-1.3-34.5-2.3-58-3.2c-52.4-1.8-116.5-2.5-130.9-2.1c-20.1,0.6-157.5,15.2-183.7,14.6c0.1,0,0.3,0.1,0.4,0.1
		c4.8,0.4,14.9,1.2,28.3,1.7c22.2,0.8,53.6,0.7,85.3-3.1c42.3-5.1,92.7-8.6,139.3-7c18.3,0.6,36,2.1,52.5,4.5
		c5.3,0.8,13.1,1.3,23,1.7c98.5,3.4,400.2-13.1,429.8-12.1C827.7,223.9,874.9,216.3,874.9,216.3L874.9,216.3z"/>
	<path class="st542" d="M33.8,236.8L33.8,236.8c0.1,0,0.2,0,0.3,0C33.9,236.8,33.8,236.8,33.8,236.8L33.8,236.8z"/>
	<path class="st543" d="M33.9,272.5c0.1,0,0.2,0,0.2,0C34,272.5,33.9,272.5,33.9,272.5L33.9,272.5z M710.5,256.6
		c0,0-91.2-1.1-108.1,1.4c-15.8,2.4-206.2,9.6-258.3,7.8c-3.4-0.1-6.3-0.3-8.4-0.5c-10.7-1-27.8-1.9-46.7-2.5
		c-42.1-1.5-93.6-2.1-105.2-1.8c-16.3,0.4-128.7,12.2-148.3,11.5c-0.5,0-0.9,0-1.3-0.1c1.6,0.2,11.1,1,25,1.5
		c17.9,0.6,43.1,0.6,68.7-2.4c34-4,74.5-6.8,112.1-5.5c14.7,0.5,29,1.7,42.2,3.6c4.3,0.6,10.5,1.1,18.5,1.3
		c79.2,2.8,322-10.3,345.8-9.4C672.5,262.5,710.5,256.6,710.5,256.6L710.5,256.6z"/>
	<path class="st544" d="M884.4,136.4C884.4,136.4,884.3,136.4,884.4,136.4C884.3,136.4,884.3,136.4,884.4,136.4
		C884.4,136.4,884.5,136.4,884.4,136.4L884.4,136.4z"/>
	<path class="st543" d="M884.3,136.4c-3.4,0.1-73.6,9.5-97,11.1c-24.8,1.8-240.9,27.1-272.2,28.6c-31.3,1.5-232.6,14.2-260,14.6
		c-21.2,0.3-150.6,6.2-207.9,8.9c63.7-0.4,248.3-1.8,315.9-3.8c82.2-2.4,232.8-20.8,279.9-24.4c47.1-3.6,235.9-33.8,241.1-34.9
		C884.2,136.5,884.3,136.5,884.3,136.4C884.3,136.4,884.3,136.4,884.3,136.4L884.3,136.4z"/>
	<path class="st542" d="M22.5,200.3l-2.4,0.5c0,0,0.9,0,2.4-0.1C22.5,200.6,22.5,200.5,22.5,200.3L22.5,200.3z"/>
	<path class="st543" d="M47.3,199.6c-13.8,0.1-21.9,0.1-21.9,0.1l-2.8,0.6c0,0.1,0,0.3,0,0.4C26.6,200.5,35.4,200.1,47.3,199.6
		L47.3,199.6z"/>
	<path class="st543" d="M253.3,21.1c20.5,9.9,241.5,29.5,287.1,31.1c45.6,1.6,262,2.6,286.7,3.5c24.7,0.9,45.9-6.3,44.6-7.6
		c-4,3.8-230.7-1.5-329.7-3.7c-4.3-0.1-8.8-0.2-13.4-0.4C426.7,40.4,253.3,21.1,253.3,21.1L253.3,21.1z"/>
	<path class="st543" d="M884.5,89.2L884.5,89.2c0,0-7.9,2.3-14.5,4.7c0,0-208.2,26.9-261.7,26.3c-53.4-0.6-137.5,16.2-157.1,18.2
		c-1.3,0.1-1.7,0.2-1.4,0.2c4.7,0.2,160.7-10.4,194.7-9.2c35,1.2,222-16.4,240.6-23.5C885.2,98,885,92.1,884.5,89.2L884.5,89.2z"/>
	<path class="st542" d="M13.6,81c-0.7,0-1,0-1,0S12.9,81,13.6,81C13.6,81.1,13.6,81,13.6,81L13.6,81z"/>
	<path class="st543" d="M139.9,84.9c-56.9-2-117.7-3.6-126.3-3.8c0,0,0,0,0,0c15.3,1.1,194.9,13.4,213.6,14
		c19.5,0.7,204.3,11.1,204.3,11.1s-116,36.7-135.8,42.6c-19.8,5.9-158.5,22.1-176.9,24c-18.3,2-95.8,19-95.8,19s64.1-5.6,102.1-10.9
		c38-5.2,117.5-5.1,183.5-27.7c66-22.7,154.2-48.5,154.2-48.5s-184.7-13-243.2-16.4C200.1,87.1,170.6,85.9,139.9,84.9L139.9,84.9z"
		/>
	<path class="st543" d="M101.7,153c-12.8,3-18.8,5.4-18.8,5.4S90.4,156.2,101.7,153L101.7,153z M19.3,112.8
		C19.3,112.8,19.3,112.8,19.3,112.8c0,0,83,10.8,110.4,11.8c27.3,1,97.7,3.4,75.5,3.9c-16.1,0.4-73.4,16-103.5,24.5
		c5.3-1.2,11.7-2.5,19.3-3.8c26.2-4.3,167.7-24.3,136.5-26.8C226.5,120,21.8,112.9,19.3,112.8L19.3,112.8z"/>
	<path class="st545" d="M110,44.7c0.2-6.3,5.6-11.3,12.1-11.1c6.5,0.2,11.5,5.6,11.3,11.9c-0.2,6.3-5.6,11.3-12.1,11.1
		C114.8,56.3,109.8,51,110,44.7z"/>
	<path class="st546" d="M112,44.4c0.2-6.3,5.7-11.3,12.1-11.1c6.5,0.2,11.5,5.5,11.3,11.9c-0.2,6.3-5.6,11.3-12.1,11.1
		C116.8,56.1,111.7,50.7,112,44.4z"/>
	<path class="st547" d="M114,44.5c0.2-5.3,4.7-9.4,10-9.2c5.4,0.2,9.6,4.6,9.4,9.9c-0.2,5.3-4.7,9.4-10,9.2
		C118,54.1,113.8,49.7,114,44.5z"/>
	<path class="st545" d="M757.2,48.9c0.2-6.3,5.6-11.3,12.1-11.1c6.5,0.2,11.5,5.6,11.3,11.9c-0.2,6.3-5.6,11.3-12.1,11.1
		C762,60.6,757,55.3,757.2,48.9z"/>
	<path class="st546" d="M759.2,48.7c0.2-6.3,5.7-11.3,12.1-11.1c6.5,0.2,11.5,5.6,11.3,11.9c-0.2,6.3-5.7,11.3-12.1,11.1
		C764,60.3,758.9,55,759.2,48.7z"/>
	<path class="st547" d="M761.2,48.7c0.2-5.3,4.7-9.4,10-9.2c5.4,0.2,9.6,4.6,9.4,9.9s-4.7,9.4-10,9.2C765.2,58.4,761,54,761.2,48.7z
		"/>
	<path class="st545" d="M753,263c0.2-6.3,5.6-11.3,12.1-11.1c6.5,0.2,11.5,5.6,11.3,11.9c-0.2,6.3-5.6,11.3-12.1,11.1
		C757.8,274.7,752.7,269.3,753,263z"/>
	<path class="st546" d="M754.9,262.7c0.2-6.3,5.6-11.3,12.1-11.1c6.5,0.2,11.5,5.5,11.3,11.9c-0.2,6.3-5.6,11.3-12.1,11.1
		C759.8,274.4,754.7,269.1,754.9,262.7z"/>
	<path class="st547" d="M756.9,262.8c0.2-5.3,4.7-9.4,10.1-9.2c5.4,0.2,9.6,4.6,9.4,9.9c-0.2,5.2-4.7,9.4-10,9.2
		C760.9,272.5,756.7,268,756.9,262.8z"/>
	<path class="st545" d="M116.6,264.4c0.2-6.3,5.7-11.3,12.1-11.1c6.5,0.2,11.5,5.6,11.3,11.9c-0.2,6.3-5.6,11.3-12.1,11.1
		C121.5,276,116.4,270.7,116.6,264.4z"/>
	<path class="st546" d="M118.6,264.1c0.2-6.3,5.6-11.3,12.1-11.1c6.5,0.2,11.5,5.6,11.3,11.9c-0.2,6.3-5.6,11.3-12.1,11.1
		C123.4,275.8,118.4,270.4,118.6,264.1z"/>
	<path class="st547" d="M120.6,264.2c0.2-5.3,4.7-9.4,10-9.2c5.4,0.2,9.6,4.6,9.4,9.9c-0.2,5.2-4.7,9.4-10,9.2
		C124.6,273.8,120.4,269.4,120.6,264.2z"/>
	<path class="st548" d="M102.4,289.2L102.4,289.2L102.4,289.2C102.4,289.2,102.4,289.2,102.4,289.2L102.4,289.2z"/>
	<path class="st549" d="M796.1,73.3l-0.2,5.9c0,0-46.6-8.5-49.6-6.7C751.2,71.7,784.4,72.9,796.1,73.3z"/>
</g>
</svg>
