<?xml version="1.0" encoding="utf-8"?>
<!-- Generator: Adobe Illustrator 22.0.0, SVG Export Plug-In . SVG Version: 6.00 Build 0)  -->
<svg version="1.1" xmlns="http://www.w3.org/2000/svg" xmlns:xlink="http://www.w3.org/1999/xlink" x="0px" y="0px"
	 viewBox="0 0 374.1 402.8" style="enable-background:new 0 0 374.1 402.8;" xml:space="preserve">
<style type="text/css">
	.st0{fill:#FFFFFF;}
	.st1{opacity:0.3;}
	.st2{fill:#39B2BE;}
	.st3{fill:#D36E6E;}
	.st4{fill:none;stroke:#B0EF4D;stroke-width:2.5;stroke-linecap:round;stroke-linejoin:round;}
	.st5{fill:#99C503;}
	.st6{fill:none;stroke:#007D25;stroke-width:3.1395;stroke-linecap:round;stroke-linejoin:round;}
	.st7{fill:#5B00DA;}
	.st8{fill:none;stroke:#FFFFFF;stroke-width:2.9;stroke-miterlimit:10;}
	.st9{fill-rule:evenodd;clip-rule:evenodd;fill:#FFFFFF;}
	.st10{fill:none;stroke:#99C503;stroke-width:2.9936;stroke-linecap:round;stroke-linejoin:round;}
	.st11{fill:#C6433E;}
	.st12{fill:#E20613;}
	.st13{fill:#FCD570;}
	.st14{fill:#FCCD56;}
	.st15{fill:#F5BB41;}
	.st16{fill:#FDE19A;}
	.st17{fill:#FCD879;}
	.st18{fill:#FCD05E;}
	.st19{fill:#F6C55B;}
	.st20{fill:#F7B056;}
	.st21{fill:#F59B45;}
	.st22{fill-rule:evenodd;clip-rule:evenodd;fill:#FFC700;}
	.st23{opacity:0.39;}
	.st24{fill:none;stroke:#FFFFFF;stroke-width:2;stroke-linecap:round;stroke-linejoin:round;}
	.st25{fill:none;stroke:#FFFFFF;stroke-width:2.9784;stroke-linecap:round;stroke-linejoin:round;}
	.st26{fill:none;stroke:#FFFFFF;stroke-width:1.9752;stroke-linecap:round;stroke-linejoin:round;}
	.st27{fill:none;stroke:#FFFFFF;stroke-width:1.843;stroke-linecap:round;stroke-linejoin:round;}
	.st28{fill:none;stroke:#99C503;stroke-width:3.1578;stroke-linecap:round;stroke-linejoin:round;}
	.st29{fill:#FBB040;}
	.st30{fill:#ED5739;}
	.st31{fill:#ED1C24;}
	.st32{fill:#8F1116;}
	.st33{fill:#684791;}
	.st34{fill:#ADF1FF;}
	.st35{fill:#981108;}
	.st36{fill:#BF0F11;}
	.st37{fill:#E73F3A;}
	.st38{fill:#B1100E;}
	.st39{fill:#E20A17;}
	.st40{fill:#A8110C;}
	.st41{fill:#3A9B51;}
	.st42{fill:#58B46D;}
	.st43{fill-rule:evenodd;clip-rule:evenodd;fill:#220501;}
	.st44{fill-rule:evenodd;clip-rule:evenodd;fill:#F6B400;}
	.st45{fill-rule:evenodd;clip-rule:evenodd;fill:#EC7E00;}
	.st46{fill-rule:evenodd;clip-rule:evenodd;fill:#E61F11;}
	.st47{fill-rule:evenodd;clip-rule:evenodd;fill:#77305F;}
	.st48{fill-rule:evenodd;clip-rule:evenodd;fill:#00AE8A;}
	.st49{fill-rule:evenodd;clip-rule:evenodd;fill:#5D1913;}
	.st50{fill:none;stroke:#FFFFFF;stroke-width:0.9928;stroke-linecap:round;stroke-linejoin:round;}
	.st51{fill:none;stroke:#FFFFFF;stroke-width:0.9004;stroke-linecap:round;stroke-linejoin:round;}
	.st52{fill:none;stroke:#FFFFFF;stroke-width:0.3471;stroke-linecap:round;stroke-linejoin:round;}
	.st53{fill:none;stroke:#FFFFFF;stroke-width:0.4341;stroke-linecap:round;stroke-linejoin:round;}
	.st54{opacity:0.24;}
	.st55{fill:#FDFDFD;}
	.st56{fill:#FCD212;}
	.st57{fill-rule:evenodd;clip-rule:evenodd;fill:#FF989D;}
	.st58{fill-rule:evenodd;clip-rule:evenodd;fill:#87432A;}
	.st59{fill-rule:evenodd;clip-rule:evenodd;fill:#E9521A;}
	.st60{fill-rule:evenodd;clip-rule:evenodd;fill:#7F252C;}
	.st61{fill-rule:evenodd;clip-rule:evenodd;fill:#2B2626;}
	.st62{fill-rule:evenodd;clip-rule:evenodd;fill:#696969;}
	.st63{fill-rule:evenodd;clip-rule:evenodd;fill:#8C8C8B;}
	.st64{fill-rule:evenodd;clip-rule:evenodd;fill:#3D4D70;}
	.st65{fill:#6400DA;}
	.st66{fill:#FF6500;}
	.st67{fill:#F4EBC6;}
	.st68{fill:#B9B295;}
	.st69{fill:#0E0E0E;}
	.st70{fill:#000922;}
	.st71{fill:#FFFFC7;}
	.st72{fill:#8BBFCB;}
	.st73{fill:#B3D5DD;}
	.st74{fill:#00AEEF;}
	.st75{fill:#008FEF;}
	.st76{fill:#4E82B0;}
	.st77{fill:#5A93B5;}
	.st78{fill:none;stroke:#003142;stroke-width:2.0634;stroke-miterlimit:10;}
	.st79{fill:#252D42;}
	.st80{fill:#00090C;}
	.st81{fill:#79B2FF;}
	.st82{fill:#9BC6FF;}
	.st83{fill:#FFCB7C;}
	.st84{fill:#F6838D;}
	.st85{fill:#4799CF;}
	.st86{fill:#D9D9D9;}
	.st87{fill:#AAE5C8;}
	.st88{fill:#85BC94;}
	.st89{fill:#EA9D2D;}
	.st90{fill:#EBEBEB;}
	.st91{fill:#5ABCF3;}
	.st92{fill:#E06661;}
	.st93{fill:#CDCDCD;}
	.st94{fill:#FBB540;}
	.st95{fill:#FDC9A6;}
	.st96{fill:#475D6D;}
	.st97{fill:#2C3F4F;}
	.st98{fill:#F9DC6A;}
	.st99{fill:#E5AC51;}
	.st100{fill:#2BB4F3;}
	.st101{fill:#1687C4;}
	.st102{fill:#F2A077;}
	.st103{fill:#FFCCAA;}
	.st104{fill:#FF5A59;}
	.st105{fill:#CE3A4C;}
	.st106{fill:#FFC800;}
	.st107{fill:#009EE2;}
	.st108{fill:#FFD600;}
	.st109{fill:#005693;}
	.st110{fill:#34A836;}
	.st111{fill-rule:evenodd;clip-rule:evenodd;fill:none;}
	.st112{fill-rule:evenodd;clip-rule:evenodd;fill:#D6C1BE;}
	.st113{fill-rule:evenodd;clip-rule:evenodd;fill:#EAE2E0;}
	.st114{fill-rule:evenodd;clip-rule:evenodd;fill:#66C0B0;}
	.st115{fill-rule:evenodd;clip-rule:evenodd;fill:#56B09E;}
	.st116{fill:none;}
	.st117{fill:#011826;}
	.st118{opacity:0.4;}
	.st119{fill:#00294F;}
	.st120{fill:#884D30;}
	.st121{fill:#3F0D0B;}
	.st122{fill:#A86C0E;}
	.st123{fill:#F09915;}
	.st124{opacity:0.4;fill:#FFFFFF;}
	.st125{fill:#DCDDEE;}
	.st126{fill:#A5A3A9;}
	.st127{fill:#DCCEC3;}
	.st128{fill:#9D5224;}
	.st129{fill:#612E05;}
	.st130{fill:#804118;}
	.st131{fill:#562504;}
	.st132{fill:#723412;}
	.st133{fill:#E3CDBF;}
	.st134{fill:#240500;}
	.st135{fill:#391B00;}
	.st136{fill:#462500;}
	.st137{fill:#D3C8BF;}
	.st138{fill:#4F2200;}
	.st139{fill:none;stroke:#FFFFFF;stroke-width:0.8075;stroke-linecap:round;stroke-linejoin:round;}
	.st140{opacity:0.1;fill:#00C1A8;}
	.st141{fill:#FA6B08;}
	.st142{fill:#FF9138;}
	.st143{fill:#123025;}
	.st144{fill:none;stroke:#001609;stroke-width:3;stroke-miterlimit:10;}
	.st145{fill:#32453F;}
	.st146{opacity:0.1;clip-path:url(#SVGID_2_);}
	.st147{fill:#A1B6AD;}
	.st148{fill:#CE5606;}
	.st149{fill:#FDFDD6;}
	.st150{fill:#FDFDDA;}
	.st151{fill:none;stroke:#FDFDD6;stroke-miterlimit:10;}
	.st152{fill:#FF9D4E;}
	.st153{fill:#FFD161;}
	.st154{fill:#FFCC41;}
	.st155{fill:#FFAC00;}
	.st156{fill:#00C1A8;}
	.st157{fill:#001609;}
	.st158{fill:none;stroke:#FFFFFF;stroke-width:3;stroke-linecap:round;stroke-linejoin:round;}
	.st159{fill:#009CDD;}
	.st160{clip-path:url(#SVGID_6_);}
	.st161{fill:url(#SVGID_7_);}
	.st162{fill:url(#SVGID_8_);}
	.st163{fill:url(#SVGID_9_);}
	.st164{fill:url(#SVGID_10_);}
	.st165{fill:url(#SVGID_11_);}
	.st166{fill:url(#SVGID_12_);}
	.st167{fill:url(#SVGID_13_);}
	.st168{fill:url(#SVGID_14_);}
	.st169{fill:url(#SVGID_15_);}
	.st170{fill:url(#SVGID_16_);}
	.st171{fill:url(#SVGID_17_);}
	.st172{fill:url(#SVGID_18_);}
	.st173{fill:url(#SVGID_19_);}
	.st174{fill:url(#SVGID_20_);}
	.st175{fill:url(#SVGID_21_);}
	.st176{fill:url(#SVGID_22_);}
	.st177{fill:url(#SVGID_23_);}
	.st178{fill:#EBF3FA;}
	.st179{clip-path:url(#SVGID_6_);fill:url(#SVGID_24_);}
	.st180{fill:url(#SVGID_25_);}
	.st181{fill:url(#SVGID_26_);}
	.st182{fill:url(#SVGID_29_);}
	.st183{fill:url(#SVGID_30_);}
	.st184{clip-path:url(#SVGID_32_);}
	.st185{clip-path:url(#SVGID_36_);}
	.st186{fill:#418421;}
	.st187{fill:#2D660E;}
	.st188{fill:#84D84E;}
	.st189{opacity:0.4;fill:#2D660E;}
	.st190{fill:#EDC174;}
	.st191{fill:#D8A34E;}
	.st192{fill:#C18733;}
	.st193{opacity:0.4;fill:#1B3D04;}
	.st194{fill:#6AC634;}
	.st195{fill:#245109;}
	.st196{fill:#D6854D;}
	.st197{fill:#BC6428;}
	.st198{fill:#492004;}
	.st199{fill:#66BC2E;}
	.st200{clip-path:url(#SVGID_36_);fill:#009CDD;}
	.st201{fill:#D8BF4C;}
	.st202{fill:#4BDDFD;}
	.st203{opacity:0.6;fill:#13BDE5;}
	.st204{opacity:0.5;fill:#FFEAC1;}
	.st205{opacity:0.7;fill:#FFEAC1;}
	.st206{fill:#FAFFDE;}
	.st207{opacity:0.2;}
	.st208{fill:#BF9D62;}
	.st209{clip-path:url(#SVGID_40_);}
	.st210{clip-path:url(#SVGID_44_);fill:none;}
	.st211{clip-path:url(#SVGID_48_);fill:url(#SVGID_49_);}
	.st212{clip-path:url(#SVGID_48_);fill:url(#SVGID_50_);}
	.st213{clip-path:url(#SVGID_48_);fill:#009CDD;}
	.st214{clip-path:url(#SVGID_48_);}
	.st215{fill:url(#SVGID_51_);}
	.st216{fill:url(#SVGID_52_);}
	.st217{fill:url(#SVGID_53_);}
	.st218{fill:url(#SVGID_54_);}
	.st219{fill:url(#SVGID_55_);}
	.st220{fill:url(#SVGID_56_);}
	.st221{fill:url(#SVGID_57_);}
	.st222{fill:url(#SVGID_58_);}
	.st223{fill:url(#SVGID_59_);}
	.st224{fill:url(#SVGID_60_);}
	.st225{fill:url(#SVGID_61_);}
	.st226{fill:url(#SVGID_62_);}
	.st227{fill:url(#SVGID_63_);}
	.st228{fill:url(#SVGID_64_);}
	.st229{fill:url(#SVGID_65_);}
	.st230{fill:url(#SVGID_66_);}
	.st231{fill:url(#SVGID_67_);}
	.st232{fill:url(#SVGID_68_);}
	.st233{fill:url(#SVGID_69_);}
	.st234{fill:url(#SVGID_70_);}
	.st235{fill:url(#SVGID_71_);}
	.st236{fill:url(#SVGID_72_);}
	.st237{fill:url(#SVGID_73_);}
	.st238{fill:url(#SVGID_74_);}
	.st239{fill:url(#SVGID_75_);}
	.st240{fill:url(#SVGID_76_);}
	.st241{fill:url(#SVGID_77_);}
	.st242{fill:url(#SVGID_78_);}
	.st243{fill:url(#SVGID_79_);}
	.st244{fill:url(#SVGID_80_);}
	.st245{fill:url(#SVGID_81_);}
	.st246{fill:url(#SVGID_82_);}
	.st247{fill:url(#SVGID_83_);}
	.st248{fill:url(#SVGID_84_);}
	.st249{fill:url(#SVGID_85_);}
	.st250{fill:url(#SVGID_86_);}
	.st251{fill:url(#SVGID_87_);}
	.st252{fill:url(#SVGID_88_);}
	.st253{fill:url(#SVGID_89_);}
	.st254{fill:url(#SVGID_90_);}
	.st255{fill:url(#SVGID_91_);}
	.st256{fill:#3B3637;}
	.st257{fill:none;stroke:#3B3637;stroke-width:3;stroke-miterlimit:10;}
	.st258{fill:url(#SVGID_92_);}
	.st259{fill:url(#SVGID_93_);}
	.st260{fill:url(#SVGID_96_);}
	.st261{fill:#4171B1;}
	.st262{fill:#EF7641;}
	.st263{fill:#FDC543;}
	.st264{opacity:0.4;fill:#EF7641;}
	.st265{fill:#D9DAEF;}
	.st266{opacity:0.47;fill:#7B769A;}
	.st267{fill:#E83C70;}
	.st268{opacity:0.38;fill:#D9DAEF;}
	.st269{opacity:0.47;fill:#A29FB8;}
	.st270{fill:#78CED3;}
	.st271{fill:#ACE1E4;}
	.st272{fill:#E6E7F4;}
	.st273{fill:#F8C6AF;}
	.st274{fill:#FEE7B0;}
	.st275{fill:#25578E;}
	.st276{fill:none;stroke:#1F1E21;stroke-width:0.8075;stroke-linecap:round;stroke-linejoin:round;}
	.st277{fill:none;stroke:#FF7F0A;stroke-width:3.1395;stroke-linecap:round;stroke-linejoin:round;}
	.st278{fill:none;stroke:#FF590A;stroke-width:2.8549;stroke-linecap:round;stroke-linejoin:round;}
	.st279{fill:none;stroke:#FF7F0A;stroke-width:3.7113;stroke-miterlimit:10;}
	.st280{fill:none;stroke:#FF590A;stroke-width:3.5845;stroke-miterlimit:10;}
	.st281{fill:#FF590A;}
	.st282{fill:#FFE300;}
	.st283{fill:#5BCBEA;}
	.st284{fill:#1A1B25;}
	.st285{fill:#03ADF8;}
	.st286{opacity:0.85;fill:#917F86;}
	.st287{opacity:0.55;fill:#E0DBDD;}
	.st288{fill:#FF0029;}
	.st289{opacity:0.55;fill:#E0DBAC;}
	.st290{fill:#21222C;}
	.st291{fill:#C2C2C5;}
	.st292{fill:#FF1867;}
	.st293{fill:#DCDDEE;stroke:#3F0D0B;stroke-width:1.1154;stroke-linecap:round;stroke-linejoin:round;stroke-miterlimit:10;}
	.st294{fill:#86C8CD;}
	.st295{fill:#5B7976;}
	.st296{fill:#86C8CD;stroke:#3F0D0B;stroke-width:1.1154;stroke-linecap:round;stroke-linejoin:round;stroke-miterlimit:10;}
	.st297{fill:#1F1E21;}
	.st298{fill:#F7E939;}
	.st299{opacity:0.1;clip-path:url(#SVGID_98_);}
	.st300{fill:url(#SVGID_99_);}
	.st301{fill:none;stroke:#FDC543;stroke-linecap:round;stroke-linejoin:round;}
	.st302{fill:#0055B8;}
	.st303{fill:#FF7E00;}
	.st304{fill:#72D8F0;}
	.st305{fill:#069C3E;}
	.st306{fill:#FEC300;}
	.st307{fill:#0073C0;}
	.st308{fill:#9184BB;}
	.st309{fill:#E3DF00;}
	.st310{fill:#FF2480;}
	.st311{fill:#414D56;}
	.st312{fill:#989CB7;}
	.st313{fill:none;stroke:#383838;stroke-linecap:round;stroke-linejoin:round;}
	.st314{fill:#383838;}
	.st315{fill:#4E4E4E;}
	.st316{fill:#F2BD00;}
	.st317{fill:#75BFD8;}
	.st318{opacity:0.24;clip-path:url(#SVGID_103_);}
	.st319{fill:#FFFFFF;stroke:#FFFFFF;stroke-miterlimit:10;}
	.st320{fill:#FFFFFF;stroke:#FFFFFF;stroke-width:2.9;stroke-miterlimit:10;}
	.st321{fill-rule:evenodd;clip-rule:evenodd;fill:#FFFFFF;stroke:#FFFFFF;stroke-miterlimit:10;}
	.st322{fill:none;stroke:#FFFFFF;stroke-width:3.5508;stroke-linecap:round;stroke-linejoin:round;}
	.st323{fill:none;stroke:#FFFFFF;stroke-width:3.7456;stroke-linecap:round;stroke-linejoin:round;}
	.st324{fill:none;stroke:#003142;stroke-width:2.4444;stroke-miterlimit:10;}
	.st325{clip-path:url(#SVGID_105_);}
	.st326{fill:#488AB7;}
	.st327{fill:#F29949;}
	.st328{fill:#F94600;}
	.st329{fill:#2D202A;}
	.st330{fill:#053451;}
	.st331{fill:#7F3F14;}
	.st332{fill:#D88139;}
	.st333{fill:#A85822;}
	.st334{fill:#2E1F22;}
	.st335{fill:#E28940;}
	.st336{clip-path:url(#SVGID_107_);fill:#B0EEE8;}
	.st337{clip-path:url(#SVGID_107_);}
	.st338{fill:#CEAE97;}
	.st339{fill:#B79780;}
	.st340{fill:#AF4C4A;}
	.st341{fill:#C16363;}
	.st342{fill:#8090AA;}
	.st343{fill:#4E4F56;}
	.st344{fill:#CBCBD1;}
	.st345{fill:#FCFCFC;}
	.st346{fill:#DEDEE0;}
	.st347{fill:#F0F0F2;}
	.st348{fill:#D8645B;}
	.st349{fill:#BDBDBD;}
	.st350{fill:#E57873;}
	.st351{fill:#D19A75;}
	.st352{fill:#BC845E;}
	.st353{fill:#DB9E75;}
	.st354{clip-path:url(#SVGID_109_);fill:#B0EEE8;}
	.st355{clip-path:url(#SVGID_109_);}
	.st356{fill:#F99F55;}
	.st357{fill:#EF8637;}
	.st358{fill:#FCAC70;}
	.st359{fill:#C6CADB;}
	.st360{opacity:0.6;fill:#F0F0F2;}
	.st361{fill:#B4B9D3;}
	.st362{fill:#7B809B;}
	.st363{fill:#B2B7CE;}
	.st364{fill:#5F6B89;}
	.st365{clip-path:url(#SVGID_111_);fill:#4E5B75;}
	.st366{fill:#AF4B48;}
	.st367{clip-path:url(#SVGID_113_);}
	.st368{fill:#8ED1DB;}
	.st369{fill:#FCEF50;}
	.st370{fill:none;stroke:#3F3B3C;stroke-width:0.5;stroke-miterlimit:10;}
	.st371{fill:#F28B0F;}
	.st372{fill:#F4AC0E;}
	.st373{fill:#E86B62;}
	.st374{fill:#5B462F;}
	.st375{fill:#CE493E;}
	.st376{clip-path:url(#SVGID_115_);}
	.st377{fill:#2296BA;}
	.st378{fill:#BADB45;}
	.st379{fill:#69A8D9;}
	.st380{fill:none;stroke:#89C7DA;stroke-miterlimit:10;}
	.st381{fill:none;stroke:#69A8D9;stroke-width:0.9004;stroke-linecap:round;stroke-linejoin:round;}
	.st382{fill:none;stroke:#E73F3A;stroke-width:3;stroke-linecap:round;stroke-linejoin:round;}
	.st383{opacity:0.8;clip-path:url(#SVGID_117_);fill:#009CDD;}
	.st384{opacity:0.8;clip-path:url(#SVGID_117_);}
	.st385{fill:url(#SVGID_118_);}
	.st386{fill:url(#SVGID_119_);}
	.st387{fill:url(#SVGID_120_);}
	.st388{fill:url(#SVGID_121_);}
	.st389{fill:url(#SVGID_122_);}
	.st390{fill:url(#SVGID_123_);}
	.st391{fill:url(#SVGID_124_);}
	.st392{fill:url(#SVGID_125_);}
	.st393{fill:url(#SVGID_126_);}
	.st394{fill:url(#SVGID_127_);}
	.st395{fill:url(#SVGID_128_);}
	.st396{fill:url(#SVGID_129_);}
	.st397{fill:url(#SVGID_130_);}
	.st398{fill:url(#SVGID_131_);}
	.st399{fill:url(#SVGID_132_);}
	.st400{fill:url(#SVGID_133_);}
	.st401{fill:url(#SVGID_134_);}
	.st402{fill:url(#SVGID_135_);}
	.st403{fill:url(#SVGID_136_);}
	.st404{fill:url(#SVGID_137_);}
	.st405{fill:url(#SVGID_138_);}
	.st406{fill:url(#SVGID_139_);}
	.st407{fill:url(#SVGID_140_);}
	.st408{fill:url(#SVGID_141_);}
	.st409{fill:url(#SVGID_142_);}
	.st410{fill:none;stroke:#FFFFFF;stroke-width:0.6484;stroke-miterlimit:10;}
	.st411{fill:url(#SVGID_143_);}
	.st412{fill:url(#SVGID_144_);}
	.st413{fill:url(#SVGID_145_);}
	.st414{fill:url(#SVGID_146_);}
	.st415{fill:url(#SVGID_147_);}
	.st416{fill:url(#SVGID_148_);}
	.st417{fill:url(#SVGID_149_);}
	.st418{fill:url(#SVGID_151_);}
	.st419{fill:url(#SVGID_152_);}
	.st420{fill:url(#SVGID_153_);}
	.st421{fill:url(#SVGID_154_);}
	.st422{fill:url(#SVGID_155_);}
	.st423{fill:url(#SVGID_156_);}
	.st424{fill:url(#SVGID_157_);}
	.st425{fill:url(#SVGID_158_);}
	.st426{fill:url(#SVGID_159_);}
	.st427{fill:url(#SVGID_160_);}
	.st428{fill:url(#SVGID_161_);}
	.st429{fill:url(#SVGID_163_);}
	.st430{fill:url(#SVGID_165_);}
	.st431{fill:url(#SVGID_167_);}
	.st432{opacity:0.24;clip-path:url(#SVGID_173_);}
	.st433{fill:#FF902C;}
	.st434{fill:none;stroke:#FF902C;stroke-width:3.5508;stroke-linecap:round;stroke-linejoin:round;}
	.st435{fill:none;stroke:#FF902C;stroke-width:3.7456;stroke-linecap:round;stroke-linejoin:round;}
	.st436{opacity:0.5;fill:#FFFFFF;}
	.st437{fill:#798746;}
	.st438{fill:#704A30;}
	.st439{fill:#A7BC77;}
	.st440{clip-path:url(#SVGID_175_);fill:#4E5B75;}
	.st441{fill:#BDD381;}
	.st442{opacity:0.24;clip-path:url(#SVGID_179_);}
	.st443{fill:#A9D146;}
	.st444{fill:none;stroke:#99C503;stroke-width:3.5508;stroke-linecap:round;stroke-linejoin:round;}
	.st445{fill:none;stroke:#99C503;stroke-width:3.7456;stroke-linecap:round;stroke-linejoin:round;}
	.st446{fill:#9AE9F4;}
	.st447{fill:none;stroke:#9AE9F4;stroke-width:3.5508;stroke-linecap:round;stroke-linejoin:round;}
	.st448{fill:none;stroke:#9AE9F4;stroke-width:3.7456;stroke-linecap:round;stroke-linejoin:round;}
	.st449{opacity:0.89;}
	.st450{opacity:0.44;fill:url(#SVGID_180_);}
	.st451{opacity:0.19;fill:url(#SVGID_181_);}
	.st452{fill:#80DFE5;}
	.st453{opacity:0.47;fill:#00B1CB;}
	.st454{fill:#1B87A1;}
	.st455{fill:#1D788B;}
	.st456{fill:#185C69;}
	.st457{fill:#0C525E;}
	.st458{opacity:0.24;clip-path:url(#SVGID_183_);}
	.st459{fill:none;stroke:#F2BD00;stroke-width:3.5508;stroke-linecap:round;stroke-linejoin:round;}
	.st460{fill:none;stroke:#F2BD00;stroke-width:3.7456;stroke-linecap:round;stroke-linejoin:round;}
	.st461{clip-path:url(#SVGID_184_);}
	.st462{clip-path:url(#SVGID_186_);}
	.st463{clip-path:url(#SVGID_186_);fill:#009CDD;}
	.st464{clip-path:url(#SVGID_188_);}
	.st465{clip-path:url(#SVGID_191_);fill:none;}
	.st466{clip-path:url(#SVGID_193_);fill:url(#SVGID_194_);}
	.st467{clip-path:url(#SVGID_193_);fill:url(#SVGID_195_);}
	.st468{clip-path:url(#SVGID_193_);fill:#009CDD;}
	.st469{clip-path:url(#SVGID_193_);}
	.st470{fill:url(#SVGID_196_);}
	.st471{fill:url(#SVGID_197_);}
	.st472{fill:url(#SVGID_198_);}
	.st473{fill:url(#SVGID_199_);}
	.st474{fill:url(#SVGID_200_);}
	.st475{fill:url(#SVGID_201_);}
	.st476{fill:url(#SVGID_202_);}
	.st477{fill:url(#SVGID_203_);}
	.st478{fill:url(#SVGID_204_);}
	.st479{fill:url(#SVGID_205_);}
	.st480{fill:url(#SVGID_206_);}
	.st481{fill:url(#SVGID_207_);}
	.st482{fill:url(#SVGID_208_);}
	.st483{fill:url(#SVGID_209_);}
	.st484{fill:url(#SVGID_210_);}
	.st485{fill:url(#SVGID_211_);}
	.st486{fill:url(#SVGID_212_);}
	.st487{fill:url(#SVGID_213_);}
	.st488{fill:url(#SVGID_214_);}
	.st489{fill:url(#SVGID_215_);}
	.st490{fill:url(#SVGID_216_);}
	.st491{fill:url(#SVGID_217_);}
	.st492{fill:url(#SVGID_218_);}
	.st493{fill:url(#SVGID_219_);}
	.st494{fill:url(#SVGID_220_);}
	.st495{fill:url(#SVGID_221_);}
	.st496{fill:url(#SVGID_222_);}
	.st497{fill:url(#SVGID_223_);}
	.st498{fill:url(#SVGID_224_);}
	.st499{fill:url(#SVGID_226_);}
	.st500{fill:url(#SVGID_228_);}
	.st501{fill:url(#SVGID_230_);}
	.st502{fill:url(#SVGID_231_);}
	.st503{fill:url(#SVGID_232_);}
	.st504{fill:url(#SVGID_233_);}
	.st505{fill:url(#SVGID_234_);}
	.st506{fill:url(#SVGID_235_);}
	.st507{fill:url(#SVGID_236_);}
	.st508{fill:url(#SVGID_237_);}
	.st509{fill:url(#SVGID_238_);}
	.st510{fill:url(#SVGID_239_);}
	.st511{fill:url(#SVGID_240_);}
	.st512{fill:url(#SVGID_241_);}
	.st513{clip-path:url(#SVGID_244_);}
	.st514{fill:url(#SVGID_245_);}
	.st515{fill:url(#SVGID_246_);}
	.st516{fill:url(#SVGID_247_);}
	.st517{fill:url(#SVGID_248_);}
	.st518{fill:url(#SVGID_249_);}
	.st519{fill:url(#SVGID_250_);}
	.st520{fill:url(#SVGID_252_);}
	.st521{fill:url(#SVGID_253_);}
	.st522{fill:url(#SVGID_254_);}
	.st523{fill:url(#SVGID_255_);}
	.st524{fill:url(#SVGID_256_);}
	.st525{fill:url(#SVGID_257_);}
	.st526{fill:url(#SVGID_258_);}
	.st527{fill:url(#SVGID_259_);}
	.st528{fill:url(#SVGID_260_);}
	.st529{fill:url(#SVGID_261_);}
	.st530{fill:url(#SVGID_262_);}
	.st531{clip-path:url(#SVGID_244_);fill:url(#SVGID_263_);}
	.st532{fill:url(#SVGID_264_);}
	.st533{fill:url(#SVGID_265_);}
	.st534{fill:url(#SVGID_267_);}
	.st535{fill:url(#SVGID_268_);}
	.st536{opacity:0.24;clip-path:url(#SVGID_270_);}
	.st537{clip-path:url(#SVGID_272_);}
	.st538{fill:none;stroke:#FFFFFF;stroke-width:1.3311;stroke-linecap:round;stroke-linejoin:round;}
	.st539{clip-path:url(#SVGID_272_);fill:#D8B20F;}
	.st540{clip-path:url(#SVGID_272_);fill:#2D202A;}
	.st541{fill:#E57E66;}
	.st542{fill:#F9B818;}
	.st543{fill:#FCD786;}
	.st544{fill:#6EAF9F;}
	.st545{fill:#E74C4E;}
	.st546{fill:#58897E;}
	.st547{fill-rule:evenodd;clip-rule:evenodd;fill:#2D7441;}
	.st548{fill-rule:evenodd;clip-rule:evenodd;fill:#51AE4F;}
	.st549{fill:#333333;}
	.st550{fill:none;stroke:#FFFFFF;stroke-width:1.3396;stroke-linecap:round;stroke-linejoin:round;}
	.st551{clip-path:url(#SVGID_274_);fill:#488AB7;}
	.st552{clip-path:url(#SVGID_274_);}
	.st553{clip-path:url(#SVGID_274_);fill:#993316;}
	.st554{clip-path:url(#SVGID_274_);fill:#EF8615;}
	.st555{clip-path:url(#SVGID_274_);fill:#2D202A;}
	.st556{clip-path:url(#SVGID_274_);fill:#E68888;}
	.st557{clip-path:url(#SVGID_274_);fill:#F29949;}
	.st558{clip-path:url(#SVGID_274_);fill:#7F3F14;}
	.st559{clip-path:url(#SVGID_274_);fill:#D88139;}
	.st560{clip-path:url(#SVGID_274_);fill:#A85822;}
	.st561{clip-path:url(#SVGID_274_);fill:#2E1F22;}
	.st562{clip-path:url(#SVGID_274_);fill:#E28940;}
	.st563{clip-path:url(#SVGID_276_);}
	.st564{clip-path:url(#SVGID_276_);fill:#D8B20F;}
	.st565{clip-path:url(#SVGID_276_);fill:#2D202A;}
	.st566{clip-path:url(#SVGID_278_);fill:#488AB7;}
	.st567{clip-path:url(#SVGID_278_);}
	.st568{clip-path:url(#SVGID_278_);fill:#993316;}
	.st569{clip-path:url(#SVGID_278_);fill:#EF8615;}
	.st570{clip-path:url(#SVGID_278_);fill:#2D202A;}
	.st571{clip-path:url(#SVGID_278_);fill:#E68888;}
	.st572{clip-path:url(#SVGID_278_);fill:#F29949;}
	.st573{clip-path:url(#SVGID_278_);fill:#7F3F14;}
	.st574{clip-path:url(#SVGID_278_);fill:#D88139;}
	.st575{clip-path:url(#SVGID_278_);fill:#A85822;}
	.st576{clip-path:url(#SVGID_278_);fill:#2E1F22;}
	.st577{clip-path:url(#SVGID_278_);fill:#E28940;}
	.st578{opacity:0.5;}
	.st579{fill:#193F5F;}
	.st580{fill:none;stroke:#FFFFFF;stroke-width:1.2589;stroke-linecap:round;stroke-linejoin:round;}
	.st581{clip-path:url(#SVGID_280_);}
	.st582{fill:#E74E1B;}
	.st583{fill:#F2AF8D;}
	.st584{fill:#E42D31;}
	.st585{fill:#D8B20F;}
	.st586{fill:#F6B87E;}
	.st587{fill:#EE9A79;}
	.st588{fill:#C89929;}
	.st589{fill:url(#SVGID_281_);}
	.st590{fill:url(#SVGID_282_);}
	.st591{fill:url(#SVGID_283_);}
	.st592{fill:url(#SVGID_284_);}
	.st593{fill:url(#SVGID_285_);}
	.st594{fill:url(#SVGID_286_);}
	.st595{fill:url(#SVGID_287_);}
	.st596{fill:url(#SVGID_288_);}
	.st597{fill:url(#SVGID_289_);}
	.st598{fill:url(#SVGID_290_);}
	.st599{fill:url(#SVGID_291_);}
	.st600{fill:url(#SVGID_292_);}
	.st601{fill:url(#SVGID_293_);}
	.st602{fill:url(#SVGID_294_);}
	.st603{fill:url(#SVGID_295_);}
	.st604{fill:url(#SVGID_296_);}
	.st605{fill:url(#SVGID_297_);}
	.st606{fill:url(#SVGID_298_);}
	.st607{fill:url(#SVGID_299_);}
	.st608{fill:url(#SVGID_300_);}
	.st609{fill:url(#SVGID_301_);}
	.st610{fill:url(#SVGID_302_);}
	.st611{fill:url(#SVGID_303_);}
	.st612{fill:url(#SVGID_304_);}
	.st613{fill:url(#SVGID_305_);}
	.st614{fill:url(#SVGID_306_);}
	.st615{fill:url(#SVGID_307_);}
	.st616{fill:url(#SVGID_308_);}
	.st617{fill:url(#SVGID_309_);}
	.st618{fill:url(#SVGID_310_);}
	.st619{fill:url(#SVGID_311_);}
	.st620{fill:url(#SVGID_312_);}
	.st621{fill:url(#SVGID_313_);}
	.st622{fill:url(#SVGID_314_);}
	.st623{fill:url(#SVGID_315_);}
	.st624{fill:url(#SVGID_316_);}
	.st625{fill:url(#SVGID_317_);}
	.st626{fill:url(#SVGID_318_);}
	.st627{fill:url(#SVGID_319_);}
	.st628{fill:url(#SVGID_320_);}
	.st629{fill:url(#SVGID_321_);}
	.st630{fill:url(#SVGID_322_);}
	.st631{fill:url(#SVGID_323_);}
	.st632{fill:url(#SVGID_324_);}
	.st633{fill:url(#SVGID_325_);}
	.st634{fill:url(#SVGID_326_);}
	.st635{fill:url(#SVGID_327_);}
	.st636{fill:url(#SVGID_328_);}
	.st637{fill:url(#SVGID_329_);}
	.st638{fill:url(#SVGID_330_);}
	.st639{fill:url(#SVGID_331_);}
	.st640{fill:url(#SVGID_332_);}
	.st641{fill:url(#SVGID_333_);}
	.st642{fill:url(#SVGID_334_);}
	.st643{fill:url(#SVGID_335_);}
	.st644{fill:url(#SVGID_336_);}
	.st645{opacity:0.24;clip-path:url(#SVGID_338_);}
	.st646{clip-path:url(#SVGID_340_);}
	.st647{clip-path:url(#SVGID_340_);fill:#D8B20F;}
	.st648{clip-path:url(#SVGID_340_);fill:#2D202A;}
	.st649{clip-path:url(#SVGID_342_);fill:#488AB7;}
	.st650{clip-path:url(#SVGID_342_);}
	.st651{clip-path:url(#SVGID_342_);fill:#993316;}
	.st652{clip-path:url(#SVGID_342_);fill:#EF8615;}
	.st653{clip-path:url(#SVGID_342_);fill:#2D202A;}
	.st654{clip-path:url(#SVGID_342_);fill:#E68888;}
	.st655{clip-path:url(#SVGID_342_);fill:#F29949;}
	.st656{clip-path:url(#SVGID_342_);fill:#7F3F14;}
	.st657{clip-path:url(#SVGID_342_);fill:#D88139;}
	.st658{clip-path:url(#SVGID_342_);fill:#A85822;}
	.st659{clip-path:url(#SVGID_342_);fill:#2E1F22;}
	.st660{clip-path:url(#SVGID_342_);fill:#E28940;}
	.st661{clip-path:url(#SVGID_344_);fill:#993316;}
	.st662{clip-path:url(#SVGID_344_);fill:#6EAF9F;}
	.st663{clip-path:url(#SVGID_344_);fill:#2D202A;}
	.st664{clip-path:url(#SVGID_344_);fill:#EF8615;}
	.st665{clip-path:url(#SVGID_344_);fill:#E68888;}
	.st666{clip-path:url(#SVGID_344_);}
	.st667{fill:#993316;}
	.st668{clip-path:url(#SVGID_344_);fill:#D05B63;}
	.st669{clip-path:url(#SVGID_344_);fill:#2E1F22;}
	.st670{clip-path:url(#SVGID_344_);fill:#732116;}
	.st671{clip-path:url(#SVGID_346_);fill:#993316;}
	.st672{clip-path:url(#SVGID_346_);fill:#6EAF9F;}
	.st673{clip-path:url(#SVGID_346_);fill:#2D202A;}
	.st674{clip-path:url(#SVGID_346_);fill:#EF8615;}
	.st675{clip-path:url(#SVGID_346_);fill:#E68888;}
	.st676{clip-path:url(#SVGID_346_);}
	.st677{clip-path:url(#SVGID_346_);fill:#D05B63;}
	.st678{clip-path:url(#SVGID_346_);fill:#2E1F22;}
	.st679{clip-path:url(#SVGID_346_);fill:#732116;}
	.st680{fill:#EF8615;}
	.st681{fill:#E68888;}
	.st682{fill:#D05B63;}
	.st683{fill:#732116;}
	.st684{fill:#062630;}
	.st685{fill:#2C5E6E;}
	.st686{fill:#FFFFEB;}
	.st687{clip-path:url(#SVGID_348_);}
	.st688{fill:none;stroke:#FFFFFF;stroke-width:1.2673;stroke-linecap:round;stroke-linejoin:round;}
	.st689{fill:#5B1B1A;}
	.st690{fill:#493B4B;}
	.st691{clip-path:url(#SVGID_350_);}
	.st692{clip-path:url(#SVGID_352_);fill:#B0EEE8;}
	.st693{clip-path:url(#SVGID_352_);}
	.st694{clip-path:url(#SVGID_354_);fill:#4E5B75;}
	.st695{clip-path:url(#SVGID_356_);}
	.st696{clip-path:url(#SVGID_358_);}
	.st697{clip-path:url(#SVGID_360_);fill:#B0EEE8;}
	.st698{clip-path:url(#SVGID_360_);}
	.st699{clip-path:url(#SVGID_362_);}
	.st700{clip-path:url(#SVGID_364_);}
	.st701{opacity:0.24;clip-path:url(#SVGID_366_);}
	.st702{opacity:0.24;clip-path:url(#SVGID_368_);}
	.st703{clip-path:url(#SVGID_370_);}
	.st704{fill:none;stroke:#FFCA55;stroke-width:3;stroke-linecap:round;stroke-linejoin:round;}
	.st705{fill:none;stroke:#57A7FF;stroke-width:3;stroke-linecap:round;stroke-linejoin:round;}
	.st706{clip-path:url(#SVGID_372_);}
	.st707{fill:#721D09;}
	.st708{fill:#6FBC5E;}
	.st709{fill:#823323;}
	.st710{fill:#352E34;}
	.st711{fill:#669B59;}
	.st712{fill:#541B12;}
	.st713{clip-path:url(#SVGID_374_);}
	.st714{clip-path:url(#SVGID_376_);}
	.st715{clip-path:url(#SVGID_378_);}
	.st716{clip-path:url(#SVGID_380_);}
	.st717{clip-path:url(#SVGID_382_);}
	.st718{clip-path:url(#SVGID_384_);}
	.st719{clip-path:url(#SVGID_386_);}
	.st720{clip-path:url(#SVGID_388_);}
	.st721{clip-path:url(#SVGID_390_);}
	.st722{clip-path:url(#SVGID_392_);}
	.st723{clip-path:url(#SVGID_396_);}
	.st724{clip-path:url(#SVGID_398_);}
	.st725{fill:#ECECED;}
	.st726{fill:none;stroke:#81B11D;stroke-width:2;stroke-linecap:round;stroke-linejoin:round;}
	.st727{fill:none;stroke:#E74C4E;stroke-width:2;stroke-linecap:round;stroke-linejoin:round;}
	.st728{fill:none;stroke:#F9B818;stroke-width:2;stroke-linecap:round;stroke-linejoin:round;}
	.st729{fill:none;stroke:#58897E;stroke-width:2;stroke-linecap:round;stroke-linejoin:round;}
	.st730{fill:none;stroke:#FFFFFF;stroke-miterlimit:10;}
	.st731{clip-path:url(#SVGID_400_);}
	.st732{fill-rule:evenodd;clip-rule:evenodd;fill:#F09B5C;}
	.st733{fill-rule:evenodd;clip-rule:evenodd;fill:#264F2E;}
	.st734{fill-rule:evenodd;clip-rule:evenodd;fill:#5A2524;}
	.st735{fill:#9E693D;}
	.st736{fill:#F09B5C;}
	.st737{fill:#264F2E;}
	.st738{fill:#51AE4F;}
	.st739{fill:#2D7441;}
	.st740{fill:#5A2524;}
	.st741{clip-path:url(#SVGID_402_);fill:#993316;}
	.st742{clip-path:url(#SVGID_402_);fill:#6EAF9F;}
	.st743{clip-path:url(#SVGID_402_);fill:#2D202A;}
	.st744{clip-path:url(#SVGID_402_);fill:#EF8615;}
	.st745{clip-path:url(#SVGID_402_);fill:#E68888;}
	.st746{clip-path:url(#SVGID_402_);}
	.st747{clip-path:url(#SVGID_402_);fill:#D05B63;}
	.st748{clip-path:url(#SVGID_402_);fill:#2E1F22;}
	.st749{clip-path:url(#SVGID_402_);fill:#732116;}
	.st750{clip-path:url(#SVGID_404_);}
	.st751{clip-path:url(#SVGID_406_);}
	.st752{clip-path:url(#SVGID_408_);fill:#993316;}
	.st753{clip-path:url(#SVGID_408_);fill:#6EAF9F;}
	.st754{clip-path:url(#SVGID_408_);fill:#2D202A;}
	.st755{clip-path:url(#SVGID_408_);fill:#EF8615;}
	.st756{clip-path:url(#SVGID_408_);fill:#E68888;}
	.st757{clip-path:url(#SVGID_408_);}
	.st758{clip-path:url(#SVGID_408_);fill:#D05B63;}
	.st759{clip-path:url(#SVGID_408_);fill:#2E1F22;}
	.st760{clip-path:url(#SVGID_408_);fill:#732116;}
	.st761{opacity:0.8;clip-path:url(#SVGID_410_);fill:#009CDD;}
	.st762{opacity:0.8;clip-path:url(#SVGID_410_);}
	.st763{fill:url(#SVGID_411_);}
	.st764{fill:url(#SVGID_412_);}
	.st765{fill:url(#SVGID_413_);}
	.st766{fill:url(#SVGID_414_);}
	.st767{fill:url(#SVGID_415_);}
	.st768{fill:url(#SVGID_416_);}
	.st769{fill:url(#SVGID_417_);}
	.st770{fill:url(#SVGID_418_);}
	.st771{fill:url(#SVGID_419_);}
	.st772{fill:url(#SVGID_420_);}
	.st773{fill:url(#SVGID_421_);}
	.st774{fill:url(#SVGID_422_);}
	.st775{fill:url(#SVGID_423_);}
	.st776{fill:url(#SVGID_424_);}
	.st777{fill:url(#SVGID_425_);}
	.st778{fill:url(#SVGID_426_);}
	.st779{fill:url(#SVGID_427_);}
	.st780{fill:url(#SVGID_428_);}
	.st781{fill:url(#SVGID_429_);}
	.st782{fill:url(#SVGID_430_);}
	.st783{fill:url(#SVGID_431_);}
	.st784{fill:url(#SVGID_432_);}
	.st785{fill:url(#SVGID_433_);}
	.st786{fill:url(#SVGID_434_);}
	.st787{fill:url(#SVGID_435_);}
	.st788{fill:url(#SVGID_436_);}
	.st789{fill:url(#SVGID_437_);}
	.st790{fill:url(#SVGID_438_);}
	.st791{fill:url(#SVGID_439_);}
	.st792{fill:url(#SVGID_440_);}
	.st793{fill:url(#SVGID_441_);}
	.st794{fill:url(#SVGID_442_);}
	.st795{fill:url(#SVGID_444_);}
	.st796{fill:url(#SVGID_445_);}
	.st797{fill:url(#SVGID_446_);}
	.st798{fill:url(#SVGID_447_);}
	.st799{fill:url(#SVGID_448_);}
	.st800{fill:url(#SVGID_449_);}
	.st801{fill:url(#SVGID_450_);}
	.st802{fill:url(#SVGID_451_);}
	.st803{fill:url(#SVGID_452_);}
	.st804{fill:url(#SVGID_453_);}
	.st805{fill:url(#SVGID_454_);}
	.st806{fill:url(#SVGID_455_);}
	.st807{fill:url(#SVGID_456_);}
	.st808{fill:url(#SVGID_457_);}
	.st809{opacity:0.24;clip-path:url(#SVGID_460_);}
	.st810{clip-path:url(#SVGID_462_);}
	.st811{fill:#1DA7E1;}
	.st812{clip-path:url(#SVGID_464_);}
	.st813{clip-path:url(#SVGID_466_);fill:#B0EEE8;}
	.st814{clip-path:url(#SVGID_466_);}
	.st815{fill:#558FA5;}
	.st816{fill:#C2D7DF;}
	.st817{fill:#5D95A9;}
	.st818{fill:#CEDFE5;}
	.st819{opacity:0.8;fill:#009CDD;}
	.st820{fill:none;stroke:#74C9ED;stroke-miterlimit:10;}
	.st821{clip-path:url(#SVGID_468_);fill:#B0EEE8;}
	.st822{clip-path:url(#SVGID_468_);}
	.st823{clip-path:url(#SVGID_470_);fill:#4E5B75;}
	.st824{clip-path:url(#SVGID_472_);}
	.st825{clip-path:url(#SVGID_474_);fill:#B0EEE8;}
	.st826{clip-path:url(#SVGID_474_);}
	.st827{clip-path:url(#SVGID_476_);fill:#4E5B75;}
	.st828{clip-path:url(#SVGID_478_);}
	.st829{fill:#5E3D1E;}
	.st830{fill:#B8D74B;}
	.st831{fill:#DD980E;}
	.st832{opacity:0.24;clip-path:url(#SVGID_480_);}
	.st833{clip-path:url(#SVGID_482_);}
	.st834{clip-path:url(#SVGID_484_);fill:#B0EEE8;}
	.st835{clip-path:url(#SVGID_484_);}
	.st836{clip-path:url(#SVGID_486_);fill:#B0EEE8;}
	.st837{clip-path:url(#SVGID_486_);}
	.st838{clip-path:url(#SVGID_488_);fill:#4E5B75;}
	.st839{clip-path:url(#SVGID_490_);}
	.st840{clip-path:url(#SVGID_492_);fill:#B0EEE8;}
	.st841{clip-path:url(#SVGID_492_);}
	.st842{clip-path:url(#SVGID_494_);fill:#4E5B75;}
	.st843{clip-path:url(#SVGID_496_);}
	.st844{fill:#00682A;}
	.st845{fill:none;stroke:#FFFFFF;stroke-linecap:round;stroke-linejoin:round;}
	.st846{opacity:0.1;clip-path:url(#SVGID_498_);}
	.st847{fill:#754926;}
	.st848{fill:#472D18;}
	.st849{fill:none;stroke:#D2EAF2;stroke-miterlimit:10;}
	.st850{fill:#FDCAA9;}
	.st851{fill:#FE83A6;}
	.st852{fill:#FEAD84;}
	.st853{fill:#030303;}
	.st854{fill:#020202;}
	.st855{fill:#020203;}
	.st856{fill:#FDDEC4;}
	.st857{fill:#82D8FE;}
	.st858{fill:#FCD459;}
	.st859{fill:#FDAD84;}
	.st860{fill:#F8AA82;}
	.st861{fill:#020101;}
	.st862{fill:#010202;}
	.st863{fill:#020201;}
	.st864{fill:#F4DBB3;}
	.st865{fill:#F4B87D;}
	.st866{fill:#C5C5C7;}
	.st867{fill:#EAC89F;}
	.st868{fill:#E2A975;}
	.st869{fill:#B5B5B5;}
	.st870{fill:#D1B395;}
	.st871{fill:#010000;}
	.st872{fill:#DAD8DB;}
	.st873{fill:#C8C5C9;}
	.st874{fill:#6E5A64;}
	.st875{fill:#CC906E;}
	.st876{fill:#5A4650;}
	.st877{fill:#FED064;}
	.st878{fill:#B57E5F;}
	.st879{fill:#FEE07C;}
	.st880{fill:#9F6D50;}
	.st881{fill:#594650;}
	.st882{fill:#FDDF7C;}
	.st883{fill:#F8DA79;}
	.st884{fill:#F9DB79;}
	.st885{fill:#FEA950;}
	.st886{fill:#FE903C;}
	.st887{fill:#EBB880;}
	.st888{fill:#64463C;}
	.st889{fill:#F7F9FA;}
	.st890{fill:#553732;}
	.st891{fill:#D19A6E;}
	.st892{fill:#FE507D;}
	.st893{fill:#B38664;}
	.st894{fill:#C29672;}
	.st895{fill:#D13C69;}
	.st896{fill:#956D50;}
	.st897{fill:#543631;}
	.st898{fill:#707486;}
	.st899{fill:#E3E9F7;}
	.st900{fill:#EFA379;}
	.st901{fill:#FE5050;}
	.st902{fill:#D7DBE4;}
	.st903{fill:#EC3A3A;}
	.st904{fill:#E4966F;}
	.st905{fill:#5B5D6E;}
	.st906{fill:#E3966F;}
	.st907{fill:#D92A2A;}
	.st908{fill:#E89E75;}
	.st909{fill:#EEA278;}
	.st910{fill:#FDDF00;}
	.st911{fill:#F2D17C;}
	.st912{fill:#FEA700;}
	.st913{fill:#FEFEFE;}
	.st914{fill:#63D2FC;}
	.st915{fill:#FEFEFD;}
	.st916{fill:#FEEF81;}
	.st917{fill:#FDDA63;}
	.st918{fill:#FEDB64;}
	.st919{fill:#C6CEE0;}
	.st920{fill:#D13C68;}
	.st921{fill:#C6CEE1;}
	.st922{fill:#010102;}
	.st923{fill:#010101;}
	.st924{fill:#DAD4D7;}
	.st925{fill:#694B4B;}
	.st926{fill:#EFBF86;}
	.st927{fill:#E5AE78;}
	.st928{fill:#5A4146;}
	.st929{fill:#E5AE77;}
	.st930{fill:#594146;}
	.st931{fill:#684A4A;}
	.st932{fill:#362626;}
	.st933{fill:#D4DBEC;}
	.st934{fill:#775450;}
	.st935{fill:#E4AE77;}
	.st936{fill:#0095DB;}
	.st937{fill:#FEC750;}
	.st938{fill:#BDB882;}
	.st939{fill:#00A9EF;}
	.st940{fill:#D09A6D;}
	.st941{fill:#B0825C;}
	.st942{fill:#8A6648;}
	.st943{fill:#007BB5;}
	.st944{fill:#010100;}
	.st945{fill:#FB4E7B;}
	.st946{fill:#F9D6A4;}
	.st947{fill:#D49E63;}
	.st948{fill:#FEE0B3;}
	.st949{fill:#CC905A;}
	.st950{fill:#E74572;}
	.st951{fill:#F9CF97;}
	.st952{fill:#EFC790;}
	.st953{fill:#D19A6D;}
	.st954{fill:#FCD963;}
	.st955{fill:#FCDA63;}
	.st956{fill:#010133;}
	.st957{fill:#030334;}
	.st958{fill:#65CDDA;}
	.st959{fill:#65CCD9;}
	.st960{fill:#66CDDA;}
	.st961{fill:#028DB7;}
	.st962{fill:#A3B6B7;}
	.st963{fill:#64505A;}
	.st964{fill:#98B0D5;}
	.st965{fill:#A4CCFE;}
	.st966{fill:#8BB3EA;}
	.st967{fill:#634F59;}
	.st968{fill:#CE2E2E;}
	.st969{fill:#F2F1E6;}
	.st970{fill:#FEF18E;}
	.st971{clip-path:url(#SVGID_500_);}
	.st972{clip-path:url(#SVGID_502_);}
	.st973{clip-path:url(#SVGID_504_);}
	.st974{clip-path:url(#SVGID_506_);}
	.st975{fill:#808BC4;}
	.st976{clip-path:url(#SVGID_512_);}
	.st977{clip-path:url(#SVGID_514_);}
	.st978{clip-path:url(#SVGID_516_);}
	.st979{clip-path:url(#SVGID_516_);fill:#D8B20F;}
	.st980{clip-path:url(#SVGID_516_);fill:#2D202A;}
	.st981{clip-path:url(#SVGID_518_);fill:#488AB7;}
	.st982{clip-path:url(#SVGID_518_);}
	.st983{clip-path:url(#SVGID_518_);fill:#F29949;}
	.st984{clip-path:url(#SVGID_518_);fill:#7F3F14;}
	.st985{clip-path:url(#SVGID_518_);fill:#2D202A;}
	.st986{clip-path:url(#SVGID_518_);fill:#D88139;}
	.st987{clip-path:url(#SVGID_518_);fill:#A85822;}
	.st988{clip-path:url(#SVGID_518_);fill:#2E1F22;}
	.st989{clip-path:url(#SVGID_518_);fill:#E28940;}
	.st990{fill:#32759B;}
	.st991{display:none;}
	.st992{display:inline;opacity:0.1;}
	.st993{display:inline;opacity:0.3;}
	.st994{opacity:0.1;}
</style>
<g id="Capa_1">
</g>
<g id="Capa_3">
	<g>
		<defs>
			<path id="SVGID_513_" d="M4.7,276.9c4.9-6.8,19.3-5.6,38.6,1.7c-14.5-19.1-20.5-34.8-14.5-43.1c1.4-2,3.4-3.4,6-4.4
				C10.4,204.8-1.4,182,6.3,171.4c6.8-9.4-4.5-62.8,1.3-70.9c5.6-7.7,62-27.1,68-35.4c5.7-8,25.4-4.5,50.3,7.4
				c-2.1-5.6-2.2-10.2,0.1-13.3c5.5-7.6-0.2-112.8,136.8-91.5C508.1,5.8,346.1,158.9,336,172.9c-1.3,1.8-3.1,3.1-5.4,4
				c26.1,24.1,40.4,46.6,33.6,56c-1.5,2-3.9,3.3-7,3.9c11.3,14.4,16.1,26.4,11.6,32.5c-6.3,8.8-29.6,3.6-58.2-11.3
				c14.6,16.9,21.3,31.2,16.2,38.2c-2.5,3.5-7.7,4.8-14.7,4.1c24.8,26.6,37,49.7,29.2,60.4c-10.8,15-57.2,0.7-109.4-32.2
				c-0.4,1.6-1,3.1-1.9,4.3c-1.4,2-3.4,3.4-6,4.4c24.4,26.3,36.2,49.1,28.5,59.7c-8.8,12.1-40.7,5.1-80.2-15.4
				c3.5,7.4,4.1,13.5,1.4,17.3c-9.5,13.2-55-3.5-101.7-37.2C25.4,328.1-4.8,290.1,4.7,276.9z"/>
		</defs>
		<clipPath id="SVGID_2_">
			<use xlink:href="#SVGID_513_"  style="overflow:visible;"/>
		</clipPath>
		<g style="clip-path:url(#SVGID_2_);">
			<g>
				<path class="st0" d="M369.7,264.3l-0.2,0.1l1.6-1.2c0.4-0.3,0.6-1,0.2-1.5c-0.3-0.5-0.9-0.6-1.4-0.3l-7.1,4.1l7.6-6.3
					c0.4-0.4,0.5-1,0.2-1.4c-0.3-0.5-0.9-0.6-1.4-0.3l-8.3,4.8l8.3-6.3c0.5-0.3,0.6-1,0.2-1.5c-0.3-0.5-0.9-0.6-1.4-0.3l-3.1,1.8
					l3.3-2.3c0.5-0.3,0.6-1,0.3-1.5c-0.3-0.5-0.9-0.6-1.5-0.4l-6.2,3.6l6.1-4.2c0.5-0.3,0.6-1,0.3-1.5s-0.9-0.6-1.4-0.4l-15.3,8.8
					l14.4-10.7c0.5-0.3,0.6-1,0.3-1.5c-0.3-0.5-0.9-0.6-1.4-0.3l-16.7,9.7l15.7-11.4c0.5-0.3,0.6-1,0.3-1.5
					c-0.3-0.5-0.9-0.6-1.4-0.3l-15.7,9l14.6-10.2c0.5-0.3,0.6-1,0.3-1.5s-0.9-0.6-1.4-0.4l-5.9,3.4l5.5-3.6c0.5-0.3,0.6-1,0.3-1.5
					c-0.2-0.3-0.5-0.5-0.8-0.5l6.9-4.4c0.5-0.3,0.6-1,0.3-1.5c-0.3-0.5-1-0.7-1.5-0.4l-20.3,11.7l22.5-15c0.5-0.3,0.6-1,0.3-1.5
					c-0.1-0.2-0.4-0.4-0.6-0.5l0,0c0.5-0.3,0.7-1,0.4-1.5c-0.3-0.5-1-0.7-1.5-0.4l-97,56l97.3-57.6c0.5-0.3,0.7-1,0.4-1.5
					c-0.3-0.5-1-0.7-1.5-0.4l-128.7,74.3l128.3-76.4c0.5-0.3,0.7-1,0.4-1.5c-0.3-0.5-1-0.7-1.5-0.4l-54,31.2l54-31.8
					c0.5-0.3,0.7-1,0.4-1.5c-0.3-0.5-1-0.7-1.5-0.4l-62.4,36l62.2-36.6c0.5-0.3,0.7-1,0.4-1.5c-0.3-0.5-1-0.7-1.5-0.4l-63.4,36.6
					l63.1-37.2c0.5-0.3,0.7-1,0.4-1.5c-0.3-0.5-1-0.7-1.5-0.4l-20.2,11.6l20-11.7c0.5-0.3,0.7-1,0.4-1.5c-0.3-0.5-1-0.7-1.5-0.4
					L267,259.5l90-53.1c0.5-0.3,0.7-1,0.4-1.5c-0.3-0.5-1-0.7-1.5-0.4l-38.2,22l37.8-22.2c0.5-0.3,0.7-1,0.4-1.5
					c-0.3-0.5-1-0.7-1.5-0.4l-80.1,46.2l79.3-46.8c0.5-0.3,0.7-1,0.4-1.5c-0.3-0.5-1-0.7-1.5-0.4l-88,50.8l87.2-51.5
					c0.5-0.3,0.7-1,0.4-1.5c-0.3-0.5-1-0.7-1.5-0.4l-31.3,18.1l30.8-18.1c0.5-0.3,0.7-1,0.4-1.5c-0.3-0.5-1-0.7-1.5-0.4l-34.7,20
					l34.1-20c0.5-0.3,0.7-1,0.4-1.5c-0.3-0.5-1-0.7-1.5-0.4l-128.5,74.2l126.9-75.3c0.5-0.3,0.7-1,0.4-1.5c-0.3-0.5-1-0.7-1.5-0.4
					L215,265.6l128-76c0.5-0.3,0.7-1,0.4-1.5c-0.3-0.5-1-0.7-1.5-0.4l-59.1,34.1l58.2-34.3c0.5-0.3,0.7-1,0.4-1.5
					c-0.3-0.5-1-0.7-1.5-0.4l-98.4,56.8l97.1-57.4c0.5-0.3,0.7-1,0.4-1.5c-0.3-0.5-1-0.7-1.5-0.4l-107.1,61.8l105.6-62.5
					c0.5-0.3,0.7-1,0.4-1.5c-0.3-0.5-1-0.7-1.5-0.4l-44.3,25.6l43.5-25.6c0.5-0.3,0.7-1,0.4-1.5c-0.3-0.5-1-0.7-1.5-0.4l-96.8,55.9
					l95.4-56.3c0.5-0.3,0.7-1,0.4-1.5c-0.3-0.5-1-0.7-1.5-0.4l-41.3,23.9l47.9-28.1c0.5-0.3,0.7-1,0.4-1.5c-0.3-0.5-1-0.7-1.5-0.4
					l-12.9,7.5l15-8.8l0,0c0.5-0.3,0.7-1,0.4-1.5c-0.3-0.5-1-0.7-1.5-0.4l-136.1,78.6l137.3-81.4c0.5-0.3,0.7-1,0.4-1.5
					c-0.3-0.5-1-0.7-1.5-0.4l-115.8,66.9l116.2-68.7c0.5-0.3,0.7-1,0.4-1.5c-0.3-0.5-1-0.7-1.5-0.4l-143.4,82.8l143.1-84.9
					c0.5-0.3,0.7-1,0.4-1.5c-0.3-0.5-1-0.7-1.5-0.4l-66,38.1l66-38.8c0.5-0.3,0.7-1,0.4-1.5c-0.3-0.5-1-0.7-1.5-0.4l-48.2,27.8
					l48.1-28.3c0.5-0.3,0.7-1,0.4-1.5c-0.3-0.5-1-0.7-1.5-0.4l-72.7,42l72.5-42.6c0.5-0.3,0.7-1,0.4-1.5c-0.3-0.5-1-0.7-1.5-0.4
					l-89.9,51.9l89.4-52.7c0.5-0.3,0.7-1,0.4-1.5c-0.3-0.5-1-0.7-1.5-0.4L224.2,206l105.2-62.1c0.5-0.3,0.7-1,0.4-1.5
					c-0.3-0.5-1-0.7-1.5-0.4l-90.7,52.4l90-53c0.5-0.3,0.7-1,0.4-1.5c-0.3-0.5-1-0.7-1.5-0.4L200.9,212l124.6-73.7
					c0.5-0.3,0.7-1,0.4-1.5c-0.3-0.5-1-0.7-1.5-0.4L226.6,193l96.9-57.1c0.5-0.3,0.7-1,0.4-1.5c-0.3-0.5-1-0.7-1.5-0.4l-42.7,24.6
					l42.2-24.7c0.5-0.3,0.7-1,0.4-1.5c-0.3-0.5-1-0.7-1.5-0.4l-135.4,78.1l134-79.3c0.5-0.3,0.7-1,0.4-1.5c-0.3-0.5-1-0.7-1.5-0.4
					l-28.5,16.5l28-16.4c0.5-0.3,0.7-1,0.4-1.5c-0.3-0.5-1-0.7-1.5-0.4l-147.4,85.1L315,125.9c0.5-0.3,0.7-1,0.4-1.5
					c-0.3-0.5-1-0.7-1.5-0.4l-13.9,8l13.5-7.9c0.5-0.3,0.7-1,0.4-1.5c-0.1-0.2-0.2-0.3-0.4-0.4c0,0,0-0.1,0-0.1
					c-0.3-0.5-1-0.7-1.5-0.4l-28.5,16.5l27.9-16.4c0.5-0.3,0.7-1,0.4-1.5c-0.3-0.5-1-0.7-1.5-0.4l-20.7,12l20.1-11.8
					c0.5-0.3,0.7-1,0.4-1.5c-0.3-0.5-1-0.7-1.5-0.4l-116.7,67.4l115-68.3c0.5-0.3,0.7-1,0.4-1.5c-0.3-0.5-1-0.7-1.5-0.4L267,137.9
					l37.9-22.3c0.5-0.3,0.7-1,0.4-1.5c-0.3-0.5-1-0.7-1.5-0.4l-64.7,37.4l63.6-37.5c0.5-0.3,0.7-1,0.4-1.5s-1-0.7-1.5-0.4
					l-98.2,56.7l96.6-57.2c0.5-0.3,0.7-1,0.4-1.5c-0.3-0.5-1-0.7-1.5-0.4l-121.6,70.2L297,108.4c0.5-0.3,0.7-1,0.4-1.5
					c-0.3-0.5-1-0.7-1.5-0.4l-48.2,27.8l47.2-27.8c0.5-0.3,0.7-1,0.4-1.5c-0.3-0.5-1-0.7-1.5-0.4l-128.1,74l125.8-75
					c0.5-0.3,0.7-1,0.4-1.5c-0.3-0.5-1-0.7-1.5-0.4l-118.2,68.3l116.1-69c0.5-0.3,0.7-1,0.4-1.5c-0.3-0.5-1-0.7-1.5-0.4l-105.5,60.9
					l103.6-61.5c0.5-0.3,0.7-1,0.4-1.5c-0.3-0.5-1-0.7-1.5-0.4l-65.9,38.1l64.5-38.1c0.5-0.3,0.7-1,0.4-1.5c-0.3-0.5-1-0.7-1.5-0.4
					l-126.3,72.9l123.7-73.8c0.5-0.3,0.7-1,0.4-1.5c-0.3-0.5-1-0.7-1.5-0.4l-50,28.9l48.8-28.8c0.5-0.3,0.7-1,0.4-1.5
					c-0.3-0.5-1-0.7-1.5-0.4l-36.3,20.9l35.2-20.7c0.5-0.3,0.7-1,0.4-1.5c-0.3-0.5-1-0.7-1.5-0.4l-53.9,31.1l52.5-31
					c0.5-0.3,0.7-1,0.4-1.5c-0.3-0.5-1-0.7-1.5-0.4l-72.8,42l71-42.1c0.5-0.3,0.7-1,0.4-1.5c-0.3-0.5-1-0.7-1.5-0.4l-119.5,69
					l116.7-69.8c0.5-0.3,0.7-1,0.4-1.5c-0.3-0.5-1-0.7-1.5-0.4l-119.4,69l116.5-69.7c0.5-0.3,0.7-1,0.4-1.5c-0.3-0.5-1-0.7-1.5-0.4
					l-17.8,10.3l16.6-9.8c0.5-0.3,0.7-1,0.4-1.5c-0.3-0.5-1-0.7-1.5-0.4l-72,41.6l70.2-41.6c0.5-0.3,0.7-1,0.4-1.5
					c-0.3-0.5-1-0.7-1.5-0.4l-4.6,2.7l3.6-2.1c0.5-0.3,0.7-1,0.4-1.5c-0.3-0.5-1-0.7-1.5-0.4l-16.6,9.6l15.4-9.1
					c0.5-0.3,0.7-1,0.4-1.5c-0.3-0.5-1-0.7-1.5-0.4l-40.8,23.5l39.2-23.2c0.5-0.3,0.7-1,0.4-1.5c-0.3-0.5-1-0.7-1.5-0.4l-107.3,62
					l104.4-62.4c0.5-0.3,0.7-1,0.4-1.5c-0.3-0.5-1-0.7-1.5-0.4l-202,116.6l17.2-11.5c0.1-0.1,0.2-0.1,0.2-0.2c0,0.1,0,0.1,0.1,0.2
					c0.2,0.3,0.6,0.5,0.9,0.5c0.2,0,0.4,0,0.5-0.1L243,70.5c0.5-0.3,0.7-1,0.4-1.5c-0.3-0.5-1-0.7-1.5-0.4l-57.3,33.1l55.1-32.9
					c0.5-0.3,0.7-1,0.4-1.5c-0.3-0.5-1-0.7-1.5-0.4l-70.3,40.6L236,66.9c0.5-0.3,0.7-1,0.4-1.5c-0.3-0.5-1-0.7-1.5-0.4l-55.8,32.2
					l53.5-32c0.5-0.3,0.7-1,0.4-1.5c-0.3-0.5-1-0.7-1.5-0.4l-45.9,26.5l43.8-26.1c0.5-0.3,0.7-1,0.4-1.5c-0.3-0.5-1-0.7-1.5-0.4
					l-72.6,41.9l69.6-41.8c0.5-0.3,0.7-1,0.4-1.5c-0.3-0.5-1-0.7-1.5-0.4l-36.1,20.8l34.1-20.3c0.5-0.3,0.7-1,0.4-1.5
					c-0.3-0.5-1-0.7-1.5-0.4L67.7,147.4l17-12c0.4-0.3,0.6-0.9,0.3-1.3l131.2-75.8c0.5-0.3,0.7-1,0.4-1.5c-0.3-0.5-1-0.7-1.5-0.4
					l-65.5,37.8l61.4-37.8c0.5-0.3,0.7-1,0.4-1.5c-0.3-0.5-1-0.7-1.5-0.4l-36.9,21.3l34.1-20.6c0.5-0.3,0.7-1,0.4-1.5
					c-0.3-0.5-1-0.7-1.5-0.4L91.5,119.6l7.2-6.1c0.3-0.3,0.4-0.7,0.4-1c0.2,0.3,0.6,0.5,0.9,0.5c0.2,0,0.4,0,0.5-0.1L202.3,54
					c0.5-0.3,0.7-1,0.4-1.5c-0.3-0.5-1-0.7-1.5-0.4l-47.9,27.7l43.1-26.9c0.5-0.3,0.7-1,0.4-1.5c-0.3-0.5-1-0.7-1.5-0.4l-57.7,33.3
					l31.6-20.2c0.5-0.3,0.6-1,0.3-1.5c-0.3-0.5-1-0.7-1.5-0.4l-25,14.4l22.4-14.1c0.5-0.3,0.7-1,0.3-1.5c-0.3-0.5-1-0.7-1.5-0.4
					l-29,16.7L161.3,61c0.5-0.3,0.6-1,0.3-1.5c-0.3-0.5-1-0.7-1.5-0.4l-6.8,3.9l5.1-3.1c0.5-0.3,0.7-1,0.4-1.5
					c-0.3-0.5-1-0.7-1.5-0.4L135.1,71l19.3-12.2c0.5-0.3,0.7-1,0.3-1.5c-0.3-0.5-1-0.7-1.5-0.4l-0.7,0.4c0-0.2,0-0.5-0.1-0.7
					c-0.3-0.5-1-0.7-1.5-0.4l-14.7,8.5l9.8-8.1c0.4-0.4,0.5-1,0.2-1.4c-0.3-0.5-0.9-0.6-1.4-0.3l-10.5,6.1l5.9-5
					c0.4-0.4,0.5-1,0.2-1.4c-0.3-0.5-0.9-0.6-1.4-0.3l-8.9,5.1l2.7-2.9c0.4-0.4,0.4-1,0-1.4c-0.3-0.4-0.9-0.5-1.4-0.3l-5.3,3.1
					c-0.5,0.3-0.7,1-0.4,1.5c0.2,0.4,0.6,0.6,1,0.5l-2.9,3.2c-0.4,0.4-0.4,1,0,1.4c0.3,0.4,0.9,0.5,1.4,0.3l4.8-2.8l-5.9,5
					c-0.4,0.4-0.5,1-0.2,1.4c0.3,0.5,0.9,0.6,1.4,0.3l9.7-5.6l-9.7,8c-0.3-0.2-0.7-0.2-1.1,0l-7.4,4.3l5.7-3.7
					c0.5-0.3,0.6-1,0.3-1.5c-0.3-0.5-1-0.7-1.5-0.4l-16.2,9.4l13.4-9.3c0.5-0.3,0.6-1,0.3-1.5c-0.3-0.5-0.9-0.6-1.4-0.4l-15.9,9.2
					l12.8-9c0.5-0.3,0.6-1,0.3-1.5c-0.3-0.5-0.9-0.6-1.4-0.4l-16.9,9.8l13.3-9.8c0.5-0.3,0.6-1,0.3-1.5c-0.3-0.5-0.9-0.6-1.4-0.3
					l-9.7,5.6l7.1-5c0.5-0.3,0.6-1,0.3-1.5c-0.3-0.5-0.9-0.6-1.4-0.4l-15,8.7l10.8-8.4c0.4-0.3,0.5-1,0.2-1.5
					c-0.3-0.5-0.9-0.6-1.4-0.3l-12.8,7.4l8.4-6.8c0.4-0.4,0.5-1,0.2-1.4c-0.3-0.5-0.9-0.6-1.4-0.3l-9.7,5.6l5.2-4.4
					c0.4-0.4,0.5-1,0.2-1.4c-0.3-0.5-0.9-0.6-1.4-0.3l-7.1,4.1l1.9-1.9c0.4-0.4,0.4-1,0.1-1.4c-0.3-0.4-0.9-0.5-1.4-0.3l-5.4,3.1
					c-0.5,0.3-0.7,1-0.4,1.5c0.2,0.3,0.4,0.5,0.7,0.5l-2.6,2.6c-0.4,0.4-0.4,1-0.1,1.4c0.3,0.4,0.9,0.5,1.4,0.3l3.9-2.3l-5.2,4.4
					c-0.4,0.4-0.5,1-0.2,1.4c0.3,0.5,0.9,0.6,1.4,0.3l8-4.6L74.5,76c-0.4,0.4-0.5,1-0.2,1.4c0.3,0.5,0.9,0.6,1.4,0.3l11-6.4
					l-10.8,8.4c-0.4,0.3-0.5,1-0.2,1.5s0.9,0.6,1.4,0.3l7.2-4.2l-7.1,5c-0.5,0.3-0.6,1-0.3,1.5c0.3,0.5,0.9,0.6,1.4,0.4l14-8.1
					l-13.3,9.8c-0.5,0.3-0.6,1-0.3,1.5c0.3,0.5,0.9,0.6,1.4,0.3l13.5-7.8l-12.7,9c-0.5,0.3-0.6,1-0.3,1.5c0.3,0.5,0.9,0.6,1.4,0.4
					l14.3-8.2l-13.4,9.3c-0.5,0.3-0.6,1-0.3,1.5c0.3,0.5,0.9,0.6,1.4,0.4l6-3.5l-5.7,3.7c-0.5,0.3-0.6,1-0.3,1.5
					c0.3,0.5,0.9,0.7,1.5,0.4l3-1.7L86,95.8c-0.5,0.3-0.6,1-0.3,1.5c0.3,0.5,1,0.7,1.5,0.4L107.3,86L88,98.2c-0.5,0.3-0.7,1-0.3,1.5
					c0.3,0.5,1,0.7,1.5,0.4l5.5-3.2l-5.1,3.1c-0.5,0.3-0.7,1-0.4,1.5c0.3,0.5,1,0.7,1.5,0.4l27.1-15.6l-25.9,16.4
					c-0.5,0.3-0.6,1-0.3,1.5c0.3,0.5,1,0.7,1.5,0.4L116.3,91l-22.4,14.1c-0.5,0.3-0.7,1-0.3,1.5c0.3,0.5,1,0.7,1.5,0.4l33.2-19.1
					L96.6,108c-0.5,0.3-0.6,1-0.3,1.5c0.3,0.5,1,0.7,1.5,0.4L142.5,84L99.3,111c-0.4,0.3-0.6,0.7-0.5,1.2c0,0,0-0.1-0.1-0.1
					c-0.3-0.5-0.9-0.6-1.4-0.3l-11.6,6.7l3.8-4.6c0.3-0.4,0.3-1,0-1.4c-0.3-0.4-0.9-0.5-1.4-0.2l-5.4,3.1c-0.5,0.3-0.7,1-0.4,1.5
					c0.3,0.5,1,0.7,1.5,0.4l0.3-0.2l-3.8,4.6c-0.3,0.4-0.3,1,0,1.4c0.3,0.4,0.9,0.5,1.4,0.2l6.5-3.7l-7.2,6.1
					c-0.4,0.4-0.5,1-0.2,1.4c0.3,0.5,0.9,0.6,1.4,0.3l33.9-19.6l-34.1,20.6c-0.5,0.3-0.7,1-0.4,1.5c0.3,0.5,1,0.7,1.5,0.4l62-35.8
					l-61.4,37.8c-0.5,0.3-0.6,0.9-0.4,1.4l-5.5,3.2l4.1-2.7c0.5-0.3,0.6-1,0.3-1.5c-0.3-0.5-0.9-0.7-1.5-0.4l-13.7,7.9l11.2-7.7
					c0.5-0.3,0.6-1,0.3-1.5c-0.3-0.5-0.9-0.6-1.5-0.4l-14.5,8.4l11.5-8.1c0.5-0.3,0.6-1,0.3-1.5c-0.3-0.5-0.9-0.6-1.4-0.4l-12.1,7
					l9.4-6.6c0.5-0.3,0.6-1,0.3-1.5c-0.3-0.5-0.9-0.6-1.4-0.4l-10.4,6l7.7-5.4c0.5-0.3,0.6-1,0.3-1.5c-0.3-0.5-0.9-0.6-1.4-0.4
					l-12.7,7.3l9.1-6.8c0.5-0.3,0.6-1,0.2-1.5c-0.3-0.5-0.9-0.6-1.4-0.3l-10.9,6.3l7.1-5.6c0.4-0.3,0.5-1,0.2-1.5s-0.9-0.6-1.4-0.3
					L43.6,131l6.2-5.7c0.4-0.4,0.5-1,0.1-1.4c-0.3-0.4-0.9-0.6-1.4-0.3l-5.9,3.4l1.1-1.1c0.4-0.4,0.4-1,0.1-1.4
					c-0.3-0.4-0.9-0.6-1.4-0.3l-5.3,3.1c-0.5,0.3-0.7,1-0.4,1.5c0.1,0.2,0.3,0.4,0.5,0.5l-2.3,2.3c-0.4,0.4-0.4,1-0.1,1.4
					c0.3,0.4,0.9,0.6,1.4,0.3l4.9-2.9l-6.2,5.8c-0.4,0.4-0.5,1-0.1,1.4c0.3,0.4,0.9,0.6,1.4,0.3l6.7-3.9l-7.1,5.6
					c-0.4,0.3-0.5,1-0.2,1.5c0.3,0.5,0.9,0.6,1.4,0.3l9.1-5.3l-9.1,6.8c-0.5,0.3-0.6,1-0.2,1.5c0.3,0.5,0.9,0.6,1.4,0.3l7.8-4.5
					l-7.7,5.4c-0.5,0.3-0.6,1-0.3,1.5c0.3,0.5,0.9,0.6,1.4,0.4l9.7-5.6l-9.4,6.6c-0.5,0.3-0.6,1-0.3,1.5s0.9,0.6,1.4,0.4l12.1-7
					l-11.5,8.1c-0.5,0.3-0.6,1-0.3,1.5c0.3,0.5,0.9,0.6,1.4,0.4l11.9-6.9l-11.2,7.7c-0.5,0.3-0.6,1-0.3,1.5c0.3,0.5,0.9,0.6,1.5,0.4
					l4.3-2.5l-4.1,2.7c-0.5,0.3-0.6,1-0.3,1.5c0.3,0.5,1,0.7,1.5,0.4l18.3-10.6l-17,12c-0.5,0.3-0.6,1-0.3,1.5
					c0.3,0.5,0.9,0.6,1.4,0.4l34.7-20l-34.1,20.3c-0.5,0.3-0.7,1-0.4,1.5c0.3,0.5,1,0.7,1.5,0.4l70.8-40.9l-69.5,41.8
					c-0.5,0.3-0.7,1-0.4,1.5c0.3,0.5,1,0.7,1.5,0.4l44.7-25.8l-43.8,26.1c-0.5,0.3-0.7,1-0.4,1.5c0.3,0.5,1,0.7,1.5,0.4l54.5-31.5
					l-53.5,32c-0.5,0.3-0.7,1-0.4,1.5c0.3,0.5,1,0.7,1.5,0.4l69-39.9l-67.7,40.6c-0.5,0.3-0.7,1-0.4,1.5c0.2,0.3,0.5,0.5,0.8,0.5
					c0,0,0,0-0.1,0l-21.1,12.2l17.7-12c0.5-0.3,0.6-1,0.3-1.5c-0.3-0.5-0.9-0.7-1.5-0.4L32.3,184L50,171.8c0.5-0.3,0.6-1,0.3-1.5
					c-0.3-0.5-0.9-0.6-1.4-0.4l-17.6,10.2l14.2-9.8c0.5-0.3,0.6-1,0.3-1.5c-0.3-0.5-0.9-0.6-1.5-0.4l-20,11.5l15.5-11.2
					c0.5-0.3,0.6-1,0.3-1.5c-0.3-0.5-0.9-0.6-1.4-0.3l-10.4,6l7.4-5.1c0.5-0.3,0.6-1,0.3-1.5c-0.3-0.5-0.9-0.6-1.5-0.4L19.1,175
					l10.8-8.1c0.5-0.3,0.6-1,0.2-1.5c-0.3-0.5-0.9-0.6-1.4-0.3l-14.8,8.6l8.5-7.2c0.4-0.4,0.5-1,0.2-1.4c-0.3-0.5-0.9-0.6-1.4-0.3
					l-9.1,5.3l2.6-2.5c0.4-0.4,0.4-1,0.1-1.4c-0.3-0.4-0.9-0.6-1.4-0.3L7,169.3c-0.5,0.3-0.7,1-0.4,1.5c0.2,0.3,0.4,0.5,0.7,0.5
					l-3.5,3.3c-0.4,0.4-0.4,1-0.1,1.4c0.3,0.4,0.9,0.6,1.4,0.3l6.8-3.9l-8.5,7.2c-0.4,0.4-0.5,1-0.2,1.4c0.3,0.5,0.9,0.6,1.4,0.3
					l10.1-5.8L4,183.7c-0.5,0.3-0.6,1-0.2,1.5c0.3,0.5,0.9,0.6,1.4,0.3l7-4.1l-7.4,5.1c-0.5,0.3-0.6,1-0.3,1.5
					c0.3,0.5,0.9,0.6,1.5,0.4l15.7-9.1L6.2,190.5c-0.5,0.3-0.6,1-0.3,1.5c0.3,0.5,0.9,0.6,1.4,0.3l14.5-8.4l-14.2,9.8
					c-0.5,0.3-0.6,1-0.3,1.5c0.3,0.5,0.9,0.6,1.5,0.4l18.4-10.6L9.5,197.2c-0.5,0.3-0.6,1-0.3,1.5c0.3,0.5,0.9,0.6,1.4,0.4L29,188.4
					l-17.7,12c-0.5,0.3-0.6,1-0.3,1.5c0.3,0.5,0.9,0.7,1.5,0.4l17.9-10.4l-17.2,11.5c-0.5,0.3-0.6,1-0.3,1.5
					c0.3,0.5,0.9,0.7,1.5,0.4l105.4-60.9L15.3,206.7c-0.5,0.3-0.7,1-0.4,1.5c0.3,0.5,1,0.7,1.5,0.4L56,185.7l-39.2,23.2
					c-0.5,0.3-0.7,1-0.4,1.5c0.3,0.5,1,0.7,1.5,0.4l15.7-9.1l-15.4,9.1c-0.5,0.3-0.7,1-0.4,1.5c0.3,0.5,1,0.7,1.5,0.4l3.8-2.2
					l-3.6,2.1c-0.5,0.3-0.7,1-0.4,1.5c0.3,0.5,1,0.7,1.5,0.4l71-41L21.3,215c-0.5,0.3-0.7,1-0.4,1.5c0.3,0.5,1,0.7,1.5,0.4l17.1-9.9
					l-16.7,9.8c-0.5,0.3-0.7,1-0.4,1.5c0.3,0.5,1,0.7,1.5,0.4l118.2-68.2L25.6,220.1c-0.5,0.3-0.7,1-0.4,1.5c0.3,0.5,1,0.7,1.5,0.4
					l118.5-68.4L28.4,223.5c-0.5,0.3-0.7,1-0.4,1.5c0.3,0.5,1,0.7,1.5,0.4l71.9-41.5l-70.9,42c-0.5,0.3-0.7,1-0.4,1.5
					c0.3,0.5,1,0.7,1.5,0.4l53.4-30.8l-52.6,31.1c-0.5,0.3-0.7,1-0.4,1.5c0.3,0.5,1,0.7,1.5,0.4l35.7-20.6l-35.1,20.7
					c-0.5,0.3-0.7,1-0.4,1.5c0.3,0.5,1,0.7,1.5,0.4l40.7-23.5l-48.7,28.7c-0.5,0.3-0.7,1-0.4,1.5c0.3,0.5,1,0.7,1.5,0.4l121.6-70.2
					L26,242.5c-0.5,0.3-0.7,1-0.4,1.5c0.3,0.5,1,0.7,1.5,0.4l63.7-36.8l-64.5,38.1c-0.5,0.3-0.7,1-0.4,1.5c0.3,0.5,1,0.7,1.5,0.4
					l103.3-59.7L27.1,249.3c-0.5,0.3-0.7,1-0.4,1.5c0.3,0.5,1,0.7,1.5,0.4l116.2-67.1l-116.1,69c-0.5,0.3-0.7,1-0.4,1.5
					c0.3,0.5,1,0.7,1.5,0.4l126.3-72.9L29.9,257c-0.5,0.3-0.7,1-0.4,1.5c0.3,0.5,1,0.7,1.5,0.4l47.3-27.3l-47.2,27.8
					c-0.5,0.3-0.7,1-0.4,1.5c0.3,0.5,1,0.7,1.5,0.4l120.3-69.5L33,262.9c-0.5,0.3-0.7,1-0.4,1.5c0.3,0.5,1,0.7,1.5,0.4l97.3-56.2
					l-96.6,57.2c-0.5,0.3-0.7,1-0.4,1.5c0.3,0.5,1,0.7,1.5,0.4l64.2-37.1l-63.8,37.6c-0.5,0.3-0.7,1-0.4,1.5c0.3,0.5,1,0.7,1.5,0.4
					l38-21.9l-37.7,22.2c-0.5,0.3-0.7,1-0.4,1.5c0.3,0.5,1,0.7,1.5,0.4l116.2-67.1L39.8,273.4c-0.5,0.3-0.7,1-0.4,1.5
					c0.3,0.5,1,0.7,1.5,0.4l20.5-11.8l-20.2,11.9c-0.5,0.3-0.7,1-0.4,1.5c0.3,0.5,1,0.7,1.5,0.4L70.3,261l-27.8,16.3
					c-0.4,0.2-0.6,0.6-0.5,1.1l-16,9.2l13.4-9.7c0.5-0.3,0.6-1,0.3-1.5c-0.3-0.5-0.9-0.6-1.4-0.3L27,282.6l8.4-5.9
					c0.5-0.3,0.6-1,0.3-1.5c-0.3-0.5-0.9-0.6-1.4-0.4l-2.5,1.4l0.7-0.5c0.5-0.3,0.6-1,0.3-1.5c-0.3-0.5-0.9-0.7-1.5-0.4L16,282.9
					l10.5-8.5c0.4-0.4,0.5-1,0.2-1.4c-0.3-0.5-0.9-0.6-1.4-0.3l-13.5,7.8l7.8-7c0.4-0.4,0.5-1,0.2-1.4c-0.3-0.5-0.9-0.6-1.4-0.3
					l-9.6,5.6l3-3.2c0.4-0.4,0.4-1,0-1.4c-0.3-0.4-0.9-0.5-1.4-0.3l-5.5,3.2c-0.5,0.3-0.7,1-0.4,1.5c0.2,0.4,0.7,0.6,1.1,0.5
					l-3.1,3.4c-0.4,0.4-0.4,1,0,1.4c0.3,0.4,0.9,0.5,1.4,0.3l6.7-3.9l-7.8,7c-0.4,0.4-0.5,1-0.2,1.4c0.3,0.4,0.9,0.6,1.4,0.3
					l10.5-6.1L4,289.8c-0.4,0.4-0.5,1-0.2,1.4c0.3,0.5,0.9,0.6,1.4,0.3l0.4-0.2l-0.7,0.5c-0.5,0.3-0.6,1-0.3,1.5
					c0.3,0.5,0.9,0.7,1.5,0.4l8.5-4.9l-8.4,5.9c-0.5,0.3-0.6,1-0.3,1.5c0.3,0.5,0.9,0.6,1.4,0.4l14.1-8.1L8,298
					c-0.5,0.3-0.6,1-0.3,1.5c0.3,0.5,0.9,0.6,1.4,0.3l13.7-7.9l-13.7,8c-0.5,0.3-0.7,1-0.4,1.5c0.3,0.5,1,0.7,1.5,0.4L157.1,217
					L11.5,303.4c-0.5,0.3-0.7,1-0.4,1.5c0.3,0.5,1,0.7,1.5,0.4l28.4-16.4l-28.1,16.5c-0.5,0.3-0.7,1-0.4,1.5c0.3,0.5,1,0.7,1.5,0.4
					l135.2-78L15.2,308.5c-0.5,0.3-0.7,1-0.4,1.5c0.3,0.5,1,0.7,1.5,0.4l42.7-24.6l-42.2,24.8c-0.5,0.3-0.7,1-0.4,1.5
					c0.3,0.5,1,0.7,1.5,0.4l97.9-56.5L18.8,313c-0.5,0.3-0.7,1-0.4,1.5c0.3,0.5,1,0.7,1.5,0.4l126-72.7L21.2,315.8
					c-0.5,0.3-0.7,1-0.4,1.5c0.3,0.5,1,0.7,1.5,0.4l90.8-52.4l-89.9,52.9c-0.5,0.3-0.7,1-0.4,1.5c0.3,0.5,1,0.7,1.5,0.4l106.6-61.5
					L25.5,320.7c-0.5,0.3-0.7,1-0.4,1.5c0.3,0.5,1,0.7,1.5,0.4l90.5-52.2L27.7,323c-0.5,0.3-0.7,1-0.4,1.5c0.3,0.5,1,0.7,1.5,0.4
					l73.4-42.4l-72.5,42.6c-0.5,0.3-0.7,1-0.4,1.5c0.3,0.5,1,0.7,1.5,0.4l48.9-28.2L31.5,327c-0.5,0.3-0.7,1-0.4,1.5s1,0.7,1.5,0.4
					l67-38.7L33.6,329c-0.5,0.3-0.7,1-0.4,1.5c0.3,0.5,1,0.7,1.5,0.4L179.9,247L36.7,332c-0.5,0.3-0.7,1-0.4,1.5
					c0.3,0.5,1,0.7,1.5,0.4l117.7-67.9L39.3,334.5c-0.5,0.3-0.7,1-0.4,1.5c0.3,0.5,1,0.7,1.5,0.4l139.4-80.5L42.5,337.4
					c-0.5,0.3-0.7,1-0.4,1.5c0.3,0.5,1,0.7,1.5,0.4l15.9-9.2l-15.2,8.9c-0.5,0.3-0.7,1-0.4,1.5c0.3,0.5,1,0.7,1.5,0.4l48.7-28.1
					l-47.8,28.1c-0.5,0.3-0.7,1-0.4,1.5c0.3,0.5,1,0.7,1.5,0.4l96.9-55.9L48.9,343c-0.5,0.3-0.7,1-0.4,1.5c0.3,0.5,1,0.7,1.5,0.4
					l44.6-25.7L51,344.8c-0.5,0.3-0.7,1-0.4,1.5c0.3,0.5,1,0.7,1.5,0.4l107.3-62L53.9,347.1c-0.5,0.3-0.7,1-0.4,1.5
					c0.3,0.5,1,0.7,1.5,0.4l98.7-57l-97.1,57.3c-0.5,0.3-0.7,1-0.4,1.5c0.3,0.5,1,0.7,1.5,0.4l59.6-34.4l-58.4,34.4
					c-0.5,0.3-0.7,1-0.4,1.5c0.3,0.5,1,0.7,1.5,0.4l130.3-75.2l-128,76c-0.5,0.3-0.7,1-0.4,1.5c0.3,0.5,1,0.7,1.5,0.4L192.6,281
					L65.7,356.4c-0.5,0.3-0.7,1-0.4,1.5c0.3,0.5,1,0.7,1.5,0.4l35.1-20.3l-34,20c-0.5,0.3-0.7,1-0.4,1.5c0.3,0.5,1,0.7,1.5,0.4
					l31.9-18.4l-30.8,18.1c-0.5,0.3-0.7,1-0.4,1.5c0.3,0.5,1,0.7,1.5,0.4l88.9-51.3l-87.2,51.5c-0.5,0.3-0.7,1-0.4,1.5
					c0.3,0.5,1,0.7,1.5,0.4l80.9-46.7l-79.2,46.8c-0.5,0.3-0.7,1-0.4,1.5c0.3,0.5,1,0.7,1.5,0.4l39.1-22.6l-37.9,22.3
					c-0.5,0.3-0.7,1-0.4,1.5c0.3,0.5,1,0.7,1.5,0.4l91.8-53l-90,53.2c-0.5,0.3-0.7,1-0.4,1.5c0.3,0.5,1,0.7,1.5,0.4l20.9-12.1
					l-19.9,11.7c-0.5,0.3-0.7,1-0.4,1.5s1,0.7,1.5,0.4l64.6-37.3l-63.1,37.2c-0.5,0.3-0.7,1-0.4,1.5c0.3,0.5,1,0.7,1.5,0.4
					l63.8-36.8l-62.2,36.6c-0.5,0.3-0.7,1-0.4,1.5c0.3,0.5,1,0.7,1.5,0.4l55.3-32l-53.9,31.7c-0.5,0.3-0.7,1-0.4,1.5
					c0.3,0.5,1,0.7,1.5,0.4l131.2-75.7L94.5,376.1c-0.5,0.3-0.7,1-0.4,1.5c0.3,0.5,1,0.7,1.5,0.4l99.6-57.5l-97.3,57.6
					c-0.5,0.3-0.7,1-0.4,1.5c0.3,0.5,1,0.7,1.5,0.4l77.8-44.9l-75.9,44.8c-0.5,0.3-0.7,1-0.4,1.5c0.3,0.5,1,0.7,1.5,0.4l21.9-12.6
					l-20.6,12.1c-0.5,0.3-0.7,1-0.4,1.5c0.3,0.5,1,0.7,1.5,0.4l11.7-6.8l-10.5,6.2c-0.5,0.3-0.7,1-0.4,1.5c0.3,0.5,1,0.7,1.5,0.4
					l80.8-46.6l-78.3,46.7c-0.5,0.3-0.7,1-0.4,1.5c0.3,0.5,1,0.7,1.5,0.4l76.5-44.2l-74.1,44.2c-0.5,0.3-0.7,1-0.4,1.5
					c0.3,0.5,1,0.7,1.5,0.4l5.4-3.1l-4.1,2.4c-0.5,0.3-0.7,1-0.4,1.5c0.3,0.5,1,0.7,1.5,0.4l76.2-44l-73.6,43.9
					c-0.5,0.3-0.7,1-0.4,1.5c0.3,0.5,1,0.7,1.5,0.4l20.1-11.6l-18.6,11c-0.5,0.3-0.7,1-0.4,1.5c0.3,0.5,1,0.7,1.5,0.4l98.3-56.8
					L126,392.7c-0.5,0.3-0.7,1-0.4,1.5c0.3,0.5,1,0.7,1.5,0.4l39.8-23L130,394.4c-0.5,0.3-0.7,1-0.4,1.5c0.3,0.5,1,0.7,1.5,0.4
					l8.2-4.7l-6.5,4c-0.5,0.3-0.7,1-0.4,1.5c0.3,0.5,1,0.7,1.5,0.4l10.2-5.9l-8.5,5.1c-0.5,0.3-0.7,1-0.4,1.5c0.3,0.5,1,0.7,1.5,0.4
					l42.5-24.5l-38.8,24.3c-0.5,0.3-0.7,1-0.4,1.5c0.3,0.5,1,0.7,1.5,0.4l30.7-17.7c0.1,0.2,0.3,0.3,0.6,0.4l-27,17.1
					c-0.5,0.3-0.6,1-0.3,1.5c0.3,0.5,1,0.7,1.5,0.4l14.4-8.3l-10.1,7.9c-0.4,0.3-0.5,1-0.2,1.5c0.3,0.5,0.9,0.6,1.4,0.3l8.7-5
					l-5.3,4c-0.5,0.3-0.6,1-0.2,1.5c0.3,0.5,0.9,0.6,1.4,0.3l6.2-3.6l-2.7,2.2c-0.4,0.4-0.5,1-0.2,1.5c0.2,0.3,0.5,0.5,0.9,0.5
					c0.2,0,0.4,0,0.5-0.1l7-4l-1.6,1.6c-0.4,0.4-0.4,1-0.1,1.4c0.3,0.4,0.9,0.6,1.4,0.3l5.5-3.2c0.5-0.3,0.7-1,0.4-1.5
					c-0.1-0.3-0.4-0.4-0.7-0.5l2.5-2.5c0.4-0.4,0.4-1,0.1-1.4c-0.3-0.4-0.9-0.6-1.4-0.3l-1.4,0.8l2.7-2.2c0.4-0.4,0.5-1,0.2-1.5
					c-0.3-0.5-0.9-0.6-1.4-0.3l-4.5,2.6l5.3-4c0.5-0.3,0.6-1,0.2-1.5c-0.3-0.5-0.9-0.6-1.4-0.3l-10,5.8l10.1-7.9
					c0.4-0.3,0.5-1,0.2-1.5c0,0-0.1-0.1-0.1-0.1l0.7-0.5c0,0.1,0,0.2,0.1,0.3c0.3,0.5,1,0.7,1.5,0.4l13.9-8l-12.1,7.7
					c-0.5,0.3-0.6,1-0.3,1.5c0.3,0.5,1,0.7,1.5,0.4l26-15l-23,15.2c-0.5,0.3-0.6,1-0.3,1.5c0.3,0.5,0.9,0.7,1.5,0.4l25.9-15
					L187.1,388c-0.5,0.3-0.6,1-0.3,1.5c0.3,0.5,0.9,0.7,1.5,0.4l18.6-10.7l-16.1,10.5c-0.5,0.3-0.6,1-0.3,1.5c0.3,0.5,1,0.7,1.5,0.4
					l16.7-9.7l-14.4,9.4c-0.5,0.3-0.6,1-0.3,1.5c0.3,0.5,1,0.7,1.5,0.4l26-15l-22.1,15.2c-0.5,0.3-0.6,1-0.3,1.5
					c0.3,0.5,0.9,0.6,1.5,0.4l22.2-12.8l-18.7,12.8c-0.5,0.3-0.6,1-0.3,1.5c0.3,0.5,0.9,0.7,1.5,0.4l3.6-2.1l-1.9,1.2
					c-0.5,0.3-0.6,1-0.3,1.5c0.3,0.5,1,0.7,1.5,0.4l17.7-10.2l-14.4,9.8c-0.5,0.3-0.6,1-0.3,1.5c0.3,0.5,0.9,0.7,1.5,0.4l21.4-12.4
					l-16.9,12.2c-0.5,0.3-0.6,1-0.3,1.5c0.3,0.5,0.9,0.6,1.4,0.3l4-2.3l-1.9,1.2c-0.5,0.3-0.6,1-0.3,1.5c0.3,0.5,0.9,0.7,1.5,0.4
					l11.8-6.8l-8.6,6c-0.5,0.3-0.6,1-0.3,1.5c0.3,0.5,0.9,0.6,1.4,0.4l10.5-6.1l-7,5c-0.5,0.3-0.6,1-0.3,1.5
					c0.3,0.5,0.9,0.6,1.4,0.3l9.3-5.4l-5.3,4c-0.5,0.3-0.6,1-0.3,1.5c0.2,0.3,0.6,0.5,0.9,0.5c0.2,0,0.4,0,0.5-0.1l6-3.5l-2,1.5
					c-0.4,0.3-0.6,1-0.2,1.5c0.3,0.5,0.9,0.6,1.4,0.3l13.4-7.7c0.5-0.3,0.7-1,0.4-1.5c-0.3-0.5-0.8-0.7-1.3-0.5l2.1-1.6
					c0.4-0.3,0.6-1,0.2-1.5c-0.3-0.5-0.9-0.6-1.4-0.3l-4,2.3l5.3-4c0.5-0.3,0.6-1,0.3-1.5c-0.3-0.5-0.9-0.6-1.4-0.3l-6.2,3.6l7-5
					c0.5-0.3,0.6-1,0.3-1.5c-0.3-0.5-0.9-0.6-1.4-0.3l-8.1,4.7l8.5-6c0.5-0.3,0.6-1,0.3-1.5c-0.3-0.5-0.9-0.6-1.4-0.4l-1.4,0.8
					l1.9-1.2c0.5-0.3,0.6-1,0.3-1.5c-0.3-0.5-1-0.7-1.5-0.4l-17.3,10l16.9-12.2c0.5-0.3,0.6-1,0.3-1.5c-0.3-0.5-0.9-0.6-1.4-0.3
					l-14.7,8.5l14.4-9.8c0.5-0.3,0.6-1,0.3-1.5c-0.3-0.5-0.9-0.7-1.5-0.4l-1.9,1.1l1.9-1.2c0.5-0.3,0.6-1,0.3-1.5
					c-0.3-0.5-1-0.7-1.5-0.4l-19.4,11.2l18.7-12.8c0.5-0.3,0.6-1,0.3-1.5c-0.3-0.5-0.9-0.7-1.5-0.4l-23.2,13.4l22.1-15.2
					c0.5-0.3,0.6-1,0.3-1.5c-0.3-0.5-0.9-0.6-1.5-0.4l-14.9,8.6l14.4-9.4c0.5-0.3,0.6-1,0.3-1.5c-0.3-0.5-0.9-0.7-1.5-0.4l-16.9,9.7
					l16.1-10.5c0.5-0.3,0.6-1,0.3-1.5c-0.3-0.5-0.9-0.7-1.5-0.4l-23.9,13.8l22.7-15.1c0.5-0.3,0.6-1,0.3-1.5c-0.3-0.5-1-0.7-1.5-0.4
					l-24.2,14l23-15.2c0.5-0.3,0.6-1,0.3-1.5c-0.3-0.5-1-0.7-1.5-0.4l-12.8,7.4l12.1-7.7c0.5-0.3,0.6-1,0.3-1.5
					c-0.3-0.5-1-0.7-1.5-0.4l-18.2,10.5l17.4-11.1c0.5-0.3,0.6-1,0.3-1.5c-0.1-0.2-0.3-0.3-0.5-0.4c0-0.1-0.1-0.2-0.1-0.3
					c-0.3-0.5-1-0.7-1.5-0.4l-40.2,23.2l38.8-24.3c0.5-0.3,0.7-1,0.4-1.5c-0.3-0.5-1-0.7-1.5-0.4l-9,5.2l8.5-5.1
					c0.5-0.3,0.7-1,0.4-1.5c-0.3-0.5-1-0.7-1.5-0.4l-7,4l6.5-3.9c0.5-0.3,0.7-1,0.4-1.5c-0.3-0.5-1-0.7-1.5-0.4l-34.6,20l36.9-22.8
					c0.5-0.3,0.7-1,0.4-1.5c-0.3-0.4-0.7-0.6-1.2-0.5l6.3-3.8c0,0.1,0,0.2,0.1,0.2c0.3,0.5,1,0.7,1.5,0.4l11.9-6.9l-10.6,6.5
					c-0.5,0.3-0.7,1-0.4,1.5c0.3,0.5,1,0.7,1.5,0.4l24.9-14.4l-23.1,14.2c-0.5,0.3-0.7,1-0.4,1.5c0.3,0.5,1,0.7,1.5,0.4l26.3-15.2
					l-24.5,15.2c-0.5,0.3-0.7,1-0.4,1.5s1,0.7,1.5,0.4l27.5-15.9L245.4,336c-0.5,0.3-0.7,1-0.4,1.5c0.3,0.5,1,0.7,1.5,0.4l9.1-5.3
					l-7.8,4.8c-0.5,0.3-0.7,1-0.4,1.5c0.3,0.5,1,0.7,1.5,0.4l22.8-13.2l-20.6,13.2c-0.5,0.3-0.6,1-0.3,1.5c0.3,0.5,1,0.7,1.5,0.4
					l17.8-10.3l-15.9,10.1c-0.5,0.3-0.6,1-0.3,1.5c0.3,0.5,1,0.7,1.5,0.4l5.4-3.1l-4.2,2.6c-0.5,0.3-0.7,1-0.4,1.5
					c0.3,0.5,1,0.7,1.5,0.4l26.5-15.3l-23.7,15.4c-0.5,0.3-0.6,1-0.3,1.5c0.3,0.5,1,0.7,1.5,0.4l5.4-3.1l-4,2.5
					c-0.5,0.3-0.7,1-0.4,1.5c0.3,0.5,1,0.7,1.5,0.4l13.5-7.8l-11.8,7.4c-0.5,0.3-0.6,1-0.3,1.5c0.3,0.5,1,0.7,1.5,0.4l4.5-2.6
					l-3.2,2c-0.5,0.3-0.7,1-0.4,1.5c0.3,0.5,1,0.7,1.5,0.4l17.8-10.3l-15.5,10c-0.5,0.3-0.6,1-0.3,1.5c0.3,0.5,0.9,0.7,1.5,0.4
					l18.4-10.6L275,351.3c-0.5,0.3-0.6,1-0.3,1.5c0.3,0.5,1,0.7,1.5,0.4l13.3-7.7l-11.4,7.3c-0.5,0.3-0.6,1-0.3,1.5
					c0.3,0.5,1,0.7,1.5,0.4l27.4-15.8L283,354.8c-0.5,0.3-0.6,1-0.3,1.5c0.3,0.5,0.9,0.7,1.5,0.4l22.2-12.8l-19,12.8
					c-0.5,0.3-0.6,1-0.3,1.5s1,0.7,1.5,0.4l11.8-6.8l-9.7,6.3c-0.5,0.3-0.6,1-0.3,1.5c0.3,0.5,1,0.7,1.5,0.4l15.1-8.7l-12.4,8.2
					c-0.5,0.3-0.6,1-0.3,1.5c0.3,0.5,0.9,0.7,1.5,0.4l14.8-8.5l-12,8c-0.5,0.3-0.6,1-0.3,1.5c0.3,0.5,0.9,0.7,1.5,0.4l18.2-10.5
					L303.1,362c-0.5,0.3-0.6,1-0.3,1.5c0.3,0.5,0.9,0.6,1.4,0.4l14.1-8.1l-10.8,7.5c-0.5,0.3-0.6,1-0.3,1.5c0.3,0.5,0.9,0.6,1.5,0.4
					l8.6-5l-5.9,4c-0.5,0.3-0.6,1-0.3,1.5c0.3,0.5,0.9,0.7,1.5,0.4l16.9-9.8l-11.8,9.1c-0.5,0.3-0.6,1-0.2,1.5
					c0.3,0.5,1,0.6,1.4,0.3l12.9-7.4l-7.7,6.1c-0.4,0.4-0.5,1-0.2,1.5c0.2,0.3,0.5,0.5,0.9,0.5c0.2,0,0.4,0,0.5-0.1l8.6-5l-3.3,2.8
					c-0.4,0.4-0.5,1-0.2,1.4s0.9,0.6,1.4,0.3l10.3-6c0.5-0.3,0.7-1,0.4-1.5c-0.3-0.5-1-0.7-1.5-0.4l-0.4,0.2l3.3-2.8
					c0.4-0.4,0.5-1,0.2-1.4c-0.3-0.5-0.9-0.6-1.4-0.3l-6.2,3.6l7.7-6.1c0.4-0.4,0.5-1,0.2-1.5c-0.3-0.5-0.9-0.6-1.4-0.3l-11.2,6.5
					l11.8-9.1c0.5-0.3,0.6-1,0.2-1.5c-0.3-0.5-0.9-0.6-1.4-0.3l-5.5,3.2l5.9-4c0.5-0.3,0.6-1,0.3-1.5c-0.3-0.5-0.9-0.7-1.5-0.4
					l-10.7,6.2l10.9-7.5c0.5-0.3,0.6-1,0.3-1.5c-0.3-0.5-0.9-0.6-1.5-0.4l-15,8.6l14.6-10.2c0.5-0.3,0.6-1,0.3-1.5
					c-0.3-0.5-0.9-0.6-1.4-0.4l-12.2,7l12-8c0.5-0.3,0.6-1,0.3-1.5c-0.3-0.5-1-0.7-1.5-0.4l-12.7,7.3l12.4-8.2
					c0.5-0.3,0.6-1,0.3-1.5c-0.3-0.5-1-0.7-1.5-0.4l-9.9,5.7l9.7-6.3c0.5-0.3,0.6-1,0.3-1.5c-0.3-0.5-1-0.7-1.5-0.4L315,340.6
					l19-12.8c0.5-0.3,0.6-1,0.3-1.5c-0.3-0.5-1-0.7-1.5-0.4L308,340.4l23.6-16.1c0.5-0.3,0.6-1,0.3-1.5c-0.3-0.5-0.9-0.7-1.5-0.4
					l-11.9,6.9L330,322c0.5-0.3,0.6-1,0.3-1.5c-0.3-0.5-1-0.7-1.5-0.4l-16.8,9.7l16.1-10.4c0.5-0.3,0.6-1,0.3-1.5
					c-0.3-0.5-1-0.7-1.5-0.4l-16.2,9.4l15.5-10c0.5-0.3,0.6-1,0.3-1.5c-0.3-0.5-1-0.7-1.5-0.4l-3.5,2l3.2-2c0.5-0.3,0.7-1,0.4-1.5
					c-0.3-0.5-1-0.7-1.5-0.4l-12.4,7.2l11.8-7.5c0.5-0.3,0.6-1,0.3-1.5c-0.3-0.5-1-0.7-1.5-0.4l-4.4,2.6l4-2.5
					c0.5-0.3,0.7-1,0.4-1.5c-0.3-0.5-1-0.7-1.5-0.4l-25,14.4l23.7-15.4c0.5-0.3,0.6-1,0.3-1.5c-0.3-0.5-0.9-0.7-1.5-0.4l-4.6,2.7
					l4.2-2.6c0.5-0.3,0.7-1,0.4-1.5c-0.3-0.5-1-0.7-1.5-0.4l-16.8,9.7l15.9-10.1c0.5-0.3,0.6-1,0.3-1.5c-0.3-0.5-1-0.7-1.5-0.4
					l-21.7,12.5l20.6-13.2c0.3-0.2,0.5-0.6,0.5-1l5.9-3.4l-1.9,1.7c-0.4,0.4-0.5,1-0.2,1.4c0.3,0.5,0.9,0.6,1.4,0.3l8.7-5
					c0.5-0.3,0.7-1,0.4-1.5c-0.3-0.4-0.8-0.6-1.2-0.5l2-1.8c0.4-0.4,0.5-1,0.2-1.4c-0.1-0.2-0.3-0.3-0.5-0.4l0.3-0.2
					c0.5-0.3,0.7-1,0.4-1.5c-0.3-0.5-1-0.7-1.5-0.4l-25,14.4l25.5-15.9c0.5-0.3,0.7-1,0.4-1.5c-0.3-0.5-1-0.7-1.5-0.4L303,299.2
					l24.5-15.2c0.5-0.3,0.7-1,0.4-1.5c-0.3-0.5-1-0.7-1.5-0.4l-23,13.3l23-14.2c0.5-0.3,0.7-1,0.4-1.5c-0.3-0.5-1-0.7-1.5-0.4
					l-10.6,6.1l10.6-6.5c0.5-0.3,0.7-1,0.4-1.5c-0.3-0.5-1-0.7-1.5-0.4l-1.5,0.9l1.6-1c0.5-0.3,0.7-1,0.4-1.5
					c-0.1-0.2-0.2-0.3-0.4-0.4c0-0.2,0-0.4-0.1-0.5c-0.3-0.5-1-0.7-1.5-0.4L304,285.1l18.6-11c0.5-0.3,0.7-1,0.4-1.5
					c-0.3-0.5-1-0.7-1.5-0.4l-74.3,42.9l73.6-43.9c0.5-0.3,0.7-1,0.4-1.5c-0.3-0.5-1-0.7-1.5-0.4l-4.3,2.5l4.1-2.4
					c0.5-0.3,0.7-1,0.4-1.5c-0.3-0.5-1-0.7-1.5-0.4l-75,43.3l74.1-44.2c0.5-0.3,0.7-1,0.4-1.5c-0.3-0.5-1-0.7-1.5-0.4l-79.3,45.8
					l78.2-46.7c0.5-0.3,0.7-1,0.4-1.5c-0.3-0.5-1-0.7-1.5-0.4l-10.8,6.2l10.4-6.2c0.5-0.3,0.7-1,0.4-1.5c-0.3-0.5-1-0.7-1.5-0.4
					l-21.1,12.2l20.7-12.2c0.5-0.3,0.7-1,0.4-1.5c0,0-0.1-0.1-0.1-0.1l24.8-14.3l-22.5,15c-0.5,0.3-0.6,1-0.3,1.5
					c0.3,0.5,0.9,0.7,1.5,0.4l4.3-2.5l-3,1.9c-0.5,0.3-0.6,1-0.3,1.5c0.3,0.5,1,0.7,1.5,0.4l7.1-4.1l-5.5,3.6
					c-0.5,0.3-0.6,1-0.3,1.5c0.3,0.5,1,0.7,1.5,0.4l17.7-10.2l-14.6,10.2c-0.5,0.3-0.6,1-0.3,1.5c0.3,0.5,0.9,0.6,1.4,0.4l19.4-11.2
					l-15.7,11.4c-0.5,0.3-0.6,1-0.3,1.5c0.3,0.5,0.9,0.6,1.4,0.3l18.2-10.5l-14.4,10.7c-0.5,0.3-0.6,1-0.3,1.5
					c0.3,0.5,0.9,0.6,1.4,0.3l8.5-4.9l-6.1,4.2c-0.5,0.3-0.6,1-0.3,1.5c0.3,0.5,0.9,0.6,1.4,0.4l5.3-3.1l-3.3,2.3
					c-0.5,0.3-0.6,1-0.3,1.5c0.3,0.5,0.9,0.7,1.5,0.4l11.9-6.9l-8.3,6.3c-0.5,0.3-0.6,1-0.2,1.5c0.3,0.5,0.9,0.6,1.4,0.3l12.1-7
					l-7.6,6.3c-0.4,0.4-0.5,1-0.2,1.4c0.3,0.5,0.9,0.6,1.4,0.3l4.6-2.6l-1.6,1.2c-0.4,0.3-0.6,1-0.2,1.5c0.2,0.3,0.5,0.5,0.9,0.5
					c0.2,0,0.4,0,0.5-0.1l7.5-4.3l-2.1,2.1c-0.4,0.4-0.4,1-0.1,1.4c0.3,0.4,0.9,0.5,1.4,0.3l5.3-3.1c0.5-0.3,0.7-1,0.4-1.5
					c-0.2-0.3-0.5-0.5-0.8-0.5l2.6-2.7c0.4-0.4,0.4-1,0.1-1.4C370.8,264.2,370.2,264.1,369.7,264.3z M125.3,72.9
					c0.1,0,0.1,0.1,0.2,0.1l-2.9,1.7L125.3,72.9z M115.2,140.7l-55.1,32.9c-0.1,0.1-0.2,0.1-0.3,0.2c0-0.1,0-0.1-0.1-0.2
					c-0.2-0.3-0.5-0.5-0.8-0.5c0,0,0,0,0.1,0L115.2,140.7z M290.4,270.4l19.9-11.8c0,0,0,0.1,0,0.1c0,0,0.1,0.1,0.1,0.1L290.4,270.4
					z"/>
				<path class="st0" d="M173,62.9c0.2,0,0.4,0,0.5-0.1l17.9-10.3c0.5-0.3,0.7-1,0.4-1.5c-0.3-0.5-1-0.7-1.5-0.4l-11.5,6.7l3.9-4.2
					c0.4-0.4,0.4-1,0.1-1.4c-0.3-0.4-0.9-0.5-1.4-0.3l-6.2,3.6c-0.5,0.3-0.7,1-0.4,1.5c0.3,0.5,0.8,0.7,1.3,0.5l-3.9,4.2
					c-0.4,0.4-0.4,1-0.1,1.4C172.4,62.8,172.7,62.9,173,62.9z"/>
			</g>
			<g>
				<path class="st542" d="M202.5,265.7c0,0,52-13.6,47.6,52.7C250.1,318.4,203.1,283.9,202.5,265.7z"/>
				<g>
					<path class="st667" d="M64.5,155c0,0,13.9-14.7,12.4-16.9c-1.5-2.2-14.7,8.1-14.7,8.1s11.7-25,7.9-26.3
						c-3.9-1.3-13.6,16.1-13.6,16.1s4.3-26.6,0.8-24.8c-3.5,1.8-9.5,23-9.5,23s0.1-20.3-5.7-18.7c-5.8,1.6,0.7,25.2,0.7,25.2
						s-4.8-12.4-9.3-10s8.4,22.3,8.4,22.3s-35.6,77.5,63.3,134.6l33.4-43.1C138.5,244.6,57.3,199.7,64.5,155z"/>
					<path class="st329" d="M53.3,152.3c0.1,0,0.1,0,0.2,0c0.5,0.1,1.1-0.2,1.2-0.8c0-0.2,1-4,7.5-4.4c0.5,0,1-0.5,0.9-1
						c0-0.5-0.5-1-1-0.9c-8.1,0.5-9.3,5.8-9.3,6C52.6,151.7,52.9,152.2,53.3,152.3z"/>
				</g>
				<path class="st681" d="M126.9,431.9c0,0,4.1,56.2,36.2,97.4c0,0,48.1-9.8,59.6-20.1c0,0-7.7-21.7-2.3-35.3
					c0,0,26.4,17.3,47.7,22.5c0,0,34-56.2,36-64c0,0-31.2-14.5-35.7-37.9L126.9,431.9z"/>
				<path class="st542" d="M132.3,474.9c0,0,90.8-29,146.1-64.2c0,0-22.6-92.8-32.8-125.4c0,0-97.8-44.8-120.8-52.1
					C124.8,233,43.8,332.9,132.3,474.9z"/>
				<g>
					<path class="st667" d="M44.9,350.9c0,0-10.6-17.3-13.1-16.3c-2.5,0.9,4,16.4,4,16.4s-21-17.9-23.3-14.5
						c-2.3,3.4,12,17.4,12,17.4s-24.6-11.1-23.7-7.2c0.8,3.9,19.7,15.2,19.7,15.2s-19.6-5.4-19.5,0.6c0.1,6,24.5,5.9,24.5,5.9
						s-13.2,1.4-12.1,6.4c1.1,5,23.7-2.2,23.7-2.2s65.5,54.6,146.5-25.9l-32.8-43.5C150.7,302.9,86.1,369.6,44.9,350.9z"/>
				</g>
				<path class="st667" d="M217.9,217.9L205.7,262l10.3,2.6c0,0-19.7,14-47.2,5.8c-25.9-7.7-13.3-25.2-13.3-25.2l11.5,3.2l21.5-34.5
					L217.9,217.9z"/>
				<path class="st667" d="M299.4,147.5c0,0-2.1-86.8-88.9-90.8c-56-2.5-115.6,85.5-76.4,140.6C183.9,267.2,295.8,220.1,299.4,147.5
					z"/>
				<path class="st689" d="M175.8,234.1c0,0,17,8.6,36.4,4.5l-4.7,15.8l-38.5-9.3L175.8,234.1z"/>
				<path class="st542" d="M233,306.4c0,0-24.6,48.6-65.7,68.7c-46.8,22.9-94.6,20.1-104,13.4c-9.4-6.8-6.5-38.6-3.2-41.5
					c3.3-2.9,98.9-38.7,109.4-60C180.1,265.7,233,306.4,233,306.4z"/>
				<path class="st329" d="M101.6,391.8c0.1,0,0.2,0.1,0.3,0.1c75.1,2,133.6-66.2,134.2-66.8c0.4-0.4,0.3-1-0.1-1.4
					c-0.4-0.4-1-0.3-1.4,0.1c-0.6,0.7-58.5,68.1-132.6,66.1c-0.5,0-1,0.4-1,1C101,391.3,101.3,391.6,101.6,391.8z"/>
				<path class="st329" d="M95.1,331c0.2,0.1,0.3,0.1,0.5,0.1c21.4-3.3,75.2-40.5,77.5-42.1c0.4-0.3,0.6-0.9,0.2-1.4
					c-0.3-0.4-0.9-0.6-1.4-0.2c-0.6,0.4-55.7,38.6-76.7,41.8c-0.5,0.1-0.9,0.6-0.8,1.1C94.5,330.6,94.8,330.9,95.1,331z"/>
				<path class="st542" d="M134.4,236.5c0,0-32.3-17.9-59.1-52.1c-9-11.5-32.4,1.9-39.2,11.5c-6.9,9.6-4,60,65.2,96.7L134.4,236.5z"
					/>
				<path class="st329" d="M104.1,285.5c0,0,0.1,0,0.2,0c0.5,0.1,1.1-0.2,1.2-0.7c0.1-0.4,8.2-36.2,29.5-42.6
					c0.5-0.2,0.8-0.7,0.7-1.2c-0.2-0.5-0.7-0.8-1.2-0.7c-22.4,6.8-30.6,42.6-30.9,44.1C103.4,284.8,103.6,285.3,104.1,285.5z"/>
				<path class="st329" d="M157.6,279.4c19.6,7.8,54.1-5.7,55.7-6.3c0.5-0.2,0.8-0.8,0.6-1.3c-0.2-0.5-0.8-0.8-1.3-0.6
					c-0.4,0.2-40.2,15.6-57.8,4.5c-5-3.2-8.1-7.2-9-11.9c-1.7-8.4,3.8-16.5,3.9-16.5c0.3-0.4,0.2-1.1-0.2-1.4
					c-0.4-0.3-1.1-0.2-1.4,0.2c-0.2,0.4-6.1,8.8-4.2,18.1c1.1,5.3,4.4,9.7,9.9,13.2C154.9,278.2,156.2,278.9,157.6,279.4z"/>
				<path class="st680" d="M228.5,336.5c0,0-62.4,63.8-119.4,59.6c0,0,6,14,22.8,23.2c16.8,9.2,83.5-21,93.5-39.2
					C235.4,361.9,228.5,336.5,228.5,336.5z"/>
				<path class="st334" d="M328.3,171.2c0,0,67.5-71.8-20-108.3c-23.3-9.7-0.6-33.3-29.8-49.4c-53.3-29.5-63.7,18.2-63.7,18.2
					s-1.8-17.6-25.8-9.8s-40.8,49-38.1,57.2c3.3,9.8,18.6-2.9,18.6-2.9s48.7-49.2,85.7,18.1c18,32.7-14.1,63.4,19.7,75
					c0,0-21.7,29.7-11.1,32C274.3,203.6,325.6,236.7,328.3,171.2z"/>
				<path class="st667" d="M254.2,209.4c0,0,32.7-23.2,34.1,5c1.7,34.9-31.3,29.2-42.6,20.1C234.4,225.3,254.2,209.4,254.2,209.4z"
					/>
				<path class="st329" d="M253.2,227.2c0.4,0.1,0.8,0.1,1.1-0.3c8.2-8.9,13.6-10.3,16.8-10c3.5,0.4,5,3.1,5.1,3.1
					c0.3,0.5,0.9,0.6,1.3,0.4c0.5-0.3,0.6-0.9,0.4-1.3c-0.1-0.1-2.1-3.6-6.5-4.1c-5.2-0.6-11.4,3-18.4,10.6c-0.4,0.4-0.3,1,0.1,1.4
					C252.9,227.1,253.1,227.2,253.2,227.2z"/>
				<path class="st683" d="M209.5,175.5c-7.6,6-9,17-3,24.6c6,7.6,17,9,24.6,3c7.6-6,9-17,3-24.6
					C228.2,170.9,217.1,169.5,209.5,175.5z"/>
				<path class="st690" d="M268.7,98.5c0.5,0.2,1.1,0,1.3-0.5c2.9-7,5.6-10.7,7.8-11c2.6-0.3,5.4,3.9,8.7,8.6
					c4.2,6.1,9.4,13.7,17.1,16.7c19.6,7.8,25-4.5,25-4.6c0.2-0.5,0-1.1-0.5-1.3c0,0,0,0,0,0c-0.5-0.2-1.1,0-1.3,0.5l0,0
					c-0.2,0.4-4.7,10.5-22.5,3.5c-7.2-2.8-12.2-10.1-16.2-16c-3.8-5.5-6.8-9.9-10.5-9.5c-3.2,0.3-6.1,4.1-9.5,12.2
					C268,97.7,268.2,98.3,268.7,98.5C268.7,98.5,268.7,98.5,268.7,98.5z"/>
				<path class="st690" d="M259.7,79.5C259.7,79.5,259.7,79.5,259.7,79.5c0.6,0.2,1.1-0.1,1.3-0.6c0-0.1,2.7-8.5,8.3-10.1
					c1.5-0.4,4.8,2.1,8,4.6c5.3,4.2,12,9.3,18.1,7.7c3.6-0.9,6.5-4,8.8-9.3c0.2-0.5,0-1.1-0.5-1.3c-0.5-0.2-1.1,0-1.3,0.5
					c-2,4.7-4.5,7.4-7.4,8.2c-5.2,1.3-11.4-3.5-16.4-7.4c-4.1-3.2-7.3-5.7-9.7-5c-6.6,1.9-9.5,11-9.7,11.4
					C259,78.8,259.2,79.3,259.7,79.5z"/>
				<path class="st690" d="M245.7,67.4c0.2,0.1,0.3,0.1,0.5,0.1c0.5-0.1,0.9-0.6,0.8-1.1c-1.5-10.4-1-16.4,1.6-18.4
					c2.6-2,7.7,0.1,13,2.4c4.3,1.8,8.8,3.7,13.1,4c4.6,0.3,8.3-0.8,11.2-3.3c4.9-4.3,5.3-11,5.3-11.3c0-0.5-0.4-1-0.9-1
					c-0.5,0-1,0.4-1,0.9c0,0.1-0.4,6.2-4.6,10c-2.4,2.1-5.7,3.1-9.7,2.8c-4-0.3-8.3-2.1-12.5-3.9c-5.9-2.5-11.5-4.8-15-2.1
					c-3.2,2.5-4,8.9-2.3,20.3C245.1,67,245.4,67.3,245.7,67.4z"/>
				<path class="st690" d="M311,165.8c6.3,2.5,11.7,2.5,16,0.1c7.1-4.1,8.6-13.4,8.6-13.8c0.1-0.5-0.3-1-0.8-1.1
					c-0.5-0.1-1,0.3-1.1,0.8c0,0.1-1.4,8.8-7.7,12.4c-3.8,2.2-8.8,2.1-14.6-0.3c-8.9-3.6-12.2-10.9-14.9-16.7
					c-2-4.4-3.8-8.2-7.4-9.4c-2.7-0.9-6.1-0.2-10.7,2.3c-0.5,0.3-0.7,0.9-0.4,1.3c0.3,0.5,0.9,0.7,1.3,0.4c4-2.2,7-2.9,9.1-2.2
					c2.8,0.9,4.3,4.2,6.2,8.4c2.8,6.1,6.3,13.8,16,17.7C310.8,165.7,310.9,165.7,311,165.8z"/>
				<path class="st690" d="M303.3,188c3.4,1.4,6.6,1.6,9.6,0.9c6.3-1.6,9-7.4,9.1-7.7c0.2-0.5,0-1.1-0.5-1.3c-0.5-0.2-1.1,0-1.3,0.5
					c0,0.1-2.5,5.2-7.9,6.6c-4.1,1.1-8.9-0.3-14.3-4.1c-7.2-5.2-11.2-11.3-14.4-16.2c-3.9-6-6.9-10.7-13.3-6.6
					c-0.5,0.3-0.6,0.9-0.3,1.4c0.3,0.5,0.9,0.6,1.4,0.3c4.5-2.9,6.3-0.7,10.6,6c3.1,4.8,7.3,11.3,14.9,16.7
					C299.2,186,301.3,187.2,303.3,188z"/>
				<path class="st690" d="M210.6,60.1c0.3,0.1,0.6,0.1,0.8-0.1c0.5-0.3,0.6-0.9,0.4-1.3c-3.8-6.8-4.8-12.1-2.9-15.9
					c2-4.2,6.9-5,6.9-5c0.5-0.1,0.9-0.6,0.8-1.1c-0.1-0.5-0.6-0.9-1.1-0.8c-0.2,0-5.9,1-8.4,6.1c-2.1,4.4-1.1,10.4,3,17.7
					C210.2,59.8,210.4,60,210.6,60.1z"/>
				<path class="st329" d="M167.3,175c0.8,0,1.6-0.1,2.5-0.3c9-1.9,16.6-13.2,16.9-13.7c0.3-0.5,0.2-1.1-0.3-1.4
					c-0.5-0.3-1.1-0.1-1.5,0.3c-0.1,0.1-7.5,11.1-15.6,12.8c-2.4,0.5-4.6,0.1-6.6-1.1c-10.5-6.5-8.3-20.6-8.3-20.8
					c0.1-0.5-0.3-1-0.9-1.1c-0.6-0.1-1.1,0.3-1.2,0.8c-0.1,0.6-2.4,15.6,9.3,22.7C163.4,174.5,165.3,175,167.3,175z"/>
				<path class="st334" d="M199.1,133.4c-2.5,3.8-2.1,9.4,0.9,12.5c3,3.1,7.4,2.6,9.9-1.2c2.5-3.8,2.1-9.4-0.9-12.5
					C206,129.1,201.6,129.6,199.1,133.4z"/>
				<path class="st334" d="M154.4,108.2c-2.5,3.8-2.1,9.4,0.9,12.5c3,3.1,7.4,2.6,9.9-1.2c2.5-3.8,2.1-9.4-0.9-12.5
					C161.3,103.9,156.8,104.4,154.4,108.2z"/>
				<path class="st329" d="M170.1,153.1c0.1,0,0.2,0,0.3-0.1c0.4-0.2,0.6-0.8,0.5-1.3l-4.3-15.1l8,6.7c0.2,0.2,0.4,0.2,0.6,0.1
					c0.2-0.1,0.4-0.2,0.5-0.5l6.5-14.9c0.2-0.5,0.1-1.1-0.3-1.3c-0.4-0.3-0.9-0.1-1.1,0.4l-6.1,14l-9.2-7.7c-0.3-0.2-0.6-0.2-0.9,0
					c-0.3,0.3-0.4,0.7-0.3,1.1l5.1,17.9C169.4,152.9,169.7,153.1,170.1,153.1z"/>
			</g>
		</g>
	</g>
</g>
<g id="Capa_2" class="st991">
</g>
<g id="Capa_4">
</g>
</svg>
