<svg xmlns="http://www.w3.org/2000/svg" viewBox="0 0 156.61 155.18"><defs><style>.cls-1{fill:none;stroke:#fff;stroke-linecap:round;stroke-linejoin:round;stroke-width:0.9px;}.cls-2{fill:#e20613;}.cls-3{fill:#ffc800;}.cls-4{fill:#009ee2;}</style></defs><title>organizaciones cifras</title><g id="Capa_2" data-name="Capa 2"><g id="Capa_1-2" data-name="Capa 1"><polyline class="cls-1" points="100.65 150.16 113.94 142.49 102.23 150.78 114.52 143.69 103.44 151.25 114.88 144.65 105.21 151.82 115.33 145.98 106.44 152.21 115.54 146.95 108.42 152.62 115.76 148.38 110.04 152.83 115.63 149.6 112.78 152.59 114.92 151.36"/><polyline class="cls-1" points="121.9 125.14 144.48 112.11 123.09 125.77 145.1 113.06 124.09 126.29 145.62 113.86 125.35 126.95 146.26 114.88 126.66 127.61 146.85 115.95 128.64 128.52 147.72 117.51 130.61 129.41 148.46 119.1 132.4 130.11 149.09 120.47 133.6 130.59 149.44 121.45 134.76 130.99 149.75 122.34 136.32 131.48 150.11 123.52 138.59 132.1 150.47 125.24 140.79 132.57 150.57 126.92 143.23 132.79 150.35 128.67 145.49 132.66 149.69 130.23"/><polyline class="cls-1" points="104.53 128.91 141.35 107.65 105.58 129.4 141.93 108.42 107.56 130.32 143.01 109.86 108.76 130.81 143.57 110.71 110.56 131.5 121.68 125.08 112.27 132.04 122.04 126.4 114.5 132.61 122.33 128.09 116.55 132.93 122.28 129.62 119.42 132.68 121.55 131.45"/><polyline class="cls-1" points="73.39 145.48 140.62 106.67 75 146.46 104.67 129.33 76.68 147.49 105.81 130.67 78.42 148.49 106.96 132.02 80.23 149.5 108.06 133.43 82.08 150.47 109.15 134.84 83.66 151.24 110.02 136.02 84.85 151.82 110.64 136.93 86.63 152.55 111.51 138.19 87.75 153 112.01 139 89.36 153.56 112.67 140.11 91.67 154.25 113.53 141.63 94.26 154.7 100.29 151.22 96.38 154.73 99.79 152.76"/><polyline class="cls-1" points="127.96 85.4 150.4 72.44 129.52 86.19 151.17 73.69 131.28 87.09 152.05 75.1 132.99 87.91 152.8 76.48 134.27 88.5 153.34 77.5 135.72 89.17 153.94 78.65 137.27 89.8 154.46 79.87 139.4 90.63 155.15 81.54 141.09 91.19 155.55 82.85 142.93 91.76 155.94 84.25 144.82 92.21 156.14 85.68 147.6 92.67 156.16 87.72 150.13 92.74 155.73 89.51"/><polyline class="cls-1" points="140.83 59.62 148.62 55.12 142.92 59.89 148.48 56.67 145.57 59.59 147.75 58.34"/><polyline class="cls-1" points="4.03 73.97 6.17 72.74 3.33 75.63 8.74 72.5 3.27 77.44 113.31 13.9 3.45 78.73 114.38 14.68 3.97 80.4 115.89 15.78 4.43 81.61 117 16.62 4.86 82.55 117.86 17.31 5.46 83.79 119.01 18.23 5.93 84.61 119.8 18.87 6.65 85.86 121 19.83 7.4 87.06 122.18 20.79 7.94 87.86 122.95 21.46 8.79 89.12 124.15 22.51 9.41 89.97 124.97 23.24 10.05 90.81 125.81 23.98 10.79 91.8 126.78 24.83 7.79 94.67 127.56 25.52 7.16 96.16 128.28 26.23 6.98 97.92 129.36 27.27 7.21 99.59 130.52 28.39 7.5 100.85 131.45 29.29 7.93 102.19 132.47 30.29 8.52 103.67 133.58 31.47 9.06 104.83 134.47 32.42 9.83 106.36 135.68 33.7 10.33 107.22 136.37 34.45 11.22 108.74 137.54 35.81 11.99 109.92 138.46 36.9 12.67 110.9 139.24 37.83 13.62 112.26 140.32 39.11 14.39 113.36 141.13 40.19 14.97 114.08 141.67 40.94 15.86 115.19 142.51 42.07 16.81 116.37 143.4 43.28 17.73 117.5 144.18 44.49 18.65 118.53 144.91 45.63 19.73 119.71 145.7 46.98 20.56 120.62 146.28 48.04 21.77 121.95 147.06 49.62 23.1 123.27 147.78 51.28 24.25 124.4 148.23 52.82 25.38 125.51 148.54 54.4 26.5 126.61 141.16 60.41 27.68 127.66 142.16 61.57 28.59 128.46 142.91 62.45 29.46 129.23 143.64 63.31 30.68 130.31 144.62 64.53 31.69 131.19 145.41 65.53 32.55 131.88 146.05 66.35 33.83 132.9 147 67.57 34.61 133.53 147.55 68.32 35.55 134.27 148.2 69.23 36.71 135.19 149 70.36 38.29 136.34 150.02 71.84 39.19 136.99 127.54 85.98 40.46 137.9 126.47 88.24 41.28 138.49 125.44 89.9 42.74 139.48 126.61 91.06 43.92 140.23 127.52 91.97 45.41 141.18 128.67 93.11 46.59 141.93 129.58 94.02 47.6 142.55 130.34 94.78 49.4 143.54 131.57 96.1 50.87 144.35 132.56 97.18 52.14 145.06 133.43 98.12 53.21 145.55 134.1 98.85 54.64 146.22 135 99.82 56.36 147.01 136.02 101.02 57.62 147.51 136.71 101.85 59.15 148.08 137.54 102.83 60.33 148.51 138.16 103.58 61.71 148.88 138.82 104.36 63.15 149.26 139.5 105.18 65.44 149.62 140.38 106.36 69.1 149.53 72.24 147.72"/><polyline class="cls-1" points="1.24 52.77 3.37 51.54 0.45 55.29 7.18 51.41 0.58 56.92 9.4 51.83 0.76 58 10.75 52.24 1.13 59.04 12.15 52.67 1.74 60.67 14.2 53.48 2.53 62.28 16.26 54.35 3.06 63.32 17.53 54.97 3.92 64.73 19.32 55.84 4.43 65.59 20.35 56.4 5.24 66.81 21.84 57.23 5.82 67.63 22.86 57.79 6.48 68.58 107.78 10.1 7.28 69.66 109.02 10.92 7.94 70.5 110.01 11.57 9.01 71.86 111.59 12.64"/><polyline class="cls-1" points="23.04 50.4 25.16 49.18 22.27 52.7 28.66 49.01 22.33 54.29 103.46 7.45 22.72 56.09 105.21 8.46 23.18 57.39 106.52 9.28"/><polyline class="cls-1" points="80.5 1.93 82.7 0.66 79.7 4.02 85.88 0.45 79.67 5.59 88.02 0.77 79.94 7.25 90.23 1.31 80.44 8.85 92.3 2.01 81.1 10.43 94.31 2.8 81.72 11.81 96.05 3.53 82.53 13.24 97.82 4.41 83.15 14.35 99.19 5.09 83.7 15.21 100.28 5.64 84.55 16.51 101.85 6.52 85.09 17.35 102.85 7.09"/><polyline class="cls-1" points="23.22 30.49 25.34 29.26 22.49 32.32 28.2 29.02 22.42 33.84 30.23 29.33 22.65 35.32 32.19 29.81 22.95 36.31 33.53 30.21 23.34 37.51 35.04 30.76 23.9 38.76 36.66 31.4 24.51 40.07 38.29 32.12 25.03 41.01 39.47 32.68 25.78 42.3 41.08 33.46 26.62 43.65 42.72 34.35 27.25 44.57 43.87 34.98 27.8 45.39 79.62 15.47 28.54 46.45 81.29 15.99 29.21 47.31 82.58 16.5 30.05 48.42 84.22 17.14 30.63 49.18 103.18 7.29"/><polyline class="cls-1" points="66.36 15.77 68.64 14.45 65.2 17.63 71.48 14"/><polyline class="cls-1" points="37.87 13.17 40.16 11.84 36.51 15.96 44.3 11.46 36.36 17.38 46.28 11.65 36.45 18.53 47.8 11.97 36.73 20.17 49.99 12.52 37.05 21.39 51.57 13 37.38 22.44 52.95 13.45 37.77 23.4 54.17 13.93 38.36 24.89 56.06 14.67 39.04 26.24 57.77 15.42 39.8 27.73 59.64 16.28 40.38 28.78 60.95 16.9 40.99 29.77 62.19 17.53 41.49 30.6 63.21 18.05 42.05 31.53 64.37 18.65 42.87 32.74 74.86 14.27 43.63 33.85 76.82 14.69 44.18 34.65 78.17 15.02"/><path class="cls-2" d="M69.46,101.91c.48.17,7.73,15.46,11.11,15s5.15-1.61,6.76-1.77,3.38-.48,4.5.16,1.45.33,2.26,1,1.29.16,1.29,1.13a49.74,49.74,0,0,1-1.78,6.11v1.77l6.93,1.93,3.21-17.7s.33-4.51-.64-5.63a10.6,10.6,0,0,0-4-3.06,48.5,48.5,0,0,0-4.83-1c-.65-.16-26.88,1-26.88,1Z"/><path class="cls-3" d="M44.51,68.76a36.79,36.79,0,0,0,.65-5c.48-4.67,1.28-6-.49-8.53s-2.57-3.06-2.89-4.83-1.93-3.54-.81-5.15,1.29-1.45,1.61-3.06.65-8.37,2.09-6.76,7.25,6.28,7.57,3.06-.16-5,.8-5.15,1.77.64,2.9-.65A12.56,12.56,0,0,0,58,29.81c.16-.49,2.26-9,5.64-10.31s6.76-.64,10.14-2.09a19.16,19.16,0,0,0,5.31-3.06c.8-.64,3.86-5,5.95-5.63s3.55-1.77,4.67.64,2.42,2.42,1.13,3.87-2.25,1.28-3.22,2.25a28.11,28.11,0,0,1-2.58,2.74c-1.93,1.77-3,1.93-4,3.38S76.7,29,76.7,30.93s-1.61,1.77.81,3.38,5.63,5.15,5.63,7.08-.16,5.15,1.29,5.8a9.5,9.5,0,0,0,5.15.16c1-.32,4.51.16,6.92,1.93s3.06,3.22,4.51,4,4.51.8,6.92.16,5.79-1.45,7.56-.49,2.1,1.93,1.13,3.54-1.29,8-.16,10,1.61,2.58,1.61,3.06v1L44.35,71Z"/><path d="M88.69,5.74a7.2,7.2,0,0,1,5.1,6.11c.38,3-1.22,4.78-4.26,4.75a2,2,0,0,0-2,1.09,12.48,12.48,0,0,1-4.4,4.5,8.25,8.25,0,0,0-2.66,3.29,55.51,55.51,0,0,0-2.43,6.8,1.63,1.63,0,0,0,.47,1.39c.67.62,1.53,1,2.26,1.6,2.72,2.18,4.39,4.86,4,8.53A17.71,17.71,0,0,0,85,46.72c3.85-1.29,7.54-1.06,11.23-.69a3.25,3.25,0,0,1,1.85.91,56.72,56.72,0,0,1,4.06,4.29,2.3,2.3,0,0,0,2.87.69,58.58,58.58,0,0,1,6.72-1.83,10.75,10.75,0,0,1,3.83.12c3.22.57,4.44,3.23,2.81,6.17a10.68,10.68,0,0,0-1.24,6.4,8.26,8.26,0,0,0,2.14,5,4.49,4.49,0,0,1,1.18,4c-.14.91-.21,1.84-.44,2.74a1.7,1.7,0,0,0,1.39,2.4c3.89,1,7.2,7.66,6.67,11.07a6.14,6.14,0,0,1-4.88,5.28,3.26,3.26,0,0,1-3.91-2.55A14.26,14.26,0,0,0,116,84.87a8.77,8.77,0,0,1-5.51,1.07c-2.16-.09-4.33,0-6.54,0a2.35,2.35,0,0,0,.67,2.59,7.62,7.62,0,0,1,2.46,4.85,2.47,2.47,0,0,1-2.88,2.93,6.76,6.76,0,0,0-1.91,0,2.06,2.06,0,0,0-1.56,2c-.08,1,.66,1.2,1.37,1.34a4.33,4.33,0,0,1,3.74,4.26,27.57,27.57,0,0,1,0,5.14c-.25,2.15-.77,4.27-1.2,6.4a1.88,1.88,0,1,1-3.66-.69c.38-2.13.91-4.24,1.19-6.38a26.53,26.53,0,0,0,0-4.18c0-.24-.21-.64-.38-.67-1.64-.35-2.92-1.57-4.74-1.54-6.92.09-13.84,0-20.76,0l-6,0c.29.53,4,4.34,4.18,4.66,2.55,4,2.9,5.29,6.44,8.37.54.47,4.62-.65,5.33-1,2.18-1,4.32-1.33,6.5.18a15.79,15.79,0,0,0,2.9,1.15c2.16.92,2.81,2.28,2.16,4.53-.23.77-.52,1.53-.8,2.28s-.58,1.49-.93,2.35l2.89.59c.14-.6.22-1.15.39-1.68a1.83,1.83,0,0,1,3.61.59,18.83,18.83,0,0,1-.68,3.42,2.66,2.66,0,0,1-3.4,1.68,36,36,0,0,0-4.1-.88c-2.59-.39-3.53-2-2.52-4.37.59-1.41,1.16-2.83,1.72-4.24a6.67,6.67,0,0,0,.21-.76c-1.47-.65-2.89-1.36-4.38-1.89a2.83,2.83,0,0,0-1.62.27c-1.82.63-3.6,1.39-5.44,1.94-2.84.85-5.46.17-7-2.32-2.06-3.24-4.71-6-6.92-9-3.21-4.45-7.67-6.55-12.58-8.09a13.49,13.49,0,0,0-3.82-.41,11.72,11.72,0,0,1-6.49-2,32.25,32.25,0,0,0-7.19-3.6c-6.07-2.17-7.56-6.94-4-12.33a14.11,14.11,0,0,1,5-4.29c3.77-2.19,3.26-1.36,2.66-5.35a11.53,11.53,0,0,1,1.25-7.56c1.73-3.16.85-8.08-1.53-10.69a10.52,10.52,0,0,1-2.76-7.52c0-1,.81-1.9,1.24-2.86A3.37,3.37,0,0,0,41,42.09,20.49,20.49,0,0,0,40.75,39a6.79,6.79,0,0,1,1.19-5,3,3,0,0,1,4.94-.59,13.52,13.52,0,0,1,1.49,1.88c.45.61.85,1.25,1.43,2.11.19-1,.3-1.66.47-2.34.78-3.15,2.2-4.38,5.39-4.64.63-.05,1-.24,1-.91a13.69,13.69,0,0,1,.14-1.56,1.74,1.74,0,0,1,1.8-1.62,1.61,1.61,0,0,1,1.79,1.59c.1,3.86-.85,6.07-4.77,6.15a1.38,1.38,0,0,0-1.5,1.09,9.68,9.68,0,0,0-.41,2.71,3.15,3.15,0,0,1-1.43,3.1,3.07,3.07,0,0,1-3.63,0,24.28,24.28,0,0,1-3-3.07,5.3,5.3,0,0,0-1-1.09,11.21,11.21,0,0,0-.19,1.61c0,1.52.2,3,.19,4.57A3.81,3.81,0,0,1,43.24,46a.83.83,0,0,0-.29.71c.55,1.49.81,3.27,1.81,4.37A13.23,13.23,0,0,1,48,62c-.2,1.74-1.1,3.4-1.67,5.1-.14.41-.26.82-.43,1.36h69.29a14.85,14.85,0,0,1-1.79-7.29A13.7,13.7,0,0,1,115.52,54a9.13,9.13,0,0,0-5.92.17c-1.77.51-3.51,1.13-5.3,1.58a4,4,0,0,1-4-1.32c-1.34-1.39-2.62-2.83-4-4.18a2.75,2.75,0,0,0-1.64-.76c-2.89-.12-5.77-.33-8.59.73a3,3,0,0,1-4-1.81,11.61,11.61,0,0,1-.84-4.66A6.18,6.18,0,0,0,78.39,38c-.71-.52-1.48-1-2.18-1.51a4.32,4.32,0,0,1-1.7-5.22c.78-2.41,1.65-4.78,2.54-7.15a10.27,10.27,0,0,1,4.78-5.54,6.13,6.13,0,0,0,1.93-1.76c2.39-3.4,2.37-3.42,6.27-4A3.11,3.11,0,0,0,88.34,9.6a3.81,3.81,0,0,0-3.91,1.17A20.12,20.12,0,0,0,83.06,13,13.94,13.94,0,0,1,76.57,19a7.32,7.32,0,0,1-4.45.67c-3.33-.55-6.48-.27-9.19,2.09a1.68,1.68,0,0,1-2.64-.3,1.86,1.86,0,0,1,.49-2.65A13,13,0,0,1,71.62,15.9c3.76.6,6-1.56,8-4.23a1.45,1.45,0,0,0,.18-.32c1.33-3,3.4-5,6.72-5.61ZM46.36,72.44a1.86,1.86,0,0,0-.07.41c0,.2.05.4.08.6a5,5,0,0,1-2.6,5.71,35.64,35.64,0,0,0-3.2,1.92A11.89,11.89,0,0,0,38,83.39c-2.53,3.39-1.79,5.65,2.17,7.07l.34.14a50.88,50.88,0,0,1,6,2.93,13.2,13.2,0,0,0,7.24,2.21,19,19,0,0,1,7.77,1.93,5.25,5.25,0,0,0,2.05.51q16.23.06,32.46.06c.31,0,.62,0,1-.08.41-3.49,2.47-5.3,6.22-5.8a17.11,17.11,0,0,0-1.9-1.62,2.07,2.07,0,0,1-1.18-1.93c0-1.37,0-2.74,0-4.11,0-2,.55-2.51,2.5-2.51,3.06,0,6.12.07,9.17.07a3.08,3.08,0,0,0,1.71-.34c2-1.52,3-1.54,4.88.21a17.53,17.53,0,0,1,4.1,6.47c.12.31.27.61.42.92a2.84,2.84,0,0,0,1.28-3.72c-.82-2.59-2.07-4.8-4.91-5.81a4.4,4.4,0,0,1-3.08-5.12c.09-.8.24-1.58.37-2.43Z"/><path d="M74.14,62.28a5.63,5.63,0,0,1-4.27-1.86,1.85,1.85,0,0,1-.1-2.6,1.8,1.8,0,0,1,2.59-.09c1.57,1.19,1.92,1.19,3.56,0a1.83,1.83,0,0,1,2.49,2.68A5.64,5.64,0,0,1,74.14,62.28Z"/><path d="M87.34,58.15c.07,1.94-.57,2.92-1.84,2.89s-1.84-1-1.84-2.87a9.72,9.72,0,0,1,0-1.43,1.77,1.77,0,0,1,1.93-1.6,1.72,1.72,0,0,1,1.7,1.69C87.38,57.27,87.34,57.71,87.34,58.15Z"/><path d="M60.88,58a12,12,0,0,1,0-1.2,1.69,1.69,0,0,1,1.72-1.66,1.77,1.77,0,0,1,1.92,1.6,16,16,0,0,1,0,2.4,1.84,1.84,0,1,1-3.68-.06c0-.36,0-.72,0-1.08Z"/><path class="cls-4" d="M46.36,72.44h70.25c-.13.85-.28,1.63-.37,2.43A4.4,4.4,0,0,0,119.32,80c2.84,1,4.09,3.22,4.91,5.81A2.84,2.84,0,0,1,123,89.52c-.15-.31-.3-.61-.42-.92a17.53,17.53,0,0,0-4.1-6.47c-1.83-1.75-2.86-1.73-4.88-.21a3.08,3.08,0,0,1-1.71.34c-3,0-6.11-.06-9.17-.07-2,0-2.49.56-2.5,2.51,0,1.37,0,2.74,0,4.11a2.07,2.07,0,0,0,1.18,1.93,17.11,17.11,0,0,1,1.9,1.62c-3.75.5-5.81,2.31-6.22,5.8-.36,0-.67.08-1,.08q-16.23,0-32.46-.06a5.25,5.25,0,0,1-2.05-.51,19,19,0,0,0-7.77-1.93,13.2,13.2,0,0,1-7.24-2.21,50.88,50.88,0,0,0-6-2.93l-.34-.14c-4-1.42-4.7-3.68-2.17-7.07a11.89,11.89,0,0,1,2.58-2.31,35.64,35.64,0,0,1,3.2-1.92,5,5,0,0,0,2.6-5.71c0-.2-.06-.4-.08-.6A1.86,1.86,0,0,1,46.36,72.44Z"/></g></g></svg>