<svg xmlns="http://www.w3.org/2000/svg" viewBox="0 0 171.54 164.33"><defs><style>.cls-1{fill:none;stroke:#fff;stroke-linecap:round;stroke-linejoin:round;stroke-width:0.99px;}.cls-2{fill:#475d6d;}.cls-3{fill:#2c3f4f;}.cls-4{fill:#f9dc6a;}.cls-5{fill:#e5ac51;}.cls-6{fill:#2bb4f3;}.cls-7{fill:#1687c4;}.cls-8{fill:#f2a077;}.cls-9{fill:#fca;}.cls-10{fill:#ff5a59;}.cls-11{fill:#ce3a4c;}</style></defs><title>participantes cifras</title><g id="Capa_2" data-name="Capa 2"><g id="Capa_1-2" data-name="Capa 1"><polyline class="cls-1" points="50.26 14.67 63.87 6.82 38.17 23.63 75.53 2.06 32.79 28.3 80.31 0.86 29.72 31.23 82.93 0.51 25.46 35.71 86.45 0.5 22.2 39.61 88.88 1.12 20.32 42.17 90.2 1.82 18.75 44.6 91.2 2.77 17.07 47.77 92.02 4.49 16.17 50.11 92.22 6.21 15.75 51.66 96.88 4.82 15.56 53.69 103.94 2.66 15.72 55.05 107.35 2.15 16.35 56.52 110.41 2.22 17.11 57.45 112.02 2.65 18.13 58.2 113.19 3.31 17.1 60.47 114.18 4.42 12.88 64.78 114.67 6.01 10.36 67.63 114.67 7.4 7.27 71.54 114.12 9.84 5.73 73.84 120.97 7.31 4.42 76.14 126.69 5.55 3.34 78.55 130.97 4.87 2.71 80.92 134.26 4.97 2.66 82.48 135.91 5.55 3.09 84.09 137.26 6.63 3.61 84.94 137.74 7.51 4.83 85.86 138.09 8.92 6.5 86.61 138.01 10.68 4.08 90.04 137.32 13.12 2.61 92.45 136.37 15.23 1.41 94.96 134.77 17.97 0.85 96.49 133.46 19.93 0.5 98.99 130.07 24.18 0.59 100.24 127.65 26.88 1.48 101.84 128.03 28.77 2.86 102.87 130.93 28.92 4.93 103.44 132.81 29.61 7.35 103.53 133.82 30.5 12.72 102.65 134.7 32.23 23.8 98.52 134.69 34.49 26.73 98.26 134.29 36.16 24.64 101 133.49 38.16 22.57 104.17 139.91 36.42 21.49 106.15 144.72 35 20.39 109.03 149.81 34.3 20.03 111.37 152.83 34.7 20.15 112.71 154.22 35.3 20.69 114 155.3 36.28 21.54 114.83 155.78 37.33 23.37 115.74 156.03 39.15 25.01 115.99 155.84 40.45 26.73 116.96 155.13 42.83 23.26 120.93 153.82 45.55 20.12 124.91 151.69 48.95 18.33 127.42 149.73 51.56 16.21 130.84 145.96 55.92 14.64 133.92 149.97 55.79 13.78 136.04 155.34 54.32 13.19 138.07 159.51 53.6 12.97 140.01 162.91 53.45 13.08 141.62 165.31 53.73 13.42 142.9 166.97 54.24 14.18 144.25 168.54 55.13 15.1 145.15 169.49 56.01 16.21 145.79 170.02 56.99 18.25 146.48 170.53 58.56 20.6 146.76 170.68 60.11 23.95 146.64 170.4 62.09 27.23 146.14 169.97 63.73 31.62 145.07 169.34 65.56 36.75 143.39 168.49 67.33 48.54 138.25 167.22 69.73 65.36 130.53 165.25 72.86 66.62 132.05 162.42 76.74 67.58 132.69 160.63 78.97 66.54 135.39 157.05 83.14 63.39 139.15 157.8 84.64 61.68 141.3 158.6 85.35 59.52 144.34 159.5 86.61 57.93 146.88 160.01 87.94 56.33 149.83 160.19 89.87 55.44 151.77 160.05 91.37 54.94 153.23 159.72 92.74 54.35 155.78 158.77 95.49 54.25 157.57 157.64 97.87 54.44 159.17 156.21 100.41 55.2 160.81 153.97 103.79 56.51 162.14 155.82 104.81 58.58 163.1 162.1 103.33 61.09 163.56 165.68 103.17 63.79 163.59 167.8 103.54 67.83 163.11 169.5 104.41 71.91 162.17 170.41 105.31 81.19 158.98 171.05 107.1 92.11 154.76 171 109.22 91.42 156.78 170.54 111.1 91.12 159.18 169.27 114.06 91.29 160.55 168.04 116.25 91.71 161.49 166.84 118.12 92.94 162.82 164.11 121.73 94.43 163.49 161.58 124.73 96.41 163.84 158.52 127.97 100.87 163.55 152.47 133.76 106.94 162.02 145.06 140.01 116.52 158.11 134.44 147.76"/><path class="cls-2" d="M109.53,33.33h10.61a6.59,6.59,0,0,1,6,4l.68,1.57h3.21a9.83,9.83,0,0,1,9.83,9.84V84.88a7,7,0,0,1-7,7H97.63a7,7,0,0,1-7-7V52.21A18.88,18.88,0,0,1,109.53,33.33Z"/><path class="cls-3" d="M130.08,38.87h-3.21l-.68-1.57a6.59,6.59,0,0,0-6-4h-5.5a6.61,6.61,0,0,1,6.06,4l.68,1.57h3.2a9.84,9.84,0,0,1,9.84,9.84V84.88a7,7,0,0,1-7,7h5.49a7,7,0,0,0,7-7V48.71A9.83,9.83,0,0,0,130.08,38.87Z"/><path class="cls-4" d="M76.51,38.93,56.39,34.15a6.37,6.37,0,0,0-6,1.68L44.7,41.56H42.28a6.35,6.35,0,0,0-6.35,6.35s-.32,7.79,0,10.36c.38,3.06,3,11.94,3,11.94H81.87l8-31.83a1.77,1.77,0,0,0-2.81-1.81h0A12.36,12.36,0,0,1,76.51,38.93Z"/><path class="cls-5" d="M87.11,36.57h0a12.49,12.49,0,0,1-2.7,1.64l0,.17-8,31.83h5.54l8-31.83A1.77,1.77,0,0,0,87.11,36.57Z"/><path class="cls-6" d="M127.1,97.33H42v12.85H99.7v20h38.84V108.77A11.44,11.44,0,0,0,127.1,97.33Z"/><path class="cls-7" d="M127.1,97.33h-4.89a11.44,11.44,0,0,1,11.44,11.44v21.41h4.89V108.77A11.44,11.44,0,0,0,127.1,97.33Z"/><path class="cls-7" d="M90,110.18v-1.41A11.44,11.44,0,0,0,78.53,97.33H54.88a11.44,11.44,0,0,0-11.44,11.44v1.41Z"/><path class="cls-8" d="M108.38,85.83V99.72c0,3.81,6.9,7.65,6.9,7.65s6.89-3.84,6.89-7.65V85.83Z"/><path class="cls-9" d="M139.36,69.24v2a4.28,4.28,0,0,1-4.28,4.29h-1.46a18.37,18.37,0,0,1-21.15,17.19h0A18.37,18.37,0,0,1,96.94,75.56H95.48a4.29,4.29,0,0,1-4.29-4.29v-2A4.29,4.29,0,0,1,95.48,65h1.43V55.64c0-.25,0-.5,0-.74a41.44,41.44,0,0,0,7.77.73,40.76,40.76,0,0,0,22-6.4,38.2,38.2,0,0,0,4-2.9,16.24,16.24,0,0,1,2.92,9.31V65h1.43A4.28,4.28,0,0,1,139.36,69.24Z"/><path class="cls-8" d="M135.08,65h-1.43v-3.8h0V55.24a16.21,16.21,0,0,0-2.91-8.91,38.2,38.2,0,0,1-4,2.9A16.28,16.28,0,0,1,128,55.64V65l0,10.61a18.38,18.38,0,0,1-15.53,17.19,18.38,18.38,0,0,0,20.78-14.33h0c.09-.45.17-.92.24-1.39v0c0-.2,0-.4.07-.61,0-.05,0-.1,0-.15,0-.22,0-.44.05-.66h1.46a4.28,4.28,0,0,0,4.28-4.29v-2A4.28,4.28,0,0,0,135.08,65Z"/><path class="cls-10" d="M83.68,130.18H37.14V108.77A11.44,11.44,0,0,1,48.58,97.33H72.23a11.45,11.45,0,0,1,11.45,11.44Z"/><path class="cls-11" d="M72.23,97.33H67.34a11.44,11.44,0,0,1,11.44,11.44v21.41h4.9V108.77A11.45,11.45,0,0,0,72.23,97.33Z"/><path class="cls-8" d="M53.52,85.83V99.72a6.89,6.89,0,0,0,6.89,6.9h0a6.89,6.89,0,0,0,6.89-6.9V85.83Z"/><path class="cls-9" d="M84.5,69.24v2a4.29,4.29,0,0,1-4.29,4.29H78.75a18.26,18.26,0,0,1-3.14,9.35h0a18.52,18.52,0,0,1-18,7.83h0A18.37,18.37,0,0,1,42.07,75.56H40.61a4.29,4.29,0,0,1-4.29-4.29v-2A4.29,4.29,0,0,1,40.61,65H42V58.2c4.93-.34,6.52-1.85,6.52-6.71,0,0,6.27,11.17,24.6,7.84A49.19,49.19,0,0,0,78.78,58v7h1.43A4.29,4.29,0,0,1,84.5,69.24Z"/><path class="cls-8" d="M80.21,65H78.78V58a49.19,49.19,0,0,1-5.62,1.38V65l0,10.61A18.35,18.35,0,0,1,57.6,92.75a18.55,18.55,0,0,0,18-7.83h0a17.51,17.51,0,0,0,2.85-7h0c.09-.53.17-1.07.22-1.62v-.06c0-.23,0-.46,0-.69h1.46a4.29,4.29,0,0,0,4.29-4.29v-2A4.29,4.29,0,0,0,80.21,65Z"/><path class="cls-9" d="M41.77,112H37.88a4,4,0,0,1-4-4V99.34a4,4,0,0,1,4-4h3.89a2.93,2.93,0,0,1,2.93,2.93v10.82A2.93,2.93,0,0,1,41.77,112Z"/><path d="M106.9,76.69a8.84,8.84,0,0,0,2,3,9,9,0,0,0,14.76-3,1.6,1.6,0,1,0-3-1.21,5.84,5.84,0,0,1-9.54,1.93,5.62,5.62,0,0,1-1.28-1.92,1.6,1.6,0,0,0-3,1.19Z"/><path d="M106.08,67.74a1.6,1.6,0,0,0,1.6-1.6v-.89a1.6,1.6,0,0,0-3.2,0v.89A1.6,1.6,0,0,0,106.08,67.74Z"/><path d="M124.47,67.74a1.6,1.6,0,0,0,1.6-1.6v-.89a1.6,1.6,0,1,0-3.2,0v.89A1.6,1.6,0,0,0,124.47,67.74Z"/><path d="M60.41,82.33a9,9,0,0,0,8.38-5.63,1.6,1.6,0,0,0-3-1.21,5.84,5.84,0,0,1-9.54,1.93A5.62,5.62,0,0,1,55,75.5a1.6,1.6,0,1,0-3,1.19,9,9,0,0,0,8.38,5.64Z"/><path d="M52.81,66.14v-.89a1.6,1.6,0,0,0-3.2,0v.89a1.6,1.6,0,1,0,3.2,0Z"/><path d="M69.6,67.74a1.6,1.6,0,0,0,1.6-1.6v-.89a1.6,1.6,0,0,0-3.2,0v.89A1.6,1.6,0,0,0,69.6,67.74Z"/><path d="M139.91,54.75a1.6,1.6,0,0,0,1.6-1.6V48.71a11.45,11.45,0,0,0-11.43-11.44h-2.16l-.26-.6a8.19,8.19,0,0,0-7.52-4.94H109.53A20.51,20.51,0,0,0,89,52.21V84.88a8.61,8.61,0,0,0,8.59,8.59h9.15v2.26H68.9V92.67A19.94,19.94,0,0,0,80.21,77.16a5.9,5.9,0,0,0,5.89-5.89v-2a5.87,5.87,0,0,0-1.38-3.78L88.4,50.89a1.6,1.6,0,0,0-3.1-.79L81.89,63.6a5.82,5.82,0,0,0-1.51-.25V58a1.6,1.6,0,0,0-2.07-1.53C69.54,59.11,61.86,59,56.09,56A15.6,15.6,0,0,1,50,50.71a1.6,1.6,0,0,0-3,.79c0,4-.84,4.82-5,5.1a1.6,1.6,0,0,0-1.49,1.6v5.15a5.8,5.8,0,0,0-1.67.3,54.74,54.74,0,0,1-1.26-5.57c-.25-2-.07-8,0-10.1,0,0,0,0,0-.07a4.75,4.75,0,0,1,4.75-4.75H44.7a1.59,1.59,0,0,0,1.13-.47L51.56,37A4.78,4.78,0,0,1,56,35.7l20.12,4.79a14,14,0,0,0,12-2.67.14.14,0,0,1,.19,0c.09.07.08.13.06.18l-1.21,4.79a1.6,1.6,0,0,0,3.11.79l1.21-4.8a3.36,3.36,0,0,0-5.35-3.45,10.85,10.85,0,0,1-6.74,2.35,11.09,11.09,0,0,1-2.5-.29L56.76,32.59a8,8,0,0,0-7.47,2.11L44,40H42.28a8,8,0,0,0-8,7.91,102.6,102.6,0,0,0,0,10.6A59.68,59.68,0,0,0,36,65.61a5.83,5.83,0,0,0-1.26,3.63v2a5.9,5.9,0,0,0,5.88,5.89A20,20,0,0,0,51.92,92.67v3.06H48.58a12.65,12.65,0,0,0-2.88.32,4.51,4.51,0,0,0-3.93-2.29H37.88a5.59,5.59,0,0,0-5.59,5.58v8.71a5.57,5.57,0,0,0,3.25,5.07v17.06a1.6,1.6,0,0,0,1.6,1.6H83.68a1.6,1.6,0,0,0,1.6-1.6V108.77a13,13,0,0,0-4.5-9.84h26v.79c0,4.62,6.93,8.61,7.72,9a1.62,1.62,0,0,0,1.56,0c.79-.44,7.71-4.43,7.71-9v-.79h3.33a9.85,9.85,0,0,1,9.84,9.84v19.81h-4.48V117.86a1.6,1.6,0,0,0-3.2,0v10.72h-28v-18.4a1.6,1.6,0,0,0-1.6-1.6H90.1a1.6,1.6,0,1,0,0,3.2h8v18.4a1.6,1.6,0,0,0,1.6,1.6h38.84a1.6,1.6,0,0,0,1.6-1.6V108.77a13.06,13.06,0,0,0-13-13h-3.33V93.47h9.16a8.6,8.6,0,0,0,8.58-8.59V60.7a1.6,1.6,0,1,0-3.2,0v3.62a5.84,5.84,0,0,0-3.06-1V55.64a17.83,17.83,0,0,0-3.2-10.22,1.61,1.61,0,0,0-1.1-.67,1.56,1.56,0,0,0-1.23.34,39.63,39.63,0,0,1-32.49,8.24,1.58,1.58,0,0,0-1.29.31,1.55,1.55,0,0,0-.61,1.17c0,.26,0,.53,0,.83v7.71a5.9,5.9,0,0,0-3.07,1V52.21a17.31,17.31,0,0,1,17.29-17.28h10.61a5,5,0,0,1,4.59,3l.67,1.57a1.62,1.62,0,0,0,1.47,1h3.21a8.25,8.25,0,0,1,8.23,8.24v4.44A1.6,1.6,0,0,0,139.91,54.75ZM43.66,75.48A1.59,1.59,0,0,0,42.07,74H40.61a2.7,2.7,0,0,1-2.69-2.69v-2a2.7,2.7,0,0,1,2.69-2.69H42a1.6,1.6,0,0,0,1.6-1.6V59.64c3.34-.48,5.21-1.78,6-4.31a20.76,20.76,0,0,0,4.75,3.42c7.47,3.93,16.17,3,22.76,1.32V65a1.6,1.6,0,0,0,1.6,1.6h1.43a2.7,2.7,0,0,1,2.69,2.69v2A2.7,2.7,0,0,1,80.21,74H78.75a1.61,1.61,0,0,0-1.6,1.52A16.79,16.79,0,0,1,66.69,90.15h0a16.75,16.75,0,0,1-12.5,0l-.09,0A16.77,16.77,0,0,1,43.66,75.48ZM60.41,94.57a19.86,19.86,0,0,0,5.29-.72v5.87a5.29,5.29,0,1,1-10.58,0V93.85A19.64,19.64,0,0,0,60.41,94.57ZM35.49,99.34A2.39,2.39,0,0,1,37.88,97h3.89a1.32,1.32,0,0,1,1.33,1.33v10.82a1.33,1.33,0,0,1-1.33,1.33H37.88a2.39,2.39,0,0,1-2.39-2.39Zm46.59,9.43v19.81H77.59V117.86a1.6,1.6,0,0,0-3.2,0v10.72h-28V117.86a1.6,1.6,0,0,0-3.2,0v10.72H38.74V113.64h3a4.53,4.53,0,0,0,4.53-4.53V99.19a10.22,10.22,0,0,1,2.28-.26h3.34v.79a8.49,8.49,0,0,0,14.49,6,8.42,8.42,0,0,0,2.49-6v-.79h3.34A9.85,9.85,0,0,1,82.08,108.77Zm38.49-9c0,1.78-2.88,4.28-5.29,5.79-2.42-1.51-5.3-4-5.3-5.79V93.85a19.83,19.83,0,0,0,10.59,0Zm17.74-14.84a5.39,5.39,0,0,1-5.38,5.39h-5.28c.49-.38.95-.79,1.4-1.21a19.91,19.91,0,0,0,6-11.9,5.88,5.88,0,0,0,3.23-1v8.69ZM92.79,69.24a2.7,2.7,0,0,1,2.69-2.69h1.43a1.6,1.6,0,0,0,1.6-1.6V56.79a44,44,0,0,0,6.19.44,42.81,42.81,0,0,0,25.61-8.53,14.61,14.61,0,0,1,1.74,6.94V65a1.6,1.6,0,0,0,1.6,1.6h1.43a2.69,2.69,0,0,1,2.68,2.69v2A2.69,2.69,0,0,1,135.08,74h-1.46a1.61,1.61,0,0,0-1.6,1.52,16.8,16.8,0,0,1-10.43,14.66l-.08,0a16.76,16.76,0,0,1-12.48,0l-.1,0a16.77,16.77,0,0,1-10.4-14.65A1.59,1.59,0,0,0,96.94,74H95.48a2.7,2.7,0,0,1-2.69-2.69v-2Zm2.68,7.92a19.94,19.94,0,0,0,7.43,13.11H97.63a5.4,5.4,0,0,1-5.39-5.39V76.19A5.88,5.88,0,0,0,95.47,77.16Z"/></g></g></svg>