<svg xmlns="http://www.w3.org/2000/svg" viewBox="0 0 198.53 77"><defs><style>.cls-1{fill:#f4ac0e;}.cls-2{fill:#dd980e;}</style></defs><title>placa-logros</title><g id="Capa_2" data-name="Capa 2"><g id="Capa_3" data-name="Capa 3"><rect class="cls-1" x="9.93" width="178.5" height="77" rx="9.67" ry="9.67"/><rect class="cls-1" y="15.33" width="198.53" height="43" rx="9.67" ry="9.67"/><rect class="cls-2" x="16.33" y="6.5" width="166.46" height="64" rx="9.67" ry="9.67"/><rect class="cls-2" x="4.72" y="19.24" width="189.91" height="35.74" rx="9.67" ry="9.67"/><path class="cls-1" d="M55.87,48.21c-.6,0-1.18-.85-1.73-2.64A29.82,29.82,0,0,1,53,39.07a28.31,28.31,0,0,1,.16-6.45c.3-1.79.74-2.75,1.32-2.89a2.24,2.24,0,0,1,1.23,0,1.44,1.44,0,0,1,.89.74,8.1,8.1,0,0,1,.58,1.13,7.92,7.92,0,0,1,.39,1.73c.11.79.18,1.44.22,1.94s.1,1.27.18,2.3c0,.43,0,.76.06,1a23,23,0,0,1-.14,4.71,14.08,14.08,0,0,1-.88,3.6C56.66,47.73,56.27,48.18,55.87,48.21ZM66.31,46a2.24,2.24,0,0,1,.17.64,1.8,1.8,0,0,1,0,.57,1,1,0,0,1-.27.48,1.77,1.77,0,0,1-.68.43,9.56,9.56,0,0,1-1.31.34,17.59,17.59,0,0,1-2.08.28,25.76,25.76,0,0,1-5.47-.06c-1.54-.22-2.32-.57-2.35-1a1.6,1.6,0,0,1,.45-1.23,3.72,3.72,0,0,1,1.46-.9,12.08,12.08,0,0,1,2.24-.6c.84-.16,1.81-.29,2.9-.39a8.38,8.38,0,0,1,2.13,0,8.84,8.84,0,0,1,1.44.31,2.13,2.13,0,0,1,.9.54A2.15,2.15,0,0,1,66.31,46Z"/><path class="cls-1" d="M82.19,38.71a10.94,10.94,0,0,1-.57,4.86,8.29,8.29,0,0,1-2.35,3.6,5.5,5.5,0,0,1-1.42.93,8.33,8.33,0,0,1-3.41.75,8.61,8.61,0,0,1-3.38-.62,8.85,8.85,0,0,1-2.77-1.85,9.29,9.29,0,0,1-2-2.82,8.37,8.37,0,0,1-.76-2.67,11.79,11.79,0,0,1,1-6.31,9,9,0,0,1,3.61-4,6.75,6.75,0,0,1,5.65-.38,8.75,8.75,0,0,1,2.43,1.35,8.42,8.42,0,0,1,2,2A10.52,10.52,0,0,1,82.19,38.71ZM77,44.59a4.64,4.64,0,0,0,1-2,6.29,6.29,0,0,0,.1-2.56,5.18,5.18,0,0,0-3.36-4.17,2.74,2.74,0,0,0-2.37.09,4.3,4.3,0,0,0-1.86,1.87,6.35,6.35,0,0,0-.79,2.47,5,5,0,0,0,.17,2.27A5.81,5.81,0,0,0,71,44.61a4.29,4.29,0,0,0,1.77,1.27,3.46,3.46,0,0,0,2.27,0A4.21,4.21,0,0,0,77,44.59Z"/><path class="cls-1" d="M98,40.94s.11.09.18.22a2.24,2.24,0,0,1,.15.59,4.82,4.82,0,0,1,0,1,6.13,6.13,0,0,1-.69,2.13,7.27,7.27,0,0,1-4.38,3.63,4.89,4.89,0,0,1-3.76-.35,8.06,8.06,0,0,1-3.18-2.81,11.53,11.53,0,0,1-1.81-4.41A10.63,10.63,0,0,1,84.76,36,8.62,8.62,0,0,1,87,32.05a6.57,6.57,0,0,1,3.12-1.76,7.22,7.22,0,0,1,7,2.06,5.81,5.81,0,0,1,.74.95.64.64,0,0,1,.06.59,1.94,1.94,0,0,1-.64.84.79.79,0,0,1-.75,0,4.6,4.6,0,0,1-.87-.46,8.12,8.12,0,0,0-1.18-.58A4.87,4.87,0,0,0,93,33.38,4.69,4.69,0,0,0,89,35a5.8,5.8,0,0,0-1.5,5.18,6.08,6.08,0,0,0,3.16,4.38,2.71,2.71,0,0,0,1.4.46,4,4,0,0,0,1.48-.18,5.71,5.71,0,0,0,1.33-.62,3.39,3.39,0,0,0,1.06-.94,3,3,0,0,0,.48-1c.08-.29.15-.55.23-.8a.82.82,0,0,1,.43-.51A1.92,1.92,0,0,1,98,40.94Zm.43-.08a1.6,1.6,0,0,1-.8,1.4,5.18,5.18,0,0,1-2.21.94,4.59,4.59,0,0,1-1.5.06,7.37,7.37,0,0,1-1.54-.3,2.92,2.92,0,0,1-1.24-.72,1.78,1.78,0,0,1-.56-1.19,2.83,2.83,0,0,1,.14-1,1.21,1.21,0,0,1,.52-.63,2.52,2.52,0,0,1,.75-.33A3.27,3.27,0,0,1,93,39l1,.08c.31,0,.67.1,1.08.19a13.12,13.12,0,0,1,2.44.62A1.25,1.25,0,0,1,98.46,40.86Z"/><path class="cls-1" d="M108.25,41.61a15,15,0,0,1,2.35,1.79,9.93,9.93,0,0,1,1.65,2,6.2,6.2,0,0,1,.8,1.92,2,2,0,0,1-.26,1.58.92.92,0,0,1-.34.34.62.62,0,0,1-.45,0,2.14,2.14,0,0,1-.52-.22,4.76,4.76,0,0,1-.69-.46c-.29-.21-.55-.42-.8-.61l-1-.79-1.11-.88c-.21-.17-.54-.41-1-.71s-.83-.6-1.21-.9a11.2,11.2,0,0,1-1.09-1,12.29,12.29,0,0,0,0,1.81c0,.54.08,1,.1,1.45a5.08,5.08,0,0,1,0,1.07.91.91,0,0,1-.47.67,2.34,2.34,0,0,1-1.16.22q-.9,0-1.41-4.69a60.09,60.09,0,0,1-.29-9.5q.23-4.8,1.1-5.06c.42-.13.7-.05.86.24a2.33,2.33,0,0,1,.15,1.33l.09-.09a.31.31,0,0,0,.08-.1,4.54,4.54,0,0,1,3.94-2.15,5.46,5.46,0,0,1,4.4,2.68,7.78,7.78,0,0,1,1.25,4.92,5.31,5.31,0,0,1-2,4.17A5.13,5.13,0,0,1,108.25,41.61Zm-1.33-3.72a4.43,4.43,0,0,0,2,.13,1.39,1.39,0,0,0,1.07-.94,3,3,0,0,0-.06-1.77,3.81,3.81,0,0,0-.82-1.48,2.3,2.3,0,0,0-1.18-.73,1.7,1.7,0,0,0-.31-.06,1.83,1.83,0,0,0-.33,0l-.27,0a1.64,1.64,0,0,0-.31.06l-.25.08-.27.1-.23.1-.44.23a21.89,21.89,0,0,1,.32,3.91v0l.13,0A8.71,8.71,0,0,0,106.92,37.89Z"/><path class="cls-1" d="M132,38.71a10.94,10.94,0,0,1-.57,4.86,8.38,8.38,0,0,1-2.35,3.6,5.68,5.68,0,0,1-1.42.93,8.36,8.36,0,0,1-3.41.75,8.58,8.58,0,0,1-3.38-.62,8.89,8.89,0,0,1-2.78-1.85,9.26,9.26,0,0,1-2-2.82,8.64,8.64,0,0,1-.77-2.67,11.52,11.52,0,0,1,.08-3.14,11.21,11.21,0,0,1,1-3.17,8.9,8.9,0,0,1,3.61-4,6.43,6.43,0,0,1,2.77-.81,6.5,6.5,0,0,1,2.88.43,9,9,0,0,1,2.43,1.35,8.38,8.38,0,0,1,2,2A10.44,10.44,0,0,1,132,38.71Zm-5.22,5.88a4.75,4.75,0,0,0,1-2,6.47,6.47,0,0,0,.09-2.56,5.15,5.15,0,0,0-3.35-4.17,2.73,2.73,0,0,0-2.37.09,4.3,4.3,0,0,0-1.86,1.87,6.36,6.36,0,0,0-.8,2.47,5.29,5.29,0,0,0,.17,2.27,5.83,5.83,0,0,0,1.12,2.06,4.27,4.27,0,0,0,1.76,1.27,3.49,3.49,0,0,0,2.28,0A4.21,4.21,0,0,0,126.78,44.59Z"/><path class="cls-1" d="M144.46,41.35a9.78,9.78,0,0,1,.26,1.53,6.55,6.55,0,0,1-.09,1.54,6.35,6.35,0,0,1-.47,1.51,5,5,0,0,1-.84,1.24,4,4,0,0,1-1.59,1.08,8.68,8.68,0,0,1-1.7.38,6.46,6.46,0,0,1-1.14.13,4.27,4.27,0,0,1-1-.08,4.83,4.83,0,0,1-.94-.26,4.89,4.89,0,0,1-1.57-.88,4.06,4.06,0,0,1-1.06-1.25,2.94,2.94,0,0,1-.41-1.31,2.16,2.16,0,0,1,.26-1.2,1.7,1.7,0,0,1,.8-.75,1.22,1.22,0,0,1,1.07,0,1.58,1.58,0,0,1,.54.47,2.7,2.7,0,0,1,.21.31,1.52,1.52,0,0,0,.2.31,1.81,1.81,0,0,0,.47.45,1.26,1.26,0,0,0,.54.22,1.32,1.32,0,0,0,1.33-.62,2.27,2.27,0,0,0,.34-1.12,3.54,3.54,0,0,0-.42-1.74,4.67,4.67,0,0,0-1.12-1.42,7.49,7.49,0,0,0-1.61-1c-1-.48-1.59-.76-1.7-.84a4.39,4.39,0,0,1-1.42-1.16,3.62,3.62,0,0,1-.79-1.65,5.17,5.17,0,0,1,0-1.85,4.73,4.73,0,0,1,.56-1.7,4.22,4.22,0,0,1,1.16-1.31,7.28,7.28,0,0,1,2.3-1,6.6,6.6,0,0,1,2.6-.19,3.94,3.94,0,0,1,2.28,1A2.16,2.16,0,0,1,142,31a1.33,1.33,0,0,1,0,.88,1.5,1.5,0,0,1-.56.77,1.39,1.39,0,0,1-.86.32,2,2,0,0,1-.82-.21c-.07-.05-.19-.11-.37-.21l-.44-.22a3.74,3.74,0,0,0-1.55-.32,2.41,2.41,0,0,0-.82.08,1.67,1.67,0,0,0-.71.37,1.38,1.38,0,0,0-.51.75,1.45,1.45,0,0,0,0,.92,2,2,0,0,0,.49.84,2.83,2.83,0,0,0,.78.58,5.9,5.9,0,0,0,1,.42c.37.12.79.24,1.25.35l1.07.28a7.5,7.5,0,0,1,1.82.84,6.57,6.57,0,0,1,.65.5,4.53,4.53,0,0,1,.59.57,5.84,5.84,0,0,1,.5.67,7.84,7.84,0,0,1,.41.69c.12.24.22.48.32.71S144.39,41.09,144.46,41.35Z"/></g></g></svg>