<?xml version="1.0" encoding="utf-8"?>
<!-- Generator: Adobe Illustrator 22.0.0, SVG Export Plug-In . SVG Version: 6.00 Build 0)  -->
<svg version="1.1" id="Capa_1" xmlns="http://www.w3.org/2000/svg" xmlns:xlink="http://www.w3.org/1999/xlink" x="0px" y="0px"
	 viewBox="0 0 95 122.4" style="enable-background:new 0 0 95 122.4;" xml:space="preserve">
<style type="text/css">
	.st0{fill:#FF1867;}
	.st1{fill:#DCDDEE;stroke:#3F0D0B;stroke-width:1.1154;stroke-linecap:round;stroke-linejoin:round;stroke-miterlimit:10;}
	.st2{fill:#3F0D0B;}
	.st3{fill:#86C8CD;}
	.st4{fill:#5B7976;}
	.st5{opacity:0.4;fill:#FFFFFF;}
	.st6{fill:#86C8CD;stroke:#3F0D0B;stroke-width:1.1154;stroke-linecap:round;stroke-linejoin:round;stroke-miterlimit:10;}
	.st7{fill:#5BCBEA;}
	.st8{fill:#1A1B25;}
	.st9{fill:#03ADF8;}
	.st10{opacity:0.85;fill:#917F86;}
	.st11{opacity:0.55;fill:#E0DBDD;}
	.st12{fill:#FF0029;}
	.st13{opacity:0.55;fill:#E0DBAC;}
	.st14{fill:#21222C;}
	.st15{fill:#C2C2C5;}
	.st16{fill:#FCD212;}
	.st17{fill-rule:evenodd;clip-rule:evenodd;fill:#220501;}
	.st18{fill-rule:evenodd;clip-rule:evenodd;fill:#FF989D;}
	.st19{fill-rule:evenodd;clip-rule:evenodd;fill:#87432A;}
	.st20{fill-rule:evenodd;clip-rule:evenodd;fill:#E9521A;}
	.st21{fill-rule:evenodd;clip-rule:evenodd;fill:#5D1913;}
	.st22{fill-rule:evenodd;clip-rule:evenodd;fill:#FFFFFF;}
	.st23{fill-rule:evenodd;clip-rule:evenodd;fill:#7F252C;}
	.st24{fill:#FFFFFF;}
	.st25{fill-rule:evenodd;clip-rule:evenodd;fill:#2B2626;}
	.st26{fill-rule:evenodd;clip-rule:evenodd;fill:#696969;}
	.st27{fill-rule:evenodd;clip-rule:evenodd;fill:#8C8C8B;}
	.st28{fill-rule:evenodd;clip-rule:evenodd;fill:#3D4D70;}
</style>
<g>
	<path class="st0" d="M94,75.8c-1.7-1.4-5.2-0.2-9.6,2.8c2.5-5.7,3-10,0.9-11.7c-0.5-0.4-1.1-0.6-1.8-0.7c4.5-8.1,6-14.6,3.4-16.8
		c-2.3-1.9-7.3-0.1-13.5,4.3c3.7-6.4,5-11.5,3.1-13.2c-1.9-1.6-6.3,0.3-11.6,4.6c0.5-2.2,0.4-3.9-0.6-4.7c-1-0.8-2.6-0.7-4.7,0.2
		c3.9-6.6,5.3-11.9,3.3-13.6c-1.9-1.6-6.7,0.5-12.2,5c0.2-1.5-0.1-2.7-0.9-3.3c-1.9-1.6-6.2,0.3-11.4,4.4c-0.2-0.8-0.5-1.5-1-2
		c-3.4-2.9-13.6,3.6-22.8,14.4C5.4,56.5,0.8,67.7,4.2,70.6c0.4,0.4,1,0.6,1.6,0.7c-5,7.7-7.2,14.3-4.9,16.2c0.5,0.4,1.2,0.6,2,0.5
		c-1.9,4.3-2.4,7.6-0.9,8.9c2.1,1.8,7.7-1,13.9-6.5c-2.6,5.2-3.4,9.2-1.7,10.6c0.8,0.7,2.2,0.7,4,0.1c-4.6,8.2-6.2,14.8-3.5,17
		c3.7,3.1,14.4-3.4,25.5-15c0.2,0.4,0.4,0.7,0.8,1c0.5,0.4,1.1,0.6,1.8,0.7c-4.5,8.1-6,14.6-3.4,16.8c3,2.5,10.5-1.3,19.2-8.9
		c-0.4,2.1-0.2,3.6,0.8,4.4c3.2,2.7,13.6-4.3,23.2-15.8C92.1,90,97.2,78.5,94,75.8z"/>
	<g>
		<path class="st1" d="M49.4,19.6c0,2-1.7,3.6-3.7,3.6l0,0c-2,0-3.6-1.7-3.6-3.7l0.2-15.3c0-2,1.7-3.6,3.7-3.6l0,0
			c2,0,3.6,1.7,3.6,3.7L49.4,19.6z"/>
		
			<rect x="45" y="5.3" transform="matrix(1.583744e-02 -0.9999 0.9999 1.583744e-02 36.2173 54.7075)" class="st2" width="1.8" height="7.2"/>
		
			<rect x="44.9" y="8.2" transform="matrix(1.575411e-02 -0.9999 0.9999 1.575411e-02 33.2836 57.5108)" class="st2" width="1.8" height="7.2"/>
		<g>
			<g>
				<path class="st2" d="M63,116.9c-0.3,0-0.7-0.2-0.7-0.5l-2.6-23.1c0-0.3-1.1-12.5-0.8-12.5l0,0c0.3,0,2,12.1,2,12.4l2.6,23.1
					C63.6,116.5,63.3,116.8,63,116.9L63,116.9z"/>
				<g>
					<g>
						<g>
							<path class="st3" d="M61.6,114.1c-0.2,0-0.5-0.1-0.6-0.3l-3.2-6.5c0-0.1,0-0.1-0.1-0.2l-0.4-3.2c0,0,0-0.1,0-0.1l-7.7-67.1
								c0-0.1,0-0.3,0.1-0.4c0.1-0.1,0.2-0.2,0.4-0.2l7-0.8c0.3,0,0.6,0.2,0.6,0.5l7.7,67.1c0,0,0,0.1,0,0.1l0.4,3.2
								c0,0.1,0,0.1,0,0.2l-1.7,7c-0.1,0.2-0.2,0.4-0.5,0.4C63.7,113.8,61.6,114.1,61.6,114.1z"/>
							<path class="st2" d="M50.3,36.6l7-0.8l7.7,67.2l0,0l0.4,3.2l-1.7,7l-2.1,0.2l-3.2-6.5l-0.4-3.2l0,0L50.3,36.6 M50.2,35.5
								c-0.3,0-0.5,0.2-0.7,0.4c-0.2,0.2-0.3,0.5-0.2,0.8l7.7,67.1c0,0.1,0,0.1,0,0.2l0.4,3.2c0,0.1,0.1,0.3,0.1,0.4l3.2,6.5
								c0.2,0.4,0.7,0.7,1.1,0.6l2.1-0.2c0,0,0,0,0,0c0.5-0.1,0.8-0.4,0.9-0.8l1.7-7c0-0.1,0-0.3,0-0.4l-0.4-3.2c0-0.1,0-0.1,0-0.2
								l-7.6-67.1c-0.1-0.6-0.6-1.1-1.2-1L50.2,35.5C50.2,35.5,50.2,35.5,50.2,35.5L50.2,35.5z"/>
						</g>
					</g>
					<g>
						<g>
							
								<rect x="50.6" y="38" transform="matrix(0.9935 -0.1135 0.1135 0.9935 -4.0521 6.3923)" class="st2" width="7" height="1.6"/>
						</g>
					</g>
					<polygon class="st4" points="62.2,113.4 60.4,106.8 52.3,36.4 50.3,36.6 58.3,107 61.5,113.5 					"/>
				</g>
				<path class="st5" d="M64.3,107.7c-0.5,0.1-3.8-25.1-5.7-41.5c-1.9-16.4-3-29.8-2.4-29.8c0.5-0.1,2.5,13.2,4.3,29.6
					C62.4,82.5,64.9,107.7,64.3,107.7z"/>
			</g>
			<g>
				<path class="st1" d="M29,102.3l-2.7,11.1c-0.5,2.3-2.5,2.5-2.5,2.5l2.6-14.6L29,102.3z"/>
				<g>
					<g>
						<g>
							<path class="st3" d="M27.5,110.2c-0.1,0-0.1,0-0.2,0l-2.1-0.3c-0.2,0-0.3-0.1-0.4-0.3l-1.9-3.8c-0.1-0.1-0.1-0.2,0-0.3
								l0.5-3.2c0,0,0-0.1,0-0.1l10.8-66.7c0-0.2,0.2-0.4,0.5-0.5c0.1,0,0.1,0,0.2,0l6.9,1.1c0.1,0,0.3,0.1,0.4,0.2
								c0.1,0.1,0.1,0.3,0.1,0.4l-10.8,66.7c0,0,0,0.1,0,0.1l-0.5,3.2c0,0.1-0.1,0.2-0.2,0.3l-3,3C27.7,110.1,27.6,110.2,27.5,110.2
								z"/>
							<path class="st2" d="M34.8,35.5l6.9,1.1l-10.8,66.8l0,0l-0.5,3.2l-3,3l-2.1-0.3l-1.9-3.8l0.5-3.2l0,0L34.8,35.5 M34.6,34.4
								c-0.5,0.1-0.9,0.4-0.9,0.9l-10.8,66.6c0,0.1,0,0.1,0,0.2l-0.5,3.2c0,0.2,0,0.5,0.1,0.7l1.9,3.8c0.2,0.3,0.5,0.6,0.8,0.6
								l2.1,0.3c0.1,0,0.2,0,0.3,0c0.2,0,0.5-0.1,0.6-0.3l3-3c0.2-0.2,0.3-0.4,0.3-0.6l0.5-3.2c0-0.1,0-0.1,0-0.2l10.8-66.6
								c0-0.3,0-0.6-0.2-0.8c-0.2-0.2-0.4-0.4-0.7-0.4L35,34.4C34.9,34.4,34.7,34.4,34.6,34.4L34.6,34.4z"/>
						</g>
					</g>
					<g>
						<g>
							
								<rect x="37" y="35.1" transform="matrix(0.1597 -0.9872 0.9872 0.1597 -6.3181 69.7765)" class="st2" width="1.6" height="7"/>
						</g>
					</g>
					<polygon class="st4" points="26.8,109.5 28.4,106.3 39.7,36.3 41.7,36.6 30.4,106.6 27.4,109.6 					"/>
				</g>
				<path class="st5" d="M24.4,107c0.5,0.1,5-24.9,7.6-41.2c2.6-16.3,4.4-29.6,3.8-29.7c-0.5-0.1-3.1,13.1-5.7,29.4
					C27.5,81.9,23.8,106.9,24.4,107z"/>
			</g>
		</g>
		<path class="st6" d="M58.4,27.5c-0.1,7.1-5.9,12.7-13,12.6c-7.1-0.1-12.7-5.9-12.6-13c0.1-7.1,5.9-12.7,13-12.6
			C52.9,14.6,58.5,20.4,58.4,27.5z"/>
		<path class="st2" d="M53.9,27.4c-0.1,4.6-3.8,8.2-8.4,8.1c-4.6-0.1-8.2-3.8-8.1-8.4c0.1-4.6,3.8-8.2,8.4-8.1
			C50.3,19.1,53.9,22.8,53.9,27.4z"/>
		<path class="st1" d="M50,27.3c0,2.4-2,4.3-4.4,4.3c-2.4,0-4.3-2-4.3-4.4c0-2.4,2-4.3,4.4-4.3C48.1,23,50,24.9,50,27.3z"/>
	</g>
</g>
</svg>
