<svg id="Capa_1" data-name="Capa 1" xmlns="http://www.w3.org/2000/svg" viewBox="0 0 1626.14 209.96"><defs><style>.cls-1,.cls-2{fill:none;stroke:#99c503;stroke-linecap:round;stroke-linejoin:round;}.cls-1{stroke-width:2.99px;}.cls-2{stroke-width:3.16px;}</style></defs><title>tabla_section</title><polyline class="cls-1" points="815.99 69.34 827.88 62.47 819.01 71.52 844.88 56.58 819.46 73.72 853.67 53.96 816.39 78.16 867.56 48.61 821.85 78.85 883.75 43.11 817.51 84.44 889.14 43.09 815.62 89.52 904.85 38 820.25 89.21 914.05 35.05 818.36 94.29 926.02 32.13 819.12 97.73 934.92 30.87 821.84 100.2 946.06 28.48 822.12 104.06 957.08 26.14 816.51 110.41 965.35 24.47 815.6 113.72 975.59 21.35 819.48 115.47 983.51 20.77 817.3 120.61 993.57 18.84 817.61 123 997.34 19.23 815.33 128.82 1008.79 17.13 820.77 128.58 1019.54 13.82 815.77 134.05 1021.39 15.34 817.46 136.39 1028.51 14.54 815.49 139.97 1035.16 13.14 818.61 142.46 1048.86 9.52 821 145.21 1055.59 9.77 818.36 150.9 1066.34 7.72 816.78 154.91 1070.93 8.17 821.22 156.49 1080.54 6.78 821.48 159.93 1082.99 8.95 818.82 163.85 1090.59 6.94 820.49 166.28 1099.29 5.31 815.47 173.41 1106.65 5.3 816.2 175.97 1109.49 6.65 816.82 178.59 1120.47 3.27 820.11 179.96 1125.39 3.7 817.14 185.08 1130.73 4.03 822.16 186.21 1135.6 5.25 817.14 191.87 1140.51 5.17 817.07 196.04 1148.16 4.89 817.44 199.79 1160.75 1.58 815.93 203.93 1160.98 4.71 818.12 206.74 1170.59 3.24 827.04 205.87 1179.73 2.25 835.53 205.32 1187.88 1.89 841.63 204.43 1193.13 1.5 845.07 205.83 1194 4.38 854.42 204.22 1203.67 2.59 856.71 206.31 1210.03 2.32 864.32 205.76 1216.47 2.44 868.4 206.05 1217.64 4.42 874.7 205.03 1221.79 4.64 882.51 204.41 1232.08 2.59 890.2 203.66 1236.3 3.83 890.12 206.55 1241.45 3.71 897.61 206.42 1250.92 2.44 902.96 206.78 1251.56 5.52 907.44 206.95 1255.16 6.2 917.35 205.42 1265.29 4.54 921.16 206.95 1273.83 3.34 928.1 205.25 1275.65 4.59 933.25 205.56 1276.42 7.43 936.66 205.92 1279.66 7.89 944.59 204.91 1289.1 6.01 951.54 205.25 1291.54 8.95 955.07 206.77 1298.31 8.6 961.85 205.97 1303.48 8.73 969.79 203.73 1311.6 6.38 976.68 203.63 1317.14 7.07 981.68 204.99 1323.26 7.78 989.13 204.2 1324.95 10.31 989.95 206.4 1326.63 12.01 998.74 205.34 1333.51 12.06 1006.92 204.6 1340.88 11.78 1008.96 205.94 1344.74 12.07 1017.44 203.81 1349 12.39 1023.84 203.63 1353.4 13.35 1026.86 205.91 1361.81 12.53 1032.47 206.68 1367.44 13.29 1041.84 203.78 1368.31 15.3 1042.93 205.96 1372.1 15.91 1049.76 206.08 1378.94 16.02 1059.26 204.18 1385.09 16.06 1062.29 205.78 1385.05 19.43 1066.43 206.2 1394.27 16.92 1076.5 204.8 1396.88 19.82 1083.95 204.59 1399.49 22.41 1089.78 204.12 1406.28 21.39 1093.87 205.21 1412.34 21.34 1097.26 206.73 1414.15 23.77 1105.2 206.25 1423.83 22.3 1116.1 204.56 1430.58 22.99 1121.67 204.44 1432.64 24.9 1124.27 206.48 1438 25.34 1131.03 206.22 1441.6 26.91 1140.42 205.13 1444.23 29.72 1144.14 206.8 1448.11 31.3 1156.54 204.03 1457.04 30.54 1160.96 204.98 1459.91 32.38 1166.85 206.13 1467.16 32.74 1172.9 205.19 1469.81 33.77 1178.65 204.49 1473.15 34.46 1181.03 206.88 1478.67 35.04 1192.03 204.14 1482.23 36.59 1196.06 205.01 1485.51 37.9 1200.63 206.04 1494.81 36.19 1210.2 203.45 1497.09 37.81 1211.54 206.82 1502.24 38.98 1218.3 205.23 1506.1 39.06 1224.66 205.94 1510.09 41.15 1231.73 205.1 1514.83 41.65 1241.78 203.62 1518.81 43.68 1247.33 204.06 1524.41 44.09 1254.05 204.52 1528.84 45.87 1259.03 204.58 1528.69 48.88 1265.64 204.98 1532.79 50.74 1269.4 205.96 1542.37 48.36 1276.55 204.9 1540.23 52.66 1282.62 205.46 1545.26 53.83 1287.93 205.13 1551.59 52.91 1296.98 204.06 1553.42 56 1300.8 204.52 1557.5 56.32 1301.24 207.18 1565.16 54.8 1310.49 205.24 1564.44 58.62 1315.33 206.55 1573.17 57.69 1324.57 204.19 1573 60.76 1329.9 203.88 1578.28 60.48 1337.93 203.82 1581.57 63.15 1341.74 205.41 1585.01 64.97 1346.16 206.52 1594.52 63.13 1354.48 204.5 1591.13 67.87 1356.26 207.25 1600.11 66.47 1367.89 203.66 1604.66 66.96 1369.94 205.81 1602.77 71.39 1382 203.43 1612.94 70.1 1388 203.41 1612.11 74.01 1395.16 203.79 1617.59 75.37 1397.92 205 1618.55 77.62 1404.98 205.23 1618.4 82.01 1408.27 206.94 1619.38 85.06 1418.2 205.53 1620.58 88.69 1422.04 205.78 1623.47 89.48 1428.71 204.6 1624.6 91.5 1437.11 203.66 1618.28 99.06 1445.17 203.47 1618.93 103.14 1450.99 203.59 1623.27 104.13 1453.2 205.12 1622.84 107.18 1455.45 206.18 1618.48 112.06 1465.4 204.74 1618.7 116.22 1468.89 205.47 1620.72 117.81 1473.38 206.12 1618.47 122.35 1483.33 204.4 1624.08 123.14 1486.04 205.33 1618.59 128.8 1488.44 206.63 1618.68 131.43 1498.43 204.97 1620.12 134.71 1502.39 207.09 1624.58 136.54 1511.36 205.3 1621.13 141.93 1519.22 203.5 1618.58 146.14 1525.16 204.26 1620.17 149.4 1529.05 205.96 1624.64 150.77 1534.6 205.24 1622.64 154.41 1543.38 203.34 1619.83 159.2 1543.97 207.19 1617.98 164.46 1549.57 206.72 1621.09 165.43 1558.64 204.42 1619.45 169.31 1565.91 204.06 1620.8 172.38 1567.58 206.59 1619.83 176.42 1575.23 206.19 1619.41 180.69 1579.81 206.97 1621.46 182.93 1590.07 204.36 1618.6 187.89 1591.26 206.87 1622.4 188.89 1600.73 204.33 1619.51 193.49 1607.98 204.56 1619.23 198.06 1612.97 205.81 1622.07 200.55 1620.17 204.34 1624.39 201.9"/><polyline class="cls-2" points="5.64 69.09 6.04 68.86 3.56 73.76 21.87 63.19 6.88 76.33 42.43 55.81 7.03 79.13 54.4 51.79 6.05 83.27 64.89 49.3 5.61 86.53 77.65 44.94 2.29 91.41 87.87 41.99 3.96 94.81 95.36 42.04 7.91 96.53 106.61 39.54 6.43 100.81 120.05 35.22 4.21 104.88 126.31 34.38 5.26 108.5 140 30.71 4.26 112.07 144.28 31.23 7.02 113.54 156.5 27.24 3.1 120.64 168.12 25.36 6.99 121.04 175.58 23.7 6.03 125.93 181.1 24.86 2.13 131.63 193.18 21.33 7.66 132.6 203.81 19.35 5.55 136.93 211.53 18 5.26 141.91 219.39 18.28 3.75 147.47 230.09 16.79 4.6 149.48 234.1 16.98 5.97 152.36 243.76 15.07 5.97 155.88 252.12 13.77 5.86 159.18 259.98 12.47 7.22 160.92 266.9 10.99 3.7 167.42 275.86 10.29 7.32 169.98 282.95 10.85 5.44 175.03 290.51 10.44 2.48 181.06 296.17 11.5 2.51 185.3 308.72 8.51 1.95 190.17 315.11 9.37 1.58 194.21 324.29 7.89 3.76 197.47 329.64 9.32 2.64 201.18 340.63 6.04 5.47 203.48 345.7 7.05 8.52 204.49 354.14 4.95 12.1 206.3 355.76 7.88 20.2 204.68 364.43 5.94 26.08 205.93 374.23 4.93 32.89 205.98 380.79 5.12 37.98 207.24 386.51 6.02 43.46 207.04 395.67 3.7 47.84 206.98 397.66 5.01 56.45 205.22 405.33 3.79 58.83 206.97 409.1 4.74 71.75 204.24 414.93 6.11 71.46 207.91 420.21 6.56 79.47 208.06 430.15 5.58 88.02 206.79 437.69 4.91 91.78 208.38 446.77 3.42 101.16 205.81 445.89 6.79 106.55 205.62 449.36 7.71 111.56 206.48 462.34 3.96 115.66 207.04 462.91 6.55 121.29 207.67 467.46 7.81 131.39 204.78 478.04 4.64 137.38 205.51 480.97 7.14 144.25 206.4 489.17 7.26 149.63 205.75 496.22 5.64 151.46 208.17 499.3 7.35 158.39 207.09 505.07 6.93 165.41 206.32 512.29 6.05 173.65 206.2 516.41 8.3 182.4 205.82 525.97 7.46 188.64 206.46 532.58 7.88 191.19 208.26 535.27 9.6 204.59 205.04 544 9.08 210.14 204.56 547.13 10 213.69 205.93 553.67 9.64 217.14 207.43 559.71 9.64 225.93 205.5 562.37 11.25 232.11 205.62 569.45 10.85 242.32 204.44 573.73 13.1 245.7 207.06 577.99 15.21 257.92 204.62 588.33 13.85 258.17 207 587.69 16.75 262.83 208.35 593.99 17.15 272.58 206.11 600.57 16.75 282.48 205.16 609.42 16.4 290.86 204.45 610.84 19.71 293.28 206.98 616.15 20.57 299.15 206.69 621.71 20.46 306.52 205.99 628.24 20.25 314.66 204.24 635.27 19.13 318.89 205.98 638.83 21.27 327.07 205.2 645.43 21.4 330.66 205.88 647.37 23.03 337.79 204.74 655.49 21.31 341.08 207.35 655.96 25.56 352.66 205.07 662.72 26.06 353.55 207.65 671.32 24.19 363.24 206.55 674.94 26.58 366.63 207.98 678.71 27.8 376.99 206.57 683.73 29.48 383.22 207.1 690.25 29.84 386.33 207.85 694.58 29.88 393.75 206.68 694.91 32.81 400.82 207.46 706.26 31.11 405.58 208.25 706.99 34.23 414.84 207.04 718.27 31.86 419 207.5 721.71 32.73 425.25 207.83 722.87 36 433.27 207.35 726.53 38.04 441.18 207.24 736.65 36.65 452.14 204.83 737.84 39.88 455.78 206.55 744.76 39.7 459.19 208.24 750.33 40.15 469.44 206.65 755.05 41.75 478.9 205.59 758.19 44.35 481.66 207.97 766.84 43.32 490.38 207.19 767.1 47.42 497.86 207.41 775.58 47.07 503.93 206.7 778.63 48.09 514.23 205.21 784.28 49.29 518.03 205.71 786.17 50.9 523.53 205.92 794.07 49.73 526.74 208.21 798.25 51.46 536.82 205.09 799.24 53.58 539.77 206.32 806.77 52.17 546.82 205.45 811.67 52.53 551 205.78 810.2 56.14 556.43 206.1 819.58 54.18 561.69 207.49 822.08 57.16 571.49 205.83 829.81 56.69 578.2 204.81 829.67 59.63 578.38 207.34 833.17 60.23 583.68 207.66 833.46 63.46 592.98 206.79 843.79 61.98 598.57 208.34 851.11 62.54 608.51 205.97 850.35 66.35 617.1 205 854.47 67.96 622.59 204.86 861.99 66.64 630.43 204.33 867.87 67.24 631.87 206.43 869.53 69.22 637.25 207.06 874.58 70.04 643.03 207.88 874.67 74.14 652.8 205.36 878.27 75.19 656.56 207.37 883.68 76.24 662.55 207.44 889.9 76.18 674.03 205.01 889.16 80.8 678.65 206.4 890.07 84.33 686.77 206.42 892.57 87.6 693.22 206.81 888.36 94.14 701.65 204.52 894.16 93.37 706.96 206.23 888.33 101.52 713.04 205.59 893.45 101.43 717.84 206.03 892.89 104.97 722.65 205.76 892.73 107.57 732.2 204.71 892.08 112.41 733.27 206.77 887.54 117.7 739.91 206.46 889.52 120.08 749.85 205.04 892.43 122.72 753.75 207.56 887.64 130.25 763.61 205.63 892.45 131.25 766.24 208.35 889.11 137.41 774.74 206.94 892.79 138.78 783.65 205.61 887.94 145.4 788.97 206.88 893.56 146.5 799.47 204.72 889.16 152.94 803.81 206.09 890.1 156.27 806.85 206.77 891.4 157.96 813.46 206.02 887.77 163.12 817.29 207.76 893.91 163.52 825.23 207.9 890.07 170.47 833.85 207.23 890.38 174.59 841.23 207.04 893.82 176.67 846.13 208.21 887.74 184.19 855.36 206.79 894.11 184.42 862.35 205.75 890.51 189.49 863.52 208.37 889.7 193.25 872.81 206.15 892.64 194.7 878.96 207.28 887.43 202.39 886.08 206.47 891.52 203.33"/></svg>