<svg xmlns="http://www.w3.org/2000/svg" viewBox="0 0 290.32 243.85"><defs><style>.cls-1{fill:none;stroke:#e73f3a;stroke-linecap:round;stroke-linejoin:round;stroke-width:3px;}.cls-2{fill:#fff;}</style></defs><title>unete-hablar-2</title><g id="Capa_2" data-name="Capa 2"><g id="Capa_3" data-name="Capa 3"><path class="cls-1" d="M14.35,11.46c.12.21,10.46-6.35,10.59-6.12S15.47,16,15.62,16.23C16,16.87,40.76.92,41.11,1.52c.56,1-35.17,25.19-34.67,26.06.6,1,36.43-22.3,37-21.34S8.35,31.59,8.82,32.41C9.55,33.67,54.73,4.24,55.45,5.49,56.3,7,7.76,36.33,8.6,37.78,9.31,39,68.85,1,69.7,2.5S10.28,39.66,11.31,41.43c.87,1.51,65-39.69,65.94-38.07S11.5,44.5,12.48,46.19c1.16,2,69-42.3,70.09-40.46.92,1.6-74.43,46.73-73.5,48.33C10.42,56.41,88.2,5.42,89.48,7.63c1.18,2-82.4,50.15-81.26,52.13,1.49,2.58,95.69-58.07,96.91-55.95,1.39,2.4-98.24,59-96.67,61.67S109.25,3.79,110.76,6.42C112,8.56,11,67.28,12.24,69.43c1.73,3,104.32-64.34,106.1-61.26S8.73,73.09,10.62,76.36C12.7,80,129.26,4.2,130.85,7c2,3.46-124.6,72.83-122.63,76.23C10.37,86.9,140.59,2.43,142.46,5.67S8.4,84.51,10.19,87.61C12.1,90.93,151,2,152.83,5.26S4,91.37,6.29,95.42c1.74,3,152.87-93.18,155-89.49,2.46,4.25-152.44,88-150.13,92C13.32,101.64,160,6.2,162.49,10.54,164.72,14.4,4.15,103.67,6,106.9c2.26,3.93,167.48-102.62,170-98.17,2.78,4.8-167.47,95.8-164.6,100.76C14.09,114,180,6.37,182.48,10.76c2.78,4.81-177.32,103-175.18,106.66C10.36,122.73,188,6.6,190.77,11.49S4.91,119.06,7.15,122.94C9.8,127.52,202.52,3.33,205.46,8.44,208,12.88,5.26,124.18,7.86,128.7c2.76,4.77,199.32-123.11,202.8-117.09C213.19,16,3.3,129.85,6.49,135.37,9.2,140.07,224.82,2.6,227.73,7.64,231.38,14,6.54,133.8,9.49,138.92,13.28,145.48,224.43,6.63,228,12.78c2.88,5-226.62,128.14-223,134.35S234.46,7.87,237.38,12.94,1,147.34,4.19,152.8C7.73,158.93,249.77,3.38,253.08,9.11,256.23,14.57,1.79,152.6,5,158.17,8.54,164.3,255.81,3.79,260,11,263,16.31,5.07,153.78,9.44,161.36c4.22,7.31,254.32-154,257.43-148.62C270.53,19.08,3.67,161.89,7.49,168.52,10.9,174.43,272,7.59,275.59,13.74c4.55,7.88-278.09,156.74-274,163.75C5.85,185,271.67,11.91,275.84,19.13,279.25,25.05,4.38,171.73,8.52,178.91c4,6.89,271.24-165.15,274.94-158.73,4.6,8-280.49,159.29-276.8,165.68C10.19,192,277.78,20.41,281.64,27.1S4.35,184.77,7.75,190.66C12,198,285.26,22.33,288.77,28.42,293,35.74,3.06,187.7,7.85,196c3.68,6.37,273.66-165.85,277.06-160,4,7-272.86,152.28-268.19,160.38S281.69,34.7,285.47,41.25C289.08,47.5,16.38,193.38,20.18,200c3.71,6.42,264.69-161.12,268.29-154.9C291.88,51,21.56,195.35,25.83,202.75S278.75,48.53,282.3,54.68c3.37,5.83-251.62,142.18-247.68,149,3,5.21,244.6-150.06,248.43-143.43,4.07,7.06-245.4,141.21-242.49,146.24S282,60.18,285,65.4C288.34,71.25,50.66,197.88,54.21,204c2.73,4.71,224.61-138.51,228.44-131.88,3.69,6.39-224.18,127.43-220.6,133.62,3.24,5.6,216.62-132.82,220-127,2.8,4.84-213.32,121.54-210.09,127.13,3.58,6.21,208.74-128.6,212.24-122.54S82.15,197.57,85.45,203.29c3,5.28,195.14-120.72,198.63-114.68,3,5.26-191.89,110.33-189.4,114.65C98,208.93,280.26,89.89,283,94.56c3.09,5.37-183.4,104.9-180.42,110.06,2.4,4.16,178.07-108.88,180.7-104.32,2.54,4.39-175.23,102.32-173.18,105.87,2.33,4.05,167-103.09,169.9-98.09,1.9,3.28-160,93.52-158.07,96.85,2,3.55,156.93-95.26,158.94-91.76,2.36,4.08-149.86,88.65-148.07,91.75,2.19,3.79,145.36-89.83,147.92-85.4,1.91,3.32-141,82.07-138.6,86.28,2,3.47,137.66-84.16,139.69-80.64s-132.77,77.28-130.63,81c1.56,2.71,130.18-79.67,132.13-76.29,1.77,3.06-128.34,75.78-126.73,78.57,2.06,3.56,123.21-75.63,125.15-72.26,1.71,3-116.12,69.53-114.68,72,2,3.4,111.65-68.9,113.57-65.57,1.49,2.58-102.25,61-100.52,64,1.24,2.15,104.68-64.58,106.47-61.48s-107,63.15-105.2,66.25c1.32,2.27,96.72-58.75,98-56.57s-85.8,52-84.5,54.25,90.13-55.35,91.57-52.87c1.14,2-83,50.76-81.6,53.14,1.19,2.06,72.92-44.2,73.83-42.62,1.08,1.86-68.91,43.19-68.05,44.69,1,1.7,69.95-42.34,70.8-40.88s-60.72,39.14-59.89,40.59,56.69-34.51,57.46-33.17-49.54,32.22-48.72,33.64,49-30.29,49.84-28.78c.61,1.07-41.33,27.73-40.6,29s42.49-25.76,43-24.84-39.87,27.48-39.3,28.47,39.84-24.32,40.41-23.33S244,218.74,244.65,219.84s33-20,33.4-19.29-32.71,23.92-32.27,24.69,31.33-19.09,31.77-18.34-26.39,20.25-26,20.87,31.62-19.21,32-18.49-25,19.69-24.66,20.34c.3.5,17.47-10.74,17.75-10.25s-18,15-17.62,15.57,25.05-15,25.3-14.61c.39.68-23.47,18.83-23.11,19.46.26.44,15.74-9.58,16-9.21S267,242.06,267.11,242.35s7.16-4.42,7.28-4.21"/><path class="cls-2" d="M124.28,115.46a21.08,21.08,0,1,0,21.14-21A21.07,21.07,0,0,0,124.28,115.46Z"/><path class="cls-2" d="M55,115.24a21.09,21.09,0,1,0,21.16-21A21.1,21.1,0,0,0,55,115.24Z"/><path class="cls-2" d="M191.92,115.67a21.09,21.09,0,1,0,21.16-21A21.11,21.11,0,0,0,191.92,115.67Z"/></g></g></svg>