<svg xmlns="http://www.w3.org/2000/svg" viewBox="0 0 350.58 344.69"><defs><style>.cls-1{fill:none;stroke:#57a7ff;stroke-linecap:round;stroke-linejoin:round;stroke-width:3px;}</style></defs><title>unete-acuerdo</title><g id="Capa_2" data-name="Capa 2"><g id="Capa_3" data-name="Capa 3"><path class="cls-1" d="M87.82,175.54c.12.21,8.5-5.17,8.62-5S90.9,179.8,91,180c.26.45,11.38-7.28,11.68-6.75s-16.36,14.51-16.06,15,24.59-14.89,24.89-14.38-19.21,16.14-19,16.59,24.93-15.3,25.32-14.62S98.24,192,98.61,192.66s28.18-17.13,28.55-16.49-29.7,21.74-29.32,22.4,34.51-20.89,34.93-20.16-25,19.87-24.71,20.44,28.5-17.54,29-16.73c.28.49-21.45,17.27-21.16,17.77.48.84,23.83-14.85,24.3-14,.38.66-22.31,17.73-21.9,18.43s29-17.75,29.44-17-27.7,20.46-27.3,21.17,33.18-20.11,33.59-19.4-28.32,21.8-27.95,22.43,30.42-18.39,30.78-17.77-21.54,17.28-21.24,17.8,24.43-14.88,24.77-14.3-17,14.48-16.7,14.91c.91,1.58,53.79-33.2,54.72-31.59s-50.27,33-49.38,34.58,50.13-30.4,50.76-29.3-47.38,31.47-46.6,32.81,43.59-26.81,44.3-25.58-38.31,26.58-37.67,27.7,34.6-20.94,35-20.22c.61,1.07-34,23.67-33.48,24.56s25.87-15.76,26.23-15.14-22.49,17.43-22.15,18c.25.44,18-10.93,18.2-10.51.15.26-9.54,10.73-9.32,11.1.1.18,11.17-6.69,11.27-6.51"/><path class="cls-1" d="M211.06,97.65c.13.22,8.71-5.3,8.83-5.09.23.4-16.84,15.18-16.58,15.63s18.93-11.5,19.18-11.07c.41.7-25.85,19.49-25.37,20.32.35.61,29-17.79,29.44-17,.34.61-25.94,19.46-25.54,20.16.54.92,29.72-18.46,30.28-17.48.72,1.24-41.24,28.08-40.49,29.37.52.92,41.79-25.35,42.32-24.43.63,1.09-45.41,30.92-44.84,31.92s44.46-26.9,45-26c.7,1.21-45,30.57-44.38,31.63.48.82,33.33-20.42,33.84-19.54s-35.69,24.66-35.16,25.57,35.58-22,36.19-20.89S181.23,159.16,182,160.44s33.89-21.14,34.57-20-42,28.69-41.31,29.85c.55,1,40.39-24.71,41-23.67.71,1.22-43.09,29.53-42.35,30.8.49.87,37.69-23.31,38.36-22.15s-39.37,26.7-38.67,27.92,33.49-20.68,34.07-19.67c.71,1.23-39.23,27.27-38.65,28.28s37.44-23.19,38.12-22"/><path class="cls-1" d="M113.32,39.84c1,1.79,63.49-38.86,64.44-37.21.55.94-32.34,24-31.9,24.73.63,1.09,38.69-24,39.42-22.75.49.85-30.68,22.26-30.16,23.16S196.31,2.84,196.81,3.7c.4.7-27.11,20.48-26.76,21.09.45.78,34.73-21.28,35.26-20.36s-23.89,18.42-23.45,19.18S215.78,3,216.22,3.77s-32.16,23.1-31.75,23.81S222.55,4.51,223,5.32c.37.64-25.8,20.29-25.46,20.88S227.78,7.59,228.29,8.46c.27.48-21.24,17.15-21,17.64.5.85,24.25-15.1,24.73-14.28.36.63-21.14,17.1-20.75,17.77s28.18-17.25,28.6-16.52-25.84,19.44-25.46,20.1,31.42-19,31.81-18.36-25.77,20.39-25.43,21S248.61,19,248.94,19.55s-18.48,15.6-18.22,16.06,21.05-12.84,21.35-12.33-13.4,12.53-13.19,12.89c.36.63,16.53-10.4,16.9-9.76.25.44-12.07,12.45-11.81,12.9.41.71,21.83-13.28,22.12-12.77s-18.76,16-18.42,16.54,24.12-14.82,24.51-14.15-19,16.09-18.61,16.69,24-14.52,24.29-14c.45.78-24,18.23-23.63,18.88s23.2-14.14,23.52-13.58S257,53.36,257.34,53.9s23.19-14.12,23.51-13.57c.22.39-16.3,14.38-16,15S290,40.09,290.33,40.58c.41.72-21.72,17.38-21.3,18.11.28.48,18.86-11.7,19.21-11.09.26.44-13.88,13.66-13.6,14.13s15.63-9.89,16-9.24c.24.43-18,14.89-17.66,15.44S298.55,52.57,298.81,53s-19.47,15.82-19.12,16.42c.26.45,19.07-11.58,19.32-11.15s-13.33,13-13.07,13.47,18-11.17,18.37-10.6S287.57,76.49,287.84,77s17.51-10.74,17.78-10.27-13.17,13.51-13,13.84c.33.58,17-10.51,17.27-10s-19.38,15.77-19.09,16.27,22.35-13.67,22.68-13.1S292.45,91.31,292.83,92c.26.45,21.07-12.89,21.39-12.34s-17.29,15.35-17,15.92c.24.42,18.75-11.61,19.09-11,.19.34-12.75,12.79-12.51,13.2S318.64,88.43,319,89c.21.37-14,13.6-13.81,14s23.95-14.53,24.25-14-21.14,17.11-20.78,17.75,17.48-10.79,17.78-10.26c.41.71-21.33,17.78-21,18.32S330.63,99.39,331,100s-20.38,17.32-20.11,17.8,22.44-13.52,22.69-13.1c.45.79-25.76,19.09-25.28,19.93.31.53,25.59-15.43,25.87-14.94.42.72-22.25,17.59-22,18.09s22.22-13.4,22.47-13-20,16.82-19.7,17.34,21.71-13.37,22.08-12.74c.45.79-24.85,19.55-24.42,20.3.26.44,28.84-17.27,29.11-16.8.37.65-21.41,17.71-21.09,18.26s22.51-13.79,22.85-13.2c.43.75-22.36,17.78-22,18.41s15.23-9.62,15.59-9c.24.43-13.88,13-13.61,13.43S341.7,139.6,342,140.13c.47.81-25.31,20.11-25,20.67s22.81-14,23.16-13.36c.22.37-15.33,13.88-15.09,14.29.33.57,16.54-10.2,16.83-9.71s-18.73,16.32-18.4,16.9,19.73-12.26,20.11-11.61-20.5,17-20.13,17.6,25.06-15.39,25.46-14.7-25.62,19.26-25.14,20.08,24.74-15.22,25.14-14.52c.5.86-26,19.91-25.6,20.58s25.36-15.5,25.73-14.86c.48.84-33.27,23.42-32.68,24.45.42.73,24.15-14.77,24.51-14.14s-21,17.69-20.66,18.25,21.49-13.32,21.89-12.64-28.59,21.07-28.08,22,29.19-17.85,29.62-17.1-28.52,21.13-28.11,21.84,27.61-16.73,27.95-16.14c.52.9-30,22.47-29.59,23.23s26.92-16.39,27.29-15.75c.54.93-34.78,23.88-34.18,24.93.48.82,31.12-19,31.58-18.24.55,1-29.56,21.8-29.16,22.5s28-17.27,28.5-16.45S300,244.79,300.65,246c.48.83,39.3-23.76,39.77-22.95.74,1.29-46,30.5-45.14,31.91.61,1.06,40.29-24.52,40.83-23.58s-48.94,31.8-48.15,33.17c.66,1.15,43.39-26.77,44.13-25.48.89,1.54-57.82,37.45-56.91,39,.71,1.22,48.8-29.89,49.54-28.6"/><path class="cls-1" d="M78.09,32.23c.48.83,29-17.8,29.49-17C108.25,16.38,52,51.6,52.74,52.94c1.16,2,75.39-45.71,76.33-44.07,1.32,2.28-91.18,54.69-89.61,57.4,1.3,2.25,103.36-63.53,105-60.64,1.33,2.3-106.81,63.54-105.28,66.2,1.94,3.35,117.53-72.57,119.57-69C161,6.67,24.1,81.18,26.42,85.21c1.94,3.35,142.9-87,144.83-83.62S20.7,90.32,22.53,93.49C23.4,95,84.8,55.75,85.58,57.09c1,1.67-63.76,40.85-62.91,42.32.55,1,39.54-24.19,40.13-23.17S20.88,104.3,21.49,105.36s36.61-22.6,37.25-21.5-42.93,28.6-42.19,29.89c.61,1.06,31.23-19.5,31.87-18.4s-38,26.5-37.36,27.57c.48.82,34.81-21.29,35.33-20.4S10.86,128,11.48,129c.4.69,29.84-18.47,30.38-17.54s-29.33,21.29-28.8,22.21,24.09-14.92,24.53-14.16S10.36,140.26,10.77,141,37.54,124.38,38,125.24,9.25,145.93,9.78,146.84c.43.76,24.93-15.23,25.29-14.6S9,152.16,9.46,152.94c.36.62,19.63-12.3,20.05-11.58S7,158.83,7.39,159.56s26.71-16.34,27.1-15.65S3.76,166.3,4.29,167.23c.36.62,28.17-17.23,28.59-16.51S2.66,173.16,3.09,173.92,28,158.8,28.31,159.36,3.4,179,3.73,179.54s22.43-13.69,22.75-13.13-25.42,19.45-25,20.23c.34.59,31-18.59,31.3-18.07.43.74-27.63,20.38-27.21,21.12s27.76-16.89,28.14-16.25S10.13,192.1,10.52,192.78s18.66-11.68,19.06-11S2.86,201.62,3.32,202.43c.27.47,28.31-17.05,28.61-16.52.47.81-25.74,20.22-25.35,20.9.26.46,22-13.41,22.31-12.88s-18.13,15.4-17.8,16,23.05-14.1,23.39-13.5-23,17.92-22.63,18.6,18-11.24,18.37-10.61-15.94,14.71-15.68,15.17,22.52-13.76,22.85-13.19c.42.73-23.7,18.82-23.39,19.37s25-15.3,25.39-14.66S18.9,227.43,19.25,228s13-8.34,13.37-7.72c.22.37-12.72,13.23-12.52,13.57.32.56,15.3-9.58,15.63-9s-17.67,14.88-17.35,15.42,19.91-12.07,20.16-11.64-20.23,17.18-20,17.66,26.61-16.15,27-15.56S25.28,247.37,25.64,248s20.6-12.61,20.91-12.08-18.23,15.85-17.88,16.46,16-10,16.31-9.42c.21.37-13.19,12.75-12.95,13.17s13.26-8.31,13.54-7.82-12.39,12.85-12.14,13.29S51.36,250.44,51.71,251s-15.5,13.64-15.2,14.15,14.35-9,14.64-8.45-15.94,14.1-15.69,14.54,18-11.15,18.31-10.57S39.51,273.8,39.72,274.16c.3.52,21.33-12.89,21.58-12.46.35.61-20.3,16.53-20,17.07s24.33-14.65,24.59-14.2S49,279.64,49.26,280.15s20.35-12.45,20.66-11.93-16.4,15.08-16.14,15.52c.34.6,13.66-8.74,14-8.1.19.33-13.57,12.47-13.31,12.93s16.87-10.46,17.18-9.92c.2.34-12.81,12.32-12.55,12.77s19-11.81,19.34-11.17-18,15.83-17.69,16.42,22-13.37,22.29-12.86-18.2,15.12-17.93,15.59,22.63-13.79,22.94-13.25c.44.77-23.18,18.58-22.83,19.18s24.27-14.69,24.56-14.18-17.23,14.56-16.92,15.09S93,293.88,93.29,294.46,74.84,310.59,75.2,311.2s24.5-15.08,24.9-14.38c.28.48-17.68,15.48-17.35,16.05s22.36-13.86,22.77-13.15c.26.45-17.86,15.14-17.52,15.72s20.58-12.65,20.91-12.07-18.42,15.27-18.17,15.7c.41.7,24.32-14.86,24.67-14.24s-19.84,16.05-19.57,16.53,21.16-13.21,21.59-12.47c.2.35-13,12.42-12.75,12.89.38.64,19.62-12.24,20-11.55.31.54-20.45,16.63-20.08,17.28s23.86-14.58,24.21-14S108,330.81,108.39,331.49s34.26-20.65,34.64-20-25.76,19.35-25.32,20.11,31.23-18.82,31.58-18.23-22,17.6-21.56,18.3,24.63-15.39,25.14-14.51c.41.7-24.24,19.07-23.91,19.64.51.89,32.26-19.77,32.76-18.91.38.65-22.43,18-22.07,18.62.5.87,33.34-20.59,33.92-19.58.47.81-31.17,22.24-30.6,23.22s39.66-24.36,40.29-23.27c.48.83-32.47,23.88-32,24.74.62,1.07,44.32-27.18,45-26,.58,1-38.57,26.62-38.06,27.51.8,1.39,48.95-29.55,49.51-28.58.48.82-37.77,25.79-37.22,26.74.91,1.57,61.62-38,62.66-36.18.72,1.24-53.77,34.11-52.83,35.74,2.06,3.56,138.51-85.42,140.87-81.34,1.7,2.94-128.84,76.75-127.28,79.44s122.71-74.47,124.28-71.75-114.09,67.88-112.71,70.28c1.27,2.2,100.3-60.76,101.53-58.63,1.44,2.49-85.76,53.23-84.74,55,1.22,2.12,69.5-42.71,70.62-40.77.84,1.45-48.76,32.41-48.11,33.53.47.82,30.06-18.3,30.47-17.59"/></g></g></svg>