<svg xmlns="http://www.w3.org/2000/svg" viewBox="0 0 307.59 252.33"><defs><style>.cls-1{fill:none;stroke:#ffca55;stroke-linecap:round;stroke-linejoin:round;stroke-width:3px;}.cls-2{fill:#fff;}</style></defs><title>unete-hablar</title><g id="Capa_2" data-name="Capa 2"><g id="Capa_3" data-name="Capa 3"><path class="cls-1" d="M63.77,224.14C66.57,229,299.14,81.08,302.25,86.46,306.17,93.26,75.38,217,78,221.66c2.85,4.92,221.08-136.24,224.8-129.79,3.41,5.9-217.91,125.86-215.28,130.42,3.25,5.62,207.62-128.06,211.17-121.91,2.95,5.12-206,116.56-202.67,122.28,2.38,4.13,200.57-121.88,203.2-117.31,2.3,4-195.67,111.56-192.44,117.14,2.54,4.41,189.61-115.76,192.33-111S118.77,214.5,121.75,219.67C124.22,224,302,109.17,304.75,114c2.06,3.57-173.81,100.54-171.46,104.61,2,3.42,162.37-98.52,164.44-94.93,2.66,4.6-158.37,91.81-155.87,96.15,2.12,3.67,152.82-94.16,155.39-89.71,2.3,4-149.08,86.92-147.09,90.38,2.34,4,148.89-91.81,151.42-87.42,1.88,3.25-143.42,83.4-141.4,86.9s141.92-86.49,143.89-83.07-133.66,79-131.82,82.18c1.56,2.72,124.79-75.49,126.28-72.91,1.73,3-117.31,70.2-115.81,72.81,1.63,2.81,116.07-71.34,117.94-68.09,1.5,2.58-107.11,64-105.51,66.81,1.79,3.1,103.07-62.51,104.37-60.26,1.5,2.59-94.42,56.79-93.15,59,1.45,2.52,90.83-55.21,92-53.13,1,1.81-89.08,53.71-87.67,56.16,1.28,2.22,91-55.59,92.32-53.3S227.73,213,228.82,214.87c1.31,2.26,69.32-42.31,70.31-40.59.9,1.56-67.22,41.72-66.15,43.56s65.75-39.93,66.6-38.46-50.3,33.75-49.68,34.81c.86,1.49,49.11-30.35,50-28.85.56,1-42.36,28-41.61,29.27S305.4,185.83,306.08,187c.56,1-44.63,29.79-44,30.85.44.76,36.86-22.37,37.33-21.55.3.52-19.63,16.46-19.3,17s18.53-11.4,18.83-10.87"/><path class="cls-1" d="M10,19.57c.12.21,10.22-6.21,10.35-6s-9.67,10.73-9.51,11c.38.67,26.28-16,26.63-15.38.59,1-36.49,25.93-36,26.83C2.14,37.13,40.43,12.21,41,13.23S3.68,39.82,4.18,40.69C5,42,53.52,10.41,54.3,11.76c.9,1.55-50.88,32.55-50,34.1.76,1.33,64.39-39.29,65.3-37.7S6.28,47.42,7.36,49.31C8.3,50.93,77.2,6.67,78.21,8.41S7.85,52.05,8.9,53.86C10.16,56,83.48,8.17,84.62,10.14c1,1.71-79.73,49.65-78.74,51.36C7.34,64,91.35,9,92.73,11.36,94,13.55,4.17,64.88,5.39,67,7,69.78,108.11,4.65,109.43,6.93,110.91,9.5,4.35,69.6,6,72.49S114.61,6,116.24,8.86c1.33,2.3-107.36,65-106,67.35C12.07,79.43,123.13,6.57,125.05,9.9S7,79.39,9,82.91C11.24,86.8,137.06,5,138.77,8,140.91,11.69,4.85,85.86,7,89.51c2.31,4,142.51-86.94,144.52-83.44S7.37,90.39,9.3,93.73C11.36,97.31,161,1.51,163,5S3.26,97,5.77,101.32C7.65,104.58,170.26,1.05,172.55,5,175.19,9.6,8.52,99.31,11,103.61c2.33,4,161.13-99.27,163.83-94.59,2.4,4.15-170.58,99.86-168.57,103.35C8.7,116.6,186.85,1.71,189.61,6.51,192.6,11.68,9,109.39,12.09,114.74c2.83,4.9,182.36-111.61,185.1-106.87,3,5.18-191.2,110.59-188.9,114.58C11.6,128.18,203.54,2.69,206.59,8S6.1,123.58,8.51,127.75c2.86,5,210.69-129,213.87-123.47,2.76,4.77-215.55,124.14-212.74,129,3,5.14,215.43-133,219.19-126.55,2.72,4.72-223.61,127-220.18,133C11.58,144.79,243.94-3.36,247.07,2.07,251,8.88,8.83,137.56,12,143.07,16.1,150.15,244.57,0,248.39,6.59,251.49,12,4,144.37,7.84,151.06S255.76.64,258.92,6.1,4,150.65,7.44,156.53c3.81,6.62,264.66-161,268.23-154.86,3.39,5.87-270.49,154-267,160C12.43,168.25,277.24-3.66,281.69,4,285,9.74,8.78,156.53,13.47,164.64,17.91,172.35,281.89,2.09,285.17,7.78,289,14.45,7.89,164.59,11.92,171.57,15.48,177.74,288,3.62,291.7,10,296.44,18.24,2.13,173,6.34,180.33c4.46,7.73,280-171.65,284.34-164.16,3.54,6.13-281.29,157.93-277,165.36,4.1,7.1,279.72-170.3,283.53-163.69C302,26.05,7.75,182.05,11.55,188.63c3.63,6.29,278.69-170.06,282.66-163.19S7.87,188.09,11.38,194.17c4.33,7.51,285.41-173.12,289-166.86C304.78,34.9,4.28,192.2,9.25,200.8c3.81,6.61,283.78-172,287.31-165.89C300.81,42.27,10,194.57,14.91,203.07S293.52,33,297.49,39.92C301.34,46.58,9.92,202.12,14,209.14c4,6.86,283-172.28,286.88-165.63C304.6,50,8,207.81,12.72,215.92S291.2,46.13,295.1,52.89,7.55,214.54,12.05,222.32c3.44,6,279.82-171.65,284.19-164.08C301.08,66.62,4.52,225,8,230.92s287-174,290.61-167.78c4.17,7.23-290,162.73-285.64,170.32,3.37,5.84,279-172,283.69-163.78S6.11,233,10.73,241c4.19,7.26,281.34-172.49,285.7-164.95C300.21,82.61,7,238.92,11.35,246.48,16.22,254.91,294.22,72.21,299,80.42S13.23,239.84,17.88,247.9C22.17,255.33,294.31,77,299.22,85.48c4.42,7.66-280.83,159-277.19,165.33.37.64,15.94-9.91,16.25-9.38"/><path class="cls-2" d="M177.14,121.86A22.33,22.33,0,1,1,154.75,99.6,22.32,22.32,0,0,1,177.14,121.86Z"/><path class="cls-2" d="M250.49,121.63a22.34,22.34,0,1,1-22.41-22.27A22.34,22.34,0,0,1,250.49,121.63Z"/><path class="cls-2" d="M105.49,122.08a22.33,22.33,0,1,1-22.4-22.26A22.34,22.34,0,0,1,105.49,122.08Z"/></g></g></svg>