<?xml version="1.0" encoding="utf-8"?>
<!-- Generator: Adobe Illustrator 22.0.0, SVG Export Plug-In . SVG Version: 6.00 Build 0)  -->
<svg version="1.1" id="Capa_1" xmlns="http://www.w3.org/2000/svg" xmlns:xlink="http://www.w3.org/1999/xlink" x="0px" y="0px"
	 viewBox="0 0 123.1 107.7" style="enable-background:new 0 0 123.1 107.7;" xml:space="preserve">
<style type="text/css">
	.st0{fill:#FF1867;}
	.st1{fill:#DCDDEE;stroke:#3F0D0B;stroke-width:1.1154;stroke-linecap:round;stroke-linejoin:round;stroke-miterlimit:10;}
	.st2{fill:#3F0D0B;}
	.st3{fill:#86C8CD;}
	.st4{fill:#5B7976;}
	.st5{opacity:0.4;fill:#FFFFFF;}
	.st6{fill:#86C8CD;stroke:#3F0D0B;stroke-width:1.1154;stroke-linecap:round;stroke-linejoin:round;stroke-miterlimit:10;}
	.st7{fill:#5BCBEA;}
	.st8{fill:#1A1B25;}
	.st9{fill:#03ADF8;}
	.st10{opacity:0.85;fill:#917F86;}
	.st11{opacity:0.55;fill:#E0DBDD;}
	.st12{fill:#FF0029;}
	.st13{opacity:0.55;fill:#E0DBAC;}
	.st14{fill:#21222C;}
	.st15{fill:#C2C2C5;}
	.st16{fill:#FCD212;}
	.st17{fill-rule:evenodd;clip-rule:evenodd;fill:#220501;}
	.st18{fill-rule:evenodd;clip-rule:evenodd;fill:#FF989D;}
	.st19{fill-rule:evenodd;clip-rule:evenodd;fill:#87432A;}
	.st20{fill-rule:evenodd;clip-rule:evenodd;fill:#E9521A;}
	.st21{fill-rule:evenodd;clip-rule:evenodd;fill:#5D1913;}
	.st22{fill-rule:evenodd;clip-rule:evenodd;fill:#FFFFFF;}
	.st23{fill-rule:evenodd;clip-rule:evenodd;fill:#7F252C;}
	.st24{fill:#FFFFFF;}
	.st25{fill-rule:evenodd;clip-rule:evenodd;fill:#2B2626;}
	.st26{fill-rule:evenodd;clip-rule:evenodd;fill:#696969;}
	.st27{fill-rule:evenodd;clip-rule:evenodd;fill:#8C8C8B;}
	.st28{fill-rule:evenodd;clip-rule:evenodd;fill:#3D4D70;}
</style>
<g>
	<path class="st24" d="M108,93.9c-0.4-2.6-4.7-4.5-11.2-5.5c6.9-3,10.9-6.5,10.4-9.7c-0.1-0.8-0.5-1.5-1.1-2.1
		c10.8-3.5,17.5-8,16.9-12.1c-0.5-3.6-6.7-6.2-16.1-7.4c8.6-2.6,14-6,13.6-9.1c-0.4-3-6.2-5-14.5-5.7c2.3-1.5,3.5-3.2,3.3-4.7
		c-0.2-1.5-1.9-2.8-4.6-3.8c8.9-2.6,14.7-6.1,14.2-9.3c-0.5-3.1-6.6-5.1-15.4-5.7c1.4-1.2,2.1-2.5,1.9-3.7c-0.4-2.9-6-4.9-14.2-5.6
		c0.5-0.9,0.8-1.7,0.6-2.6c-0.8-5.4-15.5-8.2-32.9-6.2c-17.4,2-30.8,8-29.9,13.5c0.1,0.7,0.4,1.3,0.9,1.9
		c-11,2.6-18.3,6.7-17.8,10.3c0.1,0.8,0.6,1.5,1.4,2.2c-5.3,2.2-8.4,4.8-8.1,7.2c0.5,3.4,7.9,5.6,18.2,5.9c-6.6,2.4-10.6,5.3-10.2,8
		c0.2,1.3,1.5,2.5,3.6,3.4C6.3,56.5-0.6,61,0,65.2c0.9,5.8,16.2,9,35.8,8c-0.1,0.5-0.2,1-0.1,1.5c0.1,0.8,0.5,1.5,1.1,2.1
		C26,80.3,19.3,84.7,20,88.9c0.7,4.7,10.8,7.7,25,8.1c-2.1,1.5-3.2,3.1-2.9,4.6c0.8,5.1,16.2,7.5,34.4,5.4
		C94.6,104.9,108.8,99,108,93.9z"/>
	<g>
		<path class="st25" d="M114.2,49.9c-0.8,0-2.2,0.5-3.6,0.7c-2.9,0.6-6.6,1.8-8.1,3.2c0,0.1-0.1,0.1-0.1,0.1c0,0,0.1-0.1,0.1-0.1
			c0,0,0-0.1,0-0.1c1-5.6,0.5-11-1.8-17.5c-1.1-3.1-2.6-6.8-4.1-9.3C92,19.4,84.7,13,78.4,10.4c-2-0.8-4.8-1.2-7.5-1.8
			c-2.6-0.5-5.2-0.9-7.8-1.1c-12.9-0.9-26,6.2-32.4,14c-9.4,11.6-13.1,26.8-3.3,46.2c1.6,3.2,4.7,6.3,7.4,8.7
			c8.7,7.8,20.2,10.3,32.5,9.9c-3.8,1.4-7.6,2.8-11,3.4c-0.1,2.2,0,4.5,0.9,7.3c4.1,0.3,9.6-1.8,14.4-3.9c4.9-2.1,10.2-5.1,15-6.9
			c1.6,2.3,3.2,4.5,5.4,5.7c4.3-4,11.8-6.7,17.2-9.9c3.9-2.3,7.8-5.4,10.1-9.2c1.7-2.9,3.7-8.6,3.4-12.3
			C122,55.1,118.5,49.9,114.2,49.9z M114.8,57.3c0.1-0.1,0.2,0,0.2,0.1c0.2,10.6-9.1,16.7-19,22.6c-1.4-1.9-2.2-5-4.6-4.6
			c5.9-5.5,8-11.7,16.6-15.4C110,59,112.8,58.4,114.8,57.3z"/>
		<path class="st22" d="M65.3,18.4c-0.3,1.2-0.3,2.5-0.7,3.6c-5.8-0.3-15.1,2.5-19.5,6.6c-0.6-1-1.6-1.3-2.3-2.3
			C48.3,22.1,58.3,17.4,65.3,18.4z"/>
		<path class="st22" d="M64.5,22.8c0,0.7-0.3,1.2-0.2,1.9c-5-0.3-13.2,3.1-17.1,6.1c-0.4-0.5-0.7-1-1.2-1.2
			C49.5,25.6,59.1,22.6,64.5,22.8z"/>
		<path class="st22" d="M64,25.6c-0.1,1.1-0.3,2.1-0.4,3.1c-3.9-0.4-10.3,1.8-14.3,4.2c-0.5-0.4-1-0.7-1.4-1.3
			C51.5,28.5,59.2,25.7,64,25.6z"/>
		<path class="st22" d="M63.4,29.7c-0.1,1.1-1.8,0.7-2.7,0.8c-1,0.1-2.1,0.1-3.2,0.4c-2.8,0.8-5.4,2.5-7.3,3
			c1.9-2.2,7.7-3.8,10.9-4.3C62,29.5,63.1,29.1,63.4,29.7z"/>
		<path class="st22" d="M38.7,41.1c-0.9,3.7,0,8.4,2.1,13.5c-1.7,0.6-3.1,1.5-4.6,2.2C34,50.3,34,44.8,34.9,39.7
			C36.4,39.8,37.6,40.4,38.7,41.1z"/>
		<path class="st22" d="M63.3,30.9c0.2,0.7-0.2,1.2-0.1,1.9c-3.2-0.1-8.1,0.8-11.1,3.1c-0.2-0.6-0.6-0.8-1-1.1
			C54,32.2,59.8,30.8,63.3,30.9z"/>
		<path class="st22" d="M88.1,38.1c-1.1,0.6-2.5,1.1-3.7,1.7c-0.4-5.3-4.1-9.5-6.9-12.5c0.6-0.8,1.4-1.5,1.7-2.5
			C83.2,27,85.8,32.1,88.1,38.1z"/>
		<path class="st22" d="M39.4,41.3c1.3,0,2.2,0.9,3.6,0.7c-0.2,3.2,0.1,6.6,1.8,10.7c-0.9,0.5-2,1-3,1.4
			C39.4,49.7,39,44.9,39.4,41.3z"/>
		<path class="st22" d="M83.7,40.2c-2.1-4.2-4.3-8.8-7.5-10.7c0-0.5,0.4-0.9,0.6-1.3C79.7,30.6,83,35.1,83.7,40.2z"/>
		<path class="st22" d="M82.5,40.6c-0.3,0.5-1.4,0.6-2.1,0.9c-1.4-4.4-3.9-6.6-6.1-9.3c-0.1-0.8,0.8-1.2,1-1.8
			C78.5,32.1,80.6,36.1,82.5,40.6z"/>
		<path class="st22" d="M43.7,42.5c0.6-0.3,0.8,0.2,1.3,0.1c-0.6,2.8-0.1,6,0.8,9.5c-1.1-0.2-1.3-2.2-1.6-3.5
			C43.7,46.4,43.7,44.3,43.7,42.5z"/>
		<path class="st22" d="M45.8,42.8c0.5,0.1,1.1,0.1,1.4,0.4c-0.2,2.5,0,5.2,0.5,8c-0.4,0.1-0.8,0.3-1.1,0.4
			C45.6,48.4,45.2,45.4,45.8,42.8z"/>
		<path class="st22" d="M73.3,33c2.4,1.8,5.4,5.5,6.2,8.9c-0.3,0.1-0.5,0.2-0.8,0.3C77.8,38.4,74.6,35.8,73.3,33z"/>
		<path class="st22" d="M72.4,34.1c2.1,1.7,4.8,5,5.2,8.3c-1.1-0.1-1.3-2-1.9-3.2c-0.9-1.8-2.3-3.5-3.5-4.5
			C72,34.4,72.5,34.3,72.4,34.1z"/>
		<path class="st22" d="M71.5,35.3c2,1.7,3.7,4.1,4.9,7.5c-0.9,0.4-1.6,0.2-2.5,0.7c-1-2.4-2.4-4.3-3.8-5.9
			C70.4,36.8,71.1,36.1,71.5,35.3z"/>
		<path class="st22" d="M61.8,43.8c4.1-1.9,5.6,5.5,3.9,7.9c-1.4,2-6.4,3.8-8.3,1.3c-2.2-2.8-1.5-6.1,0.4-7.7
			c0.1,1.2-0.7,2.1-0.5,3.2c0.5,3.6,3.5,4.8,6.6,3.9C67.7,51,66.2,42.9,61.8,43.8z"/>
		<path class="st22" d="M63.4,46.2c2.2,2.2-0.3,5.2-2.5,4.4C57.7,49.5,59.7,44.5,63.4,46.2z M63,48.2c-0.4-1.1-2.5-0.7-1.9,1
			C62.2,50.1,63.3,49.1,63,48.2z"/>
		<path class="st22" d="M61.4,62.3c0.2,0.8,0,1.5,0,2.2c-4.2-0.6-7.7-2.5-11-4.8c0.1-0.5,0.7-0.7,0.7-1.2
			C54.4,60,57.5,61.9,61.4,62.3z"/>
		<path class="st22" d="M78.5,51.6c-1.1,4.5-3.3,8.5-7.6,11.4c-0.5-1-1.1-1.8-1.4-3c2.5-2.6,4.5-5.3,5.2-8.7
			C76.1,50.9,77.2,51.4,78.5,51.6z"/>
		<path class="st22" d="M49.7,60.4c0.3-0.1,0.3,0.1,0.6,0c1.7,1.3,3.4,2.5,5.3,3.3c1.9,0.8,4.1,0.9,5.9,2c-4-0.2-8-2.7-11.6-4.5
			C49.3,60.9,49.7,60.7,49.7,60.4z"/>
		<path class="st22" d="M48.7,61.7c2.2,0.8,4.1,2,6.2,3c2.1,1,4.3,1.7,6.5,2.5c-4.7,0.2-9.3-2.3-13.2-4.7
			C48.4,62.1,48.8,62,48.7,61.7z"/>
		<path class="st22" d="M47.6,63.2c4.2,2.6,8.5,4.8,13.7,5.1c0.2,0.9,0,1.6-0.1,2.4c-5.9,0-10.8-2.2-15.4-5.1
			C46.2,64.7,47.1,64.1,47.6,63.2z"/>
		<path class="st22" d="M83.6,51.9c-2.2,5.6-5.3,10.8-10.4,15c-0.9-0.6-1.3-2.1-1.9-3.2c4.5-3.1,6.9-7.2,8-11.9
			C80.9,51.4,82,52.2,83.6,51.9z"/>
		<path class="st22" d="M61.2,71.8c0,1.1,0.1,2.2,0.1,3.3c-6.7-0.5-12.7-2.6-17.3-7.5c0.4-0.4,0.7-0.8,1-1.3
			C50,68.9,54.9,71.9,61.2,71.8z"/>
		<path class="st22" d="M85.3,52.1c-2.1,6.2-6.2,12.2-11.6,16.4c-0.4-1,0.9-1.6,1.3-2c4.4-3.9,7.5-9.1,9.7-14.2
			C85,52.2,85.1,52.1,85.3,52.1z"/>
		<path class="st22" d="M90.2,52.2c-0.5,4.1-2.6,7.8-5,10.9c-2.4,3.2-5,6.7-9.2,8.9c-0.6-0.9-1.2-2-1.8-2.9
			c6.3-4.6,9.7-10.6,12.5-16.9C87.9,52,89,52.2,90.2,52.2z"/>
		<path class="st26" d="M107,53.7c0.4,1.1,0.8,2.3,1.2,3.5c-0.8,0.3-1,0.9-2,1.1c-0.7-1-1.3-2.3-2.1-3.2
			C104.6,54.4,106.1,54.2,107,53.7z"/>
		<path class="st22" d="M107.9,53.4c1-0.4,2-0.8,2.7-0.6c0.3,0.5,0,1.7,0.6,2.7c-0.5,0.4-1,0.8-1.9,1
			C109,55.2,108.3,54.6,107.9,53.4z"/>
		<path class="st22" d="M111.7,53.2c0.9,0.1,1.7,0.5,2.2,1.4c-0.5,0.2-1,0.4-1.5,0.5C112.1,54.5,111.9,53.8,111.7,53.2z"/>
		<path class="st26" d="M114.9,52.2c2.9-0.1,4.5,3.8,5.2,7.4C117.3,59.1,117.3,53.8,114.9,52.2z"/>
		<path class="st22" d="M117.8,59.9c1,0,1.5,1.1,2.3,1.4c0.2,1.2-0.1,2.2-0.1,3.4c-1.1-0.2-1.8-1-2.8-1.2
			C117.2,62.2,118.1,61.3,117.8,59.9z"/>
		<path class="st26" d="M119.6,66.1c-0.7,0.9-0.8,2.2-1.7,3c-0.9-0.7-1.7-1.4-2.7-1.8c0.2-1.1,1.1-1.8,1.4-2.9
			C117.8,64.5,118.7,65.3,119.6,66.1z"/>
		<path class="st22" d="M113.6,66.9c0.1,0.3-0.1,0.4,0.1,0.7c-0.5,0.3-0.8,0.1-0.9-0.4C113,67,113.3,66.8,113.6,66.9z"/>
		<path class="st22" d="M114.5,67.9c1.1,0.4,1.9,1.6,3,2.1c-0.3,1.1-1.3,1.9-2.1,2.8c-0.9-0.9-1.8-1.6-2.6-2.6
			C113.5,69.5,114.1,68.8,114.5,67.9z"/>
		<path class="st22" d="M111.2,69.5c0.7-0.3,1,0.2,1,0.8C111.7,70.4,111.4,70.1,111.2,69.5z"/>
		<path class="st22" d="M92.1,76.7c0.4,3.1-3.5,4.2-5.8,6c-0.5-0.4-0.7-1.6-1-2.4C87.1,78.9,89.2,77.6,92.1,76.7z"/>
		<path class="st22" d="M110,70.8c0.2-0.1,0.3-0.1,0.5-0.2c0.2,0.1,0.4,0.4,0.5,0.8C110.4,71.8,110.2,71.4,110,70.8z"/>
		<path class="st26" d="M85,83.3c-1.4,0.5-2.4,1.2-3.7,1.7c-0.4-0.7-0.8-1.4-1.2-2.2c1.3-0.6,2.6-1.3,3.5-2
			C84.6,80.8,84.5,82.6,85,83.3z"/>
		<path class="st26" d="M112.3,71c0.8,0.8,1.6,1.7,2.3,2.7c-1.1,1.1-2.1,2.2-3.7,3c-0.5-0.9-1.2-1.5-1.7-2.6
			C110.4,73.2,111.6,72.2,112.3,71z"/>
		<path class="st22" d="M79,83.6c0.2,0.9,0.7,1.3,0.9,2.1c-1.7,1-3.4,2-5.2,3c-0.4-1-0.9-1.7-1.3-2.7C75.5,85.3,77.1,84.4,79,83.6z"
			/>
		<path class="st26" d="M72.6,86.5c0.2,1,1,2.2,1,2.8c-1.4,0.4-2.1,1-3.4,1.4c-0.4-1-0.8-1.9-1.3-2.7C70,87.5,71.3,86.4,72.6,86.5z"
			/>
		<path class="st27" d="M58.3,91.6c1.4,0.1,3-0.4,4.8-1.2c0.3,1.1,0.1,1.9,0.7,3.1c-1.6,0.5-3.4,1.4-4.8,1.5
			C58.4,93.7,58.7,92.8,58.3,91.6z"/>
		<path class="st22" d="M67.8,88.6c0.3,1.2,0.9,1.7,1.2,2.7c-1.2,0.6-2.2,1.3-3.8,1.7c-0.3-1.1-0.4-2-0.7-3.1
			C65.7,89.6,66.8,89.1,67.8,88.6z"/>
		<path class="st22" d="M104.2,75.7c0.2-0.1,0.3-0.1,0.5-0.2c0.3,0.1,0.5,0.7,0.4,1c-0.2,0-0.3-0.1-0.6,0
			C104.4,76.3,104.3,76,104.2,75.7z"/>
		<path class="st26" d="M93.7,79.6c0.4,0.3,0.7,0.7,1,1.3c-2.4,1.2-3.9,3.5-6.3,4.3C88.8,82.7,92.4,81.7,93.7,79.6z"/>
		<path class="st22" d="M117.4,71.3c0.7-0.4,1,0,1.3,0.5c-0.1,0.2-0.4,0.4-0.8,0.5C117.7,72.1,117.6,71.7,117.4,71.3z"/>
		<path class="st22" d="M108.2,75.2c0.4,0.9,0.9,1.7,1.5,2.2c-0.9,1.2-2.8,2-3.9,3.1c-0.8-0.4-1.3-1.5-1.9-2.3
			C105.7,77.4,106.6,76.1,108.2,75.2z"/>
		<path class="st22" d="M100.3,78.4c0.3-0.2,0.5,0,0.7-0.1c0.3,0.5,0.1,0.8-0.4,0.9C100.3,78.8,100.4,78.9,100.3,78.4z"/>
		<path class="st22" d="M98.2,79.7c0.2-0.1,0.3-0.1,0.5-0.2c0.4,0.4,0.3,0.7,0.2,1.2C98.4,81,98,80.2,98.2,79.7z"/>
		<path class="st22" d="M82.6,85.5c0.2-0.1,0.4-0.2,0.7-0.2c0.2,0.3,0.8,0.9,0.2,1.2C82.9,86.8,82.8,86,82.6,85.5z"/>
		<path class="st22" d="M84.8,84.7c0.2-0.1,0.3-0.1,0.5-0.2c0.5,0.3,0.7,1.3-0.2,1.4C84.9,85.5,84.6,85,84.8,84.7z"/>
		<path class="st22" d="M80.9,86.3c0.2-0.1,0.3-0.1,0.5-0.2c0.3,0.3,0.9,0.7,0.6,1.3c-0.2,0.1-0.4,0.2-0.7,0.2
			C81,87.4,80.7,86.6,80.9,86.3z"/>
		<path class="st22" d="M79.8,86.9c0.2,0.3,0.8,0.6,0.6,1.1c-0.2,0.1-0.4,0.2-0.7,0.2C79.3,87.8,79.2,87.1,79.8,86.9z"/>
		<path class="st22" d="M96.9,80.7c0.4-0.3,0.4,0.2,0.8,0.1c0.2,0.4-0.1,0.6,0,0.9C97.2,81.9,96.7,81.2,96.9,80.7z"/>
		<path class="st22" d="M115,74.4c0.6-0.3,1.1,0.4,0.9,1C115.3,75.7,114.8,75,115,74.4z"/>
		<path class="st22" d="M95.7,81.5c0.6-0.3,0.8,0.1,1,0.6C96.2,82.7,95.5,82.2,95.7,81.5z"/>
		<path class="st26" d="M104.5,81.3c-2.4,1-4.1,2.3-5.9,3.6c-0.4-0.7-0.9-1.3-1.4-1.9c1.6-1.5,3.9-2.6,5.6-4
			C103.7,79,103.9,80.6,104.5,81.3z"/>
		<path class="st22" d="M77.9,88.3c0.5-0.3,0.8,0.4,0.6,0.7C78,89.3,77.7,88.6,77.9,88.3z"/>
		<path class="st22" d="M113.1,76.4c0.7-0.3,1.3,0.5,1.1,1.1C113.6,77.7,113.3,77.1,113.1,76.4z"/>
		<path class="st22" d="M112.2,77.5c0.6-0.2,0.7,0.4,0.9,1C112.5,78.9,111.6,77.9,112.2,77.5z"/>
		<path class="st22" d="M96.3,83.7c0.4,0.5,0.6,1.3,1.1,1.6c-1.7,1.3-4.2,2.3-6.2,3.5c-0.4-0.6-0.9-1-1.4-1.3
			C92.2,86.4,93.7,84.8,96.3,83.7z"/>
		<path class="st22" d="M110.6,78.6c0.8-0.6,1.3,0.4,1.1,0.9C111.1,79.7,110.8,79.3,110.6,78.6z"/>
		<path class="st22" d="M109,79.8c0.6-0.2,0.9,0.2,1.1,0.9C109.2,81.3,108.8,80.3,109,79.8z"/>
		<path class="st22" d="M107.3,80.9c0.6-0.4,1.2,0.3,1,0.8C107.7,82,107.5,81.5,107.3,80.9z"/>
		<path class="st22" d="M105.6,81.9c0.2-0.1,0.3-0.1,0.5-0.2c0.2,0.3,0.7,0.9,0.5,1.3C105.9,83.2,105.6,82.4,105.6,81.9z"/>
		<path class="st22" d="M103.5,83.2c0.2-0.1,0.4-0.2,0.7-0.2c0.2,0.6,0.4,0.4,0.4,1C103.9,84.3,103.7,83.8,103.5,83.2z"/>
		<path class="st28" d="M81.1,14.8c3.7,1.9,9.8,7.8,12.8,12.5c6.1,9.7,7.2,22.3,5,30.6c-0.5,1.9-2.5,6.3-3.7,8.2
			c-2.3,3.6-4.4,5.6-8.1,8.5c-4.2,3.3-12.8,8.1-19.6,9.1c-1.4,0.2-3.4,0-5.2,0c-10.2,0.2-21.6-4.4-28.3-12.1c-1-1.1-1.7-2.6-2.5-3.9
			c-0.8-1.3-1.9-2.3-2.6-3.5c-2.5-4.3-3.6-9.2-4.4-13.3c-0.5-2.8-0.8-6-0.5-8.7c0.4-4.1,2-9.2,4.1-12.8c1-1.6,2.6-3,3.7-4.7
			c2.3-3.2,5.5-6.6,9-9c5.2-3.4,12.8-5.2,19.3-5.2c4.9,0,10.4,1.4,15,3.5c3.5,1.6,7.6,4,10.3,6.9c5.9,6.4,10.5,20.1,11.9,29.7
			c1.1-1.2,0.8-3.1,0.6-5c-0.7-5.2-2.4-12.5-5.6-18.2c-1.4-2.5-3.5-5-5.3-7C85.2,18.1,82.9,16.3,81.1,14.8z M66.8,21.6
			c0.1-1.3,0.6-3.7-0.1-4.8c-1.1-1.7-6.7-0.9-9.2-0.2c-6.7,1.8-13.6,6-16.5,10c3.2,4.9,7.1,8.5,11,12c3.5-2.7,8.8-4,12.6-3.6
			C65.8,30.9,66.3,26.2,66.8,21.6z M26.3,36.3c-0.7,2.7-1.8,6.8-0.7,9.3c-0.1-3.4,1-6.2,1.2-9.5C26.6,36.2,26.4,36.3,26.3,36.3z
			 M37.8,37.9c-1.6-0.5-3.7-2.2-4.4-0.5C31,42.8,32,51.3,34.9,59c5.7-1.5,10.5-4.5,14.9-7c-0.9-3.6-1.1-6.9-0.8-9.9
			C46.1,40.4,41.4,39.1,37.8,37.9z M72.5,29.8c-0.8,1.3-1.4,2.6-2.4,4.2c-0.7,1.2-2.4,3.2-2.2,4.3c0.2,1.1,1.8,2.4,2.6,3.5
			c0.9,1.4,1.5,2.7,2.4,4.1c5.7-1.6,12.3-3.6,17.7-6.5c-0.4-3.6-2.3-7.7-4.3-10.9c-2.2-3.7-5.3-6.9-8.4-7.4
			C76.4,23.7,74.8,26.2,72.5,29.8z M54.5,45.3c-1.4,2.7-0.4,7.8,2.8,9.8c1.7,1.1,5.6,1.5,8.1,0.3c1.9-0.9,3.6-4.3,3.4-7.1
			c-0.4-4.5-4.4-7.9-7.2-7.6c-0.8,0.1-2.4,1-2.7,1.2C57,42.7,55.4,43.7,54.5,45.3z M29.9,62.6c2.6,4.6,6.5,9,10,11.8
			c1.1,0.9,2.5,2.3,3.9,2.1c-4.7-4.3-9.8-7.9-13.5-14.4c-0.2,0.1-0.3-0.1-0.6,0C29.8,62.3,29.9,62.5,29.9,62.6z M54.6,57.9
			c-1.3-0.7-2.8-2.8-4-1.3c-1.5,1.8-3,3.7-4.7,6c-1.2,1.5-4.2,4.8-3.8,6.4c0.3,1.1,2.2,2,3.2,2.7c1.3,1,2.4,1.9,3.5,2.5
			c4.4,2.1,10.3,3.5,15.4,2.6c0.3-5.1-0.2-10.5-0.5-15.9C61.2,60.1,57.2,59.4,54.6,57.9z M67.3,60.2c2.4,5,4.7,10,7.3,14.6
			c5.5-2.1,9.3-6.5,12.4-10.4c3.2-3.9,5.7-8.8,5.3-14.1c-2.9-0.8-6.1-0.3-9.2-0.4c-3.2-0.1-6.7-0.3-9.8,0.2
			C72.1,53.8,69.9,57.1,67.3,60.2z M97.4,56.8c-0.1-0.2-0.2-0.4-0.2-0.7c-0.3-0.1-0.6,0-1,0.2C95.9,57.2,97,57.5,97.4,56.8z
			 M95.2,60.6c0.6,0,0.4-0.4,0.7-0.6c-0.2-0.5-0.5-0.6-1.1-0.4C94.7,59.9,94.9,60.4,95.2,60.6z M53.6,81c-1.9-1.5-4.3-1.8-6.5-2.7
			C49,79.9,51.2,80.7,53.6,81z M93.7,62.4c0,0.1,0.1,0.2,0.1,0.3c0.1,0,0.2,0,0.2,0.1c0.1,0,0.2-0.1,0.3-0.1c0-0.1,0-0.2,0.1-0.2
			c0-0.1-0.1-0.2-0.1-0.3c-0.1,0-0.2,0-0.2-0.1c-0.1,0-0.2,0.1-0.3,0.1C93.8,62.3,93.8,62.4,93.7,62.4z M57.2,81.8
			c4.6,1.4,11.1-0.2,16.9-2.5c7-2.8,13.9-7.5,16.5-11.9c0-0.2,0.1-0.4-0.3-0.3C84,74.6,68.7,82.4,57.2,81.8z"/>
		<path class="st26" d="M103.6,55.5c0.6,1.2,1.2,2.3,1.8,3.4c-2,1.3-4.3,2.4-5.6,4C100.8,60.9,100.6,57.1,103.6,55.5z"/>
	</g>
</g>
</svg>
