<svg xmlns="http://www.w3.org/2000/svg" viewBox="0 0 1918.87 442.93"><defs><style>.cls-1{fill:#4171b1;}</style></defs><title>footer-image-2</title><g id="Capa_2" data-name="Capa 2"><g id="Capa_3" data-name="Capa 3"><path class="cls-1" d="M1620.28,228c-2.84-14.24-5.18-30.16-3.44-37.89,0,0,20.55-11.4,25.51-18.38,1.76-2.49,4.29-6.88,6.81-11.5a67.9,67.9,0,0,0,21.9-17.18c45.5-7,54.22-63.49,31.18-92.54s-54.57-15.55-54.57-15.55c-.71-14.34-31.54-46.69-65.77-30.51s-25.31,44.85-25.31,44.85-22.6,4.45-34,22.79a54.83,54.83,0,0,0-5.28,11.12,35.17,35.17,0,0,0-8.1,7.56c-15.6,19.66-9.7,57.93,21.12,62.66,0,0,12.23,15.68,30,14.93a29.94,29.94,0,0,0,9.69-2,17,17,0,0,0,4,6.43c6.38,5.88,18.79,14.34,18.79,14.34s2.67,32-5.65,53.36q-21.25,7.81-42.34,15.07-11.82,4.05-23.58,7.94Q1441.61,289.75,1365,308V297c1-1,2.13-2,2.89-2.67.5-.47.85-.81,1-.93l4.55,4.83a.86.86,0,0,0,1.43-.34l0,.1,0-.31v0l.4-5.78h0a2.35,2.35,0,0,0,0-.26,3.84,3.84,0,0,0-.45-1.8h0a3.45,3.45,0,0,0-.41-.59c-.22-.26-.46-.55-.73-.85l-1.31-1.54-.83-1c-1.23-1.43-2.31-2.67-2.44-2.76l4.68-4.69a.94.94,0,0,0-.56-1.61h-.12l-.67,0-4.69-.2a3.59,3.59,0,0,0-2,.52,4.19,4.19,0,0,0-.6.44l-3.81,3.5c-1.13,1.05-2,1.91-2.24,2.12l-4.51-4.79a.89.89,0,0,0-1.52.6l0,.29c0-.07,0-.14,0-.21s-.09.75-.11.75l-.25,4.9a4,4,0,0,0,.17,1.43,5.17,5.17,0,0,0,.28.64h0a4.13,4.13,0,0,0,.41.59l1.14,1.33,1.73,2c1.24,1.44,2.32,2.67,2.44,2.76l-4.53,4.55a1,1,0,0,0,.48,1.73h.13l5.29.24h.18a3.62,3.62,0,0,0,1.83-.52h0a3.54,3.54,0,0,0,.58-.44l.39-.36v9.76q-22.55,5.38-44.82,10.13v-14c2.18-2,4.65-4.27,6-5.56l.43-.41c.26-.24.44-.43.53-.53h0l7.12,7.56a1.34,1.34,0,0,0,2.23-.55,1.08,1.08,0,0,0,0,.16l0-.47s0,0,0-.06l.63-9h0a5.88,5.88,0,0,0-.7-3.23h0s0,0,0,0a5.34,5.34,0,0,0-.63-.92c-1.37-1.61-3.42-4-5.15-6s-3-3.43-3.15-3.55l7.31-7.35a1.45,1.45,0,0,0-.88-2.5h-.19c-.28,0-1-.06-1-.08l-7.34-.31a5.65,5.65,0,0,0-3.15.81h0a5.09,5.09,0,0,0-.93.69c-2,1.81-5.23,4.77-7.37,6.77L1311,281l-.43.42a6.24,6.24,0,0,0-.53.53l-7.06-7.49a1.4,1.4,0,0,0-2.38.94l0,.48,0-.36s-.15,1.18-.18,1.18l-.38,7.67a6,6,0,0,0,.26,2.23,6.73,6.73,0,0,0,.43,1v0a6.25,6.25,0,0,0,.63.92c.15.17.32.36.48.56l.13.15.83,1,1.08,1.26,1.21,1.42.15.18,1.9,2.2c1.35,1.56,2.38,2.72,2.53,2.82l-7.09,7.13a1.59,1.59,0,0,0,.75,2.7l-.13,0h.34l8.26.38h.25a5.53,5.53,0,0,0,2.9-.82h0a6,6,0,0,0,.91-.68l.68-.62V319a1811.47,1811.47,0,0,1-252.75,35.45.79.79,0,0,0-.37-.73,3.27,3.27,0,0,0-1-.33,4.33,4.33,0,0,1-1.48-.79l.22-.23a.92.92,0,0,0-.36.13l-.27-.22.2-.21a1.15,1.15,0,0,0-.31.11l-.28-.24.15-.16a1.13,1.13,0,0,0-.24.08l-.53-.47a1.21,1.21,0,0,0-.7-.39h0l-.33-1.64a16,16,0,0,1,2.88-1.74,4.25,4.25,0,0,0,1.91-1,2,2,0,0,0,0-2.37,3.68,3.68,0,0,0-1.15-1,3.15,3.15,0,0,0-.33-.22,4.83,4.83,0,0,0-.9-.36,18.86,18.86,0,0,1-3-1.29c-.36-.22-.7-.48-1-.72a3.69,3.69,0,0,0,0-.92,2.28,2.28,0,0,0,0-.37,10.54,10.54,0,0,0-.94-3.25c0-.12-.13-.22-.18-.33-.95-2.51-2.11-4.89-2.11-4.89s8.21,2.28,15-2.88c.75-.57,2.16-1,1.45-3.44a1.37,1.37,0,0,1,.22-.2,11.16,11.16,0,0,1,2.22-1c.77-.31,2.76-1.6,2.38-2.36-.15-.31-1.27.2-1.4.26.12-.17,1.31-1.81.78-2.27s-1.52,1.19-1.68,1.43c0-.28.36-2-.11-2.16s-.78,1-1.31,1.69a1.37,1.37,0,0,1-.21.2.76.76,0,0,0-.8-.14c-.21-.67-.59-1.73-.93-1.61s-.33,3.23-.33,3.23l-.22.19c-1.32-1.54-2.72-.8-3.56-.3a57.44,57.44,0,0,1-15,5.85h0l.37-.1a10.08,10.08,0,0,0,5.88-5.33,1.14,1.14,0,0,0,.33.05,2.25,2.25,0,0,0,1.07-.35,1.78,1.78,0,0,0,1-.85,1.82,1.82,0,0,0,.44-1.11,2.08,2.08,0,0,0-.12-.66,1.21,1.21,0,0,0-1.33-1.41l.25-.58a11.84,11.84,0,0,0,.45-2.66,10.88,10.88,0,0,0-.13-3,4,4,0,0,0,4.75-4.11c0-2.3-1.35-3.69-3.57-3.67a4.6,4.6,0,0,0-4.1,2.3,14.43,14.43,0,0,0-2.92-2.22,13.45,13.45,0,0,0-10.15-.79,4.07,4.07,0,0,0-3.91-3c-1.91,0-2.94,1.6-2.92,3.58a3.56,3.56,0,0,0,2.25,3.31,7.21,7.21,0,0,0-1.42,3,17.41,17.41,0,0,0-.3,2.75,1.28,1.28,0,0,0-.86,1.34,1.85,1.85,0,0,0-.23.94c0,.06,0,.13,0,.2s0,.07,0,.11a1.69,1.69,0,0,0,1,2.07,1.56,1.56,0,0,0,.43.31,7.07,7.07,0,0,0,2.2,6.74,11.71,11.71,0,0,0,5.38,3.08c0,.16,0,.32,0,.48s0,.07,0,.1a26.25,26.25,0,0,1-3.05-.78c-4-1.57-8.49-4.29-9.91-4.36a2.28,2.28,0,0,0-1.4.48l-.12-.1s0-3.11-.39-3.23-.69.92-.89,1.6c0,0-.07,0-.1,0a6.17,6.17,0,0,0-.77.15.71.71,0,0,1-.15-.15c-.54-.68-.82-1.81-1.34-1.67s-.11,1.95-.07,2.18c-.12-.18-1.23-1.83-1.71-1.4s.69,2.08.82,2.25c-.13-.05-1.26-.55-1.4-.24-.36.77,1.64,2,2.42,2.31a12.94,12.94,0,0,1,2.17.94,4.74,4.74,0,0,0,.25,3.34c.73,1,2.71,1.72,4.44,2.2a13.62,13.62,0,0,0,4.7,1.06,15.12,15.12,0,0,0,2.13-.08l.44-.07c.46,0,.84,0,1.14-.07l.23,0a.85.85,0,0,1,.5.47l.57,8a2.89,2.89,0,0,0,.11,1.72,3.57,3.57,0,0,0,0,.62,20.15,20.15,0,0,1-.42,3.95,7.93,7.93,0,0,0-.11,2.95,2.88,2.88,0,0,0,1.78,2.2,3.4,3.4,0,0,0,2.5-.37l.67-.37.13,1.31h0a1.26,1.26,0,0,0-.55.59l-.36.62a.7.7,0,0,0-.25,0l.19.1-.2.32a1.14,1.14,0,0,0-.32,0l.24.13-.18.29a1.27,1.27,0,0,0-.39,0l.28.15a5.56,5.56,0,0,1-.42.54c-1.08.06-2.11.13-3.06.21q-8.2.47-16.36.84l-.62-.11a1.29,1.29,0,0,0-.36-.81,5.37,5.37,0,0,0-1.31-.77,6.88,6.88,0,0,1-1.89-1.56l.39-.27a1.51,1.51,0,0,0-.56.07l-.31-.39.33-.23a1.83,1.83,0,0,0-.47.05l-.34-.42.27-.19a2.2,2.2,0,0,0-.37,0l-.62-.84a1.82,1.82,0,0,0-.89-.76h0l0-2.75c2.13,0,4-.18,4.32-.83.73-1.37-1.36-9.82-2.58-14.38.05,0,.11-.08.13-.13.54-1.13-.89-4.75-1.44-6.77-.86-3.18-1.83-6.32-2.85-9.44l8.41-3.09a20,20,0,0,0-.83-3.22,1.25,1.25,0,0,1-.08-.12c.76-.66,1.53-1.33,1.93-1.72,1.08-1,1.62-2.29,2.33-2.94a4,4,0,0,1,.43-.31,46.34,46.34,0,0,1,1,8.08,43.18,43.18,0,0,0-.56-8.18c.62.09,1.33-.43,1.87-.75a.74.74,0,0,0-.09-1.29,3.63,3.63,0,0,0,0-.5l-.61-1.16a3.18,3.18,0,0,0-.55-.46.68.68,0,0,0-.88-.74,4.68,4.68,0,0,0-.6.24c-.84-3.55-1.88-7-2.88-10.52a112.62,112.62,0,0,1-2.87-11.48,54.33,54.33,0,0,1-.73-11.74,55.39,55.39,0,0,1,6-22.56,52.17,52.17,0,0,1,5.27-8.4L1055,245.9a17.6,17.6,0,0,1,2.82,5.54.47.47,0,0,0-.21.32L1054,251l.84,3.7,2.89-2.49a.46.46,0,0,0,.3.15,14.42,14.42,0,0,1,.27,1.46,22,22,0,0,1,.12,4.52c0,.29-.05.58-.08.86a.51.51,0,0,0-.28.22l-3.09-2.07-.48,3.78,3.54-1.26a.53.53,0,0,0,.2.22c-.12.91-.28,1.83-.43,2.76a25.36,25.36,0,0,0-.31,3.61.51.51,0,0,0-.22.24l-3.3-1.68-.06,3.8,3.38-1.68a.45.45,0,0,0,.24.21v.12a9.58,9.58,0,0,0,1.43,4.4,10.8,10.8,0,0,0,1.16,1.53.48.48,0,0,0-.08.42l-3.57.92,2.32,3,1.54-3.55a.44.44,0,0,0,.44-.07,12.62,12.62,0,0,0,1.32,1.1,13.71,13.71,0,0,0,4,1.88,13.89,13.89,0,0,1-5.17-3.29.55.55,0,0,0,0-.18l3.65-.94-2.31-2.95-1.56,3.58a.42.42,0,0,0-.28-.07,9.58,9.58,0,0,1-1.11-1.56,9.74,9.74,0,0,1-1.3-4.21v-.2a.41.41,0,0,0,.07-.11l3.38,1.73.06-3.81-3.41,1.69a.62.62,0,0,0-.12-.19,24.36,24.36,0,0,1,.34-3.6c.16-1,.31-1.93.42-2.91a.22.22,0,0,0,.07-.09L1062,262l.48-3.78-3.58,1.27a.46.46,0,0,0-.07-.16,20.9,20.9,0,0,0-.12-5.64c-.08-.51-.2-1-.33-1.53a.46.46,0,0,0,.12-.23l3.68.81-.84-3.71-2.91,2.51a.42.42,0,0,0-.29-.2,15.66,15.66,0,0,0-.82-2,17.94,17.94,0,0,0-2.3-3.48l-.56-29-20.44-4.3-4.3,21.18,2.58,1.24a53.8,53.8,0,0,0-5.47,8.24,54.82,54.82,0,0,0-6.41,22.95,55.48,55.48,0,0,0,.85,12,93.86,93.86,0,0,0,3.06,11.55c1.11,3.49,2.26,7,3.2,10.52a1.29,1.29,0,0,0-1,1,1.66,1.66,0,0,0-.17.45,1,1,0,0,0,.13.72s-2.25,2.29-3,3c-.43.36-1.28,1-2.08,1.57l-.63-.58s-5.58,3.82-9.41,6a2.39,2.39,0,0,0-.26-.41,9,9,0,0,0,5.43-5.29,8,8,0,0,0-.34-5.88c-.08-.16-.16-.3-.24-.45a1.74,1.74,0,0,0,.4-.23,1.67,1.67,0,0,0,.78-.4A1.15,1.15,0,0,0,1017,298a1.84,1.84,0,0,0-.16-.41,1.28,1.28,0,0,0-.86-1.49,1.24,1.24,0,0,0-1,.23c0-.4,0-.77,0-.86a14.76,14.76,0,0,0-.33-2.73c-.29-1.28-.74-3.1-1.74-4h0c.41.35,2-1.45,2.24-1.72a2.41,2.41,0,0,0,.49-1.61,2.26,2.26,0,0,0-1.31-1.75,4.18,4.18,0,0,0-2.19-.29,13.94,13.94,0,0,0-2.24.36c-.36.1-.72.23-1.07.36-.15.06-.76.43-.89.38a9.34,9.34,0,0,0-4.54-.38,10.62,10.62,0,0,0-2.2.63,9.85,9.85,0,0,0-1,.51c-.18.1-.65.53-.82.53a5.79,5.79,0,0,0-4.66,2.58,8.76,8.76,0,0,0-1.22,2.25,11.5,11.5,0,0,0-.4,1.26,4.5,4.5,0,0,1-.23,1.16,7.48,7.48,0,0,0-1.3,5.37,9.53,9.53,0,0,0,.49,2.3,6,6,0,0,0,.45,1.08c.09.17.61.59.62.72.21,2.78,2.16,6.22,5.2,6a8.42,8.42,0,0,0,.95,1.35,9.07,9.07,0,0,0,6,3h.13c0,.2,0,.41,0,.62,0,0,0,0,0,.06a109.52,109.52,0,0,1-11-3.78s-.38.27-.85.66c-1-.65-2.37-1.62-2.95-2.1-.83-.68-3.12-2.92-3.12-2.92s.23-3.11-.12-3.25-.86,1.07-1.09,1.71a2.11,2.11,0,0,0-.81-.15l-.14-.14c-.48-.73-.66-1.89-1.19-1.79s-.24,2.19-.24,2.19-1-2-1.6-1.57.53,2.13.64,2.31c-.13-.07-1.21-.65-1.38-.35-.43.73,1.47,2.15,2.22,2.51a12.06,12.06,0,0,1,2.15,1.17c.72.63,1.29,1.86,2.39,2.89.59.55,2,1.71,3,2.54-.3,1.18-.59,2.75-.59,2.75a52,52,0,0,0,6.18,2.85,34.27,34.27,0,0,0,4.62.4c.06,1.81-.77,3.57-1.09,5.35A21.5,21.5,0,0,1,999.2,329c-.25.64-.08,1.53-.33,2.17a4,4,0,0,0-.34,1.39,1.47,1.47,0,0,0,.3.89c-1.61,4.41-4.33,12.36-3.49,13.77.37.63,2,.81,4,.79l0,2.65h0a1.84,1.84,0,0,0-.88.78l-.6.85a1.47,1.47,0,0,0-.36,0l.26.18-.33.43a1.47,1.47,0,0,0-.47,0l.34.22c-.1.13-.2.27-.31.4a1.51,1.51,0,0,0-.56-.06l.39.26A6.65,6.65,0,0,1,995,355.2a5.28,5.28,0,0,0-1.29.78,1.34,1.34,0,0,0-.34.87c-1.45.28-2.28.6-2.28.92,0,0,0,.06,0,.08a1730.21,1730.21,0,0,1-429.82-42.26c-.37-16.43-.49-41.83,0-43.15.73-1.89,25.07-3.4,27.61-4.15,1.47-.43,8.73-6.88,14.62-12.27,2.21,4,6.91,8.43,16.87,10.69,20.68,4.7,37.14-18,33.63-37.8a39.22,39.22,0,0,0-18.81-27.53s15.45-13.54,6.48-34.29S613,149.16,613,149.16s8.27-18.82-5.46-34c-14.27-15.78-30.82-10.37-35.9-9.16,0,0-7.67-24.06-36.12-18-25.06,5.37-27.87,28.91-23.18,39.84,0,0-27.41-2-35.51,19.66-8,21.48,2.29,35.47,7.31,40.66a19.13,19.13,0,0,0-13,7.79c-10.08,5.8-20.11,17.3-12.8,39.51a25,25,0,0,0,2.45,4.74,29.26,29.26,0,0,0-1.05,4.15c-2.48,14,9.15,30,23.76,26.7s13.22-13.26,13.22-13.26,6.8,2.85,17.07-1.49c1.14,2.05,14.2,9.79,19.56,15.34,3.58,3.72,4.18,22.45,3.86,38.26C493.48,299.36,452,287.53,413,275q-22.77-7.33-44.42-15-10.87-3.84-21.47-7.73c-5.31-16.1-2.46-36.37-1.07-44,2-11.17,22.88-32.34,33.2-41.65,6-5.39,13.37-12.41,18.54-17.38,27.79-2.19,35.53-7.77,35.07-19-.41-10.12-9.58-26.24-41.25-23.08a124,124,0,0,0-15.24,2.5C384,99.82,393.09,88.06,393.61,87c.6-1.24,7.44-8.76,11.9-13.58,21.37-4.11,23.66-16.44,21.7-27.65-2.44-13.9-17-21.79-44.15-21.95-25.28-.15-46.85,5.93-47.77,23.62a31.43,31.43,0,0,0,0,3.22c-2.38.11-4.84.28-7.4.53-17.87,1.72-49.73,8.51-56,21.29-7,14.29-4,31.53,21.22,32.13,4.49.11,9.88.19,15.76.2.87,2.43,1.85,5.14,2.87,8-9.67-4.73-23.6-7.07-39.89-5.85-13,1-45.13,1.87-45,22.58.08,11.53,4.3,22.08,25.22,25.21l2.74,6.43,22.82,12.11s42.9,27.69,44.69,29.78,3.14,9.31,2.25,33.28a69.5,69.5,0,0,1-.65,7.15C117.79,164.43,0,73.59,0,73.59V442.93H1918.87V86C1816.79,143.65,1717.12,190.46,1620.28,228ZM401.4,74.06c-4.19,4.08-9.88,9.4-10.74,9a7.81,7.81,0,0,1-1.27-2.68,23.41,23.41,0,0,0-.7-5.53A101.35,101.35,0,0,0,401.4,74.06ZM257.46,158.19c-.48-.68-1.2-1.76-2-3a112.77,112.77,0,0,0,14.25.46l.76,8.11S259.25,160.75,257.46,158.19ZM393,149.51c-3.06,2.36-6,4.36-7,4.26s-1.7-1.88-2.29-4.08Q388,149.77,393,149.51ZM274.28,163.78c-.69-.31-1.51-4.06-2.21-8.18a185.55,185.55,0,0,0,24.28-2.32l-4.8,5.61S275.85,164.47,274.28,163.78Zm47.78,28.85c-5.16,1.4-41.27-23.25-41.27-23.25l12.78-7.93,7.3-9.07c9.77-2.15,16.62-5.32,20.7-9.51a145.76,145.76,0,0,1,4.56,19C327.42,171.29,327.22,191.23,322.06,192.63Zm4.48-59.8a4.33,4.33,0,0,1-.43-.51c0-.58,0-1.16,0-1.77-.31-5.17-3.06-9.8-7.76-13.57-1.85-4-3.74-8.33-5.42-12.18,4.62,0,9.47-.06,14.36-.15C327.88,113.87,329,135,326.54,132.83Zm5.68-19.32c-.79-.71-.8-5.4-.68-9,6.84-.17,13.66-.44,19.95-.84C344.35,107.91,333.09,114.3,332.22,113.51Zm6.18,4.42c-.38-1.77,13-10.6,19.41-14.68,7.53-.63,13.93-1.49,18.12-2.64-2.71,4-5.68,8.15-8.37,11.49-8.94,3.11-16.59,7.89-17.33,15-5.62,4.08-10.68,7.56-10.68,7.56S338.88,120.26,338.4,117.93Zm2.28,32.35c.5-1.58,5.73-7.34,11.31-13.18,3.5,7.18,12.33,11.81,29,12.51.58,4,.7,8.17-.86,10.21-3.36,4.42-32.3,32.11-35.44,30S339.55,153.77,340.68,150.28ZM539.9,263.39c-2.55.76-15.63-6.41-18.2-8.29a11.61,11.61,0,0,1-2-2.38,17.86,17.86,0,0,0,5.65-12.25l.76.08a22.65,22.65,0,0,0,9.61,9C538.25,255,541.56,262.9,539.9,263.39Zm10.53-2.87c-2.16,1.21-5.62-3.9-8.44-8.61,12.73,3.2,19.78-4.38,19.78-4.38a5.73,5.73,0,0,0,.33.77C556.8,254.35,551.91,259.7,550.43,260.52Zm9.08,0c-.24-.58,2.14-4,5.4-8.32,2.48,2.6,6.77,5.63,14,7.23,14.37,3.19,19.11-10.38,19.11-10.38s0-.12,0-.18a18,18,0,0,0,3.68-.94,12.5,12.5,0,0,0,.37,4.3L588.21,263S560.24,262.26,559.51,260.52ZM1015,355.75v0c-1.78,0-3.68,0-5.66,0s-4.08.07-5.95.16l0,0a4.43,4.43,0,0,0,.17-1.7l-.06-1.89a1.47,1.47,0,0,0-.2-.86l0-3.69c2.46-.23,4.53-.55,4.53-.55l1.72-7.42,1.92,7.39s1.55.19,3.52.34l0,3.81a1.51,1.51,0,0,0-.19.87c0,.63,0,1.26,0,1.89A4.37,4.37,0,0,0,1015,355.75Zm37.65-.44-2.51,0a.17.17,0,0,1,0-.07l0-.32c0-.43-.1-.86-.16-1.29a1.07,1.07,0,0,0-.19-.56l-.27-2.69c2.11-.36,4.42.41,6.54,0l.35,1.7a1,1,0,0,0,0,.59c.08.43.15.85.23,1.28a3.82,3.82,0,0,0,.27.89,1.45,1.45,0,0,0,.09.22.87.87,0,0,0,.24.23C1055.68,355.3,1054.16,355.29,1052.6,355.31Zm528.8-185.45c-1.42-.67-3.26-3.57-5-7a27.34,27.34,0,0,0,7.2-7.9l1.71,5.7,14.89,14.7S1585.29,171.7,1581.4,169.86Zm9.21-11.4a22.89,22.89,0,0,1-1.06-2.28,42.82,42.82,0,0,0,17.24,3.3,40.75,40.75,0,0,0,8,3.53c-3.86,4.32-9,9.42-9,9.42S1593.09,162.87,1590.61,158.46Zm31.9,6.25c1.37.17,2.78.3,4.25.37a44.58,44.58,0,0,0,14.55-1.85,25.08,25.08,0,0,1-2.5,3.69c-2.8,2.89-25.5,10.78-26.21,11A145.26,145.26,0,0,0,1622.51,164.71Z"/></g></g></svg>